<svg width="97" height="101" viewBox="0 0 97 101" fill="none" xmlns="http://www.w3.org/2000/svg">
<path d="M28.9895 38.7443C25.992 38.6903 23.4536 41.2287 23.4536 44.2262C23.4536 47.1966 25.965 49.681 28.9085 49.681C31.9059 49.681 34.3363 47.2506 34.3633 44.2262C34.3903 41.2287 32.0139 38.7983 28.9895 38.7443ZM28.9085 46.5215C27.7203 46.4945 26.6671 45.4414 26.6401 44.2532C26.6401 43.011 27.7743 41.9308 28.9895 41.9848C30.2317 42.0388 31.1768 43.038 31.1498 44.3072C31.1498 45.5224 30.1236 46.5215 28.9085 46.5215Z" fill="white"/>
<path d="M67.5514 60.7258C64.5269 60.7528 62.1506 63.1291 62.1776 66.2076C62.2046 69.2321 64.635 71.6624 67.6054 71.6624C70.5759 71.6624 73.0603 69.1511 73.0873 66.2076C73.1143 63.1561 70.6299 60.6988 67.5514 60.7258ZM67.5784 68.4219C66.3362 68.3949 65.3911 67.3958 65.3911 66.1536C65.3911 64.8574 66.3362 63.9392 67.6054 63.9392C68.8476 63.9392 69.8738 64.9114 69.8738 66.1536C69.9008 67.3688 68.8206 68.4489 67.5784 68.4219ZM67.5514 60.7258C64.5269 60.7528 62.1506 63.1291 62.1776 66.2076C62.2046 69.2321 64.635 71.6624 67.6054 71.6624C70.5759 71.6624 73.0603 69.1511 73.0873 66.2076C73.1143 63.1561 70.6299 60.6988 67.5514 60.7258ZM67.5784 68.4219C66.3362 68.3949 65.3911 67.3958 65.3911 66.1536C65.3911 64.8574 66.3362 63.9392 67.6054 63.9392C68.8476 63.9392 69.8738 64.9114 69.8738 66.1536C69.9008 67.3688 68.8206 68.4489 67.5784 68.4219ZM67.5514 60.7258C64.5269 60.7528 62.1506 63.1291 62.1776 66.2076C62.2046 69.2321 64.635 71.6624 67.6054 71.6624C70.5759 71.6624 73.0603 69.1511 73.0873 66.2076C73.1143 63.1561 70.6299 60.6988 67.5514 60.7258ZM67.5784 68.4219C66.3362 68.3949 65.3911 67.3958 65.3911 66.1536C65.3911 64.8574 66.3362 63.9392 67.6054 63.9392C68.8476 63.9392 69.8738 64.9114 69.8738 66.1536C69.9008 67.3688 68.8206 68.4489 67.5784 68.4219ZM67.5514 60.7258C64.5269 60.7528 62.1506 63.1291 62.1776 66.2076C62.2046 69.2321 64.635 71.6624 67.6054 71.6624C70.5759 71.6624 73.0603 69.1511 73.0873 66.2076C73.1143 63.1561 70.6299 60.6988 67.5514 60.7258ZM67.5784 68.4219C66.3362 68.3949 65.3911 67.3958 65.3911 66.1536C65.3911 64.8574 66.3362 63.9392 67.6054 63.9392C68.8476 63.9392 69.8738 64.9114 69.8738 66.1536C69.9008 67.3688 68.8206 68.4489 67.5784 68.4219ZM67.6594 16.0609C64.635 16.0339 62.1776 18.5182 62.1776 21.5697C62.2046 24.5942 64.635 27.0246 67.6324 26.9976C70.6029 26.9976 73.0873 24.5132 73.0873 21.5427C73.1143 18.5993 70.6299 16.1149 67.6594 16.0609ZM67.6054 23.8381C66.3632 23.8111 65.3911 22.8119 65.3911 21.5697C65.3911 20.3275 66.3632 19.3014 67.6054 19.2744C68.7936 19.2474 69.8738 20.3005 69.9008 21.4887C69.9278 22.7309 68.8206 23.8381 67.6054 23.8381ZM67.5514 60.7258C64.5269 60.7528 62.1506 63.1291 62.1776 66.2076C62.2046 69.2321 64.635 71.6624 67.6054 71.6624C70.5759 71.6624 73.0603 69.1511 73.0873 66.2076C73.1143 63.1561 70.6299 60.6988 67.5514 60.7258ZM67.5784 68.4219C66.3362 68.3949 65.3911 67.3958 65.3911 66.1536C65.3911 64.8574 66.3362 63.9392 67.6054 63.9392C68.8476 63.9392 69.8738 64.9114 69.8738 66.1536C69.9008 67.3688 68.8206 68.4489 67.5784 68.4219ZM67.5514 60.7258C64.5269 60.7528 62.1506 63.1291 62.1776 66.2076C62.2046 69.2321 64.635 71.6624 67.6054 71.6624C70.5759 71.6624 73.0603 69.1511 73.0873 66.2076C73.1143 63.1561 70.6299 60.6988 67.5514 60.7258ZM67.5784 68.4219C66.3362 68.3949 65.3911 67.3958 65.3911 66.1536C65.3911 64.8574 66.3362 63.9392 67.6054 63.9392C68.8476 63.9392 69.8738 64.9114 69.8738 66.1536C69.9008 67.3688 68.8206 68.4489 67.5784 68.4219ZM67.6594 16.0609C64.635 16.0339 62.1776 18.5182 62.1776 21.5697C62.2046 24.5942 64.635 27.0246 67.6324 26.9976C70.6029 26.9976 73.0873 24.5132 73.0873 21.5427C73.1143 18.5993 70.6299 16.1149 67.6594 16.0609ZM67.6054 23.8381C66.3632 23.8111 65.3911 22.8119 65.3911 21.5697C65.3911 20.3275 66.3632 19.3014 67.6054 19.2744C68.7936 19.2474 69.8738 20.3005 69.9008 21.4887C69.9278 22.7309 68.8206 23.8381 67.6054 23.8381ZM67.6594 16.0609C64.635 16.0339 62.1776 18.5182 62.1776 21.5697C62.2046 24.5942 64.635 27.0246 67.6324 26.9976C70.6029 26.9976 73.0873 24.5132 73.0873 21.5427C73.1143 18.5993 70.6299 16.1149 67.6594 16.0609ZM67.6054 23.8381C66.3632 23.8111 65.3911 22.8119 65.3911 21.5697C65.3911 20.3275 66.3632 19.3014 67.6054 19.2744C68.7936 19.2474 69.8738 20.3005 69.9008 21.4887C69.9278 22.7309 68.8206 23.8381 67.6054 23.8381ZM67.5514 60.7258C64.5269 60.7528 62.1506 63.1291 62.1776 66.2076C62.2046 69.2321 64.635 71.6624 67.6054 71.6624C70.5759 71.6624 73.0603 69.1511 73.0873 66.2076C73.1143 63.1561 70.6299 60.6988 67.5514 60.7258ZM67.5784 68.4219C66.3362 68.3949 65.3911 67.3958 65.3911 66.1536C65.3911 64.8574 66.3362 63.9392 67.6054 63.9392C68.8476 63.9392 69.8738 64.9114 69.8738 66.1536C69.9008 67.3688 68.8206 68.4489 67.5784 68.4219ZM67.5514 60.7258C64.5269 60.7528 62.1506 63.1291 62.1776 66.2076C62.2046 69.2321 64.635 71.6624 67.6054 71.6624C70.5759 71.6624 73.0603 69.1511 73.0873 66.2076C73.1143 63.1561 70.6299 60.6988 67.5514 60.7258ZM67.5784 68.4219C66.3362 68.3949 65.3911 67.3958 65.3911 66.1536C65.3911 64.8574 66.3362 63.9392 67.6054 63.9392C68.8476 63.9392 69.8738 64.9114 69.8738 66.1536C69.9008 67.3688 68.8206 68.4489 67.5784 68.4219ZM67.6594 16.0609C64.635 16.0339 62.1776 18.5182 62.1776 21.5697C62.2046 24.5942 64.635 27.0246 67.6324 26.9976C70.6029 26.9976 73.0873 24.5132 73.0873 21.5427C73.1143 18.5993 70.6299 16.1149 67.6594 16.0609ZM67.6054 23.8381C66.3632 23.8111 65.3911 22.8119 65.3911 21.5697C65.3911 20.3275 66.3632 19.3014 67.6054 19.2744C68.7936 19.2474 69.8738 20.3005 69.9008 21.4887C69.9278 22.7309 68.8206 23.8381 67.6054 23.8381ZM67.6594 16.0609C64.635 16.0339 62.1776 18.5182 62.1776 21.5697C62.2046 24.5942 64.635 27.0246 67.6324 26.9976C70.6029 26.9976 73.0873 24.5132 73.0873 21.5427C73.1143 18.5993 70.6299 16.1149 67.6594 16.0609ZM67.6054 23.8381C66.3632 23.8111 65.3911 22.8119 65.3911 21.5697C65.3911 20.3275 66.3632 19.3014 67.6054 19.2744C68.7936 19.2474 69.8738 20.3005 69.9008 21.4887C69.9278 22.7309 68.8206 23.8381 67.6054 23.8381ZM67.5514 60.7258C64.5269 60.7528 62.1506 63.1291 62.1776 66.2076C62.2046 69.2321 64.635 71.6624 67.6054 71.6624C70.5759 71.6624 73.0603 69.1511 73.0873 66.2076C73.1143 63.1561 70.6299 60.6988 67.5514 60.7258ZM67.5784 68.4219C66.3362 68.3949 65.3911 67.3958 65.3911 66.1536C65.3911 64.8574 66.3362 63.9392 67.6054 63.9392C68.8476 63.9392 69.8738 64.9114 69.8738 66.1536C69.9008 67.3688 68.8206 68.4489 67.5784 68.4219ZM67.5514 60.7258C64.5269 60.7528 62.1506 63.1291 62.1776 66.2076C62.2046 69.2321 64.635 71.6624 67.6054 71.6624C70.5759 71.6624 73.0603 69.1511 73.0873 66.2076C73.1143 63.1561 70.6299 60.6988 67.5514 60.7258ZM67.5784 68.4219C66.3362 68.3949 65.3911 67.3958 65.3911 66.1536C65.3911 64.8574 66.3362 63.9392 67.6054 63.9392C68.8476 63.9392 69.8738 64.9114 69.8738 66.1536C69.9008 67.3688 68.8206 68.4489 67.5784 68.4219ZM67.6594 16.0609C64.635 16.0339 62.1776 18.5182 62.1776 21.5697C62.2046 24.5942 64.635 27.0246 67.6324 26.9976C70.6029 26.9976 73.0873 24.5132 73.0873 21.5427C73.1143 18.5993 70.6299 16.1149 67.6594 16.0609ZM67.6054 23.8381C66.3632 23.8111 65.3911 22.8119 65.3911 21.5697C65.3911 20.3275 66.3632 19.3014 67.6054 19.2744C68.7936 19.2474 69.8738 20.3005 69.9008 21.4887C69.9278 22.7309 68.8206 23.8381 67.6054 23.8381ZM94.6096 65.4245C90.802 62.427 86.9944 59.4295 83.1058 56.3781C83.2678 56.2971 83.3219 56.2431 83.3759 56.2431C84.7531 56.2431 86.1303 56.2431 87.5075 56.2431C89.1547 56.2431 89.6678 55.703 89.6678 54.0827V27.9967C89.9379 28.1317 90.0999 28.2397 90.2619 28.3208C93.0163 29.59 96.0678 27.9697 96.4729 24.9452C96.7159 23.0549 95.7168 21.7047 94.2585 20.5706C85.8332 13.9816 77.4349 7.33853 69.0366 0.722507C67.8215 -0.222639 67.3894 -0.249645 66.2012 0.695501C60.6113 5.09718 55.0485 9.47185 49.4586 13.8735C46.4342 16.2499 43.4367 18.6263 40.4122 21.0026C38.927 22.1638 38.4139 23.73 38.819 25.4853C39.2241 27.2406 40.4392 28.2937 42.2215 28.6988C43.3287 28.9418 44.3818 28.5368 45.408 28.1047V35.2338C45.084 34.9908 44.8409 34.8018 44.6249 34.6127C39.8722 30.8591 35.1194 27.1056 30.3397 23.379C29.1245 22.4339 28.6924 22.4338 27.5042 23.352C21.5903 28.0237 15.6494 32.6954 9.73551 37.3401C7.0621 39.4465 4.38868 41.5258 1.74227 43.6591C0.311054 44.7933 -0.310042 46.3055 0.149029 48.1418C0.581096 49.8701 1.74227 50.8962 3.44354 51.3283C4.63172 51.6253 5.71189 51.1933 6.81906 50.6802V76.4962C6.81906 78.4675 7.27813 78.8996 9.27644 78.8996C20.9692 78.8996 32.635 78.9266 44.3278 78.8725C45.354 78.8725 45.489 79.1696 45.489 80.0877C45.435 86.2717 45.462 92.4286 45.462 98.6126C45.462 100.26 46.0021 100.8 47.6493 100.8C60.9354 100.8 74.2485 100.8 87.5615 100.8C89.1547 100.8 89.6948 100.287 89.6948 98.6936C89.6948 90.3493 89.6948 82.032 89.6948 73.6878C89.6948 73.3367 89.7218 72.9856 89.7488 72.5536C90.991 73.2827 92.1792 73.4987 93.4214 73.1207C95.1767 72.5806 96.2028 71.3654 96.4729 69.6101C96.7429 67.8548 95.9868 66.4776 94.6096 65.4245ZM85.7252 53.0296C83.7809 52.9756 81.8096 52.9756 79.8653 53.0296C79.1362 53.0566 78.6231 52.7325 78.029 52.4085C75.7877 51.1393 75.1396 49.357 75.2746 46.7916C75.5176 41.7148 75.3556 36.611 75.3286 31.5072C75.3286 29.887 74.7885 29.3469 73.1413 29.3469C69.4417 29.3469 65.7421 29.3469 62.0426 29.3469C60.4223 29.3469 59.8822 29.887 59.8822 31.5342C59.8822 37.4752 59.8822 43.4161 59.8822 49.33C59.8822 50.0051 59.6662 50.4372 59.1261 50.8422C56.4797 52.8945 53.8603 54.9739 51.1059 57.1342V50.6802C52.1861 51.2203 53.2392 51.5713 54.3734 51.2743C56.0746 50.8692 57.2898 49.8161 57.6679 48.1148C58.073 46.3325 57.5599 44.7663 56.1017 43.6051C53.8333 41.8228 51.565 40.0135 49.2696 38.2313C48.8375 37.8802 48.6485 37.5562 48.6485 36.9891C48.6755 33.3705 48.6755 29.779 48.6485 26.1604C48.6485 25.5933 48.8105 25.2423 49.2696 24.8912C55.2105 20.2465 61.1244 15.5748 67.0113 10.9031C67.4704 10.525 67.7404 10.552 68.1725 10.9031C74.0864 15.5748 80.0003 20.2465 85.9413 24.8912C86.3193 25.1883 86.4813 25.4853 86.4813 25.9714C86.4813 34.6937 86.4543 43.4431 86.4813 52.1654C86.5083 52.8945 86.3463 53.0566 85.7252 53.0296ZM72.1421 47.7097C71.062 46.8456 70.0898 46.0895 69.1447 45.3604C67.8485 44.3612 67.4434 44.3612 66.1472 45.3604C65.175 46.1165 64.2029 46.8726 63.0687 47.7638C63.0687 42.768 63.0687 38.0423 63.0687 33.2895C63.0687 32.7764 63.1767 32.5874 63.7438 32.5874C66.3362 32.6144 68.9286 32.6144 71.521 32.5874C71.9531 32.5874 72.1961 32.6144 72.1961 33.1545C72.1151 37.9342 72.1421 42.714 72.1421 47.7097ZM44.1658 24.9182C43.8148 25.1883 43.5177 25.5123 43.0316 25.5123C42.5456 25.5123 42.1675 25.2693 42.0325 24.8372C41.8435 24.3241 41.9785 23.8651 42.4375 23.487C43.8148 22.4068 45.192 21.3267 46.5422 20.2465C53.3472 14.8997 60.1253 9.55286 66.9033 4.17904C67.3624 3.80098 67.6594 3.63896 68.2265 4.09803C76.3008 10.498 84.375 16.871 92.4763 23.244C92.8003 23.487 93.1244 23.73 93.2594 24.1351C93.4214 24.6212 93.2054 24.9992 92.8543 25.2963C92.3412 25.7014 91.8552 25.5663 91.3961 25.2153C89.7218 23.8921 88.0746 22.5959 86.4003 21.2727C80.6214 16.709 74.8425 12.1453 69.0366 7.58156C67.8485 6.63642 67.3894 6.63642 66.2012 7.58156C58.8561 13.3605 51.5109 19.1393 44.1658 24.9182ZM5.49585 47.6287C5.38784 47.7098 5.27982 47.7908 5.1718 47.8718C4.57771 48.3308 3.98362 48.3849 3.49755 47.7638C2.98447 47.1157 3.25451 46.5756 3.82159 46.1165C5.41484 44.8743 6.98108 43.6051 8.57433 42.3629C15.1363 37.2051 21.6713 32.0473 28.2334 26.8625C28.7464 26.4575 29.0435 26.3495 29.6376 26.8355C37.6578 33.2085 45.678 39.5275 53.7253 45.8465C54.1303 46.1705 54.6434 46.4406 54.6164 47.0887C54.6434 47.5477 54.4544 47.8988 54.0493 48.0878C53.5633 48.3308 53.1582 48.1958 52.7531 47.8718C50.9439 46.4405 49.1076 45.0093 47.2983 43.5511C41.7354 39.1494 36.1456 34.7477 30.5827 30.3731C29.1785 29.2659 28.8274 29.2659 27.4232 30.3731C20.0781 36.125 12.787 41.8769 5.49585 47.6287ZM32.581 75.7131C30.1236 75.6591 27.6663 75.6591 25.2089 75.7131C24.5338 75.7131 24.3988 75.497 24.3988 74.8759C24.4258 68.611 24.4258 62.319 24.3988 56.054C24.3988 55.4869 24.4528 55.2169 25.1279 55.2439C27.6393 55.2979 30.1777 55.2709 32.689 55.2439C33.3101 55.2439 33.4722 55.3789 33.4722 56.027C33.4452 59.1595 33.4452 62.292 33.4452 65.4245C33.4452 68.53 33.4182 71.6354 33.4722 74.7409C33.4992 75.443 33.3912 75.7401 32.581 75.7131ZM44.9489 75.7131C42.3835 75.7131 39.8181 75.6861 37.2797 75.7131C36.6316 75.7131 36.6857 75.389 36.6857 74.9569C36.6857 72.9316 36.6857 70.9063 36.6857 68.881C36.6857 64.0473 36.6857 59.2405 36.6857 54.4068C36.6857 52.5165 36.1996 52.0304 34.2823 52.0304C30.6367 52.0304 27.0182 52.0304 23.3726 52.0304C21.7524 52.0304 21.2123 52.5705 21.2123 54.2177C21.2123 61.0498 21.2123 67.9089 21.2393 74.7679C21.2393 75.524 21.0773 75.7131 20.2941 75.7131C17.1887 75.6591 14.1102 75.6591 11.0047 75.7131C10.3026 75.7131 10.0326 75.605 10.0326 74.7949C10.0596 66.1536 10.0596 57.5122 10.0326 48.8979C10.0326 48.3578 10.1406 47.9798 10.5996 47.6287C16.5135 43.011 22.4005 38.3663 28.2874 33.6946C28.7464 33.3165 29.0435 33.2625 29.5296 33.6676C35.4165 38.3393 41.3034 42.984 47.2173 47.6017C47.6763 47.9798 47.8654 48.3578 47.8654 48.9519C47.8384 52.2194 47.8114 55.4869 47.8654 58.7815C47.8654 59.5646 47.5683 59.9966 47.0012 60.4557C44.7599 62.184 42.5456 63.9392 40.3312 65.6945C38.927 66.8017 38.4409 68.3409 38.819 70.0422C39.17 71.6624 40.2502 72.7696 41.8705 73.2287C43.0856 73.5527 44.2468 73.3637 45.462 72.6076C45.462 73.5797 45.435 74.4169 45.462 75.254C45.516 75.632 45.3 75.7131 44.9489 75.7131ZM71.44 97.5864C68.8746 97.5594 66.3362 97.5594 63.7708 97.5864C63.1767 97.5864 63.0687 97.3974 63.0687 96.8303C63.0957 91.9156 63.0957 87.0008 63.0687 82.086C63.0687 81.4649 63.2308 81.2759 63.8518 81.3029C66.3632 81.3299 68.9016 81.3569 71.413 81.3029C72.1151 81.3029 72.1691 81.573 72.1421 82.113C72.1151 84.5704 72.1421 87.0278 72.1421 89.4852C72.1421 91.9426 72.1151 94.3999 72.1421 96.8573C72.1421 97.4244 72.0071 97.5864 71.44 97.5864ZM85.5632 97.6134C82.4577 97.5594 79.3792 97.5594 76.2738 97.6134C75.5446 97.6134 75.3286 97.4784 75.3286 96.6953C75.3556 91.1864 75.3556 85.7046 75.3556 80.1957C75.3556 78.6025 74.8695 78.0894 73.2493 78.0894C69.4687 78.0894 65.7151 78.0894 61.9345 78.0894C60.3953 78.0894 59.8822 78.6295 59.8822 80.1688C59.8822 85.6776 59.8552 91.1594 59.8822 96.6683C59.8822 97.4244 59.7202 97.6134 58.9641 97.6134C55.8046 97.5594 52.6451 97.5864 49.4586 97.6134C48.8645 97.6134 48.6485 97.5054 48.6755 96.8573C48.7025 88.162 48.7025 79.4396 48.6755 70.7443C48.6755 70.2582 48.8105 69.9342 49.1886 69.6371C55.1565 64.9384 61.1514 60.2397 67.0923 55.5139C67.4974 55.1899 67.7404 55.2439 68.1185 55.541C74.0864 60.2667 80.0543 64.9654 86.0223 69.6641C86.4543 69.9882 86.4543 70.3662 86.4543 70.7983C86.4543 75.119 86.4543 79.4396 86.4543 83.7603C86.4543 88.081 86.4273 92.4016 86.4813 96.7223C86.5083 97.4784 86.2923 97.6134 85.5632 97.6134ZM93.0433 69.7181C92.4493 70.3932 91.8012 70.1232 91.1801 69.6371C83.9159 63.9122 76.6518 58.1874 69.3877 52.4355C67.7674 51.1663 67.4974 51.1663 65.9042 52.4085C58.7211 58.0793 51.5379 63.7502 44.3278 69.3941C43.9498 69.6911 43.5987 70.1232 43.0586 70.0962C42.5186 70.0962 42.1405 69.9072 42.0055 69.4211C41.8435 68.908 41.9515 68.4489 42.4375 68.0709C43.9768 66.8557 45.489 65.6675 47.0283 64.4523C53.6983 59.2135 60.3413 53.9477 67.0113 48.7089C67.4704 48.3578 67.7404 48.3038 68.1995 48.6819C76.3278 55.1089 84.456 61.5359 92.6113 67.9359C93.2324 68.4489 93.6644 69.016 93.0433 69.7181ZM67.5514 60.7258C64.5269 60.7528 62.1506 63.1291 62.1776 66.2076C62.2046 69.2321 64.635 71.6624 67.6054 71.6624C70.5759 71.6624 73.0603 69.1511 73.0873 66.2076C73.1143 63.1561 70.6299 60.6988 67.5514 60.7258ZM67.5784 68.4219C66.3362 68.3949 65.3911 67.3958 65.3911 66.1536C65.3911 64.8574 66.3362 63.9392 67.6054 63.9392C68.8476 63.9392 69.8738 64.9114 69.8738 66.1536C69.9008 67.3688 68.8206 68.4489 67.5784 68.4219ZM67.6594 16.0609C64.635 16.0339 62.1776 18.5182 62.1776 21.5697C62.2046 24.5942 64.635 27.0246 67.6324 26.9976C70.6029 26.9976 73.0873 24.5132 73.0873 21.5427C73.1143 18.5993 70.6299 16.1149 67.6594 16.0609ZM67.6054 23.8381C66.3632 23.8111 65.3911 22.8119 65.3911 21.5697C65.3911 20.3275 66.3632 19.3014 67.6054 19.2744C68.7936 19.2474 69.8738 20.3005 69.9008 21.4887C69.9278 22.7309 68.8206 23.8381 67.6054 23.8381ZM67.6594 16.0609C64.635 16.0339 62.1776 18.5182 62.1776 21.5697C62.2046 24.5942 64.635 27.0246 67.6324 26.9976C70.6029 26.9976 73.0873 24.5132 73.0873 21.5427C73.1143 18.5993 70.6299 16.1149 67.6594 16.0609ZM67.6054 23.8381C66.3632 23.8111 65.3911 22.8119 65.3911 21.5697C65.3911 20.3275 66.3632 19.3014 67.6054 19.2744C68.7936 19.2474 69.8738 20.3005 69.9008 21.4887C69.9278 22.7309 68.8206 23.8381 67.6054 23.8381ZM67.5514 60.7258C64.5269 60.7528 62.1506 63.1291 62.1776 66.2076C62.2046 69.2321 64.635 71.6624 67.6054 71.6624C70.5759 71.6624 73.0603 69.1511 73.0873 66.2076C73.1143 63.1561 70.6299 60.6988 67.5514 60.7258ZM67.5784 68.4219C66.3362 68.3949 65.3911 67.3958 65.3911 66.1536C65.3911 64.8574 66.3362 63.9392 67.6054 63.9392C68.8476 63.9392 69.8738 64.9114 69.8738 66.1536C69.9008 67.3688 68.8206 68.4489 67.5784 68.4219ZM67.5514 60.7258C64.5269 60.7528 62.1506 63.1291 62.1776 66.2076C62.2046 69.2321 64.635 71.6624 67.6054 71.6624C70.5759 71.6624 73.0603 69.1511 73.0873 66.2076C73.1143 63.1561 70.6299 60.6988 67.5514 60.7258ZM67.5784 68.4219C66.3362 68.3949 65.3911 67.3958 65.3911 66.1536C65.3911 64.8574 66.3362 63.9392 67.6054 63.9392C68.8476 63.9392 69.8738 64.9114 69.8738 66.1536C69.9008 67.3688 68.8206 68.4489 67.5784 68.4219ZM67.6594 16.0609C64.635 16.0339 62.1776 18.5182 62.1776 21.5697C62.2046 24.5942 64.635 27.0246 67.6324 26.9976C70.6029 26.9976 73.0873 24.5132 73.0873 21.5427C73.1143 18.5993 70.6299 16.1149 67.6594 16.0609ZM67.6054 23.8381C66.3632 23.8111 65.3911 22.8119 65.3911 21.5697C65.3911 20.3275 66.3632 19.3014 67.6054 19.2744C68.7936 19.2474 69.8738 20.3005 69.9008 21.4887C69.9278 22.7309 68.8206 23.8381 67.6054 23.8381ZM67.6594 16.0609C64.635 16.0339 62.1776 18.5182 62.1776 21.5697C62.2046 24.5942 64.635 27.0246 67.6324 26.9976C70.6029 26.9976 73.0873 24.5132 73.0873 21.5427C73.1143 18.5993 70.6299 16.1149 67.6594 16.0609ZM67.6054 23.8381C66.3632 23.8111 65.3911 22.8119 65.3911 21.5697C65.3911 20.3275 66.3632 19.3014 67.6054 19.2744C68.7936 19.2474 69.8738 20.3005 69.9008 21.4887C69.9278 22.7309 68.8206 23.8381 67.6054 23.8381ZM67.5514 60.7258C64.5269 60.7528 62.1506 63.1291 62.1776 66.2076C62.2046 69.2321 64.635 71.6624 67.6054 71.6624C70.5759 71.6624 73.0603 69.1511 73.0873 66.2076C73.1143 63.1561 70.6299 60.6988 67.5514 60.7258ZM67.5784 68.4219C66.3362 68.3949 65.3911 67.3958 65.3911 66.1536C65.3911 64.8574 66.3362 63.9392 67.6054 63.9392C68.8476 63.9392 69.8738 64.9114 69.8738 66.1536C69.9008 67.3688 68.8206 68.4489 67.5784 68.4219ZM67.5514 60.7258C64.5269 60.7528 62.1506 63.1291 62.1776 66.2076C62.2046 69.2321 64.635 71.6624 67.6054 71.6624C70.5759 71.6624 73.0603 69.1511 73.0873 66.2076C73.1143 63.1561 70.6299 60.6988 67.5514 60.7258ZM67.5784 68.4219C66.3362 68.3949 65.3911 67.3958 65.3911 66.1536C65.3911 64.8574 66.3362 63.9392 67.6054 63.9392C68.8476 63.9392 69.8738 64.9114 69.8738 66.1536C69.9008 67.3688 68.8206 68.4489 67.5784 68.4219ZM67.6594 16.0609C64.635 16.0339 62.1776 18.5182 62.1776 21.5697C62.2046 24.5942 64.635 27.0246 67.6324 26.9976C70.6029 26.9976 73.0873 24.5132 73.0873 21.5427C73.1143 18.5993 70.6299 16.1149 67.6594 16.0609ZM67.6054 23.8381C66.3632 23.8111 65.3911 22.8119 65.3911 21.5697C65.3911 20.3275 66.3632 19.3014 67.6054 19.2744C68.7936 19.2474 69.8738 20.3005 69.9008 21.4887C69.9278 22.7309 68.8206 23.8381 67.6054 23.8381ZM67.5514 60.7258C64.5269 60.7528 62.1506 63.1291 62.1776 66.2076C62.2046 69.2321 64.635 71.6624 67.6054 71.6624C70.5759 71.6624 73.0603 69.1511 73.0873 66.2076C73.1143 63.1561 70.6299 60.6988 67.5514 60.7258ZM67.5784 68.4219C66.3362 68.3949 65.3911 67.3958 65.3911 66.1536C65.3911 64.8574 66.3362 63.9392 67.6054 63.9392C68.8476 63.9392 69.8738 64.9114 69.8738 66.1536C69.9008 67.3688 68.8206 68.4489 67.5784 68.4219ZM67.5514 60.7258C64.5269 60.7528 62.1506 63.1291 62.1776 66.2076C62.2046 69.2321 64.635 71.6624 67.6054 71.6624C70.5759 71.6624 73.0603 69.1511 73.0873 66.2076C73.1143 63.1561 70.6299 60.6988 67.5514 60.7258ZM67.5784 68.4219C66.3362 68.3949 65.3911 67.3958 65.3911 66.1536C65.3911 64.8574 66.3362 63.9392 67.6054 63.9392C68.8476 63.9392 69.8738 64.9114 69.8738 66.1536C69.9008 67.3688 68.8206 68.4489 67.5784 68.4219ZM67.5514 60.7258C64.5269 60.7528 62.1506 63.1291 62.1776 66.2076C62.2046 69.2321 64.635 71.6624 67.6054 71.6624C70.5759 71.6624 73.0603 69.1511 73.0873 66.2076C73.1143 63.1561 70.6299 60.6988 67.5514 60.7258ZM67.5784 68.4219C66.3362 68.3949 65.3911 67.3958 65.3911 66.1536C65.3911 64.8574 66.3362 63.9392 67.6054 63.9392C68.8476 63.9392 69.8738 64.9114 69.8738 66.1536C69.9008 67.3688 68.8206 68.4489 67.5784 68.4219ZM67.5514 60.7258C64.5269 60.7528 62.1506 63.1291 62.1776 66.2076C62.2046 69.2321 64.635 71.6624 67.6054 71.6624C70.5759 71.6624 73.0603 69.1511 73.0873 66.2076C73.1143 63.1561 70.6299 60.6988 67.5514 60.7258ZM67.5784 68.4219C66.3362 68.3949 65.3911 67.3958 65.3911 66.1536C65.3911 64.8574 66.3362 63.9392 67.6054 63.9392C68.8476 63.9392 69.8738 64.9114 69.8738 66.1536C69.9008 67.3688 68.8206 68.4489 67.5784 68.4219Z" fill="white"/>
<path d="M28.9895 38.7443C25.992 38.6903 23.4536 41.2287 23.4536 44.2262C23.4536 47.1966 25.965 49.681 28.9085 49.681C31.9059 49.681 34.3363 47.2506 34.3633 44.2262C34.3903 41.2287 32.0139 38.7983 28.9895 38.7443ZM28.9085 46.5215C27.7203 46.4945 26.6671 45.4414 26.6401 44.2532C26.6401 43.011 27.7743 41.9308 28.9895 41.9848C30.2317 42.0388 31.1768 43.038 31.1498 44.3072C31.1498 45.5224 30.1236 46.5215 28.9085 46.5215Z" fill="white"/>
<path d="M67.5514 60.7258C64.5269 60.7528 62.1506 63.1291 62.1776 66.2076C62.2046 69.2321 64.635 71.6624 67.6054 71.6624C70.5759 71.6624 73.0603 69.1511 73.0873 66.2076C73.1143 63.1561 70.6299 60.6988 67.5514 60.7258ZM67.5784 68.4219C66.3362 68.3949 65.3911 67.3958 65.3911 66.1536C65.3911 64.8574 66.3362 63.9392 67.6054 63.9392C68.8476 63.9392 69.8738 64.9114 69.8738 66.1536C69.9008 67.3688 68.8206 68.4489 67.5784 68.4219ZM67.5514 60.7258C64.5269 60.7528 62.1506 63.1291 62.1776 66.2076C62.2046 69.2321 64.635 71.6624 67.6054 71.6624C70.5759 71.6624 73.0603 69.1511 73.0873 66.2076C73.1143 63.1561 70.6299 60.6988 67.5514 60.7258ZM67.5784 68.4219C66.3362 68.3949 65.3911 67.3958 65.3911 66.1536C65.3911 64.8574 66.3362 63.9392 67.6054 63.9392C68.8476 63.9392 69.8738 64.9114 69.8738 66.1536C69.9008 67.3688 68.8206 68.4489 67.5784 68.4219ZM67.5514 60.7258C64.5269 60.7528 62.1506 63.1291 62.1776 66.2076C62.2046 69.2321 64.635 71.6624 67.6054 71.6624C70.5759 71.6624 73.0603 69.1511 73.0873 66.2076C73.1143 63.1561 70.6299 60.6988 67.5514 60.7258ZM67.5784 68.4219C66.3362 68.3949 65.3911 67.3958 65.3911 66.1536C65.3911 64.8574 66.3362 63.9392 67.6054 63.9392C68.8476 63.9392 69.8738 64.9114 69.8738 66.1536C69.9008 67.3688 68.8206 68.4489 67.5784 68.4219ZM67.5514 60.7258C64.5269 60.7528 62.1506 63.1291 62.1776 66.2076C62.2046 69.2321 64.635 71.6624 67.6054 71.6624C70.5759 71.6624 73.0603 69.1511 73.0873 66.2076C73.1143 63.1561 70.6299 60.6988 67.5514 60.7258ZM67.5784 68.4219C66.3362 68.3949 65.3911 67.3958 65.3911 66.1536C65.3911 64.8574 66.3362 63.9392 67.6054 63.9392C68.8476 63.9392 69.8738 64.9114 69.8738 66.1536C69.9008 67.3688 68.8206 68.4489 67.5784 68.4219ZM67.6594 16.0609C64.635 16.0339 62.1776 18.5182 62.1776 21.5697C62.2046 24.5942 64.635 27.0246 67.6324 26.9976C70.6029 26.9976 73.0873 24.5132 73.0873 21.5427C73.1143 18.5993 70.6299 16.1149 67.6594 16.0609ZM67.6054 23.8381C66.3632 23.8111 65.3911 22.8119 65.3911 21.5697C65.3911 20.3275 66.3632 19.3014 67.6054 19.2744C68.7936 19.2474 69.8738 20.3005 69.9008 21.4887C69.9278 22.7309 68.8206 23.8381 67.6054 23.8381ZM67.5514 60.7258C64.5269 60.7528 62.1506 63.1291 62.1776 66.2076C62.2046 69.2321 64.635 71.6624 67.6054 71.6624C70.5759 71.6624 73.0603 69.1511 73.0873 66.2076C73.1143 63.1561 70.6299 60.6988 67.5514 60.7258ZM67.5784 68.4219C66.3362 68.3949 65.3911 67.3958 65.3911 66.1536C65.3911 64.8574 66.3362 63.9392 67.6054 63.9392C68.8476 63.9392 69.8738 64.9114 69.8738 66.1536C69.9008 67.3688 68.8206 68.4489 67.5784 68.4219ZM67.5514 60.7258C64.5269 60.7528 62.1506 63.1291 62.1776 66.2076C62.2046 69.2321 64.635 71.6624 67.6054 71.6624C70.5759 71.6624 73.0603 69.1511 73.0873 66.2076C73.1143 63.1561 70.6299 60.6988 67.5514 60.7258ZM67.5784 68.4219C66.3362 68.3949 65.3911 67.3958 65.3911 66.1536C65.3911 64.8574 66.3362 63.9392 67.6054 63.9392C68.8476 63.9392 69.8738 64.9114 69.8738 66.1536C69.9008 67.3688 68.8206 68.4489 67.5784 68.4219ZM67.6594 16.0609C64.635 16.0339 62.1776 18.5182 62.1776 21.5697C62.2046 24.5942 64.635 27.0246 67.6324 26.9976C70.6029 26.9976 73.0873 24.5132 73.0873 21.5427C73.1143 18.5993 70.6299 16.1149 67.6594 16.0609ZM67.6054 23.8381C66.3632 23.8111 65.3911 22.8119 65.3911 21.5697C65.3911 20.3275 66.3632 19.3014 67.6054 19.2744C68.7936 19.2474 69.8738 20.3005 69.9008 21.4887C69.9278 22.7309 68.8206 23.8381 67.6054 23.8381ZM67.6594 16.0609C64.635 16.0339 62.1776 18.5182 62.1776 21.5697C62.2046 24.5942 64.635 27.0246 67.6324 26.9976C70.6029 26.9976 73.0873 24.5132 73.0873 21.5427C73.1143 18.5993 70.6299 16.1149 67.6594 16.0609ZM67.6054 23.8381C66.3632 23.8111 65.3911 22.8119 65.3911 21.5697C65.3911 20.3275 66.3632 19.3014 67.6054 19.2744C68.7936 19.2474 69.8738 20.3005 69.9008 21.4887C69.9278 22.7309 68.8206 23.8381 67.6054 23.8381ZM67.5514 60.7258C64.5269 60.7528 62.1506 63.1291 62.1776 66.2076C62.2046 69.2321 64.635 71.6624 67.6054 71.6624C70.5759 71.6624 73.0603 69.1511 73.0873 66.2076C73.1143 63.1561 70.6299 60.6988 67.5514 60.7258ZM67.5784 68.4219C66.3362 68.3949 65.3911 67.3958 65.3911 66.1536C65.3911 64.8574 66.3362 63.9392 67.6054 63.9392C68.8476 63.9392 69.8738 64.9114 69.8738 66.1536C69.9008 67.3688 68.8206 68.4489 67.5784 68.4219ZM67.5514 60.7258C64.5269 60.7528 62.1506 63.1291 62.1776 66.2076C62.2046 69.2321 64.635 71.6624 67.6054 71.6624C70.5759 71.6624 73.0603 69.1511 73.0873 66.2076C73.1143 63.1561 70.6299 60.6988 67.5514 60.7258ZM67.5784 68.4219C66.3362 68.3949 65.3911 67.3958 65.3911 66.1536C65.3911 64.8574 66.3362 63.9392 67.6054 63.9392C68.8476 63.9392 69.8738 64.9114 69.8738 66.1536C69.9008 67.3688 68.8206 68.4489 67.5784 68.4219ZM67.6594 16.0609C64.635 16.0339 62.1776 18.5182 62.1776 21.5697C62.2046 24.5942 64.635 27.0246 67.6324 26.9976C70.6029 26.9976 73.0873 24.5132 73.0873 21.5427C73.1143 18.5993 70.6299 16.1149 67.6594 16.0609ZM67.6054 23.8381C66.3632 23.8111 65.3911 22.8119 65.3911 21.5697C65.3911 20.3275 66.3632 19.3014 67.6054 19.2744C68.7936 19.2474 69.8738 20.3005 69.9008 21.4887C69.9278 22.7309 68.8206 23.8381 67.6054 23.8381ZM67.6594 16.0609C64.635 16.0339 62.1776 18.5182 62.1776 21.5697C62.2046 24.5942 64.635 27.0246 67.6324 26.9976C70.6029 26.9976 73.0873 24.5132 73.0873 21.5427C73.1143 18.5993 70.6299 16.1149 67.6594 16.0609ZM67.6054 23.8381C66.3632 23.8111 65.3911 22.8119 65.3911 21.5697C65.3911 20.3275 66.3632 19.3014 67.6054 19.2744C68.7936 19.2474 69.8738 20.3005 69.9008 21.4887C69.9278 22.7309 68.8206 23.8381 67.6054 23.8381ZM67.5514 60.7258C64.5269 60.7528 62.1506 63.1291 62.1776 66.2076C62.2046 69.2321 64.635 71.6624 67.6054 71.6624C70.5759 71.6624 73.0603 69.1511 73.0873 66.2076C73.1143 63.1561 70.6299 60.6988 67.5514 60.7258ZM67.5784 68.4219C66.3362 68.3949 65.3911 67.3958 65.3911 66.1536C65.3911 64.8574 66.3362 63.9392 67.6054 63.9392C68.8476 63.9392 69.8738 64.9114 69.8738 66.1536C69.9008 67.3688 68.8206 68.4489 67.5784 68.4219ZM67.5514 60.7258C64.5269 60.7528 62.1506 63.1291 62.1776 66.2076C62.2046 69.2321 64.635 71.6624 67.6054 71.6624C70.5759 71.6624 73.0603 69.1511 73.0873 66.2076C73.1143 63.1561 70.6299 60.6988 67.5514 60.7258ZM67.5784 68.4219C66.3362 68.3949 65.3911 67.3958 65.3911 66.1536C65.3911 64.8574 66.3362 63.9392 67.6054 63.9392C68.8476 63.9392 69.8738 64.9114 69.8738 66.1536C69.9008 67.3688 68.8206 68.4489 67.5784 68.4219ZM67.6594 16.0609C64.635 16.0339 62.1776 18.5182 62.1776 21.5697C62.2046 24.5942 64.635 27.0246 67.6324 26.9976C70.6029 26.9976 73.0873 24.5132 73.0873 21.5427C73.1143 18.5993 70.6299 16.1149 67.6594 16.0609ZM67.6054 23.8381C66.3632 23.8111 65.3911 22.8119 65.3911 21.5697C65.3911 20.3275 66.3632 19.3014 67.6054 19.2744C68.7936 19.2474 69.8738 20.3005 69.9008 21.4887C69.9278 22.7309 68.8206 23.8381 67.6054 23.8381ZM94.6096 65.4245C90.802 62.427 86.9944 59.4295 83.1058 56.3781C83.2678 56.2971 83.3219 56.2431 83.3759 56.2431C84.7531 56.2431 86.1303 56.2431 87.5075 56.2431C89.1547 56.2431 89.6678 55.703 89.6678 54.0827V27.9967C89.9379 28.1317 90.0999 28.2397 90.2619 28.3208C93.0163 29.59 96.0678 27.9697 96.4729 24.9452C96.7159 23.0549 95.7168 21.7047 94.2585 20.5706C85.8332 13.9816 77.4349 7.33853 69.0366 0.722507C67.8215 -0.222639 67.3894 -0.249645 66.2012 0.695501C60.6113 5.09718 55.0485 9.47185 49.4586 13.8735C46.4342 16.2499 43.4367 18.6263 40.4122 21.0026C38.927 22.1638 38.4139 23.73 38.819 25.4853C39.2241 27.2406 40.4392 28.2937 42.2215 28.6988C43.3287 28.9418 44.3818 28.5368 45.408 28.1047V35.2338C45.084 34.9908 44.8409 34.8018 44.6249 34.6127C39.8722 30.8591 35.1194 27.1056 30.3397 23.379C29.1245 22.4339 28.6924 22.4338 27.5042 23.352C21.5903 28.0237 15.6494 32.6954 9.73551 37.3401C7.0621 39.4465 4.38868 41.5258 1.74227 43.6591C0.311054 44.7933 -0.310042 46.3055 0.149029 48.1418C0.581096 49.8701 1.74227 50.8962 3.44354 51.3283C4.63172 51.6253 5.71189 51.1933 6.81906 50.6802V76.4962C6.81906 78.4675 7.27813 78.8996 9.27644 78.8996C20.9692 78.8996 32.635 78.9266 44.3278 78.8725C45.354 78.8725 45.489 79.1696 45.489 80.0877C45.435 86.2717 45.462 92.4286 45.462 98.6126C45.462 100.26 46.0021 100.8 47.6493 100.8C60.9354 100.8 74.2485 100.8 87.5615 100.8C89.1547 100.8 89.6948 100.287 89.6948 98.6936C89.6948 90.3493 89.6948 82.032 89.6948 73.6878C89.6948 73.3367 89.7218 72.9856 89.7488 72.5536C90.991 73.2827 92.1792 73.4987 93.4214 73.1207C95.1767 72.5806 96.2028 71.3654 96.4729 69.6101C96.7429 67.8548 95.9868 66.4776 94.6096 65.4245ZM85.7252 53.0296C83.7809 52.9756 81.8096 52.9756 79.8653 53.0296C79.1362 53.0566 78.6231 52.7325 78.029 52.4085C75.7877 51.1393 75.1396 49.357 75.2746 46.7916C75.5176 41.7148 75.3556 36.611 75.3286 31.5072C75.3286 29.887 74.7885 29.3469 73.1413 29.3469C69.4417 29.3469 65.7421 29.3469 62.0426 29.3469C60.4223 29.3469 59.8822 29.887 59.8822 31.5342C59.8822 37.4752 59.8822 43.4161 59.8822 49.33C59.8822 50.0051 59.6662 50.4372 59.1261 50.8422C56.4797 52.8945 53.8603 54.9739 51.1059 57.1342V50.6802C52.1861 51.2203 53.2392 51.5713 54.3734 51.2743C56.0746 50.8692 57.2898 49.8161 57.6679 48.1148C58.073 46.3325 57.5599 44.7663 56.1017 43.6051C53.8333 41.8228 51.565 40.0135 49.2696 38.2313C48.8375 37.8802 48.6485 37.5562 48.6485 36.9891C48.6755 33.3705 48.6755 29.779 48.6485 26.1604C48.6485 25.5933 48.8105 25.2423 49.2696 24.8912C55.2105 20.2465 61.1244 15.5748 67.0113 10.9031C67.4704 10.525 67.7404 10.552 68.1725 10.9031C74.0864 15.5748 80.0003 20.2465 85.9413 24.8912C86.3193 25.1883 86.4813 25.4853 86.4813 25.9714C86.4813 34.6937 86.4543 43.4431 86.4813 52.1654C86.5083 52.8945 86.3463 53.0566 85.7252 53.0296ZM72.1421 47.7097C71.062 46.8456 70.0898 46.0895 69.1447 45.3604C67.8485 44.3612 67.4434 44.3612 66.1472 45.3604C65.175 46.1165 64.2029 46.8726 63.0687 47.7638C63.0687 42.768 63.0687 38.0423 63.0687 33.2895C63.0687 32.7764 63.1767 32.5874 63.7438 32.5874C66.3362 32.6144 68.9286 32.6144 71.521 32.5874C71.9531 32.5874 72.1961 32.6144 72.1961 33.1545C72.1151 37.9342 72.1421 42.714 72.1421 47.7097ZM44.1658 24.9182C43.8148 25.1883 43.5177 25.5123 43.0316 25.5123C42.5456 25.5123 42.1675 25.2693 42.0325 24.8372C41.8435 24.3241 41.9785 23.8651 42.4375 23.487C43.8148 22.4068 45.192 21.3267 46.5422 20.2465C53.3472 14.8997 60.1253 9.55286 66.9033 4.17904C67.3624 3.80098 67.6594 3.63896 68.2265 4.09803C76.3008 10.498 84.375 16.871 92.4763 23.244C92.8003 23.487 93.1244 23.73 93.2594 24.1351C93.4214 24.6212 93.2054 24.9992 92.8543 25.2963C92.3412 25.7014 91.8552 25.5663 91.3961 25.2153C89.7218 23.8921 88.0746 22.5959 86.4003 21.2727C80.6214 16.709 74.8425 12.1453 69.0366 7.58156C67.8485 6.63642 67.3894 6.63642 66.2012 7.58156C58.8561 13.3605 51.5109 19.1393 44.1658 24.9182ZM5.49585 47.6287C5.38784 47.7098 5.27982 47.7908 5.1718 47.8718C4.57771 48.3308 3.98362 48.3849 3.49755 47.7638C2.98447 47.1157 3.25451 46.5756 3.82159 46.1165C5.41484 44.8743 6.98108 43.6051 8.57433 42.3629C15.1363 37.2051 21.6713 32.0473 28.2334 26.8625C28.7464 26.4575 29.0435 26.3495 29.6376 26.8355C37.6578 33.2085 45.678 39.5275 53.7253 45.8465C54.1303 46.1705 54.6434 46.4406 54.6164 47.0887C54.6434 47.5477 54.4544 47.8988 54.0493 48.0878C53.5633 48.3308 53.1582 48.1958 52.7531 47.8718C50.9439 46.4405 49.1076 45.0093 47.2983 43.5511C41.7354 39.1494 36.1456 34.7477 30.5827 30.3731C29.1785 29.2659 28.8274 29.2659 27.4232 30.3731C20.0781 36.125 12.787 41.8769 5.49585 47.6287ZM32.581 75.7131C30.1236 75.6591 27.6663 75.6591 25.2089 75.7131C24.5338 75.7131 24.3988 75.497 24.3988 74.8759C24.4258 68.611 24.4258 62.319 24.3988 56.054C24.3988 55.4869 24.4528 55.2169 25.1279 55.2439C27.6393 55.2979 30.1777 55.2709 32.689 55.2439C33.3101 55.2439 33.4722 55.3789 33.4722 56.027C33.4452 59.1595 33.4452 62.292 33.4452 65.4245C33.4452 68.53 33.4182 71.6354 33.4722 74.7409C33.4992 75.443 33.3912 75.7401 32.581 75.7131ZM44.9489 75.7131C42.3835 75.7131 39.8181 75.6861 37.2797 75.7131C36.6316 75.7131 36.6857 75.389 36.6857 74.9569C36.6857 72.9316 36.6857 70.9063 36.6857 68.881C36.6857 64.0473 36.6857 59.2405 36.6857 54.4068C36.6857 52.5165 36.1996 52.0304 34.2823 52.0304C30.6367 52.0304 27.0182 52.0304 23.3726 52.0304C21.7524 52.0304 21.2123 52.5705 21.2123 54.2177C21.2123 61.0498 21.2123 67.9089 21.2393 74.7679C21.2393 75.524 21.0773 75.7131 20.2941 75.7131C17.1887 75.6591 14.1102 75.6591 11.0047 75.7131C10.3026 75.7131 10.0326 75.605 10.0326 74.7949C10.0596 66.1536 10.0596 57.5122 10.0326 48.8979C10.0326 48.3578 10.1406 47.9798 10.5996 47.6287C16.5135 43.011 22.4005 38.3663 28.2874 33.6946C28.7464 33.3165 29.0435 33.2625 29.5296 33.6676C35.4165 38.3393 41.3034 42.984 47.2173 47.6017C47.6763 47.9798 47.8654 48.3578 47.8654 48.9519C47.8384 52.2194 47.8114 55.4869 47.8654 58.7815C47.8654 59.5646 47.5683 59.9966 47.0012 60.4557C44.7599 62.184 42.5456 63.9392 40.3312 65.6945C38.927 66.8017 38.4409 68.3409 38.819 70.0422C39.17 71.6624 40.2502 72.7696 41.8705 73.2287C43.0856 73.5527 44.2468 73.3637 45.462 72.6076C45.462 73.5797 45.435 74.4169 45.462 75.254C45.516 75.632 45.3 75.7131 44.9489 75.7131ZM71.44 97.5864C68.8746 97.5594 66.3362 97.5594 63.7708 97.5864C63.1767 97.5864 63.0687 97.3974 63.0687 96.8303C63.0957 91.9156 63.0957 87.0008 63.0687 82.086C63.0687 81.4649 63.2308 81.2759 63.8518 81.3029C66.3632 81.3299 68.9016 81.3569 71.413 81.3029C72.1151 81.3029 72.1691 81.573 72.1421 82.113C72.1151 84.5704 72.1421 87.0278 72.1421 89.4852C72.1421 91.9426 72.1151 94.3999 72.1421 96.8573C72.1421 97.4244 72.0071 97.5864 71.44 97.5864ZM85.5632 97.6134C82.4577 97.5594 79.3792 97.5594 76.2738 97.6134C75.5446 97.6134 75.3286 97.4784 75.3286 96.6953C75.3556 91.1864 75.3556 85.7046 75.3556 80.1957C75.3556 78.6025 74.8695 78.0894 73.2493 78.0894C69.4687 78.0894 65.7151 78.0894 61.9345 78.0894C60.3953 78.0894 59.8822 78.6295 59.8822 80.1688C59.8822 85.6776 59.8552 91.1594 59.8822 96.6683C59.8822 97.4244 59.7202 97.6134 58.9641 97.6134C55.8046 97.5594 52.6451 97.5864 49.4586 97.6134C48.8645 97.6134 48.6485 97.5054 48.6755 96.8573C48.7025 88.162 48.7025 79.4396 48.6755 70.7443C48.6755 70.2582 48.8105 69.9342 49.1886 69.6371C55.1565 64.9384 61.1514 60.2397 67.0923 55.5139C67.4974 55.1899 67.7404 55.2439 68.1185 55.541C74.0864 60.2667 80.0543 64.9654 86.0223 69.6641C86.4543 69.9882 86.4543 70.3662 86.4543 70.7983C86.4543 75.119 86.4543 79.4396 86.4543 83.7603C86.4543 88.081 86.4273 92.4016 86.4813 96.7223C86.5083 97.4784 86.2923 97.6134 85.5632 97.6134ZM93.0433 69.7181C92.4493 70.3932 91.8012 70.1232 91.1801 69.6371C83.9159 63.9122 76.6518 58.1874 69.3877 52.4355C67.7674 51.1663 67.4974 51.1663 65.9042 52.4085C58.7211 58.0793 51.5379 63.7502 44.3278 69.3941C43.9498 69.6911 43.5987 70.1232 43.0586 70.0962C42.5186 70.0962 42.1405 69.9072 42.0055 69.4211C41.8435 68.908 41.9515 68.4489 42.4375 68.0709C43.9768 66.8557 45.489 65.6675 47.0283 64.4523C53.6983 59.2135 60.3413 53.9477 67.0113 48.7089C67.4704 48.3578 67.7404 48.3038 68.1995 48.6819C76.3278 55.1089 84.456 61.5359 92.6113 67.9359C93.2324 68.4489 93.6644 69.016 93.0433 69.7181ZM67.5514 60.7258C64.5269 60.7528 62.1506 63.1291 62.1776 66.2076C62.2046 69.2321 64.635 71.6624 67.6054 71.6624C70.5759 71.6624 73.0603 69.1511 73.0873 66.2076C73.1143 63.1561 70.6299 60.6988 67.5514 60.7258ZM67.5784 68.4219C66.3362 68.3949 65.3911 67.3958 65.3911 66.1536C65.3911 64.8574 66.3362 63.9392 67.6054 63.9392C68.8476 63.9392 69.8738 64.9114 69.8738 66.1536C69.9008 67.3688 68.8206 68.4489 67.5784 68.4219ZM67.6594 16.0609C64.635 16.0339 62.1776 18.5182 62.1776 21.5697C62.2046 24.5942 64.635 27.0246 67.6324 26.9976C70.6029 26.9976 73.0873 24.5132 73.0873 21.5427C73.1143 18.5993 70.6299 16.1149 67.6594 16.0609ZM67.6054 23.8381C66.3632 23.8111 65.3911 22.8119 65.3911 21.5697C65.3911 20.3275 66.3632 19.3014 67.6054 19.2744C68.7936 19.2474 69.8738 20.3005 69.9008 21.4887C69.9278 22.7309 68.8206 23.8381 67.6054 23.8381ZM67.6594 16.0609C64.635 16.0339 62.1776 18.5182 62.1776 21.5697C62.2046 24.5942 64.635 27.0246 67.6324 26.9976C70.6029 26.9976 73.0873 24.5132 73.0873 21.5427C73.1143 18.5993 70.6299 16.1149 67.6594 16.0609ZM67.6054 23.8381C66.3632 23.8111 65.3911 22.8119 65.3911 21.5697C65.3911 20.3275 66.3632 19.3014 67.6054 19.2744C68.7936 19.2474 69.8738 20.3005 69.9008 21.4887C69.9278 22.7309 68.8206 23.8381 67.6054 23.8381ZM67.5514 60.7258C64.5269 60.7528 62.1506 63.1291 62.1776 66.2076C62.2046 69.2321 64.635 71.6624 67.6054 71.6624C70.5759 71.6624 73.0603 69.1511 73.0873 66.2076C73.1143 63.1561 70.6299 60.6988 67.5514 60.7258ZM67.5784 68.4219C66.3362 68.3949 65.3911 67.3958 65.3911 66.1536C65.3911 64.8574 66.3362 63.9392 67.6054 63.9392C68.8476 63.9392 69.8738 64.9114 69.8738 66.1536C69.9008 67.3688 68.8206 68.4489 67.5784 68.4219ZM67.5514 60.7258C64.5269 60.7528 62.1506 63.1291 62.1776 66.2076C62.2046 69.2321 64.635 71.6624 67.6054 71.6624C70.5759 71.6624 73.0603 69.1511 73.0873 66.2076C73.1143 63.1561 70.6299 60.6988 67.5514 60.7258ZM67.5784 68.4219C66.3362 68.3949 65.3911 67.3958 65.3911 66.1536C65.3911 64.8574 66.3362 63.9392 67.6054 63.9392C68.8476 63.9392 69.8738 64.9114 69.8738 66.1536C69.9008 67.3688 68.8206 68.4489 67.5784 68.4219ZM67.6594 16.0609C64.635 16.0339 62.1776 18.5182 62.1776 21.5697C62.2046 24.5942 64.635 27.0246 67.6324 26.9976C70.6029 26.9976 73.0873 24.5132 73.0873 21.5427C73.1143 18.5993 70.6299 16.1149 67.6594 16.0609ZM67.6054 23.8381C66.3632 23.8111 65.3911 22.8119 65.3911 21.5697C65.3911 20.3275 66.3632 19.3014 67.6054 19.2744C68.7936 19.2474 69.8738 20.3005 69.9008 21.4887C69.9278 22.7309 68.8206 23.8381 67.6054 23.8381ZM67.6594 16.0609C64.635 16.0339 62.1776 18.5182 62.1776 21.5697C62.2046 24.5942 64.635 27.0246 67.6324 26.9976C70.6029 26.9976 73.0873 24.5132 73.0873 21.5427C73.1143 18.5993 70.6299 16.1149 67.6594 16.0609ZM67.6054 23.8381C66.3632 23.8111 65.3911 22.8119 65.3911 21.5697C65.3911 20.3275 66.3632 19.3014 67.6054 19.2744C68.7936 19.2474 69.8738 20.3005 69.9008 21.4887C69.9278 22.7309 68.8206 23.8381 67.6054 23.8381ZM67.5514 60.7258C64.5269 60.7528 62.1506 63.1291 62.1776 66.2076C62.2046 69.2321 64.635 71.6624 67.6054 71.6624C70.5759 71.6624 73.0603 69.1511 73.0873 66.2076C73.1143 63.1561 70.6299 60.6988 67.5514 60.7258ZM67.5784 68.4219C66.3362 68.3949 65.3911 67.3958 65.3911 66.1536C65.3911 64.8574 66.3362 63.9392 67.6054 63.9392C68.8476 63.9392 69.8738 64.9114 69.8738 66.1536C69.9008 67.3688 68.8206 68.4489 67.5784 68.4219ZM67.5514 60.7258C64.5269 60.7528 62.1506 63.1291 62.1776 66.2076C62.2046 69.2321 64.635 71.6624 67.6054 71.6624C70.5759 71.6624 73.0603 69.1511 73.0873 66.2076C73.1143 63.1561 70.6299 60.6988 67.5514 60.7258ZM67.5784 68.4219C66.3362 68.3949 65.3911 67.3958 65.3911 66.1536C65.3911 64.8574 66.3362 63.9392 67.6054 63.9392C68.8476 63.9392 69.8738 64.9114 69.8738 66.1536C69.9008 67.3688 68.8206 68.4489 67.5784 68.4219ZM67.6594 16.0609C64.635 16.0339 62.1776 18.5182 62.1776 21.5697C62.2046 24.5942 64.635 27.0246 67.6324 26.9976C70.6029 26.9976 73.0873 24.5132 73.0873 21.5427C73.1143 18.5993 70.6299 16.1149 67.6594 16.0609ZM67.6054 23.8381C66.3632 23.8111 65.3911 22.8119 65.3911 21.5697C65.3911 20.3275 66.3632 19.3014 67.6054 19.2744C68.7936 19.2474 69.8738 20.3005 69.9008 21.4887C69.9278 22.7309 68.8206 23.8381 67.6054 23.8381ZM67.5514 60.7258C64.5269 60.7528 62.1506 63.1291 62.1776 66.2076C62.2046 69.2321 64.635 71.6624 67.6054 71.6624C70.5759 71.6624 73.0603 69.1511 73.0873 66.2076C73.1143 63.1561 70.6299 60.6988 67.5514 60.7258ZM67.5784 68.4219C66.3362 68.3949 65.3911 67.3958 65.3911 66.1536C65.3911 64.8574 66.3362 63.9392 67.6054 63.9392C68.8476 63.9392 69.8738 64.9114 69.8738 66.1536C69.9008 67.3688 68.8206 68.4489 67.5784 68.4219ZM67.5514 60.7258C64.5269 60.7528 62.1506 63.1291 62.1776 66.2076C62.2046 69.2321 64.635 71.6624 67.6054 71.6624C70.5759 71.6624 73.0603 69.1511 73.0873 66.2076C73.1143 63.1561 70.6299 60.6988 67.5514 60.7258ZM67.5784 68.4219C66.3362 68.3949 65.3911 67.3958 65.3911 66.1536C65.3911 64.8574 66.3362 63.9392 67.6054 63.9392C68.8476 63.9392 69.8738 64.9114 69.8738 66.1536C69.9008 67.3688 68.8206 68.4489 67.5784 68.4219ZM67.5514 60.7258C64.5269 60.7528 62.1506 63.1291 62.1776 66.2076C62.2046 69.2321 64.635 71.6624 67.6054 71.6624C70.5759 71.6624 73.0603 69.1511 73.0873 66.2076C73.1143 63.1561 70.6299 60.6988 67.5514 60.7258ZM67.5784 68.4219C66.3362 68.3949 65.3911 67.3958 65.3911 66.1536C65.3911 64.8574 66.3362 63.9392 67.6054 63.9392C68.8476 63.9392 69.8738 64.9114 69.8738 66.1536C69.9008 67.3688 68.8206 68.4489 67.5784 68.4219ZM67.5514 60.7258C64.5269 60.7528 62.1506 63.1291 62.1776 66.2076C62.2046 69.2321 64.635 71.6624 67.6054 71.6624C70.5759 71.6624 73.0603 69.1511 73.0873 66.2076C73.1143 63.1561 70.6299 60.6988 67.5514 60.7258ZM67.5784 68.4219C66.3362 68.3949 65.3911 67.3958 65.3911 66.1536C65.3911 64.8574 66.3362 63.9392 67.6054 63.9392C68.8476 63.9392 69.8738 64.9114 69.8738 66.1536C69.9008 67.3688 68.8206 68.4489 67.5784 68.4219Z" fill="white"/>
<path d="M67.5513 60.7258C64.5268 60.7528 62.1505 63.1292 62.1775 66.2076C62.2045 69.2321 64.6349 71.6625 67.6053 71.6625C70.5758 71.6625 73.0601 69.1511 73.0872 66.2076C73.1142 63.1562 70.6298 60.6988 67.5513 60.7258ZM67.5783 68.422C66.3361 68.395 65.391 67.3958 65.391 66.1536C65.391 64.8574 66.3361 63.9393 67.6053 63.9393C68.8475 63.9393 69.8737 64.9114 69.8737 66.1536C69.9007 67.3688 68.8205 68.449 67.5783 68.422Z" fill="white"/>
<path d="M67.6596 16.0609C64.6351 16.0339 62.1777 18.5183 62.1777 21.5697C62.2047 24.5942 64.6351 27.0246 67.6326 26.9976C70.603 26.9976 73.0874 24.5132 73.0874 21.5427C73.1144 18.5993 70.63 16.1149 67.6596 16.0609ZM67.6056 23.8381C66.3634 23.8111 65.3912 22.8119 65.3912 21.5697C65.3912 20.3275 66.3634 19.3014 67.6056 19.2744C68.7938 19.2474 69.8739 20.3005 69.9009 21.4887C69.9279 22.7309 68.8208 23.8381 67.6056 23.8381Z" fill="white"/>
<path d="M28.9895 38.7443C25.992 38.6903 23.4536 41.2287 23.4536 44.2262C23.4536 47.1966 25.965 49.681 28.9085 49.681C31.9059 49.681 34.3363 47.2506 34.3633 44.2262C34.3903 41.2287 32.0139 38.7983 28.9895 38.7443ZM28.9085 46.5215C27.7203 46.4945 26.6671 45.4414 26.6401 44.2532C26.6401 43.011 27.7743 41.9308 28.9895 41.9848C30.2317 42.0388 31.1768 43.038 31.1498 44.3072C31.1498 45.5224 30.1236 46.5215 28.9085 46.5215Z" fill="white"/>
<path d="M67.5513 60.7258C64.5268 60.7528 62.1505 63.1292 62.1775 66.2076C62.2045 69.2321 64.6349 71.6625 67.6053 71.6625C70.5758 71.6625 73.0601 69.1511 73.0872 66.2076C73.1142 63.1562 70.6298 60.6988 67.5513 60.7258ZM67.5783 68.422C66.3361 68.395 65.391 67.3958 65.391 66.1536C65.391 64.8574 66.3361 63.9393 67.6053 63.9393C68.8475 63.9393 69.8737 64.9114 69.8737 66.1536C69.9007 67.3688 68.8205 68.449 67.5783 68.422Z" fill="white"/>
<path d="M67.6596 16.0609C64.6351 16.0339 62.1777 18.5183 62.1777 21.5697C62.2047 24.5942 64.6351 27.0246 67.6326 26.9976C70.603 26.9976 73.0874 24.5132 73.0874 21.5427C73.1144 18.5993 70.63 16.1149 67.6596 16.0609ZM67.6056 23.8381C66.3634 23.8111 65.3912 22.8119 65.3912 21.5697C65.3912 20.3275 66.3634 19.3014 67.6056 19.2744C68.7938 19.2474 69.8739 20.3005 69.9009 21.4887C69.9279 22.7309 68.8208 23.8381 67.6056 23.8381Z" fill="white"/>
<path d="M28.9895 38.7443C25.992 38.6903 23.4536 41.2287 23.4536 44.2262C23.4536 47.1966 25.965 49.681 28.9085 49.681C31.9059 49.681 34.3363 47.2506 34.3633 44.2262C34.3903 41.2287 32.0139 38.7983 28.9895 38.7443ZM28.9085 46.5215C27.7203 46.4945 26.6671 45.4414 26.6401 44.2532C26.6401 43.011 27.7743 41.9308 28.9895 41.9848C30.2317 42.0388 31.1768 43.038 31.1498 44.3072C31.1498 45.5224 30.1236 46.5215 28.9085 46.5215Z" fill="white"/>
</svg>
