<svg width="114" height="57" viewBox="0 0 114 57" fill="none" xmlns="http://www.w3.org/2000/svg">
<g clip-path="url(#clip0_18_542)">
<path d="M24.9056 20.7565C24.5525 20.5637 23.9106 20.6601 23.8144 19.9853C25.1623 19.0857 26.3498 18.0575 27.1843 16.6759C31.0356 10.2818 27.1843 2.37767 19.4495 0.706873C14.9242 -0.289182 10.3667 0.128519 5.80929 -4.51866e-06C4.71808 -0.0321353 4.97483 0.739003 4.97483 1.31736C4.97483 5.55862 4.97483 9.83201 4.97483 14.0733V23.2627C3.78733 22.363 2.8245 21.6561 1.89375 20.9171C1.38024 20.5316 0.738347 20.0496 0.224834 20.6922C-0.28868 21.3348 0.289023 21.8489 0.834631 22.2345C1.89375 23.0378 2.92078 23.8732 4.012 24.6443C4.75017 25.1584 5.00693 25.7368 5.00693 26.6364C4.97483 31.5203 5.00693 36.4363 4.97483 41.3202C4.97483 42.2841 5.1995 42.6375 6.22652 42.5733C7.51031 42.4769 8.79409 42.5733 10.0779 42.5411C14.2181 42.509 18.3583 42.7339 22.4343 41.6094C26.8954 40.3884 30.3617 36.7576 30.8431 32.5806C31.3887 26.9577 29.5272 23.2306 24.9056 20.7565ZM23.7823 39.0389C20.8938 40.292 17.8769 40.6776 14.7958 40.7097C12.5171 40.7097 10.2063 40.6776 7.92754 40.7418C7.02889 40.774 6.77213 40.4848 6.77213 39.5851C6.83632 36.597 6.80423 33.6409 6.80423 30.3957C9.17923 31.456 11.3617 32.4521 13.5762 33.4481C14.0897 33.6731 14.7316 34.0908 15.0846 33.2875C15.4377 32.4842 14.7958 32.195 14.186 31.938C12.0998 31.0062 10.0458 30.0423 7.95963 29.1426C7.12517 28.7892 6.67585 28.3393 6.80423 27.3754C6.90051 26.5722 6.9647 25.7689 6.80423 24.9977C6.16233 21.6883 7.5424 19.3749 10.1421 17.447C11.6184 16.3546 12.8701 14.9408 14.2502 13.6556C14.6995 13.2379 15.1809 12.788 14.6353 12.2097C14.1218 11.6635 13.5762 12.0169 13.0948 12.4346C11.0728 14.3303 9.05085 16.1939 6.77213 18.3145V8.99661C6.77213 6.97237 6.77213 4.94814 6.77213 2.9239C6.77213 2.37767 6.67585 1.86358 7.51031 1.89571C11.8752 2.02423 16.2721 1.47801 20.5086 2.9239C23.6218 3.98421 25.9968 5.87993 26.5424 9.28579C27.0559 12.4667 26.6708 15.5192 23.8786 17.6398C22.4985 18.668 20.9579 19.5034 19.289 20.5316C21.0221 21.2384 22.5948 21.7847 24.1032 22.4915C27.6015 24.0981 29.0458 27.0541 29.0458 30.717C29.0458 34.5085 27.4731 37.4645 23.7823 39.0389Z" fill="white"/>
<path d="M112.042 15.5514C108.416 19.1822 105.078 22.4595 101.804 25.8011C101.002 26.6044 100.584 26.7329 99.7179 25.8333C96.4443 22.4274 93.0744 19.0858 89.7365 15.7121C89.223 16.3225 89.4477 16.8688 89.4477 17.3507C89.4156 25.287 89.4477 33.2233 89.4156 41.1275C89.4156 41.6095 89.897 42.5413 88.7095 42.477C87.6183 42.4449 87.9713 41.6095 87.9713 41.0632C87.9392 32.3237 87.9392 23.6162 87.9713 14.8767C87.9713 14.3947 87.6183 13.7199 88.2923 13.495C88.9663 13.2701 89.576 13.4629 90.1537 14.0413C93.3311 17.3186 96.6048 20.5317 99.8142 23.7769C100.488 24.4838 100.873 24.5802 101.644 23.809C104.789 20.5638 108.063 17.415 111.208 14.2019C111.786 13.5914 112.427 13.238 113.166 13.495C114.032 13.7521 113.551 14.5875 113.551 15.1337C113.583 23.809 113.583 32.4843 113.551 41.1596C113.551 41.6095 113.904 42.3163 113.133 42.477C112.171 42.7019 112.01 42.1236 112.01 41.2882C112.042 35.7617 112.01 30.203 112.01 24.6765C112.042 21.7848 112.042 18.893 112.042 15.5514Z" fill="white"/>
<path d="M45.2215 16.8044C43.9377 19.8247 42.7502 22.5237 41.5948 25.2548C39.3161 30.6206 37.0053 35.9543 34.7907 41.3523C34.3414 42.4126 33.8279 42.766 32.7046 42.3805C36.8448 32.6449 40.9529 22.9414 45.2215 12.8523C49.4901 22.9092 53.5982 32.5806 57.8026 42.509C57.1286 42.509 56.6151 42.509 56.1336 42.509C51.0627 42.509 46.0238 42.5411 40.9529 42.4769C40.3431 42.4769 39.1235 43.1838 39.1877 41.7057C39.2519 40.292 40.4073 40.9989 41.0171 40.9989C45.7671 40.9346 50.485 40.9667 55.4917 40.9667C52.0576 32.934 48.7198 25.062 45.2215 16.8044Z" fill="white"/>
<path d="M62.1349 22.4274C62.167 26.4116 61.9423 30.3958 62.7447 34.3479C64.2852 41.7701 71.5065 42.9911 75.8072 40.1636C78.5352 38.3642 79.3376 35.5046 79.7227 32.4843C80.3646 27.3434 79.8832 22.1703 80.0437 17.0294C80.0758 16.1297 80.0758 15.2301 80.0437 14.3304C80.0116 13.7521 80.14 13.4629 80.814 13.4629C81.4879 13.4629 81.6163 13.7521 81.5842 14.3304C81.3596 20.9815 82.1298 27.6326 80.9423 34.2515C79.6585 41.3203 73.8494 44.8225 67.27 42.4127C63.4187 40.999 61.9423 37.7538 61.1721 34.0909C60.2413 29.6247 60.6265 25.0942 60.5623 20.5638C60.5302 18.5396 60.5623 16.5153 60.5623 14.4911C60.5623 13.9449 60.4981 13.4629 61.3325 13.4629C62.167 13.4629 62.1028 13.9127 62.1028 14.4589C62.1349 17.0937 62.1349 19.7605 62.1349 22.4274Z" fill="white"/>
<path d="M18.6789 52.3731C18.3259 51.377 17.3951 51.4092 16.4002 51.4092C15.2448 51.12 14.9559 51.7626 15.0843 52.8872C15.1806 53.8511 15.0843 54.7829 15.1164 55.7468C15.1164 56.1003 15.0201 56.5501 15.5657 56.5822C16.5928 56.6465 17.6519 56.7429 18.358 55.8432C19.2245 54.815 19.0961 53.5619 18.6789 52.3731ZM18.2938 53.4977C18.2938 53.6583 18.2938 53.819 18.2938 53.9796C18.2938 54.6223 18.2938 55.297 17.7482 55.7468C17.2667 56.1324 16.6249 56.1003 16.0792 55.9396C15.5336 55.779 15.8225 55.2006 15.7904 54.815C15.7583 54.3331 15.6941 53.8511 15.7904 53.3692C15.9188 52.8229 15.2448 51.8269 16.4965 51.8269C17.5556 51.8269 18.358 52.2124 18.2938 53.4977Z" fill="white"/>
<path d="M51.1588 51.9876C51.0626 51.6984 50.9342 51.3771 50.5169 51.4092C50.0997 51.4092 50.0355 51.6984 49.9392 52.0197C49.4578 53.4977 48.9764 54.9757 48.4629 56.4537C48.5913 56.5501 48.6876 56.6144 48.8159 56.7108C49.3936 56.1003 49.2653 54.9757 50.6132 54.9436C51.9612 54.9115 51.6082 56.3574 52.6994 56.6465C52.1217 54.9436 51.6403 53.4656 51.1588 51.9876ZM51.0626 54.3331C50.9984 54.4938 50.196 54.5259 50.0676 54.3652C49.5541 53.6584 50.2923 53.0479 50.4528 51.9876C50.8379 53.0158 51.4156 53.5941 51.0626 54.3331Z" fill="white"/>
<path d="M112.491 51.8912C112.235 51.1843 111.657 51.1522 111.4 51.8269C110.79 53.3371 110.341 54.9436 109.828 56.4859C111.946 54.3974 112.267 54.3974 114 56.4538C113.519 54.9436 113.037 53.4013 112.491 51.8912ZM112.427 54.3653C112.331 54.5259 111.497 54.4938 111.432 54.3331C111.079 53.5941 111.689 53.0158 111.946 52.0519C112.203 53.0479 112.909 53.6263 112.427 54.3653Z" fill="white"/>
<path d="M66.5 51.7628C66.3074 51.2808 65.7618 51.1844 65.5371 51.7306C64.9273 53.2729 64.2533 54.8152 63.9966 56.6788C65.9864 54.4296 65.9865 54.4296 67.9763 56.486C67.5591 54.9116 67.0777 53.305 66.5 51.7628ZM66.4358 54.3653C66.3395 54.526 65.6655 54.526 65.5692 54.3653C65.0236 53.5621 65.9544 53.0159 66.0506 52.2768C66.2111 53.0159 66.9493 53.6585 66.4358 54.3653Z" fill="white"/>
<path d="M9.37153 52.0839C10.0455 53.0799 10.7195 54.0438 11.6502 55.3933C11.6502 53.8511 11.6502 52.6622 11.6502 51.4734C11.8428 51.4734 12.0354 51.4734 12.2279 51.4734C12.2279 53.0478 12.2279 54.6222 12.2279 56.1645C12.2279 56.4215 12.0996 56.6143 11.8749 56.5501C11.6502 56.4858 11.4256 56.293 11.2972 56.0681C10.6232 55.0078 9.98133 53.9475 8.9543 52.8871C8.9543 54.0439 8.9543 55.2327 8.9222 56.3894C8.9222 56.4215 8.66545 56.4858 8.50497 56.4858C8.47288 56.4858 8.44079 56.3251 8.40869 56.2287C8.66545 55.2648 8.50498 54.2688 8.53707 53.3048C8.56916 52.7265 8.56916 52.1481 9.37153 52.0839Z" fill="white"/>
<path d="M41.723 51.5698C40.9527 51.2485 39.4442 50.9915 39.2838 51.7305C38.8986 53.2727 39.1875 54.9435 39.1875 56.9999C40.1182 55.9717 39.3159 54.9757 40.1182 54.5901C40.6959 54.3009 41.0169 54.9435 41.402 55.297C41.6588 55.3291 41.8513 55.297 41.723 54.9435C41.4662 54.3331 42.2365 54.2367 42.3328 53.7868C42.5253 52.9514 42.7179 51.9554 41.723 51.5698ZM40.5676 54.0439C39.4442 54.1403 39.7973 53.3691 39.7652 52.9514C39.7331 52.2446 39.6689 51.7305 40.5034 51.7947C41.3378 51.8911 41.9797 52.116 41.9155 53.08C41.8834 53.9475 41.2736 54.0117 40.5676 54.0439Z" fill="white"/>
<path d="M80.0439 52.2126C79.6267 50.9595 78.4392 51.5057 77.5726 51.4093C77.027 51.3451 76.8345 51.6021 76.8345 52.1162C76.8666 53.5621 76.8345 55.0401 76.8345 56.5181C76.9949 56.5824 77.1554 56.6467 77.3159 56.6788C77.1875 55.1365 77.6689 54.3654 79.3058 54.3011C80.397 54.269 80.3007 53.0159 80.0439 52.2126ZM78.375 54.0119C77.6368 54.1726 77.3159 53.8513 77.4443 53.0801C77.5406 52.5982 77.0591 51.7949 78.0862 51.827C78.7922 51.8592 79.4662 51.8913 79.4983 52.8874C79.5304 53.6585 79.2416 54.1083 78.375 54.0119Z" fill="white"/>
<path d="M30.8428 51.5378C30.0726 52.1804 28.7888 51.2165 28.5962 52.4054C28.4036 53.5621 29.6874 53.4978 30.3614 53.8834C31.0033 54.269 31.228 54.783 31.1317 55.4578C31.0354 56.1325 30.5219 56.5181 29.9442 56.5502C29.2702 56.5824 28.4999 56.8715 27.8901 56.1647C28.4678 55.7791 28.9814 56.1004 29.4949 56.004C29.9121 55.9398 30.3614 56.004 30.4898 55.4257C30.5861 54.8794 30.3614 54.526 29.8479 54.3332C29.5911 54.2368 29.3665 54.1083 29.1418 53.9798C28.3716 53.6263 27.6655 53.2086 27.9864 52.1804C28.3074 51.2165 29.1418 51.2165 29.9442 51.2487C30.2009 51.3129 30.4577 51.4414 30.8428 51.5378Z" fill="white"/>
<path d="M25.0982 51.5378C25.2908 52.7909 25.2587 54.0118 25.1303 55.2649C25.0019 56.3253 24.3279 56.6466 23.333 56.6144C22.4023 56.5823 21.7925 56.1967 21.7604 55.2328C21.6962 53.9797 21.5999 52.7266 21.8888 51.1843C22.4985 52.4374 22.1455 53.4977 22.2418 54.4617C22.306 55.2328 22.3381 56.0039 23.3972 56.0361C24.4884 56.0682 24.7131 55.3613 24.681 54.4617C24.6489 53.4977 24.681 52.5017 24.681 51.5378C24.8094 51.5378 24.9377 51.5378 25.0982 51.5378Z" fill="white"/>
<path d="M101.387 51.345C100.681 52.3732 99.14 50.9273 99.0437 52.6624C98.9474 54.3332 100.424 53.305 101.001 53.8512C100.488 54.4939 98.9795 53.3693 99.0437 55.0722C99.1079 57.0001 100.873 55.4257 101.515 56.5824C100.456 56.5502 98.8832 57.0001 98.7227 56.3896C98.3055 54.9758 98.2734 53.2729 98.6585 51.8591C98.8832 50.8309 100.263 51.6342 101.387 51.345Z" fill="white"/>
<path d="M107.71 56.5503C106.201 56.3254 106.458 53.9477 104.661 54.6546C103.922 54.5582 104.243 54.2047 104.468 53.8834C104.5 53.8513 104.564 53.8192 104.596 53.8192C104.628 53.787 104.661 53.787 104.725 53.7549C104.789 53.7228 104.853 53.7228 104.917 53.6906C104.853 53.787 104.821 53.8834 104.725 54.012C105.046 54.012 105.367 54.0119 105.688 54.0441C106.394 54.1083 106.811 53.787 106.843 53.0802C106.907 52.3733 106.522 51.9877 105.848 51.8592C105.495 51.7949 105.11 51.8271 104.725 51.8271C104.789 51.9234 104.853 52.0198 104.885 52.1162C104.821 52.1162 104.757 52.0841 104.725 52.052C104.693 52.052 104.661 52.0198 104.628 51.9877C104.404 51.8592 104.243 51.7307 104.372 51.4415C104.885 51.4094 105.431 51.3772 105.944 51.3772C107.292 51.3451 107.806 52.3411 107.324 53.2087C106.683 54.4939 106.747 55.4257 107.71 56.5503Z" fill="white"/>
<path d="M73.9458 56.5822C73.3681 56.3251 73.2076 55.7468 72.8545 55.3291C72.5336 54.9435 72.3089 54.333 71.6349 54.4937C70.8326 54.6865 71.2819 55.3612 71.1535 55.811C71.0893 56.036 71.2177 56.3573 70.6721 56.5179C70.6721 54.9435 70.4474 53.4012 70.7363 51.9554C70.961 50.7665 72.1806 51.5377 72.9829 51.4413C73.0471 51.6662 72.9508 51.7947 72.7904 51.9232C72.7583 51.9554 72.7262 51.9875 72.662 51.9875C72.662 51.9875 72.662 51.9875 72.6299 51.9875C72.6299 51.9232 72.5978 51.859 72.5657 51.7626C71.1535 51.4413 70.8968 52.2445 71.1214 53.337C71.3461 54.4937 72.3089 53.7547 72.9187 53.9153C72.9187 53.8189 72.8866 53.7547 72.8866 53.6583C72.9508 53.6904 72.9829 53.7225 73.015 53.7225C73.1755 53.8189 73.2718 53.9475 73.2397 54.1724C72.7583 55.2648 74.2667 55.5861 73.9458 56.5822Z" fill="white"/>
<path d="M36.5237 51.6019C35.2078 51.5377 35.2399 52.3088 35.272 53.1442C35.3041 54.2688 35.272 55.3934 35.1115 56.5179C34.4375 55.4255 34.7264 54.2366 34.7264 53.0799C34.7264 52.1481 34.5659 51.5698 33.3784 51.6662C34.4375 51.2485 35.4325 51.5055 36.5237 51.6019Z" fill="white"/>
<path d="M58.9575 52.5017C58.4761 55.6505 58.6687 55.9076 61.6856 56.0361C60.145 57.2249 58.444 56.6787 58.2194 54.8473C58.091 53.9155 57.9626 52.9516 58.6687 52.1483C58.9254 52.1161 59.118 52.1804 58.9575 52.5017Z" fill="white"/>
<path d="M45.767 51.5378C45.767 53.1765 45.767 54.8473 45.767 56.486C45.6707 56.486 45.5744 56.486 45.5103 56.486C45.5103 54.8473 45.5103 53.1765 45.5103 51.5378C45.6065 51.5378 45.7028 51.5378 45.767 51.5378Z" fill="white"/>
<path d="M4.94238 56.5181C4.94238 54.8473 4.94238 53.2086 4.94238 51.5378C5.03867 51.5378 5.13495 51.5378 5.23123 51.5378C5.23123 53.2086 5.23123 54.8473 5.23123 56.5181C5.13495 56.486 5.03867 56.486 4.94238 56.5181Z" fill="white"/>
<path d="M104.725 53.7548C104.789 53.7227 104.853 53.7227 104.917 53.6906C104.853 53.787 104.821 53.8833 104.725 54.0119C104.372 54.2047 104.339 54.4296 104.66 54.6545C104.596 55.2971 104.885 55.9718 104.275 56.5181C104.147 54.8151 103.665 53.1443 104.372 51.4414C104.5 51.5378 104.628 51.6663 104.757 51.7948C104.821 51.8912 104.885 51.9876 104.917 52.084C104.853 52.084 104.789 52.0519 104.757 52.0198C104.757 52.6302 104.725 53.2086 104.725 53.7548Z" fill="white"/>
<path d="M92.7856 51.5057C93.8127 51.5057 94.8718 51.5057 95.8988 51.5057C94.3583 51.5057 94.5187 52.566 94.5187 53.5942C94.5187 54.5902 94.7434 55.5863 94.2941 56.743C93.9089 55.522 94.0694 54.4617 94.1015 53.4335C94.1015 52.4054 94.1657 51.4736 92.7856 51.5057Z" fill="white"/>
<path d="M87.458 53.08C86.8161 52.598 86.9124 53.1442 86.8803 53.4977C86.784 54.5259 87.0729 55.5862 86.3347 56.5822C86.3347 55.04 86.3026 53.4656 86.3668 51.9233C86.3989 51.3771 86.7519 51.3128 87.1049 51.7305C87.3617 52.0518 87.5222 52.4374 87.7468 52.7908C87.8752 53.08 87.7147 53.1442 87.458 53.08Z" fill="white"/>
<path d="M9.37141 52.084C8.63323 52.5339 8.69742 53.2729 8.66532 53.9797C8.63323 54.7187 8.92208 55.522 8.44066 56.2289C8.40857 54.8794 8.40857 53.4978 8.40857 52.1483C8.40857 51.8591 8.31228 51.4414 8.76161 51.4414C9.11465 51.4735 9.27512 51.7627 9.37141 52.084Z" fill="white"/>
<path d="M73.3042 54.2688C73.2079 54.1724 73.0796 54.1082 72.9833 54.0118C72.9833 53.9154 72.9512 53.8511 72.9512 53.7547C73.0154 53.7869 73.0475 53.819 73.0796 53.819C73.4968 53.1121 73.5289 52.4695 72.8228 51.9233C72.7907 51.9554 72.7586 51.9875 72.6944 51.9875C72.6944 51.9875 72.6944 51.9875 72.6623 51.9875C72.6623 51.9233 72.6302 51.859 72.5981 51.7626C72.7265 51.6341 72.8549 51.5377 72.9833 51.4092C74.2992 52.2767 74.3954 53.1121 73.3042 54.2688Z" fill="white"/>
<path d="M89.608 55.2328C89.608 53.9797 89.608 52.7587 89.608 51.5056C89.7685 51.5056 89.929 51.5056 90.0894 51.5056C90.0894 53.0479 90.2178 54.5902 90.0252 56.1003C89.929 57 89.4796 56.5823 89.255 56.0039C89.1266 55.6184 89.4154 55.4577 89.608 55.2328Z" fill="white"/>
<path d="M89.6082 55.2329C89.5119 55.4899 89.3836 55.747 89.2873 56.004C88.517 55.1043 87.9393 54.1083 87.4258 53.048C87.5221 52.9516 87.6183 52.8552 87.7146 52.7588C88.517 53.4657 88.7096 54.6224 89.6082 55.2329Z" fill="white"/>
<path d="M58.9577 52.5018C58.8614 52.3733 58.7651 52.2448 58.6367 52.1484C59.4712 51.0559 60.5303 51.1202 62.0708 51.6664C60.8191 52.0198 59.6317 51.5057 58.9577 52.5018Z" fill="white"/>
<path d="M83.0609 57.5463C83.1495 57.5463 83.2213 55.9639 83.2213 54.0119C83.2213 52.0599 83.1495 50.4775 83.0609 50.4775C82.9722 50.4775 82.9004 52.0599 82.9004 54.0119C82.9004 55.9639 82.9722 57.5463 83.0609 57.5463Z" fill="white"/>
<path d="M41.3701 55.297C41.4664 55.1685 41.5627 55.0721 41.6911 54.9436C42.1404 55.3613 42.5255 55.8111 42.686 56.6144C41.8194 56.4537 41.6269 55.8111 41.3701 55.297Z" fill="white"/>
<path d="M72.6299 51.8269C72.6941 51.859 72.7583 51.9233 72.8224 51.9554C72.7904 51.9876 72.7583 52.0197 72.6941 52.0197C72.6941 52.0197 72.6941 52.0197 72.662 52.0197C72.662 51.9876 72.662 51.9233 72.6299 51.8269Z" fill="white"/>
<path d="M73.0795 53.8513C73.0475 53.9155 73.0154 53.9477 72.9833 54.0119C72.9833 53.9155 72.9512 53.8513 72.9512 53.7549C73.0154 53.787 73.0475 53.8191 73.0795 53.8513Z" fill="white"/>
</g>
<defs>
<clipPath id="clip0_18_542">
<rect width="114" height="57" fill="white"/>
</clipPath>
</defs>
</svg>
