<svg width="356" height="178" viewBox="0 0 356 178" fill="none" xmlns="http://www.w3.org/2000/svg">
<g clip-path="url(#clip0_20_1139)">
<path d="M77.6 64.6002C76.5 64.0002 74.5 64.3002 74.2 62.2002C78.4 59.4002 82.1 56.2002 84.7 51.9002C96.7 32.0002 84.7 7.40011 60.6 2.2001C46.5 -0.899906 32.3 0.400096 18.1 9.55921e-05C14.7 -0.0999046 15.5 2.3001 15.5 4.1001C15.5 17.3001 15.5 30.6002 15.5 43.8002V72.4003C11.8 69.6003 8.80004 67.4002 5.90004 65.1002C4.30004 63.9002 2.30004 62.4002 0.700036 64.4002C-0.899964 66.4002 0.900036 68.0002 2.60004 69.2002C5.90004 71.7002 9.10004 74.3003 12.5 76.7003C14.8 78.3003 15.6 80.1003 15.6 82.9003C15.5 98.1003 15.6 113.4 15.5 128.6C15.5 131.6 16.2 132.7 19.4 132.5C23.4 132.2 27.4 132.5 31.4 132.4C44.3 132.3 57.2 133 69.9 129.5C83.8 125.7 94.6 114.4 96.1 101.4C97.8 83.9003 92 72.3003 77.6 64.6002ZM74.1 121.5C65.1 125.4 55.7 126.6 46.1 126.7C39 126.7 31.8 126.6 24.7 126.8C21.9 126.9 21.1 126 21.1 123.2C21.3 113.9 21.2 104.7 21.2 94.6003C28.6 97.9003 35.4 101 42.3 104.1C43.9 104.8 45.9 106.1 47 103.6C48.1 101.1 46.1 100.2 44.2 99.4003C37.7 96.5003 31.3 93.5003 24.8 90.7003C22.2 89.6003 20.8 88.2003 21.2 85.2003C21.5 82.7003 21.7 80.2003 21.2 77.8003C19.2 67.5002 23.5 60.3002 31.6 54.3002C36.2 50.9002 40.1 46.5002 44.4 42.5002C45.8 41.2002 47.3 39.8002 45.6 38.0002C44 36.3002 42.3 37.4002 40.8 38.7002C34.5 44.6002 28.2 50.4002 21.1 57.0002V28.0002C21.1 21.7001 21.1 15.4001 21.1 9.10011C21.1 7.40011 20.8 5.80011 23.4 5.90011C37 6.30011 50.7 4.60011 63.9 9.10011C73.6 12.4001 81 18.3001 82.7 28.9002C84.3 38.8002 83.1 48.3002 74.4 54.9002C70.1 58.1002 65.3 60.7002 60.1 63.9002C65.5 66.1002 70.4 67.8002 75.1 70.0003C86 75.0003 90.5 84.2003 90.5 95.6003C90.5 107.4 85.6 116.6 74.1 121.5Z" fill="#010202"/>
<path d="M349.1 48.4C337.8 59.7 327.4 69.9 317.2 80.3C314.7 82.8 313.4 83.2 310.7 80.4C300.5 69.8 290 59.4 279.6 48.9C278 50.8 278.7 52.5 278.7 54C278.6 78.7 278.7 103.4 278.6 128C278.6 129.5 280.1 132.4 276.4 132.2C273 132.1 274.1 129.5 274.1 127.8C274 100.6 274 73.5 274.1 46.3C274.1 44.8 273 42.7 275.1 42C277.2 41.3 279.1 41.9 280.9 43.7C290.8 53.9 301 63.9 311 74C313.1 76.2 314.3 76.5 316.7 74.1C326.5 64 336.7 54.2 346.5 44.2C348.3 42.3 350.3 41.2 352.6 42C355.3 42.8 353.8 45.4 353.8 47.1C353.9 74.1 353.9 101.1 353.8 128.1C353.8 129.5 354.9 131.7 352.5 132.2C349.5 132.9 349 131.1 349 128.5C349.1 111.3 349 94 349 76.8C349.1 67.8 349.1 58.8 349.1 48.4Z" fill="#010202"/>
<path d="M140.9 52.3C136.9 61.7 133.2 70.1 129.6 78.6C122.5 95.3 115.3 111.9 108.4 128.7C107 132 105.4 133.1 101.9 131.9C114.8 101.6 127.6 71.4 140.9 40C154.2 71.3 167 101.4 180.1 132.3C178 132.3 176.4 132.3 174.9 132.3C159.1 132.3 143.4 132.4 127.6 132.2C125.7 132.2 121.9 134.4 122.1 129.8C122.3 125.4 125.9 127.6 127.8 127.6C142.6 127.4 157.3 127.5 172.9 127.5C162.2 102.5 151.8 78 140.9 52.3Z" fill="#010202"/>
<path d="M193.6 69.7999C193.7 82.1999 193 94.5999 195.5 106.9C200.3 130 222.8 133.8 236.2 125C244.7 119.4 247.2 110.5 248.4 101.1C250.4 85.0999 248.9 68.9999 249.4 52.9999C249.5 50.1999 249.5 47.3999 249.4 44.5999C249.3 42.7999 249.7 41.8999 251.8 41.8999C253.9 41.8999 254.3 42.7999 254.2 44.5999C253.5 65.2999 255.9 85.9999 252.2 106.6C248.2 128.6 230.1 139.5 209.6 132C197.6 127.6 193 117.5 190.6 106.1C187.7 92.1999 188.9 78.0999 188.7 63.9999C188.6 57.6999 188.7 51.3999 188.7 45.0999C188.7 43.3999 188.5 41.8999 191.1 41.8999C193.7 41.8999 193.5 43.2999 193.5 44.9999C193.6 53.1999 193.6 61.4999 193.6 69.7999Z" fill="#010202"/>
<path d="M58.1999 163C57.0999 159.9 54.1999 160 51.0999 160C47.4999 159.1 46.5999 161.1 46.9999 164.6C47.2999 167.6 46.9999 170.5 47.0999 173.5C47.0999 174.6 46.7999 176 48.4999 176.1C51.6999 176.3 54.9999 176.6 57.1999 173.8C59.8999 170.6 59.4999 166.7 58.1999 163ZM56.9999 166.5C56.9999 167 56.9999 167.5 56.9999 168C56.9999 170 56.9999 172.1 55.2999 173.5C53.7999 174.7 51.7999 174.6 50.0999 174.1C48.3999 173.6 49.2999 171.8 49.1999 170.6C49.0999 169.1 48.8999 167.6 49.1999 166.1C49.5999 164.4 47.4999 161.3 51.3999 161.3C54.6999 161.3 57.1999 162.5 56.9999 166.5Z" fill="#010202"/>
<path d="M159.4 161.8C159.1 160.9 158.7 159.9 157.4 160C156.1 160 155.9 160.9 155.6 161.9C154.1 166.5 152.6 171.1 151 175.7C151.4 176 151.7 176.2 152.1 176.5C153.9 174.6 153.5 171.1 157.7 171C161.9 170.9 160.8 175.4 164.2 176.3C162.4 171 160.9 166.4 159.4 161.8ZM159.1 169.1C158.9 169.6 156.4 169.7 156 169.2C154.4 167 156.7 165.1 157.2 161.8C158.4 165 160.2 166.8 159.1 169.1Z" fill="#010202"/>
<path d="M350.5 161.501C349.7 159.301 347.9 159.201 347.1 161.301C345.2 166.001 343.8 171.001 342.2 175.801C348.8 169.301 349.8 169.301 355.2 175.701C353.7 171.001 352.2 166.201 350.5 161.501ZM350.3 169.201C350 169.701 347.4 169.601 347.2 169.101C346.1 166.801 348 165.001 348.8 162.001C349.6 165.101 351.8 166.901 350.3 169.201Z" fill="#010202"/>
<path d="M207.2 161.1C206.6 159.6 204.9 159.3 204.2 161C202.3 165.8 200.2 170.6 199.4 176.4C205.6 169.4 205.6 169.4 211.8 175.8C210.5 170.9 209 165.9 207.2 161.1ZM207 169.2C206.7 169.7 204.6 169.7 204.3 169.2C202.6 166.7 205.5 165 205.8 162.7C206.3 165 208.6 167 207 169.2Z" fill="#010202"/>
<path d="M29.2002 162.1C31.3002 165.2 33.4002 168.2 36.3002 172.4C36.3002 167.6 36.3002 163.9 36.3002 160.2C36.9002 160.2 37.5002 160.2 38.1002 160.2C38.1002 165.1 38.1002 170 38.1002 174.8C38.1002 175.6 37.7002 176.2 37.0002 176C36.3002 175.8 35.6002 175.2 35.2002 174.5C33.1002 171.2 31.1002 167.9 27.9002 164.6C27.9002 168.2 27.9002 171.9 27.8002 175.5C27.8002 175.6 27.0002 175.8 26.5002 175.8C26.4002 175.8 26.3002 175.3 26.2002 175C27.0002 172 26.5002 168.9 26.6002 165.9C26.7002 164.1 26.7002 162.3 29.2002 162.1Z" fill="#010202"/>
<path d="M130 160.5C127.6 159.5 122.9 158.7 122.4 161C121.2 165.8 122.1 171 122.1 177.4C125 174.2 122.5 171.1 125 169.9C126.8 169 127.8 171 129 172.1C129.8 172.2 130.4 172.1 130 171C129.2 169.1 131.6 168.8 131.9 167.4C132.5 164.8 133.1 161.7 130 160.5ZM126.4 168.2C122.9 168.5 124 166.1 123.9 164.8C123.8 162.6 123.6 161 126.2 161.2C128.8 161.5 130.8 162.2 130.6 165.2C130.5 167.9 128.6 168.1 126.4 168.2Z" fill="#010202"/>
<path d="M249.4 162.5C248.1 158.6 244.4 160.3 241.7 160C240 159.8 239.4 160.6 239.4 162.2C239.5 166.7 239.4 171.3 239.4 175.9C239.9 176.1 240.4 176.3 240.9 176.4C240.5 171.6 242 169.2 247.1 169C250.5 168.9 250.2 165 249.4 162.5ZM244.2 168.1C241.9 168.6 240.9 167.6 241.3 165.2C241.6 163.7 240.1 161.2 243.3 161.3C245.5 161.4 247.6 161.5 247.7 164.6C247.8 167 246.9 168.4 244.2 168.1Z" fill="#010202"/>
<path d="M96.0999 160.4C93.6999 162.4 89.6999 159.4 89.0999 163.1C88.4999 166.7 92.4999 166.5 94.5999 167.7C96.5999 168.9 97.2999 170.5 96.9999 172.6C96.6999 174.7 95.0999 175.9 93.2999 176C91.1999 176.1 88.7999 177 86.8999 174.8C88.6999 173.6 90.2999 174.6 91.8999 174.3C93.1999 174.1 94.5999 174.3 94.9999 172.5C95.2999 170.8 94.5999 169.7 92.9999 169.1C92.1999 168.8 91.4999 168.4 90.7999 168C88.3999 166.9 86.1999 165.6 87.1999 162.4C88.1999 159.4 90.7999 159.4 93.2999 159.5C94.0999 159.7 94.8999 160.1 96.0999 160.4Z" fill="#010202"/>
<path d="M78.1998 160.4C78.7998 164.3 78.6998 168.1 78.2998 172C77.8998 175.3 75.7998 176.3 72.6998 176.2C69.7998 176.1 67.8998 174.9 67.7998 171.9C67.5998 168 67.2998 164.1 68.1998 159.3C70.0998 163.2 68.9998 166.5 69.2998 169.5C69.4998 171.9 69.5998 174.3 72.8998 174.4C76.2998 174.5 76.9998 172.3 76.8998 169.5C76.7998 166.5 76.8998 163.4 76.8998 160.4C77.2998 160.4 77.6998 160.4 78.1998 160.4Z" fill="#010202"/>
<path d="M315.9 159.8C313.7 163 308.9 158.5 308.6 163.9C308.3 169.1 312.9 165.9 314.7 167.6C313.1 169.6 308.4 166.1 308.6 171.4C308.8 177.4 314.3 172.5 316.3 176.1C313 176 308.1 177.4 307.6 175.5C306.3 171.1 306.2 165.8 307.4 161.4C308.1 158.2 312.4 160.7 315.9 159.8Z" fill="#010202"/>
<path d="M335.6 176C330.9 175.3 331.7 167.9 326.1 170.1C323.8 169.8 324.8 168.7 325.5 167.7C325.6 167.6 325.8 167.5 325.9 167.5C326 167.4 326.1 167.4 326.3 167.3C326.5 167.2 326.7 167.2 326.9 167.1C326.7 167.4 326.6 167.7 326.3 168.1C327.3 168.1 328.3 168.1 329.3 168.2C331.5 168.4 332.8 167.4 332.9 165.2C333.1 163 331.9 161.8 329.8 161.4C328.7 161.2 327.5 161.3 326.3 161.3C326.5 161.6 326.7 161.9 326.8 162.2C326.6 162.2 326.4 162.1 326.3 162C326.2 162 326.1 161.9 326 161.8C325.3 161.4 324.8 161 325.2 160.1C326.8 160 328.5 159.9 330.1 159.9C334.3 159.8 335.9 162.9 334.4 165.6C332.4 169.6 332.6 172.5 335.6 176Z" fill="#010202"/>
<path d="M230.4 176.101C228.6 175.301 228.1 173.501 227 172.201C226 171.001 225.3 169.101 223.2 169.601C220.7 170.201 222.1 172.301 221.7 173.701C221.5 174.401 221.9 175.401 220.2 175.901C220.2 171.001 219.5 166.201 220.4 161.701C221.1 158.001 224.9 160.401 227.4 160.101C227.6 160.801 227.3 161.201 226.8 161.601C226.7 161.701 226.6 161.801 226.4 161.801C226.4 161.801 226.4 161.801 226.3 161.801C226.3 161.601 226.2 161.401 226.1 161.101C221.7 160.101 220.9 162.601 221.6 166.001C222.3 169.601 225.3 167.301 227.2 167.801C227.2 167.501 227.1 167.301 227.1 167.001C227.3 167.101 227.4 167.201 227.5 167.201C228 167.501 228.3 167.901 228.2 168.601C226.7 172.001 231.4 173.001 230.4 176.101Z" fill="#010202"/>
<path d="M113.8 160.6C109.7 160.4 109.8 162.8 109.9 165.4C110 168.9 109.9 172.4 109.4 175.9C107.3 172.5 108.2 168.8 108.2 165.2C108.2 162.3 107.7 160.5 104 160.8C107.3 159.5 110.4 160.3 113.8 160.6Z" fill="#010202"/>
<path d="M183.7 163.4C182.2 173.2 182.8 174 192.2 174.4C187.4 178.1 182.1 176.4 181.4 170.7C181 167.8 180.6 164.8 182.8 162.3C183.6 162.2 184.2 162.4 183.7 163.4Z" fill="#010202"/>
<path d="M142.6 160.4C142.6 165.5 142.6 170.7 142.6 175.8C142.3 175.8 142 175.8 141.8 175.8C141.8 170.7 141.8 165.5 141.8 160.4C142.1 160.4 142.4 160.4 142.6 160.4Z" fill="#010202"/>
<path d="M15.3999 175.9C15.3999 170.7 15.3999 165.6 15.3999 160.4C15.6999 160.4 15.9999 160.4 16.2999 160.4C16.2999 165.6 16.2999 170.7 16.2999 175.9C15.9999 175.8 15.6999 175.8 15.3999 175.9Z" fill="#010202"/>
<path d="M326.3 167.301C326.5 167.201 326.7 167.201 326.9 167.101C326.7 167.401 326.6 167.701 326.3 168.101C325.2 168.701 325.1 169.401 326.1 170.101C325.9 172.101 326.8 174.201 324.9 175.901C324.5 170.601 323 165.401 325.2 160.101C325.6 160.401 326 160.801 326.4 161.201C326.6 161.501 326.8 161.801 326.9 162.101C326.7 162.101 326.5 162.001 326.4 161.901C326.4 163.801 326.3 165.601 326.3 167.301Z" fill="#010202"/>
<path d="M289.1 160.3C292.3 160.3 295.6 160.3 298.8 160.3C294 160.3 294.5 163.6 294.5 166.8C294.5 169.9 295.2 173 293.8 176.6C292.6 172.8 293.1 169.5 293.2 166.3C293.2 163.1 293.4 160.2 289.1 160.3Z" fill="#010202"/>
<path d="M272.5 165.2C270.5 163.7 270.8 165.4 270.7 166.5C270.4 169.7 271.3 173 269 176.1C269 171.3 268.9 166.4 269.1 161.6C269.2 159.9 270.3 159.7 271.4 161C272.2 162 272.7 163.2 273.4 164.3C273.8 165.2 273.3 165.4 272.5 165.2Z" fill="#010202"/>
<path d="M29.1999 162.101C26.8999 163.501 27.0999 165.801 26.9999 168.001C26.8999 170.301 27.7999 172.801 26.2999 175.001C26.1999 170.801 26.1999 166.501 26.1999 162.301C26.1999 161.401 25.8999 160.101 27.2999 160.101C28.3999 160.201 28.8999 161.101 29.1999 162.101Z" fill="#010202"/>
<path d="M228.4 168.9C228.1 168.6 227.7 168.4 227.4 168.1C227.4 167.8 227.3 167.6 227.3 167.3C227.5 167.4 227.6 167.5 227.7 167.5C229 165.3 229.1 163.3 226.9 161.6C226.8 161.7 226.7 161.8 226.5 161.8C226.5 161.8 226.5 161.8 226.4 161.8C226.4 161.6 226.3 161.4 226.2 161.1C226.6 160.7 227 160.4 227.4 160C231.5 162.7 231.8 165.3 228.4 168.9Z" fill="#010202"/>
<path d="M279.2 171.9C279.2 168 279.2 164.2 279.2 160.3C279.7 160.3 280.2 160.3 280.7 160.3C280.7 165.1 281.1 169.9 280.5 174.6C280.2 177.4 278.8 176.1 278.1 174.3C277.7 173.1 278.6 172.6 279.2 171.9Z" fill="#010202"/>
<path d="M279.2 171.9C278.9 172.7 278.5 173.5 278.2 174.3C275.8 171.5 274 168.4 272.4 165.1C272.7 164.8 273 164.5 273.3 164.2C275.8 166.4 276.4 170 279.2 171.9Z" fill="#010202"/>
<path d="M183.7 163.401C183.4 163.001 183.1 162.601 182.7 162.301C185.3 158.901 188.6 159.101 193.4 160.801C189.5 161.901 185.8 160.301 183.7 163.401Z" fill="#010202"/>
<path d="M258.8 179.101C259.076 179.101 259.3 174.176 259.3 168.101C259.3 162.025 259.076 157.101 258.8 157.101C258.524 157.101 258.3 162.025 258.3 168.101C258.3 174.176 258.524 179.101 258.8 179.101Z" fill="#010202"/>
<path d="M128.9 172.1C129.2 171.7 129.5 171.4 129.9 171C131.3 172.3 132.5 173.7 133 176.2C130.3 175.7 129.7 173.7 128.9 172.1Z" fill="#010202"/>
<path d="M226.3 161.3C226.5 161.4 226.7 161.6 226.9 161.7C226.8 161.8 226.7 161.9 226.5 161.9C226.5 161.9 226.5 161.9 226.4 161.9C226.4 161.8 226.4 161.6 226.3 161.3Z" fill="#010202"/>
<path d="M227.7 167.6C227.6 167.8 227.5 167.9 227.4 168.1C227.4 167.8 227.3 167.6 227.3 167.3C227.5 167.4 227.6 167.5 227.7 167.6Z" fill="#010202"/>
</g>
<defs>
<clipPath id="clip0_20_1139">
<rect width="355.2" height="177.4" fill="white"/>
</clipPath>
</defs>
</svg>
