<svg xmlns="http://www.w3.org/2000/svg" viewBox="0 0 464.5 176.08"><defs><style>.cls-1{fill:#fff;}</style></defs><g id="Capa_2" data-name="Capa 2"><g id="Capa_1-2" data-name="Capa 1"><path class="cls-1" d="M160,167.86h67L184.85,68.6,140.05,174h-6.57L184.85,52.78,236.23,174H160Z"/><path class="cls-1" d="M254.16,54.84v59.59q0,30.62,9.76,43t26.82,12.43q17.06,0,26.82-12.43t9.76-43V54.84h6.16v59.59q0,61.65-42.74,61.65T248,114.43V54.84Z"/><path class="cls-1" d="M458.33,167.86h0V63.47L412.1,109.7,365.86,63.47V174l-6.17-.2v-119h6.17l46.24,46.23,46.23-46.23h6.17V174l-6.17-.2Z"/><path class="cls-1" d="M95.86,82.54Q116.74,70.85,116.74,46q0-21.87-16.66-33.93T50.61,0H20.28V95.45L5.31,84c-1.45-1.33-3.64-.68-4.7.48a3.71,3.71,0,0,0,.49,4.7l19.18,14.68V174H60.06q33.32,0,49.72-13.05t16.41-35.42Q126.19,94,95.86,82.54Zm4.1,75.94a72.43,72.43,0,0,1-18.52,6.22,113.79,113.79,0,0,1-21.38,1.86H27.74V124.29L57.5,137.78A3.3,3.3,0,0,0,62,135.9a3,3,0,0,0-1.88-4.12L27.89,117.17l-.15,0v-33L59.55,54.41c1.35-.89,1.25-3.1.35-4.45a3.81,3.81,0,0,0-5-.34L27.74,75V7.46H50.61q58.67,0,58.67,38.53,0,20.64-17.15,30.08L78.21,84,93.12,89.5q25.6,9.45,25.61,36.05,0,11.69-5,20.13A32.14,32.14,0,0,1,100,158.48Z"/></g></g></svg>