<svg xmlns="http://www.w3.org/2000/svg" viewBox="0 0 466.3 231.85"><defs><style>.cls-1{fill:#fff;}</style></defs><g id="Capa_2" data-name="Capa 2"><g id="Capa_1-2" data-name="Capa 1"><path class="cls-1" d="M160,167.86h67L184.85,68.6,140.05,174h-6.57L184.85,52.78,236.23,174H160Z"/><path class="cls-1" d="M254.16,54.84v59.59q0,30.62,9.76,43t26.82,12.43q17.06,0,26.82-12.43t9.76-43V54.84h6.16v59.59q0,61.65-42.74,61.65T248,114.43V54.84Z"/><path class="cls-1" d="M458.33,167.86h0V63.47L412.1,109.7,365.86,63.47V174l-6.17-.2v-119h6.17l46.24,46.23,46.23-46.23h6.17V174l-6.17-.2Z"/><path class="cls-1" d="M95.86,82.54Q116.74,70.85,116.74,46q0-21.87-16.66-33.93T50.61,0H20.28V95.45L5.31,84c-1.45-1.33-3.64-.68-4.7.48a3.71,3.71,0,0,0,.49,4.7l19.18,14.68V174H60.06q33.32,0,49.72-13.05t16.41-35.42Q126.19,94,95.86,82.54Zm4.1,75.94a72.43,72.43,0,0,1-18.52,6.22,113.79,113.79,0,0,1-21.38,1.86H27.74V124.29L57.5,137.78A3.3,3.3,0,0,0,62,135.9a3,3,0,0,0-1.88-4.12L27.89,117.17l-.15,0v-33L59.55,54.41c1.35-.89,1.25-3.1.35-4.45a3.81,3.81,0,0,0-5-.34L27.74,75V7.46H50.61q58.67,0,58.67,38.53,0,20.64-17.15,30.08L78.21,84,93.12,89.5q25.6,9.45,25.61,36.05,0,11.69-5,20.13A32.14,32.14,0,0,1,100,158.48Z"/><path class="cls-1" d="M19.82,210.32H22v21H19.82Z"/><path class="cls-1" d="M47.64,210.32h2.14v21H47.41L36.34,213.59l.13,3V231.3H34.33v-21h2.33L47.74,228l-.1-3.11Z"/><path class="cls-1" d="M62.15,210.32h5.54a23.48,23.48,0,0,1,3.3.19,9,9,0,0,1,2.62.83,5,5,0,0,1,2,1.73q1.65,2.43,1.65,7.58a17.36,17.36,0,0,1-.84,5.63,7.23,7.23,0,0,1-5.21,4.64,10.38,10.38,0,0,1-2.48.35l-2.32,0h-4.3Zm2.14,19.11h3l1.21,0c.36,0,.83,0,1.41-.08a4.45,4.45,0,0,0,1.28-.23l1-.45a2.19,2.19,0,0,0,.94-.73c.2-.29.43-.65.7-1.08a4.89,4.89,0,0,0,.6-1.53,27.76,27.76,0,0,0,.48-4.89,19.64,19.64,0,0,0-.31-4.16,4.65,4.65,0,0,0-1.27-2.52,4.49,4.49,0,0,0-2.21-1.17,17.18,17.18,0,0,0-3.46-.28H64.29Z"/><path class="cls-1" d="M95.86,231.63h-.45l-.78,0a11.93,11.93,0,0,1-1.2-.13,5.07,5.07,0,0,1-1.36-.35,6.7,6.7,0,0,1-1.24-.77,4,4,0,0,1-1.12-1.23,8.28,8.28,0,0,1-1.07-4.43V210.32h2.17V224.7c.06,3.39,1.75,5.08,5,5.08a5.1,5.1,0,0,0,3.5-1.23,4.7,4.7,0,0,0,1.39-3.72V210.32h2.11l0,14.44Q102.82,231.63,95.86,231.63Z"/><path class="cls-1" d="M114.22,228.88a15.28,15.28,0,0,0,5.38.93,7.29,7.29,0,0,0,4.08-.85,3.7,3.7,0,0,0,1.2-3.19,2.82,2.82,0,0,0-.78-2,6.4,6.4,0,0,0-1.36-1l-1.17-.58-1.34-.62-1.38-.63c-.39-.18-.91-.45-1.58-.81a8,8,0,0,1-1.43-.91,13,13,0,0,1-.94-.92,3.73,3.73,0,0,1-.9-2.59,5.1,5.1,0,0,1,1.84-4.19,7.26,7.26,0,0,1,4.76-1.51,17.43,17.43,0,0,1,5.41.81l-.42,1.62a15.11,15.11,0,0,0-4.62-.65,6.14,6.14,0,0,0-3.67.83,3.37,3.37,0,0,0-1.07,2.83,2.87,2.87,0,0,0,1.52,2.46,31,31,0,0,0,3.79,1.9,24.45,24.45,0,0,1,3.47,1.73,4.92,4.92,0,0,1,2.33,4.21q0,5.93-7.68,5.93a18.8,18.8,0,0,1-6-.94Z"/><path class="cls-1" d="M136,212.13v-1.81h13.89v1.81H144V231.3h-2.14V212.13Z"/><path class="cls-1" d="M165.71,223.11l-1.94,0h-1.49v8.22h-2.17v-21h6.15a16.91,16.91,0,0,1,2.9.21,7.21,7.21,0,0,1,2.28.83q2.2,1.29,2.21,5.27a6.88,6.88,0,0,1-1.18,4.41,5.56,5.56,0,0,1-3.36,1.84l5.44,7.84-1.68,1.13-6.15-8.74Zm-1.29-1.88,2.46,0a5.58,5.58,0,0,0,3.56-.83c.63-.55.94-1.78.94-3.68s-.39-3.12-1.18-3.66a8.3,8.3,0,0,0-4.33-.81h-3.59v8.94Z"/><path class="cls-1" d="M185.37,210.32h2.14v21h-2.14Z"/><path class="cls-1" d="M205.12,210.32H208l7.09,21h-2.3l-2.17-6.51H202.5l-2.17,6.51H198Zm-2,12.66h7l-3.43-10.88h-.1Z"/><path class="cls-1" d="M242.43,211.05a9.05,9.05,0,0,1,2.53-.91,17.49,17.49,0,0,1,3-.21,15.2,15.2,0,0,1,4.53.87l-.52,1.72a24.23,24.23,0,0,0-4.32-.58,18.31,18.31,0,0,0-2.41.14,6.88,6.88,0,0,0-2.06.67,4.08,4.08,0,0,0-1.67,1.46c-.92,1.42-1.39,3.6-1.39,6.54q0,5.4,1.94,7.25a5.59,5.59,0,0,0,2,1.22,7.06,7.06,0,0,0,2.21.34c.81,0,1.41,0,1.8-.07a8.48,8.48,0,0,0,3.73-1.23l.74,1.75a10.59,10.59,0,0,1-6.09,1.59,15.33,15.33,0,0,1-2.52-.18,7.6,7.6,0,0,1-2.27-.81,5.29,5.29,0,0,1-2-1.77,10.29,10.29,0,0,1-1.28-3.17,20,20,0,0,1-.52-4.81,16,16,0,0,1,.65-4.81,9.27,9.27,0,0,1,1.6-3.17A7.3,7.3,0,0,1,242.43,211.05Z"/><path class="cls-1" d="M268.47,210.32h2.91l7.09,21h-2.3L274,224.79h-8.16l-2.17,6.51h-2.3Zm-2,12.66h7L270,212.1h-.1Z"/><path class="cls-1" d="M294.6,223.11l-1.94,0h-1.49v8.22H289v-21h6.15a16.91,16.91,0,0,1,2.9.21,7.21,7.21,0,0,1,2.28.83q2.21,1.29,2.21,5.27a6.81,6.81,0,0,1-1.19,4.41,5.51,5.51,0,0,1-3.35,1.84l5.44,7.84-1.68,1.13-6.15-8.74Zm-1.29-1.88,2.46,0a5.58,5.58,0,0,0,3.56-.83c.63-.55.94-1.78.94-3.68s-.39-3.12-1.18-3.66a8.3,8.3,0,0,0-4.33-.81h-3.59v8.94Z"/><path class="cls-1" d="M319.86,223.11l-1.94,0h-1.49v8.22h-2.17v-21h6.15a17,17,0,0,1,2.9.21,7.21,7.21,0,0,1,2.28.83q2.21,1.29,2.2,5.27,0,3.35-1.58,4.89a4.56,4.56,0,0,1-1.82,1,9.45,9.45,0,0,1-2.1.47A23.52,23.52,0,0,1,319.86,223.11Zm-1.3-1.88,2.47,0a5.6,5.6,0,0,0,3.56-.83c.62-.55.94-1.78.94-3.68s-.4-3.12-1.19-3.66a8.23,8.23,0,0,0-4.32-.81h-3.59v8.94Z"/><path class="cls-1" d="M338.64,210.32h2.14v21h-2.14Z"/><path class="cls-1" d="M366.46,210.32h2.14v21h-2.37l-11.07-17.71.13,3V231.3h-2.14v-21h2.33L366.56,228l-.1-3.11Z"/><path class="cls-1" d="M378.8,212.13v-1.81h13.89v1.81H386.8V231.3h-2.14V212.13Z"/><path class="cls-1" d="M414.81,231.3H402.89v-21h11.56l-.22,1.81h-9.17v7.42h8.1v1.81H405v8.13h9.78Z"/><path class="cls-1" d="M431.39,223.11l-1.94,0H428v8.22h-2.17v-21h6.15a17,17,0,0,1,2.9.21,7.21,7.21,0,0,1,2.28.83q2.2,1.29,2.2,5.27a6.82,6.82,0,0,1-1.18,4.41,5.54,5.54,0,0,1-3.35,1.84l5.44,7.84-1.68,1.13-6.16-8.74Zm-1.3-1.88,2.47,0a5.6,5.6,0,0,0,3.56-.83c.62-.55.94-1.78.94-3.68s-.4-3.12-1.19-3.66a8.23,8.23,0,0,0-4.32-.81H428v8.94Z"/><path class="cls-1" d="M456.29,210.32h2.92l7.09,21H464l-2.17-6.51h-8.16l-2.17,6.51h-2.3Zm-2,12.66h7l-3.43-10.88h-.1Z"/></g></g></svg>