<svg xmlns="http://www.w3.org/2000/svg" viewBox="0 0 945.69 176.08"><defs><style>.cls-1{fill:#fff;}</style></defs><g id="Capa_2" data-name="Capa 2"><g id="Capa_1-2" data-name="Capa 1"><path class="cls-1" d="M160,167.86h67L184.85,68.6,140.05,174h-6.57L184.85,52.78,236.23,174H160Z"/><path class="cls-1" d="M254.16,54.84v59.59q0,30.62,9.76,43t26.82,12.43q17.06,0,26.82-12.43t9.76-43V54.84h6.16v59.59q0,61.65-42.74,61.65T248,114.43V54.84Z"/><path class="cls-1" d="M458.33,167.86h0V63.47L412.1,109.7,365.86,63.47V174l-6.17-.2v-119h6.17l46.24,46.23,46.23-46.23h6.17V174l-6.17-.2Z"/><path class="cls-1" d="M95.86,82.54Q116.74,70.85,116.74,46q0-21.87-16.66-33.93T50.61,0H20.28V95.45L5.31,84c-1.45-1.33-3.64-.68-4.7.48a3.71,3.71,0,0,0,.49,4.7l19.18,14.68V174H60.06q33.32,0,49.72-13.05t16.41-35.42Q126.19,94,95.86,82.54Zm4.1,75.94a72.43,72.43,0,0,1-18.52,6.22,113.79,113.79,0,0,1-21.38,1.86H27.74V124.29L57.5,137.78A3.3,3.3,0,0,0,62,135.9a3,3,0,0,0-1.88-4.12L27.89,117.17l-.15,0v-33L59.55,54.41c1.35-.89,1.25-3.1.35-4.45a3.81,3.81,0,0,0-5-.34L27.74,75V7.46H50.61q58.67,0,58.67,38.53,0,20.64-17.15,30.08L78.21,84,93.12,89.5q25.6,9.45,25.61,36.05,0,11.69-5,20.13A32.14,32.14,0,0,1,100,158.48Z"/><path class="cls-1" d="M499.22,152.49h2.13v21h-2.13Z"/><path class="cls-1" d="M527,152.49h2.14v21h-2.36l-11.08-17.71.13,3v14.67h-2.14v-21h2.34l11.07,17.65L527,167Z"/><path class="cls-1" d="M541.54,152.49h5.54a23.29,23.29,0,0,1,3.3.19,9,9,0,0,1,2.63.83,5.17,5.17,0,0,1,2,1.73q1.65,2.43,1.65,7.58a17.36,17.36,0,0,1-.84,5.63,7.79,7.79,0,0,1-2.24,3.18,7.62,7.62,0,0,1-3,1.45,9.9,9.9,0,0,1-2.48.36l-2.31,0h-4.31Zm2.14,19.11h3l1.21,0c.36,0,.83,0,1.41-.08a4.75,4.75,0,0,0,1.28-.23l1.06-.45a2.15,2.15,0,0,0,.93-.73c.2-.29.43-.65.7-1.09a4.83,4.83,0,0,0,.6-1.52,27.76,27.76,0,0,0,.48-4.89,19.72,19.72,0,0,0-.3-4.16,4.79,4.79,0,0,0-1.28-2.53,4.56,4.56,0,0,0-2.2-1.16,17.37,17.37,0,0,0-3.47-.28h-3.43Z"/><path class="cls-1" d="M575.25,173.8h-.45l-.78,0a11.81,11.81,0,0,1-1.19-.13,5.25,5.25,0,0,1-1.36-.35,6.74,6.74,0,0,1-1.25-.77,4,4,0,0,1-1.12-1.23,8.28,8.28,0,0,1-1.07-4.43V152.49h2.17v14.38q.1,5.08,5,5.08a5.09,5.09,0,0,0,3.5-1.23,4.7,4.7,0,0,0,1.39-3.72V152.49h2.11l0,14.44Q582.22,173.8,575.25,173.8Z"/><path class="cls-1" d="M593.62,171A15,15,0,0,0,599,172a7.29,7.29,0,0,0,4.08-.85,3.7,3.7,0,0,0,1.2-3.19,2.85,2.85,0,0,0-.78-2.05,6.08,6.08,0,0,0-1.36-1l-1.16-.58c-.37-.18-.82-.38-1.35-.62l-1.37-.63q-.59-.27-1.59-.81a8,8,0,0,1-1.43-.91c-.28-.25-.59-.55-.94-.92a3.73,3.73,0,0,1-.9-2.59,5.1,5.1,0,0,1,1.84-4.19A7.28,7.28,0,0,1,600,152.1a17.38,17.38,0,0,1,5.41.81l-.42,1.62a15.09,15.09,0,0,0-4.61-.65,6.18,6.18,0,0,0-3.68.83,3.37,3.37,0,0,0-1.07,2.83,2.87,2.87,0,0,0,1.52,2.46,31.76,31.76,0,0,0,3.79,1.9,24.45,24.45,0,0,1,3.47,1.73,4.91,4.91,0,0,1,2.33,4.21q0,5.92-7.67,5.92a18.86,18.86,0,0,1-6-.93Z"/><path class="cls-1" d="M615.41,154.3v-1.81H629.3v1.81h-5.89v19.17h-2.14V154.3Z"/><path class="cls-1" d="M645.11,165.28l-2,0h-1.49v8.22H639.5v-21h6.16a16.78,16.78,0,0,1,2.89.21,7.33,7.33,0,0,1,2.29.82q2.2,1.3,2.2,5.28a6.82,6.82,0,0,1-1.18,4.41,5.57,5.57,0,0,1-3.35,1.84l5.44,7.84L652.26,174l-6.15-8.74Zm-1.3-1.88,2.46,0c1.75,0,2.94-.27,3.56-.82s.94-1.78.94-3.68-.39-3.12-1.18-3.66a8.18,8.18,0,0,0-4.32-.81h-3.6v8.94Z"/><path class="cls-1" d="M664.76,152.49h2.14v21h-2.14Z"/><path class="cls-1" d="M684.52,152.49h2.91l7.09,21h-2.3L690.05,167h-8.16l-2.17,6.51h-2.3Zm-2,12.66h7l-3.43-10.88H686Z"/><path class="cls-1" d="M721.82,153.22a9.05,9.05,0,0,1,2.53-.91,17.57,17.57,0,0,1,3-.21,15.2,15.2,0,0,1,4.53.87l-.51,1.72a24.43,24.43,0,0,0-4.33-.58,18.31,18.31,0,0,0-2.41.14,7,7,0,0,0-2.06.67,4.11,4.11,0,0,0-1.66,1.45q-1.39,2.15-1.4,6.55,0,5.4,2,7.25a5.3,5.3,0,0,0,1.94,1.21,6.8,6.8,0,0,0,2.22.34q1.22,0,1.8-.06a8.44,8.44,0,0,0,3.72-1.23l.74,1.75a10.58,10.58,0,0,1-6.08,1.58,16.69,16.69,0,0,1-2.53-.17,7.7,7.7,0,0,1-2.27-.81,5.29,5.29,0,0,1-2-1.77,10.3,10.3,0,0,1-1.27-3.17,19.51,19.51,0,0,1-.52-4.81,16,16,0,0,1,.64-4.81,9.27,9.27,0,0,1,1.61-3.17A7.26,7.26,0,0,1,721.82,153.22Z"/><path class="cls-1" d="M747.86,152.49h2.92l7.09,21h-2.3L753.4,167h-8.16l-2.17,6.51h-2.3Zm-2,12.66h7l-3.44-10.88h-.09Z"/><path class="cls-1" d="M774,165.28l-1.94,0h-1.49v8.22h-2.17v-21h6.16a16.78,16.78,0,0,1,2.89.21,7.33,7.33,0,0,1,2.29.82c1.46.87,2.2,2.63,2.2,5.28a6.88,6.88,0,0,1-1.18,4.41,5.57,5.57,0,0,1-3.35,1.84l5.44,7.84L781.15,174,775,165.28Zm-1.29-1.88,2.46,0c1.75,0,2.94-.27,3.56-.82s.94-1.78.94-3.68-.39-3.12-1.18-3.66a8.18,8.18,0,0,0-4.32-.81h-3.6v8.94Z"/><path class="cls-1" d="M799.25,165.28l-1.94,0h-1.49v8.22h-2.17v-21h6.15a16.91,16.91,0,0,1,2.9.21,7.18,7.18,0,0,1,2.28.82q2.21,1.3,2.21,5.28,0,3.34-1.59,4.89a4.64,4.64,0,0,1-1.81,1,9.65,9.65,0,0,1-2.11.47A23.39,23.39,0,0,1,799.25,165.28ZM798,163.4l2.46,0c1.75,0,2.94-.27,3.56-.82s.94-1.78.94-3.68-.39-3.12-1.18-3.66a8.18,8.18,0,0,0-4.32-.81h-3.6v8.94Z"/><path class="cls-1" d="M818,152.49h2.13v21H818Z"/><path class="cls-1" d="M845.85,152.49H848v21h-2.36l-11.08-17.71.13,3v14.67h-2.14v-21h2.34L846,170.14l-.1-3.11Z"/><path class="cls-1" d="M858.19,154.3v-1.81h13.9v1.81h-5.9v19.17h-2.13V154.3Z"/><path class="cls-1" d="M894.2,173.47H882.29v-21h11.56l-.23,1.81h-9.16v7.42h8.09v1.81h-8.13v8.13h9.78Z"/><path class="cls-1" d="M910.78,165.28l-1.94,0h-1.49v8.22h-2.17v-21h6.15a16.91,16.91,0,0,1,2.9.21,7.18,7.18,0,0,1,2.28.82q2.21,1.3,2.21,5.28a6.88,6.88,0,0,1-1.18,4.41,5.56,5.56,0,0,1-3.36,1.84l5.44,7.84L917.94,174l-6.15-8.74Zm-1.29-1.88,2.46,0c1.75,0,2.94-.27,3.56-.82s.94-1.78.94-3.68-.39-3.12-1.18-3.66a8.18,8.18,0,0,0-4.32-.81h-3.6v8.94Z"/><path class="cls-1" d="M935.69,152.49h2.91l7.09,21H943.4L941.22,167h-8.16l-2.17,6.51h-2.3Zm-2,12.66h7l-3.43-10.88h-.1Z"/></g></g></svg>