<svg width="103" height="102" viewBox="0 0 103 102" fill="none" xmlns="http://www.w3.org/2000/svg">
<path d="M69.5465 21.7117C59.3949 21.7117 49.2167 21.7117 39.0651 21.7117C32.7137 21.7117 26.3889 21.6585 20.0375 21.7382C18.3101 21.7648 17.0345 20.5424 17.6723 18.5227C18.5493 15.7589 20.3564 14.0315 23.2531 13.5266C23.9174 13.3937 24.2629 13.1546 24.5818 12.4902C26.256 9.06203 29.0464 7.30809 32.9263 7.36124C33.3781 7.36124 33.7501 7.46754 33.9893 6.82974C35.4244 3.18898 38.1084 0.930121 41.9883 0.15945C42.0681 0.132875 42.1478 0.0531497 42.2275 0C42.2009 0.478348 41.8023 0.451773 41.51 0.504923C38.2413 1.32874 35.9027 3.32186 34.5208 6.35139C34.069 7.30809 33.511 7.65356 32.4745 7.65356C28.9932 7.62699 26.5749 9.46066 24.9539 12.3573C24.4755 13.2077 23.944 13.6063 23.0139 13.8189C20.5424 14.4036 18.8416 15.9183 18.0444 18.3632C17.4066 20.3298 18.1773 21.3928 20.2501 21.3928C30.508 21.3928 40.7659 21.3928 51.0238 21.3928C56.8968 21.3928 62.7699 21.3928 68.6695 21.3928C68.9884 21.3928 69.3339 21.4193 69.6794 21.3928C71.0878 21.2865 71.8319 20.3298 71.5662 18.9479C70.9284 15.7323 67.9254 13.4469 64.4707 13.6329C63.8063 13.6595 63.328 13.5532 62.9559 12.942C61.1754 10.0985 58.5445 8.98231 55.2492 9.24805C54.1331 9.32778 54.0268 9.24806 53.761 8.15849C52.7777 4.25198 50.2797 1.78052 46.4529 0.584647C46.0809 0.451773 45.5494 0.558072 45.4431 0C45.8948 0.292324 46.4529 0.265749 46.9313 0.425199C50.6783 1.75394 53.0966 4.27855 54.0002 8.18506C54.1596 8.87601 54.2659 9.14176 55.1695 9.03546C58.5179 8.61026 61.2285 9.80613 63.1154 12.6496C63.4874 13.2343 63.7532 13.4735 64.5238 13.3937C68.0051 13.0748 71.327 15.7057 71.9116 19.1073C72.1508 20.6221 71.1941 21.7117 69.5465 21.7117Z" fill="white"/>
<path d="M102.021 96.0681C101.543 96.0681 101.489 95.6164 101.356 95.324C100.586 93.6764 99.2571 92.9057 97.5031 92.7729C96.3338 92.6931 96.201 92.5603 96.1744 91.391C96.1478 89.4776 96.1744 87.5376 96.1744 85.6242C96.1744 85.2522 96.1744 84.9067 96.1212 84.5346C95.9352 83.4185 95.5366 83.0465 94.4204 83.0199C92.321 82.9933 90.2216 83.0199 88.1488 83.0199C86.3151 83.0199 84.4814 83.0199 82.6744 83.0199C81.4519 83.0199 81.2925 82.8339 81.2393 81.6646C81.1596 79.0602 81.1862 79.0868 83.6842 78.3427C87.9096 77.0937 90.886 74.3299 92.9057 70.5031C94.9785 66.5966 95.7492 62.3712 96.0149 57.9598C96.3604 51.9007 95.4303 46.0277 93.8092 40.2078C93.4106 38.7993 92.8791 37.444 92.3742 36.0887C92.2679 35.7698 92.1084 35.4774 91.8693 35.2383C91.4972 34.8928 91.072 34.7333 90.5937 34.9194C90.0622 35.132 89.823 35.5306 89.8496 36.0887C89.8496 36.4873 90.009 36.8593 90.1419 37.2314C92.7994 44.0611 93.9421 51.1566 93.5435 58.4647C93.2777 63.2216 92.2147 67.7925 89.1852 71.6724C87.511 73.825 85.3584 75.3132 82.6744 76.0041C81.5582 76.2964 81.2659 76.0838 81.2659 74.9145C81.2393 69.9716 81.2393 65.0287 81.2659 60.1123C81.2659 59.0228 81.4253 58.8367 82.5415 58.7836C84.6675 58.6773 85.6507 57.0562 86.82 55.7009C87.1389 55.3289 86.9263 54.8771 86.6074 54.5316C86.262 54.1596 85.8633 54.0001 85.3584 54.1861C85.0129 54.319 84.7472 54.5848 84.4814 54.8239C84.136 55.1428 83.8437 55.4883 83.4716 55.7806C82.9401 56.1793 82.3554 56.259 81.7708 56.0198C81.1862 55.7806 81.2925 55.196 81.2925 54.7176C81.2925 51.13 81.2925 47.569 81.2925 43.9814C81.2925 43.4765 81.319 42.9715 81.133 42.5198C80.9204 41.9617 80.5484 41.6428 79.9371 41.6694C79.3525 41.696 79.007 41.9883 78.821 42.5198C78.6084 43.0513 78.6881 43.6359 78.635 44.194C78.6084 44.5395 78.6881 44.9912 78.2895 45.1773C77.8377 45.3899 77.5454 44.9912 77.2797 44.7255C76.8279 44.3269 76.4558 43.8751 75.9509 43.503C75.3663 43.0778 74.7816 42.9981 74.2501 43.5562C73.7186 44.1143 73.7983 44.7521 74.2767 45.257C75.3131 46.3466 76.1901 47.6753 77.8909 47.8879C78.4224 47.941 78.6084 48.3131 78.635 48.7914C78.6615 49.1901 78.6615 49.5887 78.6615 49.9873C78.6615 53.8672 78.6615 57.7472 78.6615 61.6271C78.6615 62.9559 78.5021 63.0887 77.1734 63.1153C76.9608 63.1153 76.7747 63.0887 76.5887 63.1153C75.3928 63.2747 74.5424 62.823 74.0375 61.7068C73.7718 61.1222 73.3732 60.5641 73.0277 60.006C72.8948 59.7934 72.7619 59.5543 72.5759 59.3417C72.0976 58.8367 71.5395 58.5976 70.9017 59.0493C70.317 59.448 70.2373 60.0592 70.5562 60.6438C71.2472 61.8929 71.9381 63.1419 72.7885 64.2846C73.7452 65.5336 75.1005 65.7196 76.5356 65.7728C78.7147 65.8259 78.7147 65.8259 78.7147 68.0051C78.7147 70.3702 78.7147 72.7088 78.7147 75.074C78.7147 76.323 78.5287 76.4559 77.2797 76.2433C73.9578 75.6852 71.4332 73.7984 69.4932 71.1409C67.2609 68.0848 66.2511 64.5503 65.8259 60.8564C64.7629 51.635 66.3308 42.8387 70.2107 34.441C71.4332 31.7835 73.0011 29.3121 75.3663 27.4518C78.2895 25.1664 81.4785 25.2461 84.1891 27.7707C85.0395 28.568 85.8368 29.3918 86.5277 30.3485C86.82 30.7737 87.1921 31.1192 87.7501 31.0926C88.7068 31.0394 89.1852 30.0296 88.6271 29.0729C87.9627 27.9567 87.1124 26.9735 86.1291 26.1231C84.6409 24.8209 83.0198 23.7313 81.0001 23.4124C77.8643 22.9075 75.2865 24.0768 73.0277 26.2028C69.7058 29.3386 67.7127 33.2717 66.1713 37.4971C64.4174 42.2806 63.4607 47.2501 63.0887 52.3259C62.7166 57.508 63.0887 62.5838 64.816 67.5001C66.2511 71.5927 68.6428 74.9943 72.5228 77.1734C73.9844 77.9972 75.5523 78.5021 77.1999 78.7679C78.5818 78.9805 78.6616 79.1134 78.6881 80.4953C78.6881 83.2059 78.821 83.0199 76.1369 83.0199H56.7107C54.877 83.0199 54.8239 82.9667 54.8239 81.1065C54.8239 79.326 54.8239 77.5189 54.8239 75.7384C54.8239 74.4628 55.0099 74.3565 56.2324 74.7019C59.2619 75.6055 62.0788 73.32 61.7865 70.2374C61.6536 68.8023 60.7767 67.7925 59.6339 67.0484C58.5709 66.3574 57.5079 65.6931 56.3918 65.1084C55.5414 64.6832 55.2225 64.0454 55.2225 63.1153C55.2491 60.8299 55.2491 58.5444 55.2225 56.259C55.2225 54.6379 54.9302 54.319 53.3623 54.2127C52.565 54.1596 52.2196 53.8141 52.2461 53.0434C52.2461 52.3259 52.2196 51.5818 52.2461 50.8643C52.2727 50.1468 52.6182 49.7481 53.3623 49.7216C53.4154 49.7216 53.4951 49.7216 53.5749 49.695C54.7707 49.5887 55.1959 49.2964 55.1959 48.5257C55.1959 47.7284 54.5847 47.2767 53.3888 47.2501C48.5788 47.2235 43.7687 47.2501 38.9321 47.2501C38.5601 47.2501 38.188 47.2501 37.8425 47.2235C37.2313 47.197 36.9124 46.9046 36.9124 46.2934C36.8859 44.9115 36.8859 43.503 36.9124 42.1212C36.9124 41.4568 37.3111 41.191 37.8957 41.1113C38.7992 40.9784 39.5965 40.6595 40.2874 39.9952C42.3603 38.002 42.0945 34.9194 39.6496 33.3514C39.0384 32.9528 38.4006 32.6073 37.7628 32.2619C33.3248 30.0296 28.9134 27.7176 24.502 25.379C22.8012 24.4754 21.1535 24.4223 19.4793 25.379C18.5226 25.9371 17.5393 26.4154 16.5827 26.9203C15.7057 27.3987 15.4399 28.0365 15.7854 28.7008C16.1309 29.3652 16.7953 29.5247 17.6988 29.126C18.7618 28.6477 19.7982 28.1162 20.8346 27.5847C21.6319 27.1595 22.4025 27.1861 23.2264 27.5847C28.1959 30.1093 33.1388 32.6871 38.0551 35.318C39.1181 35.8761 39.437 36.7796 38.9587 37.7097C38.5335 38.5601 37.5768 38.9056 36.567 38.3741C34.6801 37.4174 32.7668 36.4607 30.9065 35.4774C28.3553 34.1221 25.7776 32.8199 23.2264 31.4646C22.4025 31.0394 21.7116 31.0394 20.8878 31.4646C16.5827 33.6438 12.3838 35.9558 8.0787 38.1083C7.81295 38.2412 7.57377 38.4007 7.28145 38.507C6.43105 38.7993 5.55408 38.507 5.12888 37.7629C4.70369 37.0188 4.88971 36.1152 5.68696 35.5837C6.3779 35.0788 7.14857 34.6802 7.91925 34.2816C8.92909 33.7766 9.96551 33.2983 10.9488 32.7402C11.7992 32.2619 12.0915 31.5975 11.7992 30.9597C11.4803 30.2688 10.683 30.0296 9.80606 30.5079C8.02555 31.4912 6.13873 32.2353 4.43794 33.3249C2.84344 34.3879 2.1525 35.9824 2.49797 37.7629C2.81687 39.4371 4.19876 40.7924 6.03243 41.0847C6.9094 41.2176 7.20173 41.6428 7.20173 42.4666C7.20173 49.4027 7.20173 56.3121 7.20173 63.2482C7.20173 64.0454 6.9094 64.5769 6.19188 64.9224C5.34148 65.3742 4.54424 65.9057 3.69384 66.384C2.39167 67.1015 1.22238 67.9253 0.58458 69.3604C0.504856 69.5464 0.371986 69.7059 0.132812 69.6527C0.797184 67.633 2.52455 66.7029 4.22534 65.7462C5.12889 65.2413 6.35133 64.9224 6.77653 64.1517C7.2283 63.3279 6.93598 62.0789 6.93598 61.0425C6.93598 54.8239 6.93597 48.5788 6.96255 42.3603C6.96255 41.6694 6.85625 41.4302 6.08558 41.4036C4.25192 41.2973 2.65742 39.8357 2.20565 38.0552C1.75388 36.2747 2.44482 34.2284 4.06589 33.2717C6.03243 32.129 8.0787 31.1192 10.125 30.0827C10.8691 29.7107 11.6929 30.0296 12.0649 30.7471C12.4635 31.5178 12.2244 32.3682 11.3208 32.8465C9.72634 33.6969 8.10527 34.5207 6.4842 35.3711C6.21846 35.504 5.92613 35.6369 5.71353 35.8229C5.12889 36.3278 4.91629 36.9656 5.31491 37.6832C5.71353 38.3475 6.32475 38.6664 7.09542 38.3209C7.91924 37.9755 8.68991 37.5503 9.48716 37.1251C13.2342 35.1851 17.0078 33.2717 20.7283 31.2786C21.685 30.7737 22.4557 30.8003 23.3858 31.3052C27.6378 33.564 31.9429 35.7698 36.2215 37.9755C36.4872 38.1083 36.753 38.2412 37.0187 38.3475C37.7894 38.6133 38.374 38.3209 38.7727 37.63C39.1713 36.9391 38.9587 36.3544 38.4006 35.8495C38.188 35.6635 37.8957 35.5306 37.63 35.3977C32.8199 32.8997 28.0098 30.4282 23.2264 27.9036C22.376 27.4518 21.6319 27.4252 20.8081 27.9302C19.7982 28.5148 18.7618 29.0197 17.7254 29.5247C16.7952 29.9764 15.8917 29.7373 15.5197 28.94C15.121 28.1428 15.4134 27.3455 16.2903 26.8672C17.5394 26.2028 18.8149 25.5384 20.064 24.9272C21.3927 24.2628 22.748 24.2894 24.0768 24.9804C29.2589 27.6644 34.4675 30.3485 39.6231 33.0857C41.4302 34.0424 42.3071 36.0887 41.8819 37.9489C41.4302 39.942 39.8091 41.3505 37.7362 41.4834C37.2047 41.5099 37.0719 41.696 37.0985 42.1743C37.125 43.5296 37.1516 44.8849 37.0985 46.2403C37.0719 46.9578 37.3111 47.0907 37.9754 47.0907C43.2107 47.0641 48.4725 47.0907 53.7077 47.0641C54.5316 47.0641 55.1694 47.3033 55.4617 48.0739C55.8603 49.0838 55.1428 50.0139 53.9735 50.1202C52.565 50.2265 52.565 50.2265 52.565 51.635C52.565 51.7944 52.565 51.9539 52.565 52.1399C52.565 52.698 52.379 53.3623 52.6182 53.8141C52.9105 54.3456 53.628 53.947 54.1861 54.0267C55.0099 54.1596 55.4883 54.7442 55.4883 55.7275C55.4883 58.3318 55.5148 60.9627 55.4883 63.5936C55.4883 64.2049 55.6743 64.5503 56.2058 64.8161C57.3751 65.4273 58.4912 66.1183 59.6339 66.8092C61.9725 68.2177 62.7698 70.7157 61.5739 72.9214C60.4578 74.9943 57.7737 76.0573 55.4085 74.7551C55.3554 74.7285 55.2757 74.7285 55.0896 74.7019C55.0896 76.5622 55.0631 78.3958 55.0896 80.2029C55.0896 81.0533 54.7176 82.1695 55.2225 82.6744C55.7274 83.1793 56.8702 82.8073 57.7205 82.8339C64.3377 82.8339 70.9283 82.8339 77.5454 82.8604C78.3161 82.8604 78.5021 82.6478 78.4489 81.9303C78.3692 81.1065 78.6881 80.1232 78.3427 79.4854C77.9972 78.8742 76.9076 79.1134 76.1635 78.9273C70.4765 77.5454 66.9952 73.7452 64.8692 68.5631C62.9027 63.7531 62.4509 58.7039 62.69 53.5749C62.9558 47.7019 64.0719 41.9883 66.2511 36.4873C67.7393 32.6871 69.6261 29.0995 72.6291 26.2294C74.9145 24.0502 77.5454 22.7215 80.7875 23.1998C83.1793 23.5453 85.0661 24.8475 86.7669 26.5217C87.5375 27.2924 88.2551 28.1428 88.8663 29.0197C89.4244 29.817 89.2915 30.694 88.6005 31.2255C87.883 31.757 87.0326 31.6241 86.4214 30.8268C85.5976 29.7373 84.7206 28.7008 83.6576 27.8239C81.0001 25.5916 78.1566 25.5916 75.446 27.7441C73.5326 29.2855 72.1507 31.2786 70.9814 33.4046C68.3771 38.2412 66.9155 43.4765 66.1448 48.8977C65.5867 52.884 65.4273 56.8702 65.9588 60.883C66.5965 65.6665 68.005 70.1311 71.7787 73.4529C73.4794 74.9677 75.4726 75.8447 77.758 76.137C78.2629 76.1901 78.3958 76.137 78.3958 75.6321C78.3692 72.6557 78.3692 69.6527 78.3958 66.6763C78.3958 66.1183 78.1566 66.0385 77.7048 66.0385C76.8545 66.0651 75.9775 66.0385 75.1271 65.9854C73.8249 65.8791 72.8151 65.2147 72.1507 64.0986C71.5395 63.0887 70.9017 62.0789 70.317 61.0425C69.7855 60.1123 69.9184 59.2619 70.7157 58.7836C71.4863 58.3052 72.3102 58.5178 72.8948 59.448C73.4529 60.3515 74.0375 61.2285 74.5159 62.1586C74.8348 62.7698 75.26 63.009 75.9509 62.9559C76.7482 62.9027 77.758 63.195 78.2629 62.7964C78.7678 62.3712 78.4224 61.3082 78.4224 60.5375C78.449 56.6842 78.4224 52.8574 78.4489 49.004C78.4489 48.4725 78.4224 48.1271 77.7314 48.1802C77.0936 48.2334 76.509 47.9145 76.0306 47.4893C75.3397 46.8515 74.6753 46.2137 74.0641 45.5227C73.4529 44.8584 73.4529 43.9814 74.0375 43.3967C74.6222 42.8121 75.4991 42.7589 76.1901 43.3702C76.695 43.7954 77.1202 44.3003 77.6251 44.7521C77.8377 44.9381 77.9972 45.3101 78.3427 45.1507C78.635 45.0178 78.4755 44.6723 78.4755 44.4332C78.5021 44.0345 78.4755 43.6359 78.4755 43.2373C78.5021 42.0414 79.0868 41.3505 80.07 41.3771C81.0001 41.4036 81.5848 42.068 81.5848 43.2107C81.5848 46.1871 81.5848 49.1635 81.5848 52.1665C81.5848 53.0966 81.5582 54.0267 81.5848 54.9568C81.6114 55.3023 81.319 55.8604 81.824 55.9667C82.3289 56.073 82.9401 56.1793 83.3919 55.6478C83.7639 55.196 84.2157 54.7974 84.6675 54.3722C85.4116 53.6812 86.2354 53.6546 86.8732 54.2924C87.511 54.9302 87.4844 55.7541 86.82 56.4982C86.262 57.1094 85.6507 57.6674 85.0661 58.2521C84.322 58.9696 83.3653 59.1556 82.4086 59.0759C81.7442 59.0228 81.5848 59.2619 81.5848 59.8997C81.6114 65.0287 81.6114 70.1842 81.5848 75.3132C81.5848 75.8978 81.6114 76.1104 82.3289 75.951C86.3417 74.9943 88.9726 72.4165 90.7797 68.882C92.5071 65.5336 93.198 61.8929 93.3575 58.1724C93.7029 50.8643 92.507 43.7688 89.7964 36.9391C89.3712 35.8761 89.6635 35.0522 90.5405 34.7068C91.4175 34.3613 92.1616 34.7333 92.6133 35.8229C94.5533 40.5267 95.6695 45.4164 96.201 50.4657C96.7059 55.4352 96.6527 60.3781 95.3771 65.2413C94.1813 69.8387 92.0819 73.8781 88.069 76.6685C86.3417 77.8643 84.4283 78.6882 82.3289 79.0071C81.7442 79.0868 81.5316 79.326 81.5848 79.884C81.6645 80.8407 81.1862 82.0898 81.7708 82.6213C82.3023 83.0996 83.5247 82.7807 84.4549 82.7807C87.8565 82.7807 91.2315 82.7807 94.6065 82.7807C95.9352 82.7807 96.4667 83.2856 96.4933 84.6409C96.5199 87.0327 96.4933 89.4244 96.5199 91.7896C96.5199 92.1085 96.3338 92.5603 96.9716 92.5337C99.4962 92.3211 101.091 93.7295 102.021 96.0681Z" fill="white"/>
<path d="M21.9509 37.4174C18.4962 37.3908 15.5995 40.2344 15.5729 43.6625C15.5464 47.1172 18.4165 49.9608 21.8712 49.9608C25.3791 49.9608 28.2226 47.1438 28.196 43.6891C28.196 40.2875 25.3525 37.444 21.9509 37.4174ZM21.8978 46.9578C20.0641 46.9578 18.6556 45.5228 18.6556 43.6891C18.6556 41.882 20.0641 40.4735 21.8712 40.4735C23.7049 40.4735 25.1133 41.9086 25.1133 43.7688C25.1133 45.5493 23.7048 46.9578 21.8978 46.9578Z" fill="white"/>
<path d="M47.8082 75.5524C47.8082 74.1173 46.8781 73.1872 45.443 73.1872C42.068 73.1872 38.6664 73.1872 35.2914 73.1872C33.8032 73.1872 32.8997 74.0908 32.8731 75.6055C32.8731 78.1301 32.8731 80.6548 32.8731 83.1528C32.8731 84.9333 33.7501 85.8369 35.5306 85.8634C37.1251 85.89 38.7196 85.8634 40.3141 85.8634C41.9351 85.8634 43.5562 85.89 45.2039 85.8634C46.9312 85.8369 47.8348 84.9067 47.8348 83.2059C47.8082 80.6548 47.8348 78.1036 47.8082 75.5524ZM38.7727 82.3024C38.6133 83.4451 37.3377 82.515 36.6202 82.7542C36.2747 82.8605 35.8229 82.9136 35.8495 82.2493C35.9026 81.3191 35.8761 80.389 35.8495 79.4589V78.3693C35.8495 75.951 35.8495 75.9776 38.321 76.1636C38.693 76.1902 38.8525 76.2433 38.8525 76.6685C38.8259 78.5553 39.0385 80.4687 38.7727 82.3024ZM44.8318 82.143C44.8318 82.6479 44.6989 82.8073 44.1674 82.8073C41.8288 82.8605 41.8288 82.8871 41.8288 80.5485V78.263C41.8288 76.1636 41.8289 76.1902 43.9283 76.1636C44.6724 76.137 44.885 76.3231 44.8584 77.0672C44.7787 78.7679 44.8052 80.4422 44.8318 82.143ZM47.8082 75.5524C47.8082 74.1173 46.8781 73.1872 45.443 73.1872C42.068 73.1872 38.6664 73.1872 35.2914 73.1872C33.8032 73.1872 32.8997 74.0908 32.8731 75.6055C32.8731 78.1301 32.8731 80.6548 32.8731 83.1528C32.8731 84.9333 33.7501 85.8369 35.5306 85.8634C37.1251 85.89 38.7196 85.8634 40.3141 85.8634C41.9351 85.8634 43.5562 85.89 45.2039 85.8634C46.9312 85.8369 47.8348 84.9067 47.8348 83.2059C47.8082 80.6548 47.8348 78.1036 47.8082 75.5524ZM38.7727 82.3024C38.6133 83.4451 37.3377 82.515 36.6202 82.7542C36.2747 82.8605 35.8229 82.9136 35.8495 82.2493C35.9026 81.3191 35.8761 80.389 35.8495 79.4589V78.3693C35.8495 75.951 35.8495 75.9776 38.321 76.1636C38.693 76.1902 38.8525 76.2433 38.8525 76.6685C38.8259 78.5553 39.0385 80.4687 38.7727 82.3024ZM44.8318 82.143C44.8318 82.6479 44.6989 82.8073 44.1674 82.8073C41.8288 82.8605 41.8288 82.8871 41.8288 80.5485V78.263C41.8288 76.1636 41.8289 76.1902 43.9283 76.1636C44.6724 76.137 44.885 76.3231 44.8584 77.0672C44.7787 78.7679 44.8052 80.4422 44.8318 82.143ZM47.8082 75.5524C47.8082 74.1173 46.8781 73.1872 45.443 73.1872C42.068 73.1872 38.6664 73.1872 35.2914 73.1872C33.8032 73.1872 32.8997 74.0908 32.8731 75.6055C32.8731 78.1301 32.8731 80.6548 32.8731 83.1528C32.8731 84.9333 33.7501 85.8369 35.5306 85.8634C37.1251 85.89 38.7196 85.8634 40.3141 85.8634C41.9351 85.8634 43.5562 85.89 45.2039 85.8634C46.9312 85.8369 47.8348 84.9067 47.8348 83.2059C47.8082 80.6548 47.8348 78.1036 47.8082 75.5524ZM38.7727 82.3024C38.6133 83.4451 37.3377 82.515 36.6202 82.7542C36.2747 82.8605 35.8229 82.9136 35.8495 82.2493C35.9026 81.3191 35.8761 80.389 35.8495 79.4589V78.3693C35.8495 75.951 35.8495 75.9776 38.321 76.1636C38.693 76.1902 38.8525 76.2433 38.8525 76.6685C38.8259 78.5553 39.0385 80.4687 38.7727 82.3024ZM44.8318 82.143C44.8318 82.6479 44.6989 82.8073 44.1674 82.8073C41.8288 82.8605 41.8288 82.8871 41.8288 80.5485V78.263C41.8288 76.1636 41.8289 76.1902 43.9283 76.1636C44.6724 76.137 44.885 76.3231 44.8584 77.0672C44.7787 78.7679 44.8052 80.4422 44.8318 82.143ZM47.8082 75.5524C47.8082 74.1173 46.8781 73.1872 45.443 73.1872C42.068 73.1872 38.6664 73.1872 35.2914 73.1872C33.8032 73.1872 32.8997 74.0908 32.8731 75.6055C32.8731 78.1301 32.8731 80.6548 32.8731 83.1528C32.8731 84.9333 33.7501 85.8369 35.5306 85.8634C37.1251 85.89 38.7196 85.8634 40.3141 85.8634C41.9351 85.8634 43.5562 85.89 45.2039 85.8634C46.9312 85.8369 47.8348 84.9067 47.8348 83.2059C47.8082 80.6548 47.8348 78.1036 47.8082 75.5524ZM38.7727 82.3024C38.6133 83.4451 37.3377 82.515 36.6202 82.7542C36.2747 82.8605 35.8229 82.9136 35.8495 82.2493C35.9026 81.3191 35.8761 80.389 35.8495 79.4589V78.3693C35.8495 75.951 35.8495 75.9776 38.321 76.1636C38.693 76.1902 38.8525 76.2433 38.8525 76.6685C38.8259 78.5553 39.0385 80.4687 38.7727 82.3024ZM44.8318 82.143C44.8318 82.6479 44.6989 82.8073 44.1674 82.8073C41.8288 82.8605 41.8288 82.8871 41.8288 80.5485V78.263C41.8288 76.1636 41.8289 76.1902 43.9283 76.1636C44.6724 76.137 44.885 76.3231 44.8584 77.0672C44.7787 78.7679 44.8052 80.4422 44.8318 82.143ZM47.8082 75.5524C47.8082 74.1173 46.8781 73.1872 45.443 73.1872C42.068 73.1872 38.6664 73.1872 35.2914 73.1872C33.8032 73.1872 32.8997 74.0908 32.8731 75.6055C32.8731 78.1301 32.8731 80.6548 32.8731 83.1528C32.8731 84.9333 33.7501 85.8369 35.5306 85.8634C37.1251 85.89 38.7196 85.8634 40.3141 85.8634C41.9351 85.8634 43.5562 85.89 45.2039 85.8634C46.9312 85.8369 47.8348 84.9067 47.8348 83.2059C47.8082 80.6548 47.8348 78.1036 47.8082 75.5524ZM38.7727 82.3024C38.6133 83.4451 37.3377 82.515 36.6202 82.7542C36.2747 82.8605 35.8229 82.9136 35.8495 82.2493C35.9026 81.3191 35.8761 80.389 35.8495 79.4589V78.3693C35.8495 75.951 35.8495 75.9776 38.321 76.1636C38.693 76.1902 38.8525 76.2433 38.8525 76.6685C38.8259 78.5553 39.0385 80.4687 38.7727 82.3024ZM44.8318 82.143C44.8318 82.6479 44.6989 82.8073 44.1674 82.8073C41.8288 82.8605 41.8288 82.8871 41.8288 80.5485V78.263C41.8288 76.1636 41.8289 76.1902 43.9283 76.1636C44.6724 76.137 44.885 76.3231 44.8584 77.0672C44.7787 78.7679 44.8052 80.4422 44.8318 82.143ZM47.8082 75.5524C47.8082 74.1173 46.8781 73.1872 45.443 73.1872C42.068 73.1872 38.6664 73.1872 35.2914 73.1872C33.8032 73.1872 32.8997 74.0908 32.8731 75.6055C32.8731 78.1301 32.8731 80.6548 32.8731 83.1528C32.8731 84.9333 33.7501 85.8369 35.5306 85.8634C37.1251 85.89 38.7196 85.8634 40.3141 85.8634C41.9351 85.8634 43.5562 85.89 45.2039 85.8634C46.9312 85.8369 47.8348 84.9067 47.8348 83.2059C47.8082 80.6548 47.8348 78.1036 47.8082 75.5524ZM38.7727 82.3024C38.6133 83.4451 37.3377 82.515 36.6202 82.7542C36.2747 82.8605 35.8229 82.9136 35.8495 82.2493C35.9026 81.3191 35.8761 80.389 35.8495 79.4589V78.3693C35.8495 75.951 35.8495 75.9776 38.321 76.1636C38.693 76.1902 38.8525 76.2433 38.8525 76.6685C38.8259 78.5553 39.0385 80.4687 38.7727 82.3024ZM44.8318 82.143C44.8318 82.6479 44.6989 82.8073 44.1674 82.8073C41.8288 82.8605 41.8288 82.8871 41.8288 80.5485V78.263C41.8288 76.1636 41.8289 76.1902 43.9283 76.1636C44.6724 76.137 44.885 76.3231 44.8584 77.0672C44.7787 78.7679 44.8052 80.4422 44.8318 82.143ZM47.8082 75.5524C47.8082 74.1173 46.8781 73.1872 45.443 73.1872C42.068 73.1872 38.6664 73.1872 35.2914 73.1872C33.8032 73.1872 32.8997 74.0908 32.8731 75.6055C32.8731 78.1301 32.8731 80.6548 32.8731 83.1528C32.8731 84.9333 33.7501 85.8369 35.5306 85.8634C37.1251 85.89 38.7196 85.8634 40.3141 85.8634C41.9351 85.8634 43.5562 85.89 45.2039 85.8634C46.9312 85.8369 47.8348 84.9067 47.8348 83.2059C47.8082 80.6548 47.8348 78.1036 47.8082 75.5524ZM38.7727 82.3024C38.6133 83.4451 37.3377 82.515 36.6202 82.7542C36.2747 82.8605 35.8229 82.9136 35.8495 82.2493C35.9026 81.3191 35.8761 80.389 35.8495 79.4589V78.3693C35.8495 75.951 35.8495 75.9776 38.321 76.1636C38.693 76.1902 38.8525 76.2433 38.8525 76.6685C38.8259 78.5553 39.0385 80.4687 38.7727 82.3024ZM44.8318 82.143C44.8318 82.6479 44.6989 82.8073 44.1674 82.8073C41.8288 82.8605 41.8288 82.8871 41.8288 80.5485V78.263C41.8288 76.1636 41.8289 76.1902 43.9283 76.1636C44.6724 76.137 44.885 76.3231 44.8584 77.0672C44.7787 78.7679 44.8052 80.4422 44.8318 82.143ZM47.8082 75.5524C47.8082 74.1173 46.8781 73.1872 45.443 73.1872C42.068 73.1872 38.6664 73.1872 35.2914 73.1872C33.8032 73.1872 32.8997 74.0908 32.8731 75.6055C32.8731 78.1301 32.8731 80.6548 32.8731 83.1528C32.8731 84.9333 33.7501 85.8369 35.5306 85.8634C37.1251 85.89 38.7196 85.8634 40.3141 85.8634C41.9351 85.8634 43.5562 85.89 45.2039 85.8634C46.9312 85.8369 47.8348 84.9067 47.8348 83.2059C47.8082 80.6548 47.8348 78.1036 47.8082 75.5524ZM38.7727 82.3024C38.6133 83.4451 37.3377 82.515 36.6202 82.7542C36.2747 82.8605 35.8229 82.9136 35.8495 82.2493C35.9026 81.3191 35.8761 80.389 35.8495 79.4589V78.3693C35.8495 75.951 35.8495 75.9776 38.321 76.1636C38.693 76.1902 38.8525 76.2433 38.8525 76.6685C38.8259 78.5553 39.0385 80.4687 38.7727 82.3024ZM44.8318 82.143C44.8318 82.6479 44.6989 82.8073 44.1674 82.8073C41.8288 82.8605 41.8288 82.8871 41.8288 80.5485V78.263C41.8288 76.1636 41.8289 76.1902 43.9283 76.1636C44.6724 76.137 44.885 76.3231 44.8584 77.0672C44.7787 78.7679 44.8052 80.4422 44.8318 82.143ZM96.8388 92.4806C96.201 92.5337 96.3871 92.0554 96.3871 91.7365C96.3871 89.3447 96.3871 86.953 96.3605 84.5878C96.3605 83.2591 95.8024 82.7276 94.4737 82.7276C91.0986 82.7276 87.6971 82.7276 84.3221 82.7276C83.392 82.7276 82.1429 83.0465 81.638 82.5682C81.0534 82.0367 81.5317 80.7611 81.452 79.8309C81.3988 79.2463 81.5849 79.0337 82.1961 78.954C84.2955 78.6351 86.1823 77.8378 87.9362 76.6154C91.9491 73.7984 94.0485 69.7591 95.2443 65.1882C96.5199 60.325 96.5731 55.3821 96.0682 50.4126C95.5367 45.3633 94.4205 40.4736 92.4805 35.7698C92.0288 34.6802 91.3112 34.3082 90.4077 34.6537C89.5573 34.9991 89.265 35.8495 89.6636 36.886C92.3743 43.7157 93.5701 50.7846 93.2247 58.1193C93.0652 61.8398 92.3743 65.4539 90.6469 68.8289C88.8398 72.3634 86.2089 74.9412 82.1961 75.8979C81.4786 76.0573 81.4254 75.8447 81.452 75.2601C81.452 70.1311 81.4785 64.9756 81.452 59.8466C81.452 59.2088 81.6114 58.9697 82.2758 59.0228C83.2591 59.1025 84.1892 58.9165 84.9333 58.199C85.5179 57.6143 86.1292 57.0563 86.6872 56.4451C87.3782 55.701 87.3782 54.8771 86.7404 54.2393C86.1026 53.6015 85.2788 53.6281 84.5347 54.3191C84.0829 54.7177 83.6577 55.1429 83.2591 55.5947C82.8073 56.1262 82.1961 56.0199 81.6912 55.9136C81.1597 55.8073 81.452 55.2492 81.452 54.9037C81.3988 53.9736 81.452 53.0435 81.452 52.1134C81.452 49.137 81.452 46.1606 81.452 43.1576C81.452 42.0149 80.8673 41.324 79.9372 41.324C78.9539 41.2974 78.3959 41.9883 78.3427 43.1842C78.3427 43.5828 78.3693 43.9814 78.3427 44.3801C78.3161 44.6192 78.5022 44.9647 78.2098 45.0976C77.8644 45.257 77.7049 44.885 77.4923 44.699C77.014 44.2472 76.5622 43.7423 76.0573 43.3171C75.3663 42.7059 74.4894 42.759 73.9047 43.3436C73.3201 43.9283 73.3201 44.8053 73.9313 45.4696C74.5691 46.134 75.2335 46.7984 75.8978 47.4362C76.3762 47.8614 76.9608 48.1803 77.5986 48.1271C78.2896 48.074 78.3161 48.3929 78.3161 48.9509C78.2896 52.8043 78.3161 56.6311 78.2896 60.4844C78.2896 61.2551 78.635 62.3447 78.1301 62.7433C77.6518 63.1419 76.6154 62.823 75.8181 62.9028C75.1272 62.9559 74.702 62.6902 74.3831 62.1055C73.8781 61.1754 73.3201 60.2718 72.762 59.3949C72.1774 58.4647 71.3535 58.2521 70.5829 58.7305C69.8122 59.2088 69.6527 60.0592 70.1842 60.9894C70.7955 62.0258 71.4067 63.0356 72.0179 64.0455C72.7088 65.1616 73.6921 65.826 74.9943 65.9323C75.8447 65.9854 76.7216 66.012 77.572 65.9854C78.0504 65.9854 78.2896 66.0386 78.263 66.6232C78.2364 69.5996 78.2364 72.6026 78.263 75.579C78.263 76.0839 78.1301 76.1636 77.6252 76.0839C75.3663 75.7916 73.3466 74.888 71.6459 73.3998C67.8722 70.078 66.4903 65.6134 65.826 60.8299C65.2679 56.8437 65.4273 52.8309 66.012 48.8446C66.7826 43.4234 68.2177 38.2147 70.8486 33.3515C71.9913 31.2255 73.3732 29.2324 75.3132 27.6911C78.0238 25.5119 80.8408 25.5385 83.5248 27.7708C84.5878 28.6477 85.4648 29.6842 86.2886 30.7737C86.8998 31.571 87.7502 31.7039 88.4677 31.1724C89.1587 30.6409 89.2916 29.7639 88.7335 28.9666C88.0957 28.0631 87.4047 27.2393 86.6341 26.4686C84.9599 24.821 83.0465 23.5188 80.6547 23.1467C77.386 22.6684 74.7817 23.9971 72.4963 26.1763C69.4933 29.0464 67.6065 32.634 66.1183 36.4342C63.9657 41.9352 62.8496 47.6488 62.5572 53.5218C62.3181 58.6508 62.7698 63.7 64.7364 68.51C66.8624 73.7187 70.3437 77.4924 76.0307 78.8742C76.7748 79.0603 77.8644 78.8211 78.2098 79.4323C78.5553 80.0701 78.2364 81.0534 78.3161 81.8772C78.3693 82.6213 78.1833 82.8073 77.4126 82.8073C70.7955 82.7808 64.2049 82.7808 57.5877 82.7808C56.7373 82.7808 55.6212 83.1528 55.0897 82.6213C54.5848 82.1164 54.9568 81.0002 54.9568 80.1498C54.9303 78.3162 54.9568 76.4825 54.9568 74.6488C55.1694 74.6754 55.2226 74.6754 55.2757 74.702C57.6409 75.9776 60.325 74.9146 61.4411 72.8683C62.6104 70.6626 61.8397 68.138 59.5011 66.7561C58.3584 66.0652 57.2423 65.3742 56.073 64.763C55.5415 64.4707 55.3289 64.1518 55.3555 63.5405C55.382 60.9362 55.382 58.3053 55.3555 55.6744C55.3555 54.6911 54.8505 54.1065 54.0533 53.9736C53.5218 53.8939 52.7777 54.2659 52.4854 53.761C52.2462 53.3358 52.4322 52.6714 52.4322 52.0868C52.4322 51.9273 52.4322 51.7679 52.4322 51.5819C52.4322 50.1734 52.4322 50.1734 53.8407 50.0671C55.0366 49.9608 55.7275 49.0307 55.3289 48.0208C55.0366 47.2502 54.3722 47.011 53.5749 47.011C48.3397 47.0376 43.0779 47.011 37.8426 47.0376C37.1782 47.0376 36.9125 46.9047 36.9656 46.1872C37.0188 44.8318 36.9922 43.4765 36.9656 42.1212C36.9656 41.6429 37.0719 41.4568 37.6034 41.4303C39.6763 41.2974 41.2974 39.8889 41.7491 37.8958C42.1743 36.0356 41.2974 33.9893 39.4903 33.0326C34.3082 30.2954 29.1261 27.6113 23.944 24.9273C22.6418 24.2363 21.2599 24.2097 19.9311 24.8741C18.6556 25.5119 17.4065 26.1497 16.1575 26.8141C15.254 27.2924 14.9882 28.0897 15.3868 28.8869C15.7855 29.6842 16.689 29.9233 17.5926 29.4716C18.629 28.9666 19.6654 28.4351 20.6753 27.8771C21.4991 27.3987 22.2432 27.3987 23.0936 27.8505C27.877 30.3751 32.6871 32.8466 37.4971 35.3446C37.7629 35.4775 38.0552 35.6104 38.2678 35.7964C38.8259 36.2747 39.0385 36.886 38.6399 37.5769C38.2412 38.2678 37.6832 38.5602 36.8859 38.2944C36.6202 38.1881 36.3544 38.0553 36.0887 37.9224C31.8101 35.7167 27.505 33.5109 23.253 31.2521C22.2963 30.7472 21.5522 30.7206 20.5955 31.2255C16.875 33.2186 13.1014 35.132 9.35435 37.072C8.5571 37.4706 7.78643 37.8958 6.96261 38.2679C6.19194 38.6133 5.58072 38.2944 5.1821 37.6301C4.7569 36.9125 4.9695 36.3013 5.58072 35.7698C5.79332 35.5838 6.08564 35.4509 6.35139 35.318C7.97246 34.4942 9.59353 33.6704 11.188 32.7934C12.065 32.3151 12.3307 31.4913 11.9321 30.694C11.5601 30.0031 10.7362 29.6576 9.99215 30.0296C7.94589 31.0395 5.89962 32.0493 3.93308 33.2186C2.31201 34.1753 1.62106 36.195 2.07284 38.0021C2.52461 39.7826 4.1191 41.2442 5.95277 41.3505C6.72344 41.4037 6.82974 41.6429 6.82974 42.3072C6.80316 48.5523 6.80317 54.7708 6.80317 60.9894C6.80317 62.0524 7.09549 63.3014 6.64372 64.0986C6.21852 64.8693 4.99607 65.2148 4.09253 65.6931C2.39174 66.6498 0.690947 67.5799 0 69.5996V71.7788C0.478348 74.6754 3.48131 75.8713 5.58072 75.3398C6.64372 75.074 6.67029 75.1006 6.67029 76.2168C6.67029 81.1065 6.67029 85.9963 6.67029 90.8861C6.67029 92.082 6.59056 92.1617 5.36812 92.1617H4.9695C2.23228 92.1883 0.611222 93.4373 0 96.015V98.1942C0.212599 98.7788 0.212596 99.4166 0.611219 99.9747C1.56791 101.277 2.81693 101.888 4.438 101.888C14.005 101.862 23.5719 101.888 33.1389 101.888C42.7324 101.888 52.3259 101.888 61.9194 101.888C63.2748 101.888 63.9126 101.41 63.9923 100.4C64.0454 99.3635 63.2482 98.5928 61.9992 98.5131C61.4943 98.4865 61.0159 98.4865 60.511 98.4865C42.3869 98.4865 24.2363 98.4865 6.11222 98.4865C5.68702 98.4865 5.23525 98.5131 4.81005 98.4334C4.01281 98.3005 3.42816 97.7424 3.42816 97.1046C3.42816 96.4668 4.01281 95.8822 4.81005 95.7759C5.10238 95.7227 5.3947 95.7493 5.7136 95.7493C35.9026 95.7493 66.0917 95.7493 96.2808 95.7493C96.6794 95.7493 97.078 95.7227 97.4766 95.829C98.141 96.015 98.6459 96.4137 98.6459 97.1312C98.6459 97.8487 98.141 98.2473 97.4766 98.4334C96.9983 98.5662 96.4934 98.5131 95.9884 98.5131C87.4845 98.5131 78.9805 98.5131 70.4766 98.5131C69.9185 98.5131 69.3338 98.4599 68.8023 98.6194C67.5002 98.9649 67.0218 100.506 67.8988 101.463C68.3506 101.968 68.9618 101.915 69.573 101.915C78.8476 101.915 88.0957 101.915 97.3703 101.915C100.134 101.915 101.436 100.905 102.101 98.2473V96.0682C101.091 93.7296 99.4963 92.3211 96.8388 92.4806ZM3.21556 71.4333C2.79036 70.6892 2.97638 69.9185 3.82678 69.4136C6.08564 68.0583 8.37109 66.7295 10.6565 65.4008C16.9813 61.7069 23.3327 58.013 29.631 54.2659C30.5611 53.7078 31.3318 53.6813 32.2619 54.2393C40.7393 59.2354 49.2432 64.2049 57.7738 69.1744C58.4116 69.5465 58.8899 69.9717 58.9696 70.6892C58.9165 71.8851 57.694 72.5229 56.6045 71.8851C54.6379 70.7689 52.7245 69.6262 50.7846 68.4835C44.6458 64.8959 38.507 61.3083 32.3948 57.6941C31.3849 57.1094 30.5877 57.0829 29.5513 57.6941C21.7382 62.3181 13.8721 66.889 6.03249 71.4864C5.76674 71.6459 5.52757 71.8053 5.26182 71.9382C4.46458 72.3368 3.61418 72.1242 3.21556 71.4333ZM10.6831 39.7295C14.1644 37.9755 17.6191 36.1684 21.0473 34.3348C21.6319 34.0159 22.0837 33.9893 22.6684 34.3082C26.07 36.1153 29.4981 37.8958 32.9528 39.6232C33.6969 39.9952 33.883 40.447 33.883 41.2177C33.8298 44.6192 33.8564 48.0474 33.8564 51.6616C31.5444 50.0937 29.5512 50.6783 27.505 51.9008C21.9508 55.2226 16.3435 58.4647 10.7628 61.7335C10.4971 61.8929 10.2579 61.9992 9.91242 62.2118C9.88585 61.8663 9.85928 61.574 9.85928 61.3083C9.85928 54.5582 9.85928 47.8082 9.8327 41.0316C9.85928 40.4204 10.0453 40.0484 10.6831 39.7295ZM52.3791 62.5041C49.2167 60.6439 46.134 58.8634 43.0779 57.0563C43.1044 57.0031 43.131 56.95 43.1576 56.8968C45.9745 56.8968 48.7915 56.9234 51.6084 56.8703C52.193 56.8703 52.4056 57.0031 52.3791 57.6409C52.3259 59.1823 52.3791 60.7502 52.3791 62.5041ZM48.818 49.9874C49.2964 49.9608 49.4558 50.1468 49.4293 50.5986C49.4027 51.5021 49.3761 52.3791 49.4293 53.2827C49.4558 53.8673 49.2167 53.9204 48.7383 53.9204C48.1005 53.8939 47.4893 53.9204 46.8515 53.9204V53.947C46.0543 53.9204 45.0444 54.1596 44.5661 53.761C44.0611 53.3358 44.4332 52.2728 44.4332 51.5021C44.4066 50.0139 44.4332 50.0139 45.9479 50.0139C46.9046 49.9874 47.8613 50.0139 48.818 49.9874ZM41.4037 52.0336C41.4037 53.9204 41.4036 53.8939 39.384 53.9204C36.6467 53.947 36.9922 53.7876 36.9922 51.6882C36.9922 50.0139 36.9922 50.0139 38.7196 50.0139H39.2245C41.4037 49.9874 41.4037 49.9874 41.4037 52.0336ZM54.9834 86.4215C54.9834 85.8634 55.1163 85.704 55.7009 85.704C68.0051 85.7306 80.3358 85.7306 92.64 85.704C93.1449 85.704 93.3044 85.8369 93.3044 86.3684C93.2778 88.1223 93.2512 89.8762 93.3044 91.6302C93.3309 92.3211 93.1449 92.5072 92.454 92.5072C86.3418 92.4806 80.2295 92.4806 74.1173 92.4806C68.0582 92.4806 61.9726 92.4806 55.887 92.5072C55.1429 92.5072 54.9303 92.3477 54.9568 91.6036C55.0366 89.8762 55.01 88.1489 54.9834 86.4215ZM30.0827 75.7916C30.0827 74.0376 29.2058 73.1872 27.4518 73.1872C24.2097 73.1872 20.941 73.1872 17.6989 73.1872C16.0246 73.1872 15.1477 74.0642 15.1477 75.765C15.1477 81.0268 15.1211 86.2886 15.1743 91.577C15.1743 92.2946 15.0414 92.5603 14.2707 92.5072C13.0483 92.4274 11.8258 92.4806 10.5768 92.5072C10.0984 92.5072 9.96558 92.4009 9.96558 91.9225C9.99215 85.704 9.99215 79.4589 9.96558 73.2404C9.96558 72.8418 10.125 72.6557 10.4439 72.4697C17.1408 68.5632 23.8642 64.6301 30.5611 60.697C30.9597 60.4579 31.2255 60.5376 31.5444 60.7502C38.1881 64.6567 44.8318 68.5366 51.4755 72.4165C51.9007 72.6823 52.0336 72.9481 52.0336 73.4264C52.007 79.512 52.007 85.6243 52.0336 91.7099C52.0336 92.3477 51.8742 92.5337 51.2364 92.5337C47.8082 92.5072 44.4066 92.5072 40.9784 92.5072C37.6566 92.5072 34.3347 92.4806 31.0129 92.5337C30.2688 92.5337 30.0827 92.3743 30.0827 91.6302C30.1093 86.3152 30.0827 81.0534 30.0827 75.7916ZM27.1064 91.7896C27.1064 92.3477 26.9735 92.5072 26.3889 92.5072C23.8642 92.4806 21.3396 92.4806 18.815 92.5072C18.2569 92.5072 18.0975 92.3477 18.0975 91.7896C18.1241 89.2916 18.0975 86.8201 18.0975 84.3221C18.0975 81.8506 18.1241 79.3526 18.0975 76.8811C18.0975 76.3231 18.2304 76.1636 18.815 76.1636C21.3396 76.1902 23.8642 76.1902 26.3889 76.1636C26.9469 76.1636 27.1064 76.3231 27.1064 76.8811C27.0798 81.8506 27.0798 86.8201 27.1064 91.7896ZM35.5306 85.8634C37.1251 85.89 38.7196 85.8634 40.3141 85.8634C41.9351 85.8634 43.5562 85.89 45.2039 85.8634C46.9312 85.8369 47.8348 84.9067 47.8348 83.2059C47.8348 80.6548 47.8348 78.1036 47.8348 75.5524C47.8348 74.1173 46.9046 73.1872 45.4696 73.1872C42.0946 73.1872 38.693 73.1872 35.318 73.1872C33.8298 73.1872 32.9263 74.0908 32.8997 75.6055C32.8997 78.1301 32.8997 80.6548 32.8997 83.1528C32.8731 84.9599 33.7501 85.8634 35.5306 85.8634ZM41.8288 78.263C41.8288 76.1636 41.8289 76.1902 43.9283 76.1636C44.6724 76.137 44.885 76.3231 44.8584 77.0672C44.8052 78.7414 44.8318 80.4422 44.8584 82.143C44.8584 82.6479 44.7255 82.8073 44.194 82.8073C41.8554 82.8605 41.8554 82.8871 41.8554 80.5485V78.263H41.8288ZM35.8495 82.2493C35.9026 81.3191 35.8761 80.389 35.8495 79.4589V78.3693C35.8495 75.951 35.8495 75.9776 38.321 76.1636C38.693 76.1902 38.8525 76.2433 38.8525 76.6685C38.8259 78.5553 39.0385 80.4687 38.7727 82.329C38.6133 83.4717 37.3377 82.5416 36.6202 82.7808C36.2747 82.887 35.8229 82.9402 35.8495 82.2493ZM47.8082 75.5524C47.8082 74.1173 46.8781 73.1872 45.443 73.1872C42.068 73.1872 38.6664 73.1872 35.2914 73.1872C33.8032 73.1872 32.8997 74.0908 32.8731 75.6055C32.8731 78.1301 32.8731 80.6548 32.8731 83.1528C32.8731 84.9333 33.7501 85.8369 35.5306 85.8634C37.1251 85.89 38.7196 85.8634 40.3141 85.8634C41.9351 85.8634 43.5562 85.89 45.2039 85.8634C46.9312 85.8369 47.8348 84.9067 47.8348 83.2059C47.8082 80.6548 47.8348 78.1036 47.8082 75.5524ZM38.7727 82.3024C38.6133 83.4451 37.3377 82.515 36.6202 82.7542C36.2747 82.8605 35.8229 82.9136 35.8495 82.2493C35.9026 81.3191 35.8761 80.389 35.8495 79.4589V78.3693C35.8495 75.951 35.8495 75.9776 38.321 76.1636C38.693 76.1902 38.8525 76.2433 38.8525 76.6685C38.8259 78.5553 39.0385 80.4687 38.7727 82.3024ZM44.8318 82.143C44.8318 82.6479 44.6989 82.8073 44.1674 82.8073C41.8288 82.8605 41.8288 82.8871 41.8288 80.5485V78.263C41.8288 76.1636 41.8289 76.1902 43.9283 76.1636C44.6724 76.137 44.885 76.3231 44.8584 77.0672C44.7787 78.7679 44.8052 80.4422 44.8318 82.143ZM47.8082 75.5524C47.8082 74.1173 46.8781 73.1872 45.443 73.1872C42.068 73.1872 38.6664 73.1872 35.2914 73.1872C33.8032 73.1872 32.8997 74.0908 32.8731 75.6055C32.8731 78.1301 32.8731 80.6548 32.8731 83.1528C32.8731 84.9333 33.7501 85.8369 35.5306 85.8634C37.1251 85.89 38.7196 85.8634 40.3141 85.8634C41.9351 85.8634 43.5562 85.89 45.2039 85.8634C46.9312 85.8369 47.8348 84.9067 47.8348 83.2059C47.8082 80.6548 47.8348 78.1036 47.8082 75.5524ZM38.7727 82.3024C38.6133 83.4451 37.3377 82.515 36.6202 82.7542C36.2747 82.8605 35.8229 82.9136 35.8495 82.2493C35.9026 81.3191 35.8761 80.389 35.8495 79.4589V78.3693C35.8495 75.951 35.8495 75.9776 38.321 76.1636C38.693 76.1902 38.8525 76.2433 38.8525 76.6685C38.8259 78.5553 39.0385 80.4687 38.7727 82.3024ZM44.8318 82.143C44.8318 82.6479 44.6989 82.8073 44.1674 82.8073C41.8288 82.8605 41.8288 82.8871 41.8288 80.5485V78.263C41.8288 76.1636 41.8289 76.1902 43.9283 76.1636C44.6724 76.137 44.885 76.3231 44.8584 77.0672C44.7787 78.7679 44.8052 80.4422 44.8318 82.143ZM47.8082 75.5524C47.8082 74.1173 46.8781 73.1872 45.443 73.1872C42.068 73.1872 38.6664 73.1872 35.2914 73.1872C33.8032 73.1872 32.8997 74.0908 32.8731 75.6055C32.8731 78.1301 32.8731 80.6548 32.8731 83.1528C32.8731 84.9333 33.7501 85.8369 35.5306 85.8634C37.1251 85.89 38.7196 85.8634 40.3141 85.8634C41.9351 85.8634 43.5562 85.89 45.2039 85.8634C46.9312 85.8369 47.8348 84.9067 47.8348 83.2059C47.8082 80.6548 47.8348 78.1036 47.8082 75.5524ZM38.7727 82.3024C38.6133 83.4451 37.3377 82.515 36.6202 82.7542C36.2747 82.8605 35.8229 82.9136 35.8495 82.2493C35.9026 81.3191 35.8761 80.389 35.8495 79.4589V78.3693C35.8495 75.951 35.8495 75.9776 38.321 76.1636C38.693 76.1902 38.8525 76.2433 38.8525 76.6685C38.8259 78.5553 39.0385 80.4687 38.7727 82.3024ZM44.8318 82.143C44.8318 82.6479 44.6989 82.8073 44.1674 82.8073C41.8288 82.8605 41.8288 82.8871 41.8288 80.5485V78.263C41.8288 76.1636 41.8289 76.1902 43.9283 76.1636C44.6724 76.137 44.885 76.3231 44.8584 77.0672C44.7787 78.7679 44.8052 80.4422 44.8318 82.143ZM47.8082 75.5524C47.8082 74.1173 46.8781 73.1872 45.443 73.1872C42.068 73.1872 38.6664 73.1872 35.2914 73.1872C33.8032 73.1872 32.8997 74.0908 32.8731 75.6055C32.8731 78.1301 32.8731 80.6548 32.8731 83.1528C32.8731 84.9333 33.7501 85.8369 35.5306 85.8634C37.1251 85.89 38.7196 85.8634 40.3141 85.8634C41.9351 85.8634 43.5562 85.89 45.2039 85.8634C46.9312 85.8369 47.8348 84.9067 47.8348 83.2059C47.8082 80.6548 47.8348 78.1036 47.8082 75.5524ZM38.7727 82.3024C38.6133 83.4451 37.3377 82.515 36.6202 82.7542C36.2747 82.8605 35.8229 82.9136 35.8495 82.2493C35.9026 81.3191 35.8761 80.389 35.8495 79.4589V78.3693C35.8495 75.951 35.8495 75.9776 38.321 76.1636C38.693 76.1902 38.8525 76.2433 38.8525 76.6685C38.8259 78.5553 39.0385 80.4687 38.7727 82.3024ZM44.8318 82.143C44.8318 82.6479 44.6989 82.8073 44.1674 82.8073C41.8288 82.8605 41.8288 82.8871 41.8288 80.5485V78.263C41.8288 76.1636 41.8289 76.1902 43.9283 76.1636C44.6724 76.137 44.885 76.3231 44.8584 77.0672C44.7787 78.7679 44.8052 80.4422 44.8318 82.143ZM47.8082 75.5524C47.8082 74.1173 46.8781 73.1872 45.443 73.1872C42.068 73.1872 38.6664 73.1872 35.2914 73.1872C33.8032 73.1872 32.8997 74.0908 32.8731 75.6055C32.8731 78.1301 32.8731 80.6548 32.8731 83.1528C32.8731 84.9333 33.7501 85.8369 35.5306 85.8634C37.1251 85.89 38.7196 85.8634 40.3141 85.8634C41.9351 85.8634 43.5562 85.89 45.2039 85.8634C46.9312 85.8369 47.8348 84.9067 47.8348 83.2059C47.8082 80.6548 47.8348 78.1036 47.8082 75.5524ZM38.7727 82.3024C38.6133 83.4451 37.3377 82.515 36.6202 82.7542C36.2747 82.8605 35.8229 82.9136 35.8495 82.2493C35.9026 81.3191 35.8761 80.389 35.8495 79.4589V78.3693C35.8495 75.951 35.8495 75.9776 38.321 76.1636C38.693 76.1902 38.8525 76.2433 38.8525 76.6685C38.8259 78.5553 39.0385 80.4687 38.7727 82.3024ZM44.8318 82.143C44.8318 82.6479 44.6989 82.8073 44.1674 82.8073C41.8288 82.8605 41.8288 82.8871 41.8288 80.5485V78.263C41.8288 76.1636 41.8289 76.1902 43.9283 76.1636C44.6724 76.137 44.885 76.3231 44.8584 77.0672C44.7787 78.7679 44.8052 80.4422 44.8318 82.143ZM47.8082 75.5524C47.8082 74.1173 46.8781 73.1872 45.443 73.1872C42.068 73.1872 38.6664 73.1872 35.2914 73.1872C33.8032 73.1872 32.8997 74.0908 32.8731 75.6055C32.8731 78.1301 32.8731 80.6548 32.8731 83.1528C32.8731 84.9333 33.7501 85.8369 35.5306 85.8634C37.1251 85.89 38.7196 85.8634 40.3141 85.8634C41.9351 85.8634 43.5562 85.89 45.2039 85.8634C46.9312 85.8369 47.8348 84.9067 47.8348 83.2059C47.8082 80.6548 47.8348 78.1036 47.8082 75.5524ZM38.7727 82.3024C38.6133 83.4451 37.3377 82.515 36.6202 82.7542C36.2747 82.8605 35.8229 82.9136 35.8495 82.2493C35.9026 81.3191 35.8761 80.389 35.8495 79.4589V78.3693C35.8495 75.951 35.8495 75.9776 38.321 76.1636C38.693 76.1902 38.8525 76.2433 38.8525 76.6685C38.8259 78.5553 39.0385 80.4687 38.7727 82.3024ZM44.8318 82.143C44.8318 82.6479 44.6989 82.8073 44.1674 82.8073C41.8288 82.8605 41.8288 82.8871 41.8288 80.5485V78.263C41.8288 76.1636 41.8289 76.1902 43.9283 76.1636C44.6724 76.137 44.885 76.3231 44.8584 77.0672C44.7787 78.7679 44.8052 80.4422 44.8318 82.143Z" fill="white"/>
<path d="M71.8849 19.1339C71.3003 15.7058 67.9784 13.0749 64.4971 13.4203C63.7265 13.5001 63.4607 13.2343 63.0887 12.6762C61.2019 9.83274 58.4912 8.63687 55.1428 9.06207C54.2392 9.16837 54.1329 8.90262 53.9735 8.21167C53.0965 4.30516 50.6516 1.78055 46.9046 0.451809C46.4262 0.29236 45.8682 0.318935 45.4164 0.0266113H42.2274C42.1477 0.0797611 42.0679 0.159485 41.9882 0.18606C38.1083 0.930157 35.4242 3.18902 33.9892 6.82978C33.75 7.46757 33.378 7.36128 32.9262 7.36128C29.0463 7.30813 26.2559 9.06207 24.5817 12.4902C24.2628 13.1546 23.9173 13.3938 23.2529 13.5266C20.3828 14.0581 18.5758 15.7589 17.6722 18.5227C17.0344 20.5158 18.3366 21.7649 20.0374 21.7383C26.3888 21.6586 32.7136 21.7117 39.065 21.7117C49.2166 21.7117 59.3948 21.7117 69.5464 21.7117C71.194 21.7117 72.1507 20.6221 71.8849 19.1339ZM44.3268 3.02957C48.4193 3.45477 51.2629 6.5906 51.2363 10.6034C51.2363 10.7363 51.2363 10.8692 51.2363 11.002C51.2097 12.8888 52.2195 13.5001 53.8672 12.6231C54.9036 12.065 56.0198 11.7993 57.2156 12.0385C59.1822 12.4371 60.4578 13.5798 61.1221 15.44C61.6536 16.8751 62.1851 17.1674 63.5936 16.6625C65.2412 16.0513 67.7393 16.6359 68.4568 18.6556H20.9675C21.5787 17.1674 22.934 16.3702 24.688 16.4499C26.2559 16.5296 26.5482 16.317 26.9734 14.7757C27.8504 11.5867 30.7736 9.83274 34.0158 10.5237C35.69 10.8957 36.1418 10.6034 36.5138 8.95577C37.2845 5.31501 40.7924 2.65752 44.3268 3.02957Z" fill="white"/>
<path d="M47.8081 75.5523C47.8081 74.1173 46.878 73.1871 45.443 73.1871C42.0679 73.1871 38.6664 73.1871 35.2914 73.1871C33.8032 73.1871 32.8996 74.0907 32.873 75.6054C32.873 78.1301 32.873 80.6547 32.873 83.1527C32.873 84.9332 33.75 85.8368 35.5305 85.8633C37.125 85.8899 38.7195 85.8633 40.314 85.8633C41.9351 85.8633 43.5562 85.8899 45.2038 85.8633C46.9312 85.8368 47.8347 84.9066 47.8347 83.2059C47.8081 80.6547 47.8347 78.1035 47.8081 75.5523ZM38.7727 82.3023C38.6132 83.445 37.3376 82.5149 36.6201 82.7541C36.2746 82.8604 35.8229 82.9135 35.8494 82.2492C35.9026 81.319 35.876 80.3889 35.8494 79.4588V78.3692C35.8494 75.9509 35.8494 75.9775 38.3209 76.1635C38.6929 76.1901 38.8524 76.2432 38.8524 76.6684C38.8258 78.5553 39.0384 80.4686 38.7727 82.3023ZM44.8317 82.1429C44.8317 82.6478 44.6989 82.8072 44.1674 82.8072C41.8288 82.8604 41.8288 82.887 41.8288 80.5484V78.2629C41.8288 76.1635 41.8288 76.1901 43.9282 76.1635C44.6723 76.1369 44.8849 76.323 44.8583 77.0671C44.7786 78.7679 44.8052 80.4421 44.8317 82.1429Z" fill="white"/>
<path d="M21.9509 37.4174C18.4962 37.3908 15.5995 40.2344 15.5729 43.6625C15.5464 47.1172 18.4165 49.9608 21.8712 49.9608C25.3791 49.9608 28.2226 47.1438 28.196 43.6891C28.196 40.2875 25.3525 37.444 21.9509 37.4174ZM21.8978 46.9578C20.0641 46.9578 18.6556 45.5228 18.6556 43.6891C18.6556 41.882 20.0641 40.4735 21.8712 40.4735C23.7049 40.4735 25.1133 41.9086 25.1133 43.7688C25.1133 45.5493 23.7048 46.9578 21.8978 46.9578Z" fill="white"/>
<path d="M47.8081 75.5523C47.8081 74.1173 46.878 73.1871 45.443 73.1871C42.0679 73.1871 38.6664 73.1871 35.2914 73.1871C33.8032 73.1871 32.8996 74.0907 32.873 75.6054C32.873 78.1301 32.873 80.6547 32.873 83.1527C32.873 84.9332 33.75 85.8368 35.5305 85.8633C37.125 85.8899 38.7195 85.8633 40.314 85.8633C41.9351 85.8633 43.5562 85.8899 45.2038 85.8633C46.9312 85.8368 47.8347 84.9066 47.8347 83.2059C47.8081 80.6547 47.8347 78.1035 47.8081 75.5523ZM38.7727 82.3023C38.6132 83.445 37.3376 82.5149 36.6201 82.7541C36.2746 82.8604 35.8229 82.9135 35.8494 82.2492C35.9026 81.319 35.876 80.3889 35.8494 79.4588V78.3692C35.8494 75.9509 35.8494 75.9775 38.3209 76.1635C38.6929 76.1901 38.8524 76.2432 38.8524 76.6684C38.8258 78.5553 39.0384 80.4686 38.7727 82.3023ZM44.8317 82.1429C44.8317 82.6478 44.6989 82.8072 44.1674 82.8072C41.8288 82.8604 41.8288 82.887 41.8288 80.5484V78.2629C41.8288 76.1635 41.8288 76.1901 43.9282 76.1635C44.6723 76.1369 44.8849 76.323 44.8583 77.0671C44.7786 78.7679 44.8052 80.4421 44.8317 82.1429Z" fill="white"/>
<path d="M21.9509 37.4174C18.4962 37.3908 15.5995 40.2344 15.5729 43.6625C15.5464 47.1172 18.4165 49.9608 21.8712 49.9608C25.3791 49.9608 28.2226 47.1438 28.196 43.6891C28.196 40.2875 25.3525 37.444 21.9509 37.4174ZM21.8978 46.9578C20.0641 46.9578 18.6556 45.5228 18.6556 43.6891C18.6556 41.882 20.0641 40.4735 21.8712 40.4735C23.7049 40.4735 25.1133 41.9086 25.1133 43.7688C25.1133 45.5493 23.7048 46.9578 21.8978 46.9578Z" fill="white"/>
</svg>
