<svg xmlns="http://www.w3.org/2000/svg" viewBox="0 0 383.18 185.6"><defs><style>.cls-1{fill:#fff;}</style></defs><g id="Capa_2" data-name="Capa 2"><g id="Capa_1-2" data-name="Capa 1"><path class="cls-1" d="M18.24,107.76c-10.5,0-14.14-2.39-18.24-12,1.72,0,1.74,1.57,2.24,2.6,2.52,5.22,6.74,7.83,12.43,8.24,1.74.13,3.49.07,5.23.07q152.09,0,304.15,0c2.33,0,5.66-1.17,6.91,1Z"/><path class="cls-1" d="M0,89.8c4.08-9.57,7.73-12,18.24-12H331c-1.09,1.92-3.89,1-5.89,1q-152.44.08-304.89,0c-1.74,0-3.49,0-5.24,0-5.83.32-10.19,2.91-12.79,8.28C1.74,88.24,1.71,89.78,0,89.8Z"/><path class="cls-1" d="M377.67,104.44q-38.16,38-76.38,76c-6.73,6.68-15.82,6.91-21.94.71s-5.75-15.28.94-22q24-23.91,48-47.77a30.29,30.29,0,0,1,3.05-2.42c0,2-2.7,3.45-4.2,5-15.56,15.65-31.25,31.18-46.76,46.88a13.72,13.72,0,0,0,5.19,22.84c4.6,1.64,8.83.77,12.71-2.1a19.09,19.09,0,0,0,2.2-2c24.54-24.83,50-48.71,74.43-73.68a43.26,43.26,0,0,0,4.06-4.39,14,14,0,0,0,0-17.36,38,38,0,0,0-3.8-4.13c-13-13-25.83-26.37-39.22-39.07C323.7,29.33,312,17.25,299.92,5.53c-6.12-5.95-14.15-5.88-20,0-5.14,5.23-4.91,13.88.67,19.5,15.74,15.82,31.56,31.56,47.31,47.38,1.45,1.45,4.09,2.92,3.28,5a.31.31,0,0,1-.05.1c-.42-1.35-1.57-2-2.38-2.8q-24.5-24.45-49-48.83c-4.28-4.26-5.72-9.39-4.14-15.07A14.16,14.16,0,0,1,286.74.39c5.73-1.29,10.46.67,14.55,4.75q27.29,27.21,54.64,54.34,10.88,10.82,21.73,21.65C385,88.49,385,97.09,377.67,104.44Z"/><path class="cls-1" d="M377.67,104.44q-38.16,38-76.38,76c-6.73,6.68-15.82,6.91-21.94.71s-5.75-15.28.94-22q24-23.91,48-47.77a30.29,30.29,0,0,1,3.05-2.42l.37-.28-.53-.94H18.24c-10.5,0-14.14-2.39-18.24-12v-6c4.08-9.57,7.73-12,18.24-12h313a2.68,2.68,0,0,0-.07-.27h0c-.42-1.35-1.57-2-2.38-2.8q-24.5-24.45-49-48.83c-4.28-4.26-5.72-9.39-4.14-15.07A14.16,14.16,0,0,1,286.74.39c5.73-1.29,10.46.67,14.55,4.75q27.29,27.21,54.64,54.34,10.88,10.82,21.73,21.65C385,88.49,385,97.09,377.67,104.44Z"/></g></g></svg>