<svg xmlns="http://www.w3.org/2000/svg" viewBox="0 0 383.18 185.6"><defs><style>.cls-1{fill:#fff;}</style></defs><g id="Capa_2" data-name="Capa 2"><g id="Capa_1-2" data-name="Capa 1"><path class="cls-1" d="M365,77.84c10.5,0,14.14,2.39,18.23,12-1.71,0-1.73-1.57-2.23-2.6C378.43,82,374.2,79.38,368.52,79c-1.75-.13-3.5-.07-5.23-.07q-152.1,0-304.15-.05c-2.33,0-5.67,1.17-6.92-1Z"/><path class="cls-1" d="M383.18,95.8c-4.08,9.57-7.73,12-18.23,12H52.14c1.1-1.92,3.9-1,5.9-1q152.43-.07,304.89,0c1.73,0,3.48.05,5.23,0,5.84-.32,10.19-2.91,12.79-8.28C381.45,97.36,381.47,95.82,383.18,95.8Z"/><path class="cls-1" d="M5.52,81.16q38.14-38,76.37-76c6.73-6.68,15.83-6.91,22-.71s5.75,15.28-1,22q-24,23.91-48,47.77a30.42,30.42,0,0,1-3.06,2.42c0-2,2.71-3.45,4.21-5C71.62,56,87.31,40.48,102.81,24.78A13.72,13.72,0,0,0,97.62,1.94C93,.3,88.8,1.17,84.91,4a19,19,0,0,0-2.19,2c-24.54,24.83-50,48.71-74.43,73.68a44.54,44.54,0,0,0-4.07,4.39,14,14,0,0,0,0,17.36A36.12,36.12,0,0,0,8,105.62c13,13,25.83,26.37,39.22,39.07,12.23,11.58,23.94,23.66,36,35.38,6.12,6,14.14,5.88,20,0,5.15-5.23,4.92-13.88-.66-19.5C86.81,144.71,71,129,55.25,113.15c-1.45-1.45-4.09-2.92-3.28-5a.19.19,0,0,1,.05-.1c.41,1.35,1.57,2,2.37,2.8q24.49,24.45,49,48.83c4.29,4.26,5.73,9.39,4.15,15.07a14.19,14.19,0,0,1-11.13,10.46c-5.73,1.29-10.46-.67-14.56-4.75q-27.28-27.21-54.63-54.34Q16.39,115.31,5.52,104.47C-1.82,97.11-1.86,88.51,5.52,81.16Z"/><path class="cls-1" d="M5.52,81.16q38.14-38,76.37-76c6.73-6.68,15.83-6.91,22-.71s5.75,15.28-1,22q-24,23.91-48,47.77a30.42,30.42,0,0,1-3.06,2.42c-.13.09-.25.19-.36.28l.53.94H365c10.5,0,14.14,2.39,18.23,12v6c-4.08,9.57-7.73,12-18.23,12H52A2.68,2.68,0,0,0,52,108h0c.41,1.35,1.57,2,2.37,2.8q24.49,24.45,49,48.83c4.29,4.26,5.73,9.39,4.15,15.07a14.19,14.19,0,0,1-11.13,10.46c-5.73,1.29-10.46-.67-14.56-4.75q-27.28-27.21-54.63-54.34Q16.39,115.31,5.52,104.47C-1.82,97.11-1.86,88.51,5.52,81.16Z"/></g></g></svg>