<?xml version="1.0" encoding="utf-8"?>
<!-- Generator: Adobe Illustrator 27.2.0, SVG Export Plug-In . SVG Version: 6.00 Build 0)  -->
<svg version="1.1" id="Capa_1" xmlns="http://www.w3.org/2000/svg" xmlns:xlink="http://www.w3.org/1999/xlink" x="0px" y="0px"
	 viewBox="0 0 1082.24 363.81" style="enable-background:new 0 0 1082.24 363.81;" xml:space="preserve">
<style type="text/css">
	.st0{fill:#FFFFFF;}
</style>
<g>
	<g>
		<path class="st0" d="M757.11,71.74c3.09-7.89,6.7-14.61,11.98-20.32c10.73-11.62,24.26-17.87,39.71-19.54
			c15.81-1.71,31.33-0.06,45.57,7.81c11.86,6.55,19.61,16.49,23.58,29.47c2.35,7.69,3.26,15.5,3.24,23.5
			c-0.05,26.48-0.06,52.96,0.05,79.44c0.01,3.05-0.75,4.19-3.99,4.11c-9.08-0.21-18.18-0.2-27.26-0.01
			c-3.26,0.07-4.25-0.9-4.24-4.21c0.11-25.91,0.09-51.82-0.01-77.73c-0.03-8.82-2.25-17.09-7.68-24.21
			c-7.16-9.39-17.31-12.39-28.5-12.62c-15.88-0.32-30.04,4.27-41.24,15.96c-3.18,3.32-5.67,7.32-8.38,11.07
			c-1.63,2.25-1.61,4.71-1.09,7.44c0.63,3.32,0.77,6.77,0.78,10.16c0.06,23.3-0.03,46.6,0.1,69.89c0.02,3.29-0.96,4.32-4.24,4.25
			c-9.08-0.19-18.18-0.2-27.26,0.01c-3.21,0.07-4.02-1-4.01-4.08c0.09-25.46,0.1-50.91-0.01-76.37c-0.04-8.39-1.82-16.42-6.48-23.62
			c-5-7.72-12.29-12.14-21.07-13.67c-13.26-2.31-26.27-1.07-38.52,4.95c-8.11,3.98-14.77,9.75-19.4,17.55
			c-0.96,1.61-0.99,3.93-0.99,5.93c-0.06,27.96-0.04,55.91-0.04,83.87c0,5.36-0.01,5.37-5.51,5.37c-8.63,0-17.27-0.09-25.9,0.05
			c-2.75,0.05-3.49-0.94-3.49-3.56c0.06-45.34,0.06-90.69,0-136.03c0-2.52,0.56-3.68,3.39-3.62c8.06,0.17,16.13,0.13,24.2,0.02
			c2.36-0.03,3.15,0.82,3.28,3.12c0.44,7.94,1.02,15.87,1.66,23.8c0.13,1.56,0.76,3.08,1.16,4.61c0.34,0.04,0.68,0.07,1.02,0.11
			c0.81-1.14,1.71-2.23,2.43-3.43c9.36-15.75,22.97-25.3,41.06-28.49c16.53-2.92,32.61-1.55,47.92,5.48
			c12.67,5.81,21.21,15.62,25.91,28.77C755.34,68.41,756.14,69.74,757.11,71.74z"/>
		<path class="st0" d="M1048.43,69.16c-0.24-2.46-0.61-4.91-0.7-7.37c-0.36-8.83-0.68-17.66-0.82-26.49
			c-0.01-0.73,1.47-2.11,2.28-2.12c10.22-0.15,20.45-0.16,30.68-0.02c0.76,0.01,1.74,1.31,2.19,2.22c0.36,0.73,0.1,1.78,0.1,2.69
			c0,44.33,0,88.66,0,132.99c0,5.07-0.01,5.08-5.02,5.08c-8.64,0-17.27-0.07-25.91,0.04c-2.5,0.03-3.45-0.81-3.36-3.34
			c0.32-9.3,0.53-18.61,0.72-27.92c0.02-0.84-0.35-1.69-0.54-2.54c-0.31-0.04-0.62-0.09-0.93-0.13c-1.25,1.94-2.5,3.89-3.77,5.83
			c-10.58,16.12-25.61,25.12-44.48,28.33c-15.06,2.57-29.96,1.89-44.54-2.22c-21.23-5.99-36.24-19.05-43.12-40.52
			c-5.77-18.03-5.95-36.32-1.1-54.42c5.78-21.57,19.59-36.13,40.95-43.16c17.01-5.59,34.4-6.4,51.78-2.59
			c20.05,4.39,34.6,16.2,43.61,34.73c0.18,0.38,0.49,0.7,0.73,1.05C1047.59,69.25,1048.01,69.21,1048.43,69.16z M1047.04,104.89
			c0-7.04,0.15-14.09-0.1-21.12c-0.07-1.99-0.91-4.23-2.09-5.86c-6.91-9.57-16.81-14.86-27.9-17.56
			c-14.69-3.57-29.63-4.5-44.43-0.35c-11.7,3.27-20.71,10.09-25.78,21.39c-5.08,11.33-5.73,23.11-3.6,35.3
			c3.66,20.97,17.72,31.22,35.21,33.97c14.6,2.29,29.21,1.48,43.38-3.2c9.33-3.08,17.56-7.96,23.3-16.21
			c1.09-1.56,1.86-3.68,1.92-5.57C1047.18,118.75,1047.04,111.82,1047.04,104.89z"/>
		<path class="st0" d="M539.02,69.18c0.06-1.1,0.39-2.26,0.15-3.29c-2.25-9.76-1.24-19.67-1.52-29.52
			c-0.07-2.59,1.01-3.36,3.42-3.35c9.65,0.06,19.31,0.08,28.96-0.01c2.5-0.03,3.09,1.08,3.05,3.31c-0.09,5.11-0.02,10.23-0.02,15.34
			c0,39.88,0,79.76,0,119.65c0,4.84-0.01,4.85-4.9,4.85c-8.63,0-17.27-0.09-25.9,0.05c-2.73,0.05-3.58-0.89-3.49-3.54
			c0.35-9.3,0.55-18.6,0.75-27.91c0.01-0.68-0.42-1.38-0.65-2.06c-0.66,0.45-1.47,0.77-1.96,1.37c-4.82,5.82-9.08,12.22-14.5,17.42
			c-8.9,8.54-20.11,12.71-32.2,14.91c-12.95,2.35-25.85,1.98-38.6-0.58c-22.95-4.62-40.23-16.89-48.65-39.39
			c-4.91-13.12-6.15-26.92-4.76-40.92c0.99-9.88,2.92-19.49,7.41-28.46c7.66-15.28,19.77-25.4,35.88-30.77
			c16.86-5.62,34.11-6.5,51.42-2.92c20.12,4.15,34.78,15.78,44.13,34.09c0.33,0.65,0.78,1.25,1.17,1.87
			C538.48,69.25,538.75,69.21,539.02,69.18z M538.02,104.76c0-6.93,0.15-13.86-0.09-20.78c-0.07-2-0.85-4.25-2.01-5.89
			c-6.84-9.63-16.74-14.95-27.82-17.69c-14.91-3.68-30.1-4.6-45.1-0.3c-11.4,3.27-20.26,10.05-25.25,21.09
			c-5.16,11.42-5.83,23.32-3.65,35.62c3.68,20.74,17.54,31.02,34.98,33.81c14.71,2.36,29.44,1.53,43.71-3.22
			c9.32-3.1,17.55-7.99,23.24-16.28c1.08-1.57,1.83-3.69,1.89-5.58C538.16,118.62,538.03,111.69,538.02,104.76z"/>
	</g>
	<path class="st0" d="M390.88,34h-92.77l0.04,0.02c-0.35,0-0.69-0.02-1.03-0.02c-41.39,0-74.94,26.39-74.94,58.95
		c0,25.57,20.71,47.34,49.65,55.5c-9.01,0.85-21.64,2.68-30.99,6.62c-6.58,2.77-10.74,9.36-10.74,16.5v5.38
		c0,12.58,10.2,22.78,22.78,22.78h71.8c10.94,0,19.81,8.87,19.81,19.81h36.15v-3.58c0-23.73-19.24-42.97-42.97-42.97h-62.34
		c0,0-11.55,1.21-13.1-5.61c-1.3-5.78,2.64-14.09,28.09-15.73c2.24,0.16,4.5,0.25,6.79,0.25c41.39,0,74.94-26.39,74.94-58.95
		c0-15.58-7.7-29.74-20.25-40.28l39.07,8.07V34z M297.12,126.11c-23.7,0-42.92-14.63-42.92-32.68c0-18.05,19.21-32.68,42.92-32.68
		s42.92,14.63,42.92,32.68C340.04,111.48,320.82,126.11,297.12,126.11z"/>
	<path class="st0" d="M126.77,0H81.54L0,173.65h37.97l19.81-42.26h93.1l18.82,42.26h39.29L126.77,0z M69,104.65l35.49-73.62
		l34.5,73.62H69z"/>
	<g>
		<path class="st0" d="M759.16,244.63c0.29-0.78,0.45-1.59,0.48-2.45c0-1.42-0.23-2.63-0.68-3.64c-0.46-1.01-1.08-1.83-1.89-2.47
			c-0.8-0.64-1.77-1.12-2.89-1.43c-1.13-0.31-2.36-0.46-3.7-0.46h-26.36v28.13h26.36c1.29,0,2.49-0.15,3.6-0.44
			c1.11-0.29,2.08-0.76,2.89-1.39c0.82-0.63,1.47-1.43,1.95-2.41c0.48-0.98,0.72-2.16,0.72-3.56c-0.03-0.8-0.19-1.59-0.48-2.37
			c-0.24-0.67-0.63-1.36-1.17-2.07c-0.54-0.71-1.31-1.31-2.33-1.79c1.02-0.43,1.79-0.98,2.33-1.65
			C758.53,245.97,758.92,245.3,759.16,244.63z M752.45,255.16c-0.27,0.38-0.58,0.66-0.92,0.84c-0.35,0.19-0.69,0.31-1.03,0.36
			c-0.33,0.05-0.58,0.08-0.74,0.08h-18.57v-5.59h18.57c0.21,0,0.49,0.03,0.84,0.08c0.35,0.05,0.69,0.17,1.02,0.36
			c0.33,0.19,0.62,0.47,0.86,0.84c0.24,0.38,0.36,0.89,0.36,1.53C752.85,254.29,752.72,254.79,752.45,255.16z M752.45,244.31
			c-0.27,0.38-0.58,0.66-0.92,0.86c-0.35,0.2-0.69,0.33-1.03,0.38c-0.33,0.05-0.58,0.08-0.74,0.08h-18.57v-5.59h18.57
			c0.21,0,0.49,0.03,0.84,0.08c0.35,0.05,0.69,0.17,1.02,0.34c0.33,0.18,0.62,0.45,0.86,0.82c0.24,0.38,0.36,0.88,0.36,1.53
			C752.85,243.44,752.72,243.94,752.45,244.31z"/>
		<polygon class="st0" points="774.55,250.78 798.14,250.78 798.14,245.32 774.55,245.32 774.55,240.25 801.35,240.25 
			801.35,234.19 767.48,234.19 767.48,262.32 802.4,262.32 802.4,256.25 774.55,256.25 		"/>
		<path class="st0" d="M823.78,234.19l-16.15,28.13h7.51l3.26-5.63h19.81l3.26,5.63h7.51l-16.15-28.13H823.78z M821.89,250.62
			l6.43-11.17l6.43,11.17H821.89z"/>
		<path class="st0" d="M882.89,253.76c-0.7,0.64-1.53,1.21-2.49,1.69c-0.96,0.48-2.06,0.86-3.3,1.15s-2.57,0.42-4.02,0.42
			c-1.98,0-3.72-0.24-5.2-0.72c-1.49-0.48-2.72-1.13-3.7-1.93c-0.98-0.8-1.71-1.73-2.21-2.79c-0.5-1.06-0.74-2.16-0.74-3.32
			c0-1.18,0.25-2.3,0.74-3.36c0.49-1.06,1.23-1.99,2.21-2.79c0.98-0.8,2.21-1.44,3.7-1.91c1.49-0.47,3.22-0.7,5.2-0.7
			c1.37,0,2.64,0.13,3.84,0.38c1.19,0.26,2.26,0.6,3.21,1.03c0.95,0.43,1.77,0.94,2.45,1.53c0.68,0.59,1.23,1.22,1.63,1.89
			l6.35-3.21c-0.72-1.13-1.63-2.16-2.73-3.12c-1.1-0.95-2.37-1.78-3.82-2.49c-1.45-0.71-3.06-1.26-4.84-1.65
			c-1.78-0.39-3.72-0.58-5.81-0.58c-3.08,0-5.83,0.4-8.26,1.21c-2.42,0.8-4.47,1.89-6.15,3.26c-1.67,1.37-2.95,2.95-3.84,4.76
			c-0.88,1.81-1.33,3.73-1.33,5.77c0,2.04,0.44,3.96,1.33,5.77s2.16,3.4,3.84,4.76s3.72,2.45,6.15,3.26
			c2.42,0.8,5.18,1.21,8.26,1.21c2.17,0,4.17-0.21,5.99-0.62c1.82-0.42,3.47-1,4.94-1.75c1.47-0.75,2.76-1.63,3.86-2.63
			c1.1-1.01,2-2.11,2.69-3.32l-6.39-3.21C884.11,252.43,883.58,253.11,882.89,253.76z"/>
		<polygon class="st0" points="905.15,250.74 925.48,250.74 925.48,262.32 932.56,262.32 932.56,234.19 925.48,234.19 
			925.48,244.67 905.15,244.67 905.15,234.19 898.08,234.19 898.08,262.32 905.15,262.32 		"/>
		<path class="st0" d="M754.04,295.87c-0.9-0.64-1.98-1.14-3.26-1.49s-2.71-0.56-4.32-0.64c-3.19-0.13-5.95-0.25-8.28-0.36
			s-4.14-0.19-5.42-0.24c-1.15-0.05-2.02-0.25-2.61-0.6c-0.59-0.35-0.88-0.87-0.88-1.57c0-0.54,0.29-1.02,0.86-1.45
			c0.58-0.43,1.37-0.79,2.39-1.08c1.02-0.3,2.22-0.52,3.6-0.66c1.38-0.15,2.87-0.22,4.48-0.22c1.07,0,2.19,0.07,3.36,0.2
			c1.17,0.13,2.32,0.32,3.46,0.56c1.14,0.24,2.23,0.52,3.28,0.84c1.04,0.32,1.98,0.66,2.81,1.01l2.13-5.55
			c-1.69-0.78-3.42-1.37-5.2-1.77c-1.78-0.4-3.4-0.71-4.84-0.92c-1.69-0.24-3.35-0.36-4.98-0.36c-2.76,0-5.26,0.24-7.5,0.72
			c-2.24,0.48-4.14,1.15-5.71,1.99c-1.57,0.84-2.77,1.83-3.62,2.97c-0.84,1.14-1.27,2.35-1.27,3.64c0,1.29,0.27,2.4,0.8,3.36
			c0.54,0.95,1.28,1.76,2.23,2.41c0.95,0.66,2.08,1.16,3.38,1.51c1.3,0.35,2.72,0.56,4.28,0.64c1.55,0.08,3.05,0.15,4.5,0.2
			c1.45,0.05,2.76,0.11,3.94,0.16c1.18,0.05,2.18,0.1,2.99,0.14s1.37,0.07,1.67,0.1c1.29,0.05,2.24,0.26,2.85,0.6
			c0.62,0.35,0.92,0.9,0.92,1.65c0,1.18-0.98,2.13-2.95,2.85c-1.97,0.72-4.96,1.09-8.98,1.09c-1.31-0.03-2.68-0.15-4.1-0.36
			c-1.2-0.19-2.55-0.49-4.04-0.9c-1.49-0.42-2.97-1-4.44-1.75l-2.45,5.63c1.66,0.86,3.38,1.51,5.14,1.97c1.77,0.45,3.39,0.79,4.86,1
			c1.71,0.27,3.39,0.4,5.02,0.4c3.19,0,5.95-0.26,8.28-0.78c2.33-0.52,4.27-1.25,5.83-2.17c1.55-0.92,2.7-2,3.46-3.24
			c0.75-1.23,1.13-2.54,1.13-3.94c0-1.21-0.24-2.28-0.72-3.21S754.93,296.51,754.04,295.87z"/>
		<polygon class="st0" points="765.67,288.48 778.33,288.48 778.33,310.54 785.36,310.54 785.36,288.48 798.02,288.48 
			798.02,282.41 765.67,282.41 		"/>
		<path class="st0" d="M834.26,296.47c0,1.21-0.19,2.35-0.58,3.44c-0.39,1.09-0.98,2.04-1.77,2.87c-0.79,0.83-1.79,1.49-2.99,1.97
			c-1.2,0.48-2.64,0.72-4.3,0.72c-1.66,0-3.1-0.24-4.32-0.72c-1.22-0.48-2.22-1.14-3.01-1.97c-0.79-0.83-1.38-1.79-1.77-2.87
			c-0.39-1.08-0.58-2.23-0.58-3.44v-14.06h-7.07v14.06c0,2.04,0.39,3.96,1.17,5.77c0.78,1.81,1.9,3.4,3.36,4.76
			c1.46,1.37,3.22,2.45,5.28,3.26c2.06,0.8,4.38,1.21,6.95,1.21c2.57,0,4.89-0.4,6.95-1.21c2.06-0.8,3.82-1.89,5.26-3.26
			c1.45-1.37,2.56-2.95,3.33-4.76c0.78-1.81,1.17-3.73,1.17-5.77v-14.06h-7.07V296.47z"/>
		<path class="st0" d="M884.96,286.53c-1.51-1.27-3.37-2.28-5.56-3.01c-2.2-0.74-4.72-1.1-7.55-1.1h-19.45v28.13h19.45
			c2.84,0,5.36-0.37,7.55-1.1c2.2-0.74,4.05-1.74,5.56-3.01c1.51-1.27,2.67-2.77,3.46-4.48s1.19-3.54,1.19-5.47
			c0-1.93-0.4-3.75-1.19-5.47C887.62,289.29,886.47,287.8,884.96,286.53z M881.54,299.67c-0.42,1-1.06,1.88-1.93,2.61
			c-0.87,0.74-1.96,1.32-3.28,1.75c-1.31,0.43-2.87,0.64-4.66,0.64h-12.22v-16.4h12.22c1.8,0,3.35,0.21,4.66,0.64
			c1.31,0.43,2.4,1.01,3.28,1.75c0.87,0.74,1.51,1.61,1.93,2.61c0.42,1.01,0.62,2.07,0.62,3.19
			C882.17,297.6,881.96,298.66,881.54,299.67z"/>
		<path class="st0" d="M964.8,285.95c-1.62-1.37-3.6-2.45-5.93-3.26c-2.33-0.8-4.97-1.21-7.92-1.21s-5.59,0.4-7.92,1.21
			c-2.33,0.8-4.31,1.89-5.93,3.26c-1.62,1.37-2.86,2.95-3.72,4.76c-0.86,1.81-1.29,3.73-1.29,5.77c0,2.04,0.43,3.96,1.29,5.77
			c0.86,1.81,2.1,3.4,3.72,4.76c1.62,1.37,3.6,2.45,5.93,3.26c2.33,0.8,4.97,1.21,7.92,1.21s5.59-0.4,7.92-1.21
			c2.33-0.8,4.31-1.89,5.93-3.26c1.62-1.37,2.86-2.95,3.72-4.76c0.86-1.81,1.29-3.73,1.29-5.77c0-2.04-0.43-3.96-1.29-5.77
			C967.66,288.9,966.42,287.31,964.8,285.95z M961.67,299.91c-0.47,1.09-1.18,2.04-2.13,2.87c-0.95,0.83-2.14,1.49-3.58,1.97
			c-1.43,0.48-3.1,0.72-5,0.72c-1.9,0-3.57-0.24-5-0.72c-1.43-0.48-2.63-1.14-3.58-1.97c-0.95-0.83-1.66-1.79-2.13-2.87
			c-0.47-1.08-0.7-2.23-0.7-3.44c0-1.2,0.23-2.35,0.7-3.44c0.47-1.08,1.18-2.04,2.13-2.87c0.95-0.83,2.14-1.49,3.58-1.97
			c1.43-0.48,3.1-0.72,5-0.72c1.9,0,3.57,0.24,5,0.72c1.43,0.48,2.63,1.14,3.58,1.97c0.95,0.83,1.66,1.79,2.13,2.87
			c0.47,1.09,0.7,2.23,0.7,3.44C962.37,297.68,962.14,298.82,961.67,299.91z"/>
		<path class="st0" d="M1012.04,298.24c-0.48-0.94-1.17-1.73-2.07-2.37c-0.9-0.64-1.98-1.14-3.26-1.49s-2.71-0.56-4.32-0.64
			c-3.19-0.13-5.95-0.25-8.28-0.36s-4.14-0.19-5.42-0.24c-1.15-0.05-2.02-0.25-2.61-0.6c-0.59-0.35-0.88-0.87-0.88-1.57
			c0-0.54,0.29-1.02,0.86-1.45c0.58-0.43,1.37-0.79,2.39-1.08c1.02-0.3,2.22-0.52,3.6-0.66c1.38-0.15,2.87-0.22,4.48-0.22
			c1.07,0,2.19,0.07,3.36,0.2c1.17,0.13,2.32,0.32,3.46,0.56c1.14,0.24,2.23,0.52,3.28,0.84c1.04,0.32,1.98,0.66,2.81,1.01
			l2.13-5.55c-1.69-0.78-3.42-1.37-5.2-1.77c-1.78-0.4-3.4-0.71-4.84-0.92c-1.69-0.24-3.35-0.36-4.98-0.36
			c-2.76,0-5.26,0.24-7.5,0.72c-2.24,0.48-4.14,1.15-5.71,1.99c-1.57,0.84-2.77,1.83-3.62,2.97c-0.84,1.14-1.27,2.35-1.27,3.64
			c0,1.29,0.27,2.4,0.8,3.36c0.54,0.95,1.28,1.76,2.23,2.41c0.95,0.66,2.08,1.16,3.38,1.51c1.3,0.35,2.72,0.56,4.28,0.64
			c1.55,0.08,3.05,0.15,4.5,0.2c1.45,0.05,2.76,0.11,3.94,0.16c1.18,0.05,2.18,0.1,2.99,0.14c0.82,0.04,1.37,0.07,1.67,0.1
			c1.29,0.05,2.24,0.26,2.85,0.6c0.62,0.35,0.92,0.9,0.92,1.65c0,1.18-0.98,2.13-2.95,2.85c-1.97,0.72-4.96,1.09-8.98,1.09
			c-1.31-0.03-2.68-0.15-4.1-0.36c-1.2-0.19-2.55-0.49-4.04-0.9c-1.49-0.42-2.97-1-4.44-1.75l-2.45,5.63
			c1.66,0.86,3.38,1.51,5.14,1.97c1.77,0.45,3.39,0.79,4.86,1c1.71,0.27,3.39,0.4,5.02,0.4c3.19,0,5.95-0.26,8.28-0.78
			c2.33-0.52,4.27-1.25,5.83-2.17c1.55-0.92,2.7-2,3.46-3.24c0.75-1.23,1.13-2.54,1.13-3.94
			C1012.77,300.25,1012.52,299.18,1012.04,298.24z"/>
		<polygon class="st0" points="899.2,287.47 907.6,287.47 907.6,305.47 899.2,305.47 899.2,312.08 922.51,312.08 922.51,305.47 
			914.67,305.47 914.67,287.47 922.51,287.47 922.51,280.87 899.2,280.87 		"/>
	</g>
	<rect x="728.61" y="359.52" class="st0" width="50.51" height="4.29"/>
</g>
</svg>
