<?xml version="1.0" encoding="utf-8"?>
<!-- Generator: Adobe Illustrator 27.2.0, SVG Export Plug-In . SVG Version: 6.00 Build 0)  -->
<svg version="1.1" id="Capa_1" xmlns="http://www.w3.org/2000/svg" xmlns:xlink="http://www.w3.org/1999/xlink" x="0px" y="0px"
	 viewBox="0 0 735 818.29" style="enable-background:new 0 0 735 818.29;" xml:space="preserve">
<style type="text/css">
	.st0{fill:#FFFFFF;}
</style>
<g>
	<path class="st0" d="M484.06,152.19c3.38,113.94-100.83,137.93-100.83,137.93C253.7,310.38,226,198.86,226,198.86
		c24.19,124.32,159.2,104.35,159.2,104.35c119.82-33.75,109.69-136.7,109.69-136.7C496.02,62.44,398.7,0,398.7,0
		C469.44,50.77,484.06,152.19,484.06,152.19z"/>
	<path class="st0" d="M338.93,177.48c0,0-7.73-50.91-75.52-57.66c0,0-49.22-7.03-43.32,47.25c0,0-0.28-34.88,33.75-36.85
		C287.88,128.26,317.69,144.57,338.93,177.48z"/>
	<path class="st0" d="M383.79,177.48c0,0-17.16-141.2-166.79-103.23C217,74.25,344.69,47.82,383.79,177.48z"/>
	<path class="st0" d="M425.7,150.2c0,0,17.44,70.04-55.13,83.26c0,0-55.07,11.26-78.76-45.85c0,0,13.22,63.57,81.01,57.38
		c0,0,77.91-8.44,68.07-96.48c0,0-16.99-128.44-165.67-140.06C275.22,8.44,408.82,35.44,425.7,150.2z"/>
	<path class="st0" d="M200.28,244.28c2.91,10,6.85,19.71,11.79,28.88c11.47,21.29,28.33,39.46,48.16,53.22
		c34.21,23.74,77.16,34.03,118.5,31.2c42.2-2.89,80.59-21.16,112.08-48.97c22.16-19.58,38.85-44.75,46.29-73.5
		c6.17-23.86,5.97-48.95,1.56-73.09c-3.53-19.29-9.65-38.11-17.69-55.99c-3.41-7.58-7.09-15.12-11.45-22.21
		c2.4,3.9,3.47,9.61,4.92,13.96c1.47,4.45,2.87,8.92,4.17,13.42c2.46,8.51,4.6,17.12,6.34,25.82c2.98,14.93,4.8,30.13,4.93,45.37
		c0.2,24.35-4.04,48.88-14.41,71.03c-7.17,15.32-17.18,29.31-29.55,40.87c-7.38,6.9-15.8,12.3-23.97,18.16
		c-32.26,23.1-71.96,30.54-111.01,27.73c-19.23-1.38-37.85-4.77-56.39-10c-34.58-9.75-60.65-36.83-78.07-67.25
		c-9.44-16.47-17.61-34.6-22.25-53.09c1.43,5.69,1.18,12.17,2.22,18.01C197.43,233.38,198.7,238.87,200.28,244.28z"/>
	<path class="st0" d="M541.88,298.99c-32.36,59.87-122.79,89.02-122.79,89.02c105.48-10.55,136.7-83.62,136.7-83.62
		c35.86-51.56,9.28-155.89,9.28-155.89S574.24,239.12,541.88,298.99z"/>
	<path class="st0" d="M298,388.01c-3.86-1-7.68-2.16-11.45-3.46c-21.18-7.34-40.58-19.25-57.61-33.74
		c-22.03-18.74-41.7-41.38-51.2-69.13c-6.83-19.95-10.68-40.91-13.28-61.8c-1.28-10.28-2.34-20.65-2.74-31.01
		C141.48,372.82,298,388.01,298,388.01z"/>
	<path class="st0" d="M85.47,765.59c0-10.98-7.28-18.36-21.06-18.36H39.37v69.86h5.49v-32.63h17.17c13.37,0,16.77,4.79,16.77,16.27
		v1.79c0,5.99-0.3,11.58,1,14.57h5.49c-1.3-2.69-0.9-9.28-0.9-14.17v-2.69c0-11.87-4.79-16.57-11.98-18.26
		C80.19,780.26,85.47,774.47,85.47,765.59z M61.72,779.46H44.86v-27.24h18.36c10.88,0,16.47,4.89,16.47,13.47
		C79.69,774.87,74,779.46,61.72,779.46z"/>
	<path class="st0" d="M138.29,765.99c-14.57,0-21.66,12.27-21.66,26.55c0,12.67,5.89,25.75,21.06,25.75
		c12.28,0,17.57-7.48,19.66-14.07h-5.09c-1.8,4.09-4.99,9.38-14.37,9.38c-9.58,0-16.07-7.98-16.17-20.86h36.73
		c0.1-1.3,0.1-2.69,0.1-4.09C158.55,779.27,153.66,765.99,138.29,765.99z M122.02,788.35c1.1-10.48,5.79-17.67,16.07-17.67
		c9.78,0,15.17,7.78,15.27,17.67H122.02z"/>
	<path class="st0" d="M205.77,788.15c-9.88-2.39-12.28-4.69-12.28-9.28c0-3.99,2.49-8.28,11.18-8.28c8.48,0,11.78,5.19,12.68,9.38
		h4.99c-0.8-7.08-6.19-13.97-17.47-13.97s-16.47,6.39-16.47,13.27c0,6.58,3.19,10.48,16.07,13.57c11.18,2.69,13.57,5.49,13.57,11.18
		c0,5.59-3.59,9.68-12.47,9.68c-7.88,0-12.47-3.89-14.17-10.38h-5.09c1.4,8.98,7.78,14.97,19.16,14.97
		c10.48,0,17.86-5.59,17.86-14.67C223.33,796.13,219.84,791.54,205.77,788.15z"/>
	<rect x="255.18" y="767.19" class="st0" width="4.99" height="49.9"/>
	<rect x="255.18" y="743.54" class="st0" width="4.99" height="9.68"/>
	<path class="st0" d="M334.53,743.54h-4.99v29.94c-1.5-3.19-5.49-7.48-15.47-7.48c-13.57,0-22.06,11.38-22.06,26.75
		c0,14.97,7.78,25.55,20.76,25.55c8.68,0,14.27-3.49,16.77-9.58c0,2.49,0.1,7.18,0.3,8.38h4.79c-0.1-4.99-0.1-9.58-0.1-14.37V743.54
		z M312.97,813.6c-8.58,0-15.67-7.38-15.67-21.06c0-13.97,6.69-21.86,16.57-21.86c12.77,0,15.87,7.39,15.87,20.26
		C329.74,804.52,326.14,813.6,312.97,813.6z"/>
	<path class="st0" d="M388.04,765.99c-14.57,0-21.66,12.27-21.66,26.55c0,12.67,5.89,25.75,21.06,25.75
		c12.28,0,17.56-7.48,19.66-14.07h-5.09c-1.8,4.09-4.99,9.38-14.37,9.38c-9.58,0-16.07-7.98-16.17-20.86h36.73
		c0.1-1.3,0.1-2.69,0.1-4.09C408.3,779.27,403.41,765.99,388.04,765.99z M371.77,788.35c1.1-10.48,5.79-17.67,16.07-17.67
		c9.78,0,15.17,7.78,15.27,17.67H371.77z"/>
	<path class="st0" d="M461.51,765.99c-10.28,0-14.37,5.59-16.57,10.68c0.1-1.4,0-7.88-0.2-9.48h-4.89c0.1,3.99,0.1,8.18,0.1,12.57
		v37.33h4.99v-25.45c0-10.88,4.09-20.76,15.97-20.76c8.68,0,12.37,5.79,12.37,14.67v31.54h4.99v-32.34
		C478.28,770.98,470.39,765.99,461.51,765.99z"/>
	<path class="st0" d="M531.98,770.68c8.48,0,12.27,5.49,13.77,11.28h5.09c-0.9-6.98-6.09-15.97-18.76-15.97
		c-14.67,0-21.96,12.67-21.96,26.35c0,16.67,8.88,25.95,21.36,25.95c11.18,0,16.97-7.08,19.36-15.87h-5.09
		c-2.59,7.49-6.99,11.18-14.27,11.18c-10.48,0-16.07-9.58-16.07-21.46C515.42,779.66,521.4,770.68,531.98,770.68z"/>
	<rect x="583.19" y="767.19" class="st0" width="4.99" height="49.9"/>
	<rect x="583.19" y="743.54" class="st0" width="4.99" height="9.68"/>
	<path class="st0" d="M657.55,781.76c0-10.98-6.39-15.77-17.76-15.77c-13.77,0-17.17,8.48-17.76,13.97h4.99
		c1.1-4.09,2.59-9.38,12.67-9.38c11.38,0,12.87,6.69,12.87,11.68v5.09c-2,0-5.29,0-9.48,0c-14.97,0-23.45,4.99-23.45,15.97
		c0,7.48,4.99,14.97,16.57,14.97c10.28,0,14.67-5.19,16.37-8.88c0.2,4.29,0.5,6.49,0.9,7.68h4.79c-0.3-1.6-0.7-5.09-0.7-9.48V781.76
		z M652.66,793.44c0,10.78-2,20.26-16.27,20.26c-6.98,0-11.48-4.29-11.48-10.58c0-8.58,6.89-11.48,17.96-11.48c3.3,0,7.88,0,9.78,0
		V793.44z"/>
	<rect x="693.5" y="743.54" class="st0" width="4.99" height="73.55"/>
	<polygon class="st0" points="241.33,474.64 249.22,474.64 249.22,689.67 241.33,689.67 241.33,694.45 290.55,694.45 290.55,689.67 
		282.66,689.67 282.66,474.64 290.55,474.64 290.55,469.86 241.33,469.86 	"/>
	<path class="st0" d="M85.08,469.86L5.89,689.67H0v4.78h16.74v-4.78h-5.06l23.01-65.25h67.97l21.04,65.25h-7.25v4.78h54.99v-4.78
		h-6.49L85.08,469.86z M36.36,619.63l33.81-95.91l30.93,95.91H36.36z"/>
	<path class="st0" d="M445.25,563.66c-17.71,0-33.74,7.07-45.52,18.5V474.64h6.24v-4.78h-45.92v4.78h6.24v215.03h-6.24v4.78h45.92
		v-4.78h-6.24v-13.72c11.78,11.43,27.81,18.5,45.52,18.5c36.12,0,65.39-29.28,65.39-65.39
		C510.64,592.94,481.36,563.66,445.25,563.66z M435.82,689.67c-14.1-0.91-27.66-11.6-36.1-27.38v-68.54
		c6.59-9.51,16.46-15.2,27.94-20.53c30.18-14,48.32,8.79,48.1,55.83C475.6,664.8,463.8,691.48,435.82,689.67z"/>
	<path class="st0" d="M735,567.46v-4.78h-45.92v4.78h4.61v14.18c-11.72-11.12-27.52-17.98-44.95-17.98
		c-36.12,0-65.39,29.28-65.39,65.39c0,36.12,29.28,65.39,65.39,65.39c17.43,0,33.23-6.86,44.95-17.98v13.2h-4.61v4.78H735v-4.78
		h-4.61V567.46H735z M693.69,663.29c-8.47,15.22-21.73,25.48-35.53,26.38c-27.97,1.81-39.77-24.86-39.94-60.61
		c-0.22-47.04,17.91-69.84,48.1-55.83c11.16,5.18,20.79,10.71,27.37,19.75V663.29z"/>
</g>
</svg>
