<?xml version="1.0" encoding="utf-8"?>
<!-- Generator: Adobe Illustrator 27.2.0, SVG Export Plug-In . SVG Version: 6.00 Build 0)  -->
<svg version="1.1" id="Capa_1" xmlns="http://www.w3.org/2000/svg" xmlns:xlink="http://www.w3.org/1999/xlink" x="0px" y="0px"
	 viewBox="0 0 1073 551.12" style="enable-background:new 0 0 1073 551.12;" xml:space="preserve">
<style type="text/css">
	.st0{fill:#FFFFFF;}
</style>
<g>
	<g>
		<path class="st0" d="M213.3,448.74h13.97c2.9,0,5.34,0.53,7.32,1.58c1.98,1.05,3.44,2.49,4.4,4.3c0.96,1.82,1.43,3.87,1.43,6.17
			c0,2.23-0.49,4.23-1.48,6c-0.99,1.77-2.46,3.16-4.42,4.19c-1.96,1.02-4.34,1.53-7.15,1.53h-9.57v9.14c0,0.67-0.18,1.19-0.55,1.55
			c-0.37,0.37-0.89,0.55-1.55,0.55h-2.39V448.74z M227.6,468.73c1.79,0,3.31-0.37,4.57-1.1c1.26-0.73,2.2-1.71,2.82-2.92
			c0.62-1.21,0.93-2.52,0.93-3.92c0-1.44-0.33-2.78-0.98-4.04c-0.65-1.26-1.63-2.29-2.92-3.08c-1.29-0.8-2.86-1.2-4.71-1.2h-9.52
			v16.26H227.6z"/>
		<path class="st0" d="M250.04,448.74h15.4c2.23,0,4.22,0.5,5.98,1.48c1.75,0.99,3.12,2.36,4.11,4.11c0.99,1.75,1.48,3.76,1.48,6.03
			c0,3-0.77,5.48-2.32,7.44c-1.55,1.96-3.64,3.24-6.29,3.85l8.99,12.1h-3.68c-1.08,0-1.95-0.43-2.58-1.29l-7.61-10.52h-8.99v9.71
			c0,0.67-0.18,1.19-0.55,1.55c-0.37,0.37-0.89,0.55-1.55,0.55h-2.39V448.74z M264.62,468.06c2.45,0,4.4-0.64,5.83-1.91
			c1.43-1.28,2.15-3.2,2.15-5.79c0-1.08-0.23-2.23-0.69-3.44c-0.46-1.21-1.27-2.26-2.42-3.13c-1.15-0.88-2.66-1.32-4.54-1.32h-10.43
			v15.59H264.62z"/>
		<path class="st0" d="M288.78,448.74h24.68v1.63c0,0.67-0.18,1.19-0.55,1.55c-0.37,0.37-0.88,0.55-1.55,0.55h-18.08v12.05h16.41
			v1.72c0,0.67-0.18,1.19-0.55,1.55c-0.37,0.37-0.88,0.55-1.55,0.55h-14.3v11.57h18.08c0.67,0,1.19,0.18,1.55,0.55
			c0.37,0.37,0.55,0.88,0.55,1.55v1.72h-24.68V448.74z"/>
		<path class="st0" d="M324.69,448.74h0.76l16.55,20.38l16.6-20.38h0.76v35.01h-2.3c-0.67,0-1.19-0.18-1.55-0.55
			c-0.37-0.37-0.55-0.88-0.55-1.55v-21.43l-12.96,16.21l-12.87-16.21v21.43c0,0.67-0.18,1.19-0.55,1.55
			c-0.37,0.37-0.88,0.55-1.55,0.55h-2.34V448.74z"/>
		<path class="st0" d="M373.74,483.2c-0.37-0.37-0.55-0.88-0.55-1.55v-32.91h2.39c0.67,0,1.19,0.18,1.55,0.55
			c0.37,0.37,0.55,0.88,0.55,1.55v32.9h-2.39C374.63,483.75,374.11,483.57,373.74,483.2z"/>
		<path class="st0" d="M398.59,482.63c-2.2-1.2-3.91-2.89-5.12-5.07c-1.21-2.18-1.82-4.74-1.82-7.68v-21.14H394
			c0.67,0,1.19,0.18,1.55,0.55c0.37,0.37,0.55,0.88,0.55,1.55v18.79c0,2.68,0.54,4.82,1.63,6.43c1.08,1.61,2.4,2.75,3.95,3.42
			c1.55,0.67,3.07,1,4.57,1c1.5,0,3.02-0.34,4.57-1c1.55-0.67,2.86-1.81,3.95-3.42c1.08-1.61,1.63-3.75,1.63-6.43v-18.79
			c0-0.67,0.18-1.19,0.55-1.55c0.37-0.37,0.89-0.55,1.55-0.55h2.34v21.14c0,2.93-0.6,5.49-1.79,7.68c-1.2,2.18-2.89,3.87-5.09,5.07
			c-2.2,1.19-4.77,1.79-7.7,1.79C403.34,484.42,400.79,483.82,398.59,482.63z"/>
		<path class="st0" d="M433.55,448.74h0.76l16.55,20.38l16.6-20.38h0.76v35.01h-2.3c-0.67,0-1.19-0.18-1.55-0.55
			c-0.37-0.37-0.55-0.88-0.55-1.55v-21.43l-12.96,16.21L438,460.22v21.43c0,0.67-0.18,1.19-0.55,1.55
			c-0.37,0.37-0.88,0.55-1.55,0.55h-2.34V448.74z"/>
		<path class="st0" d="M501.85,448.74h15.4c2.23,0,4.22,0.5,5.98,1.48c1.75,0.99,3.12,2.36,4.11,4.11c0.99,1.75,1.48,3.76,1.48,6.03
			c0,3-0.77,5.48-2.32,7.44c-1.55,1.96-3.64,3.24-6.29,3.85l8.99,12.1h-3.68c-1.08,0-1.95-0.43-2.58-1.29l-7.61-10.52h-8.99v9.71
			c0,0.67-0.18,1.19-0.55,1.55c-0.37,0.37-0.89,0.55-1.55,0.55h-2.39V448.74z M516.43,468.06c2.45,0,4.4-0.64,5.83-1.91
			c1.43-1.28,2.15-3.2,2.15-5.79c0-1.08-0.23-2.23-0.69-3.44c-0.46-1.21-1.27-2.26-2.42-3.13c-1.15-0.88-2.66-1.32-4.54-1.32h-10.43
			v15.59H516.43z"/>
		<path class="st0" d="M540.59,448.74h24.68v1.63c0,0.67-0.18,1.19-0.55,1.55c-0.37,0.37-0.89,0.55-1.55,0.55h-18.08v12.05h16.4
			v1.72c0,0.67-0.18,1.19-0.55,1.55c-0.37,0.37-0.88,0.55-1.55,0.55h-14.3v11.57h18.08c0.67,0,1.19,0.18,1.55,0.55
			c0.37,0.37,0.55,0.88,0.55,1.55v1.72h-24.68V448.74z"/>
		<path class="st0" d="M581.36,483.25c-2.22-0.81-4.27-1.99-6.15-3.52l1.24-1.53c0.48-0.57,1.01-0.86,1.58-0.86
			c0.35,0,0.8,0.16,1.34,0.48c2.84,1.79,6.09,2.68,9.76,2.68c2.65,0,4.71-0.58,6.2-1.75c1.48-1.16,2.22-2.65,2.22-4.47
			c0-1.34-0.41-2.42-1.24-3.23c-0.83-0.81-1.91-1.44-3.23-1.89s-3.01-0.84-5.04-1.2c-2.52-0.45-4.61-0.91-6.27-1.39
			c-1.66-0.48-3.2-1.4-4.64-2.75c-1.43-1.36-2.15-3.23-2.15-5.62c0-2.42,0.64-4.38,1.91-5.88c1.28-1.5,2.88-2.57,4.81-3.2
			c1.93-0.64,3.93-0.96,6-0.96c2.52,0,4.74,0.33,6.67,1c1.93,0.67,3.72,1.59,5.38,2.77l-1.15,1.68c-0.45,0.67-0.99,1-1.63,1
			c-0.45,0-0.88-0.13-1.29-0.38c-1.31-0.73-2.6-1.27-3.87-1.6c-1.28-0.33-2.74-0.5-4.4-0.5c-1.21,0-2.42,0.2-3.64,0.6
			c-1.21,0.4-2.23,1.05-3.06,1.96c-0.83,0.91-1.24,2.05-1.24,3.42c0,1.31,0.59,2.38,1.77,3.2c1.18,0.83,2.49,1.43,3.92,1.82
			c1.43,0.38,3.32,0.81,5.64,1.29c2.1,0.42,3.91,0.9,5.43,1.46c1.51,0.56,2.85,1.52,4.02,2.87c1.16,1.36,1.74,3.2,1.74,5.53
			c0,3.38-1.19,5.92-3.59,7.63s-5.44,2.56-9.14,2.56C586.21,484.47,583.57,484.06,581.36,483.25z"/>
		<path class="st0" d="M614.55,483.2c-0.37-0.37-0.55-0.88-0.55-1.55v-32.91h2.39c0.67,0,1.19,0.18,1.55,0.55
			c0.37,0.37,0.55,0.88,0.55,1.55v32.9h-2.39C615.44,483.75,614.92,483.57,614.55,483.2z"/>
		<path class="st0" d="M632.46,448.74h13.3c4.94,0,9.01,1.47,12.2,4.4c1.66,1.53,2.92,3.41,3.8,5.64c0.88,2.23,1.32,4.72,1.32,7.46
			c0,2.77-0.44,5.28-1.32,7.51c-0.88,2.23-2.16,4.13-3.85,5.69c-1.53,1.4-3.33,2.47-5.38,3.2c-2.06,0.74-4.31,1.1-6.77,1.1h-13.3
			V448.74z M645.19,479.97c3.51,0,6.61-1,9.3-2.99c2.7-1.99,4.04-5.56,4.04-10.69c0-3.57-0.71-6.38-2.13-8.44
			c-1.42-2.06-3.13-3.46-5.12-4.21c-1.99-0.75-4.03-1.12-6.1-1.12h-8.23v27.45H645.19z"/>
		<path class="st0" d="M673.4,448.74h24.68v1.63c0,0.67-0.18,1.19-0.55,1.55c-0.37,0.37-0.89,0.55-1.55,0.55H677.9v12.05h16.4v1.72
			c0,0.67-0.18,1.19-0.55,1.55c-0.37,0.37-0.88,0.55-1.55,0.55h-14.3v11.57h18.08c0.67,0,1.19,0.18,1.55,0.55
			c0.37,0.37,0.55,0.88,0.55,1.55v1.72H673.4V448.74z"/>
		<path class="st0" d="M709.32,448.74h0.91l24.2,24.97v-22.86c0-0.67,0.18-1.19,0.55-1.55c0.37-0.37,0.88-0.55,1.55-0.55h2.34v35.01
			h-0.81l-24.3-25.16v23.05c0,0.67-0.18,1.19-0.55,1.55c-0.37,0.37-0.88,0.55-1.55,0.55h-2.35V448.74z"/>
		<path class="st0" d="M758.25,482.08c-2.74-1.63-4.89-3.83-6.43-6.62c-1.55-2.79-2.32-5.84-2.32-9.16c0-3.32,0.77-6.37,2.32-9.16
			c1.54-2.79,3.69-5,6.43-6.62c2.74-1.63,5.82-2.44,9.23-2.44c3.19,0,6.08,0.72,8.68,2.15c2.6,1.43,4.68,3.38,6.24,5.84l-2.39,1
			c-0.42,0.16-0.77,0.24-1.05,0.24c-0.64,0-1.24-0.32-1.82-0.96c-1.21-1.31-2.65-2.33-4.31-3.06c-1.66-0.73-3.44-1.1-5.36-1.1
			c-2.55,0-4.85,0.63-6.91,1.89c-2.06,1.26-3.67,2.97-4.83,5.14c-1.16,2.17-1.75,4.53-1.75,7.08c0,2.55,0.58,4.91,1.75,7.08
			c1.16,2.17,2.77,3.88,4.83,5.14c2.06,1.26,4.36,1.89,6.91,1.89c1.91,0,3.69-0.37,5.33-1.1c1.64-0.73,3.08-1.75,4.33-3.06
			c0.57-0.64,1.18-0.96,1.82-0.96c0.35,0,0.72,0.1,1.1,0.29l2.3,1.1c-1.47,2.45-3.46,4.38-5.98,5.76c-2.52,1.39-5.49,2.08-8.9,2.08
			S760.99,483.7,758.25,482.08z"/>
		<path class="st0" d="M793.5,448.74h24.68v1.63c0,0.67-0.18,1.19-0.55,1.55c-0.37,0.37-0.89,0.55-1.55,0.55h-18.08v12.05h16.4v1.72
			c0,0.67-0.18,1.19-0.55,1.55c-0.37,0.37-0.88,0.55-1.55,0.55h-14.3v11.57h18.08c0.67,0,1.19,0.18,1.55,0.55
			c0.37,0.37,0.55,0.88,0.55,1.55v1.72H793.5V448.74z"/>
		<path class="st0" d="M834.27,483.25c-2.22-0.81-4.27-1.99-6.15-3.52l1.24-1.53c0.48-0.57,1.01-0.86,1.58-0.86
			c0.35,0,0.8,0.16,1.34,0.48c2.84,1.79,6.09,2.68,9.76,2.68c2.65,0,4.71-0.58,6.2-1.75c1.48-1.16,2.22-2.65,2.22-4.47
			c0-1.34-0.41-2.42-1.24-3.23c-0.83-0.81-1.91-1.44-3.23-1.89c-1.32-0.45-3.01-0.84-5.04-1.2c-2.52-0.45-4.61-0.91-6.27-1.39
			c-1.66-0.48-3.2-1.4-4.64-2.75c-1.43-1.36-2.15-3.23-2.15-5.62c0-2.42,0.64-4.38,1.91-5.88c1.28-1.5,2.88-2.57,4.81-3.2
			c1.93-0.64,3.93-0.96,6-0.96c2.52,0,4.74,0.33,6.67,1c1.93,0.67,3.72,1.59,5.38,2.77l-1.15,1.68c-0.45,0.67-0.99,1-1.63,1
			c-0.45,0-0.88-0.13-1.29-0.38c-1.31-0.73-2.6-1.27-3.88-1.6c-1.28-0.33-2.74-0.5-4.4-0.5c-1.21,0-2.42,0.2-3.64,0.6
			c-1.21,0.4-2.23,1.05-3.06,1.96c-0.83,0.91-1.24,2.05-1.24,3.42c0,1.31,0.59,2.38,1.77,3.2c1.18,0.83,2.49,1.43,3.92,1.82
			c1.43,0.38,3.32,0.81,5.64,1.29c2.1,0.42,3.91,0.9,5.43,1.46c1.51,0.56,2.85,1.52,4.02,2.87c1.16,1.36,1.74,3.2,1.74,5.53
			c0,3.38-1.19,5.92-3.59,7.63s-5.44,2.56-9.14,2.56C839.13,484.47,836.49,484.06,834.27,483.25z"/>
		<path class="st0" d="M322.21,515.4h14.49c3.12,0,5.59,0.78,7.39,2.35c1.8,1.56,2.7,3.92,2.7,7.08c0,1.85-0.47,3.42-1.41,4.71
			c-0.94,1.29-2.13,2.13-3.56,2.51v0.05c1.05,0.16,2.07,0.61,3.06,1.36c0.99,0.75,1.8,1.75,2.44,2.99c0.64,1.24,0.96,2.6,0.96,4.07
			c0,3.38-1.05,5.88-3.13,7.48c-2.09,1.61-4.71,2.42-7.87,2.42h-15.07V515.4z M336.31,530.61c1.98,0,3.47-0.54,4.47-1.63
			c1-1.08,1.51-2.52,1.51-4.3c0-1.82-0.55-3.2-1.65-4.14c-1.1-0.94-2.53-1.41-4.28-1.41h-9.66v11.48H336.31z M336.79,546.72
			c2.26,0,4.01-0.6,5.24-1.82c1.23-1.21,1.84-2.66,1.84-4.35c0-1.69-0.59-3.12-1.77-4.28c-1.18-1.16-2.84-1.75-4.97-1.75H326.7v12.2
			H336.79z"/>
		<path class="st0" d="M367.07,537.06l-13.01-21.67h3.49c1.15,0,1.99,0.48,2.53,1.44l9.23,15.83l9.28-15.83
			c0.54-0.96,1.39-1.44,2.53-1.44h3.54l-13.1,21.76v11.14c0,0.67-0.18,1.19-0.55,1.55c-0.37,0.37-0.89,0.55-1.55,0.55h-2.39V537.06z
			"/>
		<path class="st0" d="M415.76,515.4h2.39c0.67,0,1.19,0.18,1.55,0.55c0.37,0.37,0.55,0.88,0.55,1.55v29.22h17.51
			c0.67,0,1.19,0.18,1.55,0.55c0.37,0.37,0.55,0.88,0.55,1.55v1.58h-24.1V515.4z"/>
		<path class="st0" d="M449.52,515.4h24.68v1.63c0,0.67-0.18,1.19-0.55,1.55c-0.37,0.37-0.88,0.55-1.55,0.55h-18.08v12.05h16.41
			v1.72c0,0.67-0.18,1.19-0.55,1.55c-0.37,0.37-0.88,0.55-1.55,0.55h-14.3v11.57h18.08c0.67,0,1.19,0.18,1.55,0.55
			c0.37,0.37,0.55,0.88,0.55,1.55v1.72h-24.68V515.4z"/>
		<path class="st0" d="M491.61,548.69c-2.71-1.63-4.84-3.83-6.38-6.6c-1.55-2.77-2.32-5.82-2.32-9.13c0-3.28,0.81-6.32,2.42-9.11
			c1.61-2.79,3.79-5.01,6.53-6.65c2.74-1.64,5.72-2.46,8.94-2.46c2.77,0,5.4,0.62,7.89,1.86c2.49,1.24,4.56,2.93,6.22,5.07
			l-2.2,1.39c-0.42,0.29-0.85,0.43-1.29,0.43c-0.54,0-1.08-0.29-1.63-0.86c-1.21-1.18-2.59-2.11-4.14-2.8
			c-1.55-0.69-3.16-1.03-4.85-1.03c-2.39,0-4.62,0.65-6.7,1.96c-2.07,1.31-3.72,3.05-4.93,5.24c-1.21,2.18-1.82,4.5-1.82,6.96
			c0,2.49,0.57,4.82,1.72,6.98c1.15,2.17,2.74,3.9,4.78,5.19c2.04,1.29,4.34,1.94,6.89,1.94c2.49,0,4.67-0.45,6.55-1.34
			c1.88-0.89,3.36-2.15,4.42-3.78c1.07-1.63,1.68-3.51,1.84-5.64h-11.91c-0.67,0-1.19-0.18-1.55-0.55
			c-0.37-0.37-0.55-0.88-0.55-1.55v-1.72h18.65c0,0.16,0.01,0.57,0.02,1.22c0.02,0.65-0.02,1.43-0.12,2.32
			c-0.26,3-1.08,5.63-2.49,7.89c-1.4,2.26-3.36,4.04-5.88,5.31c-2.52,1.28-5.52,1.91-8.99,1.91
			C497.37,551.12,494.32,550.31,491.61,548.69z"/>
		<path class="st0" d="M535.59,548.69c-2.73-1.63-4.86-3.83-6.41-6.6s-2.32-5.84-2.32-9.18c0-3.32,0.77-6.37,2.32-9.16
			s3.68-5,6.41-6.62c2.73-1.63,5.78-2.44,9.16-2.44c3.41,0,6.49,0.81,9.23,2.44c2.74,1.63,4.89,3.83,6.43,6.62
			c1.54,2.79,2.32,5.84,2.32,9.16c0,3.35-0.77,6.41-2.32,9.18c-1.55,2.77-3.69,4.97-6.43,6.6c-2.75,1.63-5.82,2.44-9.23,2.44
			C541.37,551.12,538.31,550.31,535.59,548.69z M551.49,545.15c2.07-1.31,3.71-3.05,4.93-5.24c1.21-2.18,1.81-4.52,1.81-7.01
			c0-2.49-0.6-4.82-1.81-6.98c-1.21-2.17-2.86-3.91-4.93-5.21c-2.07-1.31-4.32-1.96-6.74-1.96c-2.39,0-4.63,0.65-6.7,1.96
			c-2.07,1.31-3.71,3.05-4.92,5.24c-1.21,2.18-1.82,4.5-1.82,6.96c0,2.49,0.6,4.82,1.82,7.01c1.21,2.18,2.85,3.93,4.92,5.24
			c2.07,1.31,4.3,1.96,6.7,1.96C547.17,547.11,549.42,546.45,551.49,545.15z"/>
		<path class="st0" d="M573.44,515.4h15.4c2.23,0,4.22,0.5,5.98,1.48c1.75,0.99,3.12,2.36,4.11,4.11c0.99,1.75,1.48,3.76,1.48,6.03
			c0,3-0.77,5.48-2.32,7.44c-1.55,1.96-3.64,3.24-6.29,3.85l8.99,12.1h-3.68c-1.08,0-1.95-0.43-2.58-1.29l-7.6-10.52h-8.99v9.71
			c0,0.67-0.18,1.19-0.55,1.55c-0.37,0.37-0.88,0.55-1.55,0.55h-2.39V515.4z M588.03,534.72c2.45,0,4.4-0.64,5.84-1.91
			c1.43-1.28,2.15-3.2,2.15-5.79c0-1.08-0.23-2.23-0.69-3.44c-0.46-1.21-1.27-2.26-2.42-3.13c-1.15-0.88-2.66-1.32-4.54-1.32h-10.43
			v15.59H588.03z"/>
		<path class="st0" d="M612.14,515.4h15.4c2.23,0,4.22,0.5,5.98,1.48c1.75,0.99,3.12,2.36,4.11,4.11c0.99,1.75,1.48,3.76,1.48,6.03
			c0,3-0.77,5.48-2.32,7.44c-1.55,1.96-3.64,3.24-6.29,3.85l8.99,12.1h-3.68c-1.08,0-1.95-0.43-2.58-1.29l-7.6-10.52h-8.99v9.71
			c0,0.67-0.18,1.19-0.55,1.55c-0.37,0.37-0.88,0.55-1.55,0.55h-2.39V515.4z M626.73,534.72c2.45,0,4.4-0.64,5.84-1.91
			c1.43-1.28,2.15-3.2,2.15-5.79c0-1.08-0.23-2.23-0.69-3.44c-0.46-1.21-1.27-2.26-2.42-3.13c-1.15-0.88-2.66-1.32-4.54-1.32h-10.43
			v15.59H626.73z"/>
		<path class="st0" d="M650.88,515.4h24.68v1.63c0,0.67-0.18,1.19-0.55,1.55c-0.37,0.37-0.89,0.55-1.55,0.55h-18.08v12.05h16.4v1.72
			c0,0.67-0.18,1.19-0.55,1.55c-0.37,0.37-0.88,0.55-1.55,0.55h-14.3v11.57h18.08c0.67,0,1.19,0.18,1.55,0.55
			c0.37,0.37,0.55,0.88,0.55,1.55v1.72h-24.68V515.4z"/>
		<path class="st0" d="M694.88,519.13h-10.67v-1.63c0-0.67,0.18-1.19,0.55-1.55c0.37-0.37,0.88-0.55,1.55-0.55h23.63v1.63
			c0,0.67-0.18,1.19-0.55,1.55c-0.37,0.37-0.88,0.55-1.55,0.55h-8.51v29.18c0,0.67-0.18,1.19-0.55,1.55
			c-0.37,0.37-0.88,0.55-1.55,0.55h-2.34V519.13z"/>
		<path class="st0" d="M729.27,515.4h0.96l17.22,35.01h-3.39c-1.15,0-1.96-0.53-2.44-1.58l-2.39-5.07h-18.99l-2.39,5.07
			c-0.48,1.05-1.29,1.58-2.44,1.58h-3.35L729.27,515.4z M737.35,539.98l-7.56-16.21l-7.65,16.21H737.35z"/>
	</g>
	<polygon class="st0" points="234.92,263.04 262.95,263.04 203.89,120.38 182.36,120.38 126.8,263.04 153.33,263.04 194.88,157.42 	
		"/>
	<polygon class="st0" points="918.87,263.04 946.9,263.04 887.83,120.38 866.31,120.38 810.75,263.04 837.28,263.04 878.82,157.42 	
		"/>
	<polygon class="st0" points="346.54,243.01 346.54,120.38 320.52,120.38 320.52,263.04 333.53,263.04 346.54,263.04 406.61,263.04 
		406.61,243.01 	"/>
	<polygon class="st0" points="559.61,140.4 559.61,120.38 499.54,120.38 486.53,120.38 473.51,120.38 473.51,263.04 486.53,263.04 
		499.54,263.04 559.61,263.04 559.61,243.01 499.54,243.01 499.54,201.72 559.61,201.72 559.61,181.7 499.54,181.7 499.54,140.4 	
		"/>
	<path class="st0" d="M687.25,120.38h-60.4v142.66h60.4c38.7,0,70.08-31.37,70.08-70.08v-2.5
		C757.32,151.75,725.95,120.38,687.25,120.38z M732.3,196.13c0,26.26-21.29,47.55-47.55,47.55h-34.2V143.57h34.2
		c26.26,0,47.55,21.29,47.55,47.55V196.13z"/>
	<path class="st0" d="M0,0v385.84h1073V0H0z M1060.65,374.82H12.51V11.76h1048.14V374.82z"/>
</g>
</svg>
