<?xml version="1.0" encoding="utf-8"?>
<!-- Generator: Adobe Illustrator 27.2.0, SVG Export Plug-In . SVG Version: 6.00 Build 0)  -->
<svg version="1.1" id="Capa_1" xmlns="http://www.w3.org/2000/svg" xmlns:xlink="http://www.w3.org/1999/xlink" x="0px" y="0px"
	 viewBox="0 0 665 704.71" style="enable-background:new 0 0 665 704.71;" xml:space="preserve">
<style type="text/css">
	.st0{fill:#FFFFFF;}
</style>
<g>
	<path class="st0" d="M79.55,256.39c0-1.6-1.3-2.91-2.91-2.91c0,0-13.2,0-13.2,0c-5.65,0-9.64-4.61-12.69-8.81
		c-3.81-5.24-5.44-11.42-3.73-17.82c0,0,12.66-47.29,12.66-47.29h98.07l18.11,50.43c2.06,5.75,2.02,12.04-0.13,17.76
		c-1.3,3.45-4.6,5.74-8.29,5.74h-1.09c-1.6,0-2.91,1.3-2.91,2.91s1.3,2.91,2.91,2.91h39.08h26.85c11.33,0,20.52,9.19,20.52,20.52
		v207.74c0,11.33-9.19,20.52-20.52,20.52c-1.6,0-2.91,1.3-2.91,2.91c0,1.6,1.3,2.91,2.91,2.91h73.74c1.61,0,2.91-1.3,2.91-2.91
		c0-1.61-1.3-2.91-2.91-2.91h-6.17c-11.33,0-20.52-9.19-20.52-20.52V279.82c0-11.33,9.19-20.52,20.52-20.52h6.69
		c1.32,0,2.39-1.07,2.39-2.39v-2.48c0-1.32-1.07-2.39-2.39-2.39h-16.1c-6.01,0-11.8-2.46-15.83-6.92
		c-7.8-8.62-12.3-19.94-12.3-31.91v-43.14c0-2.17-1.76-3.93-3.94-3.93s-3.94,1.76-3.94,3.93v39.64c0,15.27-7.3,29.36-19.24,38.22
		c-2.72,2.02-5.89,3.3-9.21,3.83c-1.17-0.88-2.14-2.04-2.74-3.44L118.67,6.27c-0.93-2.15-4-2.08-4.82,0.11l-9.28,24.54
		c-2.23,5.89-2.13,12.4,0.25,18.22l51.01,124.37H52.43l-33.42,72.28c-2.17,4.69-6.87,7.69-12.03,7.69H2.91
		c-1.61,0-2.91,1.3-2.91,2.91s1.3,2.91,2.91,2.91h73.74C78.25,259.29,79.55,257.99,79.55,256.39z"/>
	<path class="st0" d="M453.87,698.9h-8.98c-3.42,0-6.51-2.03-7.87-5.17L332.43,451.68c-0.93-2.15-4-2.08-4.82,0.11l-9.28,24.54
		c-2.23,5.89-2.13,12.4,0.25,18.22l51.01,124.37h-103.4l-33.42,72.28c-2.17,4.69-6.87,7.69-12.03,7.69h-4.07c0,0,0,0,0,0h-6.17
		c-8.33,0-15.07-6.75-15.07-15.07V465.07c0-8.33,6.75-15.07,15.07-15.07h0c1.6,0,2.91-1.3,2.91-2.91c0-1.6-1.3-2.91-2.91-2.91
		h-41.59v2.91v2.91v233.83c0,8.33-6.75,15.07-15.07,15.07h-5.45c-1.6,0-2.91,1.3-2.91,2.91c0,1.61,1.3,2.91,2.91,2.91h68.29
		c0,0,0,0,0,0h73.74c1.6,0,2.91-1.3,2.91-2.91s-1.3-2.91-2.91-2.91c0,0-13.2,0-13.2,0c-11.85,0-19.04-16.82-16.41-26.63
		c0,0,12.66-47.29,12.66-47.29h98.07l18.11,50.43c2.06,5.75,2.02,12.04-0.13,17.76c-1.3,3.45-4.6,5.74-8.29,5.74h-1.09
		c-1.6,0-2.91,1.3-2.91,2.91s1.3,2.91,2.91,2.91h73.74c1.6,0,2.91-1.3,2.91-2.91S455.47,698.9,453.87,698.9z"/>
	<path class="st0" d="M371.44,7.26l16.1,0c6.01,0,11.8,2.46,15.83,6.92c7.8,8.62,12.3,19.94,12.3,31.91v43.14
		c0,2.17,1.76,3.94,3.94,3.94s3.94-1.76,3.94-3.94V49.59c0-15.27,7.3-29.36,19.24-38.22c3.65-2.71,8.12-4.1,12.67-4.1l17.1,0
		c1.32,0,2.39-1.07,2.39-2.39V2.39c0-1.32-1.07-2.39-2.39-2.39h-101.1c-1.32,0-2.39,1.07-2.39,2.39v2.48
		C369.05,6.19,370.12,7.26,371.44,7.26z"/>
	<path class="st0" d="M662.09,505.17h-8.98c-3.42,0-6.51-2.03-7.87-5.17L540.66,257.96c-0.93-2.15-4-2.08-4.82,0.11l-9.28,24.54
		c-2.23,5.89-2.13,12.4,0.25,18.22l51.01,124.37h-103.4L441,497.48c-1.09,2.35-2.8,4.27-4.9,5.61h-2.17
		c-6.32,0-12.29-2.95-16.12-7.98l-95.62-121.09l87.19-102.05c6.99-8.12,17.17-12.79,27.88-12.79h8.79c1.61,0,2.91-1.3,2.91-2.91
		c0-1.6-1.3-2.91-2.91-2.91h-25.06v-31.78L254.85,2.34c-0.6-0.79-1.53-1.25-2.51-1.25h-41.66h-10.9c-1.6,0-2.91,1.3-2.91,2.91
		c0,1.6,1.3,2.91,2.91,2.91h10.73c3.02,0,5.87,1.38,7.74,3.74L410.7,253.36h-51.27c-1.6,0-2.91,1.3-2.91,2.91
		c0,1.6,1.3,2.91,2.91,2.91h3.03c2.8,0,5.54,0.75,7.95,2.17l9.54,5.62c4.44,2.62,5.59,8.54,2.44,12.62l-83.07,107.82l83.64,111.6
		c5.66,7.55,14.54,11.99,23.97,11.99h17.98h34.6h39.14c1.6,0,2.91-1.3,2.91-2.91s-1.3-2.91-2.91-2.91c0,0-13.2,0-13.2,0
		c-11.85,0-19.04-16.82-16.41-26.63c0,0,12.66-47.29,12.66-47.29h98.07l18.11,50.43c2.06,5.75,2.02,12.04-0.13,17.76
		c-1.3,3.45-4.6,5.74-8.29,5.74h-1.09c-1.6,0-2.91,1.3-2.91,2.91s1.3,2.91,2.91,2.91h73.74c1.6,0,2.91-1.3,2.91-2.91
		S663.7,505.17,662.09,505.17z"/>
	<path class="st0" d="M133.7,444.23l-27.51,0.49c-22.76,0.97-38.02,16.22-38.02,16.22c-20.7,17.31-27.36,58.12-16.71,90.81
		c10.66,32.69,56.3,32.09,56.3,32.09c-46.01,6.3-53.09,45.47-59.09,83.61c-4.9,31.21-29.03,32.26-37.63,31.61
		c-1.65-0.12-3.05,1.16-3.05,2.82c0,1.56,1.27,2.83,2.83,2.83h33.86c36.32,0,35.36-62.14,45.16-90.84
		c8.18-23.95,35.25-26.48,43.99-26.66c1.54-0.03,2.74-1.29,2.74-2.83v-4.15c0-1.56-1.27-2.83-2.83-2.83H112.6
		c-35.6-5.22-39.23-59.07-30.88-93.94c7.11-29.67,41.84-31.73,52.03-31.68c1.57,0.01,2.82-1.26,2.82-2.83v-1.9
		C136.58,445.48,135.28,444.2,133.7,444.23z"/>
</g>
</svg>
