<?xml version="1.0" encoding="utf-8"?>
<!-- Generator: Adobe Illustrator 27.2.0, SVG Export Plug-In . SVG Version: 6.00 Build 0)  -->
<svg version="1.1" id="Capa_1" xmlns="http://www.w3.org/2000/svg" xmlns:xlink="http://www.w3.org/1999/xlink" x="0px" y="0px"
	 viewBox="0 0 1701.13 964.4" style="enable-background:new 0 0 1701.13 964.4;" xml:space="preserve">
<style type="text/css">
	.st0{fill:#FFFFFF;}
</style>
<g>
	<path class="st0" d="M285.35,518.8H109.18V314.7l171.76-0.28v-78.2H111.38v-4.41h173.97V518.8z M113.59,514.4h167.36V318.82
		l-167.36,0.28V514.4z"/>
	<path class="st0" d="M802.32,518.8H626.15V314.7l171.76-0.28v-78.2H628.36v-4.41h173.97V518.8z M630.56,514.4h167.36V318.82
		l-167.36,0.28V514.4z"/>
	<polygon class="st0" points="551.81,518.8 283.15,518.8 283.15,514.4 547.4,514.4 547.4,0.75 551.81,0.75 	"/>
	<rect x="1064.38" class="st0" width="4.41" height="234.02"/>
	<polygon class="st0" points="1068.78,518.8 800.12,518.8 800.12,514.4 1064.38,514.4 1064.38,318.02 1068.78,318.02 	"/>
	<path class="st0" d="M1319.86,518.8h-176.17V314.7l171.76-0.28v-78.2H1145.9v-4.41h173.97V518.8z M1148.1,514.4h167.36V318.82
		l-167.36,0.28V514.4z"/>
	<rect x="1317.66" y="514.4" class="st0" width="266.46" height="4.41"/>
	<rect y="640.41" class="st0" width="1701.13" height="4.41"/>
	<path class="st0" d="M143.54,761.68l-19.02,45.74c-4.16-1.01-6.81-1.4-6.81-1.4s2.69,4.21,4.17,7.75L109.32,844h9.38l11.34-27.09
		c6.35,1.52,24.38,7.39,38.53,27.09h9.19L143.54,761.68z M133.01,809.83l11.43-27.28l16.31,42.05
		C152.29,817.25,141.61,812.63,133.01,809.83z"/>
	<path class="st0" d="M635.65,761.68l-19.02,45.74c-4.16-1.01-6.81-1.4-6.81-1.4s2.69,4.21,4.17,7.75L601.43,844h9.38l11.34-27.09
		c6.35,1.52,24.38,7.39,38.53,27.09h9.19L635.65,761.68z M625.11,809.83l11.43-27.28l16.31,42.05
		C644.4,817.25,633.72,812.63,625.11,809.83z"/>
	<path class="st0" d="M243.44,765.39v56.68c0,9.94-8.06,18-18,18h-1.41c-9.94,0-18-8.06-18-18v-56.68h-7.88v57.87
		c0,12.54,10.17,22.71,22.71,22.71h7.17c12.54,0,22.71-10.17,22.71-22.71v-57.87H243.44z"/>
	<polygon class="st0" points="319.52,765.39 274.24,765.39 274.24,773.68 291.75,773.68 291.75,844 300.68,844 300.68,773.68 
		319.52,773.68 	"/>
	<polygon class="st0" points="1365.95,765.39 1320.66,765.39 1320.66,773.68 1338.17,773.68 1338.17,844 1347.1,844 1347.1,773.68 
		1365.95,773.68 	"/>
	<path class="st0" d="M1010.14,765.39c-21.13,0-38.25,18.04-38.25,40.29c0,22.25,17.13,40.29,38.25,40.29
		c21.13,0,38.25-18.04,38.25-40.29C1048.39,783.42,1031.26,765.39,1010.14,765.39z M1010.14,838.52
		c-17.35,0-31.41-14.81-31.41-33.08s14.06-33.08,31.41-33.08c17.35,0,31.41,14.81,31.41,33.08S1027.48,838.52,1010.14,838.52z"/>
	<path class="st0" d="M1456.34,765.39c-21.13,0-38.25,18.04-38.25,40.29c0,22.25,17.13,40.29,38.25,40.29s38.25-18.04,38.25-40.29
		C1494.6,783.42,1477.47,765.39,1456.34,765.39z M1456.34,838.52c-17.35,0-31.41-14.81-31.41-33.08s14.06-33.08,31.41-33.08
		c17.35,0,31.41,14.81,31.41,33.08S1473.69,838.52,1456.34,838.52z"/>
	<path class="st0" d="M375.01,765.39c-21.13,0-38.25,18.04-38.25,40.29c0,22.25,17.13,40.29,38.25,40.29
		c21.13,0,38.25-18.04,38.25-40.29C413.27,783.42,396.14,765.39,375.01,765.39z M375.01,838.52c-17.35,0-31.41-14.81-31.41-33.08
		s14.06-33.08,31.41-33.08c17.35,0,31.41,14.81,31.41,33.08S392.36,838.52,375.01,838.52z"/>
	<path class="st0" d="M502.07,804.72c0,18.27-11.2,33.8-28.65,33.8c-17.46,0-31.61-14.81-31.61-33.08s14.15-33.08,31.61-33.08
		c10.91,0,20.53,5.79,26.21,14.59l5.06-4.76c-6.99-10.17-18.39-16.79-31.28-16.79c-21.26,0-38.5,18.04-38.5,40.29
		c0,22.25,17.24,40.29,38.5,40.29c21.26,0,35.54-18.75,35.54-41.01"/>
	<polygon class="st0" points="477.6,804.62 508.96,804.62 508.78,809.26 499.9,818.82 500.05,812.4 485.05,812.4 	"/>
	<path class="st0" d="M559.83,807.46c7.73-2.21,13.4-9.31,13.4-17.75v-1.43c0-12.65-10.25-22.9-22.9-22.9h-8.41h-8.81v42.8v35.44
		h8.81v-27.56l-0.38-42c0,0,9.38-0.94,14.53,0c5.16,0.94,11.53,10.13,8.16,19.69c-3.38,9.56-16.31,8.44-16.31,8.44l3.22,6h0.07
		l19.59,35.44h9.75L559.83,807.46z"/>
	<path class="st0" d="M709.44,765.39h-8.93h-4.36h-4.36V844h8.72v-33.47h8.93c12.47,0,22.57-10.11,22.57-22.57
		C732.01,775.49,721.9,765.39,709.44,765.39z M723.43,788.94c0,7.34-5.95,13.29-13.29,13.29h-9.63v-28.55h9.63
		c7.34,0,13.29,5.95,13.29,13.29V788.94z"/>
	<polygon class="st0" points="802.89,765.39 802.89,801.6 764.35,801.6 764.35,765.39 755.49,765.39 755.49,844 764.35,844 
		764.35,810.32 802.89,810.32 802.89,844 811.75,844 811.75,765.39 	"/>
	<path class="st0" d="M949.43,828.47c-5.77,6.19-13.82,10.05-22.75,10.05c-17.52,0-31.73-14.81-31.73-33.08s14.2-33.08,31.73-33.08
		c8.93,0,16.98,3.86,22.75,10.05v-9.24c-6.39-4.87-14.23-7.77-22.75-7.77c-21.34,0-38.64,18.04-38.64,40.29
		c0,22.25,17.3,40.29,38.64,40.29c8.52,0,16.36-2.91,22.75-7.77V828.47z"/>
	<path class="st0" d="M1301.69,828.47c-5.77,6.19-13.82,10.05-22.75,10.05c-17.52,0-31.73-14.81-31.73-33.08s14.2-33.08,31.73-33.08
		c8.93,0,16.98,3.86,22.75,10.05v-9.24c-6.39-4.87-14.23-7.77-22.75-7.77c-21.34,0-38.64,18.04-38.64,40.29
		c0,22.25,17.3,40.29,38.64,40.29c8.52,0,16.36-2.91,22.75-7.77V828.47z"/>
	<polygon class="st0" points="1081.49,835.98 1081.49,765.39 1072.91,765.39 1072.91,844.56 1074.74,844.56 1081.49,844.56 
		1102.44,844.56 1102.44,835.98 	"/>
	<polygon class="st0" points="1135.84,835.98 1135.84,765.39 1127.26,765.39 1127.26,844.56 1129.09,844.56 1135.84,844.56 
		1156.8,844.56 1156.8,835.98 	"/>
	<polygon class="st0" points="1219.45,774.1 1219.45,765.39 1189.42,765.39 1183.1,765.39 1180.85,765.39 1180.85,844.56 
		1182.67,844.56 1189.42,844.56 1219.45,844.56 1219.45,835.98 1189.42,835.98 1189.42,805.96 1218.18,805.96 1218.18,797.24 
		1189.42,797.24 1189.42,774.1 	"/>
	<polygon class="st0" points="853.61,903.3 820.23,903.3 820.23,909.42 833.14,909.42 833.14,961.25 839.72,961.25 839.72,909.42 
		853.61,909.42 	"/>
	<path class="st0" d="M763.58,903.3c-15.57,0-28.19,13.3-28.19,29.7c0,16.4,12.62,29.7,28.19,29.7c15.57,0,28.19-13.3,28.19-29.7
		C791.77,916.6,779.15,903.3,763.58,903.3z M763.58,957.2c-12.79,0-23.15-10.92-23.15-24.39s10.37-24.39,23.15-24.39
		c12.79,0,23.15,10.92,23.15,24.39S776.36,957.2,763.58,957.2z"/>
	<polygon class="st0" points="700.39,903.3 700.39,929.99 671.99,929.99 671.99,903.3 665.46,903.3 665.46,961.25 671.99,961.25 
		671.99,936.42 700.39,936.42 700.39,961.25 706.93,961.25 706.93,903.3 	"/>
	<polygon class="st0" points="951.82,955.34 951.82,903.3 945.5,903.3 945.5,961.66 946.85,961.66 951.82,961.66 967.27,961.66 
		967.27,955.34 	"/>
	<polygon class="st0" points="911.23,909.73 911.23,903.3 889.1,903.3 884.44,903.3 882.78,903.3 882.78,961.66 884.12,961.66 
		889.1,961.66 911.23,961.66 911.23,955.34 889.1,955.34 889.1,933.21 910.3,933.21 910.3,926.78 889.1,926.78 889.1,909.73 	"/>
	<polygon class="st0" points="1576.41,765.39 1576.41,826.12 1561.05,809.4 1526.94,772.35 1518.01,762.43 1518.01,844 1526.94,844 
		1526.94,783.68 1585.34,848.08 1585.34,846.95 1585.34,835.84 1585.34,765.39 	"/>
	<rect x="1385.54" y="765.39" class="st0" width="8.72" height="78.62"/>
	<path class="st0" d="M995.42,948.45l6.09-2.16c0,0,2.44,11.91,11.91,11.44c9.47-0.47,14.16-13.03,8.72-18.1
		c-5.44-5.06-20.16-8.16-22.5-15.75s0.28-17.63,9.84-19.69c0,0,12.28-2.91,18.75,7.59l-4.88,4.03c0,0-2.63-6.75-9.84-5.63
		c-7.22,1.13-9.38,5.91-8.44,9.19c0.94,3.28,6.38,8.27,15.38,11.4c9,3.13,10.59,12.6,10.13,15.6c-0.47,3-1.78,14.53-13.41,17.53
		C1005.54,966.92,997.01,955.29,995.42,948.45z"/>
	<g>
		<path class="st0" d="M1605.65,781.28v-8.97c0-0.86-0.04-2.1-0.1-2.79h3.91c3.24,0,4.95,1.73,4.95,4.34c0,2.4-1.22,3.81-3.32,4.28
			c0.51,0.67,3.93,5.38,4.08,5.52v0.16c-0.53-0.02-1.67,0.04-2.24,0.06l-3.75-5.58h-1.67v2.61c0,0.86,0.08,2.18,0.12,2.91
			c-0.59,0-1.57,0.02-2.04,0.06C1605.61,783.46,1605.65,782.01,1605.65,781.28z M1609.26,776.77c2.14,0,3.32-0.82,3.32-2.85
			c0-1.69-1.1-2.87-3.16-2.87h-1.92v5.73H1609.26z"/>
	</g>
	<path class="st0" d="M1610.36,790.11c-7.39,0-13.41-6.02-13.41-13.41s6.01-13.41,13.41-13.41c7.39,0,13.41,6.01,13.41,13.41
		S1617.75,790.11,1610.36,790.11z M1610.36,765.5c-6.18,0-11.2,5.03-11.2,11.2c0,6.18,5.03,11.21,11.2,11.21
		c6.18,0,11.2-5.03,11.2-11.21C1621.56,770.52,1616.54,765.5,1610.36,765.5z"/>
</g>
</svg>
