<?xml version="1.0" encoding="utf-8"?>
<!-- Generator: Adobe Illustrator 27.2.0, SVG Export Plug-In . SVG Version: 6.00 Build 0)  -->
<svg version="1.1" id="Capa_1" xmlns="http://www.w3.org/2000/svg" xmlns:xlink="http://www.w3.org/1999/xlink" x="0px" y="0px"
	 viewBox="0 0 1073 304.61" style="enable-background:new 0 0 1073 304.61;" xml:space="preserve">
<style type="text/css">
	.st0{fill:#FFFFFF;}
</style>
<g>
	<g>
		<path class="st0" d="M48.11,195.54c-13.69,0-25.14-4.34-34.33-13.03C4.59,173.83,0,161.81,0,146.46
			c0-14.43,4.27-26.38,12.82-35.84c8.55-9.46,20.31-14.2,35.29-14.2c15.16,0,27.75,6.16,37.77,18.47l-6.07,4.96
			C71.36,109.29,60.79,104,48.11,104c-12.41,0-22.17,3.95-29.29,11.86c-7.12,7.91-10.68,18.11-10.68,30.6
			c0,12.68,3.77,22.75,11.3,30.19c7.53,7.44,17.09,11.17,28.67,11.17c12.59,0,23.16-5.24,31.71-15.72l6.07,4.96
			C76.05,189.38,63.46,195.54,48.11,195.54z"/>
		<path class="st0" d="M237.97,195.47l-9.78-25.92h-47.37l-9.71,25.92h-8.27l37.49-97.88h8.13l37.91,97.88H237.97z M183.61,162.11
			h41.77l-20.8-55.13l-0.3-0.03L183.61,162.11z"/>
		<path class="st0" d="M374.46,195.54c-13.69,0-25.14-4.34-34.33-13.03c-9.19-8.68-13.79-20.7-13.79-36.05
			c0-14.43,4.27-26.38,12.82-35.84c8.55-9.46,20.31-14.2,35.29-14.2c15.16,0,27.75,6.16,37.77,18.47l-6.07,4.96
			c-8.46-10.57-19.02-15.85-31.71-15.85c-12.41,0-22.17,3.95-29.29,11.86c-7.12,7.91-10.68,18.11-10.68,30.6
			c0,12.68,3.77,22.75,11.3,30.19c7.53,7.44,17.09,11.17,28.67,11.17c12.59,0,23.16-5.24,31.71-15.72l6.07,4.96
			C402.4,189.38,389.81,195.54,374.46,195.54z"/>
		<path class="st0" d="M510.43,194.99V97.11h7.72v47.84h57.62V97.11h7.72v97.88h-7.72v-42.6h-57.62v42.6H510.43z"/>
		<path class="st0" d="M691.27,194.99V97.11h7.72v97.88H691.27z"/>
		<path class="st0" d="M836.44,194.99v-90.57h-30.6v-7.31h69.48v7.31h-31.02v90.57H836.44z"/>
		<path class="st0" d="M1024.61,195.67c-14.25,0-25.9-4.76-34.95-14.27c-9.05-9.51-13.58-21.34-13.58-35.5
			c0-14.06,4.53-25.82,13.58-35.29c9.05-9.46,20.7-14.2,34.95-14.2c13.79,0,25.3,4.6,34.53,13.79c9.24,9.19,13.85,21.09,13.85,35.7
			c0,14.71-4.62,26.67-13.85,35.91C1049.91,191.06,1038.4,195.67,1024.61,195.67z M1024.61,187.95c11.3,0,20.84-3.93,28.6-11.79
			c7.77-7.86,11.65-17.94,11.65-30.26c0-12.22-3.88-22.26-11.65-30.12c-7.77-7.86-17.3-11.79-28.6-11.79
			c-11.86,0-21.55,4.05-29.09,12.13c-7.54,8.09-11.3,18.01-11.3,29.78c0,11.86,3.77,21.83,11.3,29.91
			C1003.06,183.91,1012.76,187.95,1024.61,187.95z"/>
	</g>
	<g>
		<path class="st0" d="M58.79,304.61c-2.71,0-5.09-0.42-7.12-1.26c-2.03-0.84-3.71-1.99-5.04-3.46c-1.32-1.47-2.32-3.2-2.98-5.18
			c-0.66-1.99-0.99-4.13-0.99-6.42c0-1.91,0.32-3.83,0.97-5.77c0.65-1.94,1.66-3.69,3.05-5.26c1.39-1.57,3.17-2.84,5.33-3.83
			c2.16-0.98,4.75-1.48,7.75-1.48c1.65,0,3.19,0.11,4.63,0.34c1.44,0.23,3,0.57,4.68,1.02c0.06,0.87,0.19,1.99,0.39,3.34
			c0.19,1.36,0.47,2.68,0.82,3.97c-0.16,0.03-0.37,0.07-0.63,0.12c-0.26,0.05-0.45,0.07-0.58,0.07c-0.26,0-0.48-0.04-0.65-0.12
			c-0.18-0.08-0.3-0.25-0.36-0.51c-0.36-1.07-0.76-1.96-1.21-2.69c-0.45-0.73-0.99-1.31-1.62-1.74c-0.63-0.44-1.36-0.75-2.2-0.94
			c-0.84-0.19-1.83-0.29-2.96-0.29c-1.74,0-3.29,0.3-4.63,0.9c-1.34,0.6-2.46,1.45-3.37,2.57c-0.9,1.11-1.59,2.46-2.06,4.02
			c-0.47,1.57-0.7,3.34-0.7,5.3c0,2.1,0.28,4.05,0.85,5.86c0.56,1.81,1.34,3.38,2.33,4.7c0.98,1.32,2.16,2.36,3.51,3.1
			c1.36,0.74,2.83,1.11,4.41,1.11c1.29,0,2.4-0.12,3.32-0.36c0.92-0.24,1.71-0.61,2.37-1.11c0.66-0.5,1.23-1.14,1.7-1.91
			c0.47-0.78,0.9-1.68,1.28-2.71c0.1-0.26,0.25-0.44,0.46-0.56c0.21-0.11,0.43-0.17,0.65-0.17c0.16,0,0.36,0.02,0.61,0.07
			c0.24,0.05,0.44,0.11,0.61,0.17c-0.19,0.55-0.4,1.17-0.61,1.86c-0.21,0.69-0.43,1.41-0.65,2.13c-0.23,0.73-0.43,1.45-0.61,2.18
			c-0.18,0.73-0.33,1.43-0.46,2.11c-1.58,0.29-3.2,0.5-4.84,0.63C62.57,304.55,60.76,304.61,58.79,304.61z"/>
		<path class="st0" d="M109.46,288.29c0-2.26,0.43-4.38,1.28-6.35c0.86-1.97,2.03-3.7,3.51-5.18c1.49-1.49,3.22-2.66,5.21-3.51
			c1.99-0.86,4.11-1.28,6.37-1.28c2.33,0,4.49,0.4,6.49,1.21c2,0.81,3.74,1.94,5.21,3.39c1.47,1.45,2.62,3.18,3.46,5.18
			c0.84,2,1.26,4.18,1.26,6.54c0,2.26-0.43,4.38-1.28,6.37c-0.86,1.99-2.03,3.71-3.51,5.18c-1.49,1.47-3.23,2.63-5.23,3.49
			c-2,0.86-4.13,1.28-6.4,1.28c-2.33,0-4.49-0.4-6.49-1.21c-2-0.81-3.73-1.94-5.18-3.39c-1.45-1.45-2.6-3.17-3.44-5.16
			C109.88,292.86,109.46,290.68,109.46,288.29z M126.56,302.09c1.36,0,2.58-0.3,3.68-0.9c1.1-0.6,2.04-1.41,2.83-2.45
			c0.79-1.03,1.4-2.24,1.84-3.63c0.44-1.39,0.65-2.87,0.65-4.46c0-2.29-0.22-4.42-0.65-6.39c-0.44-1.97-1.1-3.67-1.99-5.11
			c-0.89-1.44-2-2.57-3.34-3.39c-1.34-0.82-2.9-1.24-4.67-1.24c-1.13,0-2.23,0.25-3.29,0.75c-1.07,0.5-2,1.23-2.81,2.18
			c-0.81,0.95-1.45,2.11-1.94,3.46c-0.48,1.36-0.73,2.89-0.73,4.6c0,2.39,0.23,4.6,0.7,6.64c0.47,2.03,1.15,3.79,2.03,5.26
			c0.89,1.47,1.98,2.62,3.27,3.44C123.45,301.68,124.92,302.09,126.56,302.09z"/>
		<path class="st0" d="M202.41,304.61c-2.71,0-5.09-0.42-7.12-1.26c-2.03-0.84-3.71-1.99-5.04-3.46c-1.32-1.47-2.32-3.2-2.98-5.18
			c-0.66-1.99-0.99-4.13-0.99-6.42c0-1.91,0.32-3.83,0.97-5.77c0.65-1.94,1.66-3.69,3.05-5.26c1.39-1.57,3.17-2.84,5.33-3.83
			c2.16-0.98,4.75-1.48,7.75-1.48c1.65,0,3.19,0.11,4.63,0.34c1.44,0.23,3,0.57,4.68,1.02c0.06,0.87,0.19,1.99,0.39,3.34
			c0.19,1.36,0.47,2.68,0.82,3.97c-0.16,0.03-0.37,0.07-0.63,0.12c-0.26,0.05-0.45,0.07-0.58,0.07c-0.26,0-0.48-0.04-0.65-0.12
			c-0.18-0.08-0.3-0.25-0.36-0.51c-0.36-1.07-0.76-1.96-1.21-2.69c-0.45-0.73-0.99-1.31-1.62-1.74c-0.63-0.44-1.36-0.75-2.2-0.94
			c-0.84-0.19-1.83-0.29-2.96-0.29c-1.74,0-3.29,0.3-4.63,0.9c-1.34,0.6-2.46,1.45-3.37,2.57c-0.9,1.11-1.59,2.46-2.06,4.02
			c-0.47,1.57-0.7,3.34-0.7,5.3c0,2.1,0.28,4.05,0.85,5.86c0.56,1.81,1.34,3.38,2.33,4.7c0.98,1.32,2.16,2.36,3.51,3.1
			c1.36,0.74,2.83,1.11,4.41,1.11c1.29,0,2.4-0.12,3.32-0.36c0.92-0.24,1.71-0.61,2.37-1.11c0.66-0.5,1.23-1.14,1.7-1.91
			c0.47-0.78,0.9-1.68,1.28-2.71c0.1-0.26,0.25-0.44,0.46-0.56c0.21-0.11,0.43-0.17,0.65-0.17c0.16,0,0.36,0.02,0.61,0.07
			c0.24,0.05,0.44,0.11,0.61,0.17c-0.19,0.55-0.4,1.17-0.61,1.86c-0.21,0.69-0.43,1.41-0.65,2.13c-0.23,0.73-0.43,1.45-0.61,2.18
			c-0.18,0.73-0.33,1.43-0.46,2.11c-1.58,0.29-3.2,0.5-4.84,0.63C206.19,304.55,204.38,304.61,202.41,304.61z"/>
		<path class="st0" d="M263.1,300.45c0,0.32,0.02,0.59,0.07,0.8c0.05,0.21,0.18,0.4,0.39,0.56c0.21,0.16,0.52,0.3,0.92,0.41
			c0.4,0.11,0.94,0.22,1.62,0.31c0.32,0.07,0.48,0.34,0.48,0.82c0,0.1-0.01,0.24-0.02,0.44c-0.02,0.19-0.04,0.35-0.07,0.48
			c-1.03-0.06-2.14-0.12-3.32-0.17c-1.18-0.05-2.22-0.07-3.12-0.07c-0.94,0-1.99,0.02-3.15,0.07c-1.16,0.05-2.26,0.1-3.29,0.17
			c-0.07-0.13-0.1-0.29-0.1-0.48c0-0.19,0-0.34,0-0.44c0-0.52,0.16-0.79,0.48-0.82c0.68-0.1,1.22-0.2,1.62-0.31
			c0.4-0.11,0.7-0.25,0.9-0.41c0.19-0.16,0.32-0.35,0.39-0.56c0.06-0.21,0.1-0.48,0.1-0.8v-24.27c0-0.32-0.03-0.59-0.1-0.8
			c-0.06-0.21-0.19-0.4-0.39-0.56c-0.19-0.16-0.49-0.3-0.9-0.41c-0.4-0.11-0.94-0.22-1.62-0.32c-0.32-0.1-0.48-0.37-0.48-0.82
			c0-0.1,0-0.24,0-0.44c0-0.19,0.03-0.37,0.1-0.53c1.03,0.07,2.13,0.12,3.29,0.17c1.16,0.05,2.21,0.07,3.15,0.07
			c0.9,0,1.95-0.02,3.12-0.07c1.18-0.05,2.28-0.1,3.32-0.17c0.03,0.16,0.06,0.34,0.07,0.53c0.02,0.19,0.02,0.34,0.02,0.44
			c0,0.45-0.16,0.73-0.48,0.82c-0.68,0.1-1.22,0.2-1.62,0.32c-0.4,0.11-0.71,0.25-0.92,0.41c-0.21,0.16-0.34,0.35-0.39,0.56
			c-0.05,0.21-0.07,0.48-0.07,0.8V300.45z"/>
		<path class="st0" d="M335.92,293.47v-17.2c0-0.71-0.24-1.21-0.73-1.5c-0.48-0.29-1.34-0.52-2.57-0.68
			c-0.42-0.1-0.63-0.4-0.63-0.92c0-0.1,0-0.23,0-0.39c0-0.16,0.03-0.32,0.1-0.48c0.81,0.1,1.6,0.16,2.37,0.19
			c0.78,0.03,1.68,0.05,2.71,0.05c1.03,0,1.92-0.02,2.66-0.05c0.74-0.03,1.49-0.1,2.23-0.19c0.03,0.16,0.06,0.32,0.07,0.48
			c0.02,0.16,0.02,0.29,0.02,0.39c0,0.55-0.19,0.86-0.58,0.92c-1.07,0.16-1.79,0.39-2.18,0.68c-0.39,0.29-0.58,0.76-0.58,1.4v28.34
			c-0.13,0.03-0.35,0.06-0.65,0.07c-0.31,0.02-0.51,0.02-0.61,0.02c-0.23,0-0.47-0.06-0.73-0.17c-0.26-0.11-0.53-0.35-0.82-0.7
			l-19.09-24.22v20.93c0,0.32,0.02,0.59,0.07,0.8c0.05,0.21,0.18,0.39,0.39,0.53c0.21,0.15,0.52,0.27,0.92,0.39
			c0.4,0.11,0.94,0.24,1.62,0.36c0.16,0.03,0.3,0.11,0.41,0.22c0.11,0.11,0.17,0.35,0.17,0.7c0,0.23-0.03,0.5-0.1,0.82
			c-0.81-0.06-1.57-0.12-2.28-0.17c-0.71-0.05-1.53-0.07-2.47-0.07c-0.94,0-1.83,0.02-2.69,0.07c-0.86,0.05-1.64,0.1-2.35,0.17
			c-0.07-0.13-0.1-0.27-0.1-0.44c0-0.16,0-0.29,0-0.39c0-0.32,0.06-0.55,0.17-0.68c0.11-0.13,0.25-0.21,0.41-0.24
			c1.16-0.19,1.94-0.44,2.33-0.73c0.39-0.29,0.58-0.74,0.58-1.36v-24.51c0-0.52-0.17-0.91-0.51-1.19c-0.34-0.27-1.11-0.49-2.3-0.65
			c-0.39-0.1-0.58-0.4-0.58-0.92c0-0.06,0-0.14,0-0.22c0-0.08,0.02-0.17,0.05-0.27l0.05-0.39c0.45,0.03,0.89,0.06,1.31,0.07
			c0.42,0.02,0.84,0.04,1.26,0.07c0.71,0.03,1.43,0.06,2.16,0.07c0.73,0.02,1.32,0.02,1.77,0.02c0.94,0,1.55,0.04,1.84,0.12
			c0.29,0.08,0.55,0.23,0.78,0.46L335.92,293.47z"/>
		<path class="st0" d="M399.15,293.37h-10.17l-2.52,6.73c-0.1,0.16-0.16,0.34-0.19,0.53c-0.03,0.19-0.05,0.34-0.05,0.44
			c0,0.36,0.17,0.65,0.51,0.87c0.34,0.23,1.02,0.42,2.06,0.58c0.45,0.07,0.68,0.37,0.68,0.92c0,0.23-0.03,0.5-0.1,0.82
			c-0.87-0.06-1.79-0.12-2.76-0.17s-1.92-0.07-2.86-0.07c-0.65,0-1.32,0.02-2.03,0.05c-0.71,0.03-1.5,0.1-2.37,0.19
			c-0.07-0.13-0.1-0.27-0.1-0.44c0-0.16,0-0.29,0-0.39c0-0.61,0.21-0.94,0.63-0.97c1-0.19,1.72-0.4,2.16-0.63
			c0.44-0.23,0.78-0.61,1.04-1.16l11.68-27.91c0.26-0.55,0.65-0.82,1.16-0.82c0.16,0,0.32,0.01,0.48,0.02
			c0.16,0.02,0.34,0.04,0.53,0.07l11.68,28.78c0.19,0.48,0.56,0.85,1.11,1.09c0.55,0.24,1.15,0.41,1.79,0.51
			c0.48,0.1,0.73,0.42,0.73,0.97c0,0.26-0.03,0.55-0.1,0.87c-1.03-0.06-2.05-0.12-3.05-0.17c-1-0.05-1.94-0.07-2.81-0.07
			c-0.45,0-1,0.01-1.65,0.02c-0.65,0.02-1.31,0.04-1.99,0.07c-0.68,0.03-1.35,0.06-2.01,0.07c-0.66,0.02-1.22,0.04-1.67,0.07
			c-0.06-0.13-0.1-0.27-0.1-0.44c0-0.16,0-0.29,0-0.39c0-0.29,0.06-0.51,0.17-0.65c0.11-0.15,0.23-0.23,0.36-0.27
			c0.84-0.16,1.46-0.35,1.87-0.56c0.4-0.21,0.61-0.52,0.61-0.94c0-0.19-0.05-0.44-0.15-0.73L399.15,293.37z M398.23,290.95
			l-4.12-10.9l-4.21,10.9H398.23z"/>
		<path class="st0" d="M529.45,273.46c0.13-0.29,0.34-0.52,0.63-0.68c0.29-0.16,1-0.24,2.13-0.24c0.26,0,0.64-0.01,1.14-0.02
			c0.5-0.02,1.04-0.03,1.62-0.05c0.58-0.02,1.16-0.04,1.74-0.07c0.58-0.03,1.08-0.06,1.5-0.1c0.06,0.16,0.1,0.32,0.1,0.48
			c0,0.16,0,0.29,0,0.39c0,0.52-0.18,0.82-0.53,0.92c-0.65,0.1-1.16,0.19-1.53,0.29c-0.37,0.1-0.65,0.22-0.85,0.36
			c-0.19,0.15-0.32,0.31-0.39,0.51c-0.07,0.19-0.1,0.42-0.1,0.68c0,0.07,0.02,0.68,0.07,1.84c0.05,1.16,0.12,2.6,0.22,4.31
			c0.1,1.71,0.19,3.57,0.29,5.57c0.1,2,0.19,3.9,0.29,5.69c0.1,1.79,0.18,3.35,0.24,4.68c0.06,1.33,0.11,2.13,0.15,2.42
			c0,0.32,0.04,0.59,0.12,0.8c0.08,0.21,0.23,0.4,0.44,0.56c0.21,0.16,0.51,0.3,0.9,0.41c0.39,0.11,0.89,0.22,1.5,0.31
			c0.35,0.07,0.53,0.37,0.53,0.92c0,0.23-0.03,0.5-0.1,0.82c-1.13-0.06-2.16-0.12-3.08-0.17c-0.92-0.05-1.96-0.07-3.12-0.07
			c-1.07,0-2.2,0.02-3.42,0.07c-1.21,0.05-2.22,0.1-3.03,0.17c-0.07-0.32-0.1-0.6-0.1-0.82c0-0.36,0.06-0.6,0.17-0.73
			c0.11-0.13,0.22-0.19,0.31-0.19c1.32-0.23,2.18-0.49,2.57-0.8c0.39-0.31,0.58-0.78,0.58-1.43c0-0.1-0.02-0.61-0.07-1.55
			c-0.05-0.94-0.1-2.1-0.15-3.49c-0.05-1.39-0.11-2.89-0.19-4.51c-0.08-1.62-0.16-3.13-0.24-4.55c-0.08-1.42-0.15-2.65-0.19-3.68
			c-0.05-1.03-0.09-1.66-0.12-1.89l-9.93,23.11c-0.16,0.29-0.3,0.51-0.41,0.65c-0.11,0.15-0.27,0.22-0.46,0.22
			c-0.06,0-0.16,0-0.29,0c-0.13,0-0.23-0.02-0.29-0.05l-11.24-26.94c-0.03,0.42-0.07,1.27-0.12,2.54c-0.05,1.28-0.11,2.74-0.19,4.38
			c-0.08,1.65-0.16,3.38-0.24,5.21c-0.08,1.82-0.15,3.51-0.22,5.06c-0.07,1.55-0.12,2.85-0.17,3.9c-0.05,1.05-0.07,1.62-0.07,1.72
			c0,0.29,0.03,0.54,0.1,0.75c0.06,0.21,0.19,0.4,0.39,0.56c0.19,0.16,0.48,0.3,0.87,0.41c0.39,0.11,0.92,0.24,1.6,0.36
			c0.36,0.07,0.53,0.37,0.53,0.92c0,0.1-0.01,0.22-0.02,0.36c-0.02,0.15-0.04,0.3-0.07,0.46c-0.87-0.06-1.68-0.12-2.42-0.17
			c-0.74-0.05-1.49-0.07-2.23-0.07c-0.65,0-1.45,0.02-2.42,0.07s-1.84,0.1-2.62,0.17c-0.07-0.13-0.1-0.27-0.1-0.44
			c0-0.16,0-0.29,0-0.39c0-0.36,0.05-0.59,0.15-0.7c0.1-0.11,0.23-0.19,0.39-0.22c1-0.23,1.73-0.48,2.18-0.77
			c0.45-0.29,0.71-0.73,0.78-1.31c0-0.26,0.03-1.04,0.1-2.35c0.06-1.31,0.15-2.86,0.24-4.65c0.1-1.79,0.19-3.7,0.29-5.72
			c0.1-2.02,0.19-3.89,0.27-5.62c0.08-1.73,0.15-3.17,0.19-4.34c0.05-1.16,0.07-1.78,0.07-1.84c0-0.55-0.18-0.94-0.53-1.19
			c-0.36-0.24-1.13-0.46-2.33-0.65c-0.36-0.03-0.53-0.34-0.53-0.92c0-0.1,0-0.23,0-0.39c0-0.16,0.03-0.32,0.1-0.48
			c0.42,0.03,1,0.07,1.74,0.1c0.74,0.03,1.5,0.06,2.28,0.07c0.78,0.02,1.5,0.03,2.18,0.05c0.68,0.02,1.16,0.02,1.45,0.02
			c0.58,0,1.03,0.02,1.36,0.07c0.32,0.05,0.58,0.11,0.78,0.17c0.19,0.07,0.33,0.16,0.41,0.29c0.08,0.13,0.15,0.26,0.22,0.39
			l9.01,21.75L529.45,273.46z"/>
		<path class="st0" d="M590.6,274.96v11.68h6.83c0.61,0,1.03-0.25,1.26-0.75c0.23-0.5,0.42-1.32,0.58-2.45
			c0.03-0.26,0.13-0.43,0.29-0.51c0.16-0.08,0.37-0.12,0.63-0.12c0.1,0,0.25,0.01,0.46,0.02c0.21,0.02,0.36,0.04,0.46,0.07
			c-0.07,0.74-0.12,1.61-0.17,2.59c-0.05,0.99-0.07,1.82-0.07,2.5c0,0.58,0.02,1.27,0.05,2.06c0.03,0.79,0.1,1.69,0.19,2.69
			c-0.1,0.07-0.25,0.11-0.46,0.12c-0.21,0.02-0.36,0.02-0.46,0.02c-0.58,0-0.89-0.23-0.92-0.68c-0.19-1.23-0.41-2.06-0.65-2.49
			c-0.24-0.44-0.64-0.65-1.19-0.65h-6.83v10.85c0,0.68,0.42,1.13,1.26,1.36c0.84,0.23,2.26,0.34,4.26,0.34h2.03
			c0.97,0,1.78-0.13,2.45-0.39c0.66-0.26,1.25-0.62,1.77-1.09c0.52-0.47,0.97-1.02,1.36-1.65c0.39-0.63,0.78-1.33,1.16-2.11
			c0.1-0.23,0.32-0.34,0.68-0.34c0.16,0,0.36,0.05,0.58,0.15c0.23,0.1,0.45,0.19,0.68,0.29c-0.07,0.26-0.14,0.5-0.22,0.73
			c-0.08,0.23-0.15,0.45-0.22,0.68c-0.16,0.36-0.29,0.74-0.39,1.16c-0.1,0.42-0.19,0.76-0.29,1.02c-0.07,0.32-0.14,0.69-0.22,1.09
			c-0.08,0.4-0.16,0.79-0.24,1.16c-0.08,0.37-0.16,0.7-0.24,0.99c-0.08,0.29-0.14,0.48-0.17,0.58c-0.13,0.26-0.39,0.39-0.77,0.39
			c-0.26,0-0.63-0.02-1.11-0.05c-0.48-0.03-1.01-0.06-1.57-0.07c-0.57-0.02-1.14-0.04-1.72-0.07c-0.58-0.03-1.08-0.05-1.5-0.05h-11
			c-0.94,0-2.01,0.02-3.22,0.07c-1.21,0.05-2.3,0.1-3.27,0.17c-0.07-0.13-0.1-0.3-0.1-0.51c0-0.21,0-0.36,0-0.46
			c0-0.48,0.16-0.74,0.48-0.78c1.23-0.23,2.11-0.47,2.64-0.73c0.53-0.26,0.8-0.71,0.8-1.36v-24.27c0-0.32-0.05-0.59-0.15-0.8
			c-0.1-0.21-0.28-0.39-0.56-0.53c-0.27-0.15-0.63-0.27-1.07-0.39c-0.44-0.11-0.99-0.23-1.67-0.36c-0.32-0.1-0.48-0.39-0.48-0.87
			c0-0.16,0-0.32,0-0.46c0-0.15,0.03-0.3,0.1-0.46c1.39,0.1,2.62,0.16,3.68,0.19c1.07,0.03,1.99,0.05,2.76,0.05h9.93
			c1.45,0,2.71-0.05,3.76-0.15c1.05-0.1,1.77-0.15,2.16-0.15c0.36,0,0.61,0.15,0.77,0.44c0.1,0.26,0.18,0.73,0.24,1.43
			c0.06,0.69,0.18,1.41,0.34,2.16c0.1,0.55,0.21,1.08,0.34,1.6c0.13,0.52,0.32,1.15,0.58,1.89c-0.16,0.07-0.34,0.13-0.53,0.19
			c-0.19,0.07-0.39,0.1-0.58,0.1c-0.36,0-0.61-0.15-0.78-0.44c-0.39-0.84-0.77-1.56-1.14-2.16c-0.37-0.6-0.79-1.08-1.26-1.45
			c-0.47-0.37-1.02-0.64-1.65-0.8c-0.63-0.16-1.38-0.24-2.25-0.24H590.6z"/>
		<path class="st0" d="M672.63,300.54c0.36,0.55,0.81,0.94,1.36,1.19c0.55,0.24,1.44,0.44,2.66,0.61c0.16,0.03,0.31,0.11,0.46,0.24
			c0.15,0.13,0.22,0.36,0.22,0.68c0,0.1-0.01,0.26-0.02,0.48c-0.02,0.23-0.04,0.4-0.07,0.53c-0.55-0.03-1.16-0.06-1.82-0.1
			c-0.66-0.03-1.32-0.06-1.99-0.07c-0.66-0.02-1.3-0.03-1.91-0.05c-0.61-0.02-1.13-0.02-1.55-0.02c-1.03,0-2.24,0.02-3.61,0.05
			c-1.37,0.03-2.67,0.1-3.9,0.19c-0.07-0.13-0.1-0.27-0.1-0.44c0-0.16,0-0.29,0-0.39c0-0.32,0.06-0.55,0.17-0.68
			c0.11-0.13,0.25-0.21,0.41-0.24c0.87-0.16,1.52-0.34,1.94-0.53c0.42-0.19,0.63-0.47,0.63-0.82c0-0.29-0.15-0.63-0.44-1.02
			l-6.15-9.64l-6.06,8.82c-0.26,0.36-0.46,0.68-0.61,0.97c-0.15,0.29-0.22,0.57-0.22,0.82c0,0.36,0.19,0.64,0.58,0.85
			c0.39,0.21,1.02,0.4,1.89,0.56c0.16,0.03,0.31,0.11,0.44,0.22c0.13,0.11,0.19,0.35,0.19,0.7c0,0.1,0,0.23,0,0.39
			c0,0.16-0.03,0.31-0.1,0.44c-0.84-0.06-1.77-0.12-2.79-0.17c-1.02-0.05-1.91-0.07-2.69-0.07c-0.78,0-1.62,0.02-2.52,0.05
			c-0.9,0.03-1.81,0.1-2.71,0.19c-0.07-0.13-0.1-0.28-0.1-0.46c0-0.18,0-0.32,0-0.41c0-0.55,0.21-0.86,0.63-0.92
			c0.87-0.16,1.62-0.4,2.25-0.73c0.63-0.32,1.09-0.71,1.38-1.16l8.62-12.5l-8.09-12.35c-0.29-0.45-0.71-0.81-1.26-1.07
			c-0.55-0.26-1.39-0.44-2.52-0.53c-0.45-0.03-0.68-0.36-0.68-0.97c0-0.1,0-0.23,0-0.39c0-0.16,0.03-0.32,0.1-0.48
			c0.48,0.03,1.04,0.07,1.67,0.1c0.63,0.03,1.26,0.06,1.89,0.07c0.63,0.02,1.23,0.03,1.79,0.05c0.57,0.02,1.04,0.02,1.43,0.02
			c0.42,0,0.94-0.01,1.57-0.02c0.63-0.02,1.31-0.03,2.03-0.05c0.73-0.02,1.45-0.04,2.16-0.07c0.71-0.03,1.36-0.06,1.94-0.1
			c0.03,0.16,0.06,0.32,0.07,0.48c0.02,0.16,0.02,0.29,0.02,0.39c0,0.58-0.19,0.89-0.58,0.92c-1.62,0.13-2.42,0.48-2.42,1.07
			c0,0.29,0.15,0.65,0.44,1.07l5.28,8.48l5.47-7.95c0.19-0.29,0.35-0.54,0.46-0.75c0.11-0.21,0.17-0.41,0.17-0.61
			c0-0.61-0.81-1.05-2.42-1.31c-0.42-0.03-0.63-0.34-0.63-0.92c0-0.1,0.01-0.23,0.02-0.39c0.02-0.16,0.04-0.32,0.07-0.48
			c0.97,0.1,1.96,0.16,2.98,0.19c1.02,0.03,1.88,0.05,2.59,0.05c0.94,0,1.82-0.02,2.66-0.05c0.84-0.03,1.63-0.1,2.37-0.19
			c0.03,0.16,0.06,0.33,0.07,0.51c0.02,0.18,0.02,0.32,0.02,0.41c0,0.29-0.07,0.51-0.19,0.65c-0.13,0.15-0.28,0.23-0.44,0.27
			c-0.94,0.1-1.7,0.28-2.28,0.56c-0.58,0.27-1.07,0.69-1.45,1.24l-7.85,11.05L672.63,300.54z"/>
		<path class="st0" d="M724.37,300.45c0,0.32,0.02,0.59,0.07,0.8c0.05,0.21,0.18,0.4,0.39,0.56c0.21,0.16,0.52,0.3,0.92,0.41
			c0.4,0.11,0.94,0.22,1.62,0.31c0.32,0.07,0.48,0.34,0.48,0.82c0,0.1-0.01,0.24-0.02,0.44c-0.02,0.19-0.04,0.35-0.07,0.48
			c-1.03-0.06-2.14-0.12-3.32-0.17c-1.18-0.05-2.22-0.07-3.12-0.07c-0.94,0-1.99,0.02-3.15,0.07s-2.26,0.1-3.29,0.17
			c-0.07-0.13-0.1-0.29-0.1-0.48c0-0.19,0-0.34,0-0.44c0-0.52,0.16-0.79,0.48-0.82c0.68-0.1,1.22-0.2,1.62-0.31
			c0.4-0.11,0.7-0.25,0.9-0.41c0.19-0.16,0.32-0.35,0.39-0.56c0.06-0.21,0.1-0.48,0.1-0.8v-24.27c0-0.32-0.03-0.59-0.1-0.8
			c-0.07-0.21-0.19-0.4-0.39-0.56c-0.19-0.16-0.49-0.3-0.9-0.41c-0.4-0.11-0.94-0.22-1.62-0.32c-0.32-0.1-0.48-0.37-0.48-0.82
			c0-0.1,0-0.24,0-0.44c0-0.19,0.03-0.37,0.1-0.53c1.03,0.07,2.13,0.12,3.29,0.17s2.21,0.07,3.15,0.07c0.9,0,1.95-0.02,3.12-0.07
			c1.18-0.05,2.28-0.1,3.32-0.17c0.03,0.16,0.06,0.34,0.07,0.53c0.02,0.19,0.02,0.34,0.02,0.44c0,0.45-0.16,0.73-0.48,0.82
			c-0.68,0.1-1.22,0.2-1.62,0.32c-0.4,0.11-0.71,0.25-0.92,0.41c-0.21,0.16-0.34,0.35-0.39,0.56c-0.05,0.21-0.07,0.48-0.07,0.8
			V300.45z"/>
		<path class="st0" d="M784.44,304.61c-2.71,0-5.09-0.42-7.12-1.26c-2.03-0.84-3.71-1.99-5.04-3.46c-1.32-1.47-2.32-3.2-2.98-5.18
			c-0.66-1.99-0.99-4.13-0.99-6.42c0-1.91,0.32-3.83,0.97-5.77c0.65-1.94,1.66-3.69,3.05-5.26c1.39-1.57,3.16-2.84,5.33-3.83
			c2.16-0.98,4.75-1.48,7.75-1.48c1.65,0,3.19,0.11,4.63,0.34c1.44,0.23,3,0.57,4.68,1.02c0.06,0.87,0.19,1.99,0.39,3.34
			c0.19,1.36,0.47,2.68,0.82,3.97c-0.16,0.03-0.37,0.07-0.63,0.12c-0.26,0.05-0.45,0.07-0.58,0.07c-0.26,0-0.48-0.04-0.65-0.12
			c-0.18-0.08-0.3-0.25-0.36-0.51c-0.36-1.07-0.76-1.96-1.21-2.69c-0.45-0.73-0.99-1.31-1.62-1.74c-0.63-0.44-1.37-0.75-2.2-0.94
			c-0.84-0.19-1.83-0.29-2.96-0.29c-1.74,0-3.29,0.3-4.63,0.9c-1.34,0.6-2.46,1.45-3.37,2.57c-0.9,1.11-1.59,2.46-2.06,4.02
			c-0.47,1.57-0.7,3.34-0.7,5.3c0,2.1,0.28,4.05,0.85,5.86c0.56,1.81,1.34,3.38,2.33,4.7c0.98,1.32,2.16,2.36,3.51,3.1
			c1.36,0.74,2.83,1.11,4.41,1.11c1.29,0,2.4-0.12,3.32-0.36c0.92-0.24,1.71-0.61,2.37-1.11c0.66-0.5,1.23-1.14,1.7-1.91
			c0.47-0.78,0.9-1.68,1.28-2.71c0.1-0.26,0.25-0.44,0.46-0.56c0.21-0.11,0.43-0.17,0.65-0.17c0.16,0,0.36,0.02,0.61,0.07
			c0.24,0.05,0.44,0.11,0.61,0.17c-0.19,0.55-0.4,1.17-0.61,1.86c-0.21,0.69-0.43,1.41-0.65,2.13c-0.23,0.73-0.43,1.45-0.61,2.18
			c-0.18,0.73-0.33,1.43-0.46,2.11c-1.58,0.29-3.2,0.5-4.84,0.63C788.21,304.55,786.4,304.61,784.44,304.61z"/>
		<path class="st0" d="M855.93,293.37h-10.17l-2.52,6.73c-0.1,0.16-0.16,0.34-0.19,0.53c-0.03,0.19-0.05,0.34-0.05,0.44
			c0,0.36,0.17,0.65,0.51,0.87c0.34,0.23,1.02,0.42,2.06,0.58c0.45,0.07,0.68,0.37,0.68,0.92c0,0.23-0.03,0.5-0.1,0.82
			c-0.87-0.06-1.79-0.12-2.76-0.17c-0.97-0.05-1.92-0.07-2.86-0.07c-0.65,0-1.32,0.02-2.03,0.05c-0.71,0.03-1.5,0.1-2.37,0.19
			c-0.07-0.13-0.1-0.27-0.1-0.44c0-0.16,0-0.29,0-0.39c0-0.61,0.21-0.94,0.63-0.97c1-0.19,1.72-0.4,2.16-0.63
			c0.44-0.23,0.78-0.61,1.04-1.16l11.68-27.91c0.26-0.55,0.65-0.82,1.16-0.82c0.16,0,0.32,0.01,0.48,0.02
			c0.16,0.02,0.34,0.04,0.53,0.07l11.68,28.78c0.19,0.48,0.56,0.85,1.11,1.09c0.55,0.24,1.15,0.41,1.79,0.51
			c0.48,0.1,0.73,0.42,0.73,0.97c0,0.26-0.03,0.55-0.1,0.87c-1.03-0.06-2.05-0.12-3.05-0.17c-1-0.05-1.94-0.07-2.81-0.07
			c-0.45,0-1,0.01-1.65,0.02c-0.65,0.02-1.31,0.04-1.99,0.07c-0.68,0.03-1.35,0.06-2.01,0.07c-0.66,0.02-1.22,0.04-1.67,0.07
			c-0.07-0.13-0.1-0.27-0.1-0.44c0-0.16,0-0.29,0-0.39c0-0.29,0.06-0.51,0.17-0.65c0.11-0.15,0.23-0.23,0.36-0.27
			c0.84-0.16,1.46-0.35,1.87-0.56c0.4-0.21,0.61-0.52,0.61-0.94c0-0.19-0.05-0.44-0.15-0.73L855.93,293.37z M855.01,290.95
			l-4.12-10.9l-4.21,10.9H855.01z"/>
		<path class="st0" d="M933.8,293.47v-17.2c0-0.71-0.24-1.21-0.73-1.5c-0.48-0.29-1.34-0.52-2.57-0.68c-0.42-0.1-0.63-0.4-0.63-0.92
			c0-0.1,0-0.23,0-0.39c0-0.16,0.03-0.32,0.1-0.48c0.81,0.1,1.6,0.16,2.37,0.19c0.77,0.03,1.68,0.05,2.71,0.05
			c1.03,0,1.92-0.02,2.66-0.05c0.74-0.03,1.49-0.1,2.23-0.19c0.03,0.16,0.06,0.32,0.07,0.48c0.02,0.16,0.02,0.29,0.02,0.39
			c0,0.55-0.19,0.86-0.58,0.92c-1.07,0.16-1.79,0.39-2.18,0.68c-0.39,0.29-0.58,0.76-0.58,1.4v28.34c-0.13,0.03-0.35,0.06-0.65,0.07
			c-0.31,0.02-0.51,0.02-0.61,0.02c-0.23,0-0.47-0.06-0.73-0.17c-0.26-0.11-0.53-0.35-0.82-0.7l-19.09-24.22v20.93
			c0,0.32,0.02,0.59,0.07,0.8c0.05,0.21,0.18,0.39,0.39,0.53c0.21,0.15,0.52,0.27,0.92,0.39c0.4,0.11,0.94,0.24,1.62,0.36
			c0.16,0.03,0.3,0.11,0.41,0.22c0.11,0.11,0.17,0.35,0.17,0.7c0,0.23-0.03,0.5-0.1,0.82c-0.81-0.06-1.57-0.12-2.28-0.17
			c-0.71-0.05-1.53-0.07-2.47-0.07c-0.94,0-1.83,0.02-2.69,0.07c-0.86,0.05-1.64,0.1-2.35,0.17c-0.07-0.13-0.1-0.27-0.1-0.44
			c0-0.16,0-0.29,0-0.39c0-0.32,0.06-0.55,0.17-0.68c0.11-0.13,0.25-0.21,0.41-0.24c1.16-0.19,1.94-0.44,2.33-0.73
			c0.39-0.29,0.58-0.74,0.58-1.36v-24.51c0-0.52-0.17-0.91-0.51-1.19c-0.34-0.27-1.11-0.49-2.3-0.65c-0.39-0.1-0.58-0.4-0.58-0.92
			c0-0.06,0-0.14,0-0.22c0-0.08,0.02-0.17,0.05-0.27l0.05-0.39c0.45,0.03,0.89,0.06,1.31,0.07c0.42,0.02,0.84,0.04,1.26,0.07
			c0.71,0.03,1.43,0.06,2.16,0.07c0.73,0.02,1.32,0.02,1.77,0.02c0.94,0,1.55,0.04,1.84,0.12c0.29,0.08,0.55,0.23,0.78,0.46
			L933.8,293.47z"/>
		<path class="st0" d="M998.09,293.37h-10.17l-2.52,6.73c-0.1,0.16-0.16,0.34-0.19,0.53c-0.03,0.19-0.05,0.34-0.05,0.44
			c0,0.36,0.17,0.65,0.51,0.87c0.34,0.23,1.02,0.42,2.06,0.58c0.45,0.07,0.68,0.37,0.68,0.92c0,0.23-0.03,0.5-0.1,0.82
			c-0.87-0.06-1.79-0.12-2.76-0.17c-0.97-0.05-1.92-0.07-2.86-0.07c-0.65,0-1.32,0.02-2.03,0.05c-0.71,0.03-1.5,0.1-2.37,0.19
			c-0.07-0.13-0.1-0.27-0.1-0.44c0-0.16,0-0.29,0-0.39c0-0.61,0.21-0.94,0.63-0.97c1-0.19,1.72-0.4,2.16-0.63
			c0.44-0.23,0.78-0.61,1.04-1.16l11.68-27.91c0.26-0.55,0.65-0.82,1.16-0.82c0.16,0,0.32,0.01,0.48,0.02
			c0.16,0.02,0.34,0.04,0.53,0.07l11.68,28.78c0.19,0.48,0.56,0.85,1.11,1.09c0.55,0.24,1.15,0.41,1.79,0.51
			c0.48,0.1,0.73,0.42,0.73,0.97c0,0.26-0.03,0.55-0.1,0.87c-1.03-0.06-2.05-0.12-3.05-0.17c-1-0.05-1.94-0.07-2.81-0.07
			c-0.45,0-1,0.01-1.65,0.02c-0.65,0.02-1.31,0.04-1.99,0.07c-0.68,0.03-1.35,0.06-2.01,0.07c-0.66,0.02-1.22,0.04-1.67,0.07
			c-0.07-0.13-0.1-0.27-0.1-0.44c0-0.16,0-0.29,0-0.39c0-0.29,0.06-0.51,0.17-0.65c0.11-0.15,0.23-0.23,0.36-0.27
			c0.84-0.16,1.46-0.35,1.87-0.56c0.4-0.21,0.61-0.52,0.61-0.94c0-0.19-0.05-0.44-0.15-0.73L998.09,293.37z M997.17,290.95
			l-4.12-10.9l-4.21,10.9H997.17z"/>
	</g>
	<path class="st0" d="M503.93,36c1.38,1.38,3.76,0.43,3.8-1.53c0.16-7.21,2.02-20.34,13.51-19.99c15.82,0.49,26.77,23.61,46,22.88
		c17.66-0.67,33.67-9.76,25.99-30.46c-0.73-1.96-3.53-1.94-4.2,0.04c-2.28,6.67-7.36,16.71-17.41,17.03
		c-15.09,0.49-26.28-26.04-47.94-23.85C503.82,2.14,491.73,23.79,503.93,36z"/>
</g>
</svg>
