<svg xmlns="http://www.w3.org/2000/svg" viewBox="0 0 5140.46 1254.94"><defs><style>.cls-1{fill:#fff;}</style></defs><g id="Capa_2" data-name="Capa 2"><g id="Capa_1-2" data-name="Capa 1"><path class="cls-1" d="M301.79,885.5c38.06,96.43-13.5,176.65-120.17,185.26-28,2.25-56.84,4.78-83-10.49C49.07,1053.17,31.09,1008,0,978.62c27.74-6.14,34.14,19.47,47.82,33.16,18.09,18.11,39,30.36,62.9,38.29,18.38,7.07,37.65,6,56.69,5.71.92,0,1.83,0,2.74-.06,73.29-1.86,115.37-34.92,122.9-94.51,2.58-20.4,1.11-43.92-4.55-70.36-16.39-36.68-51.48-49-84.23-63.85-22.49-10.21-46.43-17.27-67.66-30.24-40.8-25-49.93-53.53-27-83.52,21.83-28.6,70.67-33.92,96.27-6.85,22.29,23.58,47.38,63,74.57,25,20.36-28.47-21.32-54-47.32-72.7-6.15-4.41-13.86-6.18-21-8.9a168.83,168.83,0,0,0-20-6.38h0c-23.9-6-47.48-5.84-70.73.66a152.43,152.43,0,0,0-29.6,11.82C6,706.72,5.91,789.33,91.67,839.41c31.58,18.45,68.08,26.65,98.71,46.92,31.87,21.08,51.81,47.72,30,86.72-18.18,32.53-76.77,46.63-100,16.15C88,946.64,42.34,939.42,0,921.06c43.88,2.16,95.1-19.49,115.34,48.05,7.56,25.21,40.52,25.5,66.09,20.29,20.43-4.17,33.78-16.66,36.55-38.7,3.84-30.65-15.43-45.42-39.1-56.41-38.07-17.69-78.17-31.66-114.43-52.42C24.67,819.09,7,780.65,12.49,734.73c5.37-44.55,26-78.91,73.19-90.82h0l0,0c42.83-25.13,87.44-23.1,132.85-8.56,30,5.34,53,22.69,67.66,47.78,13.15,22.55,40.57,58.22,12.11,71.72-23.15,11-75.81,32.26-93.38-26-8.15-27-32.36-29.33-56.36-27-21.55,2.1-34.62,14.17-38.19,35.87-4.26,25.91,12.65,39,32,48.07,31,14.43,63.61,25.28,94.49,39.86C264.37,838.57,292,852.84,301.79,885.5Z"/><path class="cls-1" d="M496.4,815.81C542.64,819,591.19,796,634.86,828l1.32,47.54v0l-.09,0C587.61,901,535.87,882,485.86,886.55c-1.46,5.53-3.88,11-4.24,16.61-5,76.86-4.9,76.85,73.42,77.15,19.17.07,38.35-.25,57.5.43,39.36,1.4,21.67,32.16,26,51.47,5.51,24.56-8.37,28.56-28.78,28.37-65.18-.59-130.4-1.45-195.53.36-30.16.84-34-13.63-33.78-38.38q1.23-175.2.08-350.43c-.17-25.26,5-39.12,34.7-38.32,63.22,1.72,126.57,2.06,189.76,0,42.23-1.41,30.62,27.44,34.09,50.28,4.22,27.82-9.65,32.14-32.48,30.66-19.08-1.24-38.32-.12-57.49-.1C473.65,714.71,457.74,745.24,496.4,815.81Z"/><path class="cls-1" d="M1045.41,1058.9c-32.35-.53-71.78,21-95.86-26C911.29,958.39,868.17,886.31,815,814.07c0,66.89-2.32,133.89.86,200.62,1.94,40.5-15.4,47.32-50.49,46.83-33.43-.46-52.34-3.58-51.12-45.66,3.09-107.16.08-214.48,2-321.69.37-20.51-18.31-56.91,22.62-58.44,34.61-1.29,74.8-17.62,98.81,32.45,36.26,75.6,80.13,147.56,120.77,221.07l11.12-1.62c0-70.3,2.06-140.69-.82-210.87-1.57-38.25,15.2-44,47.66-43.51s54.12,2.1,53.09,45c-2.63,109.09-.11,218.31-1.54,327.45C1067.71,1025.09,1082.76,1059.5,1045.41,1058.9Z"/><path class="cls-1" d="M1246.77,1024.4c1.88,39.91-22,37.24-47.65,36-23.27-1.12-51.44,8.78-51-33.17,1.34-120.72.71-241.46.23-362.19-.17-42.78,31.41-28.68,53.45-30.71,24.24-2.23,45.83-2.17,44.64,33.67-2,59.34-.54,118.8-.48,178.21S1244,965.13,1246.77,1024.4Z"/><path class="cls-1" d="M1202.3,445.72c-101.35-15.88-177.13-88.11-188.43-181.64C1001.24,159.54,1033,75.49,1129.53,22.65c9.55-5.23,22.23-8.16,23-22.65,4.67,30.83-22.76,36.5-39.86,49.27-94,70.14-115,215.14-43.93,307.69,65.55,85.33,213.25,99.92,300,28.35,22.57-18.61,59.52-44.43,37.55-72.13s-54.4-.85-78.6,19.91c-53.18,45.62-121.72,49.75-174.19,12.26-50.5-36.08-71.54-113.23-47.79-175.27C1131.62,102.65,1184.39,70.51,1254,79c34.34,4.21,61.11,20.89,82.61,47.06,11,13.39,21.57,27.33,40.57,29.52,13.45,1.55,27.72,2.91,36.68-9.71,7.64-10.79,1.8-22.19-3.27-32.44-16.74-33.84-43.69-57-76.31-75.4-16.58-9.38-43.4-9.17-43.43-38.06,53.66,24.53,108.93,47.78,133.86,107.19,8.7,20.74,33.88,54.28,5.94,63.24-27,8.64-69.79,25.59-96-19.46-35.34-60.72-92.16-77.34-151.15-50.12-48.44,22.35-79.7,75.7-73.76,131.77,5.81,54.86,29,100.29,85.72,117.6,54.17,16.54,103.15,7.5,136.26-43.54,26.71-41.17,67.49-22.9,98.84-18,25.54,4,6.17,31.55-1.31,47C1390.94,414.51,1295.52,460.32,1202.3,445.72Z"/><path class="cls-1" d="M1751.23,816.05C1736,703.28,1644,623.77,1529.82,624.72c-122,1-208.68,79.42-223.47,202.07-13.09,108.53,58,209.82,164.61,234.44,40.59,16.78,81.07,15.14,121.44-.79h0C1701.34,1031.1,1766.66,930.56,1751.23,816.05ZM1529.64,980.48c-71.79,0-123.78-56.9-123.15-134.91.59-73.87,53.91-131.12,122.57-131.61,72.21-.51,122.39,55.82,121.62,136.54C1649.94,928.62,1601.7,980.42,1529.64,980.48Z"/><path class="cls-1" d="M1812.51,437.08c-36-2.59-75,11.7-92-42.58-7.56-24.17-45.3-10.42-68.9-10.05-36.26.57-74.87-14.23-98,40.06-13,30.69-62.44,7.38-101,12.12C1503.5,288.08,1552.78,144,1602.07,0c16.56,22.88,2.6,44.47-4.26,65.31-32.91,99.95-71.4,198-104,298-5.79,17.76-28.24,40-.23,54.87,20,10.62,39.34-.79,55.74-17.74,47.37-49,141-50.87,189.31-4.95,8.29,7.88,14.88,18,26.27,21.54,14.56,4.58,31,10.74,43.74-.58,12.35-11,1.95-25.22-2.08-37.2-34.76-103.36-71.59-206-108.87-308.45C1689.44,48.15,1673,26.66,1682.75,0c59.55,132.67,100,272.39,151.36,408.09C1842.94,431.42,1836.73,438.83,1812.51,437.08Z"/><path class="cls-1" d="M1969.38,354.46a2.73,2.73,0,0,1,.45.44A2.69,2.69,0,0,1,1969.38,354.46Z"/><path class="cls-1" d="M2093.36,901.36c53.07-43,61.69-104.54,39.46-167.18-21.94-61.85-70.55-94.52-135.15-98.87-49.58-3.34-99.57-.2-149.33-1.53-25.68-.69-38.6,6.18-38.32,35.06,1.13,120.51.9,241,.43,361.57-.08,21.89,8.16,29.39,30.21,30.78,44.77,2.83,79.91.52,71-60.7-2.53-17.39-13.94-45,12.82-54.75,31.42-11.47,45.14,14.57,55.08,37,29.54,66.66,75.67,97.48,154.33,71.48-8.33-33.67-30.81-58-48-84.38C2068.24,942.77,2061.84,926.89,2093.36,901.36ZM1954,863.1c-69.07,4-34.78-46.44-45.3-74.27,10.49-28-23.27-78.51,45.38-74.43,59.49,3.54,87.24,24.12,87.21,75C2041.22,840.73,2014.44,859.63,1954,863.1Z"/><path class="cls-1" d="M2178.31,332.94c-8.13,61.12-48.4,92.54-104.51,107.88-86.44,23.63-178.15-14.82-201.91-86.62-5.86-17.74-21.36-48.15,5.37-54.24s65.63-23,84.64,17.9c9.3,20,19.09,37.94,40.47,45.55,30.6,10.88,58.71,5.65,73.67-24.79,14.64-29.78-.93-51.67-28.38-65.09a688.19,688.19,0,0,0-63.22-27.33c-60.9-22.55-110.33-52.82-109.29-129,1-72.43,52.72-95.36,107.27-117.2,2,25-20.91,24-34.39,31.32-37.52,20.45-55.85,50.56-54.37,93.43,1.46,42.48,20.91,73.06,59,91.16,32.86,15.61,67.89,26.55,99.22,45.52,24.26,14.69,42.81,34,40.65,64.33-1.81,25.49-18.49,41.55-42,49.6-29.89,10.23-56.63,4.94-78.87-18.61-.88-.93-1.43-1.51-1.77-1.85a19.36,19.36,0,0,0-1.94-2.53c-19.79-24.26-46.15-57.32-73.35-25.85-24.32,28.13,11.94,55.2,33.83,74.65,54.26,48.19,162.23,39.46,210.33-14.89,31-35,32.9-88.46,4-127.39-18.82-25.31-44.33-42-73.16-53.95-19.47-8.09-39.53-14.85-58.05-25.07-25.83-14.24-50-30.37-50.37-64.13-.27-24.24,13.91-39,35.74-46.68,31.34-11.09,56.06.76,77.28,23.46,5.24,5.6,9.78,12,15.84,16.64,16.39,12.55,35.63,20.48,51.33,2.93,14.26-15.92-.2-31.65-8.35-46.75-14.33-26.51-55.55-28.79-58.3-65.34,32.51,21.92,70.81,37.91,85.42,78.73,6.67,18.62,22.62,47.79-2.68,53.93-25.95,6.3-63.86,23.5-85.07-16.06-3.58-6.68-5.08-14.71-9.49-20.68-14.17-19.12-33.64-23.22-56.1-17.9-18.2,4.3-31.58,12.71-34.37,33.17-3.12,22.8,9.82,37.68,27.07,46.3,32.41,16.2,67.15,27.72,99.7,43.67C2161.82,231.89,2186.29,272.87,2178.31,332.94Z"/><path class="cls-1" d="M2307.23,421.59c-12.68,18-21.5,19-106.14,11.19,50.3-145,100.23-288.88,150.15-432.78,18,32-2.33,59.43-12.27,86.88-33.23,91.78-67,183.39-98,275.94-5.94,17.71-25.54,41.86,2.24,55.33,23.13,11.22,42.11-4,59.23-22.75,39-42.75,139.72-43.76,182.21-3.75,5.54,5.21,9.57,12,15.53,16.87,14.44,11.78,31.2,17.55,47.75,7.57,17.6-10.61,8.36-27.29,3.9-41.29-26.18-82.07-59.07-161.86-85-244-13.56-43-40.53-82.7-34.9-130.84,49.52,134.55,99.23,269,148.21,403.77,4,10.94,12.95,31.55-8.18,31.05-30.46-.73-66.67,18.65-91-13.79C2440.31,367,2346,366.51,2307.23,421.59Z"/><path class="cls-1" d="M2646,661c11.42,11.13,16.64,19.81,7,34-17,25-33.58,50.32-51.47,77.23-39-52.08-65.39-111.81-137-120.11C2514.76,613.72,2603.08,619.15,2646,661Z"/><path class="cls-1" d="M2834.14,1187.31c-11.92,33.32-54.35,41.33-79.5,67.63-.46-1.86-1.51-3.78-1.31-5.56,3.11-28.62,56-27.9,42.59-57.75-9.77-21.83-48.24-18.89-70.42-34.19-97.89-67.55-171.47-158-236.71-255.51-33.94-50.71-65.64-103.34-80.21-170.06-31.5,83.57-27,158.61,13.9,230.63,59.38,104.49,131.77,197.3,237.69,259.54,12.2,7.17,29.81,12.09,25.32,32.9-128.59-72.81-224.73-176.25-287.94-309.32-39.51-83.18-30.65-165.06,9.61-243C2496.09,911.31,2601.42,1101.62,2834.14,1187.31Z"/><path class="cls-1" d="M3003,937c-25.64,61-41.67,115.53-93.18,140.52-43.56,21.14-85.85-4.56-122.41-30.92-51.48-37.12-86.11-86-98.72-149.17v0c-7.51-38.11-7-76.18.59-114.22,7.28-29.2,12.63-59.27,36.07-82.6C2800.67,959.11,2863.8,1017.24,3003,937Z"/><path class="cls-1" d="M2872.51,839.32c3.7-136-8.56-160.41-88.3-190.25,54.48-33.33,130.86-28,174.4,10.71,11.55,10.27,18.42,19.21,9,33.66C2938.11,738.89,2908.44,784.25,2872.51,839.32Z"/><path class="cls-1" d="M3039.73,396c-.76,33.28-11.39,42.57-43.36,41.32-57.35-2.25-114.95-2.66-172.24.13-36.07,1.76-45.73-11.35-45.23-45.78,1.85-126.18,1.08-252.41,1.29-378.62q-1.24-6.54-2.5-13.06a90.17,90.17,0,0,1,8.93,13c.45.76.87,1.53,1.28,2.31.22.39.42.78.63,1.18,13.13,106.87,3.55,214.23,5.86,321.36,1.73,80.41,2.66,82.55,85.28,82.63,36.43,0,72.95,2,109.29-1.62,13.26-1.32,28.59-3.8,29.24-21.4.67-18.18-14.64-20.22-28-22-22.86-3.12-46-1.35-69-2.92-37.44-2.56-54.79-22.22-55.24-59.35-.48-39.15,16.08-61.66,56.83-63.9,17.26-.95,34.64,0,51.73-2.1,16.09-1.93,39.73,2.42,41-21,1.34-24.12-22.3-21.8-38.47-24-19-2.53-38.3-1.18-57.46-2.65-38.11-2.93-53.43-24.76-53.58-61-.14-36,14.1-58.72,52.63-61.6,15.33-1.15,30.69-2.38,46-1.85,39.83,1.36,61.94-14.94,59.71-57.1a35,35,0,0,1,1-5.58c.18-.75.39-1.48.63-2.2A35.94,35.94,0,0,1,3031.26,0a88,88,0,0,1,.16,10.14c15.11,80.64,15.11,80.64-62.74,80.68-13.4,0-26.93,1.17-40.18-.23-34.2-3.59-50.88,4.39-50.7,45.33.18,40.51,11.72,55.3,51.75,50.27,20.73-2.6,42.11.43,63.11-.66,27.88-1.44,45.77,1,46.73,38.39,1,40.24-17.51,43.7-48.29,41.19-19-1.56-38.35,1-57.39-.35-33.51-2.42-56.16-1.72-56.23,45.41-.07,46.09,20.64,49.22,55.18,46.57,20.93-1.61,42.21,1.11,63.13-.56C3025.72,353.79,3040.54,360.41,3039.73,396Z"/><path class="cls-1" d="M3125.65,427.33c-37.5-27.12-10.17-103.31-11.77-157.86-2.64-89.76-1.49-179.64-1.94-269.47,19.69,22.42,16.7,50,16.85,76.57.5,88.06-.11,176.13.29,264.2.34,76.38,3.54,79.24,82.27,79.66,19.16.1,38.4,1.07,57.46-1,16.86-1.81,37.37-1.61,39.46-24.59,2.23-24.47-18.43-25.13-35.28-28.06a188.42,188.42,0,0,0-28.58-2.95c-28.66-.55-42.67-17.25-43.16-43.37-2-106.84-8.79-213.76,2.9-320.48,18.7,42.07,7.43,86.43,9.23,129.69,1.91,45.81.33,91.76.53,137.65.35,80.26.42,82.57,79,83,34.41.19,40.82,11.94,40.18,42.8-.6,29.55-4.37,46.49-40.17,44.25C3235.91,433.84,3163.74,454.88,3125.65,427.33Z"/><path class="cls-1" d="M3457.56,1017.42c-.5,36.78-13.09,45.52-46.84,43.63-53.29-3-106.79-2.12-160.2-2.89,0,0,0-.05,0-.07v.07c-13.33-1.54-12.39-11.8-12.33-20.94q1.32-196.14,2.89-392.27c29.6-17,59.25-16.07,88.94-.24q.6,160.37,1.18,320.74c23.81,18.52,51.68,10.3,77.56,9.9C3439.65,974.87,3458.11,977.59,3457.56,1017.42Z"/><path class="cls-1" d="M3488.19,394.1c1,44.58-23.32,42.1-53.88,43.27-31.82,1.22-48.34-3.24-47.54-42.21,2.72-131.67,1.5-263.43,1.79-395.16,19.58,22.37,17,49.89,17.12,76.45.57,93.72-.34,187.45.57,281.17.19,18.74-2.36,39.85,15.14,53,23.66,17.75,51.72-3.07,52-44.26.84-112.7,7.75-225.57-4.32-338.11-1-9.5-3.38-18.82.14-28.22,8.06,14.1,19.22,25,19,44.76C3486.6,161.19,3485.51,277.71,3488.19,394.1Z"/><path class="cls-1" d="M3605.52,645q.39,201.09.79,402.21c-71.56,34.09-95.34,21.5-95.3-50.3q.07-146.32,0-292.64c0-79.06,13-87.17,94.49-59.28Z"/><path class="cls-1" d="M3629.6,401.53c2.81-95.4,2-190.91,2.59-286.37-1.17-25-22.32-18.48-36.46-23h0c-61.79,4.06-61.79,4.06-57.25-80.34q0-5.91-.08-11.82A75.22,75.22,0,0,1,3547,11.91c.34.6.69,1.2,1,1.8.21,1.79.41,3.58.61,5.37.52,4.66,1,9.31,1.69,13.86a133.4,133.4,0,0,0,2.87,15c1.82,7,4.38,13.29,8.28,18.43,6.19,8.16,15.74,13.36,31,13.5a88,88,0,0,0,13.51-1q32.25,6,38.55,38c4.46,83.67.53,167.45,2.35,251.17.3,14.08-1.52,30.87,6,41.18h0c4.27,5.82,11.54,9.57,23.87,9.59,13.12,0,20.46-4.15,24.54-10.53,6.67-10.41,4.7-26.7,5.07-40.25,2.26-81.78-3.12-163.66,3-245.39,6.28-24.82,22.77-42,47.56-42.47,33.23-.59,48.91-14.84,55.36-37.71a90.1,90.1,0,0,0,2.57-12.67c.44-3.21.75-6.54,1-10,.1-1.51.17-3.05.22-4.6l.49-.89A84.77,84.77,0,0,1,3826.53,0l-1.59,13.59c7.16,54.76,1.74,98-72.24,81.62-15.93-3.53-23,8.9-28.81,21.17,1,95.43.78,190.88,3.6,286.23,1.23,41.55-25.81,33.44-49.48,33.84C3653.45,436.87,3628.4,442.28,3629.6,401.53Z"/><path class="cls-1" d="M4027.66,637.81c10.05,9.66,3.84,21.18.11,31.58-43.36,120.63-88.22,240.76-129.48,362.11-11.74,34.55-35.58,26.73-59.39,29.46-28.78,3.31-45.22-5.39-55.14-34.65C3745.67,913.92,3704.4,802.6,3666.85,690c-5.34-16-36.46-47.14,3.22-52.8,28.7-4.1,74.54-27.29,90.44,28.85,20.85,73.58,44.3,146.43,66.9,219.52,3.35,10.84,8.14,21.24,16.33,42.32,29.51-95.22,55.13-179.38,81.83-263.21C3933.71,639.14,4008.94,619.81,4027.66,637.81Z"/><path class="cls-1" d="M4068.94,437.82c-53.09-5.15-107.11-2.31-160.64-.58-27.18.88-36.59-7.76-36.21-35.51,1.73-126.13,1.63-252.28,2.19-378.42a13.67,13.67,0,0,1-.88-11.1h0q-.39-6.1-.77-12.21a90.22,90.22,0,0,1,8.43,12.18c.48.84.95,1.69,1.4,2.54.34.62.67,1.26,1,1.89.56,1.51,1.07,3,1.54,4.57.11.38.22.75.32,1.13A86.24,86.24,0,0,1,3888,35.55c3,100.93.77,202,1.46,303,.56,79.73,2.59,81.88,84.79,82.13,30.52.09,61.12,1.65,91.54-1.14,19-1.75,40.32-3.48,34.87-32.26-35.14-32-79.63-4.1-117.27-18.67-41.39-22.59-25.26-61.25-20.65-92.08,4.7-31.52,38.29-23.94,61.91-28.26,26.3-4.81,73.24,12.69,73.61-21.18.45-40.71-47.66-23.69-74.95-26.22-42.26-3.92-62.69-22.64-62.16-65.62.46-37.24,17.67-53.75,46.44-57.87a118.66,118.66,0,0,1,18.72-1l1.78,0q3.72.11,7.44.15c15.92.26,31.85-.06,47.67-.7l2.36-.1c41.58-4.66,19-41.39,30.31-61.2a14.8,14.8,0,0,1,.8-1.31c.33-.59.67-1.18,1-1.76A67.7,67.7,0,0,1,4126.2,0a98.2,98.2,0,0,1,.09,11.38c-7.84,25.79,32.83,66.64-24,77.23-24.88.71-49.94,3.66-74.59,1.61-38.9-3.23-57.93,4.06-57.47,51.28.47,48.63,26.16,45.95,58.19,44.56,19.15-.83,38.51,1.28,57.52-.59,30.74-3,44.7,5.52,44.81,40.19.1,35.2-15,42.14-45,39.53-20.95-1.82-42.4-2.18-63.21.27-17,2-46.94-13-48.38,11.6-1.53,26.08-21.37,60.48,14.1,81.8h0c46.07,3.1,93.83-16.62,138.14,10.22C4139.39,418.79,4127.56,443.51,4068.94,437.82Z"/><path class="cls-1" d="M4176.4,1018.26c2.25,38.84-15.79,44.29-47.75,42.78-27.64-1.3-52.25,4-51.31-39.18q3.82-175.18.17-350.51c-.88-44.94,27.41-35.42,53.11-37.4,29.62-2.29,46.83,3.73,45.37,39.59-2.42,59.28-.66,118.73-.66,178.12h.25C4175.58,907.21,4173.19,962.9,4176.4,1018.26Z"/><path class="cls-1" d="M4589.8,1058.36c-34.58,1.59-76.57,20.37-101.62-27.75-38.48-74-80.73-146-132.72-216.3,0,67.83-2.1,135.74.83,203.44,1.63,37.79-13.69,45.84-47.07,43.28-28.79-2.2-56.23,5.61-54.7-42.06,3.51-109.19.31-218.58,1.71-327.86.25-19.73-14.39-53.51,21.42-54.86,32.79-1.24,72.57-20,96.42,26.17,39.31,76.07,82.26,150.26,123.67,225.24l11.33-2.76c0-65.1,2.17-130.3-.8-195.26-1.87-40.84,7.42-57.43,53.08-57,43.53.39,49,16.95,48.24,54.11-2.25,105.41.45,210.94-1.72,316.36C4607.49,1021.64,4627.42,1056.64,4589.8,1058.36Z"/><path class="cls-1" d="M5140.46,909.55c-22.29.83-43.24-3.47-51.82,29.53-32.08,123.35-179.79,153.39-278.51,120.39-102.94-34.4-164.43-149.22-138.24-259.37,20.18-84.85,68.72-145.85,155.31-167.15,83.11-20.45,160.95-8.41,220.54,60.12,17.69,20.35,47,52.43,19.08,71.58-24.2,16.57-67.6,23.41-97.71-11.27-60.78-70-159-50.83-190.83,36.26-40,109.44,33.58,215.17,137.41,197.46,50-8.53,76-41.25,62.85-79.08-29.2,2.19-62.8,14-57.88-38.64,2.2-23.51,6.81-33.62,32.42-32.59,62.41,2.53,124.92,2.61,187.38,3.68a76.27,76.27,0,0,1-14.55,8.62,74.81,74.81,0,0,1-7.32,2.86c-30.36,10.11-63.33.7-94.61,3.76-15.13,1.47-30.55-.41-45.77.72-9.13.67-20.4-.43-27.67,4-4.29,2.64-7.19,7.22-7.43,15.25-.25,8.21,2.92,12.5,7.61,15,7.61,4.13,19.22,3.69,26.73,8,36.94,23.56,21.14,48.31-.09,70.73-60.32,63.69-178.6,31.69-212.22-56.8C4722,799,4792.65,689.61,4902.33,700c25.8,2.45,48.27,11.61,67.55,28.87,11.48,10.26,23.16,20.58,38.86,23.68,13.19,2.59,28.15,6.09,37.54-6.3,10.18-13.42-.44-25-8-36-50.46-73.24-169.61-92.8-254.77-41.84-73.38,43.91-113.2,135.76-97,223.79,15.21,82.85,83.58,148.81,167,161.13,98.63,14.56,169.7-20.18,215.88-105.92C5084.76,918.84,5095.77,882.94,5140.46,909.55Z"/><path class="cls-1" d="M5140.46,852v57.57c-22.29.83-43.24-3.47-51.82,29.53-32.08,123.35-179.79,153.39-278.51,120.39-102.94-34.4-164.43-149.22-138.24-259.37,20.18-84.85,68.72-145.85,155.31-167.15,83.11-20.45,160.95-8.41,220.54,60.12,17.69,20.35,47,52.43,19.08,71.58-24.2,16.57-67.6,23.41-97.71-11.27-60.78-70-159-50.83-190.83,36.26-40,109.44,33.58,215.17,137.41,197.46,50-8.53,76-41.25,62.85-79.08-20.59-6.39-49.39-5.2-42.12-39.74,6.31-30,31.91-22.09,51.17-21.43,46.07,1.58,92.46-5.27,138.32,2.24Q5133.2,850.28,5140.46,852Z"/><path class="cls-1" d="M1429.26,335.62c-38.32,78.89-133.74,124.7-227,110.1-101.35-15.88-177.13-88.11-188.43-181.64C1001.24,159.54,1033,75.49,1129.53,22.65c9.55-5.23,22.23-8.16,23-22.65h138.31c53.66,24.53,108.93,47.78,133.86,107.19,8.7,20.74,33.88,54.28,5.94,63.24-27,8.64-69.79,25.59-96-19.46-35.34-60.72-92.16-77.34-151.15-50.12-48.44,22.35-79.7,75.7-73.76,131.77,5.81,54.86,29,100.29,85.72,117.6,54.17,16.54,103.15,7.5,136.26-43.54,26.71-41.17,67.49-22.9,98.84-18C1456.11,292.62,1436.74,320.2,1429.26,335.62Z"/><path class="cls-1" d="M1834.11,408.09C1782.78,272.39,1742.3,132.67,1682.75,0h-80.68c-49.29,144-98.57,288.08-149.41,436.63,38.58-4.74,88,18.57,101-12.12,23.1-54.29,61.71-39.49,98-40.06,23.6-.37,61.34-14.12,68.9,10.05,17,54.28,56,40,92,42.58C1836.73,438.83,1842.94,431.42,1834.11,408.09ZM1690.83,281c2.67,9,5.27,22.58-6.34,23.87a353.94,353.94,0,0,1-73.49.23c-11.46-1.13-10.4-14.72-7.77-23.78,12.4-42.82,25.48-85.45,43.58-145.64C1665,195.49,1678.11,238.2,1690.83,281Z"/><path class="cls-1" d="M2580.13,403.77C2531.15,269,2481.44,134.55,2431.92,0h-80.68c-49.92,143.9-99.85,287.8-150.15,432.78,84.64,7.83,93.46,6.82,106.14-11.19C2346,366.51,2440.31,367,2480.9,421c24.38,32.44,60.59,13.06,91,13.79C2593.08,435.32,2584.1,414.71,2580.13,403.77ZM2399.5,152.32c12.86,42.86,25.6,85.75,38.68,128.53,2.92,9.52,5.43,22.49-5.28,23.88-24,3.12-48.92,3.82-73,1.09-14.55-1.65-12-16.86-8.74-27.88,12.34-41.65,25.12-83.17,37.74-124.74Z"/><path class="cls-1" d="M2178.31,332.94c-8.13,61.12-48.4,92.54-104.51,107.88-86.44,23.63-178.15-14.82-201.91-86.62-5.86-17.74-21.36-48.15,5.37-54.24s65.63-23,84.64,17.9c9.3,20,19.09,37.94,40.47,45.55,30.6,10.88,58.71,5.65,73.67-24.79,14.64-29.78-.93-51.67-28.38-65.09a688.19,688.19,0,0,0-63.22-27.33c-60.9-22.55-110.33-52.82-109.29-129,1-72.43,52.72-95.36,107.27-117.2h92.21c32.51,21.92,70.81,37.91,85.42,78.73,6.67,18.62,22.62,47.79-2.68,53.93-25.95,6.3-63.86,23.5-85.07-16.06-3.58-6.68-5.08-14.71-9.49-20.68-14.17-19.12-33.64-23.22-56.1-17.9-18.2,4.3-31.58,12.71-34.37,33.17-3.12,22.8,9.82,37.68,27.07,46.3,32.41,16.2,67.15,27.72,99.7,43.67C2161.82,231.89,2186.29,272.87,2178.31,332.94Z"/><path class="cls-1" d="M110.42,737.69c-4.26,25.91,12.65,39,32,48.07,31,14.43,63.61,25.28,94.49,39.86,27.44,13,55,27.22,64.86,59.88,13.42,132.91-57.1,193.58-203.16,174.77C49.07,1053.17,31.09,1008,0,978.62V921.06c43.88,2.16,95.1-19.49,115.34,48.05,7.56,25.21,40.52,25.5,66.09,20.29,20.43-4.17,33.78-16.66,36.55-38.7,3.84-30.65-15.43-45.42-39.1-56.41-38.07-17.69-78.17-31.66-114.43-52.42C24.67,819.09,7,780.65,12.49,734.73c5.37-44.55,26-78.91,73.19-90.82h0l0,0c43.51-14.75,88.6-5.3,132.85-8.56,30,5.34,53,22.69,67.66,47.78,13.15,22.55,40.57,58.22,12.11,71.72-23.15,11-75.81,32.26-93.38-26-8.15-27-32.36-29.33-56.36-27C127.06,703.92,114,716,110.42,737.69Z"/><path class="cls-1" d="M2834.14,1187.31c-11.92,33.32-54.35,41.33-79.5,67.63h-69.15c-128.59-72.81-224.73-176.25-287.94-309.32-39.51-83.18-30.65-165.06,9.61-243C2496.09,911.31,2601.42,1101.62,2834.14,1187.31Z"/><path class="cls-1" d="M3333.11,393.16c-.6,29.55-4.37,46.49-40.17,44.25-57-3.57-129.2,17.47-167.29-10.08-37.5-27.12-10.17-103.31-11.77-157.86-2.64-89.76-1.49-179.64-1.94-269.47h92.21c18.7,42.07,7.43,86.43,9.23,129.69,1.91,45.81.33,91.76.53,137.65.35,80.26.42,82.57,79,83C3327.34,350.55,3333.75,362.3,3333.11,393.16Z"/><path class="cls-1" d="M3434.31,437.37c-31.82,1.22-48.34-3.24-47.54-42.21,2.72-131.67,1.5-263.43,1.79-395.16h80.68c8.06,14.1,19.22,25,19,44.76-1.59,116.43-2.68,233,0,349.34C3489.22,438.68,3464.87,436.2,3434.31,437.37Z"/><path class="cls-1" d="M5140.46,840.47V852l-21.87,0c-41.58-.12-83.17-.48-124.72.49-14.61.34-33.4-6.55-43.33,8a32.06,32.06,0,0,0-4.16,9.17c-3.16,10.75-.59,16.88,4.34,21.12,7.91,6.82,21.88,8.79,27.82,17.26-29.2,2.19-62.8,14-57.88-38.64,2.2-23.51,6.81-33.62,32.42-32.59C5015.49,839.32,5078,839.4,5140.46,840.47Z"/><path class="cls-1" d="M3826.53,0l-1.59,13.59a54.65,54.65,0,0,1-9,6.26c-.64.36-1.29.7-2,1a57.69,57.69,0,0,1-8,3.27q-11.3,1.11-22.6,1.87c-13.92,1-27.84,1.57-41.77,1.93-38.52,1-77.07.11-115.61-.47-13.42-.2-26.84-.37-40.25-.4-2.28,0-4.55-.06-6.8-.19a83.54,83.54,0,0,1-17-2.55,57.9,57.9,0,0,1-13.27-5.26,54,54,0,0,1-10.2-7.26q0-5.91-.08-11.82Z"/><path class="cls-1" d="M4126.29,11.38q-5.22,1.62-10.44,3.1-9.12,2.58-18.25,4.75-8.07,1.92-16.16,3.51C4025.23,33.82,3969,33.1,3912.7,21.8q-6.43-1.29-12.86-2.77-8.68-2-17.37-4.31c-3-.81-6-1.64-9.06-2.51q-.39-6.1-.77-12.21H4126.2A98.2,98.2,0,0,1,4126.29,11.38Z"/><path class="cls-1" d="M3031.42,10.14c-2,.77-4,1.53-6,2.26-78.84,28.69-158.05,25.41-237.48,2.9q-3.86-1.08-7.71-2.24-1.24-6.54-2.5-13.06h253.57A88,88,0,0,1,3031.42,10.14Z"/><path class="cls-1" d="M1045.41,1058.9c-32.35-.53-71.78,21-95.86-26C911.29,958.39,868.17,886.31,815,814.07c0,66.89-2.32,133.89.86,200.62,1.94,40.5-15.4,47.32-50.49,46.83-33.43-.46-52.34-3.58-51.12-45.66,3.09-107.16.08-214.48,2-321.69.37-20.51-18.31-56.91,22.62-58.44,34.61-1.29,74.8-17.62,98.81,32.45,36.26,75.6,80.13,147.56,120.77,221.07l11.12-1.62c0-70.3,2.06-140.69-.82-210.87-1.57-38.25,15.2-44,47.66-43.51s54.12,2.1,53.09,45c-2.63,109.09-.11,218.31-1.54,327.45C1067.71,1025.09,1082.76,1059.5,1045.41,1058.9Z"/><path class="cls-1" d="M4589.8,1058.36c-34.58,1.59-76.57,20.37-101.62-27.75-38.48-74-80.73-146-132.72-216.3,0,67.83-2.1,135.74.83,203.44,1.63,37.79-13.69,45.84-47.07,43.28-28.79-2.2-56.23,5.61-54.7-42.06,3.51-109.19.31-218.58,1.71-327.86.25-19.73-14.39-53.51,21.42-54.86,32.79-1.24,72.57-20,96.42,26.17,39.31,76.07,82.26,150.26,123.67,225.24l11.33-2.76c0-65.1,2.17-130.3-.8-195.26-1.87-40.84,7.42-57.43,53.08-57,43.53.39,49,16.95,48.24,54.11-2.25,105.41.45,210.94-1.72,316.36C4607.49,1021.64,4627.42,1056.64,4589.8,1058.36Z"/><path class="cls-1" d="M1751.23,816.05C1736,703.28,1644,623.77,1529.82,624.72c-122,1-208.68,79.42-223.47,202.07-13.09,108.53,58,209.82,164.61,234.44,40.51,5,81,7,121.44-.79h0C1701.34,1031.1,1766.66,930.56,1751.23,816.05ZM1529.64,980.48c-71.79,0-123.78-56.9-123.15-134.91.59-73.87,53.91-131.12,122.57-131.61,72.21-.51,122.39,55.82,121.62,136.54C1649.94,928.62,1601.7,980.42,1529.64,980.48Z"/><path class="cls-1" d="M2093.36,901.36c53.07-43,61.69-104.54,39.46-167.18-21.94-61.85-70.55-94.52-135.15-98.87-49.58-3.34-99.57-.2-149.33-1.53-25.68-.69-38.6,6.18-38.32,35.06,1.13,120.51.9,241,.43,361.57-.08,21.89,8.16,29.39,30.21,30.78,44.77,2.83,79.91.52,71-60.7-2.53-17.39-13.94-45,12.82-54.75,31.42-11.47,45.14,14.57,55.08,37,29.54,66.66,75.67,97.48,154.33,71.48-8.33-33.67-30.81-58-48-84.38C2068.24,942.77,2061.84,926.89,2093.36,901.36ZM1954,863.1c-69.07,4-34.78-46.44-45.3-74.27,10.49-28-23.27-78.51,45.38-74.43,59.49,3.54,87.24,24.12,87.21,75C2041.22,840.73,2014.44,859.63,1954,863.1Z"/><path class="cls-1" d="M3039.73,396c-.76,33.28-11.39,42.57-43.36,41.32-57.35-2.25-114.95-2.66-172.24.13-36.07,1.76-45.73-11.35-45.23-45.78,1.85-126.18,1.08-252.41,1.29-378.62l6.43-.07Q2906.31,11.58,3026,10.2l5.41-.06c15.11,80.64,15.11,80.64-62.74,80.68-13.4,0-26.93,1.17-40.18-.23-34.2-3.59-50.88,4.39-50.7,45.33.18,40.51,11.72,55.3,51.75,50.27,20.73-2.6,42.11.43,63.11-.66,27.88-1.44,45.77,1,46.73,38.39,1,40.24-17.51,43.7-48.29,41.19-19-1.56-38.35,1-57.39-.35-33.51-2.42-56.16-1.72-56.23,45.41-.07,46.09,20.64,49.22,55.18,46.57,20.93-1.61,42.21,1.11,63.13-.56C3025.72,353.79,3040.54,360.41,3039.73,396Z"/><path class="cls-1" d="M638.54,1032.21c5.51,24.56-8.37,28.56-28.78,28.37-65.18-.59-130.4-1.45-195.53.36-30.16.84-34-13.63-33.78-38.38q1.23-175.2.08-350.43c-.17-25.26,5-39.12,34.7-38.32,63.22,1.72,126.57,2.06,189.76,0,42.23-1.41,30.62,27.44,34.09,50.28,4.22,27.82-9.65,32.14-32.48,30.66-19.08-1.24-38.32-.12-57.49-.1-75.46.1-91.37,30.63-52.71,101.2,44.72,20.34,93.36-3.75,138.46,12.21l1.32,47.54v0l-.09,0c-49.28,14.47-101.06-5.14-150.23,10.95-1.46,5.53-3.88,11-4.24,16.61-5,76.86-4.9,76.85,73.42,77.15,19.17.07,38.35-.25,57.5.43C651.9,982.14,634.21,1012.9,638.54,1032.21Z"/><path class="cls-1" d="M4027.77,669.39c-43.36,120.63-88.22,240.76-129.48,362.11-11.74,34.55-35.58,26.73-59.39,29.46-28.78,3.31-45.22-5.39-55.14-34.65C3745.67,913.92,3704.4,802.6,3666.85,690c-5.34-16-36.46-47.14,3.22-52.8,28.7-4.1,74.54-27.29,90.44,28.85,20.85,73.58,44.3,146.43,66.9,219.52,3.35,10.84,8.14,21.24,16.33,42.32,29.51-95.22,55.13-179.38,81.83-263.21,8.14-25.57,83.37-44.9,102.09-26.9C4037.71,647.47,4031.5,659,4027.77,669.39Z"/><path class="cls-1" d="M4126.36,369.08c-45.08-16.37-92.76,2.43-138.12-10.21h0c-35.47-21.32-15.63-55.72-14.1-81.8,1.44-24.61,31.37-9.61,48.38-11.6,20.81-2.45,42.26-2.09,63.21-.27,30,2.61,45.13-4.33,45-39.53-.11-34.67-14.07-43.2-44.81-40.19-19,1.87-38.37-.24-57.52.59-32,1.39-57.72,4.07-58.19-44.56-.46-47.22,18.57-54.51,57.47-51.28,24.65,2,49.71-.9,74.59-1.61a40.84,40.84,0,0,0-19.09-12.83,41.88,41.88,0,0,0-5.58-1.33l4.63,0c18.57.16,28.86-8.82,29.44-27.39.42-13.37-3.92-24.12-14.07-27.85a27.21,27.21,0,0,0-12.69-1.2c-61.57,7-123.58-6.2-185.07,1q-7.43.87-14.84,2.15-5.37.95-10.72,2.13c-.56,126.14-.46,252.29-2.19,378.42-.38,27.75,9,36.39,36.21,35.51,53.53-1.73,107.55-4.57,160.64.58C4127.56,443.51,4139.39,418.79,4126.36,369.08Zm-90.85-292.6a61.35,61.35,0,0,1-9.22-.18,37.63,37.63,0,0,1-9.47-2.14c11.35.81,23.64.73,36.34.55C4047.18,75.4,4041.25,76.22,4035.51,76.48Z"/><path class="cls-1" d="M3003,937c-25.64,61-41.67,115.53-93.18,140.52-43.56,21.14-85.85-4.56-122.41-30.92-51.48-37.12-86.11-86-98.72-149.17v0c4.86-38,3.77-76.13.59-114.22,7.28-29.2,12.63-59.27,36.07-82.6C2800.67,959.11,2863.8,1017.24,3003,937Z"/><path class="cls-1" d="M3457.56,1017.42c-.5,36.78-13.09,45.52-46.84,43.63-53.29-3-106.79-2.12-160.2-2.89,0,0,0-.05,0-.07-13-90.26-2.29-181-5.88-271.49-1.88-47.2,4.41-94.61-3.56-141.65,29.6-17,59.25-16.07,88.94-.24-7.58,106.94-9.63,213.87,1.18,320.74,23.81,18.52,51.68,10.3,77.56,9.9C3439.65,974.87,3458.11,977.59,3457.56,1017.42Z"/><path class="cls-1" d="M4128.65,1061c-27.64-1.3-52.25,4-51.31-39.18q3.82-175.18.17-350.51c-.88-44.94,27.41-35.42,53.11-37.4,29.62-2.29,46.83,3.73,45.37,39.59-2.42,59.28-.66,118.73-.66,178.12h.25c0,55.55-2.39,111.24.82,166.6C4178.65,1057.1,4160.61,1062.55,4128.65,1061Z"/><path class="cls-1" d="M1199.12,1060.41c-23.27-1.12-51.44,8.78-51-33.17,1.34-120.72.71-241.46.23-362.19-.17-42.78,31.41-28.68,53.45-30.71,24.24-2.23,45.83-2.17,44.64,33.67-2,59.34-.54,118.8-.48,178.21s-2,118.91.79,178.18C1248.65,1064.31,1224.79,1061.64,1199.12,1060.41Z"/><path class="cls-1" d="M3752.7,95.21c-15.93-3.53-23,8.9-28.81,21.17-15.91,87-3.25,174.71-6.64,262-1,25.17-2.17,46-34.84,47-29.45.93-47.08-6.64-46.32-41.35,1.54-70.72.75-141.51.26-212.26-.09-13.68,1.87-27.6,0-41.23a59.63,59.63,0,0,0-4.15-15.46c-1.17-25-22.32-18.48-36.46-23h0c-8.06-9.61-19.72-10.66-30.86-13.29-15.8-3.73-20.93-15.05-20.09-30.12.37-6.65,2.36-11.78,5.59-15.81a30.83,30.83,0,0,1,11.58-8.6,61,61,0,0,1,7.82-2.92c20.68-6.27,43.31-8.56,62.37-2.23,56.63,18.84,111.34-3,166.75-4.62,5.55-.17,11.12-.13,16.69.18.35-.14.69-.28,1-.39a17.3,17.3,0,0,1,8.33-.77C3832.1,68.35,3826.68,111.6,3752.7,95.21Z"/><path class="cls-1" d="M3606.31,1047.17c-71.56,34.09-95.34,21.5-95.3-50.3q.07-146.32,0-292.64c0-79.06,13-87.17,94.49-59.28h0C3599.5,779.05,3598.05,913.11,3606.31,1047.17Z"/><path class="cls-1" d="M2967.65,693.44c-29.54,45.45-59.21,90.81-95.14,145.88,3.7-136-8.56-160.41-88.3-190.25,54.48-33.33,130.86-28,174.4,10.71C2970.16,670.05,2977,679,2967.65,693.44Z"/><path class="cls-1" d="M2653,695c-17,25-33.58,50.32-51.47,77.23-39-52.08-65.39-111.81-137-120.11,50.28-38.38,138.6-33,181.53,8.87C2657.43,672.1,2662.65,680.78,2653,695Z"/><path class="cls-1" d="M3678,436.45c-24.56.42-49.61,5.83-48.41-34.92,2.81-95.4,2-190.91,2.59-286.37q2.37,7.71,4.15,15.46c15.71,67.6.88,136.63,5.88,204.74,1.11,15.18.62,30.53,0,45.76-.59,14.07,3.08,23,10.78,28.13h0c5.75,3.81,13.76,5.44,23.93,5.42,10.8,0,18.88-2,24.48-6.36,6.87-5.35,10-14.3,9.93-27.69-.51-70.57-.53-141.16.45-211.72.25-17.91-8-38.82,12.11-52.55v0c1,95.43.78,190.88,3.6,286.23C3728.72,444.16,3701.68,436.05,3678,436.45Z"/><path class="cls-1" d="M3814.94,29.83c.85,6.27,1.38,12.14-2.57,12.67-2.93.4-8.33-2.14-17.88-9.64A58.34,58.34,0,0,0,3783.36,26c-13.17-6.19-27.74-7-37-1q-2.4,1.56-4.79,3c-39.79,23.72-76.76,20.11-115.61-.47q-2.83-1.49-5.68-3.11c-8.45-4.8-22.71-1.95-33.53.6-2.55.6-5.2,1.22-7.84,1.92-11.63,3.07-23.17,7.87-25.7,21.08-.14.72-.26,1.47-.34,2.25-1,9.59,2.92,13.88,8.62,16.18s13.3,2.6,19.33,4.24,9.55,5,11.69,9.26c1.8,3.58,2.63,7.82,3.2,12.26h0c-61.79,4.06-61.79,4.06-57.25-80.34l8.57.09,251.84,2.66,16.69.18c-1.36,1.08-1.72,3.35-1.62,6.13A88.56,88.56,0,0,0,3814.94,29.83Z"/><path class="cls-1" d="M4102.27,88.61c-30.34-14.51-62.77-6.78-94.7-11.27A96.87,96.87,0,0,1,3979,69c29.67,0,59.34.2,89-.08,15.32-.15,32.51.51,33.4-21.2.73-17.82-8.66-24-19.93-25a55.21,55.21,0,0,0-15.71,1.13c-51.19,10.26-102.1-.91-153-2.07-9.13-.22-18.25-.1-27.38.51q-5.52.38-11,1a13.67,13.67,0,0,1-.88-11.1h0l7.66,0,236.6-.77,8.62,0C4118.45,37.17,4159.12,78,4102.27,88.61Z"/><path class="cls-1" d="M181.62,1070.76c-28,2.25-56.84,4.78-83-10.49,23.72-3.55,47.48-1.18,71.52-4.55a128.17,128.17,0,0,0,19.4-4.18c55.69-16.78,88.77-47.37,103.5-90.33,7.56-22.05,10.28-47.35,8.74-75.71C339.85,981.93,288.29,1062.15,181.62,1070.76Z"/><path class="cls-1" d="M3250.51,1058.09v.07c-13.33-1.54-12.39-11.8-12.33-20.94q1.32-196.14,2.89-392.27c19.32,31.82,8.11,66.7,8.64,100C3251.4,849.29,3250.44,953.69,3250.51,1058.09Z"/><path class="cls-1" d="M3596.61,981.46c4.45-112.14-12.56-224.86,8.91-336.5q.39,201.09.79,402.21C3587.55,1027.66,3595.75,1003.2,3596.61,981.46Z"/><path class="cls-1" d="M3331.19,965.45c-22.13-20-12.08-46.53-10.94-69.31,4.23-83.78-14-168.48,9.76-251.43Q3330.61,805.08,3331.19,965.45Z"/><path class="cls-1" d="M218.58,635.33a114.09,114.09,0,0,1-26.46,8.07h0c-23.32,4.21-47.06,1.92-70.73.66a287.08,287.08,0,0,0-35.68-.15l0,0C128.56,618.76,173.17,620.79,218.58,635.33Z"/><path class="cls-1" d="M636.18,875.56l-.09,0C587.61,901,535.87,882,485.86,886.55,534.39,861.36,586.2,881,636.18,875.56Z"/><path class="cls-1" d="M634.86,828c-46.1-4.85-94.39,15.13-138.48-12.21h0C542.64,819,591.19,796,634.86,828Z"/><path class="cls-1" d="M4126.36,369.08c-45.82-6.37-93.33,10.05-138.12-10.21h0C4034.29,362,4082.05,342.24,4126.36,369.08Z"/><path class="cls-1" d="M2688.67,897.38c-7.51-38.11-7-76.18.59-114.22C2701.26,821.3,2702.66,859.38,2688.67,897.38Z"/></g></g></svg>