<?xml version="1.0" encoding="utf-8"?>
<!-- Generator: Adobe Illustrator 27.2.0, SVG Export Plug-In . SVG Version: 6.00 Build 0)  -->
<svg version="1.1" id="Capa_1" xmlns="http://www.w3.org/2000/svg" xmlns:xlink="http://www.w3.org/1999/xlink" x="0px" y="0px"
	 viewBox="0 0 1073 207.17" style="enable-background:new 0 0 1073 207.17;" xml:space="preserve">
<style type="text/css">
	.st0{fill:#FFFFFF;}
</style>
<g>
	<path class="st0" d="M885.24,202.8c-0.39,0.07-0.86,0.1-1.4,0.1c-0.93,0-1.81-0.17-2.64-0.52c-0.82-0.35-1.49-0.95-2.01-1.8
		s-0.77-2.02-0.77-3.51v-22.86h7.58v-3.62h-7.58V162h-4.18v8.59v3.62v23.84c0,1.96,0.45,3.6,1.36,4.92c0.9,1.32,2.06,2.32,3.46,2.99
		c1.41,0.67,2.87,1.01,4.4,1.01c0.87,0,1.6-0.07,2.19-0.2c0.59-0.13,1.09-0.28,1.49-0.43l-0.89-3.76
		C885.97,202.65,885.63,202.73,885.24,202.8z"/>
	<path class="st0" d="M925.72,172.45c-2.36-1.57-5.09-2.36-8.19-2.36s-5.83,0.78-8.2,2.34c-2.37,1.56-4.23,3.74-5.56,6.53
		c-1.34,2.79-2.01,6.03-2.01,9.7c0,3.64,0.67,6.85,2.01,9.62c1.34,2.78,3.19,4.95,5.56,6.52c2.37,1.57,5.11,2.36,8.2,2.36
		s5.83-0.78,8.2-2.36c2.37-1.57,4.23-3.75,5.56-6.52c1.34-2.78,2.01-5.99,2.01-9.62c0-3.67-0.67-6.9-2.02-9.68
		C929.94,176.2,928.09,174.03,925.72,172.45z M927.79,196.02c-0.9,2.22-2.21,4-3.93,5.34c-1.73,1.34-3.83,2.01-6.32,2.01
		s-4.6-0.67-6.32-2.01c-1.73-1.34-3.04-3.12-3.93-5.34c-0.89-2.22-1.34-4.68-1.34-7.35c0-2.68,0.45-5.13,1.34-7.37
		c0.9-2.24,2.21-4.04,3.94-5.39c1.73-1.35,3.84-2.03,6.31-2.03c2.49,0,4.6,0.68,6.32,2.03c1.73,1.35,3.04,3.15,3.93,5.39
		c0.89,2.24,1.34,4.7,1.34,7.37C929.13,191.34,928.68,193.8,927.79,196.02z"/>
	<polygon class="st0" points="981.68,200.08 981.35,200.08 972.95,170.59 968.54,170.59 960.07,200.15 959.77,200.15 951.27,170.59 
		946.89,170.59 957.71,206.43 962.01,206.43 970.5,177.05 970.94,177.05 979.44,206.43 983.73,206.43 994.55,170.59 990.17,170.59 	
		"/>
	<path class="st0" d="M1034.33,174.4c-1.44-1.45-3.06-2.53-4.87-3.24s-3.68-1.06-5.62-1.06c-3.1,0-5.82,0.8-8.18,2.39
		c-2.36,1.6-4.2,3.8-5.53,6.6c-1.33,2.81-2,6.02-2,9.62c0,3.63,0.67,6.83,2,9.6c1.33,2.78,3.21,4.95,5.66,6.51
		c2.44,1.56,5.34,2.34,8.68,2.34c2.39,0,4.51-0.38,6.36-1.15c1.84-0.77,3.38-1.79,4.62-3.07c1.24-1.28,2.13-2.67,2.67-4.18
		l-3.94-1.28c-0.45,1.07-1.11,2.06-1.99,2.95c-0.88,0.9-1.96,1.61-3.24,2.14s-2.77,0.79-4.47,0.79c-2.49,0-4.64-0.58-6.46-1.75
		c-1.82-1.17-3.22-2.81-4.21-4.94c-0.93-1.99-1.4-4.31-1.46-6.94h26.67v-2.05c0-3-0.42-5.6-1.26-7.8
		C1036.9,177.69,1035.76,175.86,1034.33,174.4z M1012.37,186.08c0.13-2,0.59-3.86,1.43-5.58c0.97-1.99,2.32-3.59,4.05-4.81
		c1.73-1.21,3.72-1.82,6-1.82c2.15,0,4.04,0.54,5.68,1.61c1.64,1.07,2.92,2.53,3.85,4.37c0.93,1.84,1.39,3.92,1.39,6.22H1012.37z"/>
	<path class="st0" d="M1071.95,170.08c-0.42-0.02-0.8-0.02-1.14-0.02c-2.26,0-4.27,0.56-6.06,1.67c-1.78,1.11-3.03,2.57-3.75,4.38
		h-0.3v-5.51h-4.04v35.84h4.15v-23.14c0-1.78,0.42-3.35,1.26-4.74c0.84-1.38,1.99-2.47,3.44-3.26c1.45-0.78,3.11-1.18,4.98-1.18
		c0.55,0,1.05,0.03,1.52,0.09c0.47,0.06,0.79,0.11,0.98,0.14v-4.22C1072.72,170.11,1072.37,170.09,1071.95,170.08z"/>
	<polygon class="st0" points="296.95,19.8 326.66,19.8 326.66,120.45 338.54,120.45 338.54,19.8 368.25,19.8 368.25,7.92 
		296.95,7.92 	"/>
	<polygon class="st0" points="593.43,0 581.55,0 581.55,108.57 581.55,120.45 593.43,120.45 635.83,120.45 635.83,108.57 
		593.43,108.57 	"/>
	<rect x="719.94" y="0" class="st0" width="11.88" height="120.45"/>
	<polygon class="st0" points="911.88,120.45 911.88,0 900,0 900,107.09 831.56,0 829.21,0 819.67,0 817.33,0 817.33,120.45 
		829.21,120.45 829.21,14.92 896.66,120.45 900,120.45 908.54,120.45 	"/>
	<polygon class="st0" points="474.72,0 463.01,0 462.84,0 424.11,120.45 435.99,120.45 468.87,18.2 501.75,120.45 513.63,120.45 
		474.9,0 	"/>
	<polygon class="st0" points="1029.6,0 1029.42,0 1017.72,0 1017.54,0 978.81,120.45 990.69,120.45 1023.57,18.2 1056.45,120.45 
		1068.33,120.45 	"/>
	<polygon class="st0" points="210.25,0 198.54,0 198.37,0 159.63,120.45 171.52,120.45 204.4,18.2 237.28,120.45 249.16,120.45 
		210.42,0 	"/>
	<path class="st0" d="M59.41,110.32c-25.86,0-46.83-20.97-46.83-46.83c0-25.86,20.97-46.83,46.83-46.83
		c13.41,0,25.51,5.64,34.05,14.68l9.81-7.57C92.41,11.88,76.78,4.43,59.41,4.43C26.6,4.43,0,31.03,0,63.84
		c0,32.81,26.6,59.41,59.41,59.41c17.81,0,33.78-7.83,44.67-20.24l-9.77-8.29C85.74,104.29,73.28,110.32,59.41,110.32z"/>
</g>
</svg>
