<?xml version="1.0" encoding="utf-8"?>
<!-- Generator: Adobe Illustrator 27.2.0, SVG Export Plug-In . SVG Version: 6.00 Build 0)  -->
<svg version="1.1" id="Capa_1" xmlns="http://www.w3.org/2000/svg" xmlns:xlink="http://www.w3.org/1999/xlink" x="0px" y="0px"
	 viewBox="0 0 1695.45 324.33" style="enable-background:new 0 0 1695.45 324.33;" xml:space="preserve">
<style type="text/css">
	.st0{fill:#FFFFFF;}
</style>
<g>
	<path class="st0" d="M128.24,65.57l-7.25-57.52c0,0-57.52-24-96.69,10.87c0,0-36.76,24.61-19.85,80.76c0,0,15.7,38.34,66.73,42.87
		c51.03,4.53,67.33-38.34,67.33-38.34l-7.1-6.49c0,0-14.95,33.74-52.99,31.25c0,0-38.27-1.13-45.97-41.67S47.17,20.28,65.74,15.3
		s31.48,3.62,32.61,5.89s25.35,44.6,25.35,44.6L128.24,65.57z"/>
	<path class="st0" d="M241.95,1.86c-39.46,0-71.45,31.99-71.45,71.45s31.99,71.45,71.45,71.45c39.46,0,71.45-31.99,71.45-71.45
		S281.41,1.86,241.95,1.86z M270.2,127.73c-21,10.42-49.98-5.22-64.74-34.95c-14.75-29.72-9.69-62.27,11.31-72.69
		s49.98,5.22,64.74,34.95C296.27,84.76,291.2,117.31,270.2,127.73z"/>
	<path class="st0" d="M809.12,1.86c-39.46,0-71.45,31.99-71.45,71.45s31.99,71.45,71.45,71.45c39.46,0,71.45-31.99,71.45-71.45
		S848.58,1.86,809.12,1.86z M837.37,127.73c-21,10.42-49.98-5.22-64.74-34.95c-14.75-29.72-9.69-62.27,11.31-72.69
		s49.98,5.22,64.74,34.95C863.43,84.76,858.37,117.31,837.37,127.73z"/>
	<polygon class="st0" points="342.6,143.01 385.48,143.01 385.48,140.3 371.59,126.86 371.59,28.74 417.63,143.01 441.18,143.01 
		488.73,28.74 488.73,127.84 476.2,140.3 476.2,143.01 531.61,143.01 531.61,140.3 517.72,127.46 517.72,21.04 531.61,7.6 
		483.6,7.6 438.46,114.33 393.78,7 343.66,7 356.64,21.34 357.25,127.46 342.6,140.3 	"/>
	<path class="st0" d="M660.04,3.98h-41.48h-8.23h-34.49l13.89,16.08v108.24l-13.89,12v2.72h56.91v-2.72l-14.19-13.13V88.89h41.48
		c23.45,0,42.46-19.01,42.46-42.46v0C702.5,22.99,683.49,3.98,660.04,3.98z M673.31,46.44c0,15.82-12.82,28.65-28.65,28.65h-26.11
		V17.79h26.11C660.49,17.79,673.31,30.62,673.31,46.44L673.31,46.44z"/>
	<path class="st0" d="M1024.35,66.78l-6.49-56.31c0,0-19.32-12.83-53.74-8.6c-34.42,4.23-41.06,35.48-36.38,48.61
		s15.25,27.32,40.31,33.06c25.06,5.74,32.31,19.17,30.65,27.48c-1.66,8.3-4.98,25.06-32.15,20.08
		c-27.17-4.98-36.53-35.63-37.44-41.51h-6.04v38.34c0,0,19.78,16.45,43.93,17.96c24.15,1.51,47.7-2.42,57.37-25.21
		c0,0,12.08-33.82-13.74-48.01c-25.81-14.19-52.99-20.08-55.1-32.15c-2.11-12.08,1.64-29.51,32.61-24.46l33,50.97L1024.35,66.78z"/>
	<polygon class="st0" points="1207.62,4.13 1179.38,4.13 1103.45,4.13 1075.22,4.13 1068.27,49.12 1071.9,49.04 1105.11,18.17 
		1126.85,18.17 1126.85,126.11 1112.66,140.3 1112.66,142.56 1113.26,142.56 1169.57,142.56 1170.18,142.56 1170.18,140.3 
		1155.99,126.11 1155.99,18.17 1177.73,18.17 1210.94,49.04 1214.56,49.12 	"/>
	<polygon class="st0" points="1370.2,93.5 1355.71,142.56 1250.19,142.56 1250.19,140.3 1264.53,126.56 1264.53,19.98 1250.19,5.03 
		1359.48,5.03 1366.43,49.42 1362.65,49.42 1329.9,17.26 1293.06,17.26 1293.06,61.49 1338.05,61.49 1350.58,48.96 1350.58,86.86 
		1339.03,75.31 1293.06,75.31 1293.06,128.67 1329.29,128.67 1365.33,93.46 	"/>
	<path class="st0" d="M1508.41,142.56l14.49-49.59h-3.06c0,0-35.1,36.17-36.17,36.17c-1.08,0-37.08,0-37.08,0V19.26l13.93-13.93
		h-56.61l14.55,14.55v107.16l-13.64,13.25v2.26H1508.41z"/>
	<path class="st0" d="M1680.05,127.16L1626.84,0.13h-34.31v2.83l12.23,10.64l-44.84,113l-16.12,13.7v2.26h43.33v-2.26l-11.32-13.59
		l10.57-25.51h54.35l10.11,25.06l-10.42,14.04v2.26h55.03v-2.26L1680.05,127.16z M1590.31,87.01l22.34-58.12l22.34,58.12
		C1634.99,87.01,1590.76,87.01,1590.31,87.01z"/>
	<path class="st0" d="M359.66,262.58h-9.96l-26.27,59.93h11.32l5.74-14.04h27.02l5.89,14.04h11.93L359.66,262.58z M344.11,299.56
		l11.17-23.7l8.91,23.7H344.11z"/>
	<path class="st0" d="M570.77,262.58h-9.96l-26.27,59.93h11.32l5.74-14.04h27.02l5.89,14.04h11.93L570.77,262.58z M555.22,299.57
		l11.17-23.7l8.91,23.7H555.22z"/>
	<path class="st0" d="M1275.11,262.58h-9.96l-26.27,59.93h11.32l5.74-14.04h27.02l5.89,14.04h11.93L1275.11,262.58z M1259.56,299.57
		l11.17-23.7l8.91,23.7H1259.56z"/>
	<polygon class="st0" points="350,255.93 359.51,255.93 374.3,240.38 361.17,240.38 	"/>
	<path class="st0" d="M437.69,295.5c1.76-0.52,3.41-1.31,4.89-2.33c4.48-2.99,7.44-8.1,7.44-13.89c0-0.04-0.01-0.09-0.01-0.13
		c0-0.04,0.01-0.09,0.01-0.13c0-9.5-7.7-17.2-17.2-17.2h-25.75v0.75v33.4v0.24v26.29h10.27v-25.06h9.81l13.13,25.06h13.13
		L437.69,295.5z M431.16,288.45h-13.13v-16.53h13.13c4.56,0,8.27,3.7,8.27,8.27C439.43,284.75,435.73,288.45,431.16,288.45z"/>
	<path class="st0" d="M688.06,295.5c1.76-0.52,3.41-1.31,4.89-2.33c4.48-2.99,7.44-8.1,7.44-13.89c0-0.04-0.01-0.09-0.01-0.13
		c0-0.04,0.01-0.09,0.01-0.13c0-9.5-7.7-17.2-17.2-17.2h-25.75v0.75v33.4v0.24v26.29h10.27v-25.06h9.81l13.13,25.06h13.13
		L688.06,295.5z M681.53,288.45H668.4v-16.53h13.13c4.56,0,8.27,3.7,8.27,8.27C689.8,284.75,686.1,288.45,681.53,288.45z"/>
	<polygon class="st0" points="517.27,271.37 517.27,262.1 487.15,262.1 475,262.1 475,271.37 475,286.65 475,295.49 475,313.53 
		475,322.79 487.15,322.79 517.27,322.79 517.27,313.53 487.15,313.53 487.15,295.49 513.64,295.49 513.64,286.65 487.15,286.65 
		487.15,271.37 	"/>
	<polygon class="st0" points="767.3,271.37 767.3,262.1 737.18,262.1 725.03,262.1 725.03,271.37 725.03,286.65 725.03,295.49 
		725.03,313.53 725.03,322.79 737.18,322.79 767.3,322.79 767.3,313.53 737.18,313.53 737.18,295.49 763.67,295.49 763.67,286.65 
		737.18,286.65 737.18,271.37 	"/>
	<polygon class="st0" points="1023.03,271.37 1023.03,262.1 992.91,262.1 980.76,262.1 980.76,271.37 980.76,286.65 980.76,295.49 
		980.76,313.53 980.76,322.79 992.91,322.79 1023.03,322.79 1023.03,313.53 992.91,313.53 992.91,295.49 1019.4,295.49 
		1019.4,286.65 992.91,286.65 992.91,271.37 	"/>
	<path class="st0" d="M788.66,314.77l6.68-6.68c0,0,9.06,7.47,15.62,6.68c6.57-0.79,12.34-2.26,9.51-10.08
		c-2.83-7.81-18.12-6.57-25.25-15.96c-7.13-9.4-3.4-19.47,2.94-23.1c6.34-3.62,22.19-10.19,33.63,3.06l-6.91,7.87
		c0,0-4.42-7.13-12.11-7.13s-13.36,7.19-8.72,13.13c4.64,5.94,17.78,2.43,26,15.34c8.23,12.91-6.42,24.46-11.25,25.81
		C813.98,325.07,793.9,325,788.66,314.77z"/>
	<rect x="857.69" y="262.1" class="st0" width="12.08" height="60.4"/>
	<path class="st0" d="M925.16,262.1H899.5v60.4h25.65c16.68,0,30.2-13.52,30.2-30.2S941.84,262.1,925.16,262.1z M943.13,292.99
		c0,11.13-9.02,20.15-20.15,20.15h-11.7v-40.91h11.7c11.13,0,20.15,9.02,20.15,20.15V292.99z"/>
	<polygon class="st0" points="1049.41,262.1 1049.41,322.51 1060.62,322.51 1060.62,277.97 1088.13,322.79 1100.58,322.79 
		1100.58,262.1 1090.51,262.1 1090.51,307.41 1062.99,262.1 	"/>
	<path class="st0" d="M1182.49,269.13c-5.79-5.64-13.71-9.12-22.44-9.12c-17.76,0-32.15,14.4-32.15,32.15
		c0,17.76,14.4,32.16,32.15,32.16c9.88,0,18.72-4.46,24.62-11.47l-8.29-7.03c-3.9,4.67-9.77,7.63-16.33,7.63
		c-11.76,0-21.29-9.53-21.29-21.29c0-11.76,9.53-21.29,21.29-21.29c5.88,0,11.2,2.38,15.05,6.23L1182.49,269.13z"/>
	<rect x="1206.11" y="262.1" class="st0" width="11.47" height="60.69"/>
	<polygon class="st0" points="1332.46,313.07 1332.46,262.1 1320.99,262.1 1320.99,322.79 1325.86,322.79 1332.46,322.79 
		1358.62,322.79 1358.62,313.07 	"/>
</g>
</svg>
