<?xml version="1.0" encoding="utf-8"?>
<!-- Generator: Adobe Illustrator 27.2.0, SVG Export Plug-In . SVG Version: 6.00 Build 0)  -->
<svg version="1.1" id="Capa_1" xmlns="http://www.w3.org/2000/svg" xmlns:xlink="http://www.w3.org/1999/xlink" x="0px" y="0px"
	 viewBox="0 0 1699.33 421.88" style="enable-background:new 0 0 1699.33 421.88;" xml:space="preserve">
<style type="text/css">
	.st0{fill:#FFFFFF;}
</style>
<g>
	<path class="st0" d="M180.02,12.25v59.39h-12.93c0,0-27.18-53.52-66.34-54.6s-67.17,58.91-56.4,96.27c0,0,8.98,89.09,61.43,86.21
		c0,0,38.08,2.87,61.79-38.8h12.45v43.11l-14.25,7.18c0,0-1.62-11.5-7.18-11.14c0,0-49.69,35.56-106.93,3.47
		S-2.71,108.64,2.68,77.03c0,0,22.63-74.72,99.5-76.51c0,0,32.81-1.44,61.55,18.92V4.11L180.02,12.25z"/>
	<path class="st0" d="M444.88,2.31h-67.89v17.6h6.65c11.41,0,20.66,9.25,20.66,20.66V146c0,29.36-23.8,53.16-53.16,53.16h-1.08
		c-25.39,0-45.98-20.59-45.98-45.98V40.57c0-11.41,9.25-20.66,20.66-20.66h4.85V2.31h-88.73v17.6h5.57
		c11.41,0,20.66,9.25,20.66,20.66v104.89c0,39.38,31.93,71.31,71.31,71.31h8.26c39.38,0,71.31-31.93,71.31-71.31V40.57
		c0-11.41,9.25-20.66,20.66-20.66h6.29V2.31z"/>
	<path class="st0" d="M754.89,20.28V2.31h-24.55h-36.88h-0.48l-63.22,153.15L568.93,2.31h-2.99h-32.93h-27.06v17.96h9.76
		c9.56,0,17.3,7.75,17.3,17.3v143.63c0,8.4-6.81,15.21-15.21,15.21h-11.85v17.96h66.99v-17.96h-9.88c-8.4,0-15.21-6.81-15.21-15.21
		V53.92l73.28,173.86l71.84-175.3v128.72c0,8.4-6.81,15.21-15.21,15.21h-9.64v17.96h86.75v-17.96h-9.34
		c-8.4,0-15.21-6.81-15.21-15.21V37.58c0-9.56,7.75-17.3,17.3-17.3H754.89z"/>
	<path class="st0" d="M952.43,108.34h-0.36c27.2,0,49.24-22.05,49.24-49.24v0c0-31.36-25.42-56.79-56.79-56.79H878.1h-1.44h-5.03
		h-31.61h-24.79v17.96h7.9c9.32,0,16.88,7.56,16.88,16.88v142.37c0,9.32-7.56,16.88-16.88,16.88h-7.9v17.96h24.79h31.61h1.8h4.67
		h81.87c27.2,0,49.24-22.05,49.24-49.24v0C1009.22,133.77,983.79,108.34,952.43,108.34z M966.11,159.29
		c0,22.22-18.01,40.23-40.23,40.23h-26.76c-12.4,0-22.45-10.05-22.45-22.45V139.9v-6.47v-32.69v-4.67V36.44
		c0-8.93,7.24-16.16,16.16-16.16l26.16,0c21.66,0,40.3,16.65,41.32,38.29c1.09,23.1-17.32,42.18-40.19,42.18h-28.86v16.6
		c0.51-0.05,1.03-0.08,1.56-0.08h33.05c22.22,0,40.23,18.01,40.23,40.23V159.29z"/>
	<path class="st0" d="M1257.08,214.37c-9.34-27.78,4.31-96.75-37.36-104.47c-1.72-1.19-3.8-2.11-6.1-2.81
		c23.82-5.2,41.66-26.39,41.66-51.77v0c0-29.28-23.74-53.01-53.01-53.01h-69.6l0,0h-18.02h-21.25h-22.15v17.96h8.2
		c7.7,0,13.95,6.25,13.95,13.95v146.02c0,8.93-7.24,16.16-16.16,16.16h-5.99v17.96h22.15h39.27h25.38v-17.96h-9.22
		c-8.93,0-16.16-7.24-16.16-16.16v-4.43c0,0,0,0,0,0v-36.88v-6.41V100.1v-4.63V36.31c0-8.86,7.24-16.04,16.16-16.04h27.3
		c22.22,0,40.23,17.87,40.23,39.91s-18.01,39.91-40.23,39.91h-28.86v16.57l34.66,1.44c32.02,5.03,26.65,48.37,27.61,67.29
		c0.96,18.92,18.92,39.27,18.92,39.27c18.92,16.76,34.25,30.89,72.32,28.02v-14.37C1300.78,238.32,1266.42,242.15,1257.08,214.37z"
		/>
	<path class="st0" d="M1484.82,171.51v7c0,9.62-7.8,17.42-17.42,17.42h-60.59c-9.62,0-17.42-7.8-17.42-17.42V37.82
		c0-9.69,7.85-17.54,17.54-17.54h60.35c9.69,0,17.54,7.85,17.54,17.54v6.89h17.96l-3.82-24.43l-2.29-17.96h-107.29h-61.43v17.96
		h6.53c9.69,0,17.54,7.85,17.54,17.54v141.17c0,9.62-7.8,17.42-17.42,17.42h-6.65v17.96h86.81v-0.48h81.9l2.29-17.96l3.82-24.43
		H1484.82z"/>
	<path class="st0" d="M1434.41,75.24v6.83c0,8.93-7.24,16.16-16.16,16.16h-15.69v19.64h15.69c8.93,0,16.16,7.24,16.16,16.16v8.74h17
		v-24.91V98.23V75.24H1434.41z"/>
	<path class="st0" d="M1699.28,152.83c-1.68-38.08-44.3-58.67-71.13-70.41c-26.82-11.73-24.91-35.92-24.91-35.92
		s6.71-29.7,33.05-29.46c18.43,0.17,30.99,14.87,36.88,23.68v23.14l16.22-9.34V5.55h-16.22v8.34c-6.63-5.94-18.65-11.73-40.47-13.61
		c-50.05-4.31-66.82,42.39-66.1,69.45c0.72,27.06,41.43,50.05,68.73,60.35c27.3,10.3,23.95,33.77,23.95,36.88
		c0,3.11,0.24,33.29-36.16,33.29c-12.02,0-21.08-3.96-27.82-9.26c-10.57-8.31-16.36-21.31-16.36-34.75v-0.17l-15.09,9.34v48.97
		h15.09v-15.38c8.22,6.02,30.95,19.26,53.99,18.5C1661.66,216.53,1700.95,190.9,1699.28,152.83z"/>
	<g>
		<path class="st0" d="M436.94,407.52c0,6.35,1.06,6.8,9.68,7.41v5.14h-37.49v-5.14c6.05-0.6,8.16-0.3,8.16-6.5V372.9
			c0-9.37-4.23-14.06-11.94-14.06c-6.35,0-10.73,3.63-12.85,7.71c-1.06,2.12-1.36,4.99-1.36,8.16v33.26c0,6.35,2.12,6.35,8.16,6.95
			v5.14H361.8v-5.14c8.62-0.6,9.52-1.06,9.52-7.11v-42.48c0-5.59-1.06-6.65-3.63-6.96l-4.99-0.76v-4.84l26.46-4.08l1.82,9.83
			c9.37-5.44,16.02-9.98,24.79-9.98c14.21,0,21.16,8.47,21.16,22.07V407.52z"/>
		<path class="st0" d="M564.99,385.29c0,22.83-11.04,36.58-36.13,36.58c-25.1,0-36.13-13.76-36.13-36.58
			c0-22.83,11.04-36.74,36.28-36.74C553.95,348.56,564.99,362.47,564.99,385.29z M528.86,415.68c10.73,0,15.27-11.34,15.27-30.39
			c0-19.2-4.54-30.54-15.27-30.54c-10.73,0-15.27,11.34-15.27,30.69C513.59,404.34,518.12,415.68,528.86,415.68z"/>
		<path class="st0" d="M637.71,420.06c-7.1-19.35-14.51-39.61-21.62-58.05c-1.82-4.84-3.63-5.9-9.37-6.35v-5.29h36.58v5.29
			l-5.59,0.6c-2.57,0.45-2.87,1.51-2.12,4.23c4.08,12.24,10.88,31.6,15.12,43.24h0.45c4.69-14.06,10.43-29.93,13.76-42.94
			c0.91-2.42,0.3-3.93-2.12-4.23l-7.1-0.91v-5.29h28.88v5.29c-5.9,0.45-8.01,1.06-10.28,6.2c-6.8,15.27-14.97,38.55-22.22,58.2
			H637.71z"/>
		<path class="st0" d="M797.51,385.29c0,22.83-11.04,36.58-36.13,36.58c-25.1,0-36.13-13.76-36.13-36.58
			c0-22.83,11.04-36.74,36.28-36.74C786.48,348.56,797.51,362.47,797.51,385.29z M761.38,415.68c10.73,0,15.27-11.34,15.27-30.39
			c0-19.2-4.54-30.54-15.27-30.54c-10.73,0-15.27,11.34-15.27,30.69C746.11,404.34,750.65,415.68,761.38,415.68z"/>
		<path class="st0" d="M919.52,407.52c0,6.35,1.06,6.8,9.68,7.41v5.14H891.7v-5.14c6.05-0.6,8.16-0.3,8.16-6.5V372.9
			c0-9.37-4.23-14.06-11.94-14.06c-6.35,0-10.73,3.63-12.85,7.71c-1.06,2.12-1.36,4.99-1.36,8.16v33.26c0,6.35,2.12,6.35,8.16,6.95
			v5.14h-37.49v-5.14c8.62-0.6,9.52-1.06,9.52-7.11v-42.48c0-5.59-1.06-6.65-3.63-6.96l-4.99-0.76v-4.84l26.46-4.08l1.82,9.83
			c9.37-5.44,16.02-9.98,24.79-9.98c14.21,0,21.16,8.47,21.16,22.07V407.52z"/>
		<path class="st0" d="M1047.57,385.29c0,22.83-11.04,36.58-36.13,36.58c-25.1,0-36.13-13.76-36.13-36.58
			c0-22.83,11.04-36.74,36.28-36.74C1036.54,348.56,1047.57,362.47,1047.57,385.29z M1011.44,415.68
			c10.73,0,15.27-11.34,15.27-30.39c0-19.2-4.54-30.54-15.27-30.54c-10.73,0-15.27,11.34-15.27,30.69
			C996.17,404.34,1000.71,415.68,1011.44,415.68z"/>
		<path class="st0" d="M1123.77,407.52c0,6.35,1.21,6.65,12.4,7.41v5.14h-41.72v-5.14c8.62-0.6,9.52-1.06,9.52-7.41v-42.18
			c0-5.44-1.06-6.65-3.63-6.96l-4.99-0.76v-4.84l26.3-4.08l1.66,12.25c8.62-8.62,13.15-12.4,18.9-12.4c5.9,0,9.52,3.78,9.52,9.37
			c0,5.44-3.48,11.49-9.37,11.49c-2.27,0-3.63-1.21-5.29-2.27c-3.02-2.27-5.14-3.48-7.41-3.48c-3.48,0-5.9,3.78-5.9,11.94V407.52z"
			/>
		<path class="st0" d="M1222.49,357.33v41.27c0,9.68,3.93,13.3,8.92,13.3c1.97,0,4.69-0.45,6.96-1.51l1.51,4.38
			c-7.26,4.54-13.76,7.1-19.96,7.1c-7.26,0-17.24-4.54-17.24-17.84v-46.71h-8.62v-6.95h9.37l11.64-17.84h7.41v17.84h15.42v6.95
			H1222.49z"/>
		<path class="st0" d="M1304.89,384.08c-0.15,14.82,4.38,27.66,19.35,27.66c9.22,0,15.12-4.99,19.2-13.15l4.99,2.72
			c-4.54,12.25-13.46,20.56-30.09,20.56c-25.85,0.15-34.32-16.33-34.32-36.58c0-20.11,9.68-36.74,34.47-36.74
			c27.21,0,30.99,18.6,30.99,29.48c0,4.54-2.42,6.05-7.11,6.05H1304.89z M1324.85,377.43c3.48,0,4.54-1.06,4.54-4.69
			c0-6.35-1.66-17.99-11.34-17.99c-10.43,0-13.15,13.3-13.15,22.68H1324.85z"/>
	</g>
	<rect x="254.26" y="373.87" class="st0" width="54.6" height="10.44"/>
	<rect x="1392.38" y="373.87" class="st0" width="54.6" height="10.44"/>
</g>
</svg>
