<?xml version="1.0" encoding="utf-8"?>
<!-- Generator: Adobe Illustrator 27.2.0, SVG Export Plug-In . SVG Version: 6.00 Build 0)  -->
<svg version="1.1" id="Capa_1" xmlns="http://www.w3.org/2000/svg" xmlns:xlink="http://www.w3.org/1999/xlink" x="0px" y="0px"
	 viewBox="0 0 1082.24 626.07" style="enable-background:new 0 0 1082.24 626.07;" xml:space="preserve">
<style type="text/css">
	.st0{fill:#FFFFFF;}
</style>
<g id="Layer_2">
	<g id="Layer_1-2">
		<polygon class="st0" points="99.72,481.72 78.84,377.06 59.77,377.06 39.42,481.72 20.45,377.06 0,377.06 26.78,507.81 
			49.25,507.81 69.01,411.8 89.95,507.81 112.37,507.81 138.88,377.06 118.69,377.06 		"/>
		<path class="st0" d="M270.27,393.16c-6.19-6.15-13.57-10.97-21.68-14.19c-8.97-3.59-18.55-5.39-28.21-5.31
			c-9.55-0.06-19.03,1.75-27.89,5.31c-8.12,3.2-15.5,8.02-21.68,14.19c-6.17,6.17-10.9,13.63-13.87,21.84
			c-3.3,8.87-4.96,18.27-4.89,27.73c-0.12,9.49,1.54,18.91,4.89,27.79c3.03,8.01,7.76,15.26,13.87,21.25
			c6.21,6.07,13.58,10.83,21.68,13.97c8.86,3.56,18.34,5.37,27.89,5.31c9.66,0.08,19.24-1.73,28.21-5.31
			c8.09-3.16,15.46-7.91,21.68-13.97c6.11-6,10.86-13.25,13.92-21.25c3.3-8.89,4.94-18.31,4.83-27.79
			c0.06-9.46-1.58-18.85-4.83-27.73C281.18,406.79,276.43,399.34,270.27,393.16z M266.5,463.45c-2.07,6.06-5.4,11.62-9.78,16.31
			c-4.42,4.58-9.74,8.2-15.62,10.63c-13.31,5.17-28.08,5.17-41.39,0c-5.87-2.4-11.16-6.02-15.51-10.63
			c-4.29-4.72-7.56-10.27-9.62-16.31c-4.39-13.43-4.39-27.91,0-41.33c2.12-6.09,5.38-11.72,9.62-16.58
			c4.29-4.83,9.58-8.65,15.51-11.21c13.26-5.45,28.13-5.45,41.39,0c5.95,2.58,11.27,6.4,15.62,11.21
			c4.32,4.83,7.64,10.46,9.78,16.58C270.89,435.54,270.89,450.02,266.5,463.45z"/>
		<path class="st0" d="M404.9,373.98c-24.58,0-41.28,11.95-50.1,35.86v-32.62h-48.83v16.36h29.59v97.81h-29.59v16.42h78.42v-16.42
			H354.8v-42.18c-0.03-7.4,1.14-14.76,3.45-21.78c2.14-6.8,5.49-13.15,9.88-18.75c4.34-5.48,9.77-10,15.94-13.28
			c6.51-3.56,13.83-5.39,21.25-5.31c8.52-0.18,16.96,1.64,24.65,5.31l6.32-15.94c-4.29-2.2-8.9-3.72-13.65-4.52
			C416.77,374.08,410.83,373.76,404.9,373.98z"/>
		<polygon class="st0" points="585.16,377.06 557.64,377.06 483.16,447.45 483.16,324.73 463.92,324.73 463.92,507.81 
			483.16,507.81 483.16,470.72 506.75,449.15 560.19,507.81 587.55,507.81 519.66,437.09 		"/>
		<path class="st0" d="M311.12,242.11h39.16V133.3c0-24.33-5.1-42.36-15.3-54.09c-10.76-12.01-26.4-18.48-42.5-17.59
			c-14.11-0.43-27.92,4.08-39.05,12.75c-10.98,9.17-18.63,21.7-21.78,35.65V65.77h-39.16v176.34h39.16V163
			c0-20.67,4.62-36.87,13.76-48.61c8.25-11.27,21.47-17.83,35.44-17.59c8.29-0.58,16.44,2.31,22.53,7.97
			c5.31,5.31,7.76,14.82,7.76,28.53V242.11z"/>
		<path class="st0" d="M512.06,246.47v-35.22H488.1c-8.15,0.37-16.09-2.65-21.94-8.34c-6.09-7.02-9.1-16.19-8.34-25.45v-71.83h51.69
			V68.43h-60.09C465.76,49.37,474.75,25.1,474.76,0h-37.19c-0.06,37.83-30.71,68.48-68.54,68.54v37.19h49.62v71.56
			c-0.01,9.57,1.79,19.05,5.31,27.95c3.09,8.21,7.89,15.67,14.08,21.89c6.26,6.19,13.73,11.02,21.94,14.19
			c9.02,3.59,18.66,5.39,28.37,5.31L512.06,246.47z"/>
		<path class="st0" d="M690.94,189.51c-7.06,6.77-15.31,12.17-24.33,15.94c-10.56,4.19-21.85,6.22-33.21,5.95
			c-13.99,0.75-27.78-3.53-38.89-12.06c-9.36-7.56-15.53-18.38-17.27-30.28H725c0.23-15.32-2.14-30.58-7.01-45.11
			c-4.16-12.44-10.76-23.92-19.39-33.79c-8.22-9.23-18.4-16.49-29.81-21.25c-12.32-4.98-25.5-7.46-38.78-7.28
			c-12.87-0.17-25.65,2.17-37.62,6.91c-10.95,4.38-20.89,10.94-29.22,19.29c-8.2,8.42-14.63,18.39-18.91,29.33
			c-4.58,11.86-6.85,24.48-6.69,37.19c-0.17,12.85,2.31,25.6,7.28,37.46c4.66,10.96,11.52,20.85,20.14,29.06
			c8.82,8.27,19.18,14.71,30.5,18.97c12.12,4.65,25.01,6.97,37.99,6.85c14.01,0.05,27.95-2.12,41.28-6.43
			c13.67-4.77,26.01-12.7,36.02-23.16L690.94,189.51z M596.75,107.11c9.74-6.83,21.37-10.43,33.26-10.31
			c11.85-0.15,23.43,3.46,33.1,10.31c9.37,6.33,15.74,16.21,17.64,27.36H579.11C580.96,123.31,587.34,113.41,596.75,107.11z"/>
		<path class="st0" d="M791.15,158.8c5.59-32.92,34.09-57.01,67.47-57.06V64.55c-24.66-0.01-48.54,8.64-67.47,24.44V65.77h-39.16
			v180.64h39.16V158.8z"/>
		<polygon class="st0" points="157.79,206.94 39.16,206.94 39.16,142.33 131.65,142.33 131.65,107.11 39.16,107.11 39.16,46.91 
			157.79,46.91 157.79,11.69 0,11.69 0,242.11 157.79,242.11 		"/>
		<path class="st0" d="M1023.16,267.61h-164.7v35.22h157.79l0,0h6.75c13.39,0.03,24.23,10.89,24.23,24.28v120.87
			c0,13.38-10.85,24.23-24.23,24.23H779.94c34.97-29.05,55.2-72.16,55.2-117.63h-35.07c-0.07,60.83-46.25,111.7-106.79,117.63
			h-11.42v35.65c65.26,0.06,118.15,52.95,118.21,118.21h35.07c0-46.1-20.79-89.74-56.58-118.8h244.39
			c32.72-0.06,59.23-26.57,59.29-59.29V326.9C1082.21,294.25,1055.81,267.76,1023.16,267.61z"/>
	</g>
</g>
</svg>
