<?xml version="1.0" encoding="utf-8"?>
<!-- Generator: Adobe Illustrator 27.2.0, SVG Export Plug-In . SVG Version: 6.00 Build 0)  -->
<svg version="1.1" id="Capa_1" xmlns="http://www.w3.org/2000/svg" xmlns:xlink="http://www.w3.org/1999/xlink" x="0px" y="0px"
	 viewBox="0 0 1081 367.47" style="enable-background:new 0 0 1081 367.47;" xml:space="preserve">
<style type="text/css">
	.st0{fill:#FFFFFF;}
</style>
<g>
	<g>
		<path class="st0" d="M98.2,366.22v-71.17h24.05c5.56,0,10.12,0.94,13.69,2.83c3.57,1.89,6.21,4.48,7.92,7.77
			c1.71,3.29,2.57,7.03,2.57,11.22s-0.86,7.91-2.57,11.16c-1.72,3.24-4.34,5.79-7.89,7.63c-3.54,1.84-8.07,2.76-13.59,2.76h-19.46
			v-7.78h19.18c3.8,0,6.86-0.56,9.19-1.67c2.33-1.11,4.02-2.69,5.07-4.74c1.05-2.05,1.58-4.5,1.58-7.35c0-2.85-0.53-5.34-1.6-7.47
			c-1.07-2.13-2.77-3.78-5.11-4.95c-2.34-1.17-5.43-1.75-9.28-1.75h-15.15v63.52H98.2z M131.7,334.25l17.51,31.97h-10.01
			l-17.24-31.97H131.7z"/>
		<path class="st0" d="M196.4,366.22v-71.17h42.95v7.65h-34.33v24.05h32.11v7.64h-32.11v24.19h34.89v7.64H196.4z"/>
		<path class="st0" d="M328.02,312.85c-0.42-3.52-2.11-6.26-5.07-8.2c-2.97-1.95-6.6-2.92-10.91-2.92c-3.15,0-5.9,0.51-8.25,1.53
			c-2.35,1.02-4.18,2.42-5.49,4.2c-1.31,1.78-1.96,3.81-1.96,6.08c0,1.9,0.46,3.53,1.37,4.88c0.91,1.35,2.09,2.48,3.53,3.37
			c1.44,0.89,2.94,1.62,4.52,2.19c1.57,0.57,3.02,1.02,4.34,1.37l7.23,1.95c1.85,0.49,3.92,1.16,6.2,2.02
			c2.28,0.86,4.47,2.02,6.57,3.49s3.83,3.35,5.2,5.65c1.37,2.29,2.05,5.11,2.05,8.44c0,3.85-1,7.32-3.01,10.43
			c-2,3.1-4.92,5.57-8.76,7.4s-8.48,2.75-13.95,2.75c-5.1,0-9.5-0.82-13.22-2.47c-3.72-1.64-6.64-3.94-8.76-6.88
			s-3.32-6.36-3.6-10.25h8.9c0.23,2.69,1.14,4.91,2.73,6.65c1.59,1.75,3.6,3.05,6.05,3.89c2.44,0.85,5.08,1.27,7.91,1.27
			c3.29,0,6.24-0.54,8.86-1.62c2.62-1.08,4.69-2.58,6.22-4.52c1.53-1.93,2.29-4.2,2.29-6.79c0-2.36-0.66-4.29-1.98-5.77
			c-1.32-1.48-3.06-2.69-5.21-3.61c-2.15-0.93-4.48-1.74-6.98-2.43l-8.76-2.5c-5.56-1.6-9.96-3.88-13.2-6.85
			c-3.24-2.97-4.86-6.85-4.86-11.64c0-3.98,1.08-7.47,3.25-10.44c2.17-2.98,5.08-5.29,8.76-6.95c3.67-1.66,7.78-2.48,12.32-2.48
			c4.59,0,8.66,0.82,12.23,2.45s6.4,3.86,8.5,6.69c2.1,2.83,3.2,6.04,3.32,9.63H328.02z"/>
		<path class="st0" d="M393.58,295.05v71.17h-8.62v-71.17H393.58z"/>
		<path class="st0" d="M463.66,366.22H441.7v-71.17h22.94c6.9,0,12.81,1.42,17.72,4.26c4.91,2.84,8.68,6.9,11.29,12.2
			c2.62,5.29,3.93,11.62,3.93,18.99c0,7.41-1.32,13.79-3.96,19.13c-2.64,5.34-6.49,9.44-11.54,12.3
			C477.03,364.79,470.89,366.22,463.66,366.22z M450.32,358.58h12.79c5.88,0,10.76-1.13,14.63-3.41c3.87-2.27,6.75-5.5,8.65-9.7
			s2.85-9.19,2.85-14.98c0-5.75-0.94-10.7-2.81-14.86c-1.88-4.16-4.68-7.35-8.41-9.59c-3.73-2.24-8.38-3.35-13.93-3.35h-13.76
			V358.58z"/>
		<path class="st0" d="M547.71,366.22v-71.17h42.95v7.65h-34.33v24.05h32.11v7.64h-32.11v24.19h34.89v7.64H547.71z"/>
		<path class="st0" d="M695.36,295.05v71.17h-8.34l-38.78-55.88h-0.69v55.88h-8.62v-71.17h8.34l38.92,56.02h0.69v-56.02H695.36z"/>
		<path class="st0" d="M800.03,317.29h-8.62c-0.51-2.48-1.4-4.66-2.66-6.53c-1.26-1.88-2.79-3.46-4.59-4.74
			c-1.8-1.29-3.78-2.25-5.96-2.9c-2.18-0.65-4.45-0.97-6.81-0.97c-4.31,0-8.21,1.09-11.69,3.27c-3.49,2.18-6.26,5.39-8.31,9.63
			c-2.05,4.24-3.08,9.44-3.08,15.6c0,6.16,1.03,11.36,3.08,15.6c2.05,4.24,4.82,7.45,8.31,9.63c3.49,2.18,7.38,3.27,11.69,3.27
			c2.36,0,4.63-0.32,6.81-0.97c2.18-0.65,4.16-1.62,5.96-2.9c1.79-1.29,3.32-2.87,4.59-4.76c1.26-1.89,2.15-4.06,2.66-6.52h8.62
			c-0.65,3.64-1.83,6.89-3.54,9.77c-1.72,2.87-3.85,5.31-6.39,7.31c-2.55,2-5.4,3.53-8.57,4.57c-3.16,1.04-6.54,1.56-10.13,1.56
			c-6.07,0-11.47-1.48-16.19-4.45c-4.73-2.97-8.44-7.18-11.16-12.65c-2.71-5.47-4.07-11.95-4.07-19.46c0-7.51,1.35-13.99,4.07-19.46
			c2.71-5.47,6.43-9.68,11.16-12.65c4.73-2.97,10.12-4.45,16.19-4.45c3.59,0,6.97,0.52,10.13,1.56c3.16,1.04,6.02,2.57,8.57,4.57
			c2.55,2,4.68,4.44,6.39,7.3C798.2,310.37,799.38,313.63,800.03,317.29z"/>
		<path class="st0" d="M847.02,366.22v-71.17h42.95v7.65h-34.33v24.05h32.11v7.64h-32.11v24.19h34.89v7.64H847.02z"/>
		<path class="st0" d="M978.09,312.85c-0.42-3.52-2.11-6.26-5.07-8.2c-2.97-1.95-6.6-2.92-10.91-2.92c-3.15,0-5.9,0.51-8.25,1.53
			c-2.35,1.02-4.18,2.42-5.49,4.2c-1.31,1.78-1.96,3.81-1.96,6.08c0,1.9,0.46,3.53,1.37,4.88c0.91,1.35,2.09,2.48,3.53,3.37
			c1.44,0.89,2.94,1.62,4.52,2.19c1.57,0.57,3.02,1.02,4.34,1.37l7.23,1.95c1.85,0.49,3.92,1.16,6.2,2.02
			c2.28,0.86,4.47,2.02,6.57,3.49s3.83,3.35,5.2,5.65c1.37,2.29,2.05,5.11,2.05,8.44c0,3.85-1,7.32-3.01,10.43
			c-2,3.1-4.92,5.57-8.76,7.4c-3.83,1.83-8.48,2.75-13.95,2.75c-5.1,0-9.5-0.82-13.22-2.47c-3.72-1.64-6.64-3.94-8.76-6.88
			c-2.12-2.94-3.32-6.36-3.6-10.25h8.9c0.23,2.69,1.14,4.91,2.73,6.65c1.59,1.75,3.6,3.05,6.05,3.89c2.44,0.85,5.08,1.27,7.91,1.27
			c3.29,0,6.24-0.54,8.86-1.62c2.62-1.08,4.69-2.58,6.22-4.52c1.53-1.93,2.29-4.2,2.29-6.79c0-2.36-0.66-4.29-1.98-5.77
			c-1.32-1.48-3.06-2.69-5.21-3.61c-2.15-0.93-4.48-1.74-6.98-2.43l-8.76-2.5c-5.56-1.6-9.96-3.88-13.2-6.85
			c-3.24-2.97-4.86-6.85-4.86-11.64c0-3.98,1.08-7.47,3.25-10.44c2.17-2.98,5.08-5.29,8.76-6.95c3.67-1.66,7.78-2.48,12.32-2.48
			c4.59,0,8.66,0.82,12.23,2.45s6.4,3.86,8.5,6.69c2.1,2.83,3.2,6.04,3.32,9.63H978.09z"/>
	</g>
	<polygon class="st0" points="596.02,0 596.02,118.27 497.68,29.91 497.68,29.91 465.35,0 465.35,199.53 499.41,199.53 
		499.41,83.01 630.08,199.53 630.08,0 	"/>
	<polygon class="st0" points="107.02,9.22 107.02,88.85 31.41,88.85 31.41,9.22 0,9.22 0,199.53 31.41,199.53 31.41,119.9 
		107.02,119.9 107.02,199.53 138.44,199.53 138.44,9.22 	"/>
	<path class="st0" d="M846.49,199.53h38.17L791.06,1.47l-0.18-0.38l0,0l0,0l-0.18,0.38l-93.6,198.06h38.17l14.58-30.76h82.04
		L846.49,199.53z M764.58,137.72l26.3-55.46l26.3,55.46H764.58z"/>
	<path class="st0" d="M348.19,9.22v123.72c0,21.23-17.21,38.43-38.43,38.43h-8.06c-21.23,0-38.43-17.21-38.43-38.43V9.22h-31.69
		v122.45c0,39.39,31.93,71.32,71.32,71.32h5.66c39.39,0,71.32-31.93,71.32-71.32V9.22H348.19z"/>
	<path class="st0" d="M1041.69,104.37h-5.2c21.26,0,38.49-17.23,38.49-38.49v0c0-31.29-25.37-56.66-56.66-56.66h-36.75h-18.54
		h-12.88v190.3h19.72h11.69h51.32c26.58,0,48.12-21.55,48.12-48.12v-7.72C1081,121.97,1063.4,104.37,1041.69,104.37z M981.56,41.64
		h35.61c13.62,0,24.66,11.04,24.66,24.66v0c0,13.62-11.04,24.66-24.66,24.66h-35.61V41.64z M1049.22,145.19
		c0,13.62-11.04,24.66-24.66,24.66h-43.01v-49.31h43.01C1038.18,120.54,1049.22,131.58,1049.22,145.19L1049.22,145.19z"/>
</g>
</svg>
