<?xml version="1.0" encoding="utf-8"?>
<!-- Generator: Adobe Illustrator 27.2.0, SVG Export Plug-In . SVG Version: 6.00 Build 0)  -->
<svg version="1.1" id="Capa_1" xmlns="http://www.w3.org/2000/svg" xmlns:xlink="http://www.w3.org/1999/xlink" x="0px" y="0px"
	 viewBox="0 0 1081 220.51" style="enable-background:new 0 0 1081 220.51;" xml:space="preserve">
<style type="text/css">
	.st0{fill:#FFFFFF;}
</style>
<g>
	<path class="st0" d="M7.57,27.26C7.57,15.75,5.76,8.18,0,4.85h65.12c-5.76,3.33-7.57,10.9-7.57,22.41V198.1
		c0,11.51,1.82,19.08,7.57,22.41H0c5.76-3.33,7.57-10.9,7.57-22.41V27.26z"/>
	<path class="st0" d="M157.44,220.51c5.76-3.33,7.57-10.9,7.57-22.41V0c4.54,3.94,9.39,5.76,14.84,5.76
		c9.69,0,28.78-5.76,43.62-5.76c53.92,0,82.39,40.29,82.39,78.45c0,41.8-31.5,77.84-79.36,77.84c-4.24,0-7.87-0.3-11.51-0.91v42.71
		c0,11.51,1.82,19.08,7.57,22.41H157.44z M214.99,104.5c2.43,1.21,6.36,1.82,9.69,1.82c16.96,0,29.08-9.69,29.08-28.17
		s-12.12-28.17-29.08-28.17c-3.33,0-7.27,0.61-9.69,1.82V104.5z"/>
	<path class="st0" d="M428.38,186.28l-5.15,13.33c-1.51,3.94-2.12,6.36-2.12,10c0,4.85,1.82,7.57,4.85,10.9h-69.36
		c3.03-2.12,5.76-6.06,6.97-9.39l71.18-178.1c3.33-8.48,5.45-14.24,5.45-17.27c0-4.85-1.82-7.57-4.85-10.9h51.8l77.24,200.21
		c2.42,6.36,6.36,11.82,9.69,15.45h-68.76c3.03-3.33,4.85-6.06,4.85-10.9c0-3.64-0.61-6.06-2.12-10l-5.15-13.33H428.38z
		 M488.65,142.67l-22.11-71.48h-0.61l-22.11,71.48H488.65z"/>
	<path class="st0" d="M645.17,27.26c0-11.51-1.82-19.08-7.57-22.41h57.25c23.93,42.4,47.25,84.81,61.79,120.55h0.61V27.26
		c0-11.51-1.82-19.08-7.57-22.41h65.12c-5.76,3.33-7.57,10.9-7.57,22.41V198.1c0,11.51,1.82,19.08,7.57,22.41h-57.25
		c-22.11-45.13-49.98-87.23-61.79-116.92h-0.61v94.5c0,11.51,1.82,19.08,7.57,22.41h-65.12c5.76-3.33,7.57-10.9,7.57-22.41V27.26z"
		/>
	<path class="st0" d="M935.31,186.28l-5.15,13.33c-1.51,3.94-2.12,6.36-2.12,10c0,4.85,1.82,7.57,4.85,10.9h-69.36
		c3.03-2.12,5.76-6.06,6.97-9.39l71.18-178.1c3.33-8.48,5.45-14.24,5.45-17.27c0-4.85-1.82-7.57-4.85-10.9h51.8l77.24,200.21
		c2.42,6.36,6.36,11.82,9.69,15.45h-68.76c3.03-3.33,4.85-6.06,4.85-10.9c0-3.64-0.61-6.06-2.12-10l-5.15-13.33H935.31z
		 M995.58,142.67l-22.11-71.48h-0.61l-22.11,71.48H995.58z"/>
</g>
</svg>
