<?xml version="1.0" encoding="utf-8"?>
<!-- Generator: Adobe Illustrator 27.2.0, SVG Export Plug-In . SVG Version: 6.00 Build 0)  -->
<svg version="1.1" id="Capa_1" xmlns="http://www.w3.org/2000/svg" xmlns:xlink="http://www.w3.org/1999/xlink" x="0px" y="0px"
	 viewBox="0 0 893.34 757.27" style="enable-background:new 0 0 893.34 757.27;" xml:space="preserve">
<style type="text/css">
	.st0{fill:#FFFFFF;}
</style>
<g>
	<g>
		<path class="st0" d="M169.33,756.4h-6.57v-34.58c0-1.4,0.04-2.97,0.13-4.69c0.08-1.72,0.21-3.57,0.38-5.56h-0.18
			c-0.29,1.21-0.56,2.25-0.82,3.13c-0.25,0.87-0.5,1.57-0.74,2.11l-17.29,39.59h-3.6l-17.25-39.3c-0.24-0.58-0.5-1.33-0.76-2.25
			c-0.27-0.92-0.53-2.01-0.8-3.27h-0.18c0.12,1.19,0.21,2.65,0.25,4.4c0.05,1.74,0.07,3.78,0.07,6.1v34.33h-6.32v-52.09h8.9
			l15.47,35.82c0.63,1.36,1.14,2.56,1.53,3.61s0.67,1.96,0.84,2.71h0.22c0.51-1.43,0.97-2.68,1.38-3.76
			c0.41-1.08,0.77-1.98,1.09-2.71l15.77-35.67h8.5V756.4z"/>
		<path class="st0" d="M226.58,757.27c-7.39,0-13.31-2.43-17.78-7.3c-4.47-4.87-6.7-11.2-6.7-19c0-8.36,2.28-15.03,6.83-20.03
			c4.55-5,10.73-7.5,18.53-7.5c7.22,0,13.03,2.42,17.45,7.26c4.42,4.84,6.63,11.19,6.63,19.04c0,8.48-2.27,15.18-6.81,20.12
			C240.19,754.8,234.14,757.27,226.58,757.27z M226.62,751.35c5.57,0,9.95-1.82,13.15-5.47c3.2-3.65,4.8-8.76,4.8-15.35
			c0-6.73-1.56-11.94-4.67-15.62c-3.11-3.68-7.4-5.52-12.88-5.52c-5.33,0-9.65,1.93-12.97,5.79c-3.32,3.86-4.98,8.94-4.98,15.24
			c0,6.3,1.62,11.36,4.85,15.18C217.16,749.44,221.39,751.35,226.62,751.35z"/>
		<path class="st0" d="M326.7,756.4h-7.88l-26.3-40.68c-0.36-0.58-0.7-1.15-1-1.71c-0.3-0.56-0.56-1.11-0.78-1.67h-0.22
			c0.1,0.58,0.17,1.48,0.22,2.69c0.05,1.21,0.07,2.74,0.07,4.58v36.8h-6.54v-52.09h8.35l25.57,39.99c0.53,0.85,0.98,1.57,1.34,2.16
			c0.36,0.59,0.63,1.06,0.8,1.4h0.15c-0.12-0.73-0.21-1.73-0.27-3c-0.06-1.27-0.09-2.8-0.09-4.59v-35.96h6.57V756.4z"/>
		<path class="st0" d="M394.16,710.19h-15.04v46.21h-6.61v-46.21h-15v-5.88h36.65V710.19z"/>
		<path class="st0" d="M452.91,756.4h-27.93v-52.09h26.77v5.88h-20.16v16.78h18.67v5.88h-18.67v17.65h21.32V756.4z"/>
		<path class="st0" d="M485.46,756.4v-52.09h15.22c4.63,0,8.28,1.07,10.95,3.22c2.68,2.14,4.02,5.07,4.02,8.77
			c0,2.93-0.8,5.48-2.4,7.65c-1.6,2.17-3.8,3.71-6.61,4.63v0.15c3.51,0.41,6.31,1.74,8.41,3.98c2.09,2.24,3.14,5.14,3.14,8.7
			c0,4.48-1.61,8.1-4.83,10.86c-3.22,2.76-7.31,4.14-12.28,4.14H485.46z M492.07,710.12v16.42h6.17c3.25,0,5.8-0.78,7.66-2.34
			c1.86-1.56,2.8-3.76,2.8-6.59c0-2.52-0.82-4.4-2.47-5.63c-1.65-1.24-4.11-1.85-7.37-1.85H492.07z M492.07,732.35v18.23h8.1
			c3.51,0,6.23-0.83,8.16-2.49c1.93-1.66,2.89-3.93,2.89-6.81c0-2.95-1.02-5.18-3.05-6.68c-2.03-1.5-5.07-2.25-9.12-2.25H492.07z"/>
		<path class="st0" d="M579.18,756.4h-27.93v-52.09h26.77v5.88h-20.16v16.78h18.67v5.88h-18.67v17.65h21.32V756.4z"/>
		<path class="st0" d="M639.13,756.4h-27.39v-52.09h6.61v46.21h20.78V756.4z"/>
		<path class="st0" d="M697.11,756.4h-27.39v-52.09h6.61v46.21h20.78V756.4z"/>
		<path class="st0" d="M746.22,757.27c-7.39,0-13.31-2.43-17.78-7.3c-4.47-4.87-6.7-11.2-6.7-19c0-8.36,2.28-15.03,6.83-20.03
			c4.55-5,10.73-7.5,18.53-7.5c7.22,0,13.04,2.42,17.45,7.26c4.42,4.84,6.63,11.19,6.63,19.04c0,8.48-2.27,15.18-6.81,20.12
			C759.83,754.8,753.78,757.27,746.22,757.27z M746.26,751.35c5.57,0,9.95-1.82,13.15-5.47c3.2-3.65,4.79-8.76,4.79-15.35
			c0-6.73-1.56-11.94-4.67-15.62c-3.11-3.68-7.4-5.52-12.88-5.52c-5.33,0-9.65,1.93-12.97,5.79c-3.32,3.86-4.98,8.94-4.98,15.24
			c0,6.3,1.62,11.36,4.85,15.18C736.8,749.44,741.03,751.35,746.26,751.35z"/>
	</g>
	<rect x="244.14" y="426.51" class="st0" width="54" height="26.69"/>
	<g>
		<polygon class="st0" points="433.73,466.83 379.09,466.83 379.09,493.52 433.73,493.52 433.73,635.73 462.78,635.73 
			462.78,493.52 517.42,493.52 517.42,466.83 462.78,466.83 		"/>
		<path class="st0" d="M281.72,466.83h-21.24h-7.81l-57.72,168.9H224l12.16-35.6h69.87l12.16,35.6h29.05l-57.72-168.9H281.72z
			 M245.28,573.45l25.82-75.54l25.82,75.54H245.28z"/>
		<path class="st0" d="M103.41,466.83l-74.36,83.03v-83.03H0v168.9h29.05v-44.47l25.65-28.58l42.65,61.95
			c4.79,6.95,12.68,11.1,21.12,11.1h22.24v-21.62h-8.6c-6.36,0-12.28-3.26-15.69-8.63l-41.48-65.37l65.77-73.28H103.41z"/>
		<polygon class="st0" points="583.24,466.83 579.15,466.83 579.15,635.73 583.24,635.73 608.2,635.73 696.28,635.73 696.28,609.04 
			608.2,609.04 608.2,564.62 685.85,564.62 685.85,537.94 608.2,537.94 608.2,493.52 696.28,493.52 696.28,466.83 608.2,466.83 		
			"/>
		<path class="st0" d="M880.97,614.11c-5.49,0-10.53-3.01-13.13-7.84l-19.71-36.58c19.2-8.13,32.67-27.15,32.67-49.32v0
			c0-29.57-23.97-53.54-53.54-53.54h-40.7h-4.86H757.5v168.9h29.05v-61.82h31.05l34.77,53.72c3.27,5.05,8.88,8.1,14.9,8.1h26.07
			v-21.62H880.97z M823.87,552.63h-37.32v-61.82h37.32c16.58,0,30.01,13.44,30.01,30.01v1.79
			C853.89,539.19,840.45,552.63,823.87,552.63z"/>
	</g>
	<path class="st0" d="M585.9,0H307.48c-10.7,0-19.38,8.68-19.38,19.38v270.7v13.93v13.93c0,7.84,6.35,14.19,14.19,14.19
		s14.19-6.35,14.19-14.19v-13.93h260.44v13.93c0,7.84,6.35,14.19,14.19,14.19c7.84,0,14.19-6.35,14.19-14.19v-13.93v-13.93V19.38
		C605.29,8.68,596.61,0,585.9,0z M316.47,32.94h74.06v93c0,7.04-1.6,13.97-4.7,20.3c-7.13,14.56-22.71,42.21-49.1,69.15
		c-5.19,5.3-5.55,13.65-0.79,19.34c5.36,6.4,15.01,6.93,21.02,1.14c18.24-17.6,52.88-54.96,61.14-92.01c0.66-2.98,1-6.01,1.05-9.06
		l1.87-101.85h46.7V173.8c0,23.79,19.28,43.07,43.07,43.07h36.74c8.26,0,14.95-6.69,14.95-14.95c0-8.26-6.69-14.95-14.95-14.95
		H515.6c-9.65,0-17.48-7.83-17.48-17.48V32.94h78.79v240.68H316.47V32.94z"/>
</g>
</svg>
