<?xml version="1.0" encoding="utf-8"?>
<!-- Generator: Adobe Illustrator 27.2.0, SVG Export Plug-In . SVG Version: 6.00 Build 0)  -->
<svg version="1.1" id="Capa_1" xmlns="http://www.w3.org/2000/svg" xmlns:xlink="http://www.w3.org/1999/xlink" x="0px" y="0px"
	 viewBox="0 0 1081 771.56" style="enable-background:new 0 0 1081 771.56;" xml:space="preserve">
<style type="text/css">
	.st0{fill:#FFFFFF;}
</style>
<g>
	<g>
		<rect x="238.06" y="410.5" class="st0" width="35.18" height="216.35"/>
		<polygon class="st0" points="487.35,571.96 352.6,410.5 311.42,410.5 336.88,441.8 336.88,626.85 372.06,626.85 372.06,485.07 
			487.35,626.85 522.53,626.85 522.53,410.5 487.35,410.5 		"/>
		<rect x="583.17" y="410.5" class="st0" width="35.18" height="216.35"/>
		<path class="st0" d="M1045.82,410.5v85.45c-15.64,6.6-53.79,9.11-78.32,0.64c-21.2-7.32-36.31-1.82-43.7,2.36V410.5h-35.18v216.35
			h35.18V530.3c7.39-4.17,22.5-9.68,43.7-2.36c24.53,8.47,62.68,5.96,78.32-0.64v99.55H1081V410.5H1045.82z"/>
		<path class="st0" d="M149.39,577.75l-40.94-63.6l70.48-103.65h-35.18L35.18,570.15V410.5H0v216.35h35.18v-4.95l55.19-81.17
			l40.77,64.69c8.41,13.35,23.09,21.44,38.87,21.44h17.88v-34.62h-11.98C165.19,592.23,155.2,586.77,149.39,577.75z"/>
		<path class="st0" d="M815.24,505.95c-13.26-9.71-32.79-10.71-48.56-11.73c-8.83-0.57-17.67-0.77-26.51-1.03
			c-11.57-0.34-26.39,0.85-31.14-12.48c-7.7-21.61,8.46-38.49,28.27-42.4c13.42-2.65,27.36-2.74,40.79-0.13
			c14.97,2.92,27.61,14.65,39.4,23.6c0,0,16.1-25.08,16.09-25.09c-4.39-15.73-46.77-27.84-59.73-30.04
			c-29.9-5.08-72.52,0.51-92.59,26.07c-24.03,30.6-8.19,81.76,30.52,89.94c13.52,2.86,27.35,3.87,41.14,4.24
			c12.82,0.34,25.76-0.95,37.85,4.3c17.01,7.4,27.87,27.16,15.97,43.79c-21.36,29.85-70.8,29.37-98.76,10.85
			c-1.91-1.27-28.55-22.2-26.55-24.49c-0.01,0.01-23.02,26.39-23.02,26.39c46.79,52.22,99.19,50.72,134.38,39.12
			c23.29-7.68,44.18-27.1,50.83-51.3C851.13,548.15,837.19,522.01,815.24,505.95z"/>
	</g>
	<g>
		<path class="st0" d="M278.9,770.89c-0.44,0-1.33,0-2.22-0.07c-9.39-0.44-12.12-2.44-14.34-5.54c-2.96-4.07-5.1-8.58-7.61-13.01
			c-1.11-2-2.14-2.44-4.51-2.44l-1.48-0.07v10.79c0,5.99,0.74,6.51,6.28,7.17v2.73H232.4v-2.73c5.62-0.59,6.28-1.18,6.28-7.17
			v-28.31c0-5.84-0.74-6.65-6.28-7.1v-2.74h21.44c6.58,0,10.35,0.74,13.38,2.81c2.96,2,4.95,5.25,4.95,9.83
			c0,6.58-4.36,10.05-9.24,11.98c1.11,2.22,3.99,7.02,6.21,10.42c2.59,4.07,4.21,6.06,5.62,7.69c1.7,1.92,2.51,2.51,4.66,3.25
			L278.9,770.89z M250.74,746.72c3.18,0,5.62-0.52,7.25-1.92c2.44-2.07,3.47-4.88,3.47-8.65c0-7.84-4.51-10.65-8.65-10.65
			c-2,0-2.96,0.3-3.4,0.74c-0.52,0.44-0.66,1.33-0.66,2.81v17.67H250.74z"/>
		<path class="st0" d="M337.39,757.88c-0.37,2-2.44,10.5-3.1,12.57h-38.37v-2.66c6.73-0.67,7.17-1.03,7.17-7.24V732.3
			c0-6.28-0.89-6.73-5.91-7.17v-2.74h24.03c7.76,0,10.35-0.07,11.38-0.15c0.07,1.33,0.44,7.39,0.74,11.98l-2.88,0.37
			c-0.67-2.52-1.92-5.55-3.18-6.88c-1.33-1.48-2.29-1.92-6.06-1.92h-4.81c-2.81,0-3.1,0.15-3.1,2.66v15.45h7.25
			c4.14,0,4.88-1.11,5.99-6.36h2.88v16.48h-2.88c-1.18-5.47-1.77-6.36-6.06-6.36h-7.17v12.72c0,5.1,0.15,6.65,4.73,6.73h5.25
			c4.14,0,5.25-0.52,6.88-2.51c1.85-2.14,3.33-4.88,4.51-7.39L337.39,757.88z"/>
		<path class="st0" d="M385.3,734.6c-1.48-4.73-3.55-10.13-10.35-10.13c-4.29,0-7.1,3.03-7.1,7.17c0,4.07,2.73,6.51,9.24,9.76
			c7.91,3.92,12.94,7.76,12.94,15.08c0,8.72-7.24,15.08-17.82,15.08c-4.73,0-8.95-1.26-12.42-2.29c-0.44-1.7-1.7-9.39-2.22-12.87
			l2.88-0.67c1.48,4.66,5.62,12.72,12.86,12.72c4.51,0,7.24-2.81,7.24-7.54c0-4.29-2.66-6.8-8.87-10.13
			c-7.69-4.14-12.72-7.83-12.72-15.52c0-7.76,6.06-13.9,17.15-13.9c5.1,0,8.94,1.11,10.57,1.33c0.3,2.73,0.81,6.58,1.4,11.24
			L385.3,734.6z"/>
		<path class="st0" d="M410.67,770.45v-2.73c5.62-0.52,6.28-0.96,6.28-7.17v-28.17c0-6.21-0.74-6.8-6.28-7.24v-2.74h22.84v2.74
			c-5.54,0.52-6.28,1.03-6.28,7.24v28.17c0,6.14,0.67,6.58,6.28,7.17v2.73H410.67z"/>
		<path class="st0" d="M473.91,722.4c9.46,0,16.41,2,21.14,6.43c3.77,3.47,6.65,8.65,6.65,16.12c0,8.5-3.55,15.01-9.24,19.29
			c-5.47,4.14-12.49,6.21-20.92,6.21h-20.33v-2.73c5.62-0.44,6.28-1.11,6.28-7.25v-28.09c0-6.21-0.81-6.8-6.28-7.24v-2.74H473.91z
			 M467.77,759.95c0,5.25,1.33,7.02,6.73,7.02c9.98,0,15.75-6.95,15.75-20.92c0-7.02-1.92-13.16-5.32-16.34
			c-3.1-3.1-6.95-4.14-11.9-4.14c-2.74,0-3.99,0.59-4.44,1.03c-0.67,0.67-0.81,1.92-0.81,4.07V759.95z"/>
		<path class="st0" d="M557.53,757.88c-0.37,2-2.44,10.5-3.11,12.57h-38.37v-2.66c6.73-0.67,7.17-1.03,7.17-7.24V732.3
			c0-6.28-0.89-6.73-5.91-7.17v-2.74h24.03c7.76,0,10.35-0.07,11.38-0.15c0.07,1.33,0.44,7.39,0.74,11.98l-2.88,0.37
			c-0.67-2.52-1.92-5.55-3.18-6.88c-1.33-1.48-2.29-1.92-6.06-1.92h-4.81c-2.81,0-3.1,0.15-3.1,2.66v15.45h7.24
			c4.14,0,4.88-1.11,5.99-6.36h2.88v16.48h-2.88c-1.18-5.47-1.77-6.36-6.06-6.36h-7.17v12.72c0,5.1,0.15,6.65,4.73,6.73h5.25
			c4.14,0,5.25-0.52,6.88-2.51c1.85-2.14,3.33-4.88,4.51-7.39L557.53,757.88z"/>
		<path class="st0" d="M622.97,725.13c-4.51,0.59-5.92,1.55-6.14,4.88c-0.22,2.88-0.44,5.4-0.44,11.83v29.42h-4.14l-30.83-36.96
			v16.71c0,6.43,0.15,9.32,0.37,11.46c0.3,3.25,1.85,4.95,7.32,5.25v2.73h-18.33v-2.73c4.22-0.37,6.06-1.48,6.51-4.95
			c0.3-2.66,0.44-5.32,0.44-11.76v-17.52c0-2.44-0.15-4.07-1.55-5.99c-1.33-1.85-3.1-2.07-6.21-2.37v-2.74h14.42l28.17,32.75v-13.31
			c0-6.43-0.07-8.87-0.29-11.61c-0.22-3.18-1.41-4.73-7.54-5.1v-2.74h18.26V725.13z"/>
		<path class="st0" d="M687.06,757.73c-1.03,3.7-2.96,9.32-4.14,11.9c-1.92,0.44-7.98,1.92-13.6,1.92
			c-19.89,0-28.09-12.79-28.09-24.54c0-15.3,11.68-25.65,29.42-25.65c6.43,0,12.12,1.55,13.97,1.77c0.37,3.47,0.89,8.94,1.4,12.2
			l-2.96,0.52c-1.55-5.77-3.77-8.5-7.69-10.05c-1.77-0.74-4.44-1.04-6.43-1.04c-10.72,0-16.12,8.95-16.12,20.55
			c0,13.53,6.95,22.69,17.08,22.69c6.21,0,10.35-3.25,14.34-11.38L687.06,757.73z"/>
		<path class="st0" d="M701.39,770.45v-2.73c5.62-0.52,6.28-0.96,6.28-7.17v-28.17c0-6.21-0.74-6.8-6.28-7.24v-2.74h22.84v2.74
			c-5.54,0.52-6.28,1.03-6.28,7.24v28.17c0,6.14,0.67,6.58,6.28,7.17v2.73H701.39z"/>
		<path class="st0" d="M764.26,770.45v-2.73c4.66-0.67,4.66-1.48,3.62-4.66c-0.74-2.22-1.92-5.54-3.03-8.5h-14.42
			c-0.82,2.29-1.85,5.1-2.59,7.39c-1.55,4.66,0.22,5.25,6.06,5.77v2.73h-18.26v-2.73c4.66-0.59,5.84-1.26,8.35-7.47l15.38-38.22
			l3.55-0.67c4.73,12.86,9.76,26.02,14.57,38.37c2.73,6.88,3.4,7.39,8.21,7.98v2.73H764.26z M757.76,735.11
			c-2.14,5.32-4.22,10.28-6.06,15.67h11.75L757.76,735.11z"/>
		<path class="st0" d="M843.45,757.44c-0.59,3.18-2.66,11.02-3.33,13.01h-36.67v-2.73c6.51-0.44,7.1-0.96,7.1-7.17v-28.17
			c0-6.21-0.74-6.8-6.28-7.24v-2.74h23.07v2.74c-5.77,0.52-6.51,1.03-6.51,7.24v28.68c0,4.07,0.15,5.91,4.22,5.99
			c0.15,0.07,3.55,0.07,3.84,0.07c4.21,0,5.32-0.89,7.1-2.88c1.4-1.48,3.33-4.66,4.66-7.69L843.45,757.44z"/>
	</g>
	<path class="st0" d="M516.03,0c-87.39,0-158.5,71.1-158.5,158.5s71.1,158.5,158.5,158.5c87.4,0,158.5-71.1,158.5-158.5
		S603.43,0,516.03,0z M552.43,15.55c2.56,65.16-79.17,109.28-104.69,121.42c-36.52,17.37-55.31,65.98-62.51,89.58
		c-6.4-12.25-11.14-25.5-13.89-39.45c1.27-7.29,11.24-56.58,50.99-75.48c4.34-2.06,8.65-4.04,12.88-5.99
		c39.61-18.22,77.02-35.48,72.75-94.39c2.68-0.15,5.37-0.23,8.08-0.23C528.59,11,540.79,12.58,552.43,15.55z M504.12,194.24
		c-42.25-20.14-60.29-32.13-66.92-37.11c4.67-4.1,9.75-7.61,15.26-10.23c22.83-10.86,64.86-34.23,90.15-68.82
		c35.5,9.06,60.88,41.45,60.88,78.45c0,35.71-22.79,66.5-56.22,77.12C538.18,218.47,524.57,203.99,504.12,194.24z M497.01,12.26
		c3.65,51.1-25.82,64.7-66.4,83.37c-4.27,1.97-8.62,3.97-13,6.05c-26.68,12.69-41.27,36.58-49.04,55.79
		C369.07,83.05,424.97,21.59,497.01,12.26z M392.98,239.71c1.37-5.38,5.3-19.57,12.34-35.56c10.81,6.1,34.52,19.33,61.88,33.62
		c27.41,14.32,31.61,52.61,32.2,67.27C455,300.03,416.52,275.24,392.98,239.71z M510.47,305.86c-0.39-15.65-4.53-60.26-38.17-77.84
		c-27.83-14.54-51.87-27.97-62.27-33.84c5.16-10.17,11.58-20.45,19.34-29.2c6.8,5.3,25.32,17.89,70.02,39.19
		c54.84,26.14,55.11,93.18,55.08,96.72c-12.26,3.31-25.14,5.11-38.44,5.11C514.17,306,512.32,305.93,510.47,305.86z M565.43,297.46
		c-0.27-8.84-2.1-31.23-12.88-53.98c36.92-12.62,61.96-47.08,61.96-86.95c0-40.73-27.08-76.54-65.47-88.08
		c8.86-14.75,14.45-31.3,14.47-49.57c58.11,19.81,100.03,74.89,100.03,139.62C663.53,222.51,622.53,277.1,565.43,297.46z"/>
</g>
</svg>
