<?xml version="1.0" encoding="utf-8"?>
<!-- Generator: Adobe Illustrator 27.2.0, SVG Export Plug-In . SVG Version: 6.00 Build 0)  -->
<svg version="1.1" id="Capa_1" xmlns="http://www.w3.org/2000/svg" xmlns:xlink="http://www.w3.org/1999/xlink" x="0px" y="0px"
	 viewBox="0 0 1079.55 286.99" style="enable-background:new 0 0 1079.55 286.99;" xml:space="preserve">
<style type="text/css">
	.st0{fill:#FFFFFF;}
	.st1{fill-rule:evenodd;clip-rule:evenodd;fill:#FFFFFF;}
</style>
<g id="Grupo_28">
	<path id="Trazado_357" class="st0" d="M1017.12,167.45c-0.7-1.34-1.83-2.96-3.1-3.31c-3.66-1.06-7.39-1.69-11.19-1.76
		c-14.36,0.21-28.72,0.7-43.15,1.2c-3.87,0.14-7.74,0.35-12.53,0.63c1.27-2.46,2.25-4.22,3.1-5.98c6.33-13.3,12.81-26.61,19-39.98
		c0.99-2.18,1.9-5.35-0.99-6.41c-2.25-0.49-4.65,0.07-6.41,1.55c-3.52,3.31-6.55,7.18-8.94,11.47c-6.19,12.18-11.9,24.63-17.6,37.09
		c-0.92,1.97-1.69,3.45-4.22,3.52c-12.88,0.28-25.76,0.99-38.64,1.06c-3.8,0-7.6-1.48-11.4-2.04c-0.99-0.14-2.04,0.56-3.03,0.84
		c0.63,1.2,0.99,3.1,1.9,3.38c2.25,0.49,4.58,0.7,6.83,0.49c14.22-0.7,28.44-1.48,42.65-2.25c1.13-0.07,2.32,0,4.15,0
		c-2.18,5.56-4.58,10.42-5.98,15.63c-2.75,9.92-4.93,19.99-7.46,29.91c-0.42,1.55-1.27,3.66-2.53,4.15
		c-15.7,6.41-31.25,13.02-47.23,18.51c-8.09,2.82-10.84,0.84-10.84-9.43c0-0.42,0.07-0.84,0.14-1.2c1.27-4.43,2.67-8.8,3.66-13.3
		c0.28-1.34-0.7-3.03-1.13-4.5c-1.55,0.42-3.03,0.99-4.43,1.62c-0.63,0.49-1.06,1.27-1.13,2.11c-1.13,5.49-5.07,8.45-9.43,11.12
		c-5.77,3.52-11.54,7.25-17.6,10.14c-4.43,2.04-9.08,3.52-13.87,4.29c-6.05,1.06-9.08-1.62-8.52-7.6s2.32-11.9,3.31-17.95
		c0-1.83-0.21-3.59-0.7-5.35c-1.55,0.7-3.03,1.69-4.29,2.82c-4.65,5.84-8.8,12.04-13.58,17.81c-2.25,2.67-5.42,4.5-9.01,7.39
		c-0.63-2.89-1.41-4.5-1.13-5.91c1.34-6.33,3.1-12.53,4.36-18.79c0.49-1.76,0.14-3.66-0.84-5.21c-1.97-1.69-3.8,0-4.79,2.04
		c-1.27,2.67-2.18,5.56-3.59,8.16c-0.7,1.34-1.9,2.25-3.31,2.67c-10.35,1.62-20.69,2.96-31.04,4.29c-1.2,0.14-2.46-0.21-3.38-1.06
		c-4.01-6.05-10.07-9.36-16.19-12.6c-8.24-4.36-16.89-8.24-24.63-13.37c-4.5-3.38-8.52-7.46-11.68-12.11
		c-2.67-3.52-2.82-8.31-0.21-11.9c2.53-4.15,5.63-7.88,9.22-11.26c12.53-11.12,27.59-19.07,43.85-23.16
		c7.04-1.83,14.36-2.39,21.61-1.76c8.87,0.84,11.97,8.45,6.9,15.84c-2.75,4.01-6.97,7.04-10.77,10.28c-1.97,1.69-3.59,3.31-1.55,5.7
		c1.9,2.32,3.87,1.06,5.49-0.63c5.63-5.63,9.15-13.02,9.99-20.9c0.84-8.16-3.52-14.57-10.77-15.77c-3.73-0.84-7.53-0.99-11.26-0.42
		c-8.52,1.62-16.89,3.87-24.99,6.76c-14.64,5.63-28.44,13.16-38.78,25.34c-3.24,3.8-5.49,8.31-6.69,13.16
		c-2.25,9.64,3.31,16.89,10.21,22.45c6.19,4.65,12.74,8.73,19.5,12.39c6.12,3.52,12.53,6.55,18.65,9.99c2.18,1.48,4.15,3.17,6.05,5
		c-2.18,0.63-3.45,0.99-4.72,1.41c-12.39,4.29-25.06,8.09-37.09,13.23c-7.46,3.24-14.15,8.45-20.83,13.23
		c-3.03,2.11-5.28,5.56-3.66,9.57c1.69,4.08,5.63,4.72,9.57,4.79c1.48,0.07,2.96-0.07,4.43-0.28c19.22-3.24,37.16-11.82,51.8-24.71
		c3.03-3.1,5.49-6.69,7.25-10.63c0.99-1.9,1.76-2.96,3.94-3.24c9.01-0.99,18.09-2.04,27.1-3.03c1.27-0.07,2.53-0.07,3.8,0
		c0.28,2.89,0.35,5.21,0.77,7.46c1.48,7.95,8.02,10.56,14.5,5.7c2.82-2.32,5.49-4.86,7.88-7.6c1.76-1.9,3.31-4.01,5.21-6.33
		c0.21,0.56,0.35,1.13,0.49,1.76c0.63,14.01,5.35,17.39,18.72,13.44c2.11-0.56,4.15-1.27,6.12-2.18
		c6.97-3.38,13.87-6.83,20.76-10.28c1.13-0.56,2.25-1.2,3.52-1.9c0.14,0.56,0.28,1.13,0.42,1.76c0.63,11.33,4.65,14.78,15.56,12.39
		c9.01-1.97,17.88-4.5,26.68-7.18c7.53-2.25,14.85-5.07,22.66-7.74c-0.07,1.48-0.14,2.67-0.28,3.87c-1.13,9.85-2.6,19.64-3.31,29.49
		c-0.56,8.38-0.63,17.03,3.73,24.56c1.9,2.75,4.29,5.07,7.04,6.97c0.49,0.42,2.25-0.63,3.38-1.06c-0.49-1.13-0.7-3.1-1.41-3.24
		c-8.45-2.04-10.28-8.73-10.84-15.77c-0.77-6.62-0.63-13.23,0.56-19.78c4.58-19.78,9.99-39.42,15.13-59.05
		c0.35-0.99,0.84-1.97,1.55-2.82c3.66-5.56,7.32-11.12,11.19-16.47c0.99-1.34,2.46-2.25,4.08-2.46c18.72-0.07,37.45-0.07,56.1,0.35
		c2.96,0.07,5.84,2.11,8.8,3.17c0.84,0.28,2.04,0.77,2.53,0.42C1016.63,169.49,1017.4,167.94,1017.12,167.45 M722.48,241.21
		c-10.07,8.52-21.75,14.99-34.35,18.93c-4.22,1.34-8.66,2.25-13.09,2.75c-2.04,0.21-4.15-0.49-5.56-1.97
		c-0.7-1.27,0.49-4.22,1.69-5.63c2.25-2.67,4.93-5.07,7.88-6.97c15.48-9.99,32.59-15.84,50.47-19.92c0.77-0.14,1.55-0.14,3.03-0.35
		C730.3,233.19,726.85,237.69,722.48,241.21 M953.56,135.56l0.92,0.63l-6.83,13.23l-0.77-0.35L953.56,135.56"/>
	<path id="Trazado_358" class="st0" d="M1031.55,197.36c3.73,1.06,3.94,3.87,2.25,6.33c-2.46,3.38-5.28,6.48-8.38,9.22
		c-2.82,2.32-5.77,4.43-8.87,6.33c3.1,4.36,5.91,8.59,9.08,12.6c0.49,0.63,2.89,0.21,4.15-0.21c14.5-4.93,29-9.92,43.43-14.85
		c0.7-0.35,1.55-0.56,2.39-0.49c1.34,0.49,2.67,1.06,3.94,1.69c-1.13,0.84-2.18,2.32-3.38,2.39c-16.05,0.99-30.69,6.55-44.98,13.23
		c-1.97,0.56-3.24,2.53-2.89,4.58c0.35,5.63-7.39,12.04-13.09,11.26c-2.11-0.14-3.8-1.9-3.66-4.01c0.07-0.99,0.49-1.9,1.2-2.6
		c2.96-2.82,6.12-5.49,9.36-7.95l-10.91-14.15c-2.39,1.06-4.65,2.18-6.97,3.17c-13.23,5.91-26.46,12.04-40.96,14.43
		c-4.5,0.7-9.15,0.63-13.65-0.21c-5.98-1.2-9.22-6.41-8.66-12.53c0.77-9.08,5.98-17.24,13.94-21.82c1.27-0.77,2.67-1.34,4.15-1.55
		c3.31-0.63,7.18-0.7,8.73,2.53c0.99,2.67,0.99,5.7-0.07,8.38c-3.52,8.38-11.97,13.65-20.97,13.16c-1.06,5.14,1.27,9.29,6.19,10.42
		c2.46,0.63,5.07,0.77,7.6,0.35c17.46-3.17,32.24-12.25,47.51-20.9c-2.96-7.25-1.48-12.95,4.65-17.1
		c6.26-4.29,14.29-4.86,19.07-1.55c-7.25-1.62-12.67,1.48-17.03,6.83c-2.39,2.96-2.39,6.41-0.56,10.21
		c6.55-3.1,12.39-7.53,17.1-13.09C1031.9,200.53,1031.48,198.77,1031.55,197.36 M961.8,208.55c-6.76,1.2-9.99,5.63-13.23,10.49
		C953.98,219.6,959.68,215.17,961.8,208.55 M1012.61,245.93l0.84,1.2c4.86,0.77,10.21-3.8,10.21-9.92L1012.61,245.93"/>
	<path id="Trazado_359" class="st0" d="M859.31,192.36c0.07-1.06,0.28-2.11,0.7-3.17c0.56-0.92,1.69-2.11,2.53-2.11
		c0.84,0,1.97,1.2,2.46,2.18c0.42,0.99,0.63,2.04,0.56,3.17c-0.07,2.39,0,5.63-3.03,5.56c-1.34,0-2.6-3.24-3.94-5L859.31,192.36"/>
	<path id="Trazado_360" class="st0" d="M313.62,34.77h55.25v1.69c-9.22,0-13.8,4.01-13.8,12.11v60.74l48.64-61.8
		c1.55-1.76,2.53-3.94,2.89-6.19c0-3.24-3.94-4.86-11.9-4.86V34.7h29.28v1.76c-3.1-0.14-6.26,0.42-9.08,1.83
		c-2.11,1.2-5.35,4.5-9.57,9.92l-20.97,26.68l31.96,63.77c2.67,5.49,4.79,8.87,6.48,9.99c2.53,1.34,5.35,1.97,8.16,1.76v1.76h-32.8
		c-4.36,0-8.45-4.22-12.25-12.74l-20.41-40.47L355,112.12v26.18c0,8.09,4.58,12.11,13.8,12.11v1.76h-55.25v-1.76
		c9.22,0,13.8-4.01,13.8-12.11V48.57c0-8.02-4.58-12.11-13.8-12.11v-1.69H313.62z"/>
	<path id="Trazado_361" class="st0" d="M534.56,93.47V48.57c0-8.02-4.58-12.11-13.8-12.11V34.7h29.35v1.69
		c-9.22,0-13.8,4.01-13.8,12.11V93.4c0,18.16-2.39,32.03-7.11,41.53c-5.98,12.04-16.26,18.02-30.9,18.02
		c-18.09,0-31.67-5.35-40.75-16.05c-7.39-8.66-11.05-22.03-11.05-40.05V48.57c0-8.02-4.58-12.11-13.8-12.11V34.7h55.25v1.69
		c-9.22,0-13.8,4.01-13.8,12.11v69.05c0,22.45,8.02,33.64,24.14,33.64c13.94,0,23.72-5.7,29.35-17.1
		C532.23,124.93,534.56,111.35,534.56,93.47"/>
	<path id="Trazado_362" class="st0" d="M595.44,34.77l33.64,75.73l38.64-75.73h37.59v1.69c-9.22,0-13.8,4.01-13.8,12.11l6.9,89.74
		c0.63,8.02,5.21,12.11,13.8,12.11v1.76h-55.18v-1.76c9.22,0,13.8-3.45,13.8-10.35v-1.76l-7.04-91.99l-33.71,66.09
		c3.45,6.12,5.28,13.02,5.42,19.99c0.21,2.67-0.21,5.42-1.2,7.95h-22.95c0.63-0.63,0.91-1.55,0.84-2.39c0-0.35-0.07-0.7-0.21-1.06
		l-39.49-88.33l-6.9,89.74v1.76c0,6.9,4.58,10.35,13.8,10.35v1.76h-29.35v-1.76c8.73,0,13.37-4.01,13.8-12.11l6.9-89.74
		c0-8.02-4.58-12.11-13.8-12.11V34.7L595.44,34.77z"/>
	<path id="Trazado_363" class="st0" d="M816.87,138.66l-29.7-91.15c-2.75-8.52-6.62-12.74-11.54-12.74h-33.29v1.76
		c7.95,0,13.3,3.94,16.05,11.75l1.48,4.5l-28.01,85.94c-2.53,7.81-7.88,11.75-16.05,11.75v1.76h29.21v-1.76
		c-8.38,0-12.53-2.04-12.53-6.05c0.07-1.69,0.35-3.38,0.99-5l6.76-20.55l0,0l1.41-4.65h-0.07l19.29-58.77l18.65,57.5l2.18,6.69
		l6.48,19.78c0.63,1.69,0.99,3.38,1.06,5.21c0,3.94-3.73,5.84-11.19,5.84v1.76h55.25v-1.76
		C824.83,150.41,819.41,146.47,816.87,138.66"/>
	<path id="Trazado_365" class="st0" d="M1003.11,93.47V48.57c0-8.02-4.58-12.11-13.8-12.11V34.7h29.35v1.76
		c-9.22,0-13.8,4.01-13.8,12.11v44.91c0,18.16-2.39,32.03-7.11,41.53c-5.98,12.04-16.26,18.02-30.9,18.02
		c-18.09,0-31.67-5.35-40.75-16.05c-7.39-8.66-11.05-22.03-11.05-40.05V48.57c0-8.02-4.58-12.11-13.8-12.11V34.7h55.25v1.76
		c-9.22,0-13.8,4.01-13.8,12.11v69.05c0,22.45,8.02,33.64,24.14,33.64c13.94,0,23.72-5.7,29.35-17.1
		C1000.79,124.93,1003.11,111.35,1003.11,93.47 M955.95,27.66l1.69-5.21c4.22-12.32,7.11-19.36,8.45-21.05
		c0.7-0.92,1.34-1.41,1.9-1.41h22.45v1.69c-1.27,0.21-2.46,0.63-3.52,1.27c-1.97,0.92-3.66,2.18-5.21,3.73l-20.62,20.9h-5.14V27.66z
		"/>
	<path id="Trazado_366" class="st0" d="M893.94,146.96c-2.18-2.46-4.01-5.21-5.35-8.24l-18.72-39.06
		c7.32-2.39,13.94-6.62,19.22-12.25c4.5-4.79,7.04-11.19,7.11-17.81c0.35-10.56-5-20.48-14.08-25.9
		c-9.36-5.98-21.96-8.94-37.73-9.01h-17.31v1.69h17.24c16.12,0,24.14,10.91,24.14,32.8s-8.02,32.8-24.14,32.8h-17.24v1.76h15.56
		l17.1,35.54c3.8,8.52,7.88,12.74,12.18,12.74h32.73v-1.76C899.79,150.41,896.2,149.29,893.94,146.96"/>
	<path id="Trazado_367" class="st0" d="M262.02,140.49c-1.34-6.55-0.49-9.43-3.87-16.96c-3.38-7.6-3.45-17.46-9.22-26.39
		c-4.72-7.18,1.27-18.93-4.08-24.14c-5.49-5.35-4.43-16.47-11.54-19.29c-11.61-4.58-13.58-10.63-18.93-14.36
		c-8.66-6.05-12.39-11.68-16.89-15.63c-3.17-2.75-7.11-3.87-11.54-6.62c-2.11-1.27-5.42-1.55-7.46-2.67
		c-4.79-2.67-8.16-5.91-12.67-7.67c-2.89-1.13-5.7-4.58-8.52-2.82c-2.25,1.41-5.14-1.2-7.74-1.62c-6.76-1.13-11.33,1.55-20.34-0.14
		c-6.55-1.27-9.22,1.55-16.26,4.72c-1.13,0.49-5.84-0.42-7.04,0.21c-1.97,0.99-5,4.08-7.04,5.07c-0.7,0.35-1.48,0.63-2.25,0.84
		c-3.38,1.06-9.01,0.63-14.01,4.01c-3.52,2.39-7.11-0.77-9.78-0.49c-5.14,0.56-8.16,4.22-11.82,6.55c-3.45,2.18-7.67,2.96-11.4,5.49
		c-4.22,2.6-7.6,6.26-9.85,10.7c-3.8,7.46-19.99,14.71-13.8,23.58c1.27,1.76-2.89,4.36-3.31,7.46c-0.14,1.76-0.42,3.52-0.84,5.28
		c-0.21,0.92-0.7,1.76-1.34,2.46C14.2,85.1,7.72,93.05,5.33,100.37c-3.31,10.28-1.48,19.64-4.43,27.45
		c-1.48,4.01-0.84,9.29-0.07,13.3c0.77,4.01,1.76,8.02,3.1,11.9c0.99,2.96,0.28,6.62,1.55,9.57c1.9,4.29,5.91,6.97,8.09,10.98
		c1.55,2.82,0.92,6.97,3.24,10.14c2.39,3.31,1.83,8.73,3.8,12.67c1.76,3.66,6.05,5.84,7.74,9.22c1.62,3.24,4.72,6.97,6.62,10.07
		c1.13,2.39,2.46,4.72,4.01,6.83c3.66,4.29,7.25,9.29,12.04,12.53c5,3.31,11.19,4.79,16.33,7.39c6.83,3.45,8.66,7.88,15.56,11.26
		c4.65,2.25,12.11,0.56,16.96,2.46c3.52,1.41,7.67,6.55,11.19,7.81c7.25,2.46,16.61,2.39,23.79,3.38c5.35,0.7,9.64,2.89,14.64,2.75
		c16.68-0.49,28.58-6.12,42.16-23.3c3.31-4.22,9.15-7.04,13.65-10.98c3.38-3.03,5.35-7.32,8.59-9.78c3.87-2.96,8.02-5,10.14-7.46
		c1.34-1.62,0.84-3.87,2.32-5.28c4.15-4.01,9.64-7.46,12.81-16.4c0.63-0.99,1.48-1.83,2.39-2.6c1.83-1.55,3.45-3.24,5-5
		c2.11-2.82,1.83-6.55,4.08-9.57c3.94-5.35,10.35-10.14,12.88-15.77C266.81,156.33,263.22,146.61,262.02,140.49 M255.55,160.41
		c-3.38,7.81-10.35,16.75-15.7,23.3c-2.6,3.24-7.39,6.19-8.8,10.14c-5.35,15.06-10.56,16.26-22.38,25.2
		c-7.53,5.63-14.22,12.32-19.85,19.92c-26.32,33.43-66.94,21.4-99.95,5.35C71.63,235.93,60.16,234.1,45.52,217
		c-9.57-11.26-13.65-27.31-21.75-38.29c-24.71-33.57-25.27-63.14,3.1-94.81C32,78.2,30.1,72,32.71,63.98
		c4.5-14.08,9.15-19.78,21.61-28.15c6.41-4.29,11.82-9.78,19.43-10.63c7.04-0.77,22.03-2.04,28.58-5
		c30.76-14.01,50.11-12.53,79.11,4.58c14.57,8.59,34.07,22.38,45.4,34.91c15.84,17.6,13.44,41.32,22.88,62.5
		C255.9,135.7,260.76,148.23,255.55,160.41"/>
	<path id="Trazado_368" class="st1" d="M32.57,89.04c-26.54,29.7-24.35,59.19-2.53,88.9c6.9,9.36,14.01,23.65,21.82,34.49
		c10.84,15.2,21.61,17.67,37.37,25.41c31.67,15.41,68.49,24.28,91.43-4.72c8.31-10.56,16.4-11.97,24.71-18.23
		c10.98-8.31,15.56-9.5,20.13-22.45c4.5-12.81,20.69-24.49,22.52-33.5c1.9-9.22-5.14-25.62-5.98-36.32
		c-1.69-22.24-6.69-42.09-20.9-57.86c-10.21-11.26-23.16-24.99-36.95-33.15c-26.82-15.77-52.72-17.6-81.22-4.65
		c-13.23,6.05-28.29,0.56-42.09,9.85C35.52,53.77,40.52,80.17,32.57,89.04 M35.17,90.23c7.74-8.66,2.89-34.35,27.45-50.89
		c13.44-9.01,28.15-3.73,41.03-9.57c27.8-12.67,53.07-10.84,79.11,4.5c13.44,7.95,26.11,21.26,36.04,32.24
		c13.87,15.34,18.72,34.7,20.34,56.31c0.77,10.42,7.67,26.39,5.84,35.4c-1.83,8.8-17.53,20.2-21.96,32.66
		c-4.5,12.67-8.87,13.8-19.57,21.89c-8.02,6.05-15.98,7.53-24.07,17.74c-22.31,28.29-58.21,19.64-89.04,4.65
		c-15.41-7.53-25.83-9.92-36.46-24.71c-7.6-10.56-14.5-24.42-21.26-33.57C11.38,147.88,9.27,119.16,35.17,90.23"/>
	<path id="Trazado_369" class="st1" d="M36.01,92.91c-24.35,27.17-16.75,55.18,2.82,81.93c7.11,9.64,8.8,23.79,16.54,34.63
		c9.92,13.87,21.61,17.24,36.04,24.28c29.07,14.15,58.7,16.68,84.53-5.63c19.92-17.17,33.86-19.22,48.07-45.75
		c3.87-7.25,17.17-22.31,18.3-27.8c1.2-5.91-5.14-25.69-5.84-35.54c-1.55-20.48-9.22-34.77-21.26-49.41
		c-9.29-11.33-21.26-24.14-34.56-32.03c-24.85-14.64-49.69-17.1-76.16-5.07c-12.81,5.84-25.27,4.43-38.5,13.3
		c-10.84,7.32-15.56,15.84-21.82,26.82C40.87,78.48,39.67,88.83,36.01,92.91 M38.41,93.96c3.59-4.01,4.72-14.08,7.95-19.78
		c6.05-10.77,10.63-19.14,21.26-26.25c12.88-8.66,25.06-7.25,37.52-12.95c25.83-11.75,50.11-9.36,74.26,4.93
		c13.02,7.67,24.63,20.2,33.71,31.25c11.68,14.29,19.22,28.15,20.69,48.14c0.7,9.64,6.9,28.93,5.7,34.7
		c-1.13,5.42-14.08,20.06-17.88,27.17c-13.8,25.9-27.45,27.87-46.88,44.62c-25.2,21.75-54.13,19.22-82.42,5.49
		c-14.08-6.83-25.48-10.21-35.12-23.65c-7.6-10.56-9.22-24.42-16.12-33.79C22.08,147.81,14.62,120.43,38.41,93.96"/>
	<path id="Trazado_370" class="st1" d="M230.28,119.3c-2.6-34.28-24-59.55-52.79-76.44c-23.02-13.58-45.68-15.91-70.1-4.72
		c-12.46,5.7-25.48,4.5-37.87,12.88c-9.85,6.62-14.08,14.64-19.71,24.63c-3.03,5.35-6.26,18.79-9.15,21.82
		c-22.8,24.28-14.29,49.48,3.31,73.41c7.25,9.85,9.08,24.35,16.82,35.12c8.94,12.53,20.55,15.84,33.64,22.17
		c26.61,12.95,53.56,15.91,77.35-4.58c7.67-6.62,16.12-11.4,24.21-17.46c9.5-7.04,17.31-16.19,22.66-26.75
		c3.59-6.69,17.39-24,17.81-26.11c0.84-4.22-1.2-8.52-2.6-12.46C231.62,134.93,230.7,125.57,230.28,119.3 M227.75,119.73
		c0.42,6.05,1.34,15.27,3.38,20.9c1.34,3.87,3.38,8.02,2.53,12.11c-0.42,2.04-13.87,18.93-17.39,25.48
		c-5.28,10.28-12.88,19.14-22.1,26.04c-7.81,5.84-16.05,10.56-23.58,17.03c-23.16,19.99-49.48,17.1-75.38,4.5
		c-12.74-6.19-24.07-9.43-32.8-21.61c-7.53-10.49-9.29-24.63-16.4-34.21c-17.1-23.3-25.48-47.93-3.24-71.58
		c2.82-2.96,5.98-16.12,8.94-21.33c5.49-9.71,9.64-17.53,19.22-24c12.11-8.09,24.78-6.97,36.95-12.53
		c23.86-10.91,45.89-8.59,68.34,4.65C204.31,61.66,225.28,86.29,227.75,119.73"/>
	<path id="Trazado_371" class="st1" d="M224.65,119.66c-2.39-31.88-22.38-55.67-50.11-72c-22.1-13.02-42.58-14.5-64.54-4.43
		c-12.18,5.56-26.11,4.86-37.45,12.46c-8.8,5.84-12.53,13.23-17.81,22.59c-3.94,6.97-5.63,18.65-10.35,23.65
		c-19.5,20.76-13.16,42.02,3.94,65.32c7.25,9.85,10.07,25.9,17.1,35.76c7.95,11.12,19.14,14.29,31.46,20.2
		c24.21,11.82,48.78,15.27,70.67-3.66c4.08-3.52,8.38-6.76,12.88-9.71c4.08-2.75,8.16-5.42,12.11-8.31
		c8.8-6.48,15.98-14.99,20.97-24.78c2.82-5.35,5.28-11.26,9.57-15.63c9.64-9.78,9.22-7.18,5.49-17.74
		C226.41,137.18,225.14,126.2,224.65,119.66 M221.69,120.15c0.49,6.33,1.69,16.96,3.8,22.95c3.66,10.28,4.01,7.67-5.28,17.17
		c-4.08,4.22-6.48,9.92-9.22,15.13c-4.86,9.43-11.82,17.67-20.34,24c-3.8,2.82-7.81,5.42-11.68,8.09
		c-4.36,2.89-8.52,6.05-12.46,9.43c-21.19,18.3-44.98,14.92-68.41,3.52c-11.9-5.77-22.73-8.8-30.41-19.57
		c-6.83-9.57-9.57-25.13-16.61-34.63c-16.61-22.52-22.73-43.15-3.8-63.28c4.5-4.79,6.19-16.12,9.99-22.88
		c5.14-9.08,8.73-16.19,17.17-21.82c10.98-7.39,24.49-6.76,36.32-12.11c21.26-9.71,41.11-8.31,62.5,4.29
		C200.08,66.23,219.44,89.25,221.69,120.15"/>
	<path id="Trazado_372" class="st1" d="M219.72,124.37c-2.18-29.35-30.97-59.05-54.76-74.82c-19.14-12.67-32.24-9.08-52.09,0
		c-11.4,5.21-25.55,7.67-35.83,14.57c-8.02,5.35-13.94,9.71-18.58,17.95c-3.45,6.05-4.43,17.74-8.24,23.58
		c-14.08,21.68-8.87,37.8,3.94,57.72c14.64,22.73,18.72,40.33,45.75,53.49c20.76,10.14,42.94,14.71,63.07-2.67
		c18.65-16.12,32.03-17.67,44.41-40.82C225.56,139.43,222.75,164.7,219.72,124.37 M217.33,124.58c2.96,39.2,5.63,14.71-11.97,47.79
		c-11.97,22.45-24.99,24-43.15,39.7c-19.57,16.89-41.11,12.39-61.31,2.6c-26.32-12.81-30.27-29.91-44.48-52.09
		c-12.6-19.36-17.6-35.05-3.94-56.17c3.66-5.7,4.65-17.1,7.95-22.95c4.5-8.02,10.35-12.25,18.09-17.46
		c9.99-6.69,23.72-9.15,34.84-14.22c19.29-8.8,32.03-12.32,50.68,0C187.27,67.15,215.22,96.08,217.33,124.58"/>
	<path id="Trazado_373" class="st1" d="M213.25,124.79c-1.41-18.44-14.57-37.3-26.96-48.99c-34.07-32.1-42.72-33.15-70.74-20.41
		c-12.81,5.84-25.9,8.09-34.84,14.08c-10.98,7.39-12.74,16.47-25.41,35.97c-12.11,18.72-6.69,35.05,4.58,54.62
		c11.61,20.27,21.19,40.33,42.94,50.89c19.5,9.5,39.7,9.01,56.59-2.25c20.27-13.44,30.62-16.68,42.23-38.43
		c4.79-9.01,12.81-15.27,14.71-23.3C217.89,140.77,213.88,132.96,213.25,124.79 M210.5,125.08c0.56,7.81,4.43,15.41,3.03,21.54
		c-1.83,7.74-9.57,13.8-14.15,22.52c-11.19,21.05-21.26,24.14-40.82,37.16c-16.33,10.84-35.83,11.33-54.69,2.18
		c-20.97-10.21-30.27-29.56-41.53-49.13c-10.84-18.93-16.12-34.7-4.43-52.79C70.15,87.7,71.84,78.97,82.47,71.79
		c8.66-5.77,21.33-7.95,33.71-13.58c27.03-12.32,35.4-11.26,68.34,19.71C196.49,89.11,209.16,107.34,210.5,125.08"/>
	<path id="Trazado_374" class="st1" d="M206.98,122.89c-1.27-16.89-11.68-31.6-23.44-43.08c-18.72-18.23-41.6-28.93-67.43-18.79
		c-27.24,10.7-43.92,16.89-55.04,46.67c-7.25,19.36-4.65,36.25,4.86,53.92c10.07,18.72,18.37,35.83,39.06,43.71
		c16.82,6.48,35.54,5.7,51.73-2.04c21.26-10.21,28.65-15.56,39.49-35.76C204.38,152.24,208.25,140,206.98,122.89 M204.52,123.24
		c1.27,16.47-2.53,28.37-10.35,43.08c-10.42,19.57-17.67,24.78-38.15,34.63c-15.7,7.53-33.79,8.24-50.04,1.97
		c-19.99-7.6-28.01-24.14-37.8-42.3c-9.15-17.03-11.68-33.43-4.72-52.16c10.7-28.79,26.89-34.77,53.21-45.12
		c24.99-9.78,47.09,0.56,65.18,18.23C193.19,92.7,203.25,106.92,204.52,123.24"/>
	<path id="Trazado_375" class="st1" d="M199.94,121.34c-1.13-15.34-10.28-26.89-20.69-37.09c-16.89-16.47-37.37-26.68-60.88-17.53
		c-13.73,5.35-26.96,8.52-37.37,20.06c-5.98,6.83-10.77,14.64-14.15,23.02c-6.55,17.53-4.08,32.73,3.8,49.9
		c8.09,17.74,17.46,32.52,36.53,39.77c15.34,5.84,37.45,2.96,52.09-4.01c20.13-9.64,22.52-14.08,32.8-33.29
		C199.73,147.81,201.14,137.04,199.94,121.34 M197.97,121.7c1.13,15.2-0.21,25.69-7.67,39.7c-9.92,18.58-12.25,22.95-31.81,32.31
		c-14.22,6.83-35.69,9.57-50.54,3.94C89.44,190.6,80.36,176.17,72.47,159c-7.67-16.75-10.07-31.46-3.73-48.5
		c3.31-8.16,7.95-15.7,13.73-22.38C92.53,77,105.42,73.9,118.72,68.7c22.8-8.94,42.72,0.99,59.05,16.96
		C188.05,95.58,196.85,106.85,197.97,121.7"/>
	<path id="Trazado_376" class="st1" d="M194.1,121.06c0.56-12.25-7.32-20.9-18.02-31.74c-14.85-15.06-34.42-25.48-55.6-17.17
		C108.09,77,94.86,80.17,85.36,90.66c-5,5.56-9.01,11.97-11.75,18.93c-5.98,16.05-6.48,31.11,0.77,46.88
		c7.39,16.12,16.05,30.83,33.57,37.52c9.36,3.73,19.71,4.29,29.35,1.55c6.62-1.97,13.02-2.32,19.5-5.42
		c18.93-9.08,20.41-12.53,30.12-30.76C194.03,146.05,193.4,136.13,194.1,121.06 M191.99,121.49c-0.7,14.57-0.07,24.14-6.97,37.09
		c-9.36,17.6-10.84,20.9-29.14,29.7c-6.19,2.96-12.39,3.31-18.79,5.21c-9.36,2.6-19.36,2.11-28.37-1.55
		c-16.89-6.48-25.34-20.62-32.45-36.25c-6.97-15.27-6.48-29.77-0.7-45.33c2.67-6.76,6.48-12.95,11.33-18.3
		c9.15-10.14,21.96-13.23,33.93-17.88c20.48-8.02,39.35,2.04,53.7,16.61C184.88,101.36,192.55,109.66,191.99,121.49"/>
	<path id="Trazado_377" class="st1" d="M188.82,121.98c-1.83-10.91-8.94-21.05-16.61-28.86c-13.51-13.73-30.97-23.3-49.83-15.98
		c-11.75,4.65-24.07,9.15-33.57,17.53c-4.65,4.08-8.16,11.05-10.28,16.82c-5.42,14.64-6.12,28.22,0.56,42.79
		c6.76,14.78,14.57,28.86,30.55,34.7c8.31,3.17,17.39,3.66,25.97,1.48c6.9-2.04,11.82-2.25,18.93-5.21
		c18.65-7.81,18.16-10.91,27.45-28.37C188.89,144.43,191.14,135.84,188.82,121.98 M187.06,122.26c2.25,13.51,0.07,21.75-6.48,33.93
		c-9.01,16.89-8.52,19.92-26.61,27.45c-6.9,2.89-11.68,3.1-18.37,5.07c-8.38,2.11-17.17,1.62-25.2-1.41
		c-15.56-5.63-23.09-19.36-29.63-33.64c-6.48-14.15-5.84-27.31-0.56-41.46c2.11-5.56,5.49-12.32,9.99-16.33
		c9.22-8.16,21.12-12.53,32.52-17.03c18.23-7.18,35.12,2.18,48.28,15.48C178.48,101.85,185.3,111.7,187.06,122.26"/>
	<path id="Trazado_378" class="st1" d="M184.74,122.61c-1.9-11.68-9.43-19.43-14.99-26.68c-10.98-13.8-29.14-19.57-46.03-14.71
		c-7.53,1.83-14.71,5.14-20.97,9.71c-9.71,7.32-15.13,8.45-19.99,21.4c-5.77,15.48-6.76,27.8-1.13,40.12
		c6.05,13.16,14.08,26.46,29.35,32.03c6.97,2.53,15.06,4.08,22.24,1.97c9.29-2.75,9.36-1.06,19.29-5.21
		c17.6-7.39,18.09-9.36,27.17-26.32C186.08,142.74,186.85,135.28,184.74,122.61 M183.12,122.89c2.04,12.32,1.34,19.57-4.93,31.25
		c-8.8,16.47-9.22,18.44-26.32,25.55c-9.64,4.01-9.64,2.39-18.65,5.07c-6.97,2.11-14.78,0.56-21.61-1.9
		c-14.78-5.42-22.59-18.3-28.44-31.04c-5.49-11.9-4.5-23.86,1.13-38.92c4.72-12.6,9.92-13.65,19.36-20.76
		c6.12-4.43,13.02-7.67,20.34-9.43c16.4-4.72,34,0.92,44.62,14.29C173.97,104.03,181.22,111.56,183.12,122.89"/>
	<path id="Trazado_379" class="st1" d="M178.97,122.61c-1.34-7.88-6.41-16.4-11.68-23.37c-9.36-12.32-27.38-17.6-42.23-13.44
		c-7.32,1.97-14.29,5.21-20.41,9.71c-8.02,6.05-12.74,6.26-17.24,18.44c-4.08,10.98-5.49,25.55-1.97,36.74
		c3.38,10.77,16.4,26.18,27.24,30.12c5.7,2.39,12.04,2.82,18.02,1.2c3.24-0.99,7.6-1.41,11.19-2.04c7.32-2.53,14.5-5.56,21.47-8.94
		c6.55-4.72,9.85-12.81,13.51-19.71C182.63,140.35,180.87,134.08,178.97,122.61 M177.21,123.03c1.83,11.05,3.52,17.1-2.04,27.66
		c-3.52,6.69-6.69,14.43-13.02,19c-6.69,3.31-13.58,6.12-20.62,8.59c-3.52,0.63-7.67,1.06-10.77,1.97
		c-5.77,1.55-11.9,1.13-17.31-1.2c-10.42-3.8-22.95-18.65-26.18-29c-3.38-10.77-2.04-24.78,1.9-35.4
		c4.36-11.68,8.87-11.97,16.61-17.74c5.91-4.29,12.6-7.46,19.64-9.36c14.29-4.01,31.6,1.06,40.61,12.88
		C171.01,107.2,175.94,115.43,177.21,123.03"/>
	<path id="Trazado_380" class="st1" d="M174.32,124.02c-1.2-7.11-5.91-14.64-9.92-20.41c-7.67-11.12-25.9-17.39-39.06-13.73
		c-6.97,2.04-13.44,5.35-19.22,9.71c-2.18,1.62-5.91,3.03-7.67,4.43c-3.31,2.6-5.7,6.12-6.97,10.14
		c-4.01,10.84-4.79,24.56-1.76,34.21c2.96,9.43,14.5,25.55,23.86,29c9.29,3.38,17.24,0.14,26.25-1.55c3.38-0.63,6.76-2.82,9.92-4.08
		c3.17-1.2,8.09-2.25,10.84-4.22c5.91-4.29,8.87-10.28,12.11-16.4C178.05,141.33,176.08,134.65,174.32,124.02 M172.56,124.37
		c1.69,10.21,3.59,16.61-1.41,25.97c-3.1,5.84-5.98,11.61-11.61,15.77c-2.6,1.9-7.39,2.89-10.42,4.01c-3.1,1.2-6.33,3.31-9.57,3.87
		c-8.73,1.62-16.33,4.79-25.2,1.48c-9.01-3.31-20.06-18.79-22.95-27.8c-2.89-9.22-2.18-22.38,1.69-32.8
		c1.27-3.8,3.59-7.18,6.69-9.71c1.62-1.34,5.28-2.67,7.32-4.29c5.56-4.22,11.75-7.39,18.44-9.36c12.6-3.52,30.12,2.53,37.45,13.16
		C166.93,110.36,171.44,117.61,172.56,124.37"/>
	<path id="Trazado_381" class="st1" d="M171.23,125c-1.06-6.41-4.86-11.75-8.45-16.96c-6.76-9.71-25.9-17.67-37.23-14.43
		c-7.32,2.04-17.67,8.16-23.58,13.02c-10.35,8.45-12.39,30.12-8.66,42.09c2.6,8.24,13.65,21.89,21.75,24.85
		c8.16,2.96,16.05-0.21,24.14-1.76c4.15-0.77,15.7-5.07,19.22-7.53c5.07-3.66,6.97-9.36,9.85-14.85
		C173.06,140.28,172.77,134.51,171.23,125 M169.61,125.36c1.48,9.08,1.76,14.64-2.89,23.37c-2.75,5.21-4.58,10.7-9.43,14.22
		c-5.77,3.24-11.97,5.63-18.37,7.25c-7.74,1.48-15.34,4.5-23.16,1.69c-7.74-2.82-18.37-15.91-20.83-23.79
		c-3.59-11.47-1.62-32.31,8.31-40.33c6.76-5.42,14.36-9.64,22.59-12.46c10.91-3.03,29.28,4.5,35.69,13.87
		C164.89,114.09,168.55,119.3,169.61,125.36"/>
	<path id="Trazado_382" class="st1" d="M166.93,125.71c-1.27-5.63-3.73-10.98-7.25-15.56c-5.91-8.52-24.35-14.92-34-12.18
		c-7.95,2.53-15.41,6.33-22.1,11.33c-8.94,7.25-10.49,28.37-7.11,39.06c2.25,7.11,13.37,18.3,20.41,20.83
		c7.18,2.6,14.43,0.28,21.68-1.06c6.05-1.76,11.9-4.29,17.31-7.53c4.29-3.45,7.67-7.81,9.99-12.81
		C170.1,139.5,168.27,134.08,166.93,125.71 M164.89,126.13c1.34,7.95,3.03,13.02-1.13,20.76c-2.11,4.72-5.35,8.87-9.43,12.11
		c-5.14,3.03-10.63,5.42-16.33,7.11c-6.83,1.27-13.65,3.52-20.41,0.99c-6.62-2.39-17.1-12.88-19.22-19.64
		c-3.17-10.14-1.69-29.98,6.69-36.88c6.26-4.72,13.37-8.38,20.83-10.7c9.15-2.53,26.54,3.45,32.1,11.54
		C161.37,115.78,163.76,120.78,164.89,126.13"/>
	<path id="Trazado_383" class="st1" d="M163.55,126.27c-1.2-5.14-3.45-9.99-6.69-14.15c-3.8-5.42-9.71-8.31-16.4-9.64
		c-4.43-0.92-9.64-2.39-13.87-1.2c-7.46,2.46-14.5,6.05-20.9,10.7c-3.03,2.11-5.21,5.28-6.12,8.87c-0.49,3.94-0.63,7.88-0.42,11.82
		c-0.14,5.07-0.77,10.49,0.49,14.64c1.97,6.19,12.39,16.47,18.3,18.65c3.52,1.41,7.39,1.55,10.98,0.42
		c6.69-1.83,11.82-1.06,18.16-5.35c2.04-1.41,4.5-1.76,6.69-3.24c2.25-1.55,4.15-3.59,5.56-5.84c2.82-5.21,4.86-6.69,5.7-13.58
		C165.59,133.8,164.26,130.57,163.55,126.27 M162.08,126.62c0.7,4.15,1.97,7.18,1.41,11.54c-0.77,6.55-2.67,7.95-5.42,12.95
		c-1.34,2.18-3.17,4.08-5.28,5.63c-2.04,1.48-4.43,1.83-6.33,3.1c-6.05,4.08-10.98,3.38-17.31,5.14c-3.45,1.06-7.18,0.92-10.49-0.42
		c-5.63-2.04-15.63-11.9-17.46-17.81c-1.27-4.01-0.63-9.15-0.49-14.01c-0.14-3.8,0-7.53,0.42-11.26c0.84-3.45,2.89-6.48,5.84-8.52
		c6.05-4.43,12.81-7.88,19.92-10.21c4.01-1.13,9.01,0.28,13.23,1.2c6.41,1.27,12.11,4.01,15.7,9.22
		C158.84,117.05,160.95,121.7,162.08,126.62"/>
	<path id="Trazado_384" class="st1" d="M145.18,158.23c2.96-2.04,6.19-2.04,7.95-4.65c2.89-4.36,1.55-3.38,5.98-9.15
		c1.41-1.9,2.32-4.15,2.53-6.55c0.42-2.67,0.14-5.42-0.92-7.95c-0.42-1.13-1.55-4.43-2.96-7.67c-1.69-3.94-3.66-7.81-6.05-11.4
		c-4.86-5.14-16.96-7.6-24-5.63c-5.07,1.41-15.63,5.77-19.92,9.22c-6.05,4.93-4.86,7.81-5.49,13.3c-0.42,4.15-1.76,6.97-0.7,11.33
		c1.9,7.95-0.56,6.76,6.62,13.65c3.87,3.66,5,6.83,10.42,8.8c3.03,1.13,6.12,2.39,9.43,1.48
		C133.85,161.53,139.48,162.17,145.18,158.23 M144.41,156.89c-5.42,3.66-10.7,3.1-16.19,4.58c-3.1,0.84-6.05-0.42-8.87-1.41
		c-5.14-1.9-6.19-4.86-9.85-8.31c-6.76-6.48-4.5-5.35-6.26-12.88c-0.99-4.15,0.28-6.76,0.7-10.7c0.56-5.21-0.56-7.88,5.14-12.53
		c4.08-3.31,14.01-7.39,18.79-8.73c6.62-1.83,18.02,0.49,22.59,5.28c2.18,3.38,4.15,7.04,5.7,10.77c1.34,3.03,2.39,6.12,2.82,7.25
		c0.99,2.39,1.27,4.93,0.84,7.46c-0.21,2.25-0.99,4.36-2.39,6.12c-2.11,2.75-4.01,5.63-5.63,8.66
		C150.25,154.99,147.22,154.99,144.41,156.89"/>
	<path id="Trazado_385" class="st1" d="M133.15,158.02c2.75,0.49,3.73-1.34,6.48-1.76c3.17-0.49,4.72-3.31,7.95-3.8
		c3.66-0.56,1.69-3.1,4.29-6.26c2.96-3.52,5.07-4.01,5.63-8.73c0.35-2.04,0.14-4.08-0.7-5.98c-1.41-3.66-3.31-6.12-4.65-9.85
		c-0.92-2.53-1.62-5.84-3.52-7.81c-3.03-3.17-9.29-4.43-13.51-5.21c-2.39-0.56-4.93-0.49-7.32,0.21c-1.9,0.56-3.73,1.27-5.49,2.11
		c-4.01,1.76-9.36,3.59-10.56,4.72c-0.77,0.7-1.76,1.2-2.6,1.83c-1.27,1.06-2.25,2.46-2.67,4.08c-0.7,2.25,0.14,4.43-0.14,6.76
		c-0.35,3.52-1.62,6.55-0.77,9.92c0.07,0.42,0.7,3.94,0.7,4.36c-0.07,3.38,0.14,3.59,4.29,7.53c3.17,3.03,4.86,5.84,9.5,7.53
		c1.9,0.7,4.86,1.97,6.9,1.41c1.69-0.14,3.45-0.42,5.14-0.84C132.44,158.16,132.79,158.02,133.15,158.02 M133.15,157.17
		c-0.35,0-0.7,0.14-1.06,0.28c-1.62,0.42-3.24,0.63-4.93,0.77c-1.97,0.56-4.86-0.7-6.69-1.34c-4.43-1.62-6.12-4.36-9.15-7.25
		c-4.01-3.8-4.15-4.01-4.15-7.32c0-0.42-0.56-3.8-0.63-4.22c-0.77-3.31,0.42-6.19,0.77-9.57c0.21-2.25-0.56-4.36,0.14-6.55
		c0.42-1.55,1.34-2.96,2.6-3.94c0.77-0.63,1.83-1.13,2.53-1.76c1.2-1.06,6.26-2.82,10.21-4.5c1.69-0.84,3.45-1.48,5.28-2.04
		c2.32-0.7,4.72-0.77,7.04-0.21c4.08,0.7,10.14,1.97,13.02,5.07c1.83,1.9,2.53,5.07,3.38,7.53c1.27,3.59,3.1,6.05,4.43,9.5
		c0.77,1.83,0.99,3.8,0.63,5.77c-0.56,4.58-2.6,5-5.42,8.38c-2.53,3.03-0.63,5.56-4.15,6.05c-3.17,0.49-4.58,3.24-7.67,3.66
		C136.74,155.83,135.75,157.59,133.15,157.17"/>
	<path id="Trazado_386" class="st1" d="M121.18,114.66c-2.75,0.21-5.28,1.41-7.04,3.52c-1.83,1.69-3.52,1.69-4.29,4.22
		c-0.42,2.18-0.7,4.36-0.84,6.62c-0.56,3.59-0.7,7.32-0.28,10.98c0.35,1.55-0.07,2.96,0.28,4.43c0.42,1.76,2.96,3.52,4.15,4.86
		c1.9,2.04,9.36,7.67,12.67,6.76c1.06-0.35,2.04-0.77,3.03-1.34c1.13-0.63,2.46-0.92,3.8-0.77c2.32,0.35,4.65,0.28,6.9-0.21
		c2.32-0.21,4.43-1.13,6.19-2.6c0.56-0.49,1.13-1.13,1.55-1.69c0.77-1.06,1.48-2.25,2.32-3.24c2.46-2.89,4.22-5.07,4.72-9.08
		c0.63-5.14-0.84-6.05-3.1-10.42c-0.56-1.2-0.7-3.66-1.2-4.86c-0.84-2.11-2.11-4.08-3.73-5.7c-2.32-2.46-7.53-4.15-11.19-4.86
		c-1.97-0.49-4.08-0.49-6.05,0c-1.48,0.42-2.96,1.13-4.22,1.97C123.79,114.02,122.52,114.59,121.18,114.66 M121.46,115.29
		c1.34-0.07,2.6-0.56,3.59-1.48c1.27-0.84,2.67-1.48,4.08-1.9c1.9-0.49,3.94-0.49,5.84,0c3.52,0.63,8.52,2.25,10.77,4.65
		c1.55,1.55,2.75,3.45,3.59,5.49c0.42,1.2,0.56,3.59,1.13,4.72c2.11,4.29,3.59,5.07,2.96,10.07c-0.49,3.31-2.11,6.41-4.58,8.8
		c-0.77,0.99-1.48,2.11-2.25,3.1c-0.49,0.56-0.99,1.13-1.55,1.69c-1.69,1.48-3.73,2.39-5.98,2.53c-2.18,0.49-4.5,0.56-6.69,0.14
		c-1.27-0.14-2.53,0.14-3.66,0.7c-0.92,0.49-1.9,0.99-2.89,1.27c-3.17,0.92-10.42-4.58-12.25-6.55c-1.13-1.27-3.66-2.96-4.01-4.65
		c-0.35-1.41,0.07-2.75-0.28-4.29c-0.42-3.52-0.28-7.11,0.28-10.56c0.07-2.11,0.35-4.29,0.77-6.33c0.77-2.46,2.39-2.46,4.15-4.08
		C116.4,116.63,118.86,115.43,121.46,115.29"/>
	<path id="Trazado_387" class="st1" d="M129.28,151.4c1.2-0.35,2.46-0.42,3.66-0.21c1.9,0.49,3.94,0.63,5.91,0.42
		c1.9-0.28,3.66-1.13,5-2.39c1.34-1.48,2.6-3.1,3.73-4.79c2.18-2.04,3.59-4.72,4.08-7.6c0.56-4.5-0.35-5.63-2.46-9.78
		c-0.42-0.92-1.48-3.66-1.83-4.65c-0.7-1.76-1.76-3.31-3.1-4.65c-1.48-1.62-3.45-2.82-5.63-3.31c-1.41-0.56-2.89-1.13-4.36-1.55
		c-1.55-0.14-3.03,0.14-4.43,0.77c-2.67,0.77-4.15,2.32-6.62,3.38c-0.84,0.21-1.69,0.35-2.53,0.42c-1.9-0.28-3.8,0.28-5.21,1.55
		c-1.48,0.99-2.6,2.39-3.31,4.01c-0.42,1.41-0.07,3.17-0.56,4.58c-1.55,3.8-1.69,7.95-0.56,11.9c1.06,4.15-0.07,4.86,2.53,7.81
		c1.97,1.97,4.36,3.52,6.97,4.5c1.34,0.63,2.46,2.25,3.87,1.83C126.32,153.02,127.66,151.82,129.28,151.4 M129.42,150.48
		c-1.55,0.35-2.89,1.48-4.5,1.97c-1.34,0.35-2.46-1.13-3.66-1.76c-2.46-0.99-4.72-2.39-6.62-4.29c-2.53-2.75-1.41-3.45-2.39-7.39
		c-1.13-3.73-0.92-7.67,0.56-11.26c0.49-1.34,0.14-2.96,0.49-4.29c0.7-1.55,1.76-2.82,3.17-3.8c1.34-1.2,3.17-1.69,5-1.48
		c0.77-0.07,1.62-0.21,2.39-0.35c2.32-0.99,3.73-2.46,6.26-3.17c1.34-0.56,2.75-0.84,4.22-0.7c1.41,0.42,2.82,0.92,4.15,1.48
		c2.04,0.49,3.87,1.62,5.35,3.17c1.27,1.27,2.25,2.75,2.96,4.43c0.35,0.92,1.34,3.52,1.76,4.36c1.97,3.87,2.82,5,2.32,9.29
		c-0.49,2.75-1.83,5.28-3.87,7.25c-1.06,1.62-2.25,3.1-3.52,4.58c-1.34,1.2-2.96,2.04-4.79,2.32c-1.9,0.21-3.8,0.07-5.63-0.42
		C131.67,150.06,130.47,150.13,129.42,150.48"/>
	<path id="Trazado_388" class="st1" d="M117.45,144.92c1.76,1.97,2.46,3.66,4.65,4.79c2.75,1.41,3.66-2.96,6.69-2.96
		c4.72,0.07,9.08,3.03,12.81-0.35c3.52-3.24,6.12-5.77,6.69-10.21c0.63-3.17,0.07-6.48-1.48-9.36c-0.84-1.69-1.69-5.49-3.1-6.97
		c-3.24-3.45-5.56-2.82-9.85-3.59c-3.73-0.7-6.26,1.9-9.71,3.38c-1.9,0.77-4.93-0.21-6.55,1.27c-2.39,2.18-1.83,4.5-2.89,7.39
		c-1.27,3.59-2.75,6.48-1.76,10.21C113.79,141.76,115.06,142.25,117.45,144.92 M117.87,144.57c-2.32-2.53-3.59-3.03-4.29-6.12
		c-0.92-3.66,0.49-6.41,1.76-9.85c0.99-2.82,0.42-5.07,2.75-7.11c1.55-1.41,4.5-0.42,6.33-1.2c3.38-1.41,5.84-3.94,9.43-3.31
		c4.15,0.77,6.41,0.14,9.57,3.45c1.34,1.41,2.11,5.07,2.96,6.76c1.55,2.75,2.04,5.98,1.41,9.08c-0.56,4.29-3.03,6.76-6.48,9.85
		c-3.59,3.24-8.24,0.14-13.23,0.49c-2.89,0.14-2.96,4.08-5.63,2.75C120.2,148.09,119.56,146.4,117.87,144.57"/>
	<path id="Trazado_389" class="st1" d="M125.76,123.24c-1.69,0.7-4.43,0.14-5.56,1.06c-0.28,0.21-0.49,0.56-0.56,0.92
		c-0.14,0.56-0.28,1.13-0.35,1.69c-0.21,0.99-1.55,2.25-1.9,3.31c-0.92,2.39-1.06,4.93-0.42,7.39c0.14,0.63,0.35,1.27,0.77,1.76
		c0.77,1.06,2.32,1.48,3.17,2.46c0.49,0.49,1.41,2.04,1.97,2.25c0.49,0,0.99-0.14,1.27-0.56c0.35-0.28,1.13,0.63,1.9,0.21
		c0.92-0.49,1.97-0.77,2.96-0.7c1.34,0.14,2.6,0.56,3.8,1.06c2.25,0.84,4.29,1.2,6.26-0.63c2.25-2.04,5.49-2.46,5.91-5.98
		c0.35-2.96,0.92-6.33-0.49-9.08c-0.49-0.99-1.06-1.9-1.62-2.82c-0.56-0.99-1.2-1.97-1.9-2.89c-0.7-0.84-1.62-1.41-2.6-1.69
		c-1.55-0.42-2.96-1.2-4.5-1.48c-0.7-0.14-1.48,0.63-2.04,0.84c-0.84,0.28-1.62,0.63-2.39,1.13
		C128.15,122.12,126.95,122.75,125.76,123.24 M126.25,124.3c1.27-0.56,6.48-3.52,7.25-3.52c1.48,0.28,2.82,0.99,4.22,1.41
		c0.84,0.28,1.62,0.77,2.18,1.48c0.63,0.84,1.27,1.69,1.76,2.67c0.49,0.84,1.06,1.76,1.48,2.67c1.27,2.46,0.7,5.63,0.42,8.24
		c-0.35,2.96-3.45,3.52-5.42,5.35c-3.03,2.75-6.05-0.56-9.08-0.63c-1.2,0-2.39,0.28-3.52,0.77c-0.42,0.21-1.2-0.77-1.9-0.14
		c-0.07,0.07-0.49,0.42-0.56,0.42c-0.14-0.14-0.28-0.35-0.35-0.56c-0.28-0.49-0.56-0.99-0.99-1.41c-0.84-0.92-2.32-1.41-2.96-2.32
		c-0.28-0.42-0.49-0.92-0.63-1.48c-0.56-2.18-0.42-4.58,0.35-6.69c0.35-0.99,1.62-2.04,1.83-3.17c0.07-0.49,0.21-1.06,0.35-1.55
		c0.07-0.21,0.21-0.42,0.35-0.56c0.63-0.35,1.34-0.49,2.11-0.42C124.21,124.79,125.26,124.65,126.25,124.3"/>
	<path id="Trazado_390" class="st1" d="M127.52,127.33c1.41-0.56,2.82-1.9,3.45-2.04c1.06-0.28,0.77,0.84,2.25,0.49
		c1.62-0.42,3.17-1.27,4.43,0.14c2.67,2.96,2.96,2.53,3.87,5c1.06,2.18,0.84,6.33-1.76,7.88c-1.27,0.35-2.46,0.92-3.59,1.55
		c-0.14,0.14-0.35,0.28-0.63,0.28c-0.56-0.07-1.13-0.21-1.62-0.42c-1.55-0.56-2.25,0.14-4.01,0.07c-1.13-0.35-2.32-0.56-3.45-0.7
		c-1.27,0-2.32,0.92-2.6,0.63c-0.63-0.63-0.99-2.25-1.69-2.75c-0.49-0.28-0.7-0.28-0.77-0.84c-0.42-1.62-0.35-3.24,0.28-4.79
		c0.14-0.28,0-1.27,0.14-1.48C124.77,125.64,124.42,128.66,127.52,127.33 M128.01,127.96c-2.75,1.2-2.46-1.48-5.07,2.6
		c-0.14,0.21,0,1.13-0.14,1.34c-0.49,1.34-0.56,2.82-0.21,4.22c0.14,0.49,0.28,0.49,0.7,0.7c0.63,0.42,0.49,1.9,1.06,2.46
		c0.49,0.49,1.06-0.49,1.76-0.56c0.99-0.07,3.03,0.56,4.01,0.56c1.48,0,2.11-0.56,3.52,0c0.49,0.21,0.92,0.35,1.41,0.35
		c0.21,0,0.42-0.07,0.56-0.28c0.99-0.63,2.04-1.06,3.17-1.41c2.04-1.69,2.75-4.58,1.55-6.97c-0.77-2.18-1.06-1.76-3.45-4.36
		c-1.13-1.27-2.53-0.56-3.94-0.14c-1.27,0.35-0.99-0.7-1.97-0.42C130.54,126.27,129.28,127.47,128.01,127.96"/>
	<path id="Trazado_391" class="st1" d="M134.13,128.95c0.28-0.07,0.99-0.7,1.41-0.42c1.2,0.84,5.28,5.49,2.53,7.04
		c-1.55,0.84-12.32,3.59-13.51-0.42c-1.76-6.12,2.6-3.73,4.65-4.79c0.42-0.21,0.92-0.42,1.34-0.7
		C132.79,128.24,132.09,129.51,134.13,128.95 M133.85,129.44c-1.83,0.49-1.2-0.63-3.17,0.56c-0.35,0.21-0.77,0.42-1.2,0.63
		c-1.76,0.92-5.7-1.13-4.15,4.22c1.06,3.52,10.49,1.13,11.9,0.35c2.46-1.34-1.13-5.42-2.25-6.19
		C134.77,128.81,134.13,129.37,133.85,129.44"/>
	<path id="Trazado_392" class="st1" d="M135.47,131.48c0.77,0.14,1.9,1.41,1.34,1.9c-1.69,1.41-7.46,2.89-8.24,1.69
		C126.6,132.32,133.85,131.2,135.47,131.48"/>
</g>
</svg>
