<?xml version="1.0" encoding="utf-8"?>
<!-- Generator: Adobe Illustrator 27.2.0, SVG Export Plug-In . SVG Version: 6.00 Build 0)  -->
<svg version="1.1" id="Capa_1" xmlns="http://www.w3.org/2000/svg" xmlns:xlink="http://www.w3.org/1999/xlink" x="0px" y="0px"
	 viewBox="0 0 1081 307.4" style="enable-background:new 0 0 1081 307.4;" xml:space="preserve">
<style type="text/css">
	.st0{fill:#FFFFFF;}
</style>
<g>
	<path class="st0" d="M114.7,176.36v-30.45c0-0.84-0.42-1.27-1.27-1.27H38.83V1.27C38.83,0.42,38.4,0,37.56,0H1.27
		C0.42,0,0,0.42,0,1.27v176.36h113.43C114.28,177.63,114.7,177.21,114.7,176.36z"/>
	<path class="st0" d="M213.92,168.24c4.9,7.61,13.7,11.42,26.39,11.42c3.55,0,8.54-0.59,14.97-1.78c0.51-0.17,0.76-0.51,0.76-1.02
		v-26.39c0-0.51-0.25-0.67-0.76-0.51c-7.45,1.86-11.17-1.52-11.17-10.15V92.88c0-13.87-4.61-24.78-13.83-32.74
		c-9.22-7.95-22.54-11.93-39.97-11.93c-16.07,0-29.35,3.93-39.84,11.8c-10.49,7.87-16.33,18.23-17.51,31.09
		c0,0.85,0.42,1.27,1.27,1.27h35.53c0.84,0,1.35-0.34,1.52-1.01c2.37-10.15,8.29-15.23,17.76-15.23c5.58,0,9.68,1.31,12.31,3.93
		c2.62,2.62,3.93,6.9,3.93,12.81c0,2.88-2.66,5.08-7.99,6.6c-5.33,1.52-11.8,2.88-19.41,4.06c-7.61,1.19-15.27,2.88-22.97,5.08
		c-7.7,2.2-14.21,6.22-19.54,12.05c-5.33,5.84-7.99,13.32-7.99,22.46c0,24.7,15.65,37.05,46.95,37.05
		c16.58,0,28.93-5.24,37.05-15.73L213.92,168.24z M205.29,126.63c0,19.46-7.53,29.18-22.59,29.18c-4.06,0-7.53-1.31-10.4-3.93
		c-2.88-2.62-4.31-6.3-4.31-11.04c0-2.87,1.35-5.37,4.06-7.49c2.7-2.11,5.67-3.64,8.88-4.57c3.21-0.93,7.4-1.99,12.56-3.17
		c5.16-1.18,9.09-2.28,11.8-3.3V126.63z"/>
	<path class="st0" d="M635.4,176.36V52.02c0-0.84-0.42-1.27-1.27-1.27h-36.29c-0.85,0-1.27,0.42-1.27,1.27v69.28
		c0,9.98-1.86,17.6-5.58,22.84c-3.72,5.25-8.97,7.87-15.73,7.87c-6.26,0-10.79-2.24-13.58-6.72c-2.79-4.48-4.19-12.22-4.19-23.22
		V52.02c0-0.84-0.42-1.27-1.27-1.27h-36.29c-0.85,0-1.27,0.42-1.27,1.27v77.4c0,33.67,15.14,50.5,45.42,50.5
		c14.04,0,25.8-6.09,35.27-18.27l2.03,14.72c0,0.85,0.51,1.27,1.52,1.27h31.21C634.98,177.63,635.4,177.21,635.4,176.36z"/>
	<path class="st0" d="M662.05,177.63h36.29c0.84,0,1.27-0.42,1.27-1.27V52.02c0-0.84-0.42-1.27-1.27-1.27h-36.29
		c-0.85,0-1.27,0.42-1.27,1.27v124.34C660.78,177.21,661.2,177.63,662.05,177.63z"/>
	<path class="st0" d="M662.05,34h36.29c0.84,0,1.27-0.42,1.27-1.27V1.27c0-0.84-0.42-1.27-1.27-1.27h-36.29
		c-0.85,0-1.27,0.42-1.27,1.27v31.47C660.78,33.58,661.2,34,662.05,34z"/>
	<path class="st0" d="M841.71,176.36v-77.4c0-33.66-15.14-50.5-45.42-50.5c-14.04,0-25.8,6.09-35.27,18.27l-2.03-14.72
		c0-0.84-0.51-1.27-1.52-1.27h-31.21c-0.85,0-1.27,0.42-1.27,1.27v124.34c0,0.85,0.42,1.27,1.27,1.27h36.29
		c0.84,0,1.27-0.42,1.27-1.27v-68.52c0-9.98,1.9-17.72,5.71-23.22c3.81-5.5,9.01-8.25,15.61-8.25c6.26,0,10.78,2.37,13.58,7.11
		c2.79,4.74,4.19,12.61,4.19,23.6v69.28c0,0.85,0.42,1.27,1.27,1.27h36.29C841.28,177.63,841.71,177.21,841.71,176.36z"/>
	<path class="st0" d="M937.12,176.36v-26.14c0-0.84-0.42-1.27-1.27-1.27c-4.74,0.34-7.78,0.51-9.14,0.51
		c-5.75,0-9.52-1.05-11.29-3.17c-1.78-2.11-2.66-6.38-2.66-12.81V78.67h23.09c0.84,0,1.27-0.42,1.27-1.27V52.02
		c0-0.84-0.42-1.27-1.27-1.27h-23.09V16.49c0-0.34-0.13-0.67-0.38-1.02c-0.25-0.34-0.55-0.42-0.89-0.25l-36.54,7.11
		c-0.68,0.17-1.02,0.68-1.02,1.52v26.9H858.2c-0.85,0-1.27,0.42-1.27,1.27V77.4c0,0.85,0.42,1.27,1.27,1.27h15.73v59.13
		c0,15.4,2.92,26.05,8.75,31.97c5.84,5.92,16.79,8.88,32.86,8.88c6.76,0,13.53-0.34,20.3-1.02
		C936.7,177.63,937.12,177.21,937.12,176.36z"/>
	<path class="st0" d="M1080.24,149.97c-7.45,1.86-11.16-1.52-11.16-10.15V92.88c0-13.87-4.61-24.78-13.83-32.74
		c-9.22-7.95-22.54-11.93-39.97-11.93c-16.07,0-29.35,3.93-39.84,11.8c-10.49,7.87-16.33,18.23-17.51,31.09
		c0,0.85,0.42,1.27,1.27,1.27h35.53c0.84,0,1.35-0.34,1.52-1.01c2.37-10.15,8.29-15.23,17.76-15.23c5.58,0,9.68,1.31,12.31,3.93
		c2.62,2.62,3.93,6.9,3.93,12.81c0,2.88-2.66,5.08-7.99,6.6c-5.33,1.52-11.8,2.88-19.41,4.06c-7.61,1.19-15.27,2.88-22.97,5.08
		c-7.7,2.2-14.21,6.22-19.54,12.05c-5.33,5.84-7.99,13.32-7.99,22.46c0,24.7,15.65,37.05,46.95,37.05
		c16.58,0,28.93-5.24,37.05-15.73l2.54,3.81c4.9,7.61,13.7,11.42,26.39,11.42c3.55,0,8.54-0.59,14.97-1.78
		c0.51-0.17,0.76-0.51,0.76-1.02v-26.39C1081,149.97,1080.75,149.81,1080.24,149.97z M1030.25,126.63
		c0,19.46-7.53,29.18-22.59,29.18c-4.06,0-7.53-1.31-10.4-3.93c-2.88-2.62-4.31-6.3-4.31-11.04c0-2.87,1.35-5.37,4.06-7.49
		c2.7-2.11,5.67-3.64,8.88-4.57c3.21-0.93,7.4-1.99,12.56-3.17c5.16-1.18,9.09-2.28,11.8-3.3V126.63z"/>
	<path class="st0" d="M489.52,186.38c0,0-6.91-16.77-36.49-25.09c19.09-16.24,31.42-41.91,31.42-70.81
		c0-49.1-35.58-88.91-79.46-88.91c-43.89,0-79.46,39.8-79.46,88.91s35.58,88.91,79.46,88.91c7.87,0,15.48-1.29,22.66-3.67
		c21.92,9.2,31.8,29.2,31.8,29.2L489.52,186.38z M404.46,155.52c-23.61,0-42.75-29.3-42.75-65.43c0-36.14,19.14-65.43,42.75-65.43
		c23.61,0,42.75,29.3,42.75,65.43C447.21,126.22,428.07,155.52,404.46,155.52z"/>
	<path class="st0" d="M60.05,241.94c-3.21-1.83-7.2-2.74-11.97-2.74H26.36v67.28h6.14v-25.72h15.67c4.75,0,8.73-0.91,11.93-2.74
		c3.2-1.83,5.61-4.31,7.23-7.46c1.62-3.14,2.43-6.67,2.43-10.59c0-3.92-0.82-7.45-2.45-10.58
		C65.68,246.25,63.26,243.77,60.05,241.94z M61.99,267.81c-1.15,2.3-2.89,4.11-5.21,5.44c-2.32,1.32-5.25,1.99-8.77,1.99H32.51
		v-30.52h15.41c3.57,0,6.52,0.66,8.85,1.97c2.33,1.31,4.07,3.12,5.22,5.42c1.15,2.3,1.72,4.92,1.72,7.85
		C63.71,262.9,63.14,265.51,61.99,267.81z"/>
	<polygon class="st0" points="98.05,239.2 91.91,239.2 91.91,306.48 130.11,306.48 130.11,300.96 98.05,300.96 	"/>
	<path class="st0" d="M171.52,239.2l-24.47,67.28h6.44l7.21-20.27h28.22l7.21,20.27h6.44l-24.47-67.28H171.52z M162.66,280.69
		l11.92-33.51h0.46l11.92,33.51H162.66z"/>
	<polygon class="st0" points="236.63,271.13 236.04,271.13 216.09,239.2 209,239.2 233.28,277.34 233.28,306.48 239.39,306.48 
		239.39,277.34 263.66,239.2 256.57,239.2 	"/>
	<path class="st0" d="M295.48,239.2l-24.47,67.28h6.44l7.21-20.27h28.22l7.21,20.27h6.44l-24.47-67.28H295.48z M286.62,280.69
		l11.92-33.51H299l11.92,33.51H286.62z"/>
	<path class="st0" d="M416.07,243.21c-4.57-2.67-10.06-4.01-16.47-4.01H378.7v67.28h19.71c6.74,0,12.49-1.35,17.23-4.04
		c4.74-2.69,8.35-6.56,10.84-11.61c2.49-5.05,3.73-11.1,3.73-18.15c0-6.99-1.21-12.98-3.65-17.97
		C424.14,249.71,420.64,245.88,416.07,243.21z M421.34,287.79c-1.95,4.23-4.87,7.48-8.77,9.76c-3.9,2.28-8.74,3.42-14.52,3.42
		h-13.21v-56.24h14.39c5.45,0,10.04,1.12,13.75,3.35s6.52,5.44,8.41,9.63c1.89,4.18,2.85,9.18,2.87,14.98
		C424.27,278.52,423.29,283.56,421.34,287.79z"/>
	<polygon class="st0" points="461.53,275.57 492.34,275.57 492.34,270.05 461.53,270.05 461.53,244.72 494.41,244.72 494.41,239.2 
		455.39,239.2 455.39,306.48 495.07,306.48 495.07,300.96 461.53,300.96 	"/>
	<polygon class="st0" points="524.82,239.2 518.68,239.2 518.68,306.48 556.88,306.48 556.88,300.96 524.82,300.96 	"/>
	<path class="st0" d="M626.55,247.38c3.49-2.21,7.36-3.32,11.61-3.32c2.65,0,5.11,0.4,7.39,1.21c2.28,0.81,4.31,1.95,6.11,3.42
		c1.8,1.47,3.29,3.18,4.48,5.14c1.19,1.96,2.02,4.09,2.48,6.39h6.18c-0.55-3.11-1.57-5.99-3.07-8.64c-1.5-2.65-3.41-4.98-5.72-6.98
		c-2.31-2-4.97-3.56-7.97-4.66c-3-1.11-6.3-1.66-9.89-1.66c-5.65,0-10.67,1.42-15.05,4.25c-4.38,2.84-7.81,6.84-10.3,12.01
		c-2.49,5.17-3.73,11.27-3.73,18.3c0,7.03,1.24,13.13,3.73,18.3c2.49,5.17,5.92,9.17,10.3,12.01c4.38,2.84,9.4,4.25,15.05,4.25
		c3.59,0,6.89-0.56,9.89-1.68c3-1.12,5.66-2.67,7.97-4.66c2.31-1.99,4.22-4.32,5.72-6.98c1.5-2.66,2.52-5.54,3.07-8.62h-6.18
		c-0.46,2.3-1.29,4.44-2.48,6.41c-1.19,1.97-2.69,3.69-4.48,5.14c-1.8,1.46-3.83,2.59-6.11,3.4c-2.28,0.81-4.74,1.22-7.39,1.22
		c-4.25,0-8.12-1.1-11.61-3.3c-3.49-2.2-6.29-5.44-8.38-9.71c-2.09-4.27-3.14-9.53-3.14-15.77c0-6.2,1.05-11.44,3.14-15.72
		C620.27,252.84,623.06,249.59,626.55,247.38z"/>
	<path class="st0" d="M704.67,239.2l-24.47,67.28h6.44l7.21-20.27h28.22l7.21,20.27h6.44l-24.47-67.28H704.67z M695.8,280.69
		l11.92-33.51h0.46l11.92,33.51H695.8z"/>
	<path class="st0" d="M791.16,276.75c3.2-1.69,5.61-4.03,7.24-7.03c1.63-3,2.45-6.46,2.45-10.38c0-3.92-0.82-7.4-2.45-10.43
		c-1.63-3.03-4.05-5.41-7.26-7.13c-3.21-1.72-7.2-2.58-11.97-2.58h-21.71v67.28h6.14v-27.2h15.67c0.89,0,1.74-0.04,2.57-0.1
		l14.74,27.3h7.1L788.14,278C789.21,277.65,790.22,277.24,791.16,276.75z M779.1,273.66H763.6v-28.94H779c3.55,0,6.49,0.6,8.82,1.81
		c2.33,1.2,4.08,2.91,5.24,5.11c1.16,2.2,1.74,4.77,1.74,7.7c0,2.93-0.58,5.48-1.72,7.62c-1.15,2.15-2.89,3.8-5.22,4.96
		C785.52,273.08,782.61,273.66,779.1,273.66z"/>
	<polygon class="st0" points="860.51,297.8 859.92,297.8 835.51,239.2 828.41,239.2 828.41,306.48 834.2,306.48 834.2,252.18 
		834.72,252.18 857.42,306.48 863.01,306.48 885.71,252.18 886.23,252.18 886.23,306.48 892.01,306.48 892.01,239.2 884.92,239.2 	
		"/>
	<polygon class="st0" points="926.87,275.57 957.68,275.57 957.68,270.05 926.87,270.05 926.87,244.72 959.75,244.72 959.75,239.2 
		920.72,239.2 920.72,306.48 960.41,306.48 960.41,300.96 926.87,300.96 	"/>
	<polygon class="st0" points="1031.75,295.6 1031.23,295.6 991.34,239.2 985.4,239.2 985.4,306.48 991.54,306.48 991.54,250.14 
		992.07,250.14 1031.82,306.48 1037.8,306.48 1037.8,239.2 1031.75,239.2 	"/>
</g>
</svg>
