<?xml version="1.0" encoding="utf-8"?>
<!-- Generator: Adobe Illustrator 27.2.0, SVG Export Plug-In . SVG Version: 6.00 Build 0)  -->
<svg version="1.1" id="Capa_1" xmlns="http://www.w3.org/2000/svg" xmlns:xlink="http://www.w3.org/1999/xlink" x="0px" y="0px"
	 viewBox="0 0 1082.24 422.07" style="enable-background:new 0 0 1082.24 422.07;" xml:space="preserve">
<style type="text/css">
	.st0{fill:#FFFFFF;}
</style>
<g>
	<g>
		<path class="st0" d="M140.69,188.49c0,0-2.71,2.71-3.61-0.9C135.28,184.88,46,1.8,46,1.8H0l1.8,254.33h26.15L10.82,43.29
			c0,0,2.71-0.9,4.51,1.8c0.9,2.71,104.62,216.45,104.62,216.45h5.41l87.48-217.35c0,0,0.9-1.8,1.8-1.8s1.8,0,1.8,0l1.8,213.74h47.8
			L263.35,0h-46.9L140.69,188.49z"/>
		<path class="st0" d="M992.96,79.36c0,0-50.5,29.76-76.66,99.21c-4.51,12.63-15.33,58.62,4.51,74.85
			c20.74,16.23,42.39,1.8,59.52-16.23c18.04-18.04,39.68-52.31,54.11-91.09h2.71l0.9,110.03h44.19l-0.9-176.77L992.96,79.36z
			 M1027.23,128.07c-16.23,46.9-37.88,77.56-47.8,89.28c-9.02,11.72-13.53,11.72-20.74,9.02c-12.63-11.72-1.8-55.01,7.21-80.27
			c9.02-26.15,26.15-53.21,26.15-53.21h44.19C1037.15,92.89,1036.24,103.71,1027.23,128.07z"/>
		<path class="st0" d="M600.64,229.98c3.61,10.82,9.92,20.74,22.55,26.15c27.96,10.82,55.01-3.61,58.62-5.41
			c2.71-1.8,31.57-13.53,57.72-55.92c-6.31-3.61-10.82-5.41-10.82-5.41s-9.02,13.53-25.25,31.57
			c-14.43,16.23-38.78,29.76-52.31,11.72c-7.21-10.82-8.12-35.17-8.12-35.17l105.52-73.05c0,0,0.9-31.57-11.72-40.58
			s-18.94-11.72-40.58-7.21c-22.55,4.51-52.31,20.74-73.95,53.21c-16.23,23.45-20.74,43.29-21.64,57.72c0,0-0.9,6.31-0.9,9.02
			c0,0.9,0,1.8,0,1.8c0,2.71,0,9.92,0,12.63c-10.82,16.23-22.55,27.96-33.37,31.57s-11.72-5.41-11.72-5.41l-2.71-147.91h58.62v-9.92
			h-58.62V23.45h-8.12l-36.07,55.92h-46h-7.21l-81.17,0.9c0,0-50.5,29.76-76.66,99.21c-4.51,12.63-15.33,58.62,4.51,74.85
			c20.74,16.23,42.39,1.8,59.52-16.23c18.04-18.04,39.68-52.31,54.11-91.09h2.71l0.9,109.13h44.19l-0.9-165.94h46
			c0,32.47,0.9,132.57,0.9,138.89c0,8.12,4.51,17.14,11.72,23.45c7.21,6.31,20.74,12.63,45.09,4.51
			C580.8,250.72,592.53,238.09,600.64,229.98L600.64,229.98z M407.64,129.87c-16.23,46.9-37.88,77.56-46.9,89.28
			c-9.02,11.72-13.53,11.72-20.74,9.02c-12.63-11.72-1.8-55.01,7.21-80.27c9.02-25.25,26.15-53.21,26.15-53.21h44.19
			C417.56,94.7,416.66,105.52,407.64,129.87z M704.36,138.89l-62.23,43.29c0,0,0-6.31,0.9-21.64c7.21-47.8,25.25-61.33,32.47-65.84
			c7.21-4.51,18.04-7.21,23.45,2.71S704.36,138.89,704.36,138.89z"/>
		<path class="st0" d="M918.1,133.48c0,0-0.9-26.15-0.9-33.37c0-9.02-6.31-26.15-20.74-27.06c-14.43-1.8-23.45,1.8-41.49,24.35
			c-18.04,22.55-35.17,72.15-37.88,79.36c-2.71,7.21-3.61,4.51-3.61,4.51l-0.9-103.71h-43.29l0.9,177.67h36.07
			c0,0,12.63-50.5,24.35-82.07c10.82-28.86,18.94-46,27.06-59.52c3.61-5.41,9.02-10.82,12.63-7.21c4.51,3.61,1.8,26.15,1.8,26.15
			L918.1,133.48z"/>
	</g>
	<g>
		<g>
			<path class="st0" d="M82.07,359.84c5.41,0,9.92,2.71,12.63,7.21l5.41-0.9c-0.9-0.9-1.8-3.61-3.61-6.31
				c-1.8-1.8-6.31-4.51-13.53-4.51c-9.92,0-17.14,5.41-20.74,14.43c-0.9,2.71-1.8,5.41-1.8,9.02c0,2.71,0,11.72,7.21,17.14
				c5.41,4.51,11.72,4.51,13.53,4.51c7.21,0,10.82-2.71,13.53-4.51c1.8-1.8,3.61-3.61,5.41-6.31l-5.41-0.9
				c-2.71,4.51-6.31,7.21-12.63,7.21c-2.71,0-5.41-0.9-6.31-0.9c-2.71-0.9-3.61-2.71-4.51-3.61c-4.51-4.51-4.51-12.63-4.51-13.53
				c0-1.8,0-9.92,6.31-14.43C76.66,359.84,80.27,359.84,82.07,359.84z"/>
			<path class="st0" d="M127.16,355.34c-4.51,0-14.43,0.9-18.94,12.63c-1.8,4.51-1.8,9.02-1.8,10.82c0,8.12,2.71,12.63,4.51,15.33
				c5.41,6.31,12.63,7.21,16.23,7.21c9.92,0,17.14-5.41,19.84-14.43c0.9-3.61,0.9-7.21,0.9-9.02c0-6.31-1.8-12.63-7.21-18.04
				C137.08,356.24,132.57,355.34,127.16,355.34z M127.16,395.92c-4.51,0-7.21-1.8-8.12-2.71c-6.31-4.51-6.31-13.53-6.31-15.33
				c0-9.02,2.71-13.53,6.31-16.23c3.61-2.71,7.21-2.71,8.12-2.71c7.21,0,14.43,4.51,14.43,18.94
				C141.59,392.31,133.48,395.92,127.16,395.92z"/>
			<path class="st0" d="M179.47,355.34c-6.31,0-9.02,1.8-10.82,3.61c-1.8,1.8-2.71,3.61-3.61,4.51v-8.12h-5.41v43.29h5.41v-18.94
				c0-5.41,0-9.02,0.9-10.82c0.9-3.61,3.61-6.31,7.21-8.12c2.71-0.9,5.41-0.9,6.31-0.9s3.61,0,6.31,1.8c0.9,0.9,2.71,1.8,3.61,3.61
				c0.9,2.71,0.9,6.31,0.9,11.72v22.55h5.41v-22.55c0-7.21,0-10.82-1.8-14.43C191.2,359.84,187.59,355.34,179.47,355.34z"/>
			<path class="st0" d="M227.27,359.84c5.41,0,9.92,2.71,12.63,7.21l5.41-0.9c-0.9-0.9-1.8-3.61-3.61-6.31
				c-1.8-1.8-6.31-4.51-13.53-4.51c-9.92,0-17.14,5.41-20.74,14.43c-0.9,2.71-1.8,5.41-1.8,9.02c0,2.71,0,11.72,7.21,17.14
				c5.41,4.51,11.72,4.51,13.53,4.51c7.21,0,10.82-2.71,13.53-4.51c1.8-1.8,3.61-3.61,5.41-6.31l-5.41-0.9
				c-2.71,4.51-6.31,7.21-12.63,7.21c-2.71,0-5.41-0.9-6.31-0.9c-2.71-0.9-3.61-2.71-4.51-3.61c-4.51-4.51-4.51-12.63-4.51-13.53
				c0-1.8,0-9.92,6.31-14.43C221.86,359.84,225.47,359.84,227.27,359.84z"/>
			<path class="st0" d="M273.27,355.34c-9.02,0-16.23,5.41-19.84,13.53c-1.8,3.61-1.8,7.21-1.8,9.02c0,2.71,0,15.33,11.72,20.74
				c4.51,1.8,9.02,2.71,10.82,2.71c9.02,0,13.53-4.51,16.23-7.21c1.8-2.71,2.71-4.51,3.61-5.41l-5.41-1.8
				c-4.51,8.12-10.82,9.02-14.43,9.02c-10.82,0-13.53-7.21-14.43-10.82c-0.9-1.8-0.9-3.61-0.9-7.21h35.17v-1.8
				c0-5.41-2.71-11.72-6.31-15.33C282.28,355.34,275.97,355.34,273.27,355.34z M257.93,373.37c0-1.8,0.9-4.51,1.8-6.31
				c0.9-2.71,5.41-7.21,12.63-7.21c5.41,0,12.63,2.71,14.43,13.53H257.93z"/>
			<path class="st0" d="M333.69,358.04c-1.8-0.9-4.51-2.71-9.92-2.71c-6.31,0-10.82,2.71-11.72,5.41c-0.9,0.9-0.9,1.8-1.8,2.71
				v-7.21h-5.41v65.84h5.41v-29.76c0.9,0.9,0.9,1.8,0.9,2.71c1.8,2.71,5.41,6.31,12.63,6.31c13.53,0,17.14-11.72,18.04-15.33
				c0.9-3.61,0.9-6.31,0.9-7.21C342.71,370.67,340,361.65,333.69,358.04z M337.3,376.98c0,8.12-3.61,18.04-14.43,18.04
				c-1.8,0-4.51,0-8.12-2.71c-4.51-3.61-5.41-9.92-5.41-15.33c0-2.71,0-4.51,0.9-6.31c0.9-3.61,2.71-7.21,6.31-9.02
				c1.8-0.9,3.61-1.8,6.31-1.8c3.61,0,9.92,0.9,12.63,9.02C337.3,373.37,337.3,376.08,337.3,376.98z"/>
			<path class="st0" d="M562.76,338.2h-5.41v18.04h-9.92H374.27h-9.92V338.2h-5.41v18.04h-9.92v4.51h9.92v27.06
				c0,1.8,0,6.31,0.9,9.02c0.9,3.61,4.51,3.61,6.31,3.61c0.9,0,0.9,0,1.8,0c3.61,0,6.31-0.9,7.21-1.8v-5.41
				c-1.8,0.9-3.61,2.71-6.31,2.71c-3.61,0-3.61-3.61-3.61-6.31c0-1.8,0-2.71,0-4.51v-24.35h9.92h174.06h9.92v27.06
				c0,1.8,0,6.31,0.9,9.02c0.9,3.61,4.51,3.61,6.31,3.61c0.9,0,0.9,0,1.8,0c3.61,0,6.31-0.9,7.21-1.8v-5.41
				c-1.8,0.9-3.61,2.71-6.31,2.71c-3.61,0-3.61-3.61-3.61-6.31c0-1.8,0-2.71,0-4.51v-24.35h9.92v-4.51h-9.92V338.2H562.76z"/>
			<path class="st0" d="M599.74,355.34c-4.51,0-14.43,0.9-18.94,12.63c-1.8,4.51-1.8,9.02-1.8,10.82c0,8.12,2.71,12.63,4.51,15.33
				c5.41,6.31,12.63,7.21,16.23,7.21c9.92,0,17.14-5.41,19.84-14.43c0.9-3.61,0.9-7.21,0.9-9.02c0-6.31-1.8-12.63-7.21-18.04
				C608.76,356.24,604.25,355.34,599.74,355.34z M598.84,395.92c-4.51,0-7.21-1.8-8.12-2.71c-6.31-4.51-6.31-13.53-6.31-15.33
				c0-9.02,2.71-13.53,6.31-16.23c3.61-2.71,7.21-2.71,8.12-2.71c7.21,0,14.43,4.51,14.43,18.94
				C614.17,392.31,606.05,395.92,598.84,395.92z"/>
			<polygon class="st0" points="670.99,391.41 660.17,356.24 654.76,356.24 643.93,391.41 631.31,356.24 625.9,356.24 
				641.23,399.53 646.64,399.53 657.46,363.45 669.19,399.53 673.69,399.53 688.12,356.24 682.71,356.24 			"/>
			<path class="st0" d="M716.98,355.34c-6.31,0-9.02,1.8-10.82,3.61c-2.71,1.8-2.71,3.61-3.61,5.41v-8.12h-5.41v43.29h5.41v-18.94
				c0-5.41,0-9.02,0.9-10.82c0.9-3.61,3.61-6.31,7.21-8.12c2.71-0.9,5.41-0.9,6.31-0.9s3.61,0,6.31,1.8c0.9,0.9,2.71,1.8,3.61,3.61
				c0.9,2.71,0.9,6.31,0.9,11.72v22.55h5.41v-22.55c0-7.21,0-10.82-1.8-14.43C729.61,359.84,726,355.34,716.98,355.34z"/>
			<path class="st0" d="M766.59,355.34c-7.21,0-10.82,3.61-12.63,5.41c-0.9,0.9-1.8,1.8-1.8,2.71v-27.96h-5.41v64.03h5.41v-18.94
				c0-7.21,0-10.82,1.8-14.43c0.9-2.71,4.51-6.31,11.72-6.31c1.8,0,3.61,0,5.41,0.9c4.51,1.8,5.41,6.31,5.41,10.82
				c0,1.8,0,2.71,0,4.51v23.45h5.41v-24.35c0-7.21,0-10.82-2.71-14.43C775.61,355.34,769.29,355.34,766.59,355.34z"/>
			<path class="st0" d="M814.39,355.34c-4.51,0-14.43,0.9-18.94,12.63c-1.8,4.51-1.8,8.12-1.8,10.82c0,8.12,2.71,12.63,4.51,15.33
				c5.41,6.31,12.63,7.21,16.23,7.21c9.92,0,17.14-5.41,19.84-14.43c0.9-3.61,0.9-7.21,0.9-9.02c0-6.31-1.8-12.63-7.21-18.04
				C824.31,356.24,819.8,355.34,814.39,355.34z M814.39,395.92c-4.51,0-7.21-1.8-8.12-2.71c-6.31-4.51-6.31-13.53-6.31-15.33
				c0-9.02,2.71-13.53,6.31-16.23c3.61-2.71,7.21-2.71,8.12-2.71c7.21,0,14.43,4.51,14.43,18.94
				C829.72,392.31,821.6,395.92,814.39,395.92z"/>
			<path class="st0" d="M876.61,375.18c0,5.41,0,10.82-2.71,15.33c-3.61,4.51-8.12,4.51-10.82,4.51c-6.31,0-9.02-3.61-9.92-6.31
				c-0.9-2.71-0.9-5.41-0.9-10.82v-22.55h-5.41v21.64c0,7.21,0,10.82,0.9,13.53c0.9,3.61,4.51,7.21,9.02,8.12
				c2.71,0.9,4.51,0.9,5.41,0.9c2.71,0,8.12,0,12.63-5.41c0.9-0.9,0.9-1.8,1.8-3.61v8.12h5.41v-43.29h-5.41V375.18z"/>
			<path class="st0" d="M904.57,361.65c0.9-0.9,3.61-1.8,7.21-1.8c4.51,0,9.92,1.8,10.82,6.31l5.41-1.8c0-1.8-1.8-4.51-5.41-7.21
				c-4.51-2.71-9.92-2.71-10.82-2.71c-3.61,0-9.02,0.9-12.63,3.61c-3.61,2.71-3.61,7.21-3.61,8.12c0,2.71,0.9,5.41,2.71,7.21
				c3.61,3.61,9.92,4.51,14.43,5.41s7.21,1.8,9.02,3.61c0.9,0.9,0.9,2.71,0.9,3.61c0,2.71-0.9,4.51-3.61,6.31
				c-0.9,0.9-4.51,1.8-8.12,1.8c-8.12,0-11.72-5.41-12.63-8.12l-5.41,2.71c0.9,1.8,1.8,3.61,2.71,5.41
				c5.41,6.31,12.63,6.31,15.33,6.31c9.02,0,13.53-4.51,15.33-7.21c0.9-2.71,1.8-4.51,1.8-5.41s0-3.61-1.8-6.31
				c-2.71-3.61-6.31-4.51-10.82-5.41l-4.51-0.9c-3.61-0.9-9.92-1.8-9.92-7.21c0-0.9,0-1.8,0.9-3.61S903.67,361.65,904.57,361.65z"/>
			<path class="st0" d="M958.68,355.34c-9.02,0-16.23,5.41-19.84,13.53c-1.8,3.61-1.8,7.21-1.8,9.02c0,2.71,0,15.33,11.72,20.74
				c4.51,1.8,9.02,2.71,10.82,2.71c9.02,0,13.53-4.51,16.23-7.21c1.8-2.71,2.71-4.51,3.61-5.41l-5.41-1.8
				c-4.51,8.12-10.82,9.02-14.43,9.02c-10.82,0-13.53-7.21-14.43-10.82c-0.9-1.8-0.9-3.61-0.9-7.21h35.17v-1.8
				c0-5.41-2.71-11.72-6.31-15.33C967.7,355.34,961.39,355.34,958.68,355.34z M944.25,373.37c0-1.8,0.9-4.51,1.8-6.31
				c0.9-2.71,5.41-7.21,12.63-7.21c5.41,0,12.63,2.71,14.43,13.53H944.25z"/>
			<path class="st0" d="M1009.19,375.18l-4.51-0.9c-3.61-0.9-9.92-1.8-9.92-7.21c0-0.9,0-1.8,0.9-3.61c0.9-0.9,1.8-1.8,1.8-1.8
				c0.9-0.9,3.61-1.8,7.21-1.8c4.51,0,9.92,1.8,10.82,6.31l5.41-1.8c0-1.8-1.8-4.51-5.41-7.21c-4.51-2.71-9.92-2.71-10.82-2.71
				c-3.61,0-9.02,0.9-12.63,3.61c-3.61,2.71-3.61,7.21-3.61,8.12c0,2.71,0.9,5.41,2.71,7.21c3.61,3.61,9.92,4.51,14.43,5.41
				s7.21,1.8,9.02,3.61c0.9,0.9,0.9,2.71,0.9,3.61c0,2.71-0.9,4.51-3.61,6.31c-0.9,0.9-4.51,1.8-8.12,1.8
				c-8.12,0-11.72-5.41-12.63-8.12l-5.41,1.8c0.9,1.8,1.8,3.61,2.71,5.41c5.41,6.31,12.63,6.31,15.33,6.31
				c9.02,0,13.53-4.51,15.33-7.21c0.9-2.71,1.8-4.51,1.8-5.41s0-3.61-1.8-6.31C1017.31,376.98,1013.7,376.08,1009.19,375.18z"/>
		</g>
	</g>
</g>
</svg>
