<?xml version="1.0" encoding="utf-8"?>
<!-- Generator: Adobe Illustrator 27.2.0, SVG Export Plug-In . SVG Version: 6.00 Build 0)  -->
<svg version="1.1" id="Capa_1" xmlns="http://www.w3.org/2000/svg" xmlns:xlink="http://www.w3.org/1999/xlink" x="0px" y="0px"
	 viewBox="0 0 1081 666.33" style="enable-background:new 0 0 1081 666.33;" xml:space="preserve">
<style type="text/css">
	.st0{fill:#FFFFFF;}
</style>
<g>
	<path class="st0" d="M561.7,32.34c0,17.86-19.95,32.34-19.95,32.34s-19.95-14.48-19.95-32.34S541.75,0,541.75,0
		S561.7,14.48,561.7,32.34z"/>
	<path class="st0" d="M561.7,123.85c0,17.86-19.95,32.34-19.95,32.34s-19.95-14.48-19.95-32.34s19.95-32.34,19.95-32.34
		S561.7,105.99,561.7,123.85z"/>
	<path class="st0" d="M606.77,76.37c0,17.86-19.95,32.34-19.95,32.34s-19.95-14.48-19.95-32.34s19.95-32.34,19.95-32.34
		S606.77,58.51,606.77,76.37z"/>
	<path class="st0" d="M652.52,32.34c0,17.86-19.95,32.34-19.95,32.34s-19.95-14.48-19.95-32.34S632.57,0,632.57,0
		S652.52,14.48,652.52,32.34z"/>
	<path class="st0" d="M470.53,32.34c0,17.86-19.95,32.34-19.95,32.34s-19.95-14.48-19.95-32.34S450.58,0,450.58,0
		S470.53,14.48,470.53,32.34z"/>
	<path class="st0" d="M516.63,76.37c0,17.86-19.95,32.34-19.95,32.34s-19.95-14.48-19.95-32.34s19.95-32.34,19.95-32.34
		S516.63,58.51,516.63,76.37z"/>
	<path class="st0" d="M521.45,305.06c0-17.86,19.95-32.34,19.95-32.34s19.95,14.48,19.95,32.34c0,17.86-19.95,32.34-19.95,32.34
		S521.45,322.92,521.45,305.06z"/>
	<path class="st0" d="M521.45,213.55c0-17.86,19.95-32.34,19.95-32.34s19.95,14.48,19.95,32.34s-19.95,32.34-19.95,32.34
		S521.45,231.41,521.45,213.55z"/>
	<path class="st0" d="M476.38,261.03c0-17.86,19.95-32.34,19.95-32.34s19.95,14.48,19.95,32.34c0,17.86-19.95,32.34-19.95,32.34
		S476.38,278.89,476.38,261.03z"/>
	<path class="st0" d="M430.63,305.06c0-17.86,19.95-32.34,19.95-32.34s19.95,14.48,19.95,32.34c0,17.86-19.95,32.34-19.95,32.34
		S430.63,322.92,430.63,305.06z"/>
	<path class="st0" d="M612.62,305.06c0-17.86,19.95-32.34,19.95-32.34s19.95,14.48,19.95,32.34c0,17.86-19.95,32.34-19.95,32.34
		S612.62,322.92,612.62,305.06z"/>
	<path class="st0" d="M566.52,261.03c0-17.86,19.95-32.34,19.95-32.34s19.95,14.48,19.95,32.34c0,17.86-19.95,32.34-19.95,32.34
		S566.52,278.89,566.52,261.03z"/>
	<path class="st0" d="M678.32,188.52c-17.86,0-32.34-19.95-32.34-19.95s14.48-19.95,32.34-19.95c17.86,0,32.34,19.95,32.34,19.95
		S696.18,188.52,678.32,188.52z"/>
	<path class="st0" d="M586.81,188.52c-17.86,0-32.34-19.95-32.34-19.95s14.48-19.95,32.34-19.95s32.34,19.95,32.34,19.95
		S604.67,188.52,586.81,188.52z"/>
	<path class="st0" d="M634.29,233.59c-17.86,0-32.34-19.95-32.34-19.95s14.48-19.95,32.34-19.95c17.86,0,32.34,19.95,32.34,19.95
		S652.15,233.59,634.29,233.59z"/>
	<path class="st0" d="M678.32,279.35c-17.86,0-32.34-19.95-32.34-19.95s14.48-19.95,32.34-19.95c17.86,0,32.34,19.95,32.34,19.95
		S696.18,279.35,678.32,279.35z"/>
	<path class="st0" d="M678.32,97.36c-17.86,0-32.34-19.95-32.34-19.95s14.48-19.95,32.34-19.95c17.86,0,32.34,19.95,32.34,19.95
		S696.18,97.36,678.32,97.36z"/>
	<path class="st0" d="M634.29,143.46c-17.86,0-32.34-19.95-32.34-19.95s14.48-19.95,32.34-19.95c17.86,0,32.34,19.95,32.34,19.95
		S652.15,143.46,634.29,143.46z"/>
	<path class="st0" d="M404.83,148.27c17.86,0,32.34,19.95,32.34,19.95s-14.48,19.95-32.34,19.95c-17.86,0-32.34-19.95-32.34-19.95
		S386.97,148.27,404.83,148.27z"/>
	<path class="st0" d="M496.34,148.27c17.86,0,32.34,19.95,32.34,19.95s-14.48,19.95-32.34,19.95c-17.86,0-32.34-19.95-32.34-19.95
		S478.48,148.27,496.34,148.27z"/>
	<path class="st0" d="M448.86,103.21c17.86,0,32.34,19.95,32.34,19.95s-14.48,19.95-32.34,19.95c-17.86,0-32.34-19.95-32.34-19.95
		S431,103.21,448.86,103.21z"/>
	<path class="st0" d="M404.83,57.45c17.86,0,32.34,19.95,32.34,19.95s-14.48,19.95-32.34,19.95c-17.86,0-32.34-19.95-32.34-19.95
		S386.97,57.45,404.83,57.45z"/>
	<path class="st0" d="M404.83,239.44c17.86,0,32.34,19.95,32.34,19.95s-14.48,19.95-32.34,19.95c-17.86,0-32.34-19.95-32.34-19.95
		S386.97,239.44,404.83,239.44z"/>
	<path class="st0" d="M448.86,193.34c17.86,0,32.34,19.95,32.34,19.95s-14.48,19.95-32.34,19.95c-17.86,0-32.34-19.95-32.34-19.95
		S431,193.34,448.86,193.34z"/>
	<g>
		<polygon class="st0" points="0,431.25 0,545.1 8.08,545.1 8.08,449.45 69.36,504.81 130.81,452.69 130.81,545.1 138.9,545.1 
			138.9,435.23 69.53,494.06 		"/>
		<polygon class="st0" points="670.52,618.03 670.52,665.78 674.56,665.78 674.56,627.13 699.47,649.63 724.47,628.44 
			724.47,665.78 728.51,665.78 728.51,619.7 699.56,644.26 		"/>
		<rect x="185" y="440.35" class="st0" width="8.08" height="104.76"/>
		<path class="st0" d="M334.22,466.54c0-16.67-13.56-30.23-30.23-30.23h-65.84v4.04v56.42v48.34h8.08v-48.34h30.04l46.51,51.1h10.66
			l-46.27-51.1h16.82C320.65,496.77,334.22,483.21,334.22,466.54z M246.23,444.39h57.75c12.21,0,22.15,9.94,22.15,22.15
			c0,12.21-9.93,22.15-22.15,22.15h-57.75V444.39z"/>
		<path class="st0" d="M1072.59,547.26l8.41,0.04l-69.28-111.71l-71.96,111.71h9.62l19.64-30.49h84.38L1072.59,547.26z
			 M974.22,508.72l37.43-58.1l36.65,58.1H974.22z"/>
		<path class="st0" d="M353.78,547.29h9.62l19.64-30.49h84.38l19.21,30.45l8.41,0.04l-69.28-111.71L353.78,547.29z M388.24,508.72
			l37.43-58.1l36.65,58.1H388.24z"/>
		<polygon class="st0" points="627.41,541.06 529.79,541.06 529.79,440.35 521.71,440.35 521.71,549.15 627.41,549.15 		"/>
		<path class="st0" d="M758.05,502.27c0,21.39-17.4,38.79-38.79,38.79h-27.35c-21.39,0-38.79-17.4-38.79-38.79v-61.92h-8.08v61.92
			c0,25.84,21.03,46.87,46.87,46.87h27.35c25.84,0,46.87-21.03,46.87-46.87v-61.92h-8.08V502.27z"/>
		<polygon class="st0" points="520.27,621.1 516.23,621.1 516.23,666.33 560.17,666.33 560.17,662.29 520.27,662.29 		"/>
		<path class="st0" d="M479.87,646.64c0,8.63-7.02,15.64-15.64,15.64h-11.28c-8.62,0-15.64-7.02-15.64-15.64V621.1h-4.04v25.54
			c0,10.86,8.83,19.69,19.68,19.69h11.28c10.85,0,19.68-8.83,19.68-19.69V621.1h-4.04V646.64z"/>
		<path class="st0" d="M631.77,646.64c0,8.63-7.01,15.64-15.64,15.64h-11.28c-8.63,0-15.64-7.02-15.64-15.64V621.1h-4.04v25.54
			c0,10.86,8.83,19.69,19.68,19.69h11.28c10.85,0,19.68-8.83,19.68-19.69V621.1h-4.04V646.64z"/>
		<polygon class="st0" points="912.86,535.81 800.37,431.06 800.37,545.1 808.45,545.1 808.45,449.64 920.94,554.39 920.94,443.1 
			912.86,443.1 		"/>
		<polygon class="st0" points="353.78,624.78 377.82,624.78 377.82,665.34 381.86,665.34 381.86,624.78 405.9,624.78 405.9,620.74 
			353.78,620.74 		"/>
	</g>
</g>
</svg>
