<?xml version="1.0" encoding="utf-8"?>
<!-- Generator: Adobe Illustrator 27.2.0, SVG Export Plug-In . SVG Version: 6.00 Build 0)  -->
<svg version="1.1" id="Capa_1" xmlns="http://www.w3.org/2000/svg" xmlns:xlink="http://www.w3.org/1999/xlink" x="0px" y="0px"
	 viewBox="0 0 1080.62 234.57" style="enable-background:new 0 0 1080.62 234.57;" xml:space="preserve">
<style type="text/css">
	.st0{fill:#FFFFFF;}
</style>
<g>
	<path class="st0" d="M191.91,222.86v-92.27l11.2-33.46h-28.83l10.27,33.25v86.69C138.88,181.16,38.76,102.04,37.06,97.13H0
		l19.36,15v85.03l-10.23,37.4h28.07l-10.23-37.89v-79.5c0,0,143.59,109.37,144.83,117.39h35.05
		C206.85,234.57,201.17,230.13,191.91,222.86z"/>
	<path class="st0" d="M312.76,97.13l11.06,11.89c0,0-82.13,123.33-84.07,125.55h34.01c0,0-10.2-12.14-8.3-26.55l61.94-94.3l47.84,73
		h-91.81l9.68,17.15c0,0,26.27-9.4,32.91-9.4h53.92l9.96,13.27c0,0,3.32,16.87-6.36,26.82h52.82c0,0-16.59-17.42-24.89-30.7
		l-64.16-98.17v-9.68L312.76,97.13z"/>
	<path class="st0" d="M431.12,120.63V96.02H595.1v25.99c0,0-23.51-19.63-40.93-19.63h-32.91v97.89l10.78,34.29h-39.82l10.78-34.01
		v-97.34h-34.57C468.45,103.21,451.3,103.77,431.12,120.63z"/>
	<polygon class="st0" points="635.34,96.02 675.16,96.02 662.85,117.87 662.85,201.38 675.16,234.57 635.34,234.57 647.09,200 
		648.61,118.7 	"/>
	<path class="st0" d="M868.45,96.02h32.35l-84.62,128.31l9.13,10.23h-31.94c0,0-0.41-9.61-1.04-10.65
		c-0.62-1.04-86.07-127.9-86.07-127.9h52.89c0,0-13.9,12.37-7.05,27.93l60.77,95.2l62.63-98.52
		C875.5,120.63,879.65,106.05,868.45,96.02z"/>
	<path class="st0" d="M1080.62,234.57c-3.32,0-20.74-23.3-20.74-23.3l-69.06-107.02v-8.23h-34.57l10.92,12.37L883.8,234.57h33.18
		l-6.43-10.65c-2.49-4.77,0-16.8,0-16.8l60.98-94.78l48.53,75.49H923l11.41,16.38c1.87-3.11,31.73-10.58,31.73-10.58H1024
		c0,0,10.78,14.52,11.61,21.78c0.83,7.26-8.5,19.15-8.5,19.15H1080.62z"/>
	<g>
		<path class="st0" d="M407.9,29.84V0.29H426v3.33h-14.44v9.86h11.86v3.33h-11.86v9.7h15.31v3.33H407.9z"/>
		<path class="st0" d="M458,30.09c-4.13,0-7.63-1.53-10.49-4.58l2.33-2.75c1.03,1.28,2.27,2.25,3.75,2.91c1.47,0.67,2.95,1,4.45,1
			c1.83,0,3.29-0.4,4.39-1.21c1.1-0.8,1.64-1.91,1.64-3.33c0-0.78-0.13-1.44-0.4-2c-0.26-0.55-0.71-1.05-1.35-1.48
			c-0.64-0.43-1.26-0.77-1.86-1.01c-0.61-0.24-1.46-0.59-2.57-1.03c-0.18-0.09-0.32-0.14-0.43-0.17c-1.08-0.43-1.96-0.79-2.65-1.06
			c-0.68-0.27-1.46-0.67-2.33-1.2c-0.87-0.53-1.55-1.06-2.04-1.6s-0.91-1.22-1.27-2.04c-0.36-0.82-0.54-1.73-0.54-2.73
			c0-2.19,0.87-4.04,2.62-5.53c1.75-1.5,3.88-2.26,6.41-2.29c3.33,0,6.45,1.15,9.36,3.45l-2.21,2.83c-2.3-1.94-4.69-2.91-7.16-2.91
			c-1.44,0-2.68,0.38-3.7,1.14c-1.03,0.76-1.54,1.81-1.54,3.14c0,0.56,0.11,1.06,0.33,1.52c0.22,0.46,0.47,0.83,0.75,1.12
			c0.28,0.29,0.76,0.62,1.46,0.98c0.69,0.36,1.25,0.63,1.66,0.79c0.41,0.17,1.11,0.45,2.09,0.85c3.05,1.17,5.06,2.09,6.03,2.75
			c2.08,1.42,3.12,3.45,3.12,6.09c0,2.61-0.96,4.65-2.89,6.12C463.04,29.35,460.72,30.09,458,30.09z"/>
		<path class="st0" d="M496.2,29.84V3.62h-8.86V0.29h21.39v3.33h-8.91v26.22H496.2z"/>
		<path class="st0" d="M530.45,29.84V0.29h18.1v3.33h-14.44v9.86h11.86v3.33h-11.86v9.7h15.31v3.33H530.45z"/>
		<path class="st0" d="M571.98,29.84V0.29h3.62v26.22h14.65v3.33H571.98z"/>
		<path class="st0" d="M631.95,29.84l-2.63-7.2h-13.18l-2.63,7.2h-3.83l11.19-29.55h3.62l11.28,29.55H631.95z M617.29,19.47h10.87
			l-5.4-14.77l-0.08,0L617.29,19.47z"/>
	</g>
</g>
</svg>
