<svg xmlns="http://www.w3.org/2000/svg" viewBox="0 0 1335.04 379.96"><defs><style>.cls-1,.cls-2{fill:#fff;}.cls-1,.cls-3{stroke:#fff;stroke-miterlimit:10;}.cls-3{fill:none;}</style></defs><g id="Capa_2" data-name="Capa 2"><g id="Capa_1-2" data-name="Capa 1"><polygon class="cls-1" points="192.76 5.25 192.76 252.11 172.59 252.11 19.49 42.04 19.49 252.11 0.5 252.11 0.5 5.25 18.3 5.25 171.4 212.94 171.4 5.25 192.76 5.25"/><rect class="cls-1" x="367.23" y="5.25" width="24.92" height="246.86"/><path class="cls-1" d="M704.28,5.25H572.54V252.11H704.28s96.13-16.62,94.94-123.43S704.28,5.25,704.28,5.25Zm-9.49,225.49H593.91V23.05h92s89.58,15.43,92,103.85S694.79,230.74,694.79,230.74Z"/><rect class="cls-1" x="929.25" y="11.71" width="4.74" height="240.4"/><path class="cls-1" d="M1063.22,82.39v90.73h-2.63S1049,146.75,1049,126.9s11.61-44.51,11.61-44.51Z"/><polygon class="cls-1" points="1124.02 11.71 1124.02 23.05 1095.93 71.32 1094.35 221.25 1081.69 212.55 1081.69 69.73 1115.31 11.71 1124.02 11.71"/><path class="cls-1" d="M1154.48.5V42c0,15.43-5.54,17.8-5.54,17.8L1124,100.59v144l-8.71-6.33V97.43s22.16-38.38,26.9-42.73,4-15.43,4-15.43V.5Z"/><path class="cls-1" d="M1185.33.5V68.94c0,13.45-4.35,18.2-4.35,18.2l-26.5,47.47V256.46l-8.71-4.35V131.91s21-37.65,26.11-46,4.36-15,4.36-15V.5Z"/><path class="cls-1" d="M1216.59.5V108.9c0,9.49-8.31,18.86-8.31,18.86l-23,39.29v89.41h-9.09V164.68l23.34-37.78c6.72-4.55,7.12-17.21,7.12-17.21V.5Z"/><path class="cls-1" d="M1247.05,134.09c.39,10.15-3.17,20.7-3.17,20.7l-24.13,42.35.4,59.32H1206.7V197.14l22.55-40.77c6.72-3.56,7.91-18.59,7.91-18.59V11.71h9.92S1246.65,123.93,1247.05,134.09Z"/><path class="cls-1" d="M1277.91,38.09V167.45c0,7.51-3.17,15.43-3.17,15.43l-20.37,30.46c-5.74,3.56-4.16,24.92-4.16,24.92h-9.1v-19l19.78-30.06c5.94-3.56,6.73-20.18,6.73-20.18V34.92Z"/><path class="cls-1" d="M1310,125.91c-.4,16.22-7.52,43.52-7.52,43.52h-5.54v-87h4.75S1310.34,109.69,1310,125.91Z"/><path class="cls-2" d="M148.29,324.44a9.2,9.2,0,0,1,4.05,3.37,10.18,10.18,0,0,1,0,10.34,9.07,9.07,0,0,1-4.05,3.37,15.13,15.13,0,0,1-6.19,1.17h-5.41v7.4h-6.21V323.25H142.1A15,15,0,0,1,148.29,324.44Zm-2.28,12a4.81,4.81,0,0,0,0-6.9,6.5,6.5,0,0,0-4.26-1.21h-5.06v9.32h5.06A6.5,6.5,0,0,0,146,336.42Z"/><path class="cls-2" d="M207,347.37q-3.21-3.18-3.2-9.09v-15h6.21v14.8q0,7.21,6,7.21a5.62,5.62,0,0,0,4.45-1.74q1.53-1.75,1.53-5.47v-14.8h6.14v15q0,5.91-3.2,9.09t-9,3.18Q210.25,350.55,207,347.37Z"/><path class="cls-2" d="M301.08,345.11v5H280.3V323.25h20.29v5H286.47v5.83h12.47v4.83H286.47v6.22Z"/><path class="cls-2" d="M369.15,350.09,364,342.61h-5.71v7.48h-6.21V323.25h11.62a14.92,14.92,0,0,1,6.19,1.19,9.2,9.2,0,0,1,4.05,3.37,9.35,9.35,0,0,1,1.42,5.18,8.73,8.73,0,0,1-5.53,8.47l6,8.63Zm-1.57-20.57a6.5,6.5,0,0,0-4.26-1.21h-5.06v9.36h5.06a6.44,6.44,0,0,0,4.26-1.23,4.83,4.83,0,0,0,0-6.92Z"/><path class="cls-2" d="M431.43,328.31h-8.59v-5.06h23.39v5.06h-8.59v21.78h-6.21Z"/><path class="cls-2" d="M500.66,348.75a13.7,13.7,0,0,1,0-24.16,16.65,16.65,0,0,1,15.06,0,13.57,13.57,0,0,1,5.25,5,14.12,14.12,0,0,1,0,14.22,13.57,13.57,0,0,1-5.25,5,16.65,16.65,0,0,1-15.06,0Zm11.83-4.58a7.81,7.81,0,0,0,3-3.05,9.55,9.55,0,0,0,0-8.9,7.81,7.81,0,0,0-3-3.05,9,9,0,0,0-8.59,0,8,8,0,0,0-3,3.05,9.63,9.63,0,0,0,0,8.9,8,8,0,0,0,3,3.05,9,9,0,0,0,8.59,0Z"/><path class="cls-2" d="M635.88,348.77a13.3,13.3,0,0,1-5.22-4.95,14.4,14.4,0,0,1,0-14.3,13.3,13.3,0,0,1,5.22-4.95,15.45,15.45,0,0,1,7.45-1.78,15.61,15.61,0,0,1,6.31,1.23,12.59,12.59,0,0,1,4.74,3.52l-4,3.68a8.58,8.58,0,0,0-6.75-3.14,9,9,0,0,0-4.45,1.09,7.84,7.84,0,0,0-3.05,3.05,9.63,9.63,0,0,0,0,8.9,7.84,7.84,0,0,0,3.05,3.05,9,9,0,0,0,4.45,1.09,8.52,8.52,0,0,0,6.75-3.18l4,3.68a12.3,12.3,0,0,1-4.76,3.56,15.73,15.73,0,0,1-6.32,1.23A15.39,15.39,0,0,1,635.88,348.77Z"/><path class="cls-2" d="M721.72,344.34H709.25l-2.37,5.75h-6.37l12-26.84h6.13l12,26.84h-6.52Zm-2-4.72-4.26-10.27-4.25,10.27Z"/><path class="cls-2" d="M804.05,323.25v26.84H799l-13.38-16.3v16.3h-6.14V323.25h5.14l13.34,16.3v-16.3Z"/><path class="cls-2" d="M861.86,348.77a13.37,13.37,0,0,1-5.22-4.95,14.4,14.4,0,0,1,0-14.3,13.37,13.37,0,0,1,5.22-4.95,16.62,16.62,0,0,1,13.76-.55,12.59,12.59,0,0,1,4.74,3.52l-4,3.68a8.58,8.58,0,0,0-6.75-3.14,9,9,0,0,0-4.45,1.09,7.75,7.75,0,0,0-3,3.05,9.55,9.55,0,0,0,0,8.9,7.75,7.75,0,0,0,3,3.05,9,9,0,0,0,4.45,1.09,8.52,8.52,0,0,0,6.75-3.18l4,3.68a12.3,12.3,0,0,1-4.76,3.56,15.73,15.73,0,0,1-6.32,1.23A15.39,15.39,0,0,1,861.86,348.77Z"/><path class="cls-2" d="M933.3,347.37q-3.21-3.18-3.2-9.09v-15h6.21v14.8q0,7.21,6,7.21a5.62,5.62,0,0,0,4.45-1.74q1.53-1.75,1.53-5.47v-14.8h6.14v15q0,5.91-3.2,9.09t-9,3.18Q936.5,350.55,933.3,347.37ZM944,315.54h6.44l-6.94,5.52H938.8Z"/><path class="cls-2" d="M1031.18,323.25v26.84h-5.1l-13.38-16.3v16.3h-6.14V323.25h5.14l13.34,16.3v-16.3Z"/><path class="cls-2" d="M1066.7,372l-3-4.15h-3.29V372h-3.57v-14.9h6.68a8.84,8.84,0,0,1,3.56.66,5.24,5.24,0,0,1,2.32,1.87,5,5,0,0,1,.82,2.88,4.94,4.94,0,0,1-.83,2.86,5.21,5.21,0,0,1-2.35,1.84l3.46,4.79Zm-.9-11.42a3.85,3.85,0,0,0-2.45-.67h-2.91v5.19h2.91a3.79,3.79,0,0,0,2.45-.68,2.64,2.64,0,0,0,0-3.84Z"/><ellipse class="cls-3" cx="1062.74" cy="365.01" rx="14.96" ry="14.45"/><path class="cls-2" d="M1324.55,272.62l-2.7-4h-3v4h-3.24V258.34h6.07a7.54,7.54,0,0,1,3.23.64,4.83,4.83,0,0,1,2.11,1.79,5,5,0,0,1,.74,2.75,4.89,4.89,0,0,1-.75,2.74,4.79,4.79,0,0,1-2.13,1.77l3.14,4.59Zm-.82-10.94a3.36,3.36,0,0,0-2.22-.65h-2.65v5h2.65a3.36,3.36,0,0,0,2.22-.65,2.32,2.32,0,0,0,.76-1.84A2.3,2.3,0,0,0,1323.73,261.68Z"/><ellipse class="cls-3" cx="1320.95" cy="265.96" rx="13.59" ry="13.85"/></g></g></svg>