<?xml version="1.0" encoding="utf-8"?>
<!-- Generator: Adobe Illustrator 27.2.0, SVG Export Plug-In . SVG Version: 6.00 Build 0)  -->
<svg version="1.1" id="Capa_1" xmlns="http://www.w3.org/2000/svg" xmlns:xlink="http://www.w3.org/1999/xlink" x="0px" y="0px"
	 viewBox="0 0 1081 265.24" style="enable-background:new 0 0 1081 265.24;" xml:space="preserve">
<style type="text/css">
	.st0{fill:#FFFFFF;}
</style>
<g>
	<g>
		<path class="st0" d="M21.11,91.55c17.06,19.41,31.28,34.97,42.67,46.69c0.03-2.42,0.05-3.98,0.05-4.69l0.05-21.13
			c0-4.98-0.29-8.55-0.86-10.7c-0.57-2.15-1.78-3.85-3.63-5.09c-1.85-1.25-4.01-1.97-6.46-2.19c-1.32-0.14-1.98-0.69-1.98-1.66
			c0-1.03,0.6-1.55,1.82-1.55c0.68,0,1.55,0.06,2.62,0.19c2.03,0.23,5,0.34,8.92,0.34c4.91,0,8.65-0.13,11.22-0.39
			c1.07-0.1,1.98-0.15,2.72-0.15c1.35,0,2.03,0.52,2.03,1.55c0,1-0.91,1.58-2.72,1.76c-2.24,0.21-4.34,1.16-6.28,2.83
			c-1.94,1.67-2.91,4.96-2.91,9.87l0.27,30.21l-0.37,22.74c0,1.96-0.61,2.94-1.82,2.94c-0.32,0-0.69-0.11-1.12-0.32
			c-0.43-0.21-2.88-2.68-7.34-7.4c-4.47-4.72-11.11-12.04-19.92-21.95c-8.81-9.92-15-17.03-18.56-21.34
			c-0.07,0.96-0.11,9.92-0.11,26.87c0,5.24,0.22,9.34,0.67,12.31c0.45,2.97,1.83,5.13,4.17,6.46c2.33,1.34,4.44,2,6.33,2
			c1.21,0,1.82,0.46,1.82,1.39c0,1.07-0.64,1.6-1.92,1.6c-0.82,0-1.85-0.07-3.1-0.21c-2.14-0.29-4.86-0.43-8.17-0.43
			c-5.31,0-9.15,0.16-11.54,0.48c-1.5,0.18-2.56,0.27-3.2,0.27c-1.39,0-2.08-0.59-2.08-1.76c0-0.85,1.12-1.37,3.37-1.55
			c4.02-0.32,6.54-1.71,7.56-4.17c1.02-2.46,1.52-5.8,1.52-10.04c0-18.38-0.1-29.61-0.29-33.71c-0.2-4.09-1.48-7.8-3.85-11.11
			c-2.37-3.31-5.23-5.29-8.57-5.93C0.69,94.35,0,93.8,0,92.94c0-1.18,0.73-1.76,2.19-1.76c0.36,0,0.87,0.04,1.55,0.11
			c0.82,0.07,2.3,0.11,4.44,0.11C12.81,91.39,17.12,91.45,21.11,91.55z"/>
		<path class="st0" d="M147.25,90.65c7.19,0,13.49,1.44,18.88,4.33c5.4,2.88,9.72,7.06,12.98,12.53s4.89,11.42,4.89,17.87
			c0,9.97-3.72,18.81-11.16,26.52c-7.44,7.71-16.67,11.57-27.67,11.57c-10.01,0-18.56-3.19-25.67-9.56
			c-7.1-6.37-10.66-14.99-10.66-25.85c0-10.26,3.68-19.05,11.03-26.39C127.22,94.31,136.35,90.65,147.25,90.65z M165.89,126.97
			c0-10.79-1.83-18.91-5.5-24.36c-3.67-5.45-8.32-8.17-13.94-8.17c-5.59,0-10.22,2.73-13.89,8.2c-3.67,5.47-5.5,13.58-5.5,24.33
			c0,10.33,1.75,18.34,5.26,24.04c3.51,5.7,8.22,8.55,14.13,8.55c5.23,0,9.78-2.57,13.65-7.72
			C163.96,146.69,165.89,138.4,165.89,126.97z"/>
		<path class="st0" d="M316.83,91.48c16.95,0.49,29.49,0.74,37.62,0.74c6.17,0,12.96-0.19,20.38-0.58c2.65-0.14,4.82-0.21,6.52-0.21
			c0.65,0,1.75,0.02,3.28,0.05c0.23,1.44,0.52,4.42,0.88,8.93l0.73,8.34c0,1.37-0.54,2.06-1.61,2.06c-0.81,0-1.59-0.84-2.34-2.54
			c-1.24-2.85-2.83-5.3-4.78-7.34c-1.94-2.04-4.2-3.4-6.76-4.07c-2.56-0.67-6.8-1-12.71-1c-0.52,5.39-0.78,12.13-0.78,20.23
			c0,8.27,0.15,16.26,0.44,23.95c0.29,7.69,0.65,12.33,1.08,13.92c0.42,1.58,1.14,2.75,2.15,3.49c1.01,0.74,3.39,1.25,7.15,1.53
			c1.27,0.11,1.91,0.6,1.91,1.48c0,0.99-0.56,1.48-1.67,1.48l-1.37-0.05l-10.15-0.26c-7.91,0-12.71,0.04-14.41,0.11l-6.18,0.26
			c-0.49,0-1.5-0.04-3.04-0.11c-0.75-0.18-1.13-0.62-1.13-1.32c0-1.02,0.62-1.53,1.86-1.53c2.9,0,5.09-0.65,6.56-1.95
			c1.47-1.3,2.37-3.37,2.72-6.2c0.34-2.83,0.51-8.99,0.51-18.46c0-14.96-0.42-27.15-1.27-36.55c-5.38,0-9.28,0.24-11.67,0.71
			c-2.4,0.48-4.71,1.78-6.93,3.91c-2.22,2.13-4.03,4.88-5.43,8.26c-0.55,1.34-1.19,2.01-1.91,2.01c-1.11,0-1.66-0.53-1.66-1.58
			c0-0.32,0.2-2.63,0.61-6.94C315.84,97.91,316.3,94.33,316.83,91.48z"/>
		<path class="st0" d="M479.86,92.14c1.14,5.55,2.26,11.11,3.37,16.67c0,1.03-0.51,1.55-1.54,1.55c-0.57,0-1.21-0.5-1.91-1.49
			c-3.67-5.32-7.03-8.83-10.07-10.54c-3.05-1.7-7.44-2.55-13.17-2.55c-3.21,0-6.31,0.27-9.3,0.8c-0.64,6.29-0.96,13.19-0.96,20.69
			c0,1.28,0.04,3.43,0.11,6.45l4.06,0.05c2.53,0,4.71-0.35,6.54-1.04c1.83-0.69,3.39-2.17,4.67-4.43c1.28-2.26,2.01-3.71,2.19-4.35
			c0.32-1.14,0.87-1.71,1.66-1.71c1,0,1.5,0.43,1.5,1.28c0,0.25-0.04,0.53-0.11,0.85c-0.43,2.21-0.64,8.81-0.64,19.82
			c0,1.53,0.14,2.92,0.42,4.17c0.08,0.36,0.12,0.66,0.12,0.91c0,1-0.57,1.5-1.71,1.5c-0.78,0-1.39-0.94-1.82-2.83
			c-0.71-3.31-2.34-5.83-4.88-7.56c-2.54-1.73-6.54-2.63-12-2.7c-0.18,5.98-0.27,9.92-0.27,11.81c0,8.12,0.12,12.95,0.37,14.48
			c0.25,1.53,1.16,2.77,2.72,3.71c1.57,0.94,4.22,1.42,7.96,1.42c13.57,0,22.5-4.31,26.77-12.93c0.6-1.21,1.26-1.82,1.97-1.82
			c1.03,0,1.54,0.43,1.54,1.28c0,0.57-0.11,1.3-0.32,2.19l-3.47,15.33l-19.34-0.05c-5.45-0.04-10.53-0.16-15.25-0.37
			c-4.72-0.21-8.41-0.32-11.08-0.32c-2.99,0-7.5,0.18-13.51,0.53c-0.75,0.07-1.3,0.11-1.66,0.11c-1.67,0-2.51-0.55-2.51-1.66
			c0-1,0.68-1.5,2.03-1.5c3.45,0,5.78-0.93,6.97-2.8c1.19-1.87,1.79-5.68,1.79-11.45l0.32-27.49c0-9.39-0.12-15.17-0.35-17.32
			c-0.23-2.15-0.85-3.61-1.84-4.38c-1-0.76-2.87-1.34-5.61-1.73c-1.14-0.14-1.71-0.64-1.71-1.5c0-1.07,0.66-1.6,1.98-1.6l12.87,0.39
			L479.86,92.14z"/>
		<path class="st0" d="M537.41,91.87c0.81,2.21,2.3,5.71,4.47,10.5c2.17,4.79,4.33,9.65,6.45,14.58c2.13,4.93,4.53,10.12,7.2,15.57
			c2.14,4.31,3.35,6.84,3.63,7.59c7.77-19.98,13.65-36.06,17.65-48.24c7.45,0,14.32-0.21,20.62-0.64c0.59-0.04,1.02-0.05,1.3-0.05
			c1.27,0,1.91,0.57,1.91,1.71c0,1-0.5,1.5-1.49,1.5c-3.54,0-5.85,1.38-6.96,4.14c-1.1,2.76-1.65,9.48-1.65,20.17l-0.05,26.17
			c0,5.34,0.61,9.08,1.84,11.22c1.23,2.14,3.22,3.26,5.98,3.37c1.33,0.04,2,0.55,2,1.55c0,0.53-0.28,0.98-0.84,1.34l-13.05-0.11
			c-4,0-9.46,0.18-16.4,0.53c-0.59-0.46-0.88-0.96-0.88-1.5c0-0.82,0.8-1.37,2.41-1.66c1.63-0.32,2.81-0.78,3.54-1.39
			c0.72-0.61,1.27-1.73,1.64-3.37c0.37-1.64,0.56-4.05,0.56-7.22l0.18-23.9c0-12.23,0.02-19.27,0.05-21.12
			c-8.42,22.51-13.64,36.88-15.65,43.11l-4.69,14.48c-0.53,1.53-1.06,2.3-1.58,2.3c-0.56,0-1.23-0.94-2-2.83
			c-2.27-5.48-10.36-23.59-24.27-54.33c-0.16,8.84-0.23,20.76-0.23,35.77c0,7.91,0.39,12.91,1.16,15c0.77,2.08,2.95,3.31,6.51,3.66
			c1.18,0.14,1.77,0.64,1.77,1.5c0,0.93-0.48,1.39-1.44,1.39c-0.34,0-0.71-0.02-1.12-0.06c-3.72-0.32-6.39-0.48-8-0.48
			c-4.4,0-7.74,0.18-10,0.53c-0.43,0.07-0.76,0.11-0.98,0.11c-1.09,0-1.63-0.52-1.63-1.55c0-0.5,0.13-0.85,0.4-1.04
			c0.26-0.2,0.97-0.44,2.12-0.72c2.98-0.64,4.92-1.87,5.84-3.69c0.91-1.82,1.37-4.79,1.37-8.93l0.23-30.53
			c0-6.95-0.16-11.55-0.47-13.79c-0.31-2.25-1.07-3.97-2.28-5.19c-1.21-1.21-3.18-2.12-5.91-2.73c-1.02-0.25-1.54-0.84-1.54-1.76
			c0-1,0.56-1.5,1.67-1.5c0.25,0,0.59,0.02,1.02,0.06C520.99,91.72,527.52,91.87,537.41,91.87z"/>
		<path class="st0" d="M691.21,92.14c1.14,5.55,2.26,11.11,3.37,16.67c0,1.03-0.51,1.55-1.54,1.55c-0.57,0-1.21-0.5-1.91-1.49
			c-3.67-5.32-7.03-8.83-10.07-10.54c-3.05-1.7-7.44-2.55-13.17-2.55c-3.21,0-6.31,0.27-9.3,0.8c-0.64,6.29-0.96,13.19-0.96,20.69
			c0,1.28,0.04,3.43,0.11,6.45l4.06,0.05c2.53,0,4.71-0.35,6.54-1.04c1.83-0.69,3.39-2.17,4.67-4.43c1.28-2.26,2.01-3.71,2.19-4.35
			c0.32-1.14,0.87-1.71,1.66-1.71c1,0,1.5,0.43,1.5,1.28c0,0.25-0.04,0.53-0.11,0.85c-0.43,2.21-0.64,8.81-0.64,19.82
			c0,1.53,0.14,2.92,0.42,4.17c0.08,0.36,0.12,0.66,0.12,0.91c0,1-0.57,1.5-1.71,1.5c-0.78,0-1.39-0.94-1.82-2.83
			c-0.71-3.31-2.34-5.83-4.88-7.56c-2.54-1.73-6.54-2.63-12-2.7c-0.18,5.98-0.27,9.92-0.27,11.81c0,8.12,0.12,12.95,0.37,14.48
			c0.25,1.53,1.16,2.77,2.72,3.71c1.57,0.94,4.22,1.42,7.96,1.42c13.57,0,22.5-4.31,26.77-12.93c0.6-1.21,1.26-1.82,1.97-1.82
			c1.03,0,1.54,0.43,1.54,1.28c0,0.57-0.11,1.3-0.32,2.19L695,163.13l-19.34-0.05c-5.45-0.04-10.53-0.16-15.25-0.37
			c-4.72-0.21-8.41-0.32-11.08-0.32c-2.99,0-7.5,0.18-13.51,0.53c-0.75,0.07-1.3,0.11-1.66,0.11c-1.67,0-2.51-0.55-2.51-1.66
			c0-1,0.68-1.5,2.03-1.5c3.45,0,5.78-0.93,6.97-2.8c1.19-1.87,1.79-5.68,1.79-11.45l0.32-27.49c0-9.39-0.12-15.17-0.35-17.32
			c-0.23-2.15-0.85-3.61-1.84-4.38c-1-0.76-2.87-1.34-5.61-1.73c-1.14-0.14-1.71-0.64-1.71-1.5c0-1.07,0.66-1.6,1.98-1.6l12.87,0.39
			L691.21,92.14z M676.93,67.46c1.21,0,2.29,0.45,3.21,1.36c0.93,0.91,1.39,1.93,1.39,3.07c0,2.17-1.87,4.63-5.62,7.37
			c-2.93,2.14-5.7,4.27-8.3,6.41c-2.61,2.14-4.34,3.2-5.19,3.2c-0.43,0-0.88-0.21-1.37-0.64c-0.48-0.43-0.72-0.84-0.72-1.23
			c0-0.39,1.6-2.96,4.79-7.72c3.19-4.75,5.57-7.91,7.12-9.48C673.8,68.25,675.36,67.46,676.93,67.46z"/>
		<path class="st0" d="M772.17,126.27c4.8,0.68,8.75,2.13,11.85,4.37c3.11,2.23,5.44,6.67,7.01,13.32
			c1.49,6.22,3.07,10.32,4.75,12.3c1.67,1.98,4.02,3.06,7.05,3.24c1.67,0.11,2.51,0.64,2.51,1.6c0,1.03-1.35,1.55-4.06,1.55
			l-20.57-0.53c-2.14-2.14-3.6-5.96-4.38-11.45c-1-7.03-2.03-11.98-3.1-14.87c-1.07-2.89-2.67-4.96-4.81-6.21
			c-2.14-1.25-4.61-1.87-7.43-1.87c-0.82,0-1.94,0.05-3.37,0.16c0,12.54,0.04,20.25,0.13,23.16c0.09,2.9,0.67,4.99,1.74,6.25
			c1.07,1.26,3.1,1.97,6.09,2.11c1.6,0.11,2.4,0.64,2.4,1.6s-0.69,1.44-2.08,1.44l-16.4-0.43c-2.21,0-5.04,0.09-8.49,0.27
			c-3.17,0.18-5.18,0.27-6.04,0.27c-1.46,0-2.19-0.52-2.19-1.55c0-1,0.64-1.5,1.92-1.5c1.99,0,3.84-0.5,5.53-1.5
			c1.69-1,2.54-5.22,2.54-12.66l-0.05-9.94l0.05-19.18c0-9.9-0.44-15.95-1.31-18.14c-0.87-2.19-3.21-3.32-7.02-3.39
			c-1.5-0.03-2.24-0.55-2.24-1.55c0-1.03,1-1.55,2.99-1.55c10.04,0,18.55-0.21,25.53-0.64c3.1-0.21,5.89-0.32,8.39-0.32
			c8.08,0,14.42,1.61,19.02,4.83c4.59,3.22,6.89,7.43,6.89,12.63c0,3.49-1.09,6.62-3.26,9.4c-2.17,2.78-4.89,4.84-8.15,6.2
			C780.37,125.06,776.55,125.92,772.17,126.27z M757.64,124.03c0.93,0.04,1.62,0.05,2.08,0.05c3.1,0,6.22-0.58,9.37-1.74
			c3.15-1.16,5.38-3.01,6.68-5.56c1.3-2.55,1.95-5.26,1.95-8.15c0-4.45-1.32-7.92-3.95-10.42c-2.64-2.49-6.04-3.74-10.2-3.74
			c-1.75,0-3.72,0.32-5.93,0.96V124.03z"/>
		<path class="st0" d="M259.2,126.27c4.8,0.68,8.75,2.13,11.86,4.37c3.11,2.23,5.44,6.67,7.01,13.32c1.49,6.22,3.07,10.32,4.75,12.3
			c1.67,1.98,4.02,3.06,7.05,3.24c1.67,0.11,2.51,0.64,2.51,1.6c0,1.03-1.35,1.55-4.06,1.55l-20.57-0.53
			c-2.14-2.14-3.6-5.96-4.38-11.45c-1-7.03-2.03-11.98-3.1-14.87c-1.07-2.89-2.67-4.96-4.81-6.21c-2.14-1.25-4.61-1.87-7.43-1.87
			c-0.82,0-1.94,0.05-3.37,0.16c0,12.54,0.04,20.25,0.13,23.16c0.09,2.9,0.67,4.99,1.74,6.25c1.07,1.26,3.1,1.97,6.09,2.11
			c1.6,0.11,2.4,0.64,2.4,1.6s-0.69,1.44-2.08,1.44l-16.4-0.43c-2.21,0-5.04,0.09-8.49,0.27c-3.17,0.18-5.18,0.27-6.04,0.27
			c-1.46,0-2.19-0.52-2.19-1.55c0-1,0.64-1.5,1.92-1.5c1.99,0,3.84-0.5,5.53-1.5c1.69-1,2.54-5.22,2.54-12.66l-0.05-9.94l0.05-19.18
			c0-9.9-0.44-15.95-1.31-18.14c-0.87-2.19-3.21-3.32-7.02-3.39c-1.5-0.03-2.24-0.55-2.24-1.55c0-1.03,1-1.55,2.99-1.55
			c10.04,0,18.55-0.21,25.53-0.64c3.1-0.21,5.89-0.32,8.39-0.32c8.08,0,14.42,1.61,19.02,4.83c4.59,3.22,6.89,7.43,6.89,12.63
			c0,3.49-1.09,6.62-3.26,9.4c-2.17,2.78-4.89,4.84-8.15,6.2C267.4,125.06,263.58,125.92,259.2,126.27z M244.67,124.03
			c0.93,0.04,1.62,0.05,2.08,0.05c3.1,0,6.22-0.58,9.37-1.74c3.15-1.16,5.38-3.01,6.68-5.56c1.3-2.55,1.95-5.26,1.95-8.15
			c0-4.45-1.32-7.92-3.95-10.42c-2.64-2.49-6.04-3.74-10.2-3.74c-1.75,0-3.72,0.32-5.93,0.96V124.03z"/>
		<path class="st0" d="M836.03,91.45c1.25,0,3.81,0.1,7.69,0.3c2.96,0.16,5.31,0.24,7.05,0.24l16.4-0.43c1.39,0,2.08,0.48,2.08,1.44
			c0,0.85-0.62,1.35-1.87,1.5c-2.81,0.29-4.69,0.81-5.64,1.58c-0.94,0.76-1.67,2.53-2.19,5.31c-0.52,2.78-0.77,9.06-0.77,18.84
			c0,11.24,0.18,19.93,0.53,26.07c0.36,6.14,1.08,9.93,2.16,11.37c1.09,1.44,2.89,2.16,5.42,2.16c1.74,0,2.62,0.46,2.62,1.39
			c0,1.25-0.94,1.87-2.83,1.87c-0.53,0-1.32-0.02-2.35-0.05c-6.7-0.46-11.27-0.69-13.73-0.69c-5.38,0-9.35,0.16-11.91,0.48
			c-1.35,0.14-2.32,0.21-2.88,0.21c-1.32,0-1.98-0.52-1.98-1.55c0-0.82,0.55-1.3,1.66-1.44c3.03-0.39,5.07-1.24,6.12-2.54
			c1.05-1.3,1.68-4.42,1.9-9.37c0.21-4.95,0.32-12.64,0.32-23.08c0-11-0.2-18.37-0.59-22.09c-0.39-3.72-1.04-6.01-1.95-6.86
			c-0.91-0.86-2.64-1.39-5.21-1.6c-1.35-0.11-2.03-0.66-2.03-1.66C834.05,91.91,834.71,91.45,836.03,91.45z"/>
		<path class="st0" d="M945.5,163.29c-1.5,0-7.67-0.11-18.49-0.32l-11.27,0.05l-6.61-0.11c-1.57,0-2.55-0.1-2.95-0.29
			c-0.39-0.2-0.59-0.63-0.59-1.31c0-1.03,0.73-1.55,2.2-1.55c2.8,0,4.85-0.5,6.15-1.5c1.3-1,2.12-2.83,2.46-5.51
			c0.34-2.67,0.66-8,0.95-15.98c0.29-7.98,0.44-15.33,0.44-22.03c0-9.44-0.44-15.24-1.31-17.4c-0.87-2.16-3.03-3.32-6.48-3.5
			c-1.23-0.11-1.84-0.64-1.84-1.6c0-0.96,0.55-1.44,1.64-1.44c0.65,0,2.85,0.2,6.61,0.59c4.17,0.39,7.07,0.59,8.71,0.59l19.41-0.43
			c6.49,0,12.74,1.29,18.75,3.88c6.01,2.58,10.78,6.81,14.32,12.67c3.53,5.86,5.3,12.5,5.3,19.91c0,5.49-1.03,10.61-3.1,15.37
			c-2.07,4.76-5.06,8.76-8.99,12c-3.93,3.24-7.82,5.37-11.68,6.39C955.26,162.78,950.72,163.29,945.5,163.29z M942.01,159.39
			c7.17,0,12.84-2.62,17.01-7.86c4.17-5.24,6.25-12.72,6.25-22.45c0-9.87-2.25-18.01-6.74-24.41c-4.49-6.4-10.87-9.6-19.13-9.6
			c-2.84,0-4.53,0.17-5.1,0.51c-0.56,0.34-0.91,0.69-1.05,1.04c-0.14,0.36-0.34,4.35-0.61,11.97l-0.61,18.12
			c-0.1,4.46-0.15,9.98-0.15,16.57c0,4.95,0.21,8.37,0.61,10.24c0.41,1.87,1.31,3.32,2.72,4.33
			C936.6,158.89,938.87,159.39,942.01,159.39z"/>
		<path class="st0" d="M1040.57,89.68h3.65c4.7,10.18,11.33,26.21,19.91,48.08c3.95,10.04,6.67,16.13,8.17,18.27
			c1.5,2.13,3.87,3.44,7.11,3.9c1.07,0.14,1.6,0.61,1.6,1.39c0,1.1-0.69,1.66-2.08,1.66c-0.75,0-2.69-0.13-5.82-0.37
			c-3.7-0.32-6.82-0.48-9.35-0.48c-2.46,0-5.66,0.14-9.61,0.43c-2.96,0.21-4.9,0.32-5.82,0.32c-1.64,0-2.46-0.52-2.46-1.55
			c0-0.78,0.57-1.23,1.71-1.34c4.38-0.39,6.57-2.12,6.57-5.17c0-1.43-0.64-4.06-1.92-7.88c-1.28-3.82-2.65-7.29-4.1-10.41
			c-2.32-0.03-4.12-0.05-5.41-0.05c-7.18,0-12.76,0.02-16.76,0.05c-3.07,8.4-4.61,13.97-4.61,16.7c0,1.95,0.77,3.46,2.3,4.54
			c1.53,1.08,3.19,1.71,4.97,1.89c1.35,0.14,2.03,0.69,2.03,1.66c0,0.96-0.73,1.44-2.19,1.44c-0.57,0-2.07-0.09-4.49-0.27
			c-3.13-0.25-5.41-0.37-6.84-0.37c-2.81,0-5.48,0.18-8.01,0.53c-0.64,0.11-1.18,0.16-1.6,0.16c-1.32,0-1.98-0.53-1.98-1.6
			c0-0.78,0.43-1.3,1.28-1.55c2.14-0.6,3.81-1.35,5.02-2.23c1.21-0.89,2.52-2.59,3.93-5.1c1.41-2.52,3.09-6.55,5.06-12.11
			C1025.23,127.75,1031.82,110.91,1040.57,89.68z M1036.8,108.33l-9.28,23.88l18.89-0.27c-1-2.79-2.53-6.62-4.59-11.49
			C1039.58,115.18,1037.9,111.14,1036.8,108.33z"/>
	</g>
	<g>
		<path class="st0" d="M226.31,260.5h-15v-26.95h4.57v23.1h10.43V260.5z"/>
		<path class="st0" d="M232.78,260.5l10.07-26.95h5.19l10,26.95H253l-2.26-6.45h-10.77l-2.2,6.45H232.78z M241.16,250.31h8.34
			l-3.68-10.64c-0.09-0.28-0.17-0.55-0.24-0.84c-0.07-0.28-0.13-0.63-0.2-1.04h-0.11c-0.06,0.36-0.13,0.69-0.2,0.99
			c-0.07,0.29-0.15,0.58-0.23,0.86L241.16,250.31z"/>
		<path class="st0" d="M308.57,259.11c-1.37,0.65-2.69,1.12-3.98,1.41c-1.29,0.29-2.69,0.43-4.21,0.43c-4.13,0-7.37-1.2-9.71-3.61
			c-2.34-2.41-3.51-5.71-3.51-9.9c0-4.25,1.29-7.7,3.88-10.36c2.59-2.66,5.97-3.98,10.14-3.98c1.37,0,2.62,0.11,3.76,0.34
			c1.14,0.23,2.3,0.59,3.48,1.09l-1.5,3.74c-0.94-0.4-1.86-0.69-2.75-0.87c-0.9-0.18-1.86-0.27-2.9-0.27c-2.69,0-4.91,0.9-6.65,2.7
			c-1.74,1.8-2.61,4.24-2.61,7.32c0,3.03,0.8,5.42,2.4,7.17s3.76,2.62,6.47,2.62c0.9,0,1.85-0.12,2.86-0.36
			c1-0.24,2.03-0.63,3.08-1.16L308.57,259.11z"/>
		<path class="st0" d="M322.59,260.5h-4.59v-26.95h4.59V260.5z"/>
		<path class="st0" d="M360.32,249.21c0,3.92-0.9,6.86-2.69,8.82c-1.79,1.95-4.49,2.93-8.08,2.93c-3.46,0-6.05-0.95-7.78-2.84
			s-2.59-4.74-2.59-8.55v-16.01h4.57v15.97c0,2.47,0.51,4.32,1.52,5.56c1.02,1.24,2.54,1.86,4.57,1.86c1.98,0,3.46-0.6,4.44-1.79
			c0.98-1.2,1.48-3,1.48-5.4v-16.2h4.57V249.21z"/>
		<path class="st0" d="M373.3,260.5v-26.95h8.48c4.77,0,8.35,1.09,10.73,3.28c2.38,2.19,3.57,5.47,3.57,9.86
			c0,4.17-1.32,7.52-3.95,10.03c-2.63,2.52-6.13,3.78-10.51,3.78H373.3z M377.87,237.42v19.22h3.53c3.09,0,5.51-0.87,7.25-2.61
			c1.74-1.74,2.61-4.17,2.61-7.27c0-3.02-0.83-5.33-2.49-6.93c-1.66-1.6-4.09-2.41-7.3-2.41H377.87z"/>
		<path class="st0" d="M401.72,260.5l10.07-26.95h5.19l10,26.95h-5.04l-2.26-6.45h-10.77l-2.2,6.45H401.72z M410.1,250.31h8.34
			l-3.68-10.64c-0.09-0.28-0.17-0.55-0.24-0.84c-0.07-0.28-0.13-0.63-0.2-1.04h-0.11c-0.06,0.36-0.13,0.69-0.2,0.99
			c-0.07,0.29-0.15,0.58-0.23,0.86L410.1,250.31z"/>
		<path class="st0" d="M436.56,260.5v-26.95h8.48c4.77,0,8.35,1.09,10.73,3.28c2.38,2.19,3.57,5.47,3.57,9.86
			c0,4.17-1.32,7.52-3.95,10.03c-2.63,2.52-6.13,3.78-10.51,3.78H436.56z M441.13,237.42v19.22h3.53c3.09,0,5.51-0.87,7.25-2.61
			c1.74-1.74,2.61-4.17,2.61-7.27c0-3.02-0.83-5.33-2.49-6.93c-1.66-1.6-4.09-2.41-7.3-2.41H441.13z"/>
		<path class="st0" d="M499.54,260.95c-3.83,0-6.94-1.26-9.31-3.77c-2.37-2.51-3.56-5.79-3.56-9.82c0-4.31,1.2-7.76,3.61-10.36
			c2.41-2.6,5.64-3.9,9.7-3.9c3.77,0,6.81,1.25,9.11,3.76c2.3,2.51,3.45,5.81,3.45,9.9c0,2.49-0.39,4.72-1.16,6.69
			c-0.78,1.97-1.92,3.53-3.42,4.7l4.77,3.8l-3.23,3.29l-5.45-4.87c-0.64,0.17-1.36,0.32-2.16,0.42
			C501.07,260.9,500.29,260.95,499.54,260.95z M499.78,237.12c-2.49,0-4.5,0.91-6.02,2.73s-2.28,4.23-2.28,7.21
			c0,2.98,0.75,5.38,2.24,7.18s3.45,2.71,5.88,2.71c2.54,0,4.54-0.86,5.98-2.59c1.44-1.73,2.16-4.14,2.16-7.22
			c0-3.18-0.7-5.65-2.1-7.4C504.24,238,502.29,237.12,499.78,237.12z"/>
		<path class="st0" d="M547.23,249.21c0,3.92-0.9,6.86-2.69,8.82c-1.79,1.95-4.49,2.93-8.08,2.93c-3.46,0-6.05-0.95-7.78-2.84
			c-1.73-1.89-2.59-4.74-2.59-8.55v-16.01h4.57v15.97c0,2.47,0.51,4.32,1.52,5.56c1.02,1.24,2.54,1.86,4.57,1.86
			c1.98,0,3.46-0.6,4.44-1.79c0.98-1.2,1.48-3,1.48-5.4v-16.2h4.57V249.21z"/>
		<path class="st0" d="M576.34,260.5h-15.18v-26.95h14.58v3.87h-10.02v7.52h9.3v3.85h-9.3v7.86h10.62V260.5z"/>
		<path class="st0" d="M617.7,260.95c-3.83,0-6.94-1.26-9.31-3.77c-2.37-2.51-3.56-5.79-3.56-9.82c0-4.31,1.2-7.76,3.61-10.36
			c2.41-2.6,5.64-3.9,9.7-3.9c3.77,0,6.81,1.25,9.11,3.76c2.3,2.51,3.45,5.81,3.45,9.9c0,2.49-0.39,4.72-1.16,6.69
			c-0.78,1.97-1.92,3.53-3.42,4.7l4.77,3.8l-3.23,3.29l-5.45-4.87c-0.64,0.17-1.36,0.32-2.16,0.42
			C619.23,260.9,618.45,260.95,617.7,260.95z M617.94,237.12c-2.49,0-4.5,0.91-6.02,2.73s-2.28,4.23-2.28,7.21
			c0,2.98,0.75,5.38,2.24,7.18c1.49,1.8,3.45,2.71,5.88,2.71c2.54,0,4.54-0.86,5.98-2.59c1.44-1.73,2.16-4.14,2.16-7.22
			c0-3.18-0.7-5.65-2.1-7.4C622.4,238,620.45,237.12,617.94,237.12z"/>
		<path class="st0" d="M666.36,249.21c0,3.92-0.9,6.86-2.69,8.82c-1.79,1.95-4.49,2.93-8.08,2.93c-3.46,0-6.05-0.95-7.78-2.84
			c-1.73-1.89-2.59-4.74-2.59-8.55v-16.01h4.57v15.97c0,2.47,0.51,4.32,1.52,5.56c1.02,1.24,2.54,1.86,4.57,1.86
			c1.98,0,3.46-0.6,4.44-1.79c0.98-1.2,1.48-3,1.48-5.4v-16.2h4.57V249.21z"/>
		<path class="st0" d="M695.95,260.5h-15.18v-26.95h14.58v3.87h-10.02v7.52h9.3v3.85h-9.3v7.86h10.62V260.5z"/>
		<path class="st0" d="M731.44,260.5h-5.26l-4.12-7.16c-0.73-1.25-1.39-2.12-1.99-2.6c-0.6-0.48-1.31-0.74-2.12-0.76h-2.39v10.52
			h-4.57v-26.95h8.8c2.81,0,5.01,0.63,6.61,1.88c1.6,1.25,2.4,3.12,2.4,5.6c0,1.85-0.51,3.43-1.53,4.72
			c-1.02,1.29-2.42,2.24-4.2,2.84v0.07c0.68,0.29,1.29,0.73,1.85,1.33c0.56,0.6,1.08,1.31,1.57,2.13L731.44,260.5z M715.56,237.25v9
			h3.48c1.44,0,2.62-0.45,3.54-1.35s1.38-2.05,1.38-3.44c0-1.33-0.41-2.36-1.22-3.1c-0.81-0.74-2.02-1.11-3.61-1.11H715.56z"/>
		<path class="st0" d="M760.89,260.5H745.7v-26.95h14.58v3.87h-10.02v7.52h9.3v3.85h-9.3v7.86h10.62V260.5z"/>
		<path class="st0" d="M802.39,260.5h-4.53v-17.12c0-0.78,0.02-1.63,0.07-2.57c0.04-0.93,0.1-1.92,0.18-2.96h-0.13
			c-0.15,0.73-0.29,1.35-0.42,1.86c-0.13,0.51-0.26,0.93-0.39,1.24l-7.82,19.54h-3.19l-7.86-19.39c-0.1-0.28-0.22-0.68-0.37-1.22
			c-0.14-0.54-0.29-1.22-0.44-2.03h-0.13c0.08,0.94,0.13,1.92,0.16,2.93c0.03,1.01,0.05,2.07,0.05,3.18v16.54h-4.23v-26.95h6.46
			l6.92,17.42c0.28,0.65,0.5,1.26,0.69,1.82c0.18,0.56,0.32,1.09,0.42,1.58h0.11c0.23-0.73,0.44-1.38,0.64-1.95
			c0.2-0.58,0.38-1.08,0.54-1.5l6.99-17.36h6.28V260.5z"/>
		<path class="st0" d="M824.53,260.95c-3.85,0-6.95-1.26-9.31-3.77c-2.36-2.51-3.54-5.79-3.54-9.82c0-4.3,1.2-7.75,3.61-10.35
			c2.41-2.61,5.63-3.91,9.68-3.91c3.78,0,6.84,1.26,9.16,3.77c2.32,2.51,3.49,5.81,3.49,9.89c0,4.32-1.2,7.77-3.59,10.34
			C831.63,259.67,828.46,260.95,824.53,260.95z M824.59,256.95c2.54,0,4.55-0.86,6.01-2.58c1.47-1.72,2.2-4.13,2.2-7.22
			c0-3.18-0.71-5.65-2.14-7.4c-1.43-1.75-3.39-2.62-5.88-2.62c-2.49,0-4.5,0.91-6.01,2.73c-1.52,1.82-2.27,4.23-2.27,7.21
			c0,3.01,0.75,5.41,2.24,7.2C820.21,256.05,822.17,256.95,824.59,256.95z"/>
		<path class="st0" d="M851.19,258.53l2.03-3.53c1.23,0.78,2.37,1.32,3.43,1.64c1.06,0.32,2.23,0.48,3.5,0.48
			c1.54,0,2.75-0.33,3.64-1c0.88-0.66,1.32-1.62,1.32-2.86c0-1.13-0.37-2.01-1.1-2.66c-0.73-0.65-1.98-1.24-3.75-1.78
			c-2.77-0.8-4.8-1.81-6.09-3.02c-1.29-1.21-1.94-2.85-1.94-4.91c0-2.23,0.84-4.09,2.51-5.57c1.67-1.49,3.95-2.23,6.83-2.23
			c1.27,0,2.51,0.14,3.74,0.43c1.23,0.29,2.43,0.73,3.61,1.34l-1.78,3.61c-1-0.54-1.98-0.93-2.92-1.18s-1.9-0.37-2.87-0.37
			c-1.42,0-2.53,0.31-3.34,0.93c-0.81,0.62-1.21,1.49-1.21,2.62c0,1,0.37,1.79,1.11,2.36c0.74,0.57,2.02,1.14,3.83,1.7
			c2.82,0.81,4.85,1.85,6.08,3.12c1.23,1.27,1.85,2.99,1.85,5.19c0,2.37-0.84,4.31-2.53,5.82c-1.69,1.52-4.09,2.27-7.21,2.27
			c-1.57,0-3.09-0.2-4.58-0.61C853.89,259.93,852.49,259.33,851.19,258.53z"/>
	</g>
	<g>
		<g>
			<g>
				<path class="st0" d="M384.3,7.76c1.08,0.47,1.84,0.95,2.26,1.46c0.42,0.51,0.74,1.3,0.94,2.36c0.26,1.4,0.63,2.34,1.09,2.82
					c0.47,0.48,1.08,0.74,1.83,0.77c0.21,0.02,0.31,0.09,0.31,0.23s-0.12,0.2-0.36,0.2c-2.18,0-3.51-0.07-3.97-0.22
					c-0.46-0.14-0.81-0.94-1.04-2.38c-0.21-1.41-0.43-2.43-0.66-3.08c-0.23-0.65-0.6-1.15-1.1-1.49c-0.5-0.35-1.29-0.52-2.36-0.52
					c-0.41,0-0.87,0.04-1.38,0.13c-0.04,0.49-0.06,1-0.06,1.52c0,1.99,0.03,3.28,0.08,3.87c0.05,0.59,0.22,1.01,0.5,1.28
					c0.28,0.27,0.74,0.41,1.39,0.42c0.28,0.01,0.42,0.08,0.42,0.2c0,0.15-0.17,0.23-0.51,0.23h-5.79c-0.34,0-0.5-0.08-0.5-0.23
					c0-0.14,0.13-0.2,0.4-0.2c0.59,0,1-0.09,1.23-0.27c0.23-0.18,0.41-0.46,0.54-0.83c0.13-0.38,0.2-1.06,0.2-2.04l-0.02-2.37
					L377.75,6c0-1.85-0.04-3.07-0.12-3.67c-0.08-0.6-0.23-1-0.44-1.2s-0.7-0.37-1.46-0.48c-0.16-0.02-0.25-0.09-0.25-0.2
					c0-0.12,0.16-0.19,0.49-0.19l6.93-0.15c1.91,0,3.3,0.37,4.16,1.09c0.86,0.73,1.29,1.62,1.29,2.68c0,0.67-0.17,1.28-0.52,1.83
					c-0.35,0.55-0.76,0.95-1.23,1.2C386.12,7.16,385.35,7.44,384.3,7.76z M379.87,7.46c1.5-0.03,2.62-0.14,3.37-0.31
					c0.75-0.18,1.39-0.57,1.91-1.18c0.53-0.61,0.79-1.32,0.79-2.15c0-0.88-0.29-1.64-0.88-2.29c-0.58-0.65-1.52-0.98-2.81-0.98
					c-0.7,0-1.48,0.09-2.33,0.28c-0.09,2.13-0.14,3.83-0.14,5.1C379.78,6.36,379.81,6.87,379.87,7.46z"/>
				<path class="st0" d="M409.24,0.47c0.23,0.87,0.45,2.09,0.67,3.66c-0.04,0.06-0.08,0.09-0.13,0.09c-0.05,0-0.11-0.03-0.17-0.09
					c-0.54-0.86-1.05-1.52-1.55-1.97c-0.49-0.45-0.99-0.77-1.48-0.96c-0.5-0.19-1.35-0.29-2.56-0.29c-1.14,0-2.04,0.07-2.7,0.2
					c-0.06,0.08-0.09,0.22-0.09,0.43c0,0.05-0.01,0.15-0.02,0.29c-0.08,0.62-0.12,2.3-0.12,5.05c0,0.12,0.01,0.28,0.02,0.49
					c0.59,0.02,1,0.03,1.22,0.03c0.98,0,1.7-0.15,2.14-0.44c0.44-0.29,0.83-0.92,1.15-1.89c0.05-0.16,0.13-0.25,0.23-0.25
					c0.15,0,0.22,0.11,0.22,0.34l-0.05,0.47c-0.06,0.61-0.09,1.25-0.09,1.9c0,1.06,0.02,2.01,0.06,2.86c0,0.26-0.07,0.4-0.21,0.4
					c-0.11,0-0.18-0.09-0.21-0.28c-0.16-0.92-0.51-1.58-1.03-1.98c-0.52-0.4-1.66-0.61-3.42-0.61c-0.02,0.57-0.04,1.48-0.04,2.75
					c0,1.64,0.06,2.68,0.18,3.12c0.12,0.44,0.4,0.79,0.84,1.05c0.45,0.26,1.2,0.39,2.26,0.39c3.04,0,4.99-1.04,5.88-3.12
					c0.11-0.26,0.22-0.38,0.34-0.38c0.12,0,0.19,0.09,0.19,0.26c0,0.09-0.02,0.19-0.06,0.3c-0.05,0.15-0.16,0.7-0.34,1.65
					c-0.04,0.2-0.19,0.81-0.44,1.82l-4.9-0.01c-0.7,0-1.73-0.03-3.09-0.09c-1.36-0.06-2.57-0.09-3.61-0.09
					c-1.05,0-1.6-0.02-1.64-0.06c-0.05-0.04-0.07-0.08-0.07-0.13c0-0.16,0.13-0.23,0.39-0.23c0.87,0,1.43-0.23,1.71-0.69
					c0.27-0.46,0.41-1.57,0.41-3.34l-0.01-2.39l0.03-2.23c0-0.45-0.03-1.3-0.08-2.55c-0.05-1.25-0.1-1.97-0.14-2.15
					c-0.04-0.18-0.16-0.35-0.36-0.53s-0.64-0.35-1.32-0.53c-0.2-0.05-0.3-0.14-0.3-0.26c0-0.14,0.14-0.21,0.41-0.21l2.39,0.13
					c0.84,0.04,2.91,0.06,6.21,0.06C408.08,0.45,409.19,0.46,409.24,0.47z"/>
				<path class="st0" d="M424.51,1.15c0.21-0.21,0.35-0.43,0.42-0.65c0.06-0.19,0.15-0.28,0.27-0.28c0.06,0,0.13,0.04,0.21,0.12
					c0.05,0.28,0.13,0.84,0.23,1.69l0.28,2.19c0,0.14-0.09,0.21-0.26,0.21c-0.09,0-0.18-0.08-0.25-0.23
					c-0.41-1.02-1.03-1.86-1.84-2.54c-0.81-0.67-1.7-1-2.66-1c-0.94,0-1.65,0.28-2.13,0.85c-0.48,0.57-0.72,1.17-0.72,1.8
					c0,0.78,0.26,1.37,0.78,1.78c0.52,0.41,1.6,0.88,3.23,1.4c1.2,0.37,2.1,0.73,2.7,1.08c0.6,0.35,1.1,0.84,1.5,1.47
					c0.41,0.63,0.61,1.3,0.61,2.03c0,1.23-0.51,2.32-1.53,3.3c-1.02,0.97-2.27,1.46-3.76,1.46c-1.33,0-2.68-0.42-4.02-1.25
					c-0.27,0.22-0.44,0.47-0.51,0.77c-0.06,0.25-0.16,0.37-0.3,0.37c-0.12,0-0.21-0.16-0.27-0.48c-0.05-0.32-0.17-1.82-0.34-4.52
					c0.03-0.09,0.11-0.14,0.25-0.14c0.12,0,0.21,0.09,0.28,0.26c1.2,3.01,2.88,4.51,5.03,4.51c1.07,0,1.9-0.32,2.51-0.96
					c0.6-0.64,0.91-1.38,0.91-2.21c0-0.57-0.16-1.1-0.49-1.58c-0.32-0.48-0.75-0.87-1.29-1.16c-0.53-0.29-1.38-0.62-2.53-0.99
					c-1.48-0.47-2.49-0.92-3.02-1.35c-0.53-0.42-0.93-0.9-1.18-1.43c-0.25-0.53-0.37-1.05-0.37-1.54c0-1.03,0.47-1.95,1.41-2.75
					c0.94-0.8,2.09-1.2,3.46-1.2c0.51,0,1.05,0.08,1.62,0.24C423.31,0.57,423.9,0.82,424.51,1.15z"/>
				<path class="st0" d="M433.46,0.21l2.13,0.05l3.27-0.05c0.39,0,0.59,0.08,0.59,0.23c0,0.12-0.11,0.19-0.32,0.22
					c-0.87,0.11-1.41,0.42-1.62,0.93s-0.32,2.41-0.32,5.68c0,1.2,0.03,2.56,0.09,4.06c0.06,1.51,0.13,2.41,0.21,2.7
					c0.08,0.3,0.23,0.54,0.44,0.72c0.22,0.19,0.62,0.32,1.22,0.4c0.19,0.02,0.29,0.1,0.29,0.22c0,0.14-0.09,0.21-0.27,0.21
					l-2.91-0.02l-2.47,0.03c-0.27,0-0.41-0.08-0.41-0.23c0-0.16,0.11-0.24,0.33-0.24c0.73-0.02,1.15-0.26,1.27-0.72
					c0.12-0.47,0.19-1.95,0.19-4.46c0-2.42-0.02-4.38-0.06-5.88c-0.04-1.5-0.17-2.41-0.38-2.75s-0.61-0.54-1.19-0.63
					c-0.22-0.04-0.33-0.13-0.33-0.27S433.3,0.21,433.46,0.21z"/>
				<path class="st0" d="M450.38,0.34l2.41-0.05c3.05,0,5.35,0.74,6.91,2.21c1.56,1.48,2.34,3.33,2.34,5.58
					c0,1.59-0.37,2.98-1.12,4.15s-1.68,2.06-2.81,2.66c-1.12,0.6-2.62,0.9-4.49,0.9c-0.42,0-0.96-0.02-1.6-0.07
					c-1.15-0.09-1.8-0.14-1.94-0.14c-2.56,0-4.06,0.03-4.52,0.08c-0.26,0-0.39-0.06-0.39-0.19c0-0.09,0.05-0.15,0.14-0.18
					c0.09-0.03,0.38-0.08,0.87-0.14c0.62-0.09,1.06-0.33,1.32-0.75c0.25-0.41,0.41-1.69,0.47-3.85l0.19-6.17
					c0-0.72-0.05-1.4-0.15-2.07c-0.1-0.66-0.25-1.09-0.46-1.28c-0.21-0.19-0.54-0.32-0.99-0.39c-0.33-0.05-0.49-0.14-0.49-0.27
					c0-0.16,0.08-0.24,0.25-0.24c0.16,0,0.63,0.03,1.43,0.1C448.56,0.3,449.43,0.34,450.38,0.34z M449.97,11.59
					c0,1.02,0.07,1.76,0.2,2.2c0.14,0.44,0.43,0.8,0.88,1.08c0.45,0.28,1.17,0.43,2.16,0.43c1.42,0,2.57-0.33,3.45-1
					c0.88-0.67,1.57-1.56,2.06-2.67c0.49-1.11,0.74-2.29,0.74-3.54c0-1.85-0.57-3.52-1.7-5.02c-1.13-1.5-2.89-2.25-5.28-2.25
					c-1.06,0-1.68,0.03-1.85,0.11c-0.18,0.07-0.26,0.28-0.26,0.62c0,0.3-0.03,0.84-0.08,1.62c-0.08,1.13-0.13,2.02-0.15,2.66
					l-0.11,3.2C450,10.51,449.97,11.37,449.97,11.59z"/>
				<path class="st0" d="M480.61,0.47c0.23,0.87,0.45,2.09,0.67,3.66c-0.04,0.06-0.08,0.09-0.13,0.09c-0.05,0-0.11-0.03-0.17-0.09
					c-0.54-0.86-1.05-1.52-1.55-1.97c-0.49-0.45-0.99-0.77-1.48-0.96c-0.5-0.19-1.35-0.29-2.56-0.29c-1.14,0-2.04,0.07-2.7,0.2
					c-0.06,0.08-0.09,0.22-0.09,0.43c0,0.05-0.01,0.15-0.02,0.29c-0.08,0.62-0.12,2.3-0.12,5.05c0,0.12,0.01,0.28,0.02,0.49
					c0.59,0.02,1,0.03,1.22,0.03c0.98,0,1.7-0.15,2.14-0.44c0.44-0.29,0.83-0.92,1.15-1.89c0.05-0.16,0.13-0.25,0.23-0.25
					c0.15,0,0.22,0.11,0.22,0.34l-0.05,0.47c-0.06,0.61-0.09,1.25-0.09,1.9c0,1.06,0.02,2.01,0.06,2.86c0,0.26-0.07,0.4-0.21,0.4
					c-0.11,0-0.18-0.09-0.21-0.28c-0.16-0.92-0.51-1.58-1.03-1.98c-0.52-0.4-1.66-0.61-3.42-0.61c-0.02,0.57-0.04,1.48-0.04,2.75
					c0,1.64,0.06,2.68,0.18,3.12c0.12,0.44,0.4,0.79,0.84,1.05c0.45,0.26,1.2,0.39,2.26,0.39c3.04,0,4.99-1.04,5.88-3.12
					c0.11-0.26,0.22-0.38,0.34-0.38c0.12,0,0.19,0.09,0.19,0.26c0,0.09-0.02,0.19-0.06,0.3c-0.05,0.15-0.16,0.7-0.34,1.65
					c-0.04,0.2-0.19,0.81-0.44,1.82l-4.9-0.01c-0.7,0-1.73-0.03-3.09-0.09c-1.36-0.06-2.57-0.09-3.61-0.09
					c-1.05,0-1.6-0.02-1.64-0.06c-0.05-0.04-0.07-0.08-0.07-0.13c0-0.16,0.13-0.23,0.39-0.23c0.87,0,1.43-0.23,1.71-0.69
					c0.27-0.46,0.41-1.57,0.41-3.34l-0.01-2.39l0.03-2.23c0-0.45-0.03-1.3-0.08-2.55c-0.05-1.25-0.1-1.97-0.14-2.15
					c-0.04-0.18-0.16-0.35-0.36-0.53s-0.64-0.35-1.32-0.53c-0.2-0.05-0.3-0.14-0.3-0.26c0-0.14,0.14-0.21,0.41-0.21l2.39,0.13
					c0.84,0.04,2.91,0.06,6.21,0.06C479.46,0.45,480.56,0.46,480.61,0.47z"/>
				<path class="st0" d="M490.36,0.41c0.47,0.63,1.28,1.6,2.43,2.92l3.74,4.32l3.6,4.15c0.08-1.41,0.12-3.23,0.12-5.47
					c0-1.68-0.03-2.81-0.11-3.38c-0.07-0.57-0.33-1.05-0.78-1.44s-1.01-0.58-1.68-0.58c-0.31,0-0.47-0.07-0.47-0.2
					c0-0.08,0.03-0.13,0.1-0.17c0.07-0.04,0.59-0.07,1.57-0.11c0.98-0.03,1.81-0.05,2.48-0.05l1.58,0.01h0.26
					c0.24,0,0.36,0.07,0.36,0.2c0,0.12-0.11,0.19-0.32,0.22c-0.79,0.09-1.35,0.29-1.7,0.61c-0.35,0.32-0.55,0.79-0.62,1.39
					c-0.07,0.61-0.1,2.65-0.1,6.12l-0.12,6.15c0,0.31-0.08,0.47-0.23,0.47c-0.04,0-0.09-0.02-0.16-0.05
					c-0.07-0.03-0.42-0.43-1.05-1.18c-0.63-0.75-1.41-1.65-2.33-2.7c-0.92-1.05-1.65-1.9-2.18-2.55c-1.16-1.41-1.9-2.27-2.2-2.6
					c-1.13-1.2-1.8-1.96-2-2.31c-0.13-0.23-0.25-0.35-0.36-0.35c-0.09,0-0.13,0.15-0.13,0.45l0.02,1.81c0,2.29,0.06,4.12,0.19,5.49
					c0.13,1.37,0.26,2.17,0.39,2.4c0.14,0.24,0.37,0.48,0.71,0.72c0.34,0.24,0.7,0.36,1.08,0.36c0.51,0,0.77,0.09,0.77,0.28
					c0,0.14-0.14,0.21-0.43,0.21l-5.63-0.01c-0.27,0-0.4-0.07-0.4-0.2c0-0.16,0.13-0.23,0.39-0.23c0.96,0,1.6-0.21,1.92-0.64
					c0.32-0.42,0.48-1.32,0.48-2.7l-0.1-4.09c0-2.41-0.06-3.84-0.2-4.27c-0.13-0.43-0.43-0.95-0.89-1.57
					c-0.46-0.62-0.99-0.96-1.58-1.04c-0.27-0.03-0.4-0.1-0.4-0.21c0-0.15,0.17-0.22,0.51-0.22L490.36,0.41z"/>
				<path class="st0" d="M520.8,1.29c0.43-0.38,0.68-0.64,0.74-0.77c0.08-0.19,0.19-0.28,0.34-0.28c0.16,0,0.24,0.14,0.26,0.42
					l0.26,4.06c0,0.23-0.01,0.37-0.03,0.43c-0.02,0.05-0.08,0.08-0.17,0.08c-0.13,0-0.26-0.17-0.4-0.5
					c-0.51-1.24-1.23-2.25-2.15-3.04c-0.93-0.78-1.93-1.18-3.02-1.18c-0.95,0-1.83,0.3-2.62,0.91c-0.8,0.61-1.41,1.48-1.85,2.61
					c-0.44,1.13-0.66,2.34-0.66,3.64c0,2.21,0.61,4,1.83,5.37c1.22,1.38,2.58,2.07,4.09,2.07c1.02,0,1.96-0.32,2.82-0.97
					c0.86-0.64,1.51-1.39,1.94-2.24c0.12-0.23,0.24-0.35,0.36-0.35c0.17,0,0.26,0.09,0.26,0.28c0,0.23-0.3,0.72-0.89,1.48
					c-0.59,0.76-1.37,1.38-2.33,1.85c-0.96,0.47-2,0.71-3.11,0.71c-1.3,0-2.54-0.33-3.72-0.99c-1.17-0.66-2.1-1.57-2.79-2.74
					c-0.69-1.16-1.03-2.53-1.03-4.1c0-1.54,0.33-2.92,1-4.16c0.67-1.23,1.61-2.19,2.82-2.88c1.21-0.68,2.46-1.02,3.75-1.02
					c0.69,0,1.39,0.11,2.11,0.32C519.32,0.53,520.05,0.86,520.8,1.29z"/>
				<path class="st0" d="M528.78,0.21l2.13,0.05l3.27-0.05c0.39,0,0.59,0.08,0.59,0.23c0,0.12-0.11,0.19-0.32,0.22
					c-0.87,0.11-1.41,0.42-1.62,0.93c-0.21,0.51-0.32,2.41-0.32,5.68c0,1.2,0.03,2.56,0.09,4.06c0.06,1.51,0.13,2.41,0.21,2.7
					c0.08,0.3,0.23,0.54,0.44,0.72c0.22,0.19,0.62,0.32,1.22,0.4c0.19,0.02,0.29,0.1,0.29,0.22c0,0.14-0.09,0.21-0.27,0.21
					l-2.91-0.02l-2.47,0.03c-0.27,0-0.41-0.08-0.41-0.23c0-0.16,0.11-0.24,0.33-0.24c0.73-0.02,1.15-0.26,1.27-0.72
					c0.12-0.47,0.19-1.95,0.19-4.46c0-2.42-0.02-4.38-0.06-5.88c-0.04-1.5-0.17-2.41-0.38-2.75c-0.21-0.33-0.61-0.54-1.19-0.63
					c-0.22-0.04-0.33-0.13-0.33-0.27S528.61,0.21,528.78,0.21z"/>
				<path class="st0" d="M550.35,0.02h0.54c0.87,1.78,2.07,4.82,3.61,9.12c0.99,2.76,1.67,4.45,2.03,5.07
					c0.37,0.62,0.96,0.97,1.77,1.04c0.26,0.02,0.39,0.11,0.39,0.26c0,0.11-0.07,0.16-0.2,0.16l-0.16-0.01
					c-0.72-0.06-1.63-0.09-2.74-0.09c-1.7,0-2.79,0.03-3.28,0.08c-0.24,0-0.36-0.07-0.36-0.21c0-0.1,0.09-0.16,0.27-0.19
					c0.66-0.06,1.12-0.17,1.37-0.34c0.25-0.16,0.38-0.42,0.38-0.77c0-0.33-0.24-1.17-0.71-2.5l-0.69-2c-0.41,0-2.22,0.02-5.44,0.07
					c-0.81,2.15-1.22,3.51-1.22,4.07c0,0.48,0.2,0.83,0.6,1.06c0.4,0.23,0.8,0.36,1.19,0.38c0.29,0.02,0.43,0.11,0.43,0.26
					c0,0.06-0.05,0.12-0.14,0.17c-1.25-0.05-2-0.08-2.26-0.08c-1.31,0-2.19,0.02-2.64,0.05c-0.25,0-0.37-0.07-0.37-0.21
					c0-0.12,0.11-0.2,0.33-0.23c0.9-0.12,1.58-0.72,2.06-1.82c0.48-1.1,1.22-3.06,2.22-5.9C548.25,4.87,549.26,2.39,550.35,0.02z
					 M549.88,2.56c-0.73,1.48-1.57,3.62-2.54,6.43c0.8-0.04,1.38-0.06,1.73-0.06l3.29,0.06c-0.29-0.81-0.69-1.88-1.22-3.21
					C550.51,4.18,550.09,3.11,549.88,2.56z"/>
				<path class="st0" d="M576.41,15.63c-0.38,0.02-0.6,0.02-0.66,0.02c-0.29,0-0.81-0.01-1.57-0.04c-0.76-0.03-2.33-0.04-4.72-0.04
					h-2.97c-0.11,0-0.51,0.02-1.19,0.06c-0.69,0.04-1.1,0.06-1.25,0.06c-0.59,0-0.89-0.08-0.89-0.23c0-0.12,0.12-0.19,0.35-0.2
					c0.76-0.05,1.28-0.21,1.58-0.48c0.3-0.28,0.5-0.67,0.61-1.19c0.11-0.52,0.16-1.91,0.16-4.19l0.01-4.17
					c0-1.35-0.06-2.3-0.18-2.83c-0.12-0.54-0.37-0.95-0.75-1.23c-0.38-0.28-0.81-0.44-1.28-0.48c-0.25-0.02-0.37-0.11-0.37-0.25
					s0.11-0.22,0.34-0.22c0.05,0,0.16,0,0.3,0.01c1.24,0.08,2.69,0.12,4.35,0.12l2.06-0.03c0.21,0,0.32,0.08,0.32,0.23
					c0,0.14-0.11,0.21-0.34,0.21c-0.55,0-1.02,0.11-1.39,0.33c-0.37,0.22-0.62,0.47-0.74,0.75c-0.12,0.28-0.18,0.84-0.18,1.66
					l-0.09,5.51l0.02,3.07c0,0.95,0.04,1.58,0.12,1.86c0.08,0.29,0.25,0.55,0.51,0.77c0.26,0.23,0.73,0.34,1.4,0.34
					c0.05,0,0.75-0.02,2.09-0.07c1.07-0.15,2.03-0.67,2.88-1.56c0.85-0.89,1.42-1.69,1.7-2.4c0.09-0.2,0.19-0.3,0.31-0.3
					c0.13,0,0.2,0.09,0.2,0.28c0,0.22-0.11,1-0.33,2.34C576.6,14.67,576.46,15.43,576.41,15.63z"/>
				<path class="st0" d="M644.2,1.29c0.43-0.38,0.68-0.64,0.74-0.77c0.08-0.19,0.19-0.28,0.34-0.28c0.16,0,0.24,0.14,0.26,0.42
					l0.26,4.06c0,0.23-0.01,0.37-0.03,0.43c-0.02,0.05-0.08,0.08-0.17,0.08c-0.13,0-0.26-0.17-0.4-0.5
					c-0.51-1.24-1.23-2.25-2.15-3.04c-0.93-0.78-1.93-1.18-3.02-1.18c-0.95,0-1.83,0.3-2.62,0.91c-0.8,0.61-1.41,1.48-1.85,2.61
					c-0.44,1.13-0.66,2.34-0.66,3.64c0,2.21,0.61,4,1.83,5.37c1.22,1.38,2.58,2.07,4.09,2.07c1.02,0,1.96-0.32,2.82-0.97
					c0.86-0.64,1.51-1.39,1.94-2.24c0.12-0.23,0.24-0.35,0.36-0.35c0.17,0,0.26,0.09,0.26,0.28c0,0.23-0.3,0.72-0.89,1.48
					c-0.59,0.76-1.37,1.38-2.33,1.85c-0.96,0.47-2,0.71-3.11,0.71c-1.3,0-2.54-0.33-3.72-0.99c-1.17-0.66-2.1-1.57-2.79-2.74
					c-0.69-1.16-1.03-2.53-1.03-4.1c0-1.54,0.33-2.92,1-4.16c0.67-1.23,1.61-2.19,2.82-2.88S638.6,0,639.89,0
					c0.69,0,1.39,0.11,2.11,0.32C642.72,0.53,643.45,0.86,644.2,1.29z"/>
				<path class="st0" d="M664.85,15.63c-0.38,0.02-0.6,0.02-0.66,0.02c-0.29,0-0.81-0.01-1.57-0.04c-0.76-0.03-2.33-0.04-4.72-0.04
					h-2.97c-0.11,0-0.51,0.02-1.19,0.06c-0.69,0.04-1.1,0.06-1.25,0.06c-0.59,0-0.89-0.08-0.89-0.23c0-0.12,0.12-0.19,0.35-0.2
					c0.76-0.05,1.28-0.21,1.58-0.48c0.3-0.28,0.5-0.67,0.61-1.19c0.11-0.52,0.16-1.91,0.16-4.19l0.01-4.17
					c0-1.35-0.06-2.3-0.18-2.83c-0.12-0.54-0.37-0.95-0.75-1.23c-0.38-0.28-0.81-0.44-1.28-0.48c-0.25-0.02-0.37-0.11-0.37-0.25
					s0.11-0.22,0.34-0.22c0.05,0,0.16,0,0.3,0.01c1.24,0.08,2.69,0.12,4.35,0.12l2.06-0.03c0.21,0,0.32,0.08,0.32,0.23
					c0,0.14-0.11,0.21-0.34,0.21c-0.55,0-1.02,0.11-1.39,0.33c-0.37,0.22-0.62,0.47-0.74,0.75c-0.12,0.28-0.18,0.84-0.18,1.66
					l-0.09,5.51l0.02,3.07c0,0.95,0.04,1.58,0.12,1.86c0.08,0.29,0.25,0.55,0.51,0.77c0.26,0.23,0.73,0.34,1.4,0.34
					c0.05,0,0.75-0.02,2.09-0.07c1.07-0.15,2.03-0.67,2.88-1.56c0.85-0.89,1.42-1.69,1.7-2.4c0.09-0.2,0.19-0.3,0.31-0.3
					c0.13,0,0.2,0.09,0.2,0.28c0,0.22-0.11,1-0.33,2.34C665.04,14.67,664.9,15.43,664.85,15.63z"/>
				<path class="st0" d="M670.49,0.33h5.86c0.34,0,0.5,0.07,0.5,0.21c0,0.14-0.12,0.22-0.37,0.24c-0.55,0.05-0.96,0.21-1.23,0.45
					c-0.27,0.25-0.47,0.69-0.6,1.32c-0.14,0.63-0.2,1.98-0.2,4.04c0,2.48,0.07,4.19,0.22,5.15c0.14,0.95,0.6,1.71,1.36,2.28
					c0.76,0.56,1.8,0.84,3.11,0.84c1.37,0,2.42-0.26,3.14-0.78c0.72-0.52,1.18-1.29,1.4-2.32c0.21-1.03,0.32-3.25,0.32-6.67
					c0-1.76-0.18-2.92-0.55-3.46c-0.37-0.55-0.91-0.82-1.63-0.82c-0.29,0-0.43-0.08-0.43-0.24c0-0.16,0.19-0.23,0.57-0.23h4.68
					c0.21,0,0.32,0.08,0.32,0.23c0,0.11-0.09,0.18-0.26,0.2c-0.59,0.09-1.03,0.27-1.3,0.56c-0.28,0.29-0.46,0.81-0.54,1.56
					c-0.09,0.75-0.13,1.86-0.13,3.32c0,1.82-0.07,3.37-0.21,4.65s-0.43,2.22-0.88,2.85c-0.45,0.62-1.13,1.13-2.04,1.51
					s-2.03,0.58-3.35,0.58c-1.36,0-2.51-0.22-3.47-0.65c-0.96-0.43-1.6-1-1.94-1.71c-0.34-0.71-0.51-1.77-0.51-3.19L672.35,7
					c0-2.87-0.12-4.62-0.37-5.26c-0.25-0.64-0.77-0.97-1.59-0.99c-0.27,0-0.4-0.06-0.4-0.19C669.99,0.41,670.16,0.33,670.49,0.33z"
					/>
				<path class="st0" d="M701.28,7.33c1.45,0.38,2.54,0.91,3.26,1.6c0.72,0.68,1.08,1.51,1.08,2.49c0,1.05-0.45,2.02-1.35,2.9
					c-0.9,0.89-2.21,1.34-3.95,1.34c-0.33,0-0.85-0.02-1.57-0.06c-0.46-0.02-0.71-0.03-0.75-0.03c-2.4,0-4.02,0.02-4.87,0.07
					c-0.28,0-0.42-0.07-0.42-0.22c0-0.08,0.04-0.13,0.12-0.16c0.08-0.03,0.38-0.09,0.91-0.19c0.31-0.05,0.56-0.19,0.74-0.4
					c0.18-0.21,0.32-0.64,0.41-1.28c0.09-0.64,0.14-1.6,0.14-2.88c0-1.26,0.02-2.27,0.05-3.05c0.03-0.77,0.05-1.36,0.05-1.78
					c0-1.28-0.05-2.31-0.15-3.09c-0.1-0.78-0.24-1.27-0.42-1.49c-0.18-0.21-0.55-0.36-1.1-0.45c-0.23-0.03-0.34-0.11-0.34-0.24
					c0-0.14,0.11-0.21,0.34-0.21l2.13,0.03c0.69,0,1.35-0.02,1.95-0.05c1.36-0.07,2.25-0.1,2.64-0.1c1.44,0,2.59,0.31,3.44,0.94
					c0.84,0.63,1.26,1.49,1.26,2.57c0,0.85-0.28,1.59-0.83,2.2C703.51,6.43,702.58,6.94,701.28,7.33z M697.26,7.87
					c-0.11,0.19-0.16,0.53-0.16,1.01l-0.08,3.61c0,1.27,0.03,1.98,0.1,2.13c0.07,0.15,0.29,0.27,0.68,0.37
					c0.39,0.1,1,0.15,1.83,0.15c0.74,0,1.34-0.1,1.81-0.31c0.46-0.21,0.89-0.61,1.28-1.22c0.39-0.61,0.58-1.33,0.58-2.18
					c0-1.26-0.37-2.18-1.12-2.77c-0.74-0.59-1.85-0.89-3.3-0.89C698.39,7.79,697.85,7.82,697.26,7.87z M697.26,0.93
					c-0.07,1.7-0.11,3.08-0.11,4.13l0.01,1.72c0,0.23,0.03,0.38,0.1,0.44c0.07,0.06,0.25,0.09,0.54,0.09c1.48,0,2.67-0.27,3.57-0.81
					c0.9-0.54,1.35-1.45,1.35-2.72c0-1.08-0.33-1.88-1-2.42c-0.67-0.53-1.5-0.8-2.49-0.8C698.66,0.58,698,0.7,697.26,0.93z"/>
			</g>
		</g>
		<rect x="590.68" y="7.79" class="st0" width="26.73" height="3.68"/>
	</g>
</g>
</svg>
