<?xml version="1.0" encoding="utf-8"?>
<!-- Generator: Adobe Illustrator 27.2.0, SVG Export Plug-In . SVG Version: 6.00 Build 0)  -->
<svg version="1.1" id="Capa_1" xmlns="http://www.w3.org/2000/svg" xmlns:xlink="http://www.w3.org/1999/xlink" x="0px" y="0px"
	 viewBox="0 0 1060.83 329.45" style="enable-background:new 0 0 1060.83 329.45;" xml:space="preserve">
<style type="text/css">
	.st0{fill:#FFFFFF;}
</style>
<g>
	<rect x="930.17" class="st0" width="34.88" height="244.02"/>
	<polygon class="st0" points="181.82,244.02 181.82,211.55 181.82,0 166.33,0 166.33,188.12 41.97,0 31.41,0 15.92,0 0,0 
		15.92,24.09 15.92,244.02 31.41,244.02 31.41,47.53 161.28,244.02 166.33,244.02 	"/>
	<rect x="1012.42" class="st0" width="34.88" height="244.02"/>
	<path class="st0" d="M390.27,92.45V0h-16.75v63.91C382.28,71.48,387.55,84.06,390.27,92.45z"/>
	<path class="st0" d="M387.56,187.28l-15.71,0.98c-6.2,25.35-29.06,44.17-56.32,44.17h0c-32.03,0-57.99-25.96-57.99-57.99V0h-35.28
		v166.29c0,45.4,36.8,82.2,82.2,82.2h3.61C346.22,248.49,378.29,222.51,387.56,187.28z"/>
	<path class="st0" d="M387.07,106.12c-1.83-7.7-4.53-15.56-8.38-23.35c0,0,6.81,38.88,4.05,71.11
		c-8.82-16.39-22.72-18.63-22.72-18.63s-6.45,33.2,19.71,37.09c-0.6,2.26-1.29,4.42-2.07,6.45h6.02c0,0,8.84-24.18,6.26-54.68
		c25.43-3.2,20.93-36.69,20.93-36.69S396.03,90.59,387.07,106.12z M380.22,170.35c-18.97-3.22-15.39-28.03-15.39-28.03
		s8.35,1.93,17.33,17.03C381.68,163.18,381.04,166.88,380.22,170.35z M389.73,121.96c-0.37-3.61-0.9-7.3-1.62-11.04
		c8.72-13.66,17.94-16.45,17.94-16.45S407.62,118.04,389.73,121.96z"/>
	<polygon class="st0" points="540.98,224.21 629.36,0 612.38,0 533.86,206.32 451.65,0 413.45,0 511.19,244.02 548.88,244.02 	"/>
	<polygon class="st0" points="659.42,0 674.56,38.78 594.65,244.02 610.31,244.02 681.72,59.87 757.39,244.02 794.56,244.02 
		696.59,0 	"/>
	<path class="st0" d="M42.5,297.26c-2.79-1.4-6.02-2.09-9.68-2.09H17.51v33.71h15.31c3.66,0,6.89-0.7,9.68-2.09
		c2.79-1.4,4.98-3.35,6.55-5.88c1.57-2.52,2.36-5.48,2.36-8.88c0-3.43-0.79-6.4-2.36-8.91C47.48,300.6,45.3,298.65,42.5,297.26z
		 M42.14,317.55c-0.91,1.57-2.2,2.79-3.85,3.64c-1.65,0.85-3.6,1.28-5.85,1.28h-7.13v-20.9h7.13c2.25,0,4.2,0.43,5.85,1.28
		c1.65,0.85,2.94,2.05,3.85,3.61c0.91,1.56,1.37,3.41,1.37,5.56C43.51,314.14,43.06,315.98,42.14,317.55z"/>
	<polygon class="st0" points="80.2,314.81 95.85,314.81 95.85,308.74 80.2,308.74 80.2,301.42 97.93,301.42 97.93,295.16 
		72.45,295.16 72.45,328.87 98.55,328.87 98.55,322.61 80.2,322.61 	"/>
	<path class="st0" d="M142.32,296.63c-2.18-0.98-4.78-1.47-7.8-1.47h-14.59v33.71h7.8v-9.29h6.79c3.02,0,5.62-0.49,7.8-1.47
		c2.18-0.98,3.87-2.38,5.06-4.21c1.19-1.83,1.78-4,1.78-6.5c0-2.54-0.59-4.72-1.78-6.55C146.19,299.02,144.5,297.61,142.32,296.63z
		 M139.48,311.68c-1.19,1.03-2.99,1.54-5.39,1.54h-6.36v-11.7h6.36c2.41,0,4.21,0.51,5.39,1.54c1.19,1.03,1.78,2.47,1.78,4.33
		C141.26,309.22,140.67,310.65,139.48,311.68z"/>
	<path class="st0" d="M178.77,295.16l-15.02,33.71h7.99l3-7.22h15.62l2.99,7.22h8.19l-15.07-33.71H178.77z M177.21,315.72l5.36-12.9
		l5.34,12.9H177.21z"/>
	<path class="st0" d="M242.62,318.04c2.18-0.96,3.87-2.35,5.06-4.17c1.19-1.81,1.78-3.97,1.78-6.48c0-2.54-0.59-4.72-1.78-6.55
		c-1.19-1.83-2.87-3.23-5.06-4.21c-2.18-0.98-4.78-1.47-7.8-1.47h-14.59v33.71h7.8v-9.39h6.79c0.12,0,0.24-0.01,0.36-0.01l6.47,9.4
		h8.43l-7.53-10.81C242.58,318.05,242.6,318.05,242.62,318.04z M239.78,303.06c1.19,1.03,1.78,2.47,1.78,4.33
		c0,1.83-0.59,3.27-1.78,4.31c-1.19,1.04-2.99,1.57-5.39,1.57h-6.36v-11.75h6.36C236.8,301.52,238.59,302.03,239.78,303.06z"/>
	<polygon class="st0" points="266.51,301.52 277.29,301.52 277.29,328.87 285.09,328.87 285.09,301.52 295.88,301.52 295.88,295.16 
		266.51,295.16 	"/>
	<path class="st0" d="M324.15,295.16l-15.02,33.71h7.99l3-7.22h15.62l2.99,7.22h8.19l-15.07-33.71H324.15z M322.58,315.72l5.36-12.9
		l5.34,12.9H322.58z"/>
	<polygon class="st0" points="397.1,295.16 384.68,316.09 372.06,295.16 365.61,295.16 365.61,328.87 372.92,328.87 372.92,309.07 
		382.8,325.31 386.31,325.31 396.24,308.64 396.28,328.87 403.6,328.87 403.5,295.16 	"/>
	<polygon class="st0" points="434.51,314.81 450.16,314.81 450.16,308.74 434.51,308.74 434.51,301.42 452.23,301.42 452.23,295.16 
		426.76,295.16 426.76,328.87 452.86,328.87 452.86,322.61 434.51,322.61 	"/>
	<polygon class="st0" points="497.45,315.61 480.69,295.16 474.24,295.16 474.24,328.87 481.94,328.87 481.94,308.41 498.75,328.87 
		505.15,328.87 505.15,295.16 497.45,295.16 	"/>
	<polygon class="st0" points="524.51,301.52 535.29,301.52 535.29,328.87 543.09,328.87 543.09,301.52 553.88,301.52 553.88,295.16 
		524.51,295.16 	"/>
	<path class="st0" d="M602.25,299.54c-1.65-1.57-3.6-2.79-5.83-3.66c-2.23-0.87-4.68-1.3-7.34-1.3c-2.63,0-5.07,0.43-7.32,1.3
		c-2.25,0.87-4.21,2.09-5.87,3.66c-1.67,1.57-2.96,3.42-3.88,5.54s-1.37,4.43-1.37,6.93c0,2.5,0.46,4.82,1.37,6.93
		s2.2,3.97,3.85,5.54c1.65,1.57,3.61,2.79,5.87,3.66c2.26,0.87,4.73,1.3,7.39,1.3c2.63,0,5.06-0.43,7.3-1.3
		c2.23-0.87,4.17-2.08,5.83-3.64c1.65-1.56,2.94-3.4,3.88-5.54c0.93-2.13,1.4-4.45,1.4-6.96c0-2.54-0.47-4.85-1.4-6.96
		C605.2,302.96,603.9,301.12,602.25,299.54z M598.83,316.4c-0.53,1.32-1.28,2.46-2.24,3.42c-0.96,0.96-2.08,1.7-3.35,2.22
		c-1.27,0.51-2.66,0.77-4.17,0.77c-1.51,0-2.91-0.26-4.19-0.77c-1.28-0.51-2.4-1.25-3.35-2.22c-0.95-0.96-1.69-2.11-2.21-3.44
		s-0.79-2.78-0.79-4.36c0-1.6,0.26-3.07,0.79-4.38c0.53-1.32,1.28-2.46,2.24-3.42c0.96-0.96,2.08-1.7,3.35-2.22
		c1.27-0.51,2.66-0.77,4.17-0.77c1.51,0,2.91,0.26,4.19,0.77c1.28,0.51,2.4,1.25,3.35,2.22c0.95,0.96,1.69,2.1,2.22,3.42
		c0.53,1.32,0.79,2.78,0.79,4.38C599.63,313.62,599.36,315.08,598.83,316.4z"/>
	<path class="st0" d="M650.04,311.82c-1.16-0.71-2.43-1.27-3.83-1.69c-1.4-0.42-2.79-0.79-4.19-1.11c-1.4-0.32-2.67-0.64-3.83-0.96
		c-1.16-0.32-2.09-0.75-2.79-1.28c-0.71-0.53-1.06-1.23-1.06-2.09c0-0.74,0.21-1.39,0.63-1.95c0.42-0.56,1.11-1.02,2.07-1.37
		c0.96-0.35,2.2-0.53,3.71-0.53c1.51,0,3.05,0.22,4.62,0.65c1.57,0.43,3.15,1.1,4.72,2l2.41-5.92c-1.57-0.99-3.39-1.74-5.44-2.24
		c-2.05-0.5-4.14-0.75-6.26-0.75c-3.18,0-5.82,0.47-7.92,1.42c-2.1,0.95-3.68,2.22-4.72,3.8c-1.04,1.59-1.56,3.35-1.56,5.27
		c0,1.8,0.36,3.27,1.08,4.43c0.72,1.16,1.66,2.09,2.82,2.79c1.16,0.71,2.43,1.28,3.83,1.73c1.4,0.45,2.79,0.83,4.19,1.13
		c1.4,0.31,2.67,0.63,3.83,0.96c1.16,0.34,2.09,0.77,2.79,1.3c0.71,0.53,1.06,1.24,1.06,2.14c0,0.71-0.23,1.33-0.67,1.88
		c-0.45,0.55-1.15,0.97-2.09,1.28c-0.95,0.31-2.19,0.46-3.73,0.46c-2.02,0-4.02-0.33-5.99-0.99c-1.97-0.66-3.68-1.5-5.13-2.53
		l-2.65,5.87c1.51,1.16,3.5,2.09,5.97,2.82c2.47,0.72,5.06,1.08,7.75,1.08c3.21,0,5.87-0.48,7.97-1.44c2.1-0.96,3.68-2.23,4.74-3.8
		c1.06-1.57,1.59-3.31,1.59-5.2c0-1.77-0.36-3.23-1.08-4.38C652.14,313.46,651.2,312.53,650.04,311.82z"/>
	<path class="st0" d="M712.06,304.22c0.96-0.96,2.1-1.7,3.42-2.22c1.32-0.51,2.76-0.77,4.33-0.77c1.67,0,3.21,0.33,4.62,0.99
		c1.41,0.66,2.7,1.64,3.85,2.96l5.01-4.62c-1.61-1.96-3.59-3.44-5.95-4.45c-2.36-1.01-5-1.52-7.92-1.52c-2.63,0-5.06,0.43-7.27,1.28
		c-2.21,0.85-4.15,2.06-5.8,3.64c-1.65,1.57-2.94,3.42-3.85,5.54c-0.91,2.12-1.37,4.45-1.37,6.98c0,2.54,0.46,4.86,1.37,6.98
		c0.91,2.12,2.19,3.97,3.83,5.54c1.64,1.57,3.57,2.79,5.8,3.64c2.23,0.85,4.65,1.28,7.25,1.28c2.95,0,5.61-0.51,7.97-1.54
		c2.36-1.03,4.34-2.52,5.95-4.48l-5.01-4.62c-1.16,1.35-2.44,2.35-3.85,3.01c-1.41,0.66-2.95,0.99-4.62,0.99
		c-1.57,0-3.02-0.26-4.33-0.77c-1.32-0.51-2.46-1.25-3.42-2.22c-0.96-0.96-1.71-2.1-2.24-3.42c-0.53-1.32-0.79-2.78-0.79-4.38
		c0-1.6,0.26-3.07,0.79-4.38C710.35,306.32,711.1,305.18,712.06,304.22z"/>
	<path class="st0" d="M782.48,299.54c-1.65-1.57-3.6-2.79-5.83-3.66c-2.23-0.87-4.68-1.3-7.34-1.3c-2.63,0-5.07,0.43-7.32,1.3
		c-2.25,0.87-4.21,2.09-5.87,3.66c-1.67,1.57-2.96,3.42-3.88,5.54c-0.91,2.12-1.37,4.43-1.37,6.93c0,2.5,0.46,4.82,1.37,6.93
		c0.91,2.12,2.2,3.97,3.85,5.54c1.65,1.57,3.61,2.79,5.87,3.66c2.26,0.87,4.73,1.3,7.39,1.3c2.63,0,5.06-0.43,7.3-1.3
		c2.23-0.87,4.17-2.08,5.83-3.64c1.65-1.56,2.94-3.4,3.88-5.54c0.93-2.13,1.4-4.45,1.4-6.96c0-2.54-0.47-4.85-1.4-6.96
		C785.43,302.96,784.14,301.12,782.48,299.54z M779.07,316.4c-0.53,1.32-1.28,2.46-2.24,3.42c-0.96,0.96-2.08,1.7-3.35,2.22
		c-1.27,0.51-2.66,0.77-4.17,0.77c-1.51,0-2.91-0.26-4.19-0.77c-1.28-0.51-2.4-1.25-3.35-2.22c-0.95-0.96-1.69-2.11-2.21-3.44
		s-0.79-2.78-0.79-4.36c0-1.6,0.26-3.07,0.79-4.38c0.53-1.32,1.28-2.46,2.24-3.42c0.96-0.96,2.08-1.7,3.35-2.22
		c1.27-0.51,2.66-0.77,4.17-0.77c1.51,0,2.91,0.26,4.19,0.77c1.28,0.51,2.4,1.25,3.35,2.22c0.95,0.96,1.69,2.1,2.22,3.42
		c0.53,1.32,0.79,2.78,0.79,4.38C779.86,313.62,779.6,315.08,779.07,316.4z"/>
	<polygon class="st0" points="832.01,315.61 815.25,295.16 808.8,295.16 808.8,328.87 816.5,328.87 816.5,308.41 833.31,328.87 
		839.71,328.87 839.71,295.16 832.01,295.16 	"/>
	<polygon class="st0" points="905.92,319.24 895.67,295.16 887.24,295.16 901.78,328.87 909.49,328.87 924.08,295.16 916.32,295.16 
			"/>
	<rect x="942.04" y="295.16" class="st0" width="7.8" height="33.71"/>
	<path class="st0" d="M997.99,297.26c-2.79-1.4-6.02-2.09-9.68-2.09H973v33.71h15.31c3.66,0,6.89-0.7,9.68-2.09
		c2.79-1.4,4.98-3.35,6.55-5.88c1.57-2.52,2.36-5.48,2.36-8.88c0-3.43-0.79-6.4-2.36-8.91
		C1002.97,300.6,1000.78,298.65,997.99,297.26z M997.63,317.55c-0.91,1.57-2.2,2.79-3.85,3.64c-1.65,0.85-3.6,1.28-5.85,1.28h-7.13
		v-20.9h7.13c2.25,0,4.2,0.43,5.85,1.28c1.65,0.85,2.94,2.05,3.85,3.61c0.91,1.56,1.37,3.41,1.37,5.56
		C999,314.14,998.54,315.98,997.63,317.55z"/>
	<path class="st0" d="M1052.64,328.87h8.19l-15.07-33.71h-7.7l-15.02,33.71h7.99l3-7.22h15.62L1052.64,328.87z M1036.49,315.72
		l5.36-12.9l5.34,12.9H1036.49z"/>
</g>
</svg>
