<?xml version="1.0" encoding="utf-8"?>
<!-- Generator: Adobe Illustrator 27.2.0, SVG Export Plug-In . SVG Version: 6.00 Build 0)  -->
<svg version="1.1" id="Capa_1" xmlns="http://www.w3.org/2000/svg" xmlns:xlink="http://www.w3.org/1999/xlink" x="0px" y="0px"
	 viewBox="0 0 1060.83 372.54" style="enable-background:new 0 0 1060.83 372.54;" xml:space="preserve">
<style type="text/css">
	.st0{fill:#FFFFFF;}
</style>
<g>
	<g>
		<polygon class="st0" points="222.55,254.08 15.95,0 1.95,0 1.95,274.89 15.95,274.89 15.95,17.45 222.55,274.89 235.59,274.89 
			236.56,274.89 236.56,0 222.55,0 		"/>
		<path class="st0" d="M540.43,0h-13.42v80.29c5.83,9.35,10.78,23.19,13.42,31.33V0z"/>
		<path class="st0" d="M535.96,130.14c-2.7-14.48-7-23.72-7-23.72s5.96,29.3,1.09,64.24c-6.32-11.56-19.52-17.69-19.52-17.69
			s-4.8,31.27,16.15,35.35c-0.47,1.91-0.99,3.83-1.54,5.75h-4.66c-14.72,39.37-52.68,67.41-97.19,67.41h0
			c-57.29,0-103.74-46.45-103.74-103.74V0h-12.84v158.02c0,64.55,52.32,116.87,116.87,116.87h0c51.97,0,96.01-33.92,111.2-80.83
			h-4.52c7.22-17.85,8.57-35.2,7.54-49.69c24-1.82,21.13-32.26,21.13-32.26S541.4,116.62,535.96,130.14z M513.88,159.77
			c0,0,9.68,4.04,15.48,15.39c-0.67,4.05-1.49,8.16-2.48,12.3C522.39,186.03,512.16,180.49,513.88,159.77z M537.7,143.18
			c-0.24-2.96-0.58-5.79-0.98-8.48c5.46-12.88,17.82-16.42,17.82-16.42C554.04,140.81,541.25,143,537.7,143.18z"/>
		<polygon class="st0" points="824.22,0 707.81,256.47 591.4,0 576.96,0 701.27,274.89 702.24,274.89 713.38,274.89 714.35,274.89 
			838.66,0 		"/>
		<path class="st0" d="M1042.2,274.89h14.44L932.34,0h-3.67h-8.44h-3.67L789.64,274.89h14.44l38.79-83.65h160.36L1042.2,274.89z
			 M848.33,179.46l74.54-160.74l74.88,160.74H848.33z"/>
	</g>
	<rect y="293.95" class="st0" width="1060.83" height="4.47"/>
	<g>
		<path class="st0" d="M152.47,361.26c0-16.47,0-32.72,0-49.1c0.66-0.04,1.25-0.1,1.85-0.1c5.03-0.01,10.07-0.01,15.1,0
			c11.17,0.02,18.1,5.66,20.22,16.59c1.15,5.94,1.22,11.91-0.45,17.79c-2.64,9.24-8.61,14.19-18.29,14.72
			c-5.51,0.3-11.05,0.08-16.57,0.1C153.78,361.26,153.23,361.26,152.47,361.26z M156.1,357.96c5,0,9.79,0.13,14.57-0.03
			c6.29-0.21,11.13-3.02,13.66-8.87c3.34-7.73,3.22-15.72,0.56-23.6c-2.17-6.45-7.25-9.95-14.04-10.13
			c-3.62-0.09-7.24-0.04-10.86-0.06c-1.27,0-2.53,0-3.88,0C156.1,329.59,156.1,343.68,156.1,357.96z"/>
		<path class="st0" d="M415.23,361.18c-1.24,0-2.2,0-3.37,0c0-0.73,0-1.39,0-2.04c0-7.46,0.03-14.93-0.03-22.39
			c-0.01-1.45-0.11-2.98-0.59-4.32c-1.43-4.04-6.01-5.66-10.81-3.97c-4.25,1.49-7,5.25-7.02,9.76c-0.03,6.97-0.01,13.95-0.01,20.92
			c0,0.66,0,1.32,0,2.04c-1.2,0-2.21,0-3.32,0c0-11.81,0-23.54,0-35.39c1.01,0,2.03,0,3.26,0c0,1.6,0,3.26,0,4.92
			c2.87-3.59,6.36-5.74,10.9-5.76c4.62-0.02,8.2,1.78,10.11,6.52c0.42-0.52,0.76-0.89,1.06-1.3c3.35-4.4,9.38-6.34,14.64-4.71
			c4.24,1.32,7.05,4.72,7.14,9.44c0.16,8.62,0.04,17.25,0.03,25.88c0,0.11-0.09,0.21-0.18,0.39c-0.98,0-1.99,0-3.19,0
			c0-0.74,0-1.4,0-2.06c0-7.1,0-14.19,0-21.29c0-0.61,0-1.22-0.01-1.84c-0.13-6.96-4.96-8.83-10.09-7.98
			c-5.6,0.93-8.46,4.62-8.51,10.66c-0.06,6.79-0.01,13.58-0.02,20.37C415.23,359.7,415.23,360.36,415.23,361.18z"/>
		<path class="st0" d="M864.44,331.94c0-6.83,0-13.26,0-19.79c1.17,0,2.12,0,3.23,0c0,16.29,0,32.58,0,48.99c-1,0-2,0-3.18,0
			c0-1.8,0-3.55,0-5.32c-0.27,0.05-0.43,0.03-0.48,0.09c-3.52,5.25-8.61,6.99-14.57,5.94c-6.13-1.08-9.62-5.24-11.28-11.04
			c-1.77-6.17-1.55-12.25,1.4-18.01c4.45-8.68,16.09-10.63,22.48-3.88C862.83,329.75,863.46,330.7,864.44,331.94z M840.64,342.72
			c-0.09,2.22,0.14,4.48,0.66,6.9c1.25,5.73,4.93,9.11,10.3,9.63c4.98,0.48,9.5-2.12,11.53-7.05c2.48-6.04,2.44-12.18-0.47-18.09
			c-2.15-4.37-5.89-6.46-10.76-6.25c-4.62,0.2-7.9,2.67-9.53,6.88C841.31,337.49,840.75,340.08,840.64,342.72z"/>
		<path class="st0" d="M238.37,325.73c1.09,0,2.05,0,3.17,0c0,2.13,0,4.17,0,6.22c0.21,0.15,0.41,0.3,0.62,0.45
			c0.03-0.26-0.01-0.57,0.12-0.77c3.08-4.96,7.64-7.16,13.38-6.6c6.01,0.58,9.81,4.14,11.72,9.7c2.16,6.31,2.13,12.64-0.69,18.75
			c-4.65,10.08-17.34,11.52-24.26,2.82c-0.18-0.22-0.38-0.43-0.84-0.96c0,5.96,0,11.54,0,17.21c-1.16,0-2.12,0-3.21,0
			C238.37,356.98,238.37,341.43,238.37,325.73z M265.26,344.14c0.08-2.11-0.11-4.25-0.55-6.53c-1.04-5.33-4.41-8.82-9.25-9.68
			c-4.45-0.8-9.38,1.4-11.67,5.62c-3.5,6.45-3.58,13.15-0.27,19.67c2.25,4.44,6.34,6.14,11.21,5.82c4.36-0.29,7.35-2.77,8.83-6.71
			C264.6,349.5,265.15,346.85,265.26,344.14z"/>
		<path class="st0" d="M351.23,335.65c-0.13-4.02,2.68-8.04,6.95-9.55c4.27-1.51,8.66-1.68,13-0.29c3.9,1.25,6.23,3.99,6.36,8.08
			c0.21,6.54,0.16,13.08,0.21,19.62c0.01,0.73-0.01,1.47,0,2.2c0.06,3.02,0.87,3.67,3.86,3.05c0.71,2.26,0.4,2.73-1.82,2.85
			c-3.44,0.18-4.98-1.14-5.32-4.55c-0.03-0.34-0.12-0.68-0.23-1.32c-2.52,3.32-5.53,5.41-9.4,6.05c-3.05,0.51-6.12,0.55-9.06-0.6
			c-3.32-1.3-6.31-4.15-5.94-10.1c0.26-4.15,2.6-7.39,7.09-8.49c3.79-0.93,7.71-1.34,11.59-1.87c5.49-0.76,6.74-1.49,5.38-8.1
			c-0.48-2.32-2.21-3.64-4.39-4.25c-3.33-0.92-6.68-0.8-9.93,0.41c-2.32,0.86-3.87,2.49-4.65,4.85
			C354.1,336.13,354.08,336.12,351.23,335.65z M374.26,342.55c-4.12,0.61-8.11,1.13-12.07,1.83c-1.91,0.34-3.87,0.77-5.6,1.59
			c-2.96,1.41-3.49,4.21-3.28,7.17c0.19,2.7,1.54,4.8,4.19,5.4c2.27,0.52,4.73,0.67,7.05,0.44c4.95-0.48,9.25-4.6,9.67-9.14
			C374.45,347.38,374.26,344.86,374.26,342.55z"/>
		<path class="st0" d="M281.06,335.74c-0.99,0-2,0-3.02,0c-0.38-3.96,2.44-8.08,6.8-9.64c4.2-1.5,8.54-1.67,12.84-0.37
			c3.83,1.16,6.2,3.78,6.54,7.77c0.3,3.46,0.2,6.96,0.23,10.45c0.03,3.92,0,7.83,0.01,11.75c0.01,3,0.86,3.67,3.83,3.05
			c0.65,2.4,0.37,2.79-2.03,2.86c-3.36,0.1-4.89-1.29-5.07-4.6c-0.02-0.34-0.04-0.69-0.09-1.33c-0.61,0.67-1.01,1.09-1.4,1.53
			c-4.16,4.67-11.8,6.34-17.57,3.82c-4.02-1.75-5.86-5.01-5.6-9.96c0.22-4.23,2.61-7.37,7.13-8.48c3.79-0.93,7.7-1.51,11.6-1.83
			c6.57-0.55,6.93-3.89,4.7-9.52c-0.97-2.46-3.57-3.16-5.99-3.28c-2.23-0.12-4.56,0.02-6.73,0.53
			C283.67,329.34,282.31,331.14,281.06,335.74z M301.05,342.54c-4.23,0.63-8.28,1.17-12.3,1.85c-1.73,0.3-3.49,0.72-5.11,1.39
			c-2.99,1.22-3.73,3.9-3.72,6.78c0.01,3.09,1.51,5.35,4.4,6.03c2.27,0.53,4.75,0.67,7.06,0.39c5.4-0.65,9.21-4.8,9.64-10.19
			C301.19,346.66,301.05,344.51,301.05,342.54z"/>
		<path class="st0" d="M881.25,335.72c-1.16,0-2.17,0-3.17,0c-0.19-4.13,2.47-8,6.76-9.59c3.94-1.46,8.04-1.67,12.12-0.62
			c4.96,1.27,7.48,4.53,7.54,9.72c0.07,6.73,0.02,13.45,0.03,20.18c0,3.29,0.74,3.92,3.91,3.36c0.51,2.5,0.29,2.79-2.16,2.85
			c-3.54,0.08-4.72-1.19-5.16-5.91c-0.57,0.65-0.98,1.12-1.4,1.59c-4.24,4.71-12.23,6.32-17.93,3.55c-3.48-1.69-5.12-4.58-5.21-8.39
			c-0.09-3.91,1.12-7.26,4.89-8.88c2.49-1.07,5.24-1.61,7.92-2.13c2.88-0.56,5.84-0.71,8.72-1.25c2.29-0.43,2.92-1.39,3.03-3.7
			c0.25-5.21-1.97-8.04-7.16-8.53c-2.21-0.21-4.55,0.05-6.72,0.56C883.58,329.36,881.68,332.02,881.25,335.72z M901.28,342.52
			c-4.47,0.66-8.64,1.2-12.78,1.9c-1.67,0.28-3.36,0.74-4.91,1.41c-2.97,1.28-3.68,3.98-3.58,6.85c0.09,2.85,1.38,5.23,4.33,5.89
			c2.22,0.5,4.61,0.62,6.88,0.42c4.41-0.37,8.69-3.82,9.47-7.83C901.25,348.29,901.12,345.28,901.28,342.52z"/>
		<path class="st0" d="M230.41,343.74c-4.86,0-9.32,0-13.78,0c-4.47,0-8.93,0-13.39,0c-0.46,11.15,6.83,17.42,16.48,14.83
			c3.89-1.04,5.72-4.16,6.97-7.83c0.99,0,2,0,3.02,0c-0.25,4.57-4.36,9.35-9.2,10.73c-10.05,2.85-19.12-3.12-20.54-13.43
			c-0.84-6.13-0.45-12.02,3.37-17.15c3.98-5.34,9.57-6.89,15.86-5.51c5.66,1.24,8.83,5.28,10.17,10.71
			C229.97,338.48,230.06,340.99,230.41,343.74z M203.24,340.97c7.75,0,15.5,0,23.24,0c0.55-7.2-3.76-12.77-10.06-13.12
			C208.94,327.43,203.69,332.62,203.24,340.97z"/>
		<path class="st0" d="M477.64,343.74c-9.06,0-17.93,0-26.77,0c-0.86,8.54,4.71,17.87,16.35,14.84c3.06-0.8,4.93-3.06,6.21-5.83
			c1.08-2.34,1.07-2.34,3.79-1.95c-0.33,4.7-4.52,9.44-9.49,10.74c-10.26,2.69-19.06-3.41-20.4-14.14c-0.6-4.82-0.29-9.54,1.9-13.95
			c2.84-5.7,7.6-8.51,13.91-8.51c5.72,0,9.98,2.64,12.53,7.78C477.36,336.09,477.74,339.72,477.64,343.74z M474.15,340.99
			c0.22-8.23-4.72-13.55-12.01-13.14c-6.5,0.36-12.02,6.8-11.22,13.14C458.62,340.99,466.32,340.99,474.15,340.99z"/>
		<path class="st0" d="M798.49,356.86c4.07-10.93,8.16-21.9,12.25-32.88c1.15-3.09,2.31-6.17,3.46-9.26c1.1-2.95,1.1-2.95,4.5-2.48
			c-1.32,3.57-2.6,7.11-3.92,10.64c-4.5,12-9.01,24-13.52,35.99c-0.96,2.55-0.97,2.54-4.68,2.28c-6-16.23-12.02-32.52-18.04-48.83
			c3.29-0.72,3.47-0.61,4.55,2.35C788.23,328.77,793.38,342.87,798.49,356.86z"/>
		<path class="st0" d="M676.17,343.36c0.01-3.02,0.61-6.03,1.84-9.08c2.6-6.46,8.77-9.97,15.55-9.31
			c7.18,0.69,12.38,5.22,14.02,12.28c1.24,5.31,1.11,10.56-1.1,15.62c-2.76,6.33-7.89,9.36-15.28,9.18
			c-6.05-0.15-11.32-3.87-13.47-9.92C676.69,349.16,676.16,346.26,676.17,343.36z M704.89,343.38c-0.05-2.12-0.4-4.24-0.96-6.29
			c-1.49-5.48-5.73-9.04-10.78-9.28c-5.85-0.28-10.24,2.52-12.26,8.24c-2.02,5.69-1.92,11.43,0.91,16.88
			c2.15,4.14,5.67,6.25,10.42,6.26c4.76,0.01,8.19-2.15,10.46-6.22C704.35,349.99,704.98,346.69,704.89,343.38z"/>
		<path class="st0" d="M571.31,343.5c0.1,5.42-1.49,10.78-5.58,14.7c-6.44,6.17-20.35,5.73-24.92-5.67
			c-2.3-5.73-2.39-11.56-0.25-17.36c2.48-6.71,8.14-10.47,15.17-10.24c7.06,0.23,12.58,4.48,14.51,11.39
			C570.89,338.64,571.27,341.07,571.31,343.5z M542.56,343.69c0.03,3.43,0.68,7.12,2.87,10.4c4.61,6.91,14.82,6.93,19.48,0.05
			c3.86-5.71,3.94-15.34,0.16-21.08c-4.79-7.29-15.49-7.09-19.99,0.39C543.26,336.47,542.62,339.8,542.56,343.69z"/>
		<path class="st0" d="M512.81,361.2c-1.04,0-2.01,0-3.25,0c0-0.7,0-1.35,0-1.99c0-7.34-0.18-14.68,0.05-22.01
			c0.29-9.3-6.45-10.4-12.13-8.77c-5.26,1.51-8.1,5.39-8.11,10.84c-0.01,6.6,0,13.21,0,19.81c0,0.66,0,1.32,0,2.09
			c-1.19,0-2.2,0-3.34,0c0-11.78,0-23.54,0-35.41c1.06,0,2.08,0,3.3,0c0,1.74,0,3.49,0,5.23c0.13,0.06,0.26,0.11,0.38,0.17
			c0.45-0.52,0.9-1.04,1.35-1.55c3.66-4.17,10.34-5.86,15.47-3.84c3.76,1.48,6.13,4.29,6.22,8.31
			C512.94,343.03,512.81,352.01,512.81,361.2z"/>
		<path class="st0" d="M604.07,334.97c-1.12,0-2.07,0-3.24,0c-0.52-3.1-2.2-5.4-5.37-6.41c-3.1-0.99-6.17-0.94-9.16,0.31
			c-2.43,1.01-3.74,2.88-3.76,5.56c-0.02,2.59,1.49,4.13,3.73,4.88c2.89,0.98,5.87,1.68,8.8,2.54c1.52,0.45,3.06,0.89,4.53,1.49
			c7.52,3.06,6.66,12.11,2.07,15.83c-5.07,4.1-15.03,3.94-19.88-0.43c-2.34-2.11-3.54-4.77-3.8-8.03c1.1,0,2.16,0,3.34,0
			c0.15,0.61,0.31,1.25,0.48,1.88c0.58,2.24,1.83,4.05,3.88,5.11c4,2.06,8.15,2.13,12.21,0.25c2.79-1.29,3.91-3.72,3.85-6.74
			c-0.06-2.93-1.92-4.42-4.4-5.21c-3.26-1.04-6.6-1.82-9.87-2.82c-1.4-0.42-2.78-0.98-4.05-1.7c-5.38-3.04-5.78-10.2-0.83-13.91
			c4.35-3.27,12.17-3.56,16.73-0.6C602.17,328.81,603.53,331.55,604.07,334.97z"/>
		<path class="st0" d="M721.58,361.17c-1.22,0-2.18,0-3.23,0c0-11.81,0-23.53,0-35.38c1,0,2,0,3.17,0c0,1.77,0,3.58,0,5.86
			c0.59-0.7,0.88-1.03,1.16-1.37c3.71-4.61,10.31-6.56,15.74-4.65c4.16,1.47,6.55,4.54,6.66,8.78c0.24,8.85,0.07,17.72,0.07,26.72
			c-1.05,0-2.06,0-3.35,0c0-0.6,0-1.25,0-1.89c0-7.28,0-14.55,0-21.83c0-8.13-5.03-11.58-12.77-8.76c-4.86,1.77-7.45,5.43-7.46,10.6
			c-0.01,6.79,0,13.58,0,20.36C721.58,360.08,721.58,360.56,721.58,361.17z"/>
		<path class="st0" d="M669,335.75c-2.9,0.44-2.9,0.44-3.9-2.06c-1.75-4.36-6.55-6.71-11.72-5.74c-5.53,1.04-8.54,4.27-9.83,10.65
			c-0.93,4.6-0.71,9.15,1.11,13.5c2.18,5.21,6.3,7.48,12.25,6.96c4.5-0.39,7.98-3.69,9.22-8.71c0.09-0.35,0.15-0.7,0.24-1.12
			c1.03,0,1.99,0,2.95,0c0.17,5.12-3.85,10.49-9.03,12.12c-9.68,3.05-18.74-2.64-20.24-12.65c-0.75-4.98-0.62-9.87,1.28-14.6
			c4.15-10.32,15.98-10.92,22.38-6.94C666.84,329.11,668.5,332.1,669,335.75z"/>
		<path class="st0" d="M336.82,314.99c1.28,0,2.24,0,3.41,0c0,3.54,0,6.99,0,10.62c2.26,0,4.32,0,6.48,0c0,0.99,0,1.82,0,2.84
			c-2.11,0-4.17,0-6.45,0c0,0.86,0,1.51,0,2.17c0,7.53,0,15.05,0,22.58c0,5.25,0.93,6,6.09,4.94c0.42,2.84,0.24,3.07-2.51,3.27
			c-4.58,0.33-6.96-1.83-6.97-6.39c-0.02-8.08-0.01-16.15-0.01-24.23c0-0.67,0-1.33,0-2.26c-1.84,0-3.57,0-5.4,0
			c0-1.04,0-1.81,0-2.8c1.69,0,3.43,0,5.37,0C336.82,322.05,336.82,318.6,336.82,314.99z"/>
		<path class="st0" d="M527.47,328.38c0,1.65,0,2.99,0,4.32c0,7.16,0,14.31,0,21.47c0,3.95,1.37,5.02,5.26,4.11
			c0.28-0.07,0.55-0.16,0.84-0.25c0.35,3,0.23,3.16-2.53,3.37c-4.58,0.34-6.95-1.79-6.96-6.37c-0.03-8.14-0.01-16.27-0.01-24.41
			c0-0.65,0-1.31,0-2.16c-1.91,0-3.61,0-5.41,0c0-1.01,0-1.83,0-2.79c1.76,0,3.45,0,5.35,0c0-3.6,0-7.05,0-10.64c1.2,0,2.2,0,3.4,0
			c0,3.45,0,6.9,0,10.58c2.29,0,4.4,0,6.57,0c0,1,0,1.78,0,2.76C531.89,328.38,529.83,328.38,527.47,328.38z"/>
		<path class="st0" d="M318.31,361.17c-1.21,0-2.17,0-3.22,0c0-11.81,0-23.52,0-35.38c0.99,0,1.99,0,3.13,0c0,2.09,0,4.21,0,6.37
			c1.73-1.72,3.15-3.68,5.05-4.88c1.88-1.18,4.26-1.59,6.71-2.43c0,1.63,0,2.69,0,3.81c-1.18,0.16-2.36,0.18-3.46,0.49
			c-4.9,1.37-8.15,5.92-8.2,11.55c-0.06,6.11-0.01,12.23-0.02,18.34C318.31,359.7,318.31,360.36,318.31,361.17z"/>
		<path class="st0" d="M824.71,325.74c1.02,0,1.98,0,3.1,0c0,11.74,0,23.51,0,35.4c-0.97,0-1.97,0-3.1,0
			C824.71,349.36,824.71,337.6,824.71,325.74z"/>
		<path class="st0" d="M824.74,312.13c1.1,0,2.06,0,3.13,0c0,1.75,0,3.43,0,5.26c-0.98,0-1.98,0-3.13,0
			C824.74,315.72,824.74,314,824.74,312.13z"/>
	</g>
</g>
</svg>
