<?xml version="1.0" encoding="utf-8"?>
<!-- Generator: Adobe Illustrator 27.2.0, SVG Export Plug-In . SVG Version: 6.00 Build 0)  -->
<svg version="1.1" id="Capa_1" xmlns="http://www.w3.org/2000/svg" xmlns:xlink="http://www.w3.org/1999/xlink" x="0px" y="0px"
	 viewBox="0 0 893.34 836.71" style="enable-background:new 0 0 893.34 836.71;" xml:space="preserve">
<style type="text/css">
	.st0{fill:#FFFFFF;}
</style>
<g>
	<g>
		<path class="st0" d="M446.67,0c-119.79,0-216.9,99.57-216.9,222.39s97.11,222.39,216.9,222.39s216.9-99.57,216.9-222.39
			S566.46,0,446.67,0z M446.67,429.33c-111.73,0-202.31-92.87-202.31-207.43S334.94,14.48,446.67,14.48s202.31,92.87,202.31,207.43
			S558.4,429.33,446.67,429.33z"/>
		<path class="st0" d="M446.67,66.44c-84.16,0-152.39,69.95-152.39,156.24s68.23,156.24,152.39,156.24s152.39-69.95,152.39-156.24
			S530.83,66.44,446.67,66.44z M585.2,216.83C529.08,185.38,466.11,98.14,454.37,81.43C525.5,84.88,582.48,143.72,585.2,216.83z
			 M443.12,340.68c0,0-60.09-86.62-112.52-112.98v-8.98c0,0,81.7-59.1,110.96-115.3h9.85c0,0,59.97,87.78,111.82,115.3v8.98
			c0,0-75.9,51.57-111.82,112.98H443.12z M438.93,81.57c-32.06,58.7-109.49,119.2-128.53,133.53
			C313.9,143.56,369.4,86.09,438.93,81.57z M310.52,231.49c56.15,30.93,117.99,115.04,129.84,131.63
			C370.81,359.33,314.98,302.58,310.52,231.49z M454.1,363.16c39.51-65.46,115.44-121.1,130.93-132.05
			C580.72,302.74,524.27,359.9,454.1,363.16z"/>
	</g>
	<g>
		<path class="st0" d="M123.64,797.15c0-0.36,0.12-0.66,0.35-0.89c0.23-0.23,0.53-0.35,0.89-0.35h12.83c1.73,0,3.36,0.33,4.87,0.99
			c1.52,0.66,2.84,1.55,3.97,2.68c1.13,1.13,2.02,2.45,2.68,3.97c0.66,1.52,0.99,3.14,0.99,4.87c0,1.73-0.33,3.36-0.99,4.87
			c-0.66,1.52-1.55,2.84-2.68,3.97c-1.13,1.13-2.44,2.02-3.95,2.68c-1.51,0.66-3.11,0.99-4.83,0.99h-11.03v13.94
			c0,0.83-0.42,1.25-1.26,1.25h-0.66c-0.8,0-1.2-0.42-1.2-1.25V797.15z M147.17,808.42c0-1.32-0.25-2.55-0.74-3.71
			c-0.5-1.15-1.17-2.17-2.01-3.03s-1.85-1.55-3-2.04c-1.15-0.5-2.38-0.74-3.68-0.74h-10.98v19.06h10.98c1.3,0,2.52-0.25,3.68-0.74
			c1.15-0.5,2.15-1.18,3-2.04c0.85-0.87,1.52-1.88,2.01-3.03C146.92,810.97,147.17,809.73,147.17,808.42z"/>
		<path class="st0" d="M191.13,832.73c0.31,0,0.55,0.09,0.73,0.26c0.18,0.17,0.27,0.42,0.27,0.74v1.41c0,0.29-0.09,0.52-0.27,0.7
			c-0.18,0.18-0.42,0.27-0.73,0.27h-23.55c-0.65,0-0.97-0.32-0.97-0.98v-38.28c0-0.29,0.09-0.52,0.26-0.7
			c0.17-0.18,0.42-0.27,0.74-0.27h1.41c0.31,0,0.55,0.08,0.72,0.24c0.17,0.16,0.26,0.41,0.26,0.73v35.87H191.13z"/>
		<path class="st0" d="M204.86,835.14c0.13-0.41,0.26-0.8,0.39-1.15c0.14-0.35,0.27-0.67,0.39-0.96l15.22-36.44
			c0.09-0.2,0.2-0.38,0.33-0.54c0.13-0.16,0.33-0.24,0.62-0.24h0.11h0.89h0.11c0.31,0,0.52,0.08,0.65,0.24
			c0.13,0.16,0.24,0.32,0.35,0.49l15.89,38.28c0.02,0.04,0.04,0.12,0.05,0.26c0.02,0.14,0.03,0.23,0.03,0.28
			c0,0.43-0.29,0.69-0.87,0.76h-1.43c-0.04,0-0.07,0-0.11,0.01c-0.04,0.01-0.07,0.01-0.11,0.01c-0.45,0-0.78-0.25-0.97-0.76
			l-3.79-9.2h-20.52c-0.7,1.73-1.38,3.38-2.02,4.95c-0.64,1.57-1.22,3.01-1.75,4.3c-0.2,0.45-0.51,0.68-0.95,0.68
			c-0.11,0-0.19-0.01-0.24-0.03h-1.43c-0.58-0.05-0.87-0.29-0.87-0.7c0-0.04,0-0.08,0-0.12
			C204.83,835.21,204.84,835.17,204.86,835.14z M213.5,822.79h17.73l-8.83-21.63L213.5,822.79z"/>
		<path class="st0" d="M282.13,833.03c0.67,0,1,0.33,1,0.99v1.07c0,0.3-0.09,0.55-0.27,0.74c-0.18,0.19-0.42,0.28-0.73,0.28h-28.81
			c-0.27,0-0.48-0.05-0.64-0.16c-0.15-0.11-0.26-0.26-0.32-0.45c-0.06-0.19-0.1-0.41-0.11-0.66s-0.01-0.52-0.01-0.81
			c0-0.18,0.02-0.35,0.07-0.52c0.04-0.16,0.14-0.31,0.28-0.43l26.29-34.06h-24.64c-0.69,0-1.03-0.34-1.03-1.03v-1.14
			c0-0.65,0.34-0.98,1.03-0.98h27.97c0.29,0,0.53,0.09,0.73,0.27c0.2,0.18,0.3,0.42,0.3,0.73v1.27c0,0.33-0.09,0.58-0.27,0.76
			l-26.23,34.11H282.13z"/>
		<path class="st0" d="M297.72,835.14c0.13-0.41,0.26-0.8,0.39-1.15c0.14-0.35,0.27-0.67,0.39-0.96l15.22-36.44
			c0.09-0.2,0.2-0.38,0.33-0.54c0.13-0.16,0.33-0.24,0.62-0.24h0.11h0.89h0.11c0.31,0,0.52,0.08,0.65,0.24
			c0.13,0.16,0.24,0.32,0.35,0.49l15.89,38.28c0.02,0.04,0.04,0.12,0.05,0.26c0.02,0.14,0.03,0.23,0.03,0.28
			c0,0.43-0.29,0.69-0.87,0.76h-1.43c-0.04,0-0.07,0-0.11,0.01c-0.04,0.01-0.07,0.01-0.11,0.01c-0.45,0-0.78-0.25-0.97-0.76
			l-3.79-9.2h-20.52c-0.7,1.73-1.38,3.38-2.02,4.95c-0.64,1.57-1.22,3.01-1.75,4.3c-0.2,0.45-0.51,0.68-0.95,0.68
			c-0.11,0-0.19-0.01-0.24-0.03h-1.43c-0.58-0.05-0.87-0.29-0.87-0.7c0-0.04,0-0.08,0-0.12
			C297.7,835.21,297.71,835.17,297.72,835.14z M306.36,822.79h17.73l-8.83-21.63L306.36,822.79z"/>
		<path class="st0" d="M406.13,799.75c0.38,0.25,0.57,0.53,0.57,0.84c0,0.2-0.07,0.39-0.22,0.57l-0.73,0.92
			c-0.13,0.15-0.25,0.26-0.37,0.35c-0.12,0.09-0.25,0.14-0.39,0.14c-0.27,0-0.63-0.16-1.08-0.49c-1.57-1.14-3.23-2.03-4.97-2.67
			c-1.74-0.64-3.56-0.96-5.46-0.96c-1.66,0-3.25,0.22-4.76,0.65c-1.52,0.43-2.93,1.04-4.24,1.83c-1.31,0.79-2.5,1.72-3.56,2.8
			c-1.07,1.08-1.98,2.28-2.73,3.58c-0.76,1.3-1.34,2.68-1.76,4.15c-0.42,1.46-0.62,2.96-0.62,4.5c0,1.55,0.22,3.08,0.66,4.57
			c0.44,1.49,1.06,2.89,1.84,4.2s1.72,2.51,2.8,3.6c1.08,1.09,2.26,2.04,3.55,2.83c1.28,0.8,2.64,1.41,4.09,1.86
			s2.92,0.66,4.44,0.66c0.92,0,1.87-0.09,2.86-0.27c0.98-0.18,1.95-0.44,2.91-0.79c0.96-0.34,1.89-0.76,2.8-1.26
			c0.91-0.5,1.75-1.06,2.5-1.69c0.22-0.16,0.44-0.24,0.68-0.24c0.38,0,0.71,0.23,1,0.68l0.41,0.65c0.13,0.22,0.19,0.44,0.19,0.68
			c0,0.4-0.18,0.73-0.54,1c-1.77,1.35-3.72,2.41-5.85,3.15c-2.13,0.75-4.4,1.12-6.82,1.12c-1.88,0-3.7-0.24-5.46-0.73
			c-1.76-0.49-3.4-1.18-4.93-2.09c-1.53-0.9-2.92-1.98-4.18-3.23c-1.26-1.25-2.34-2.65-3.24-4.2c-0.89-1.54-1.59-3.2-2.08-4.97
			c-0.5-1.77-0.74-3.61-0.74-5.52c0-1.88,0.24-3.7,0.73-5.46c0.49-1.76,1.18-3.4,2.08-4.93c0.9-1.52,1.98-2.91,3.24-4.17
			s2.65-2.33,4.2-3.22c1.54-0.89,3.2-1.59,4.97-2.08c1.77-0.5,3.61-0.74,5.52-0.74c2.33,0,4.58,0.38,6.77,1.14
			C402.38,797.27,404.36,798.35,406.13,799.75z"/>
		<path class="st0" d="M421.4,816.05c0-1.89,0.24-3.72,0.73-5.48c0.49-1.76,1.18-3.4,2.07-4.93c0.89-1.52,1.97-2.92,3.22-4.18
			c1.25-1.26,2.65-2.34,4.18-3.24c1.53-0.89,3.18-1.59,4.93-2.08c1.75-0.5,3.58-0.74,5.5-0.74c1.88,0,3.69,0.25,5.45,0.74
			c1.76,0.5,3.4,1.19,4.93,2.08c1.53,0.89,2.92,1.97,4.17,3.22s2.33,2.65,3.22,4.18c0.89,1.53,1.59,3.19,2.08,4.95
			c0.5,1.77,0.74,3.6,0.74,5.5c0,1.9-0.25,3.72-0.74,5.47s-1.19,3.39-2.08,4.91c-0.89,1.52-1.97,2.91-3.22,4.16
			c-1.25,1.25-2.64,2.31-4.17,3.21c-1.52,0.89-3.17,1.58-4.93,2.07c-1.76,0.49-3.59,0.73-5.48,0.73c-1.9,0-3.72-0.24-5.48-0.73
			c-1.76-0.49-3.4-1.18-4.93-2.07c-1.53-0.89-2.91-1.97-4.17-3.22c-1.25-1.25-2.33-2.64-3.22-4.17c-0.89-1.52-1.58-3.16-2.07-4.91
			C421.64,819.77,421.4,817.95,421.4,816.05z M424.57,816.02c0,2.42,0.46,4.68,1.37,6.8c0.91,2.11,2.16,3.96,3.74,5.54
			c1.58,1.58,3.43,2.82,5.55,3.74c2.12,0.91,4.39,1.37,6.81,1.37c1.61,0,3.15-0.21,4.63-0.62c1.48-0.42,2.87-1,4.16-1.76
			c1.29-0.76,2.47-1.66,3.53-2.72c1.06-1.06,1.98-2.23,2.73-3.52c0.76-1.29,1.34-2.68,1.76-4.17s0.62-3.04,0.62-4.64
			c0-2.4-0.46-4.66-1.38-6.77c-0.92-2.11-2.17-3.96-3.75-5.54c-1.58-1.58-3.43-2.83-5.54-3.75c-2.11-0.92-4.37-1.38-6.77-1.38
			c-1.61,0-3.15,0.21-4.64,0.62c-1.49,0.42-2.88,1-4.18,1.76c-1.3,0.76-2.48,1.67-3.53,2.73c-1.06,1.07-1.96,2.24-2.72,3.53
			c-0.76,1.29-1.34,2.68-1.76,4.17C424.77,812.9,424.57,814.43,424.57,816.02z"/>
		<path class="st0" d="M518.54,816.01c0.6,6.31,1.2,12.67,1.81,19.07v0.05c0,0.65-0.32,0.98-0.98,0.98h-1.14
			c-0.65,0-0.99-0.33-1.03-1l-3.03-33.22l-13.75,30.62c-0.09,0.22-0.26,0.39-0.5,0.53s-0.45,0.2-0.61,0.2h-0.7
			c-0.27,0-0.48-0.03-0.62-0.09c-0.14-0.06-0.31-0.28-0.49-0.64c-2.31-5.13-4.61-10.23-6.89-15.31c-2.28-5.08-4.58-10.18-6.89-15.31
			l-3.03,33.22c0,0.69-0.33,1.03-1,1.03h-1.14c-0.32,0-0.57-0.1-0.73-0.31c-0.16-0.21-0.24-0.46-0.24-0.77l3.57-38.12
			c0.04-0.36,0.17-0.62,0.41-0.79c0.23-0.16,0.48-0.24,0.73-0.24h0.11h1.68c0.31,0.05,0.55,0.28,0.73,0.68l14.13,31.68l14.13-31.65
			c0.09-0.23,0.23-0.41,0.43-0.53c0.2-0.12,0.42-0.19,0.66-0.22c0.24-0.03,0.5-0.04,0.77-0.03c0.27,0.01,0.52,0.01,0.73,0.01
			c0.32,0,0.58,0.09,0.77,0.26c0.19,0.17,0.29,0.38,0.31,0.64v0.19C517.35,803.34,517.94,809.7,518.54,816.01z"/>
		<path class="st0" d="M563.78,795.88c0.68,0,1.03,0.34,1.03,1.02v1.34c0,0.3-0.09,0.55-0.26,0.74c-0.17,0.19-0.44,0.28-0.8,0.28
			h-23.64v14.13h19.01c0.31,0,0.56,0.08,0.74,0.23c0.19,0.15,0.28,0.41,0.28,0.77v1.38c0,0.31-0.09,0.55-0.26,0.73
			c-0.17,0.18-0.43,0.27-0.77,0.27h-19.01v15.95h23.99c0.69,0,1.03,0.33,1.03,1v1.41c0,0.65-0.33,0.98-1,0.98h-26.54
			c-0.25,0-0.46-0.08-0.62-0.23c-0.16-0.15-0.24-0.39-0.24-0.72v-38.28c0-0.36,0.09-0.62,0.27-0.77c0.18-0.15,0.42-0.23,0.72-0.23
			H563.78z"/>
		<path class="st0" d="M596.73,795.88c1.75,0.02,3.39,0.36,4.91,1.03c1.53,0.67,2.85,1.58,3.98,2.72c1.13,1.15,2.02,2.48,2.67,4.01
			c0.65,1.53,0.97,3.15,0.97,4.89c0,1.28-0.18,2.51-0.54,3.68c-0.36,1.17-0.87,2.26-1.53,3.25c-0.66,0.99-1.44,1.88-2.36,2.67
			c-0.91,0.79-1.92,1.42-3.02,1.91l6.8,14.89c0.09,0.22,0.14,0.38,0.14,0.49c0,0.18-0.02,0.32-0.05,0.41
			c-0.04,0.09-0.14,0.16-0.3,0.2c-0.16,0.05-0.41,0.07-0.76,0.08c-0.34,0.01-0.83,0.01-1.46,0.01c-0.32,0-0.56-0.17-0.7-0.51
			l-6.66-14.76c-0.36,0.09-0.73,0.16-1.1,0.2c-0.37,0.05-0.79,0.07-1.26,0.07h-13.18v14.02c0,0.65-0.32,0.98-0.97,0.98h-1.16
			c-0.65,0-0.98-0.32-0.98-0.98v-38.36c0.11-0.32,0.23-0.56,0.35-0.69c0.13-0.14,0.33-0.2,0.62-0.2H596.73z M595.16,818.03h0.43
			c0.7,0,1.4-0.02,2.08-0.05c0.69-0.04,1.36-0.17,2.03-0.41c0.94-0.32,1.81-0.78,2.6-1.36c0.79-0.58,1.48-1.26,2.04-2.05
			c0.57-0.79,1.01-1.66,1.33-2.62c0.32-0.96,0.47-1.96,0.47-3.01c0-1.3-0.24-2.54-0.73-3.7c-0.49-1.17-1.16-2.18-2.02-3.05
			c-0.86-0.87-1.86-1.55-3.02-2.06c-1.15-0.51-2.4-0.76-3.74-0.76h-13.37v19.06H595.16z"/>
		<path class="st0" d="M657.24,799.75c0.38,0.25,0.57,0.53,0.57,0.84c0,0.2-0.07,0.39-0.22,0.57l-0.73,0.92
			c-0.13,0.15-0.25,0.26-0.37,0.35c-0.12,0.09-0.25,0.14-0.39,0.14c-0.27,0-0.63-0.16-1.08-0.49c-1.57-1.14-3.23-2.03-4.97-2.67
			c-1.74-0.64-3.56-0.96-5.46-0.96c-1.66,0-3.25,0.22-4.77,0.65c-1.52,0.43-2.93,1.04-4.24,1.83c-1.31,0.79-2.5,1.72-3.56,2.8
			c-1.06,1.08-1.98,2.28-2.73,3.58c-0.76,1.3-1.35,2.68-1.76,4.15c-0.42,1.46-0.62,2.96-0.62,4.5c0,1.55,0.22,3.08,0.66,4.57
			c0.44,1.49,1.06,2.89,1.84,4.2c0.78,1.31,1.72,2.51,2.8,3.6c1.08,1.09,2.26,2.04,3.55,2.83c1.28,0.8,2.64,1.41,4.09,1.86
			c1.44,0.44,2.92,0.66,4.44,0.66c0.92,0,1.87-0.09,2.86-0.27c0.98-0.18,1.95-0.44,2.91-0.79c0.96-0.34,1.89-0.76,2.8-1.26
			c0.91-0.5,1.75-1.06,2.5-1.69c0.22-0.16,0.44-0.24,0.68-0.24c0.38,0,0.71,0.23,1,0.68l0.41,0.65c0.13,0.22,0.19,0.44,0.19,0.68
			c0,0.4-0.18,0.73-0.54,1c-1.77,1.35-3.72,2.41-5.85,3.15c-2.13,0.75-4.4,1.12-6.82,1.12c-1.88,0-3.7-0.24-5.46-0.73
			c-1.76-0.49-3.4-1.18-4.93-2.09c-1.53-0.9-2.92-1.98-4.18-3.23c-1.26-1.25-2.34-2.65-3.24-4.2c-0.89-1.54-1.59-3.2-2.08-4.97
			c-0.5-1.77-0.74-3.61-0.74-5.52c0-1.88,0.24-3.7,0.73-5.46c0.49-1.76,1.18-3.4,2.09-4.93c0.9-1.52,1.98-2.91,3.24-4.17
			c1.25-1.25,2.65-2.33,4.2-3.22c1.54-0.89,3.2-1.59,4.97-2.08c1.77-0.5,3.61-0.74,5.52-0.74c2.33,0,4.58,0.38,6.77,1.14
			C653.49,797.27,655.47,798.35,657.24,799.75z"/>
		<path class="st0" d="M674.43,796.86c0-0.29,0.09-0.52,0.26-0.7c0.17-0.18,0.42-0.27,0.74-0.27h1.4c0.29,0,0.52,0.09,0.71,0.26
			c0.19,0.17,0.28,0.41,0.28,0.72v38.28c0,0.65-0.33,0.98-0.99,0.98h-1.4c-0.66,0-0.99-0.32-0.99-0.98V796.86z"/>
		<path class="st0" d="M693.57,835.14c0.13-0.41,0.26-0.8,0.39-1.15s0.27-0.67,0.39-0.96l15.22-36.44c0.09-0.2,0.2-0.38,0.32-0.54
			c0.13-0.16,0.33-0.24,0.62-0.24h0.11h0.89h0.11c0.31,0,0.52,0.08,0.65,0.24c0.13,0.16,0.24,0.32,0.35,0.49l15.89,38.28
			c0.02,0.04,0.04,0.12,0.05,0.26c0.02,0.14,0.03,0.23,0.03,0.28c0,0.43-0.29,0.69-0.87,0.76h-1.43c-0.04,0-0.07,0-0.11,0.01
			c-0.04,0.01-0.07,0.01-0.11,0.01c-0.45,0-0.78-0.25-0.98-0.76l-3.79-9.2H700.8c-0.7,1.73-1.38,3.38-2.02,4.95
			c-0.64,1.57-1.22,3.01-1.75,4.3c-0.2,0.45-0.51,0.68-0.95,0.68c-0.11,0-0.19-0.01-0.24-0.03h-1.43c-0.58-0.05-0.87-0.29-0.87-0.7
			c0-0.04,0-0.08,0-0.12C693.54,835.21,693.55,835.17,693.57,835.14z M702.21,822.79h17.73l-8.83-21.63L702.21,822.79z"/>
		<path class="st0" d="M768.7,832.73c0.31,0,0.55,0.09,0.73,0.26c0.18,0.17,0.27,0.42,0.27,0.74v1.41c0,0.29-0.09,0.52-0.27,0.7
			c-0.18,0.18-0.42,0.27-0.73,0.27h-23.55c-0.65,0-0.97-0.32-0.97-0.98v-38.28c0-0.29,0.09-0.52,0.26-0.7
			c0.17-0.18,0.42-0.27,0.74-0.27h1.41c0.31,0,0.55,0.08,0.72,0.24c0.17,0.16,0.26,0.41,0.26,0.73v35.87H768.7z"/>
	</g>
	<g>
		<path class="st0" d="M92.56,548.98C41.44,548.98,0,590.42,0,641.54c0,51.12,41.44,92.56,92.56,92.56
			c51.12,0,92.56-41.44,92.56-92.56C185.12,590.42,143.68,548.98,92.56,548.98z M92.56,709.76c-37.23,0-67.4-30.18-67.4-67.4
			c0-37.23,30.18-67.4,67.4-67.4c37.23,0,67.4,30.18,67.4,67.4C159.96,679.59,129.78,709.76,92.56,709.76z"/>
		<path class="st0" d="M274.64,551.78h-49.01v180.87h49.01c47.81,0,86.57-38.76,86.57-86.57v-7.73
			C361.21,590.54,322.45,551.78,274.64,551.78z M337.26,643.91c0,36.37-29.49,65.86-65.86,65.86h-21.92V574.96h21.92
			c36.37,0,65.86,29.49,65.86,65.86V643.91z"/>
		<path class="st0" d="M512.24,732.65h27.67l-78.76-181.99l-0.03-0.08l0,0l0,0l-0.03,0.08l-78.76,181.99h27.67l12.6-29.84h77.06
			L512.24,732.65z M430.96,682.97l30.15-71.39l30.15,71.39H430.96z"/>
		<path class="st0" d="M865.67,732.65h27.67l-78.76-181.99l-0.03-0.08l0,0l0,0l-0.03,0.08l-78.76,181.99h27.67l12.6-29.84h77.06
			L865.67,732.65z M784.39,682.97l30.15-71.39l30.15,71.39H784.39z"/>
		<path class="st0" d="M672.15,732.65h30.42l-42.74-66.66c23.02-7.94,39.56-29.78,39.56-55.5v0c0-32.43-26.29-58.71-58.71-58.71
			h-35.73h-5.21h-19.7v180.87h24.91v-63.44h26.17L672.15,732.65z M604.94,575.34h33.97c19.32,0,34.98,15.66,34.98,34.98v0
			c0,19.32-15.66,34.98-34.98,34.98h-33.97V575.34z"/>
	</g>
</g>
</svg>
