<?xml version="1.0" encoding="utf-8"?>
<!-- Generator: Adobe Illustrator 27.2.0, SVG Export Plug-In . SVG Version: 6.00 Build 0)  -->
<svg version="1.1" id="Capa_1" xmlns="http://www.w3.org/2000/svg" xmlns:xlink="http://www.w3.org/1999/xlink" x="0px" y="0px"
	 viewBox="0 0 1082.24 626.07" style="enable-background:new 0 0 1082.24 626.07;" xml:space="preserve">
<style type="text/css">
	.st0{fill:#FFFFFF;}
</style>
<g>
	<path class="st0" d="M44.93,179.12H20.05H9.68H0c7.95,40.44,0,112.44,0,112.44s27.65,0,26.96,0c-0.69,0-3.11-41.93-3.11-41.93
		h21.08c19.47,0,35.25-15.78,35.25-35.25S64.4,179.12,44.93,179.12z M57.14,217.49c0,10.88-8.82,19.7-19.7,19.7H23.85v-39.4h13.59
		C48.32,197.79,57.14,206.61,57.14,217.49L57.14,217.49z"/>
	<path class="st0" d="M168.66,291.56h31.11l-31.29-45.01c12.29-5.51,20.85-17.84,20.85-32.18c0-19.47-15.78-35.25-35.25-35.25
		h-24.88h-10.37h-9.68c7.95,40.44,0,112.44,0,112.44s27.65,0,26.96,0c-0.69,0-3.11-41.93-3.11-41.93h14.48L168.66,291.56z
		 M132.99,237.19v-39.4h13.59c10.88,0,19.7,8.82,19.7,19.7v0c0,10.88-8.82,19.7-19.7,19.7H132.99z"/>
	<path class="st0" d="M228.11,179.12h27.19c0,0-6.45,91.24,0,112.44h-25.81C229.49,291.56,235.48,212.07,228.11,179.12z"/>
	<path class="st0" d="M283.87,291.56L307.5,181.2c0.26-1.21,1.33-2.08,2.57-2.08h6.9c1.03,0,1.96,0.6,2.39,1.54l32.82,72.08
		l34.54-72.13c0.44-0.91,1.36-1.49,2.37-1.49h6.59c1.24,0,2.31,0.87,2.57,2.08l23.41,110.36h-25.23l-10.71-67.86l-32.95,67.86
		L319,225.09l-10.71,66.47H283.87z"/>
	<path class="st0" d="M504.89,181.92c-0.73-1.69-2.4-2.79-4.25-2.79h-7.72c-1.86,0-3.53,1.11-4.26,2.81l-46.73,109.63h25.35
		l10.14-26.27h38.71l9.45,26.27h26.73L504.89,181.92z M481.96,250.32l15.15-46.14l14.4,46.14H481.96z"/>
	<path class="st0" d="M1034.83,181.92c-0.73-1.69-2.4-2.79-4.25-2.79h-7.72c-1.85,0-3.53,1.11-4.26,2.81l-46.73,109.63h25.35
		l10.14-26.27h38.71l9.45,26.27h26.73L1034.83,181.92z M1011.91,250.32l15.15-46.14l14.4,46.14H1011.91z"/>
	<path class="st0" d="M575.57,262.99c0,0,3.23,26.5,3.23,26.5c18.99,5.11,45.06,8.33,58.32-9.48c4.91-6.59,7.29-14.86,6.53-23.06
		c-1.32-14.19-11.19-22.4-22.61-29.44c-8.25-5.09-28.77-16.06-21.03-28.57c0.08-0.14,0.17-0.28,0.26-0.41
		c4.8-7.08,14.73-5.58,21.76-3.47c3.64,1.09,6.99,2.75,10.34,4.54c1.68,0.9,9.15,4.2,9.29,6.48c0,0-1.56-25.4-1.56-25.4
		c-0.11-1.81-17.36-3.29-18.75-3.38c-11.99-0.84-26.81-0.99-35.98,8.03c-7.72,7.59-11.74,17.97-8.99,28.73
		c1.22,4.76,3.54,9.18,6.35,13.2c7.18,10.26,17.97,16.14,28.9,21.59c4.52,2.25,8.09,5.82,9.19,10.86c1.09,4.98,0.79,12.06-3.7,15.25
		c-8.16,5.79-18.71,2.64-26.37-2.27c-3.12-2-6.25-3.99-9.38-5.98C580.65,266.24,575.67,263.85,575.57,262.99z"/>
	<path class="st0" d="M676.03,179.12c0,0,6.45,68.89,0,112.44H741l3.11-26.38l-42.34,13.82c0,0-1.56-38.71-1.56-40.44l37.15,6.05
		l0.86-19.87l-38.36,1.38l1.73-35.43l42.51,11.06l-3.97-22.64H676.03z"/>
	<path class="st0" d="M778.33,179.12h26.09c0,0-2.59,96.43-2.59,98.5l45.1-12.44l-1.9,26.38h-66.7
		C778.33,291.56,786.28,221.12,778.33,179.12z"/>
	<path class="st0" d="M855.23,179.12c0.52-0.69,29.9,0,29.9,0l26.44,87.61l30.24-87.92h24.71l-47.7,112.75h-14.34L855.23,179.12z"/>
	<g>
		<path class="st0" d="M240.42,447.94l3.79-4.55v-14.73h-16.12v14.73l3.76,4.55v0.47h-16.71v-0.47l3.79-4.55v-30.1l-3.79-4.55v-0.47
			h16.71v0.47l-3.76,4.55v13.86h16.12V413.3l-3.79-4.55v-0.47h16.71v0.47l-3.77,4.55v30.1l3.77,4.55v0.47h-16.71V447.94z"/>
		<path class="st0" d="M266.34,447.94l4.91-4.46l10.96-29.43l-3.24-5.3v-0.47h10.91l13.3,35.17l4.38,4.49v0.47H288.9v-0.47
			l4.32-4.52l-2.71-7.59h-14.75L273,443.4h0.06l5.52,4.55v0.47h-12.24V447.94z M283.19,415.67l-6.86,18.66h13.64l-6.61-18.58
			l-0.08,0.03L283.19,415.67z M293.14,394.36l-11.6,9.09l-0.5-0.03l4.24-9.65h7.62L293.14,394.36z"/>
		<path class="st0" d="M320.79,413.3l-3.79-4.55v-0.47h19.52c2.45,0,4.59,0.24,6.4,0.73c1.81,0.48,3.32,1.15,4.52,1.99
			c1.2,0.85,2.1,1.85,2.69,3.01c0.59,1.16,0.89,2.41,0.89,3.75c0,1.12-0.2,2.19-0.6,3.21c-0.4,1.02-1,1.96-1.8,2.8
			c-0.8,0.85-1.81,1.59-3.04,2.23s-2.66,1.14-4.3,1.49c1.86,0.28,3.51,0.72,4.94,1.34c1.43,0.61,2.63,1.36,3.6,2.25
			c0.97,0.88,1.7,1.89,2.19,3.03c0.49,1.13,0.74,2.35,0.74,3.65c0,1.97-0.42,3.64-1.26,4.99s-2.05,2.45-3.64,3.29
			s-3.54,1.44-5.84,1.81c-2.31,0.37-4.93,0.56-7.86,0.56H317v-0.47l3.79-4.55V413.3z M333.71,426.91c1.4,0,2.59-0.21,3.58-0.64
			c0.99-0.43,1.8-1.03,2.43-1.8c0.63-0.77,1.09-1.68,1.38-2.73c0.29-1.05,0.43-2.21,0.43-3.47c0-1.23-0.13-2.36-0.39-3.4
			c-0.26-1.04-0.69-1.94-1.3-2.69c-0.61-0.75-1.4-1.34-2.38-1.77c-0.98-0.43-2.18-0.64-3.59-0.64h-3.94v17.15H333.71z
			 M329.94,446.94h3.75c1.64,0,3.04-0.21,4.21-0.64c1.16-0.43,2.12-1.04,2.86-1.84c0.75-0.8,1.3-1.78,1.65-2.94
			c0.35-1.16,0.53-2.48,0.53-3.95c0-1.39-0.17-2.65-0.5-3.78c-0.34-1.12-0.86-2.09-1.58-2.89c-0.72-0.8-1.64-1.42-2.75-1.85
			c-1.12-0.44-2.47-0.66-4.05-0.66h-4.11V446.94z"/>
		<path class="st0" d="M362.75,408.28h16.71v0.47l-3.76,4.55v30.1l3.76,4.55v0.47h-16.71v-0.47l3.79-4.55v-30.1l-3.79-4.55V408.28z"
			/>
		<path class="st0" d="M398.09,447.94l3.79-4.55v-33.64h-5.63l-6.42,8.81h-0.31v-10.29h33.86v10.29h-0.28l-6.44-8.81h-5.63v33.64
			l3.77,4.55v0.47h-16.71V447.94z"/>
		<path class="st0" d="M426.85,447.94l4.91-4.46l10.96-29.43l-3.24-5.3v-0.47h10.91l13.3,35.17l4.38,4.49v0.47h-18.66v-0.47
			l4.32-4.52l-2.71-7.59h-14.75l-2.76,7.56h0.06l5.52,4.55v0.47h-12.24V447.94z M443.7,415.67l-6.86,18.66h13.64l-6.61-18.58
			l-0.08,0.03L443.7,415.67z"/>
		<path class="st0" d="M480.86,447.94l3.79-4.55v-33.64h-5.63l-6.42,8.81h-0.31v-10.29h33.86v10.29h-0.28l-6.44-8.81h-5.63v33.64
			l3.77,4.55v0.47h-16.71V447.94z"/>
		<path class="st0" d="M557.58,449.09c-2.99,0-5.74-0.51-8.23-1.53c-2.49-1.02-4.63-2.45-6.42-4.27c-1.78-1.82-3.18-4-4.17-6.54
			c-1-2.54-1.49-5.31-1.49-8.33c0-3.03,0.5-5.82,1.49-8.35c0.99-2.54,2.38-4.73,4.17-6.57c1.79-1.84,3.92-3.27,6.42-4.29
			c2.49-1.02,5.23-1.53,8.23-1.53c3.01,0,5.77,0.51,8.27,1.53c2.5,1.02,4.66,2.45,6.47,4.28c1.81,1.83,3.22,4.02,4.23,6.56
			c1,2.54,1.51,5.31,1.51,8.33c0,3.03-0.5,5.82-1.49,8.35c-0.99,2.54-2.39,4.72-4.2,6.55c-1.8,1.83-3.96,3.26-6.47,4.28
			C563.38,448.58,560.61,449.09,557.58,449.09z M557.58,447.61c1.77,0,3.31-0.44,4.63-1.32c1.32-0.88,2.42-2.15,3.31-3.79
			c0.88-1.64,1.55-3.65,1.99-6.02s0.67-5.05,0.67-8.05c0-3.01-0.22-5.71-0.66-8.09c-0.44-2.38-1.1-4.4-1.98-6.05
			c-0.88-1.66-1.99-2.92-3.32-3.81c-1.33-0.88-2.88-1.33-4.64-1.33c-1.75,0-3.28,0.44-4.59,1.33c-1.31,0.88-2.4,2.16-3.26,3.82
			c-0.86,1.66-1.52,3.69-1.95,6.07c-0.44,2.38-0.66,5.07-0.66,8.06c0,2.99,0.22,5.68,0.66,8.05c0.44,2.37,1.09,4.38,1.97,6.02
			c0.87,1.65,1.96,2.91,3.26,3.79C554.3,447.17,555.83,447.61,557.58,447.61z"/>
		<path class="st0" d="M587.18,447.94l3.79-4.55v-30.1l-3.79-4.55v-0.47h19.05c2.6,0,4.88,0.25,6.83,0.74
			c1.95,0.49,3.58,1.19,4.89,2.08c1.31,0.89,2.29,1.96,2.94,3.21c0.65,1.25,0.98,2.63,0.98,4.15c0,1.79-0.35,3.32-1.05,4.62
			c-0.7,1.29-1.62,2.38-2.78,3.26c-1.15,0.88-2.48,1.58-3.99,2.09c-1.51,0.51-3.07,0.89-4.69,1.13c0.71,0.26,1.48,0.47,2.32,0.61
			c0.84,0.15,1.77,0.29,2.79,0.42l8.03,13.39l4.52,3.99v0.45h-12.91l-9.06-18.49c-0.24,0.02-0.48,0.03-0.71,0.03
			c-0.23,0-0.47,0-0.71,0h-1.28l-0.36-1.37l1.9-0.03c1.51-0.06,2.78-0.33,3.84-0.82c1.05-0.49,1.91-1.17,2.58-2.02
			s1.16-1.88,1.46-3.07c0.31-1.19,0.46-2.51,0.46-3.96c0-1.36-0.15-2.59-0.46-3.69c-0.31-1.11-0.81-2.05-1.51-2.82
			c-0.7-0.77-1.61-1.37-2.73-1.79c-1.12-0.42-2.5-0.63-4.14-0.63h-3.27v33.64l3.76,4.55v0.47h-16.71V447.94z"/>
		<path class="st0" d="M637.36,408.28h16.71v0.47l-3.76,4.55v30.1l3.76,4.55v0.47h-16.71v-0.47l3.79-4.55v-30.1l-3.79-4.55V408.28z"
			/>
		<path class="st0" d="M699.93,444.49c-0.71,0.45-1.56,0.94-2.55,1.48c-1,0.54-2.14,1.04-3.43,1.51c-1.29,0.46-2.74,0.85-4.35,1.16
			c-1.61,0.31-3.39,0.46-5.34,0.46c-3.22,0-6.12-0.5-8.7-1.51c-2.59-1-4.79-2.41-6.61-4.23c-1.82-1.81-3.23-3.97-4.21-6.48
			c-0.99-2.51-1.48-5.27-1.48-8.28c0-2.99,0.49-5.77,1.46-8.33c0.98-2.56,2.38-4.77,4.21-6.64c1.83-1.87,4.07-3.33,6.71-4.38
			c2.64-1.05,5.62-1.58,8.95-1.58h0.39c2.12,0.04,4.21,0.27,6.26,0.68c2.05,0.42,4.16,0.98,6.32,1.69l0.78,11.32h-0.59
			c-0.15-0.47-0.34-1.03-0.59-1.69c-0.24-0.66-0.54-1.36-0.91-2.11c-0.36-0.74-0.8-1.51-1.31-2.29c-0.51-0.78-1.1-1.53-1.76-2.24
			c-0.66-0.72-1.41-1.37-2.25-1.97c-0.84-0.59-1.78-1.08-2.82-1.45l-0.2-0.11c-0.6-0.15-1.17-0.25-1.72-0.31
			c-0.55-0.06-1.05-0.08-1.49-0.08c-2.06,0-3.83,0.5-5.3,1.49c-1.47,1-2.67,2.36-3.61,4.1c-0.94,1.74-1.63,3.79-2.06,6.16
			c-0.44,2.37-0.66,4.93-0.66,7.68c0,3.03,0.27,5.73,0.8,8.09c0.53,2.36,1.31,4.35,2.33,5.97c1.02,1.62,2.28,2.86,3.78,3.71
			c1.5,0.86,3.2,1.28,5.12,1.28c0.84-0.02,1.63-0.14,2.38-0.36c0.75-0.22,1.41-0.52,1.98-0.91c0.57-0.38,1.02-0.82,1.35-1.32
			c0.34-0.5,0.5-1.05,0.5-1.65l0.03-8.48l-4.91-4.66v-0.45h13.47V444.49z"/>
		<path class="st0" d="M711.9,408.28h16.71v0.47l-3.76,4.55v30.1l3.76,4.55v0.47H711.9v-0.47l3.79-4.55v-30.1l-3.79-4.55V408.28z"/>
		<path class="st0" d="M744.23,442.92l4.16,5.05v0.45h-9.65v-0.45l3.99-5.05v-29.65l-3.96-4.52v-0.47h10.68l21.14,28.95v-23.48
			l-4.13-5.05v-0.42h9.82v0.42l-4.16,5.08v34.64l-3.07,1.17l-24.82-34.06V442.92z"/>
		<path class="st0" d="M783.26,447.94l4.91-4.46l10.96-29.43l-3.24-5.3v-0.47h10.91l13.3,35.17l4.38,4.49v0.47h-18.66v-0.47
			l4.32-4.52l-2.71-7.59h-14.75l-2.76,7.56h0.06l5.52,4.55v0.47h-12.24V447.94z M800.11,415.67l-6.86,18.66h13.64l-6.61-18.58
			l-0.08,0.03L800.11,415.67z"/>
		<path class="st0" d="M833.92,408.28h17.29v0.45l-4.35,4.57v33.64h10.1l8.12-9.48h0.28l-1.42,10.96h-30.01v-0.47l3.79-4.55v-30.1
			l-3.79-4.57V408.28z"/>
	</g>
</g>
</svg>
