<?xml version="1.0" encoding="utf-8"?>
<!-- Generator: Adobe Illustrator 27.2.0, SVG Export Plug-In . SVG Version: 6.00 Build 0)  -->
<svg version="1.1" id="Capa_1" xmlns="http://www.w3.org/2000/svg" xmlns:xlink="http://www.w3.org/1999/xlink" x="0px" y="0px"
	 viewBox="0 0 1073 376.3" style="enable-background:new 0 0 1073 376.3;" xml:space="preserve">
<style type="text/css">
	.st0{fill:#FFFFFF;}
	.st1{opacity:0.37;fill:#FFFFFF;}
	.st2{opacity:0.37;}
</style>
<g>
	<path class="st0" d="M325.9,64.95v107.6c0,22.82-18.5,41.32-41.32,41.32h-4.62c-22.82,0-41.32-18.5-41.32-41.32V64.95h-32.88
		v105.12c0,40.29,32.66,72.95,72.95,72.95h7.11c40.29,0,72.95-32.66,72.95-72.95V64.95H325.9z"/>
	<polygon class="st0" points="777.56,239.82 690.83,148.84 769.29,64.95 728.24,64.95 661.07,138.31 661.07,64.95 628.01,64.95 
		628.01,239.82 661.07,239.82 661.07,161.58 736.5,239.82 	"/>
	<rect x="390.94" y="64.95" class="st0" width="33.05" height="174.87"/>
	<path class="st0" d="M587.07,193.84c-11.11,12.04-27.03,19.58-44.71,19.58c-33.59,0-60.82-27.23-60.82-60.82
		s27.23-60.82,60.82-60.82c16.63,0,31.69,6.67,42.67,17.48l21.52-22.34c-16.68-15.68-39.32-25.31-64.24-25.31
		c-51.3,0-92.89,40.81-92.89,91.14c0,50.34,41.59,91.14,92.89,91.14c25.87,0,49.28-10.38,66.12-27.13L587.07,193.84z"/>
	<path class="st0" d="M184.71,227.02l-21.05-20.82c11.14-15.07,17.74-33.7,17.74-53.88c0-50.09-40.61-90.7-90.7-90.7
		S0,102.22,0,152.32c0,50.09,40.61,90.7,90.7,90.7c18.71,0,36.1-5.67,50.54-15.38l20.54,21.78L184.71,227.02z M91.41,213.43
		c-31.95,0-57.84-27.81-57.84-62.11c0-34.3,25.9-62.11,57.84-62.11c31.95,0,57.84,27.81,57.84,62.11
		C149.26,185.62,123.36,213.43,91.41,213.43z"/>
	<g>
		<path class="st0" d="M5.56,374.78V271.72h6.98v96.91h63.82v6.15H5.56z"/>
		<path class="st0" d="M117.12,374.78V271.72h72.25v6.15H124.1v40.75h57.15v6.15H124.1v43.86h67.01v6.15H117.12z"/>
		<path class="st0" d="M324.64,374.78h-6.98l-11.31-26.26h-60.64l-11.31,26.26h-7.29l44.4-103.06h9.11L324.64,374.78z
			 M248.37,342.38h55.32l-27.62-64.05L248.37,342.38z"/>
		<path class="st0" d="M378.89,340.93v33.85h-6.98V271.72h44.17c19.2,0,35.67,10.93,35.67,34.83c0,17.08-10.32,28.61-24.13,32.71
			l28.76,35.52h-9.03l-27.32-34c-1.29,0.08-2.58,0.15-3.95,0.15H378.89z M378.89,334.79h37.19c15.41,0,28.69-10.62,28.69-28.23
			c0-19.66-13.28-28.69-28.69-28.69h-37.19V334.79z"/>
		<path class="st0" d="M580.29,374.78h-7.09l-70.66-93.5v93.5h-6.27V271.72h7.23l70.52,93.42V271.8h6.27V374.78z"/>
		<path class="st0" d="M773.97,374.78h-7.09l-70.66-93.5v93.5h-6.27V271.72h7.23l70.52,93.42V271.8h6.27V374.78z"/>
		<path class="st0" d="M630.52,271.72h6.98v103.06h-6.98V271.72z"/>
		<path class="st0" d="M904.31,284.55c-10.62-5.39-21.78-7.89-33.47-7.89c-30.51,0-51.38,18.9-51.38,46.37
			c0,27.93,21.4,46.83,52.67,46.83c11.69,0,22.69-1.52,30.21-5.84v-37.42h-36.28v-6.15h43.26v47.2c-11.61,6.91-24.89,8.65-36.5,8.65
			c-35.82,0-60.33-21.63-60.33-53.2c0-31.42,23.83-52.9,58.66-52.9c11.54,0,23.22,2.05,33.92,7.36L904.31,284.55z"/>
	</g>
	<rect x="849" y="66.81" class="st0" width="81.84" height="30.66"/>
	<rect x="849" y="113.2" class="st0" width="81.84" height="30.66"/>
	<rect x="849" y="159.58" class="st0" width="81.84" height="30.66"/>
	
		<rect x="946.11" y="66.81" transform="matrix(-1 -4.487667e-11 4.487667e-11 -1 1974.0646 164.2831)" class="st1" width="81.84" height="30.66"/>
	
		<rect x="946.11" y="113.2" transform="matrix(-1 -4.487667e-11 4.487667e-11 -1 1974.0646 257.0482)" class="st1" width="81.84" height="30.66"/>
	
		<rect x="946.11" y="159.58" transform="matrix(-1 -4.488777e-11 4.488777e-11 -1 1974.0646 349.8134)" class="st1" width="81.84" height="30.66"/>
	<g class="st2">
		<path class="st0" d="M1042.61,51.49h-96.5V20.16h105.38c11.88,0,21.5,9.63,21.5,21.5v173c0,11.24-9.11,20.35-20.35,20.35H946.11
			V204.1h96.5V51.49z"/>
	</g>
	<polygon class="st0" points="1022.26,82.14 947.89,97.47 947.89,66.81 1022.26,51.49 	"/>
	<polygon class="st0" points="1022.26,128.52 947.89,143.85 947.89,113.2 1022.26,97.87 	"/>
	<polygon class="st0" points="1022.26,174.91 947.89,190.23 947.89,159.58 1022.26,144.25 	"/>
	<g>
		<path class="st0" d="M1036.92,31.36l-89.03,20.13V20.16l100.98-19.92c7.9-1.56,15.27,4.47,15.3,12.53l0.64,170.86
			c0.06,15.78-11,29.42-26.46,32.63l-90.47,18.75V204.1l88.5-18.93L1036.92,31.36z"/>
	</g>
	<path class="st0" d="M930.83,51.49V20.16H816.92c-7.16,0-12.97,5.81-12.97,12.97v191.48c0,5.74,4.65,10.4,10.4,10.4H845v29.06
		l39.17-29.06h46.67V204.1h-96.5V51.49H930.83z"/>
</g>
</svg>
