<?xml version="1.0" encoding="utf-8"?>
<!-- Generator: Adobe Illustrator 27.2.0, SVG Export Plug-In . SVG Version: 6.00 Build 0)  -->
<svg version="1.1" id="Capa_1" xmlns="http://www.w3.org/2000/svg" xmlns:xlink="http://www.w3.org/1999/xlink" x="0px" y="0px"
	 viewBox="0 0 1073 200.6" style="enable-background:new 0 0 1073 200.6;" xml:space="preserve">
<style type="text/css">
	.st0{fill:#FFFFFF;}
</style>
<g>
	<path class="st0" d="M52.78,47.34c-2.34-1.5-4.92-2.7-7.76-3.6c-2.84-0.9-5.68-1.65-8.51-2.25c-2.84-0.6-5.44-1.18-7.81-1.75
		c-2.37-0.57-4.27-1.3-5.71-2.2c-1.44-0.9-2.15-2.12-2.15-3.66c0-1.2,0.37-2.27,1.1-3.2c0.73-0.93,1.94-1.69,3.6-2.25
		c1.67-0.57,3.87-0.85,6.61-0.85c3.07,0,6.24,0.45,9.51,1.35c3.27,0.9,6.58,2.25,9.91,4.06l6.11-14.72c-3.47-2-7.43-3.52-11.87-4.56
		c-4.44-1.03-8.96-1.55-13.57-1.55c-6.88,0-12.62,1.04-17.22,3.1c-4.61,2.07-8.06,4.81-10.36,8.21c-2.3,3.41-3.45,7.21-3.45,11.42
		c0,3.74,0.73,6.83,2.2,9.26c1.47,2.44,3.37,4.41,5.71,5.91c2.34,1.5,4.92,2.72,7.76,3.65c2.84,0.94,5.67,1.7,8.51,2.3
		c2.84,0.6,5.42,1.2,7.76,1.8c2.34,0.6,4.24,1.37,5.71,2.3c1.47,0.94,2.2,2.2,2.2,3.81c0,1.14-0.38,2.12-1.15,2.95
		c-0.77,0.84-1.99,1.5-3.66,2c-1.67,0.5-3.87,0.75-6.61,0.75c-4.07,0-8.16-0.65-12.27-1.95c-4.11-1.3-7.73-2.95-10.87-4.96L0,77.33
		c3.34,2.27,7.66,4.12,12.97,5.56c5.31,1.43,10.83,2.15,16.57,2.15c6.94,0,12.7-1.04,17.27-3.1c4.57-2.07,8.01-4.82,10.31-8.26
		c2.3-3.44,3.45-7.19,3.45-11.27c0-3.67-0.72-6.73-2.15-9.16C57,50.81,55.11,48.84,52.78,47.34z"/>
	<path class="st0" d="M100.94,13.54L70,83.64h20.23l5.47-13.62h29.73l5.47,13.62h20.63l-31.04-70.1H100.94z M101.56,55.4l9-22.41
		l9,22.41H101.56z"/>
	<path class="st0" d="M210.1,51.8c0,6.01-1.17,10.31-3.51,12.92c-2.34,2.6-5.58,3.91-9.71,3.91c-4.14,0-7.39-1.3-9.76-3.91
		c-2.37-2.6-3.56-6.91-3.56-12.92V13.54h-19.83V52.4c0,10.42,2.9,18.46,8.71,24.13c5.81,5.68,13.89,8.51,24.23,8.51
		c10.35,0,18.43-2.84,24.23-8.51c5.81-5.67,8.71-13.72,8.71-24.13V13.54H210.1V51.8z"/>
	<path class="st0" d="M273.64,34.02c1.7-1.77,3.75-3.12,6.16-4.06c2.4-0.93,5.04-1.4,7.91-1.4c3.34,0,6.36,0.7,9.06,2.1
		c2.7,1.4,5.19,3.44,7.46,6.11l12.62-11.42c-3.41-4.27-7.66-7.54-12.77-9.81c-5.11-2.27-10.9-3.41-17.37-3.41
		c-5.54,0-10.67,0.89-15.37,2.65c-4.71,1.77-8.78,4.29-12.22,7.56c-3.44,3.27-6.13,7.13-8.06,11.57c-1.94,4.44-2.9,9.33-2.9,14.67
		c0,5.34,0.97,10.23,2.9,14.67c1.94,4.44,4.62,8.3,8.06,11.57c3.44,3.27,7.51,5.79,12.22,7.56c4.71,1.77,9.83,2.65,15.37,2.65
		c6.47,0,12.27-1.15,17.37-3.45c5.11-2.3,9.36-5.56,12.77-9.76l-12.62-11.42c-2.27,2.67-4.76,4.71-7.46,6.11
		c-2.7,1.4-5.73,2.1-9.06,2.1c-2.87,0-5.51-0.47-7.91-1.4c-2.4-0.93-4.46-2.29-6.16-4.06c-1.7-1.77-3.04-3.89-4.01-6.36
		c-0.97-2.47-1.45-5.21-1.45-8.21c0-3,0.48-5.74,1.45-8.21C270.6,37.91,271.94,35.79,273.64,34.02z"/>
	<polygon class="st0" points="390.65,68.32 354,68.32 354,55.5 385.15,55.5 385.15,40.68 354,40.68 354,28.86 389.35,28.86 
		389.35,13.54 334.37,13.54 334.37,83.64 390.65,83.64 	"/>
	<path class="st0" d="M441.73,68.87c-1.67,0.5-3.87,0.75-6.61,0.75c-4.07,0-8.16-0.65-12.27-1.95c-4.11-1.3-7.73-2.95-10.87-4.96
		l-6.51,14.62c3.34,2.27,7.66,4.12,12.97,5.56c5.31,1.43,10.83,2.15,16.57,2.15c6.94,0,12.7-1.04,17.27-3.1
		c4.57-2.07,8.01-4.82,10.31-8.26c2.3-3.44,3.45-7.19,3.45-11.27c0-3.67-0.72-6.73-2.15-9.16c-1.44-2.44-3.32-4.41-5.66-5.91
		c-2.34-1.5-4.92-2.7-7.76-3.6c-2.84-0.9-5.68-1.65-8.51-2.25c-2.84-0.6-5.44-1.18-7.81-1.75c-2.37-0.57-4.27-1.3-5.71-2.2
		c-1.44-0.9-2.15-2.12-2.15-3.66c0-1.2,0.37-2.27,1.1-3.2c0.73-0.93,1.94-1.69,3.6-2.25c1.67-0.57,3.87-0.85,6.61-0.85
		c3.07,0,6.24,0.45,9.51,1.35c3.27,0.9,6.58,2.25,9.91,4.06l6.11-14.72c-3.47-2-7.43-3.52-11.87-4.56
		c-4.44-1.03-8.96-1.55-13.57-1.55c-6.88,0-12.62,1.04-17.22,3.1c-4.61,2.07-8.06,4.81-10.36,8.21c-2.3,3.41-3.45,7.21-3.45,11.42
		c0,3.74,0.73,6.83,2.2,9.26c1.47,2.44,3.37,4.41,5.71,5.91c2.34,1.5,4.92,2.72,7.76,3.65c2.84,0.94,5.67,1.7,8.51,2.3
		c2.84,0.6,5.42,1.2,7.76,1.8c2.34,0.6,4.24,1.37,5.71,2.3c1.47,0.94,2.2,2.2,2.2,3.81c0,1.14-0.38,2.12-1.15,2.95
		C444.61,67.7,443.39,68.37,441.73,68.87z"/>
	<path class="st0" d="M543.35,133.4c-5.87-2.87-12.69-4.31-20.43-4.31h-33.15v70.1h33.15c7.74,0,14.55-1.43,20.43-4.31
		c5.87-2.87,10.47-6.93,13.77-12.17c3.31-5.24,4.96-11.43,4.96-18.58c0-7.21-1.65-13.42-4.96-18.63
		C553.82,140.31,549.23,136.27,543.35,133.4z M539.55,174.51c-1.67,2.9-3.99,5.11-6.96,6.61c-2.97,1.5-6.46,2.25-10.46,2.25H509.6
		v-38.45h12.52c4.01,0,7.49,0.75,10.46,2.25c2.97,1.5,5.29,3.69,6.96,6.56c1.67,2.87,2.5,6.34,2.5,10.42
		C542.05,168.15,541.22,171.61,539.55,174.51z"/>
	<rect x="581.21" y="129.09" class="st0" width="19.83" height="70.1"/>
	<polygon class="st0" points="643.49,171.05 674.64,171.05 674.64,156.23 643.49,156.23 643.49,144.42 678.84,144.42 678.84,129.09 
		623.87,129.09 623.87,199.19 680.15,199.19 680.15,183.87 643.49,183.87 	"/>
	<path class="st0" d="M721.76,149.57c1.7-1.77,3.75-3.12,6.16-4.06c2.4-0.93,5.04-1.4,7.91-1.4c3.34,0,6.36,0.7,9.06,2.1
		c2.7,1.4,5.19,3.44,7.46,6.11l12.62-11.42c-3.4-4.27-7.66-7.54-12.77-9.81c-5.11-2.27-10.9-3.41-17.37-3.41
		c-5.54,0-10.67,0.89-15.37,2.65c-4.71,1.77-8.78,4.29-12.22,7.56c-3.44,3.27-6.13,7.13-8.06,11.57c-1.94,4.44-2.9,9.33-2.9,14.67
		c0,5.34,0.97,10.23,2.9,14.67c1.94,4.44,4.62,8.3,8.06,11.57c3.44,3.27,7.51,5.79,12.22,7.56c4.71,1.77,9.83,2.65,15.37,2.65
		c6.47,0,12.27-1.15,17.37-3.45c5.11-2.3,9.36-5.56,12.77-9.76l-12.62-11.42c-2.27,2.67-4.76,4.71-7.46,6.11
		c-2.7,1.4-5.72,2.1-9.06,2.1c-2.87,0-5.51-0.47-7.91-1.4c-2.4-0.93-4.46-2.29-6.16-4.06c-1.7-1.77-3.04-3.89-4.01-6.36
		c-0.97-2.47-1.45-5.21-1.45-8.21c0-3,0.48-5.74,1.45-8.21C718.72,153.46,720.05,151.34,721.76,149.57z"/>
	<rect x="782.49" y="129.09" class="st0" width="19.83" height="70.1"/>
	<path class="st0" d="M873.02,162.89c-2.34-1.5-4.92-2.7-7.76-3.6c-2.84-0.9-5.68-1.65-8.51-2.25c-2.84-0.6-5.44-1.18-7.81-1.75
		c-2.37-0.57-4.27-1.3-5.71-2.2c-1.44-0.9-2.15-2.12-2.15-3.65c0-1.2,0.37-2.27,1.1-3.2c0.73-0.93,1.94-1.69,3.6-2.25
		c1.67-0.57,3.87-0.85,6.61-0.85c3.07,0,6.24,0.45,9.51,1.35c3.27,0.9,6.58,2.25,9.91,4.06l6.11-14.72c-3.47-2-7.43-3.52-11.87-4.56
		c-4.44-1.03-8.96-1.55-13.57-1.55c-6.88,0-12.62,1.04-17.23,3.1c-4.61,2.07-8.06,4.81-10.36,8.21s-3.45,7.21-3.45,11.42
		c0,3.74,0.73,6.83,2.2,9.26c1.47,2.44,3.37,4.41,5.71,5.91c2.34,1.5,4.92,2.72,7.76,3.66c2.84,0.94,5.67,1.7,8.51,2.3
		c2.84,0.6,5.42,1.2,7.76,1.8c2.34,0.6,4.24,1.37,5.71,2.3c1.47,0.94,2.2,2.2,2.2,3.8c0,1.14-0.38,2.12-1.15,2.96
		c-0.77,0.84-1.99,1.5-3.65,2c-1.67,0.5-3.87,0.75-6.61,0.75c-4.07,0-8.16-0.65-12.27-1.95c-4.11-1.3-7.73-2.96-10.87-4.96
		l-6.51,14.62c3.34,2.27,7.66,4.12,12.97,5.56c5.31,1.43,10.83,2.15,16.57,2.15c6.94,0,12.7-1.04,17.28-3.1
		c4.57-2.07,8.01-4.82,10.31-8.26c2.3-3.44,3.45-7.19,3.45-11.27c0-3.67-0.72-6.72-2.15-9.16S875.35,164.39,873.02,162.89z"/>
	<polygon class="st0" points="948.83,108.17 929.8,108.17 916.38,123.39 930,123.39 	"/>
	<polygon class="st0" points="918.28,171.05 949.43,171.05 949.43,156.23 918.28,156.23 918.28,144.42 953.63,144.42 953.63,129.09 
		898.65,129.09 898.65,199.19 954.93,199.19 954.93,183.87 918.28,183.87 	"/>
	<rect x="974.66" y="129.09" class="st0" width="19.83" height="70.1"/>
	<path class="st0" d="M1070.85,168.8c-1.44-2.44-3.32-4.41-5.66-5.91c-2.34-1.5-4.92-2.7-7.76-3.6c-2.84-0.9-5.68-1.65-8.51-2.25
		c-2.84-0.6-5.44-1.18-7.81-1.75c-2.37-0.57-4.27-1.3-5.71-2.2c-1.44-0.9-2.15-2.12-2.15-3.65c0-1.2,0.37-2.27,1.1-3.2
		c0.73-0.93,1.94-1.69,3.6-2.25c1.67-0.57,3.87-0.85,6.61-0.85c3.07,0,6.24,0.45,9.51,1.35c3.27,0.9,6.57,2.25,9.91,4.06l6.11-14.72
		c-3.47-2-7.43-3.52-11.87-4.56c-4.44-1.03-8.96-1.55-13.57-1.55c-6.88,0-12.62,1.04-17.23,3.1c-4.61,2.07-8.06,4.81-10.36,8.21
		c-2.3,3.4-3.46,7.21-3.46,11.42c0,3.74,0.73,6.83,2.2,9.26c1.47,2.44,3.37,4.41,5.71,5.91c2.34,1.5,4.92,2.72,7.76,3.66
		c2.84,0.94,5.67,1.7,8.51,2.3c2.84,0.6,5.42,1.2,7.76,1.8c2.34,0.6,4.24,1.37,5.71,2.3c1.47,0.94,2.2,2.2,2.2,3.8
		c0,1.14-0.38,2.12-1.15,2.96c-0.77,0.84-1.99,1.5-3.65,2c-1.67,0.5-3.87,0.75-6.61,0.75c-4.07,0-8.16-0.65-12.27-1.95
		c-4.11-1.3-7.73-2.96-10.87-4.96l-6.51,14.62c3.34,2.27,7.66,4.12,12.97,5.56c5.31,1.43,10.83,2.15,16.57,2.15
		c6.94,0,12.7-1.04,17.27-3.1c4.57-2.07,8.01-4.82,10.31-8.26c2.3-3.44,3.45-7.19,3.45-11.27
		C1073,174.29,1072.28,171.24,1070.85,168.8z"/>
	
		<rect x="353.93" y="93.17" transform="matrix(0.7071 -0.7071 0.7071 0.7071 73.6067 373.4915)" class="st0" width="267.44" height="9.44"/>
</g>
</svg>
