<?xml version="1.0" encoding="utf-8"?>
<!-- Generator: Adobe Illustrator 27.2.0, SVG Export Plug-In . SVG Version: 6.00 Build 0)  -->
<svg version="1.1" id="Capa_1" xmlns="http://www.w3.org/2000/svg" xmlns:xlink="http://www.w3.org/1999/xlink" x="0px" y="0px"
	 viewBox="0 0 1073 596.38" style="enable-background:new 0 0 1073 596.38;" xml:space="preserve">
<style type="text/css">
	.st0{fill:#FFFFFF;}
</style>
<g>
	<g>
		<path class="st0" d="M461.71,166.19v147.79c0,28.11-21.61,52.31-49.69,53.63c-29.98,1.41-54.74-22.48-54.74-52.15V166.19
			c0-8.59-6.96-15.55-15.55-15.55H288.9c-8.59,0-15.55,6.96-15.55,15.55v173.13c0,58.56,47.47,106.03,106.03,106.03h0
			c39.03,1.31,65.34-18.03,82.32-32.67v6.56c0,8.59,6.96,15.55,15.55,15.55h56.04c8.59,0,15.55-6.96,15.55-15.55V166.19
			c0-8.59-6.96-15.55-15.55-15.55h-56.04C468.67,150.64,461.71,157.6,461.71,166.19z"/>
		<path class="st0" d="M1057.45,150.64h-37.11v-40.51c0-8.59-6.96-15.55-15.55-15.55h-55.4c-8.59,0-15.55,6.96-15.55,15.55v40.51
			h-37.11c-8.59,0-15.55,6.96-15.55,15.55v54.12c0,8.59,6.96,15.55,15.55,15.55h37.11v194.01c0,8.59,6.96,15.55,15.55,15.55h55.4
			c8.59,0,15.55-6.96,15.55-15.55V235.85h37.11c8.59,0,15.55-6.96,15.55-15.55v-54.12C1073,157.6,1066.04,150.64,1057.45,150.64z"/>
		<path class="st0" d="M877.5,292.58c0-84.4-65.97-152.83-147.35-152.83c-81.38,0-147.35,68.42-147.35,152.83
			c0,84.41,65.97,152.83,147.35,152.83c42.99,0,89.66-14.63,118.8-43.87c7.15-7.18,5.31-19.27-3.49-24.3l-41.14-23.52
			c-5.29-3.02-11.97-2.86-16.82,0.82c-20.86,15.83-54.38,13.92-54.38,13.92c-52.13-6.25-58.38-40.84-58.38-40.84h185.85
			c7.8,0,14.37-5.77,15.43-13.49C876.99,307.09,877.5,299.9,877.5,292.58z M669.28,264.68c8.41-27.27,33.8-47.09,63.83-47.09
			c30.03,0,55.42,19.82,63.83,47.09H669.28z"/>
		<path class="st0" d="M170.36,235.9l40.61-25.49c7.75-4.87,9.65-15.31,4.11-22.6c-13.09-17.21-41.97-43.88-95.79-45.18
			c-34.36-0.83-69.41,9.95-93.08,35.8c-21.39,23.35-26.43,57.16-15.49,86.63c6.32,17.02,18.93,30.92,34.69,39.92
			c48.66,27.79,104.58,21.49,99.83,48.59c0,0,1.7,14.9-30.62,15.38c-20.22,0.3-35.51-12.38-44.11-21.91
			c-5.07-5.62-13.35-6.95-19.8-3L7.45,370.52c-7.66,4.7-9.8,14.9-4.59,22.22c14.08,19.77,46.94,53.15,108.09,52.66
			c86.81-0.7,122.05-45.55,122.37-85.91s-14.41-80.08-68.55-92.58c-54.14-12.49-70.79-20.5-71.11-34.28
			c-0.29-12.32,33.74-24.37,56.86,0.45C155.68,238.63,163.94,239.92,170.36,235.9z"/>
	</g>
	<polygon class="st0" points="348.11,0 285.41,0 254.06,54.3 285.41,108.6 348.11,108.6 379.47,54.3 	"/>
	<polygon class="st0" points="517.49,0 462.45,0 493.8,54.3 462.45,108.6 517.49,108.6 548.84,54.3 	"/>
	<g>
		<path class="st0" d="M595.15,594.69v-61.9H584.9v-5.47h10.25v-4.07c0-18.25,8.7-30.74,27.37-30.74c6.04,0,13.34,2.25,16.84,5.05
			l-3.37,5.33c-3.23-2.53-8.7-4.63-14.74-4.63c-15.02,0-19.23,12.07-19.23,25.13v3.93h41.41v67.37h-6.88v-61.9h-34.53v61.9H595.15z"
			/>
		<path class="st0" d="M673.04,507.24v20.07h21.34v5.47h-21.34v43.09c0,8.28,2.53,14.6,10.81,14.6c4.07,0,6.88-0.56,8.84-1.26
			l0.84,5.33c-2.39,0.98-5.9,1.82-10.39,1.82c-5.33,0-9.69-1.68-12.49-5.05c-3.37-3.79-4.49-9.97-4.49-16.28v-42.25h-12.35v-5.47
			h12.35v-17.97L673.04,507.24z"/>
		<path class="st0" d="M735.08,549.07c0-7.3-0.14-14.46-0.56-21.76h6.31l0.28,14.6h0.42c3.37-9.41,10.67-16.28,20.63-16.28
			c1.12,0,2.25,0.14,3.23,0.42v6.32c-1.26-0.28-2.39-0.28-3.93-0.28c-9.41,0-16.56,7.86-18.81,19.51c-0.42,1.97-0.7,4.35-0.7,6.6
			v36.5h-6.88V549.07z"/>
		<path class="st0" d="M838.66,560.16c0,25.27-19.65,36.21-36.21,36.21c-20.07,0-34.67-14.74-34.67-34.67
			c0-22.46,16.84-36.07,35.65-36.07C825.04,525.63,838.66,540.93,838.66,560.16z M774.65,561.28c0,18.81,13.62,29.48,28.21,29.48
			c14.88,0,28.91-10.81,28.91-30.18c0-12.77-8.56-29.34-28.35-29.34C784.34,531.25,774.65,545.56,774.65,561.28z"/>
		<path class="st0" d="M916.83,560.16c0,25.27-19.65,36.21-36.21,36.21c-20.07,0-34.67-14.74-34.67-34.67
			c0-22.46,16.84-36.07,35.65-36.07C903.22,525.63,916.83,540.93,916.83,560.16z M852.83,561.28c0,18.81,13.62,29.48,28.21,29.48
			c14.88,0,28.91-10.81,28.91-30.18c0-12.77-8.56-29.34-28.35-29.34C862.51,531.25,852.83,545.56,852.83,561.28z"/>
		<path class="st0" d="M930.44,543.6c0-5.48-0.14-10.81-0.56-16.28h6.46l0.56,13.05h0.28c4.91-8.42,11.93-14.74,24.28-14.74
			c10.67,0,18.25,7.44,21.19,16h0.28c1.96-4.07,4.49-7.16,7.02-9.4c4.91-4.21,9.97-6.6,18.39-6.6c6.32,0,24.14,3.37,24.14,31.44
			v37.62h-6.88v-37.48c0-16.99-7.3-25.69-19.65-25.69c-9.4,0-16.7,6.74-19.65,13.61c-0.7,1.82-1.4,4.07-1.4,6.6v42.95h-6.88V553.7
			c0-13.19-7.16-22.18-18.53-22.18c-10.25,0-17.97,8.14-20.91,15.58c-0.7,1.83-1.26,4.21-1.26,6.6v40.99h-6.88V543.6z"/>
	</g>
</g>
</svg>
