<?xml version="1.0" encoding="utf-8"?>
<!-- Generator: Adobe Illustrator 27.2.0, SVG Export Plug-In . SVG Version: 6.00 Build 0)  -->
<svg version="1.1" id="Capa_1" xmlns="http://www.w3.org/2000/svg" xmlns:xlink="http://www.w3.org/1999/xlink" x="0px" y="0px"
	 viewBox="0 0 1073 295.32" style="enable-background:new 0 0 1073 295.32;" xml:space="preserve">
<style type="text/css">
	.st0{fill:#FFFFFF;}
</style>
<g>
	<path class="st0" d="M394.48,177.22c-5.59,0-10.67-3.28-12.96-8.39L312.35,14.71c-1.3-2.9-5.36-3.09-6.92-0.32l-27.88,49.36
		c-0.6,1.06-0.67,2.33-0.18,3.45l41.29,95.76c2.91,6.75-2.04,14.27-9.39,14.27h-90.59c-1.51,0-2.88,0.87-3.52,2.24l-2.63,5.62
		c-1.2,2.57,0.67,5.53,3.52,5.53h117.08h52.17h9.18c2.14,0,3.88-1.74,3.88-3.88v-5.62C398.36,178.96,396.62,177.22,394.48,177.22z"
		/>
	<path class="st0" d="M1069.12,177.22c-5.59,0-10.67-3.28-12.96-8.39L986.99,14.71c-1.3-2.9-5.36-3.09-6.92-0.32l-27.88,49.36
		c-0.6,1.06-0.67,2.33-0.18,3.45l41.29,95.76c2.91,6.75-2.04,14.27-9.39,14.27h-90.59c-1.51,0-2.88,0.87-3.52,2.24l-2.63,5.62
		c-1.2,2.57,0.67,5.53,3.52,5.53h117.08h52.17h9.18c2.14,0,3.88-1.74,3.88-3.88v-5.62C1073,178.96,1071.26,177.22,1069.12,177.22z"
		/>
	<path class="st0" d="M122.93,11.58c25.87,4.91,46.02,25.95,49.64,52.25c0.12,0.91,0.88,1.59,1.8,1.59h11.43
		c1.01,0,1.82-0.82,1.82-1.82V9.52c0-1.01-0.82-1.82-1.82-1.82h-65h-1.82H68.64h-1.82h-1.8c-6.84,0-53.36,0-63.2,0
		c0,0-0.01,0-0.01,0C0.81,7.7,0,8.52,0,9.52V63.6c0,1.01,0.82,1.82,1.82,1.82h10.46h0.96c0.92,0,1.67-0.68,1.8-1.59
		c3.62-26.31,23.77-47.34,49.64-52.25c1.11-0.21,2.13,0.67,2.13,1.8V175.4c0,1.01-0.82,1.82-1.82,1.82h-7.44h-0.32
		c-1.01,0-1.82,0.82-1.82,1.82v9.74c0,1.01,0.82,1.82,1.82,1.82h0.32h72.49h0.32c1.01,0,1.82-0.82,1.82-1.82v-9.74
		c0-1.01-0.82-1.82-1.82-1.82h-0.32h-7.44c-1.01,0-1.82-0.82-1.82-1.82V13.37C120.79,12.24,121.82,11.36,122.93,11.58z"/>
	<path class="st0" d="M553.07,7.7h-13.04h-50.92h-12.88c-2.14,0-3.88,1.74-3.88,3.88v5.62c0,2.14,1.74,3.88,3.88,3.88h2.65
		c5.65,0,10.23,4.58,10.23,10.23v135.68c0,5.65-4.58,10.23-10.23,10.23h-2.65c-2.14,0-3.88,1.74-3.88,3.88v5.62
		c0,2.14,1.74,3.88,3.88,3.88h76.83c2.14,0,3.88-1.74,3.88-3.88v-5.62c0-2.14-1.74-3.88-3.88-3.88h-2.81
		c-5.65,0-10.23-4.58-10.23-10.23V31.31c0-5.65,4.58-10.23,10.23-10.23h2.81c2.14,0,3.88-1.74,3.88-3.88v-5.62
		C556.95,9.44,555.22,7.7,553.07,7.7z"/>
	<path class="st0" d="M821.08,131.76v-5.62c0-2.14-1.74-3.88-3.88-3.88h-65.11c-2.14,0-3.88,1.74-3.88,3.88v5.62
		c0,2.14,1.74,3.88,3.88,3.88h13.25c0,2.63,0,5.26,0,7.9c0,1.86,0.15,3.76-0.16,5.6c-1.72,10.18-9.21,20.37-18.03,25.53
		c-4.63,2.71-10.11,4.47-15.49,4.79c-3.75,0.22-7.66-0.41-11.27-1.33c-7.97-2.03-15.25-6.4-20.29-12.97
		c-4.42-5.75-7.69-12.78-7.59-20.14c0.04-2.82,0.01-5.63,0.01-8.45c0-8.49,0-16.99,0-25.48c0-9.91,0-19.82,0-29.72
		c0-7.97,0-15.93,0-23.9c0-4-0.29-8.04,0.85-11.93c0.44-1.5,0.97-2.97,1.56-4.42c1.28-3.15,2.9-6.16,4.83-8.97
		c5.43-7.91,13.25-13.83,22.18-17.26c5.93-2.28,12.23-3.51,18.56-3.98c3.67-0.27,7.76,0.68,11.28,1.54
		c8.36,2.05,16.28,5.97,22.7,11.75c3.64,3.28,6.76,7.11,9.28,11.31c1.45,2.42,2.75,4.97,3.78,7.6c0.9,2.31,1.92,4.62,2.31,7.09
		c0.33,2.09,0.13,4.3,0.13,6.41c0,2.89,0,5.79,0,8.68c0,2.14,1.74,3.88,3.88,3.88h6.59c2.14,0,3.88-1.74,3.88-3.88
		c0-6.32,0-12.64,0-18.97c0-3.5,0-7,0-10.5c0-2.67,0.46-4.68-1.72-6.6c-6.69-5.91-13.25-11.54-21.02-16.08
		c-11.09-6.47-23.41-10.88-36.19-12.36c-3.27-0.38-6.57-0.57-9.87-0.57c0,0-60.78-6.43-95.69,51.61c0,0-31.91,65.11,17.78,113.3
		c0,0,27.79,29.29,73.73,28c4.9-0.1,9.8-0.41,14.68-0.78c10.17-0.77,20.36-1.93,30.36-3.96c5.37-1.09,10.76-2.2,15.9-4.13
		c2.57-0.97,5.08-2.14,7.38-3.65c2.06-1.35,4.65-2.99,4.65-5.74v-39.22h12.88C819.34,135.64,821.08,133.9,821.08,131.76z"/>
	<path class="st0" d="M182.15,255.55h-2.5l-13.12,36.87h-4.94v2.09h12.37v-2.09h-4.76l3.95-11.09h12.83l4.3,11.09h-4.76v2.09h15.27
		v-2.09h-4.47L182.15,255.55z M173.96,279.07l5.28-15.1l5.86,15.1H173.96z"/>
	<path class="st0" d="M247.53,256.13h-15.15v2.09h5.75v34.2h-5.75v2.09h17.71v-2.09h-6.27V258.4h3.66c7.2,0,9.12,3.25,9.12,8.88
		c0,5.81-1.92,9.87-7.37,9.87c-0.93,0-1.74-0.12-1.74-0.12v2.15c0,0,0.87,0.12,2.15,0.12c7.95,0,13.06-4.82,13.06-12.19
		C262.68,261.01,259.08,256.13,247.53,256.13z"/>
	<path class="st0" d="M296.59,259.15c0,2.84-0.35,8.71-0.35,8.71h1.92c2.38-9.23,3.08-9.46,5.4-9.46h7.26v34.02h-5.75v2.09h17.19
		v-2.09h-5.75V258.4h8.13c1.51,0,1.92,0.12,2.85,3.83l1.39,5.63h1.74l0.75-11.73h-34.78V259.15z"/>
	<path class="st0" d="M371.2,263.74c0-3.77,2.44-6.21,7.61-6.21c5.34,0,8.48,2.96,8.48,6.44v3.89h2.55v-4.53
		c0-2.21,1.16-7.49,1.16-7.49h-2.26l-1.51,2.5c0,0-1.86-3.02-8.24-3.02c-7.95,0-12.08,4.7-12.08,10.92
		c0,13.93,20.61,10.05,20.61,20.67c0,4.3-3.43,6.21-7.78,6.21c-6.1,0-9.99-3.77-9.99-7.49v-4.01h-2.55v5.69
		c0,3.6-0.35,7.49-0.35,7.49h2.26l0.99-3.19c0,0,2.67,3.72,9.46,3.72c8.42,0,12.42-5.63,12.42-11.44
		C391.99,270.65,371.2,274.65,371.2,263.74z"/>
	<path class="st0" d="M505.56,287.19c0.17,0.46,0.29,1.05,0.29,1.74c0,1.68-0.7,3.66-2.79,3.66c-0.87,0-1.68-0.35-3.02-2.03
		l-1.97-2.5c2.44-3.89,3.54-8.65,3.54-12.54v-1.74h5.28v-2.26h-13.18v2.26h5.4v1.74c0,4.06-1.05,7.66-2.67,10.51l-11.15-14.28
		c-1.8-2.26-3.54-5.28-3.54-8.71c0-2.96,1.51-5.63,5.28-5.63c3.19,0,4.7,1.74,4.7,4.82c0,1.34-0.23,2.26-0.35,3.37
		c3.6,0,5.11-1.86,5.11-4.24c0-3.25-3.02-6.04-9.12-6.04c-6.44,0-10.28,3.6-10.28,9.46c0,3.08,1.05,5.63,2.96,8.3
		c-4.64,2.67-6.91,6.39-6.91,11.03c0,7.2,5.63,11.21,11.73,11.21c4.88,0,8.42-2.5,9.64-3.54c2.85,2.9,4.99,3.54,7.37,3.54
		c4.35,0,6.39-2.85,6.39-6.21c0-0.75-0.12-1.63-0.35-2.44L505.56,287.19z M486.69,292.19c-6.04,0-8.83-6.62-8.83-10.39
		c0-2.61,1.34-4.99,3.66-6.79l11.38,14.92C490.7,291.49,488.67,292.19,486.69,292.19z"/>
	<polygon class="st0" points="612.69,258.22 618.44,258.22 618.44,274.13 598,274.13 598,258.22 603.75,258.22 603.75,256.13 
		586.56,256.13 586.56,258.22 592.31,258.22 592.31,292.42 586.56,292.42 586.56,294.51 603.75,294.51 603.75,292.42 598,292.42 
		598,276.4 618.44,276.4 618.44,292.42 612.69,292.42 612.69,294.51 629.88,294.51 629.88,292.42 624.13,292.42 624.13,258.22 
		629.88,258.22 629.88,256.13 612.69,256.13 	"/>
	<path class="st0" d="M682.49,255.32c-12.54,0-17.42,8.36-17.42,19.39c0,12.48,4.41,20.61,17.42,20.61
		c12.6,0,17.48-8.65,17.48-20.61C699.96,262.46,694.68,255.32,682.49,255.32z M682.54,293.23c-9.7,0-11.26-7.72-11.26-17.88
		c0-9.75,1.57-17.94,11.26-17.94c9.64,0,11.21,7.66,11.21,17.94C693.75,284.7,692.01,293.23,682.54,293.23z"/>
	<polygon class="st0" points="758.67,286.03 748.27,256.13 735.15,256.13 735.15,258.22 740.9,258.22 740.9,292.42 735.15,292.42 
		735.15,294.51 749.15,294.51 749.15,292.42 743.4,292.42 743.4,259.62 755.76,294.51 758.26,294.51 770.86,259.38 770.86,292.42 
		765.11,292.42 765.11,294.51 782.3,294.51 782.3,292.42 776.55,292.42 776.55,258.22 782.3,258.22 782.3,256.13 769.41,256.13 	"/>
	<path class="st0" d="M841.64,258.4c1.34,0,1.63,0.17,1.74,2.32l0.41,7.14h1.74l2.32-11.73h-30.95v2.09h5.75v34.2h-5.75v2.09h30.42
		v-3.02c-0.06-3.08,0.41-9.29,0.41-9.29h-1.86c-2.38,9.75-3.19,10.04-5.52,10.04h-12.02v-15.62h9v5.69h2.5v-13.06h-2.5v5.11h-9
		V258.4H841.64z"/>
	<path class="st0" d="M889.43,263.74c0-3.77,2.44-6.21,7.6-6.21c5.34,0,8.48,2.96,8.48,6.44v3.89h2.55v-4.53
		c0-2.21,1.16-7.49,1.16-7.49h-2.26l-1.51,2.5c0,0-1.86-3.02-8.24-3.02c-7.95,0-12.08,4.7-12.08,10.92
		c0,13.93,20.61,10.05,20.61,20.67c0,4.3-3.43,6.21-7.78,6.21c-6.1,0-9.99-3.77-9.99-7.49v-4.01h-2.55v5.69
		c0,3.6-0.35,7.49-0.35,7.49h2.26l0.99-3.19c0,0,2.67,3.72,9.46,3.72c8.42,0,12.42-5.63,12.42-11.44
		C910.21,270.65,889.43,274.65,889.43,263.74z"/>
</g>
</svg>
