<?xml version="1.0" encoding="utf-8"?>
<!-- Generator: Adobe Illustrator 27.2.0, SVG Export Plug-In . SVG Version: 6.00 Build 0)  -->
<svg version="1.1" id="Capa_1" xmlns="http://www.w3.org/2000/svg" xmlns:xlink="http://www.w3.org/1999/xlink" x="0px" y="0px"
	 viewBox="0 0 1073 340.58" style="enable-background:new 0 0 1073 340.58;" xml:space="preserve">
<style type="text/css">
	.st0{fill:#FFFFFF;}
</style>
<g>
	<g>
		<polygon class="st0" points="438.23,5.36 422.69,5.36 422.69,241.78 433.24,241.78 438.23,241.78 571.58,241.78 571.58,227.92 
			438.23,227.92 		"/>
		<path class="st0" d="M281.25,5.36h-9.67h-2.67l-94.5,236.42h15.59l29-75.13h114.85l29,75.13h15.59L283.92,5.36H281.25z
			 M224.34,152.8l52.07-134.91l52.07,134.91H224.34z"/>
		<polygon class="st0" points="293.33,5.36 387.38,241.81 400.97,241.81 307.72,5.36 		"/>
		<polygon class="st0" points="180.24,18.02 180.24,5.36 0,5.36 0,18.02 82.35,18.02 82.35,241.78 97.89,241.78 97.89,18.02 		"/>
		<path class="st0" d="M953.28,5.36h-9.67h-2.67l-94.5,236.42h15.59l29-75.13h114.85l29,75.13h15.59L955.95,5.36H953.28z
			 M896.37,152.8l52.07-134.91l52.07,134.91H896.37z"/>
		<polygon class="st0" points="979.74,5.36 965.35,5.36 1059.41,241.81 1073,241.81 		"/>
		<path class="st0" d="M705.38,0c-63.13,0-114.31,55.3-114.31,123.51s51.18,123.51,114.31,123.51s114.31-55.3,114.31-123.51
			S768.51,0,705.38,0z M705.38,234.8c-54.05,0-97.86-49.82-97.86-111.28s43.81-111.28,97.86-111.28s97.86,49.82,97.86,111.28
			S759.42,234.8,705.38,234.8z"/>
	</g>
	<g>
		<path class="st0" d="M276.1,327.34v-1.52c3.53-0.43,3.96-0.98,3.2-3.04c-0.7-2.12-1.79-4.83-2.93-8.25h-11.72
			c-0.87,2.44-1.68,4.56-2.44,6.78c-1.19,3.53-0.43,3.96,4.02,4.5v1.52h-12.54v-1.52c3.42-0.43,4.29-0.81,6.19-5.7l11.23-28.49
			l1.74-0.33c3.42,9.28,7.16,19.54,10.58,28.92c1.74,4.72,2.22,5.15,6.08,5.59v1.52H276.1z M270.67,298.41
			c-1.74,4.67-3.58,9.6-5.21,13.89h10.15L270.67,298.41z"/>
		<path class="st0" d="M324.61,304.65c2.55-0.38,5.37-1.3,7.87-2.33c0,1.3,0,3.04,0,4.34c0.16-0.11,4.5-2.6,4.72-2.71
			c1.3-0.71,2.44-1.09,3.15-1.09c5.97,0,9.6,4.99,9.6,10.36c0,8.25-6.51,13.46-13.62,14.76c-1.63-0.05-3.09-0.54-3.85-0.98v7.33
			c0,4.02,0.43,4.34,4.61,4.72v1.52h-12.86v-1.52c3.53-0.38,3.96-0.65,3.96-4.29v-24.69c0-3.26-0.11-3.47-3.58-3.96V304.65z
			 M332.48,323.21c1.25,1.25,3.36,2.12,5.16,2.12c4.72,0,7.76-3.96,7.76-10.04c0-5.86-3.42-9.17-7.27-9.17
			c-1.9,0-4.18,1.25-5.64,2.33V323.21z"/>
		<path class="st0" d="M405.3,327.99c-0.81,0-2.01-0.43-2.55-1.03c-0.71-0.71-1.03-1.46-1.3-2.44c-2.17,1.47-4.83,3.47-6.51,3.47
			c-3.85,0-6.62-3.2-6.62-6.67c0-2.66,1.47-4.4,4.45-5.43c3.31-1.14,7.38-2.55,8.57-3.53v-1.08c0-3.85-1.95-6.08-4.78-6.08
			c-1.25,0-2.01,0.6-2.55,1.25c-0.6,0.76-0.98,1.95-1.47,3.53c-0.27,0.87-0.76,1.25-1.57,1.25c-1.03,0-2.39-1.09-2.39-2.39
			c0-0.76,0.71-1.41,1.79-2.17c1.57-1.14,4.72-3.15,7.81-3.8c1.63,0,3.31,0.49,4.56,1.47c1.9,1.63,2.77,3.47,2.77,6.29v10.47
			c0,2.5,0.92,3.26,1.9,3.26c0.65,0,1.36-0.27,1.95-0.6l0.54,1.52L405.3,327.99z M401.33,314.26c-1.19,0.6-3.8,1.74-5.05,2.28
			c-2.06,0.92-3.31,1.95-3.31,3.96c0,2.88,2.17,4.18,3.91,4.18c1.41,0,3.36-0.87,4.45-1.95
			C401.33,320.17,401.33,316.81,401.33,314.26z"/>
		<path class="st0" d="M458.85,327.34h-12.48v-1.52c3.42-0.33,3.74-0.6,3.74-4.12V310.4c0-3.58-0.22-3.74-3.36-4.12v-1.36
			c2.66-0.43,5.1-1.09,7.65-2.22c0,1.79,0,4.18,0,5.97c1.9-2.82,4.18-5.81,6.89-5.81c2.01,0,3.15,1.25,3.15,2.6
			c0,1.25-0.87,2.44-1.84,2.98c-0.54,0.33-0.98,0.27-1.41-0.11c-0.81-0.81-1.47-1.36-2.44-1.36c-1.14,0-3.15,1.68-4.34,4.45v10.2
			c0,3.58,0.27,3.85,4.45,4.18V327.34z"/>
		<path class="st0" d="M512.46,327.28c-0.92,0.49-1.79,0.71-2.33,0.71c-3.47,0-5.32-2.12-5.32-6.46v-15.79h-3.75l-0.22-0.65
			l1.47-1.57h2.5v-4.56c1.03-1.08,2.6-2.5,3.64-3.58l0.81,0.11c-0.11,2.28-0.16,5.43-0.16,8.03h6.19c0.49,0.54,0.33,1.74-0.33,2.22
			h-5.86v13.89c0,4.4,1.74,5.21,3.15,5.21c1.3,0,2.55-0.49,3.31-0.87l0.49,1.41L512.46,327.28z"/>
		<path class="st0" d="M581.97,327.34v-1.52c3.2-0.33,3.58-0.54,3.58-4.34v-9.06c0-3.85-1.3-6.3-4.67-6.3
			c-2.06,0-3.96,1.14-6.02,2.82c0.05,0.65,0.16,1.3,0.16,2.33v10.53c0,3.42,0.49,3.69,3.47,4.02v1.52h-11.61v-1.52
			c3.36-0.33,3.85-0.54,3.85-4.12v-9.33c0-4.02-1.25-6.24-4.56-6.24c-2.17,0-4.29,1.47-5.97,2.82v12.75c0,3.58,0.38,3.8,3.47,4.12
			v1.52h-11.67v-1.52c3.58-0.33,3.91-0.54,3.91-4.12v-11.23c0-3.47-0.22-3.69-3.26-4.23v-1.36c2.55-0.38,5.1-1.08,7.54-2.17
			c0,1.3,0,3.09,0,4.4c1.14-0.87,2.28-1.79,4.02-2.82c1.36-0.87,2.55-1.41,4.29-1.41c2.6,0,4.83,1.63,5.92,4.45
			c1.52-1.19,2.93-2.12,4.29-3.04c1.19-0.76,2.71-1.41,4.29-1.41c4.23,0,6.84,3.04,6.84,8.36v10.47c0,3.64,0.33,3.8,3.42,4.12v1.52
			H581.97z"/>
		<path class="st0" d="M650.4,322.72c-3.47,4.34-7.27,5.26-9.01,5.26c-6.62,0-10.64-5.43-10.64-11.67c0-3.69,1.3-7.11,3.53-9.5
			c2.28-2.55,5.26-3.96,8.09-3.96c4.72,0,8.3,4.07,8.3,8.41c-0.05,1.08-0.22,1.57-1.08,1.79c-1.09,0.22-8.03,0.71-14.49,0.92
			c-0.16,7.27,4.29,10.26,8.14,10.26c2.22,0,4.29-0.92,6.3-2.77L650.4,322.72z M641.06,304.92c-2.5,0-4.94,2.33-5.7,6.73
			c3.04,0,6.08,0,9.28-0.16c0.98,0,1.3-0.27,1.3-1.09C646,307.53,644.1,304.92,641.06,304.92z"/>
		<path class="st0" d="M703.68,327.34v-1.52c3.15-0.33,3.47-0.71,3.47-4.4v-8.95c0-3.8-1.36-6.35-4.94-6.35
			c-2.22,0-4.34,1.3-6.02,2.82v12.7c0,3.74,0.33,3.85,3.53,4.18v1.52H688v-1.52c3.58-0.38,3.91-0.6,3.91-4.18v-11.18
			c0-3.53-0.38-3.69-3.31-4.18v-1.41c2.66-0.43,5.32-1.14,7.6-2.17c0,1.25,0,2.98,0,4.29c1.09-0.76,2.28-1.57,3.69-2.5
			c1.52-0.98,2.93-1.63,4.5-1.63c4.34,0,7.05,3.2,7.05,8.47v10.31c0,3.69,0.33,3.85,3.47,4.18v1.52H703.68z"/>
		<path class="st0" d="M762.56,327.28c-0.92,0.49-1.79,0.71-2.33,0.71c-3.47,0-5.32-2.12-5.32-6.46v-15.79h-3.74l-0.22-0.65
			l1.47-1.57h2.5v-4.56c1.03-1.08,2.61-2.5,3.64-3.58l0.81,0.11c-0.11,2.28-0.16,5.43-0.16,8.03h6.19c0.49,0.54,0.33,1.74-0.33,2.22
			h-5.86v13.89c0,4.4,1.74,5.21,3.15,5.21c1.3,0,2.55-0.49,3.31-0.87l0.49,1.41L762.56,327.28z"/>
		<path class="st0" d="M816.76,309.97c-0.98-3.15-2.39-5.32-5.7-5.32c-1.9,0-3.36,1.36-3.36,3.53c0,2.33,1.57,3.42,4.61,4.83
			c4.67,2.22,7,3.85,7,7.43c0,4.99-4.56,7.54-8.85,7.54c-2.82,0-5.32-0.87-6.46-1.52c-0.27-1.57-0.76-4.56-0.98-6.35l1.57-0.27
			c0.98,3.47,2.88,6.3,6.68,6.3c2.06,0,3.8-1.41,3.8-3.69c0-2.44-1.47-3.69-4.34-5.1c-3.8-1.84-6.89-3.58-6.89-7.49
			c0-3.96,3.36-7,8.47-7c2.28,0,4.12,0.54,5.21,0.71c0.16,1.3,0.54,4.72,0.81,6.02L816.76,309.97z"/>
	</g>
</g>
</svg>
