<?xml version="1.0" encoding="utf-8"?>
<!-- Generator: Adobe Illustrator 27.2.0, SVG Export Plug-In . SVG Version: 6.00 Build 0)  -->
<svg version="1.1" id="Capa_1" xmlns="http://www.w3.org/2000/svg" xmlns:xlink="http://www.w3.org/1999/xlink" x="0px" y="0px"
	 viewBox="0 0 1073 814.99" style="enable-background:new 0 0 1073 814.99;" xml:space="preserve">
<style type="text/css">
	.st0{fill:#FFFFFF;}
	.st1{opacity:0.74;}
	.st2{clip-path:url(#SVGID_00000040547943536249963890000013631942550332928690_);fill:#FFFFFF;}
	.st3{clip-path:url(#SVGID_00000125574954814860748820000001241020997741019027_);fill:#FFFFFF;}
</style>
<g>
	<g>
		<path class="st0" d="M502.93,570.25c-10.09,0-19.09,0-29,0c0-2.85,0-5.36,0-7.87c0-21.27,0.05-42.54-0.04-63.8
			c-0.02-4.66-0.01-9.44-0.98-13.95c-5.09-23.8-35.12-31.88-54.95-14.87c-8.82,7.57-13.38,17.5-13.62,28.94
			c-0.45,21.02-0.3,42.06-0.39,63.09c-0.01,2.73,0,5.47,0,8.44c-9.98,0-18.98,0-28.39,0c0-45.09,0-89.82,0-134.95
			c9.31,0,18.33,0,28.15,0c0,7.42,0,14.79,0,22.17c0.45,0.39,0.91,0.79,1.36,1.18c11.61-19.04,29.34-25.32,49.94-24.77
			c21.64,0.58,37.52,10.16,45.39,31.58c0.85-1.14,1.48-1.79,1.9-2.56c14.49-26.4,45.82-36.96,73.25-24.35
			c19.17,8.81,25.68,25.54,26.39,45.12c0.54,14.94,0.11,29.91,0.17,44.87c0.05,12.03,6.61,17.59,18.51,15.26
			c5.21-1.02,10.22-3.03,16.02-4.8c2.3,6.85,4.65,13.82,6.94,20.66c-11.83,10.33-38.21,15.02-53.68,5.81
			c-11.31-6.73-16.41-17.08-16.91-29.67c-0.53-13.54-0.24-27.1-0.27-40.66c-0.04-17.73-7.23-28.63-21.66-32.77
			c-15.84-4.55-33.68,1.57-41.09,16.11c-4.08,8.01-6.27,17.65-6.75,26.69c-1,18.88-0.31,37.84-0.31,56.78
			C502.93,564.48,502.93,567.03,502.93,570.25z"/>
		<path class="st0" d="M115.6,405.2c0,11.19,0,21.67,0,32.15c0,30.6-0.01,61.2,0.01,91.8c0,3.03-0.11,6.11,0.31,9.09
			c1.29,9.32,6.47,13.89,15.81,12.84c6.16-0.69,12.15-2.93,19.12-4.7c2.2,6.51,4.61,13.65,7.16,21.18
			c-14.87,8.53-29.98,12.83-46.53,8.04c-16.09-4.65-24.63-17.68-24.79-37.97c-0.21-27.56-0.06-55.13-0.06-82.69
			c0-16.32,0-32.65,0-49.9c-29.02,0-57.58,0-86.63,0c0-9.43,0-17.95,0-27.65c2.44,0,5.11,0,7.79,0c40.87,0,81.75,0.11,122.62-0.12
			c6.45-0.04,13.05-1,19.3-2.62c23.21-6.02,38.75-35.32,22.32-58.66c-4.45-6.32-8.72-12.32-2.69-20.04
			c4.9-6.27,11.23-9.31,18.98-7.92c8.94,1.6,14.05,7.35,16.08,16.32c3.85,17.01,3.38,34-1.13,50.61
			c-7.37,27.14-31.74,46.57-60.29,48.94C134.18,404.64,125.32,404.76,115.6,405.2z"/>
		<path class="st0" d="M722.7,432.87c57.93,0.68,81.29,51.82,65.44,95.5c-9.82,27.05-31.27,40.22-59.1,41.91
			c-11.58,0.7-24-0.9-35.02-4.54c-29.47-9.74-45.3-37.75-42.45-71.79c2.51-29.96,23.59-53.47,53.1-58.95
			C710.61,433.91,716.69,433.56,722.7,432.87z M680.51,501.99c-0.09,25.42,14.75,42.43,38.87,44.55
			c21.86,1.93,39.55-12.53,43.71-35.7c4.16-23.16-7.99-44.95-28.34-50.83C705.75,451.64,680.62,471.08,680.51,501.99z"/>
		<path class="st0" d="M289.6,488.95c-0.19-12.99-4.03-23.33-14.63-30.04c-11.01-6.97-22-6.12-32.8,1.16
			c-8.61,5.8-17.68,1.68-19.44-8.49c-1.16-6.72,2.86-13.99,9.94-15.72c39.87-9.76,76.46,7.71,77.4,53.31
			c0.27,13.08-0.15,26.17,0.32,39.24c0.46,12.96,7.28,18.12,19.9,15.41c4.95-1.06,9.7-3.03,14.98-4.73
			c2.35,7.04,4.69,14.07,7.01,20.99c-19.79,15.34-45.84,13.92-64.83-3.57c-16.86,14.61-36.77,17.19-57.71,12.67
			c-24.23-5.23-37.44-27.61-31.11-51.05c4.3-15.94,19.68-27.22,40.14-28.42c13.98-0.82,28.01-0.55,42.03-0.75
			C283.56,488.92,286.32,488.95,289.6,488.95z M289.14,510.62c-15.97,0-31.57-0.61-47.09,0.21c-11.2,0.59-16.81,6.6-17.34,15.62
			c-0.6,10.18,4.74,18.43,15.32,20.19c8.05,1.34,16.83,1.43,24.76-0.31C283.69,542.18,291.33,530.33,289.14,510.62z"/>
		<path class="st0" d="M1010.31,488.95c-0.18-13.01-4.04-23.35-14.64-30.05c-11.02-6.96-22-6.09-32.8,1.18
			c-8.8,5.92-18.29,1.29-19.51-9.22c-0.76-6.53,3.22-13.35,10.05-15.02c39.93-9.74,76.45,7.77,77.38,53.34
			c0.27,13.08-0.15,26.17,0.32,39.24c0.47,12.95,7.29,18.1,19.92,15.39c4.94-1.06,9.69-3.03,14.96-4.73c2.35,7.06,4.7,14.09,7,21.01
			c-19.9,15.33-45.74,13.91-64.84-3.57c-16.87,14.61-36.78,17.2-57.72,12.66c-24.22-5.25-37.42-27.64-31.08-51.07
			c4.31-15.93,19.7-27.2,40.15-28.4c13.98-0.81,28.01-0.55,42.03-0.75C1004.28,488.92,1007.03,488.95,1010.31,488.95z
			 M1009.64,510.14c-9.64,0-18.95-0.14-28.25,0.05c-7.2,0.15-14.5,0.04-21.54,1.26c-9.6,1.67-13.76,6.51-14.4,14.51
			c-0.73,9.12,3.16,16.03,11.52,19.55c10.89,4.58,21.95,3.54,32.75-0.29C1006,539.45,1012.24,528.54,1009.64,510.14z"/>
		<path class="st0" d="M848.66,569.22c-2.44,0.23-4.04,0.49-5.64,0.5c-7.45,0.05-14.89,0.02-22.89,0.02c0-45.23,0-89.89,0-134.97
			c9.43,0,18.6,0,28.09,0c0.31,2.95,0.57,5.42,0.93,8.89c13.6-9.49,28.52-11.03,43.86-10.06c4.6,0.29,9.27,1.25,13.66,2.67
			c5.35,1.73,9.09,6.15,8.45,11.57c-0.54,4.62-2.95,9.57-5.96,13.19c-2.69,3.23-7.08,3.66-11.26,0.42
			c-10.03-7.79-21.03-10.02-32.64-3.72c-11.93,6.47-16.48,17.3-16.54,30.31c-0.11,24.52-0.05,49.04-0.07,73.56
			C848.66,563.9,848.66,566.2,848.66,569.22z"/>
	</g>
	<g class="st1">
		<defs>
			<path id="SVGID_1_" class="st1" d="M598.88,161.26c0.01-0.12,0.02-0.23,0.02-0.35c0.05-0.86,0.09-1.71,0.1-2.57
				c0-0.06,0-0.12,0.01-0.18c0.01-0.84,0-1.67-0.03-2.51c-0.01-0.42-0.04-0.85-0.06-1.27c-0.02-0.36-0.04-0.72-0.07-1.07
				c-0.04-0.58-0.09-1.15-0.15-1.73c-0.01-0.09-0.02-0.18-0.03-0.26c-0.73-6.82-2.69-13.59-5.83-20.18c-5.12-11.85-5.12-25.15,0-37
				c3.14-6.59,5.1-13.36,5.83-20.18c0.01-0.08,0.02-0.17,0.03-0.25c0.06-0.58,0.11-1.16,0.15-1.74c0.03-0.35,0.05-0.71,0.07-1.06
				c0.02-0.43,0.05-0.85,0.06-1.28c0.03-0.83,0.04-1.67,0.03-2.5c0-0.06,0-0.13-0.01-0.19c-0.01-0.85-0.05-1.71-0.1-2.56
				c-0.01-0.12-0.02-0.24-0.02-0.36c-0.06-0.87-0.14-1.75-0.23-2.62c0-0.02,0-0.04-0.01-0.06c-0.11-0.95-0.23-1.89-0.39-2.84
				c-2.93-17.59-12.89-32.97-28.81-44.47c-8.84-6.39-17.37-10.05-22.19-11.81c-3.07-1.33-6.36-2.04-9.69-2.15
				C537.28,0.04,537.01,0,536.74,0c-0.02,0-0.05,0-0.07,0c-0.01,0-0.03,0-0.04,0c-0.04,0-0.09,0-0.13,0c-0.04,0-0.08,0-0.12,0
				c-0.01,0-0.03,0-0.04,0c-0.03,0-0.05,0-0.08,0c-0.28,0-0.55,0.04-0.83,0.05c-3.32,0.12-6.61,0.82-9.67,2.15
				c-4.83,1.76-13.35,5.41-22.19,11.81c-15.92,11.5-25.88,26.88-28.81,44.47c-0.16,0.95-0.28,1.89-0.39,2.84
				c0,0.02,0,0.04-0.01,0.06c-0.1,0.87-0.18,1.75-0.23,2.62c-0.01,0.12-0.02,0.24-0.02,0.36c-0.05,0.85-0.09,1.7-0.1,2.55
				c0,0.07,0,0.13-0.01,0.2c-0.01,0.83,0,1.67,0.03,2.5c0.01,0.43,0.04,0.85,0.06,1.28c0.02,0.35,0.04,0.71,0.07,1.06
				c0.04,0.58,0.09,1.16,0.15,1.74c0.01,0.08,0.02,0.17,0.03,0.25c0.73,6.82,2.69,13.6,5.83,20.18c5.12,11.85,5.12,25.15,0,37
				c-3.14,6.59-5.1,13.36-5.83,20.18c-0.01,0.08-0.02,0.17-0.03,0.25c-0.06,0.58-0.11,1.16-0.15,1.74
				c-0.03,0.36-0.05,0.72-0.07,1.07c-0.02,0.42-0.05,0.85-0.06,1.27c-0.03,0.83-0.04,1.67-0.03,2.5c0,0.06,0,0.13,0.01,0.19
				c0.01,0.85,0.05,1.71,0.1,2.56c0.01,0.12,0.02,0.23,0.02,0.35c0.06,0.88,0.14,1.75,0.24,2.63c0,0.02,0,0.04,0.01,0.06
				c0.11,0.95,0.23,1.89,0.39,2.84c2.93,17.6,12.9,32.98,28.82,44.48c8.88,6.41,17.43,10.07,22.25,11.82
				c0.73,0.31,1.48,0.58,2.23,0.83c0.31,0.1,0.62,0.18,0.93,0.27c0.65,0.19,1.3,0.37,1.96,0.51c0.47,0.1,0.95,0.15,1.43,0.22
				c0.41,0.06,0.82,0.15,1.23,0.19c0.51,0.05,1.03,0.06,1.55,0.09c0.36,0.02,0.73,0.06,1.09,0.06c0.04,0,0.07,0,0.11,0
				c0.01,0,0.02,0,0.04,0c0.04,0,0.07,0,0.11,0c0.04,0,0.08,0,0.12,0c0.01,0,0.03,0,0.04,0c0.03,0,0.07,0,0.1,0
				c0.36,0,0.71-0.04,1.07-0.06c0.52-0.02,1.05-0.03,1.57-0.09c0.4-0.04,0.8-0.12,1.19-0.18c0.49-0.07,0.98-0.13,1.47-0.23
				c0.62-0.13,1.22-0.31,1.83-0.48c0.37-0.11,0.74-0.21,1.11-0.33c0.73-0.24,1.46-0.5,2.17-0.81c4.81-1.75,13.37-5.41,22.25-11.82
				c15.92-11.5,25.89-26.89,28.82-44.48c0.16-0.95,0.28-1.89,0.39-2.84c0-0.02,0-0.04,0.01-0.05
				C598.74,163.01,598.82,162.13,598.88,161.26z M536.51,198.55C536.5,198.55,536.5,198.55,536.51,198.55c-0.01,0-0.01,0-0.01,0
				c-0.07,0.02-0.11,0.04-0.12,0.04l0-0.08c-2.97-0.96-31.06-10.66-35.3-36.11c-3.24-19.42,13.26-35.19,22.67-42.44v0
				c0.09-0.07,0.17-0.14,0.26-0.2v-14.24c-0.08-0.06-0.17-0.14-0.26-0.2v0c-9.41-7.26-25.9-23.02-22.67-42.44
				c4.24-25.46,32.35-35.16,35.3-36.11l0-0.08c0.01,0,0.05,0.02,0.12,0.04c0,0,0,0,0,0c0,0,0,0,0,0c0.07-0.02,0.11-0.04,0.12-0.04
				l0,0.08c2.95,0.95,31.06,10.65,35.3,36.11c3.24,19.42-13.26,35.19-22.67,42.44v0c-0.09,0.07-0.17,0.14-0.26,0.2v14.24
				c0.08,0.06,0.17,0.14,0.26,0.2v0c9.41,7.26,25.9,23.02,22.67,42.44c-4.24,25.45-32.33,35.15-35.3,36.11l0,0.08
				C536.62,198.59,536.57,198.57,536.51,198.55z"/>
		</defs>
		<use xlink:href="#SVGID_1_"  style="overflow:visible;fill:#FFFFFF;"/>
		<clipPath id="SVGID_00000083803198331504870960000018091632655140241541_">
			<use xlink:href="#SVGID_1_"  style="overflow:visible;"/>
		</clipPath>
		<path style="clip-path:url(#SVGID_00000083803198331504870960000018091632655140241541_);fill:#FFFFFF;" d="M549,119.75v-14.24
			c9.36-7.16,26.2-23.04,22.94-42.65c-4.24-25.45-32.33-35.15-35.3-36.11l0-0.09c0,0-0.05,0.02-0.13,0.04
			c-0.08-0.03-0.13-0.04-0.13-0.04l0,0.08c-2.95,0.95-31.06,10.65-35.3,36.11c-3.24,19.42,13.26,35.19,22.67,42.44v14.65
			c-9.41,7.26-25.9,23.02-22.67,42.44c4.24,25.45,32.33,35.15,35.3,36.11l0,0.09c0,0,0.05-0.02,0.13-0.04
			c0.08,0.03,0.13,0.04,0.13,0.04l0-0.08c2.95-0.95,31.06-10.65,35.3-36.11C575.21,142.79,558.36,126.91,549,119.75z"/>
	</g>
	<g class="st1">
		<defs>
			<path id="SVGID_00000034078895052346491160000002360072561228307889_" class="st1" d="M585.13,50.25
				c-0.12-0.01-0.23-0.02-0.35-0.02c-0.86-0.05-1.71-0.09-2.57-0.1c-0.06,0-0.12,0-0.18-0.01c-0.84-0.01-1.67,0-2.51,0.03
				c-0.42,0.01-0.85,0.04-1.27,0.06c-0.36,0.02-0.72,0.04-1.07,0.07c-0.58,0.04-1.15,0.09-1.73,0.15c-0.09,0.01-0.18,0.02-0.26,0.03
				c-6.82,0.73-13.59,2.69-20.18,5.83c-11.85,5.12-25.15,5.12-37,0c-6.59-3.14-13.36-5.1-20.18-5.83c-0.08-0.01-0.17-0.02-0.25-0.03
				c-0.58-0.06-1.16-0.11-1.74-0.15c-0.35-0.03-0.71-0.05-1.06-0.07c-0.43-0.02-0.85-0.05-1.28-0.06c-0.83-0.03-1.67-0.04-2.5-0.03
				c-0.06,0-0.13,0-0.19,0.01c-0.85,0.01-1.71,0.05-2.56,0.1c-0.12,0.01-0.24,0.02-0.36,0.02c-0.87,0.06-1.75,0.14-2.62,0.23
				c-0.02,0-0.04,0-0.06,0.01c-0.95,0.11-1.89,0.23-2.84,0.39c-17.59,2.93-32.97,12.89-44.47,28.81
				c-6.39,8.84-10.05,17.37-11.81,22.19c-1.33,3.07-2.04,6.36-2.15,9.69c-0.01,0.27-0.04,0.54-0.04,0.81c0,0.02,0,0.05,0,0.07
				c0,0.01,0,0.03,0,0.04c0,0.04,0,0.09,0,0.13c0,0.04,0,0.08,0,0.12c0,0.01,0,0.03,0,0.04c0,0.03,0,0.05,0,0.08
				c0,0.28,0.04,0.55,0.05,0.83c0.12,3.32,0.82,6.61,2.15,9.67c1.76,4.83,5.41,13.35,11.81,22.19
				c11.5,15.92,26.88,25.88,44.47,28.81c0.95,0.16,1.89,0.28,2.84,0.39c0.02,0,0.04,0,0.06,0.01c0.87,0.1,1.75,0.18,2.62,0.23
				c0.12,0.01,0.24,0.02,0.36,0.02c0.85,0.05,1.7,0.09,2.55,0.1c0.07,0,0.13,0,0.2,0.01c0.83,0.01,1.67,0,2.5-0.03
				c0.43-0.01,0.85-0.04,1.28-0.06c0.35-0.02,0.71-0.04,1.06-0.07c0.58-0.04,1.16-0.09,1.74-0.15c0.08-0.01,0.17-0.02,0.25-0.03
				c6.82-0.73,13.6-2.69,20.18-5.83c11.85-5.12,25.15-5.12,37,0c6.59,3.14,13.36,5.1,20.18,5.83c0.08,0.01,0.17,0.02,0.25,0.03
				c0.58,0.06,1.16,0.11,1.74,0.15c0.36,0.03,0.71,0.05,1.07,0.07c0.42,0.02,0.85,0.05,1.27,0.06c0.83,0.03,1.67,0.04,2.5,0.03
				c0.06,0,0.13,0,0.19-0.01c0.85-0.01,1.71-0.05,2.56-0.1c0.12-0.01,0.23-0.02,0.35-0.02c0.88-0.06,1.75-0.14,2.63-0.24
				c0.02,0,0.04,0,0.06-0.01c0.95-0.11,1.89-0.23,2.84-0.39c17.6-2.93,32.98-12.9,44.48-28.82c6.41-8.88,10.07-17.43,11.82-22.25
				c0.31-0.73,0.58-1.48,0.83-2.23c0.1-0.31,0.18-0.62,0.27-0.93c0.19-0.65,0.37-1.3,0.51-1.96c0.1-0.47,0.15-0.95,0.22-1.43
				c0.06-0.41,0.15-0.82,0.19-1.23c0.05-0.51,0.06-1.03,0.09-1.55c0.02-0.36,0.06-0.73,0.06-1.09c0-0.04,0-0.07,0-0.11
				c0-0.01,0-0.02,0-0.04c0-0.04,0-0.07,0-0.11c0-0.04,0-0.08,0-0.12c0-0.01,0-0.03,0-0.04c0-0.03,0-0.07,0-0.1
				c0-0.36-0.04-0.71-0.06-1.07c-0.02-0.52-0.03-1.05-0.09-1.57c-0.04-0.4-0.12-0.8-0.18-1.19c-0.07-0.49-0.13-0.98-0.23-1.47
				c-0.13-0.62-0.31-1.22-0.48-1.83c-0.11-0.37-0.21-0.74-0.33-1.11c-0.24-0.73-0.5-1.46-0.81-2.17
				c-1.75-4.81-5.41-13.37-11.82-22.25c-11.5-15.92-26.89-25.89-44.48-28.82c-0.95-0.16-1.89-0.28-2.84-0.39
				c-0.02,0-0.04,0-0.05-0.01C586.88,50.39,586.01,50.31,585.13,50.25z M622.42,112.62C622.42,112.63,622.42,112.63,622.42,112.62
				c0,0.01,0,0.01,0,0.01c0.02,0.07,0.04,0.11,0.04,0.12l-0.08,0c-0.96,2.97-10.66,31.06-36.11,35.3
				c-19.42,3.24-35.19-13.26-42.44-22.67h0c-0.07-0.09-0.14-0.17-0.2-0.26h-14.24c-0.06,0.08-0.14,0.17-0.2,0.26h0
				c-7.26,9.41-23.02,25.9-42.44,22.67c-25.46-4.24-35.16-32.35-36.11-35.3l-0.08,0c0-0.01,0.02-0.05,0.04-0.12c0,0,0,0,0,0
				c0,0,0,0,0,0c-0.02-0.07-0.04-0.11-0.04-0.12l0.08,0c0.95-2.95,10.65-31.06,36.11-35.3c19.42-3.24,35.19,13.26,42.44,22.67h0
				c0.07,0.09,0.14,0.17,0.2,0.26h14.24c0.06-0.08,0.14-0.17,0.2-0.26h0c7.26-9.41,23.02-25.9,42.44-22.67
				c25.45,4.24,35.15,32.33,36.11,35.3l0.08,0C622.46,112.51,622.44,112.55,622.42,112.62z"/>
		</defs>
		<use xlink:href="#SVGID_00000034078895052346491160000002360072561228307889_"  style="overflow:visible;fill:#FFFFFF;"/>
		<clipPath id="SVGID_00000107551084686146379430000015481635358778214829_">
			<use xlink:href="#SVGID_00000034078895052346491160000002360072561228307889_"  style="overflow:visible;"/>
		</clipPath>
		<path style="clip-path:url(#SVGID_00000107551084686146379430000015481635358778214829_);fill:#FFFFFF;" d="M543.62,100.13h-14.24
			c-7.16-9.36-23.04-26.2-42.65-22.94c-25.45,4.24-35.15,32.33-36.11,35.3l-0.09,0c0,0,0.02,0.05,0.04,0.13
			c-0.03,0.08-0.04,0.13-0.04,0.13l0.08,0c0.95,2.95,10.65,31.06,36.11,35.3c19.42,3.24,35.19-13.26,42.44-22.67h14.65
			c7.26,9.41,23.02,25.9,42.44,22.67c25.45-4.24,35.15-32.33,36.11-35.3l0.09,0c0,0-0.02-0.05-0.04-0.13
			c0.03-0.08,0.04-0.13,0.04-0.13l-0.08,0c-0.95-2.95-10.65-31.06-36.11-35.3C566.66,73.92,550.78,90.77,543.62,100.13z"/>
	</g>
	<g>
		<path class="st0" d="M74.62,677.92c0-0.8,0.38-1.2,1.15-1.2h14.55c1.73,0,3.31,0.34,4.77,1.01c1.45,0.68,2.7,1.58,3.75,2.7
			c1.05,1.13,1.87,2.42,2.45,3.88c0.58,1.46,0.87,2.98,0.87,4.57c0,1.55-0.29,3.05-0.86,4.5s-1.38,2.72-2.41,3.84
			c-1.03,1.12-2.27,2.02-3.71,2.69c-1.44,0.67-3.01,1.01-4.72,1.01h-8.44v12.73c0,0.73-0.38,1.1-1.15,1.1h-5.13
			c-0.75,0-1.12-0.37-1.12-1.1V677.92z M94.68,688.85c0-0.7-0.14-1.39-0.41-2.07c-0.27-0.68-0.65-1.28-1.13-1.8
			c-0.48-0.52-1.05-0.95-1.72-1.27c-0.67-0.32-1.4-0.49-2.18-0.49h-7.21v11.25h7.21c0.77,0,1.49-0.15,2.16-0.46
			c0.67-0.31,1.25-0.72,1.73-1.25c0.49-0.52,0.87-1.12,1.14-1.8C94.55,690.29,94.68,689.59,94.68,688.85z"/>
		<path class="st0" d="M126.4,677.92c0-0.8,0.38-1.2,1.13-1.2h15.68c1.73,0,3.34,0.32,4.84,0.97c1.5,0.65,2.81,1.53,3.93,2.64
			c1.12,1.11,2,2.42,2.64,3.92c0.64,1.5,0.96,3.1,0.96,4.79c0,1.18-0.16,2.31-0.49,3.38c-0.32,1.08-0.78,2.08-1.36,3
			c-0.58,0.92-1.27,1.76-2.08,2.5c-0.8,0.74-1.69,1.37-2.66,1.88l6.66,13.14c0.03,0.17,0.09,0.34,0.18,0.51
			c0.09,0.17,0.13,0.35,0.13,0.54c0,0.51-0.3,0.77-0.9,0.77h-5.94c-0.61,0-1.02-0.32-1.23-0.95l-6.2-12.3c-0.27,0-0.57,0-0.88,0.01
			c-0.32,0.01-0.75,0.01-1.31,0.01c-0.56,0-1.28,0-2.18,0s-2.05,0-3.47,0v12.12c0,0.73-0.39,1.1-1.18,1.1h-5.15
			c-0.34,0-0.61-0.09-0.82-0.27c-0.2-0.18-0.31-0.46-0.31-0.83V677.92z M148,689.08c0-0.73-0.14-1.44-0.41-2.13
			c-0.27-0.69-0.66-1.31-1.15-1.85c-0.5-0.55-1.08-0.99-1.77-1.33c-0.68-0.34-1.43-0.54-2.23-0.59c-0.6-0.02-1.18-0.03-1.76-0.04
			c-0.57-0.01-1.17-0.01-1.78-0.01h-5.05v11.89h6.76c0.34,0,0.66,0,0.96,0c0.3,0,0.62-0.02,0.96-0.05c0.8-0.05,1.54-0.24,2.22-0.56
			c0.67-0.32,1.25-0.75,1.73-1.29c0.48-0.54,0.85-1.15,1.12-1.84C147.87,690.58,148,689.85,148,689.08z"/>
		<path class="st0" d="M180,677.85c0-0.31,0.09-0.57,0.28-0.79c0.19-0.22,0.47-0.33,0.84-0.33h5.08c0.29,0,0.56,0.1,0.82,0.31
			c0.26,0.2,0.38,0.48,0.38,0.82v35.79c0,0.75-0.4,1.13-1.2,1.13h-5.08c-0.75,0-1.12-0.38-1.12-1.13V677.85z"/>
		<path class="st0" d="M224.96,714.02c-0.19-0.36-0.36-0.72-0.51-1.09c-0.15-0.37-0.31-0.75-0.46-1.14l-13.45-33.69
			c0-0.05-0.01-0.12-0.04-0.22c-0.03-0.09-0.04-0.21-0.04-0.35c0-0.55,0.35-0.82,1.05-0.82H217c0.65,0,1.09,0.32,1.33,0.97
			c0.38,1.08,0.83,2.34,1.37,3.78s1.11,2.97,1.72,4.59c0.61,1.61,1.23,3.27,1.87,4.96c0.64,1.69,1.26,3.33,1.87,4.92
			c0.61,1.59,1.17,3.08,1.69,4.47c0.52,1.39,0.96,2.58,1.32,3.57c0.38-0.99,0.82-2.18,1.33-3.57c0.51-1.39,1.06-2.88,1.65-4.47
			c0.59-1.59,1.2-3.23,1.83-4.92c0.63-1.69,1.25-3.34,1.84-4.96c0.6-1.61,1.17-3.14,1.7-4.59c0.54-1.44,1-2.7,1.4-3.78
			c0.24-0.65,0.7-0.97,1.38-0.97h5.38c0.77,0,1.15,0.28,1.15,0.85c0,0.12-0.01,0.23-0.04,0.33c-0.03,0.1-0.04,0.17-0.04,0.2
			l-13.43,33.69c-0.14,0.34-0.27,0.69-0.41,1.04c-0.14,0.35-0.29,0.69-0.46,1.01c-0.24,0.44-0.56,0.71-0.95,0.79
			c-0.39,0.09-0.86,0.13-1.41,0.13h-2.95c-0.39,0-0.67-0.08-0.83-0.23C225.17,714.38,225.05,714.21,224.96,714.02z"/>
		<path class="st0" d="M266.26,713.82c0.08-0.34,0.18-0.66,0.29-0.95c0.11-0.29,0.21-0.56,0.29-0.79l13.81-34.38
			c0.05-0.19,0.19-0.4,0.42-0.63c0.23-0.23,0.54-0.35,0.94-0.35h4.12c0.41,0,0.7,0.1,0.88,0.31c0.18,0.2,0.31,0.38,0.4,0.54l0.85,2
			l13.53,33.85c0,0.05,0.01,0.14,0.04,0.27c0.03,0.13,0.04,0.24,0.04,0.32c0,0.51-0.38,0.77-1.13,0.77h-5.05
			c-0.38,0-0.67-0.08-0.87-0.23c-0.2-0.15-0.38-0.39-0.51-0.72l-0.46-1.18c-0.32-0.82-0.65-1.64-0.97-2.46
			c-0.32-0.82-0.64-1.65-0.95-2.49h-15.81c-0.44,1.2-0.88,2.32-1.29,3.37c-0.42,1.05-0.77,1.97-1.06,2.75
			c-0.24,0.63-0.68,0.95-1.33,0.95h-5.12c-0.32,0-0.59-0.06-0.78-0.18c-0.2-0.12-0.29-0.3-0.29-0.54
			C266.24,713.95,266.25,713.87,266.26,713.82z M284.1,686.48c-0.92,2.36-1.84,4.8-2.75,7.33c-0.91,2.53-1.83,4.96-2.75,7.3h10.91
			L284.1,686.48z"/>
		<path class="st0" d="M357.89,695.78c0,1.78-0.23,3.48-0.69,5.11c-0.46,1.63-1.11,3.15-1.95,4.56c-0.84,1.41-1.84,2.69-3.01,3.83
			c-1.17,1.14-2.47,2.12-3.91,2.93c-1.44,0.81-2.98,1.44-4.63,1.88c-1.65,0.44-3.37,0.67-5.17,0.67h-12.31
			c-0.31,0-0.58-0.07-0.82-0.2c-0.24-0.14-0.36-0.43-0.36-0.87v-35.77c0-0.8,0.39-1.2,1.18-1.2h12.31c2.72,0,5.25,0.49,7.6,1.47
			c2.35,0.98,4.4,2.33,6.14,4.05c1.74,1.72,3.12,3.73,4.12,6.05C357.39,690.6,357.89,693.1,357.89,695.78z M332.44,683.74v24.01
			h2.43c1.28,0,2.56-0.03,3.84-0.08c1.69-0.05,3.25-0.4,4.69-1.04c1.44-0.64,2.68-1.5,3.73-2.58c1.05-1.08,1.87-2.34,2.46-3.78
			c0.59-1.44,0.88-3,0.88-4.65c0-1.76-0.32-3.37-0.96-4.83c-0.64-1.46-1.52-2.71-2.63-3.76c-1.11-1.04-2.41-1.85-3.89-2.42
			c-1.49-0.57-3.07-0.86-4.74-0.86H332.44z"/>
		<path class="st0" d="M377.33,713.82c0.08-0.34,0.18-0.66,0.29-0.95c0.11-0.29,0.21-0.56,0.29-0.79l13.81-34.38
			c0.05-0.19,0.19-0.4,0.42-0.63c0.23-0.23,0.54-0.35,0.94-0.35h4.12c0.41,0,0.7,0.1,0.88,0.31c0.18,0.2,0.31,0.38,0.4,0.54l0.85,2
			l13.53,33.85c0,0.05,0.01,0.14,0.04,0.27c0.03,0.13,0.04,0.24,0.04,0.32c0,0.51-0.38,0.77-1.13,0.77h-5.05
			c-0.38,0-0.67-0.08-0.87-0.23c-0.2-0.15-0.38-0.39-0.51-0.72l-0.46-1.18c-0.32-0.82-0.65-1.64-0.97-2.46
			c-0.32-0.82-0.64-1.65-0.95-2.49h-15.81c-0.44,1.2-0.88,2.32-1.29,3.37c-0.42,1.05-0.77,1.97-1.06,2.75
			c-0.24,0.63-0.68,0.95-1.33,0.95h-5.12c-0.32,0-0.59-0.06-0.78-0.18c-0.2-0.12-0.29-0.3-0.29-0.54
			C377.31,713.95,377.31,713.87,377.33,713.82z M395.16,686.48c-0.92,2.36-1.84,4.8-2.75,7.33c-0.91,2.53-1.83,4.96-2.75,7.3h10.91
			L395.16,686.48z"/>
		<path class="st0" d="M470.33,677.92c0-0.8,0.38-1.2,1.13-1.2h15.68c1.73,0,3.34,0.32,4.84,0.97c1.5,0.65,2.81,1.53,3.93,2.64
			c1.12,1.11,2,2.42,2.64,3.92c0.64,1.5,0.96,3.1,0.96,4.79c0,1.18-0.16,2.31-0.49,3.38c-0.32,1.08-0.78,2.08-1.36,3
			c-0.58,0.92-1.27,1.76-2.08,2.5c-0.8,0.74-1.69,1.37-2.66,1.88l6.66,13.14c0.03,0.17,0.09,0.34,0.18,0.51
			c0.09,0.17,0.13,0.35,0.13,0.54c0,0.51-0.3,0.77-0.9,0.77h-5.94c-0.61,0-1.02-0.32-1.23-0.95l-6.2-12.3c-0.27,0-0.57,0-0.88,0.01
			c-0.32,0.01-0.75,0.01-1.31,0.01c-0.56,0-1.28,0-2.18,0s-2.05,0-3.47,0v12.12c0,0.73-0.39,1.1-1.18,1.1h-5.15
			c-0.34,0-0.61-0.09-0.82-0.27c-0.2-0.18-0.31-0.46-0.31-0.83V677.92z M491.93,689.08c0-0.73-0.14-1.44-0.41-2.13
			c-0.27-0.69-0.66-1.31-1.15-1.85c-0.5-0.55-1.08-0.99-1.77-1.33c-0.68-0.34-1.43-0.54-2.23-0.59c-0.6-0.02-1.18-0.03-1.76-0.04
			c-0.57-0.01-1.17-0.01-1.78-0.01h-5.05v11.89h6.76c0.34,0,0.66,0,0.96,0c0.3,0,0.62-0.02,0.96-0.05c0.8-0.05,1.54-0.24,2.22-0.56
			c0.67-0.32,1.25-0.75,1.73-1.29c0.48-0.54,0.85-1.15,1.12-1.84C491.8,690.58,491.93,689.85,491.93,689.08z"/>
		<path class="st0" d="M523.91,677.95c0-0.82,0.38-1.23,1.13-1.23h24.7c0.44,0,0.76,0.12,0.95,0.37c0.19,0.25,0.28,0.56,0.28,0.94
			v4.53c0,0.31-0.11,0.58-0.32,0.82c-0.21,0.24-0.53,0.36-0.96,0.36h-18.22v7.76h14.04c0.34-0.03,0.61,0.04,0.82,0.22
			c0.2,0.18,0.31,0.48,0.31,0.91v4.64c0,0.31-0.09,0.58-0.26,0.82s-0.44,0.36-0.82,0.36h-14.09v9.3h18.88c0.48,0,0.79,0.1,0.95,0.31
			c0.15,0.21,0.23,0.52,0.23,0.95v4.68c0,0.72-0.38,1.08-1.13,1.08h-25.36c-0.31,0-0.57-0.09-0.79-0.26
			c-0.22-0.17-0.33-0.44-0.33-0.82V677.95z"/>
		<path class="st0" d="M597.23,686.86c-0.22,0-0.43-0.06-0.61-0.17c-0.19-0.11-0.4-0.26-0.64-0.45l-0.05-0.03
			c-0.32-0.32-0.74-0.68-1.26-1.08c-0.51-0.39-1.08-0.76-1.72-1.1c-0.63-0.34-1.31-0.63-2.04-0.87c-0.73-0.24-1.46-0.36-2.22-0.36
			c-0.96,0-1.8,0.11-2.54,0.32c-0.73,0.21-1.35,0.5-1.84,0.87c-0.5,0.37-0.87,0.8-1.13,1.29c-0.26,0.5-0.38,1.03-0.38,1.59
			c0,0.61,0.19,1.15,0.58,1.61c0.38,0.46,0.91,0.87,1.56,1.23c0.66,0.36,1.41,0.69,2.27,0.99c0.85,0.3,1.75,0.59,2.69,0.88
			c1.08,0.32,2.14,0.68,3.2,1.05c1.06,0.38,2.07,0.8,3.04,1.27c0.96,0.47,1.87,0.99,2.7,1.56c0.84,0.57,1.56,1.23,2.17,1.97
			c0.61,0.74,1.08,1.57,1.43,2.49s0.53,1.94,0.53,3.09c0,1.86-0.38,3.54-1.13,5.05c-0.75,1.5-1.79,2.79-3.11,3.86
			c-1.32,1.07-2.88,1.89-4.66,2.46c-1.79,0.57-3.7,0.86-5.75,0.86c-1.32,0-2.62-0.15-3.92-0.46c-1.3-0.31-2.55-0.74-3.74-1.31
			c-1.2-0.56-2.33-1.24-3.39-2.04c-1.07-0.79-2.02-1.69-2.86-2.68v0.03l-0.05-0.1c-0.38-0.43-0.56-0.82-0.56-1.18
			c0-0.19,0.05-0.37,0.15-0.54c0.1-0.17,0.26-0.36,0.46-0.56l0.85-0.85c0.26-0.22,0.53-0.47,0.82-0.74
			c0.29-0.27,0.58-0.52,0.87-0.74c0.29-0.22,0.56-0.41,0.81-0.56c0.25-0.15,0.45-0.23,0.6-0.23c0.24,0,0.46,0.08,0.67,0.23
			c0.2,0.15,0.38,0.3,0.51,0.44l0.1,0.1h-0.03c0.6,0.56,1.27,1.1,2.01,1.61s1.51,0.97,2.29,1.37c0.79,0.4,1.57,0.72,2.34,0.95
			c0.78,0.23,1.51,0.35,2.19,0.35c0.94,0,1.82-0.12,2.64-0.36c0.82-0.24,1.53-0.58,2.13-1.01c0.6-0.44,1.07-0.96,1.41-1.58
			c0.34-0.61,0.51-1.3,0.51-2.05c0-0.75-0.22-1.4-0.67-1.93c-0.44-0.54-1.02-1.01-1.74-1.41c-0.72-0.4-1.52-0.75-2.42-1.04
			c-0.9-0.29-1.8-0.56-2.7-0.82c-2.08-0.63-3.91-1.31-5.47-2.05c-1.56-0.73-2.87-1.56-3.91-2.47c-1.04-0.91-1.82-1.94-2.34-3.07
			c-0.52-1.14-0.78-2.41-0.78-3.83c0-1.59,0.32-3.04,0.96-4.34c0.64-1.31,1.55-2.42,2.73-3.36c1.18-0.93,2.6-1.66,4.25-2.18
			c1.66-0.52,3.51-0.78,5.56-0.78c1.55,0,3.13,0.24,4.74,0.73c1.61,0.49,3.09,1.16,4.46,2.01c0.41,0.26,0.83,0.55,1.26,0.87
			c0.43,0.32,0.82,0.65,1.18,0.99c0.36,0.33,0.65,0.66,0.88,0.97c0.23,0.32,0.35,0.59,0.35,0.81c0,0.2-0.05,0.41-0.15,0.63
			c-0.1,0.21-0.23,0.41-0.38,0.58l-0.77,0.82v-0.03c-0.26,0.27-0.52,0.56-0.79,0.85c-0.27,0.29-0.55,0.55-0.82,0.78
			c-0.27,0.23-0.52,0.42-0.74,0.58C597.58,686.79,597.39,686.86,597.23,686.86z"/>
		<path class="st0" d="M627.39,677.85c0-0.31,0.09-0.57,0.28-0.79c0.19-0.22,0.47-0.33,0.84-0.33h5.08c0.29,0,0.56,0.1,0.82,0.31
			c0.26,0.2,0.38,0.48,0.38,0.82v35.79c0,0.75-0.4,1.13-1.2,1.13h-5.08c-0.75,0-1.12-0.38-1.12-1.13V677.85z"/>
		<path class="st0" d="M693.67,695.78c0,1.78-0.23,3.48-0.69,5.11c-0.46,1.63-1.11,3.15-1.95,4.56c-0.84,1.41-1.84,2.69-3.01,3.83
			c-1.17,1.14-2.47,2.12-3.91,2.93c-1.44,0.81-2.98,1.44-4.63,1.88c-1.65,0.44-3.37,0.67-5.17,0.67H662c-0.31,0-0.58-0.07-0.82-0.2
			c-0.24-0.14-0.36-0.43-0.36-0.87v-35.77c0-0.8,0.39-1.2,1.18-1.2h12.31c2.72,0,5.25,0.49,7.6,1.47c2.35,0.98,4.4,2.33,6.14,4.05
			c1.74,1.72,3.12,3.73,4.12,6.05C693.17,690.6,693.67,693.1,693.67,695.78z M668.23,683.74v24.01h2.43c1.28,0,2.56-0.03,3.84-0.08
			c1.69-0.05,3.25-0.4,4.69-1.04c1.44-0.64,2.68-1.5,3.73-2.58c1.05-1.08,1.87-2.34,2.46-3.78c0.59-1.44,0.88-3,0.88-4.65
			c0-1.76-0.32-3.37-0.96-4.83c-0.64-1.46-1.52-2.71-2.63-3.76c-1.11-1.04-2.41-1.85-3.89-2.42c-1.49-0.57-3.07-0.86-4.74-0.86
			H668.23z"/>
		<path class="st0" d="M718.57,677.95c0-0.82,0.38-1.23,1.13-1.23h24.7c0.44,0,0.76,0.12,0.95,0.37c0.19,0.25,0.28,0.56,0.28,0.94
			v4.53c0,0.31-0.11,0.58-0.32,0.82c-0.21,0.24-0.53,0.36-0.96,0.36h-18.22v7.76h14.04c0.34-0.03,0.61,0.04,0.82,0.22
			c0.2,0.18,0.31,0.48,0.31,0.91v4.64c0,0.31-0.09,0.58-0.26,0.82s-0.44,0.36-0.82,0.36h-14.09v9.3h18.88c0.48,0,0.79,0.1,0.95,0.31
			c0.15,0.21,0.23,0.52,0.23,0.95v4.68c0,0.72-0.38,1.08-1.13,1.08H719.7c-0.31,0-0.57-0.09-0.79-0.26
			c-0.22-0.17-0.33-0.44-0.33-0.82V677.95z"/>
		<path class="st0" d="M770.28,677.87c0-0.32,0.1-0.6,0.29-0.82c0.2-0.22,0.47-0.33,0.83-0.33h5.89c0.24,0,0.47,0.06,0.68,0.17
			c0.21,0.11,0.41,0.29,0.58,0.53c2.92,4.17,5.82,8.31,8.69,12.41c2.87,4.11,5.76,8.25,8.69,12.41v-24.54
			c0.05-0.31,0.18-0.55,0.38-0.72c0.2-0.17,0.45-0.26,0.74-0.26H802c0.34,0,0.64,0.1,0.88,0.31c0.25,0.2,0.37,0.48,0.37,0.82v35.87
			c0,0.7-0.4,1.05-1.2,1.05h-5.56c-0.38,0-0.73-0.23-1.05-0.69c-3.01-4.36-6-8.71-8.98-13.05c-2.98-4.35-5.97-8.71-8.95-13.08v25.7
			c0,0.38-0.09,0.66-0.27,0.85c-0.18,0.19-0.48,0.28-0.91,0.28h-4.92c-0.39,0-0.68-0.1-0.86-0.29c-0.18-0.2-0.27-0.47-0.27-0.81
			V677.87z"/>
		<path class="st0" d="M858.08,679.49c0.2,0.12,0.38,0.26,0.51,0.44c0.14,0.17,0.2,0.38,0.2,0.61c0,0.19-0.05,0.38-0.15,0.59
			l-2.49,4.23c-0.29,0.39-0.6,0.59-0.92,0.59c-0.1,0-0.22-0.02-0.36-0.06c-0.14-0.04-0.27-0.11-0.41-0.19
			c-1.08-0.77-2.23-1.37-3.46-1.79c-1.23-0.43-2.54-0.64-3.92-0.64c-1.74,0-3.34,0.33-4.79,0.99c-1.45,0.66-2.71,1.55-3.77,2.68
			c-1.06,1.13-1.88,2.45-2.47,3.97s-0.88,3.15-0.88,4.89c0,1.73,0.29,3.34,0.88,4.86c0.59,1.51,1.41,2.83,2.47,3.96
			c1.06,1.13,2.31,2.02,3.77,2.66c1.45,0.65,3.05,0.97,4.79,0.97c1.38,0,2.7-0.21,3.96-0.64c1.26-0.43,2.41-1.03,3.47-1.79
			c0.14-0.1,0.28-0.17,0.42-0.2c0.14-0.03,0.27-0.06,0.37-0.08c0.29,0,0.59,0.19,0.9,0.56l2.54,4.28c0.1,0.2,0.15,0.39,0.15,0.56
			c0,0.24-0.07,0.44-0.22,0.59c-0.15,0.15-0.31,0.3-0.5,0.44c-1.61,1.08-3.33,1.91-5.19,2.5s-3.8,0.88-5.85,0.88
			c-1.81,0-3.55-0.23-5.21-0.69c-1.67-0.46-3.22-1.12-4.68-1.97c-1.45-0.85-2.77-1.87-3.96-3.06c-1.19-1.19-2.21-2.5-3.06-3.95
			c-0.85-1.44-1.51-3-1.97-4.66c-0.46-1.67-0.69-3.4-0.69-5.21c0-1.81,0.23-3.55,0.69-5.21c0.46-1.67,1.12-3.23,1.97-4.69
			c0.85-1.46,1.87-2.79,3.06-3.98c1.19-1.2,2.51-2.22,3.96-3.06c1.45-0.85,3.01-1.5,4.68-1.97c1.67-0.47,3.4-0.7,5.21-0.7
			c2.03,0,3.96,0.29,5.79,0.86C854.76,677.58,856.47,678.41,858.08,679.49z"/>
		<path class="st0" d="M883.7,677.85c0-0.31,0.09-0.57,0.28-0.79c0.19-0.22,0.47-0.33,0.84-0.33h5.08c0.29,0,0.56,0.1,0.82,0.31
			c0.26,0.2,0.38,0.48,0.38,0.82v35.79c0,0.75-0.4,1.13-1.2,1.13h-5.08c-0.75,0-1.12-0.38-1.12-1.13V677.85z"/>
		<path class="st0" d="M914.75,713.82c0.08-0.34,0.18-0.66,0.29-0.95c0.11-0.29,0.21-0.56,0.29-0.79l13.81-34.38
			c0.05-0.19,0.19-0.4,0.42-0.63c0.23-0.23,0.54-0.35,0.94-0.35h4.12c0.41,0,0.7,0.1,0.88,0.31c0.18,0.2,0.31,0.38,0.4,0.54l0.85,2
			l13.53,33.85c0,0.05,0.01,0.14,0.04,0.27c0.03,0.13,0.04,0.24,0.04,0.32c0,0.51-0.38,0.77-1.13,0.77h-5.05
			c-0.38,0-0.67-0.08-0.87-0.23c-0.2-0.15-0.38-0.39-0.51-0.72l-0.46-1.18c-0.32-0.82-0.65-1.64-0.97-2.46
			c-0.32-0.82-0.64-1.65-0.95-2.49h-15.81c-0.44,1.2-0.88,2.32-1.29,3.37c-0.42,1.05-0.77,1.97-1.06,2.75
			c-0.24,0.63-0.68,0.95-1.33,0.95h-5.12c-0.32,0-0.59-0.06-0.78-0.18c-0.2-0.12-0.29-0.3-0.29-0.54
			C914.73,713.95,914.74,713.87,914.75,713.82z M932.58,686.48c-0.92,2.36-1.84,4.8-2.75,7.33c-0.91,2.53-1.83,4.96-2.75,7.3h10.91
			L932.58,686.48z"/>
		<path class="st0" d="M973.81,677.85c0-0.31,0.1-0.57,0.31-0.79c0.2-0.22,0.49-0.33,0.87-0.33h5.08c0.31,0,0.57,0.1,0.8,0.29
			c0.23,0.2,0.34,0.47,0.34,0.83v29.9h16.04c0.31,0,0.57,0.11,0.79,0.32c0.22,0.21,0.33,0.5,0.33,0.86v4.69
			c0,0.31-0.1,0.58-0.31,0.81c-0.2,0.23-0.48,0.35-0.82,0.35h-22.32c-0.75,0-1.12-0.38-1.12-1.13V677.85z"/>
		<path class="st0" d="M408.72,779.14c0.2,0.12,0.38,0.26,0.51,0.44c0.14,0.17,0.2,0.38,0.2,0.61c0,0.19-0.05,0.38-0.15,0.59
			l-2.49,4.23c-0.29,0.39-0.6,0.59-0.92,0.59c-0.1,0-0.22-0.02-0.36-0.06c-0.14-0.04-0.27-0.11-0.41-0.19
			c-1.08-0.77-2.23-1.37-3.46-1.79c-1.23-0.43-2.54-0.64-3.92-0.64c-1.74,0-3.34,0.33-4.79,0.99c-1.45,0.66-2.71,1.55-3.77,2.68
			c-1.06,1.13-1.88,2.45-2.47,3.97s-0.88,3.15-0.88,4.89c0,1.73,0.29,3.34,0.88,4.86c0.59,1.51,1.41,2.83,2.47,3.96
			c1.06,1.13,2.31,2.02,3.77,2.66c1.45,0.65,3.05,0.97,4.79,0.97c1.38,0,2.7-0.21,3.96-0.64c1.26-0.43,2.41-1.03,3.47-1.79
			c0.14-0.1,0.28-0.17,0.42-0.2c0.14-0.03,0.27-0.06,0.37-0.08c0.29,0,0.59,0.19,0.9,0.56l2.54,4.28c0.1,0.2,0.15,0.39,0.15,0.56
			c0,0.24-0.07,0.44-0.22,0.59c-0.15,0.15-0.31,0.3-0.5,0.44c-1.61,1.08-3.33,1.91-5.19,2.5s-3.8,0.88-5.85,0.88
			c-1.81,0-3.55-0.23-5.21-0.69c-1.67-0.46-3.22-1.12-4.68-1.97c-1.45-0.85-2.77-1.87-3.96-3.06c-1.19-1.19-2.21-2.5-3.06-3.95
			c-0.85-1.44-1.51-3-1.97-4.66c-0.46-1.67-0.69-3.4-0.69-5.21c0-1.81,0.23-3.55,0.69-5.21c0.46-1.67,1.12-3.23,1.97-4.69
			c0.85-1.46,1.87-2.79,3.06-3.98c1.19-1.2,2.51-2.22,3.96-3.06c1.45-0.85,3.01-1.5,4.68-1.97c1.67-0.47,3.4-0.7,5.21-0.7
			c2.03,0,3.96,0.29,5.79,0.86C405.39,777.24,407.11,778.07,408.72,779.14z"/>
		<path class="st0" d="M432.8,795.44c0-1.79,0.23-3.53,0.69-5.2c0.46-1.67,1.12-3.24,1.97-4.69c0.85-1.45,1.87-2.78,3.06-3.97
			c1.19-1.2,2.51-2.22,3.96-3.06c1.45-0.85,3.01-1.5,4.68-1.97c1.67-0.47,3.4-0.7,5.21-0.7c1.79,0,3.52,0.24,5.19,0.7
			c1.67,0.47,3.22,1.13,4.68,1.97c1.45,0.85,2.78,1.87,3.97,3.06c1.2,1.2,2.22,2.52,3.06,3.97c0.85,1.45,1.5,3.01,1.97,4.69
			c0.47,1.67,0.7,3.42,0.7,5.23c0,1.81-0.24,3.54-0.7,5.2c-0.47,1.66-1.13,3.21-1.97,4.66c-0.85,1.45-1.87,2.77-3.06,3.96
			c-1.2,1.19-2.52,2.2-3.97,3.05c-1.45,0.85-3.01,1.5-4.68,1.96c-1.67,0.46-3.4,0.69-5.21,0.69c-1.81,0-3.55-0.23-5.21-0.69
			s-3.22-1.12-4.68-1.97c-1.45-0.85-2.77-1.87-3.96-3.06c-1.19-1.19-2.2-2.5-3.05-3.95c-0.85-1.44-1.5-3-1.96-4.66
			C433.03,798.99,432.8,797.25,432.8,795.44z M440.2,795.39c0,1.73,0.31,3.34,0.94,4.84c0.62,1.5,1.48,2.81,2.56,3.92
			c1.08,1.11,2.37,1.99,3.84,2.64c1.48,0.65,3.08,0.97,4.8,0.97c1.71,0,3.3-0.32,4.78-0.97c1.48-0.65,2.76-1.53,3.86-2.64
			c1.09-1.11,1.95-2.42,2.57-3.92c0.62-1.5,0.93-3.12,0.93-4.84c0-1.71-0.31-3.31-0.93-4.82c-0.62-1.5-1.48-2.81-2.57-3.93
			c-1.09-1.12-2.38-2-3.86-2.65c-1.48-0.65-3.07-0.97-4.78-0.97c-1.73,0-3.33,0.32-4.8,0.97c-1.48,0.65-2.76,1.53-3.84,2.65
			c-1.08,1.12-1.94,2.43-2.56,3.93C440.52,792.07,440.2,793.68,440.2,795.39z"/>
		<path class="st0" d="M496.62,777.53c0-0.32,0.1-0.6,0.29-0.82c0.2-0.22,0.47-0.33,0.83-0.33h5.89c0.24,0,0.47,0.06,0.68,0.17
			c0.21,0.11,0.41,0.29,0.58,0.53c2.92,4.17,5.82,8.31,8.69,12.41c2.87,4.11,5.76,8.25,8.69,12.41v-24.54
			c0.05-0.31,0.18-0.55,0.38-0.72c0.2-0.17,0.45-0.26,0.74-0.26h4.94c0.34,0,0.64,0.1,0.88,0.31c0.25,0.2,0.37,0.48,0.37,0.82v35.87
			c0,0.7-0.4,1.05-1.2,1.05h-5.56c-0.38,0-0.73-0.23-1.05-0.69c-3.01-4.36-6-8.71-8.98-13.05c-2.98-4.35-5.97-8.71-8.95-13.08v25.7
			c0,0.38-0.09,0.66-0.27,0.85c-0.18,0.19-0.48,0.28-0.91,0.28h-4.92c-0.39,0-0.68-0.1-0.86-0.29c-0.18-0.2-0.27-0.47-0.27-0.81
			V777.53z"/>
		<path class="st0" d="M555.81,777.5c0-0.31,0.1-0.57,0.29-0.79c0.2-0.22,0.47-0.33,0.83-0.33h5.2c0.12,0,0.25,0.03,0.4,0.08
			c0.15,0.05,0.28,0.13,0.4,0.23c0.12,0.1,0.22,0.22,0.31,0.36c0.09,0.14,0.13,0.29,0.13,0.46v15.22l14.37-15.55
			c0.34-0.53,0.72-0.79,1.13-0.79h7.33c0.46,0,0.69,0.1,0.69,0.31c0,0.14-0.1,0.32-0.31,0.54l-13.53,15.76l15.78,20.42
			c0.26,0.34,0.38,0.59,0.38,0.74c0,0.19-0.18,0.28-0.54,0.28h-7.79c-0.41,0-0.79-0.26-1.13-0.79l-12.04-15.35l-4.36,4.51v10.5
			c0,0.75-0.41,1.13-1.23,1.13h-5.2c-0.75,0-1.13-0.38-1.13-1.13V777.5z"/>
		<path class="st0" d="M609.53,813.47c0.08-0.34,0.18-0.66,0.29-0.95s0.21-0.56,0.29-0.79l13.81-34.38c0.05-0.19,0.19-0.4,0.42-0.63
			c0.23-0.23,0.54-0.35,0.94-0.35h4.12c0.41,0,0.7,0.1,0.88,0.31c0.18,0.2,0.31,0.38,0.4,0.54l0.85,2l13.53,33.85
			c0,0.05,0.01,0.14,0.04,0.27c0.03,0.13,0.04,0.24,0.04,0.32c0,0.51-0.38,0.77-1.13,0.77h-5.05c-0.38,0-0.67-0.08-0.87-0.23
			c-0.2-0.15-0.38-0.39-0.51-0.72l-0.46-1.18c-0.32-0.82-0.65-1.64-0.97-2.46c-0.32-0.82-0.64-1.65-0.95-2.49H619.4
			c-0.44,1.2-0.88,2.32-1.29,3.37c-0.42,1.05-0.77,1.97-1.06,2.75c-0.24,0.63-0.68,0.95-1.33,0.95h-5.12
			c-0.32,0-0.59-0.06-0.78-0.18c-0.2-0.12-0.29-0.3-0.29-0.54C609.51,813.6,609.52,813.53,609.53,813.47z M627.36,786.14
			c-0.92,2.36-1.84,4.8-2.75,7.33c-0.91,2.53-1.83,4.96-2.75,7.3h10.91L627.36,786.14z"/>
		<path class="st0" d="M668.59,777.5c0-0.31,0.1-0.57,0.31-0.79c0.2-0.22,0.49-0.33,0.87-0.33h5.08c0.31,0,0.57,0.1,0.8,0.29
			c0.23,0.2,0.34,0.47,0.34,0.83v29.9h16.04c0.31,0,0.57,0.11,0.79,0.32c0.22,0.21,0.33,0.5,0.33,0.86v4.69
			c0,0.31-0.1,0.58-0.31,0.81c-0.2,0.23-0.48,0.35-0.82,0.35h-22.32c-0.75,0-1.12-0.38-1.12-1.13V777.5z"/>
	</g>
</g>
</svg>
