<svg xmlns="http://www.w3.org/2000/svg" viewBox="0 0 3472.08 347.75"><defs><style>.cls-1{fill:#fff;}</style></defs><g id="Capa_2" data-name="Capa 2"><g id="Capa_1-2" data-name="Capa 1"><g id="Capa_2-2" data-name="Capa 2"><g id="Capa_1-2-2" data-name="Capa 1-2"><path class="cls-1" d="M2339.43,174.38c-11-.7-14,7.76-15.71,16.53-.9,4.75-.62,9.76-1.8,14.42-14.55,57.33-70.7,106.46-126.63,111-60.58,4.91-119.65-28.11-143.58-80.33-14-30.53-6.86-43,26.52-44.32,36.53-1.46,73.31.49,109.53-3.36,52.88-5.63,91.58-47.87,89.88-93.15-1.88-49.62-45.6-91.36-99.73-92.26-73.16-1.25-146.37.37-219.52-1-26.38-.5-33.66,10-32.92,34.5,1.4,46.07.4,92.22.4,138.33l.24,0c0,48.54-.16,97.08.13,145.62.06,10.51-1.7,24.35,14.3,24.35,15.57,0,14.76-13.63,14.94-24.29.54-32.76.48-65.53.7-98.29.07-13.12,3.85-24.31,18-28.18,9.83-2.69,20.82-2.55,26.83,6.16s9.5,19.38,12.93,29.58c36.93,109.73,178.21,154.6,270,84.06,38.31-29.44,68.06-66.32,69.66-118.32C2353.91,185.16,2352.62,175.21,2339.43,174.38ZM1988,159.22c-20.84.13-31.69-9.67-32.14-30.54,0-1.21,0-2.43-.08-3.63-6.49-89.89-5.11-91.32,85.47-91,42.56.13,85.13-.67,127.67.25,46.5,1,74.42,25.06,74.38,62.06,0,40-26.85,61.91-76.55,62.57-14.59.19-29.18.16-43.77.19-13.38,0-26.75-.05-40.13,0C2051.27,159.17,2019.66,159,1988,159.22Z"/><path class="cls-1" d="M666.2,174.11c0-47.37.73-94.76-.31-142.11-.49-21.87,7.37-29.27,29.67-29.94,78.78-2.34,113,22.64,132.15,100,12.85,51.78,25.65,103.58,38.89,155.26a92.33,92.33,0,0,0,9.84,23.36c4.65,7.95,8,20.24,20.3,17.42,12.66-2.89,9.73-15.19,9.76-24.42.26-69.24-.67-138.5.84-207.71.44-20.5-11.38-45.19,9.84-61.13,15.7-11.8,88-.14,105,14.79,27.81,24.52,39.17,58,47.94,92.32,12.28,48.14,23.69,96.5,35.75,144.7,6.17,24.62,20,44.17,41.76,57.59,9.86,6.08,21,12.33,12.14,25-7.8,11.24-19.92,6.3-29.72.93-36.19-19.83-50.6-54.57-60.42-91.43-13.72-51.51-25.86-103.43-38.86-155.13-3-11.8-7.32-22.92-15.46-32.6-14.86-17.69-31.19-31.65-56.38-23.86-25.45,7.88-21,29.53-21,48.57-.13,74.1.22,148.2-.23,222.3-.08,12.6,5.38,29.06-10.25,35.86-15.45,6.73-31.64,1.79-45-7.74-32.84-23.41-45.31-58.69-55.48-95.58-14.79-53.61-18.75-110-42.33-161.28-5-10.85-11.18-21.77-19.18-30.51-12.43-13.59-29-17.9-46.84-11.57s-21.34,21.15-21.29,38.22c.22,79,.33,157.92-.29,236.87-.1,13,6.35,33.78-17.08,32.42-19.88-1.14-13.25-20.18-13.45-32.12C665.75,266.44,666.2,220.27,666.2,174.11Z"/><path class="cls-1" d="M3107.21,171.38c-1.42-86.91-77.6-165.1-166-168.18-52.46-1.83-105,.08-157.46-1-22.68-.51-29.88,9.09-29.45,30.49.93,46.14.28,92.31.28,138.47h.22c0,48.59.69,97.19-.31,145.76-.45,21.72,7.13,30.54,29.63,30.06,52.46-1.13,105,1,157.46-.92C3035,342.68,3108.69,263.94,3107.21,171.38ZM3072,193.49c-4.34,61.19-67.47,120-133.73,122.74-37.73,1.57-75.59,0-113.38.73-26.66.49-37.68-13.46-37.9-38-.31-35.18-.08-70.36-.08-105.55l-.21,0V71.49c0-23.14,11-37.87,34.93-37.38,45,.92,90.21-4.1,135,4.25C3034,52.79,3077.8,111.56,3072,193.49Z"/><path class="cls-1" d="M3456.8,314.16c-19.87-7.35-28.08-25.25-35-44-19.84-53.77-19.65-112-38.84-166-17.23-48.48-43.8-88-97.05-98.86-27-5.5-55.9-1.56-83.9-3.22-25-1.48-35.34,8.14-34.48,33.72,1.38,41.22.38,82.52.38,123.79q.23,80.1.22,160.22c0,12.94,1.33,26.2,18.11,25.45,14.58-.66,15-13.64,15.21-24.76.27-15.77.1-31.56.1-47.34.55-89.32-9.34-81.06,83.12-81.61,7.36,0,14.69.1,22,0,78.52-1,64.46,3.34,76.68,62.34,2.45,11.83,5.42,23.74,10.05,34.83,10,24,23.79,45.62,49.9,55,10.62,3.82,22.6,3.89,27.5-9.67C3475.25,321.72,3467.47,318.11,3456.8,314.16ZM3320.42,158.91c-13.34.22-26.7,0-40.06,0-83.67-.66-79.14,12.93-78.73-80.66.17-38.61,8.56-45.95,47.89-44.33,55.41,2.28,85.89,25.81,103.54,79.95C3363.65,146.42,3355.27,158.08,3320.42,158.91Z"/><path class="cls-1" d="M1701.19,3C1607.44,2.6,1525,80.72,1523.94,170.89c-1.12,97.31,76.89,175.16,176.17,175.79,97.52.6,176.21-75.57,176.52-171C1877,80.72,1798.31,3.3,1701.19,3Zm.88,313.42c-79,0-141.72-61.8-142-139.92-.33-79.21,62.77-143.26,139.71-141.81,81.59,1.54,142.43,61.25,142.29,139.66C1841.94,253.2,1779.7,316.39,1702.07,316.37Z"/><path class="cls-1" d="M2699.5,315.53c-26.64-17.43-34.78-44.18-42.1-73.48-12.92-51.68-16.17-105.52-36.79-155.52C2603.18,44.26,2574.45,13.8,2529.45,5c-28.32-5.56-58.43-1.49-87.67-3-22.77-1.18-30.18,9.61-29.94,30.61.55,46.17.17,92.35.17,138.52h.21c0,49.82-.12,99.64.09,149.46.05,11,.32,23.39,15.51,24.33,16.94,1.05,15-12.45,15.37-22.95.56-17,.31-34,.37-51,.3-79.17.3-79.17,79.94-79.25,84.33-.07,84.58-.14,107.44,79,8.71,30.15,21.28,57.12,51.53,71.42,8.9,4.21,20,7.42,26.45-2.58C2715.55,329.3,2708.33,321.31,2699.5,315.53ZM2564.86,158.88c-13.4.28-26.85,0-40.23.07-86.75,0-91.12-5.88-80.28-94.37,2.66-21.8,13.39-28.63,32.9-30.4C2539.1,28.57,2581,57,2597.36,116.49,2606.18,148.49,2599,158,2564.86,158.88Z"/><path class="cls-1" d="M1496,93.64c-1.14-50.1-43.54-89.58-99.54-90.7-52.41-1-104.89.47-157.3-.87-24.18-.62-32.25,8.88-31.7,32.09,1.09,46.08.33,92.21.33,138.32q-.09,74.63.06,149.25c0,11.2.28,23.37,15.78,23.53,15.8.15,15.73-12.38,15.86-23.38.34-30.34,1.25-60.71.16-91-1-28.22,12.07-39.76,39.36-39.59,41.46.26,83.07,1.79,124.35-1.07C1461.22,186.22,1497.23,146.85,1496,93.64Zm-30,6.69c-1.89,30.14-33,57.42-67.8,58.54-20.67.66-41.39.12-62.08.12v.22h-14.61c-86,0-86.11-.76-82.13-88,1.1-24,11-36.78,34.66-37.1,42.6-.57,85.29-1.66,127.79.5C1439.93,36.55,1468.08,67.5,1466,100.33Z"/><path class="cls-1" d="M386.9,171.24c0-45,1-89.95-.4-134.86C385.72,12,392.33,1,419.13,1.86c51.24,1.68,102.57.27,153.86.63,11.46.08,27.63-3.53,28.18,14.37.63,20.5-17.06,16.82-29.66,17-37.85.59-75.71.53-113.57.4-27.49-.09-40.12,13.16-39.48,40.49,2.38,102-14.93,82,80.61,84.16,26.86.6,53.74,0,80.6.36,9.93.13,20.72.9,21.51,14.22.9,15.36-10.72,17.56-22.15,17.7-41.52.51-83.08,1.65-124.55.22-26.76-.93-36.58,8.2-36.48,35.56.36,100-3.13,89.76,88.21,89.84q36.63,0,73.28.11c10.15,0,20.62.87,21.47,14,.87,13.59-9.36,15.4-19.73,15.43-57.4.19-114.8,0-172.19.39-22,.16-21.82-14.44-21.8-29.71q.09-72.91,0-145.82Z"/><path class="cls-1" d="M161.4,2.48c45.07,0,90.13-.1,135.19.07C307.33,2.6,321,.88,322.18,16c1.37,17.4-12.62,17.81-25.27,17.87-21.92.1-43.85-.31-65.76.16-40.47.86-54.61,14.94-54.76,55-.27,72.71.49,145.43-.66,218.12-.21,13.12,10.29,37.7-14.53,36.64-22-.94-14.13-24.64-14.29-38.86-.84-72.7-.26-145.42-.61-218.12C146.11,48.19,132.57,34.72,94,34c-23.13-.47-46.29.07-69.42-.4C14,33.32.43,35.34,0,19.35-.45,1.17,14.19,2.73,26.21,2.68c45.06-.21,90.13-.09,135.19-.09Z"/></g></g></g></g></svg>