<svg xmlns="http://www.w3.org/2000/svg" viewBox="0 0 3472.08 347.75"><defs><style>.cls-1{fill:#fff;}</style></defs><g id="Capa_2" data-name="Capa 2"><g id="Capa_1-2" data-name="Capa 1"><path class="cls-1" d="M1925.86,174.79c0-46.11,1-92.26-.4-138.33-.74-24.49,6.54-35,32.92-34.5,73.15,1.37,146.36-.25,219.52,1,54.13.9,97.85,42.64,99.73,92.26,1.7,45.28-37,87.52-89.88,93.15-36.22,3.85-73,1.9-109.53,3.36-33.38,1.33-40.5,13.79-26.52,44.32,23.93,52.22,83,85.24,143.58,80.33,55.93-4.54,112.08-53.67,126.63-111,1.18-4.66.9-9.67,1.8-14.42,1.66-8.77,4.67-17.23,15.71-16.53,13.19.83,14.48,10.78,14.17,21.1-1.6,52-31.35,88.88-69.66,118.32-91.79,70.54-233.07,25.67-270-84.06-3.43-10.2-6.92-20.87-12.93-29.58s-17-8.85-26.83-6.16c-14.15,3.87-17.93,15.06-18,28.18-.22,32.76-.16,65.53-.7,98.29-.18,10.66.63,24.27-14.94,24.29-16,0-14.24-13.84-14.3-24.35-.29-48.54-.13-97.08-.13-145.62Z"/><path class="cls-1" d="M666.19,174.16c0-47.37.73-94.76-.31-142.11-.49-21.87,7.37-29.27,29.67-29.94,78.78-2.34,113,22.64,132.15,100,12.85,51.78,25.65,103.58,38.89,155.26a92.42,92.42,0,0,0,9.84,23.36c4.65,7.95,8,20.24,20.3,17.42,12.66-2.89,9.73-15.19,9.76-24.42.26-69.24-.67-138.5.84-207.71.44-20.5-11.38-45.19,9.84-61.13,15.7-11.8,88-.14,105,14.79,27.81,24.52,39.17,58,47.94,92.32,12.28,48.14,23.69,96.5,35.75,144.7,6.17,24.62,20,44.17,41.76,57.59,9.86,6.08,21,12.33,12.14,25-7.8,11.24-19.92,6.3-29.72.93-36.19-19.83-50.6-54.57-60.42-91.43-13.72-51.51-25.86-103.43-38.86-155.13-3-11.8-7.32-22.92-15.46-32.6-14.86-17.69-31.19-31.65-56.38-23.86-25.45,7.88-21,29.53-21,48.57-.13,74.1.22,148.2-.23,222.3-.08,12.6,5.38,29.06-10.25,35.86-15.45,6.73-31.64,1.79-45-7.74-32.84-23.41-45.31-58.69-55.48-95.58-14.79-53.61-18.75-110-42.33-161.28-5-10.85-11.18-21.77-19.18-30.51-12.43-13.59-29-17.9-46.84-11.57S697.27,58.4,697.32,75.47c.22,79,.33,157.92-.29,236.87-.1,13,6.35,33.78-17.08,32.42-19.88-1.14-13.25-20.18-13.45-32.12C665.74,266.49,666.19,220.32,666.19,174.16Z"/><path class="cls-1" d="M2754.57,171.21c0-46.16.65-92.33-.28-138.47-.43-21.4,6.77-31,29.45-30.49,52.47,1.08,105-.83,157.46,1,88.4,3.08,164.58,81.27,166,168.18,1.48,92.56-72.21,171.3-165.63,174.68-52.43,1.89-105-.21-157.46.92-22.5.48-30.08-8.34-29.63-30.06,1-48.57.31-97.17.31-145.76Z"/><path class="cls-1" d="M3201.54,273.21c0,15.78.17,31.57-.1,47.34-.2,11.12-.63,24.1-15.21,24.76-16.78.75-18.11-12.51-18.11-25.45q0-80.12-.22-160.22c0-41.27,1-82.57-.38-123.79C3166.66,10.27,3177,.65,3202,2.13c28,1.66,56.85-2.28,83.9,3.22,53.25,10.81,79.82,50.38,97.05,98.86,19.19,54,19,112.23,38.84,166,6.92,18.75,15.13,36.65,35,44,10.67,3.95,18.45,7.56,14,19.89-4.9,13.56-16.88,13.49-27.5,9.67-26.11-9.38-39.86-31-49.9-55-4.63-11.09-7.6-23-10.05-34.83-12.22-59,1.84-63.34-76.68-62.34-7.31.1-14.64,0-22,0C3192.2,192.15,3202.09,183.89,3201.54,273.21Z"/><path class="cls-1" d="M1701.18,3c97.12.35,175.76,77.77,175.44,172.73-.31,95.43-79,171.6-176.52,171-99.28-.63-177.29-78.48-176.17-175.79C1525,80.77,1607.43,2.65,1701.18,3Z"/><path class="cls-1" d="M2412,171.22c0-46.17.38-92.35-.17-138.52-.24-21,7.17-31.79,29.94-30.61,29.24,1.51,59.35-2.56,87.67,3,45,8.76,73.73,39.22,91.16,81.49,20.62,50,23.87,103.84,36.79,155.52,7.32,29.3,15.46,56.05,42.1,73.48,8.83,5.78,16.05,13.77,9.42,24.06-6.47,10-17.55,6.79-26.45,2.58-30.25-14.3-42.82-41.27-51.53-71.42-22.86-79.14-23.11-79.07-107.44-79-79.64.08-79.64.08-79.94,79.25-.06,17,.19,34-.37,51-.34,10.5,1.57,24-15.37,22.95-15.19-.94-15.46-13.31-15.51-24.33-.21-49.82-.09-99.64-.09-149.46Z"/><path class="cls-1" d="M1207.81,172.53c0-46.11.76-92.24-.33-138.32C1206.93,11,1215,1.5,1239.18,2.12c52.41,1.34,104.89-.18,157.3.87,56,1.12,98.4,40.6,99.54,90.7,1.2,53.21-34.81,92.58-92.64,96.58-41.28,2.86-82.89,1.33-124.35,1.07-27.29-.17-40.37,11.37-39.36,39.59,1.09,30.29.18,60.66-.16,91-.13,11-.06,23.53-15.86,23.38-15.5-.16-15.76-12.33-15.78-23.53Q1207.72,247.15,1207.81,172.53Z"/><path class="cls-1" d="M386.89,171.29c0-45,1-89.95-.4-134.86C385.71,12.09,392.32,1,419.12,1.91c51.24,1.68,102.57.27,153.86.63,11.46.08,27.63-3.53,28.18,14.37.63,20.5-17.06,16.82-29.66,17-37.85.59-75.71.53-113.57.4-27.49-.09-40.12,13.16-39.48,40.49,2.38,102-14.93,82,80.61,84.16,26.86.6,53.74,0,80.6.36,9.93.13,20.72.9,21.51,14.22.9,15.36-10.72,17.56-22.15,17.7-41.52.51-83.08,1.65-124.55.22-26.76-.93-36.58,8.2-36.48,35.56.36,100-3.13,89.76,88.21,89.84,24.42,0,48.85,0,73.28.11,10.15,0,20.62.87,21.47,14,.87,13.59-9.36,15.4-19.73,15.43-57.4.19-114.8,0-172.19.39-22,.16-21.82-14.44-21.8-29.71q.09-72.92,0-145.82Z"/><path class="cls-1" d="M161.39,2.53c45.07,0,90.13-.1,135.19.07C307.32,2.65,321,.93,322.17,16c1.37,17.4-12.62,17.81-25.27,17.87-21.92.1-43.85-.31-65.76.16-40.47.86-54.61,14.94-54.76,55-.27,72.71.49,145.43-.66,218.12-.21,13.12,10.29,37.7-14.53,36.64-22-.94-14.13-24.64-14.29-38.86-.84-72.7-.26-145.42-.61-218.12C146.1,48.24,132.56,34.77,94,34c-23.13-.47-46.29.07-69.42-.4C14,33.37.42,35.39,0,19.4-.46,1.22,14.18,2.78,26.2,2.73c45.06-.21,90.13-.09,135.19-.09Z"/><path class="cls-1" d="M2082.88,159.17c-31.62.05-63.23-.1-94.85.1-20.84.13-31.69-9.67-32.14-30.54,0-1.21,0-2.43-.08-3.63-6.49-89.89-5.11-91.32,85.47-91,42.56.13,85.13-.67,127.67.25,46.5,1,74.42,25.06,74.38,62.06,0,40-26.85,61.91-76.55,62.57-14.59.19-29.18.16-43.77.19C2109.63,159.15,2096.26,159.12,2082.88,159.17Z"/><path class="cls-1" d="M2786.7,173.44q0-50.94,0-101.9c0-23.14,11-37.87,34.93-37.38,45,.92,90.21-4.1,135,4.25C3034,52.84,3077.79,111.61,3072,193.54c-4.34,61.19-67.47,120-133.73,122.74-37.73,1.57-75.59,0-113.38.73-26.66.49-37.68-13.46-37.9-38-.31-35.18-.08-70.36-.08-105.55Z"/><path class="cls-1" d="M3280.35,159c-83.67-.66-79.14,12.93-78.73-80.66.17-38.61,8.56-45.95,47.89-44.33,55.41,2.28,85.89,25.81,103.54,79.95,10.59,32.51,2.21,44.17-32.64,45C3307.07,159.18,3293.71,158.93,3280.35,159Z"/><path class="cls-1" d="M1842.06,174.35c-.13,78.9-62.37,142.09-140,142.07-79,0-141.72-61.8-142-139.92-.33-79.21,62.77-143.26,139.71-141.81C1781.36,36.23,1842.2,95.94,1842.06,174.35Z"/><path class="cls-1" d="M2524.62,159c-86.75,0-91.12-5.88-80.28-94.37,2.66-21.8,13.39-28.63,32.9-30.4,61.85-5.61,103.74,22.8,120.11,82.31,8.82,32,1.62,41.55-32.5,42.39C2551.45,159.21,2538,158.93,2524.62,159Z"/><path class="cls-1" d="M1336.14,159.26h-14.61c-86,0-86.11-.76-82.13-88,1.1-24,11-36.78,34.66-37.1,42.6-.57,85.29-1.66,127.79.5,38.07,1.94,66.22,32.89,64.17,65.72-1.89,30.14-33,57.42-67.8,58.54-20.67.66-41.39.12-62.08.12Z"/></g></g></svg>